<svg width="36.747mm" height="14.663mm" version="1.1" viewBox="0 0 36.74662 14.66317" xmlns="http://www.w3.org/2000/svg">
  <g transform="translate(-128.48 -153.41)">
    <path d="m141.76 153.41c-5.2274 3.3541 3.6205 7.2589 3.7279 0.67457 0.82009 1.136 1.8249 1.0392 2.6572-0.054-0.12026 6.6071 9.0545 2.7335 3.8755-0.62055 4.4319 0.91122 9.2079 0.91029 13.207 7.2073-4.2963-2.5203-7.3305-0.28933-8.2548 2.8676-6.5351-2.2044-8.4173 1.0341-10.03 4.5882-3.7211-7.0339-6.9589-5.5594-10.22-4.5042-1.4671-4.3753-4.8727-4.8159-8.2417-2.9871 1.623-2.9722 6.1173-6.8492 13.278-7.1718z"/>
  </g>
</svg>
