<svg width="35.129mm" height="13.72mm" version="1.1" viewBox="0 0 35.129185 13.719524" xmlns="http://www.w3.org/2000/svg">
  <g transform="translate(-129.51 -108.73)">
    <path d="m140.59 109.03c-2.2167 3.769 1.4205 3.4223 3.6516 3.4158 0.94031-1.0041 0.76903-2.4544 1.1069-3.7168l0.91859 1.1378h1.5317l0.93341-1.1378c0.34255 1.2441-0.0885 2.5108 1.051 3.7317 2.4131 0.0198 5.8505-9e-3 3.7098-3.3226 11.117 2.3086 10.105 9.1134 2.2346 11.245 1.7324-3.2068-1.634-3.286-3.5609-1.4214-2.1718-2.8534-4.9332 0.82084-5.0811 2.5315-0.34036-1.9271-2.8383-5.2949-5.4136-2.5466-2.5365-2.6838-4.8708-1.1716-3.3887 1.7969-12.632-5.5776-1.9222-10.96 2.3067-11.714z"/>
    <path d="m135.08 110.29c0.3706 3.8325 5.0301 3.9689 9.661 4.0124 1.8715-0.6661 2.001-2.322 2.377-3.6695 0.2933 1.279 0.64798 3.324 2.5192 3.7364 5.6261-0.0678 9.0299-1.5294 9.4108-4.0432 4.1188 0.914 10.68 7.3846-1.2615 11.786 13.444-7.2315-9.9833-12.246-10.696-0.61989-0.70659-11.602-24.796-6.415-10.28 0.90822-10.847-3.9626-7.8778-10.153-1.73-12.11z" stroke="#fff" stroke-width=".1"/>
  </g>
</svg>
