<svg width="31.609mm" height="17.245mm" version="1.1" viewBox="0 0 31.60891 17.244675" xmlns="http://www.w3.org/2000/svg">
  <g transform="translate(-132.23 -13.718)">
    <path d="m142.25 14.977c1.1286 0.38513 2.3321 2.2175 3.8086 2.9739l2e-3 -4.1625 0.69437 2.2022c0.81794-0.82845 1.664-0.75676 2.53-0.04846l0.73394-2.2247 0.0351 3.9761c1.406-0.79863 2.8618-2.2635 3.9457-2.7705 4.2738 4.3264 7.6786 9.1663 9.8395 14.741-3.3753-1.8538-3.0317-0.26425-4.063 0.0523-1.8541-1.3534-3.6478-2.254-4.9338 0.65348-3.0749-2.6851-5.0377-1.5888-6.6814 0.59215-2.887-3.5166-4.8293-2.0261-6.7789-0.57452-1.482-2.8673-3.3328-1.8615-5.1907-0.78163-1.3203-1.6216-2.6407-0.3703-3.961 0.05822 2.7333-6.1573 5.1722-10.838 10.019-14.687z"/>
    <path d="m146.72 18.852c0.82897 0.62049 1.6579 0.80256 2.4869-0.10813 0.0792 0.61555 0.0723 1.1967-0.32439 1.6219-0.52753 0.02403-0.95631 0.04805-1.6579 0.07209-0.30296-0.52862-0.57926-1.0572-0.50458-1.5859z"/>
  </g>
</svg>
