<svg width="29.221mm" height="14.688mm" version="1.1" viewBox="0 0 29.2208 14.688313" xmlns="http://www.w3.org/2000/svg">
  <g transform="translate(-92.855 -16.013)">
    <path d="m96.206 16.013c1.9203 2.1539 5.2998 6.7426 8.7753 0 1.4163 1.5483 2.9364 2.267 4.8296 0 0.58903 1.0284 2.5466 7.3069 8.8019 0 3.6472 4.13 4.1172 8.3822 2.7752 12.704-2.9602-5.8565-5.1359-3.7888-7.1446-0.0355-2.5977-3.9019-6.4481 0.56717-6.8471 2.0197-1.5273-3.1202-4.9095-5.1042-6.884-2.0908-1.703-3.3269-3.5738-5.8794-7.2618-0.03759-1.3208-7.2613 0.9204-9.7732 2.9554-12.56z"/>
  </g>
</svg>
