<svg width="31.909mm" height="21.013mm" version="1.1" viewBox="0 0 31.908962 21.01293" xmlns="http://www.w3.org/2000/svg">
  <g transform="translate(-49.466 -102.29)">
    <path d="m60.974 102.29c-4.7774 3.6587-6.0174 6.4673 1.5505 7.1592 1.0238-0.83067 0.94026-4.5136 1.3677-6.963l0.50712 1.6051h2.0538l0.46618-1.6051c0.48446 2.299-0.28844 5.194 1.5281 6.8782 9.5189-0.67361 4.0129-5.3604 1.3931-7.0745 15.513 2.7803 14.425 17.343 2.4148 20.688 8.4983-8.8046 0.56765-9.4623-3.2033-3.6196 1.8196-5.381-3.6922-3.6806-3.6079 3.9444-0.24056-7.6568-5.1081-9.2138-3.6819-3.8209-6.8506-7.7897-9.9634-2.7196-3.0588 3.6404-15.081-5.5325-9.7938-19.514 2.2706-20.832z"/>
  </g>
</svg>
