<svg width="19.68mm" height="21.532mm" version="1.1" viewBox="0 0 19.680283 21.531662" xmlns="http://www.w3.org/2000/svg">
  <g transform="translate(-56.027 -11.874)">
    <path d="m60.448 11.974c-0.64484 4.5753 1.468 5.3588 4.085 5.449l0.37986-1.967 2.1865-0.0049 0.22472 2.0567c4.261-0.43538 4.6821-2.7388 3.8889-5.6329 6.1801 5.7779 5.8018 14.231 0 19.446 1.49-3.2485 0.78203-7.7072-1.7715-3.7386-2.783-4.6236-3.036 3.651-3.6363 5.8238-0.66904-5.273-1.5097-9.3963-3.4844-5.9211-1.6235-3.0043-3.4344-1.1654-1.5751 3.9351-5.6956-4.0203-6.7506-13.983-0.29765-19.446z"/>
  </g>
</svg>
