<svg width="34.936mm" height="14.415mm" version="1.1" viewBox="0 0 34.935909 14.41462" xmlns="http://www.w3.org/2000/svg">
  <g transform="translate(-171.12 -153.48)">
    <path d="m178.47 153.48c1.3188 2.1913 3.6874 3.5137 7.7483 3.4356l0.62725-1.7381 0.74839 1.6774 1.9888-0.0731 0.678-1.5756 0.61729 1.9064c2.3041-0.45706 6.4665-0.518 7.7227-3.6327 3.4897 0.11435 5.7595 1.5128 7.4558 3.5149-6.7807 0.61982-7.3274 3.8135-7.5978 6.5327-5.7283-1.6933-8.1141 1.0156-10.012 4.367-2.2926-5.9054-6.461-5.0046-9.7991-4.4735-1.0042-6.4632-4.832-5.865-7.5268-6.5327 1.7661-1.4488 3.2356-3.2238 7.3493-3.4084z"/>
  </g>
</svg>
