<svg width="35.766mm" height="15.03mm" version="1.1" viewBox="0 0 35.765678 15.02973" xmlns="http://www.w3.org/2000/svg">
  <g transform="translate(-47.758 -247.67)">
    <path d="m63.909 247.67c-1.705 0.92414-2.848 1.8483-3.4662 2.7724l3.3384 0.2482c-0.24145-1.0759 0.57887-1.8484 1.2487-2.664l0.07191 1.0572 1.2552-0.0147 0.14905-1.092c0.67555 0.92202 1.2472 1.6158 1.411 2.7937l3.0395-0.4657c-0.69459-1.4012-2.1984-1.7908-3.3792-2.5841 8.5901 0.31676 14.073 6.7388 15.947 13.96-2.1593-1.7974-4.4215-3.4508-7.2524-4.3081-0.82974 0.72303-1.6801 1.3019-2.3795 2.937-1.9757-0.82174-2.9551-0.97938-4.1635-1.2896-1.7678 0.78727-2.7012 2.4089-3.9856 3.6796-0.95647-1.4257-1.9194-2.845-3.4069-3.7396-2.0379 0.17536-3.2527 0.67996-4.6499 1.1116-0.41764-0.87123-0.81666-1.7471-1.7629-2.4862-3.6123 0.47778-5.5727 2.4701-8.1651 4.0953 0.5007-2.962 5.9251-13.907 16.151-14.011z"/>
  </g>
</svg>
