<?xml version="1.0" encoding="UTF-8" standalone="no"?>
<svg
   xmlns:dc="http://purl.org/dc/elements/1.1/"
   xmlns:cc="http://creativecommons.org/ns#"
   xmlns:rdf="http://www.w3.org/1999/02/22-rdf-syntax-ns#"
   xmlns:svg="http://www.w3.org/2000/svg"
   xmlns="http://www.w3.org/2000/svg"
   xmlns:sodipodi="http://sodipodi.sourceforge.net/DTD/sodipodi-0.dtd"
   xmlns:inkscape="http://www.inkscape.org/namespaces/inkscape"
   id="svg989"
   viewBox="0 0 102.29 60.405"
   version="1.1"
   height="61.015mm"
   width="102.29mm"
   sodipodi:docname="anim-52points-unscaled.svg"
   inkscape:version="0.92.2 5c3e80d, 2017-08-06">
  <sodipodi:namedview
     pagecolor="#ffffff"
     bordercolor="#666666"
     borderopacity="1"
     objecttolerance="10"
     gridtolerance="10"
     guidetolerance="10"
     inkscape:pageopacity="0"
     inkscape:pageshadow="2"
     inkscape:window-width="1680"
     inkscape:window-height="921"
     id="namedview801"
     showgrid="false"
     inkscape:zoom="0.16276"
     inkscape:cx="197.29"
     inkscape:cy="-211.73"
     inkscape:window-x="0"
     inkscape:window-y="1"
     inkscape:window-maximized="1"
     inkscape:current-layer="svg989" />
  <metadata
     id="metadata995">
    <rdf:RDF>
      <cc:Work
         rdf:about="">
        <dc:format>image/svg+xml</dc:format>
        <dc:type
           rdf:resource="http://purl.org/dc/dcmitype/StillImage" />
        <dc:title />
      </cc:Work>
    </rdf:RDF>
  </metadata>
  <defs
     id="defs993" />
  <path
     d="M 51.209,11.006 C 54.362,11.006 57.53,11.166 60.639,11.486 63.679,11.806 66.689,12.296 69.593,12.936 72.367,13.566 75.079,14.336 77.619,15.246 80.009,16.136 82.298,17.146 84.327,18.316 86.209,19.416 87.965,20.646 89.363,22.006 90.696,23.288 91.802,24.668 92.518,26.138 93.201,27.528 93.591,28.988 93.591,30.458 93.591,31.938 93.201,33.398 92.518,34.788 91.802,36.238 90.696,37.638 89.363,38.898 87.965,40.238 86.209,41.468 84.327,42.578 82.295,43.778 80.012,44.788 77.619,45.668 75.082,46.588 72.367,47.358 69.593,47.978 66.689,48.618 63.679,49.108 60.639,49.428 57.53,49.758 54.362,49.908 51.209,49.908 48.058,49.908 44.898,49.758 41.793,49.428 38.747,49.108 35.732,48.618 32.826,47.978 30.049,47.358 27.334,46.588 24.797,45.668 22.41,44.788 20.133,43.748 18.105,42.578 16.206,41.468 14.466,40.238 13.055,38.898 11.725,37.638 10.617,36.238 9.9017,34.788 9.2117,33.398 8.8477,31.898 8.8477,30.458 8.8477,29.008 9.2147,27.528 9.9017,26.138 10.617,24.668 11.722,23.288 13.055,22.006 14.466,20.646 16.202,19.416 18.105,18.316 20.13,17.146 22.413,16.136 24.797,15.246 27.337,14.336 30.049,13.566 32.826,12.936 35.732,12.296 38.747,11.806 41.793,11.486 44.898,11.166 48.058,11.006 51.209,11.006 Z M 51.484,7.6364 C 39.413,7.6364 26.289,9.2264 16.227,15.896 11.176,19.246 5.4297,24.518 5.5087,30.578 5.5907,36.868 11.721,42.158 17.031,45.528 26.911,51.808 39.612,53.248 51.317,53.128 63.794,52.998 77.468,51.418 87.685,44.258 92.166,41.118 96.822,36.058 96.78,30.588 96.735,24.648 91.769,18.976 86.689,15.906 77.237,10.186 63.539,7.6364 51.484,7.6364 Z M 51.249,44.638 C 50.982,44.228 47.572,39.518 45.027,37.768 42.936,36.318 40.378,34.328 37.928,34.998 37.367,35.148 37.002,35.808 36.85,36.368 36.637,37.148 37.185,38.788 37.185,38.788 37.185,38.788 35.667,37.248 34.786,36.638 33.874,36.008 32.856,35.528 31.837,35.088 31.062,34.748 30.282,34.358 29.444,34.248 28.62,34.138 27.539,33.838 26.957,34.428 26.403,34.998 26.66,36.028 26.831,36.808 27.019,37.658 27.584,38.398 28.061,39.128 28.545,39.878 29.111,40.578 29.706,41.248 30.247,41.848 31.448,42.938 31.448,42.938 28.902,42.308 21.862,39.958 18.509,36.498 16.854,34.788 15.307,32.388 15.531,30.018 15.819,26.958 18.414,24.348 20.874,22.516 25.786,18.846 34.519,17.166 38.268,16.536 38.268,16.536 36.568,17.566 35.978,18.336 35.617,18.806 35.356,19.386 35.283,19.976 35.231,20.396 35.287,20.856 35.478,21.236 35.699,21.676 36.09,22.036 36.513,22.276 36.963,22.546 37.506,22.608 38.019,22.698 39.312,22.918 41.945,22.988 41.945,22.988 41.945,22.988 42.337,22.446 42.531,22.176 44.046,20.066 47.048,15.836 47.048,15.836 47.114,18.366 47.179,20.906 47.245,23.438 47.245,23.438 49.913,23.358 51.248,23.348 52.617,23.348 55.356,23.418 55.356,23.418 55.39,20.886 55.424,18.366 55.458,15.836 55.458,15.836 58.349,19.986 59.847,22.016 60.114,22.376 60.665,23.088 60.665,23.088 60.665,23.088 62.309,22.938 63.126,22.818 63.897,22.708 64.679,22.628 65.426,22.406 65.783,22.306 66.184,22.236 66.458,21.976 66.896,21.576 67.236,20.986 67.272,20.386 67.315,19.676 66.944,18.966 66.534,18.376 65.987,17.596 64.348,16.536 64.348,16.536 67.249,17.086 76.366,18.926 81.297,22.276 83.616,23.858 85.958,26.008 86.734,28.708 87.247,30.488 86.982,32.678 85.949,34.208 82.815,38.878 75.114,41.778 71.397,42.738 71.397,42.738 72.666,41.398 73.274,40.708 73.807,40.098 74.405,39.538 74.826,38.848 75.232,38.188 75.62,37.468 75.741,36.708 75.855,35.988 76.069,35.038 75.546,34.528 74.811,33.818 73.488,34.168 72.479,34.348 71.464,34.528 70.558,35.108 69.642,35.578 68.733,36.048 67.805,36.518 67.016,37.168 66.445,37.638 65.528,38.818 65.528,38.818 65.528,38.818 65.943,37.218 65.7,36.478 65.493,35.838 65.051,35.108 64.401,34.948 62.09,34.378 59.752,36.298 57.793,37.648 55.164,39.458 51.508,44.258 51.249,44.638 Z"
     style="fill:#ff0000;fill-opacity:1;stroke:#ff0008;stroke-width:0.2622;stroke-miterlimit:4;stroke-dasharray:none;stroke-opacity:1"
     id="2008-tv-sigil"
     inkscape:connector-curvature="0" />
  <path
     d="M 51.204,7.2764 C 53.944,7.2764 56.684,7.4664 59.374,7.8564 62.024,8.2364 64.634,8.8164 67.154,9.5864 69.564,10.336 71.923,11.256 74.113,12.356 76.193,13.416 78.173,14.616 79.933,16.016 81.573,17.336 83.093,18.806 84.303,20.416 85.463,21.956 86.423,23.62 87.043,25.36 87.643,27.02 87.973,28.78 87.973,30.54 87.973,32.3 87.643,34.05 87.043,35.72 86.423,37.45 85.463,39.12 84.303,40.64 83.093,42.25 81.573,43.72 79.933,45.05 78.173,46.47 76.193,47.67 74.113,48.74 71.923,49.84 69.564,50.76 67.154,51.5 64.634,52.28 62.024,52.85 59.374,53.23 56.684,53.63 53.944,53.82 51.204,53.82 48.464,53.82 45.721,53.63 43.026,53.23 40.384,52.85 37.767,52.28 35.245,51.5 32.836,50.76 30.481,49.84 28.279,48.74 26.209,47.67 24.234,46.44 22.473,45.05 20.825,43.72 19.315,42.25 18.092,40.64 16.938,39.12 15.975,37.45 15.355,35.72 14.757,34.05 14.441,32.28 14.441,30.54 14.441,28.81 14.759,27.02 15.355,25.36 15.975,23.62 16.935,21.956 18.092,20.416 19.315,18.806 20.822,17.336 22.473,16.016 24.23,14.616 26.212,13.416 28.279,12.356 30.484,11.256 32.836,10.336 35.245,9.5864 37.767,8.8164 40.384,8.2364 43.026,7.8564 45.721,7.4664 48.464,7.2764 51.204,7.2764 Z M 51.154,3.6764 C 40.373,3.6164 28.543,6.2764 20.228,13.136 15.21,17.276 11.015,23.87 11.076,30.38 11.14,37.15 15.654,43.9 20.936,48.14 29.131,54.71 40.648,57.19 51.154,57.1 62.244,57.01 74.453,54.29 82.893,47.1 87.603,43.07 91.254,36.67 91.214,30.47 91.174,24.16 87.363,17.716 82.543,13.646 74.153,6.5664 62.134,3.7264 51.154,3.6764 Z M 51.324,46.06 C 51.324,46.06 50.304,41.21 48.904,39.26 47.724,37.57 46.154,35.32 44.094,35.36 43.117,35.38 42.361,36.44 41.889,37.29 41.146,38.63 41.154,41.83 41.154,41.83 41.154,41.83 40.024,39.18 38.95,38.32 38.084,37.61 36.902,36.94 35.808,37.16 34.876,37.36 34.091,38.22 33.703,39.08 33.202,40.21 33.665,42.77 33.665,42.77 33.665,42.77 32.095,41.63 31.172,41.45 30.247,41.29 29.219,41.37 28.363,41.77 27.47,42.18 26.681,42.93 26.211,43.79 25.759,44.63 25.706,46.59 25.706,46.59 25.706,46.59 23.351,42.04 22.632,39.59 21.836,36.89 21.3,34.06 21.297,31.24 21.294,27.95 21.839,24.61 22.844,21.456 23.704,18.756 26.619,13.866 26.619,13.866 26.619,13.866 28.441,15.466 29.387,16.226 30.284,16.956 31.194,17.666 32.144,18.316 33.208,19.046 34.294,19.746 35.438,20.346 36.526,20.906 37.67,21.366 38.817,21.796 39.866,22.186 40.929,22.556 42.01,22.85 43.193,23.16 45.603,23.59 45.603,23.59 45.603,23.59 46.824,19.096 47.504,16.876 47.624,16.476 47.884,15.686 47.884,15.686 48.044,16.066 48.194,16.456 48.344,16.836 48.344,16.836 50.324,16.896 51.324,16.896 52.244,16.896 54.094,16.836 54.094,16.836 54.234,16.416 54.364,15.996 54.504,15.576 54.504,15.576 54.794,16.436 54.934,16.876 55.604,19.086 56.774,23.57 56.774,23.57 56.774,23.57 58.504,23.29 59.354,23.1 60.424,22.86 61.494,22.62 62.534,22.256 63.724,21.866 64.854,21.336 65.974,20.796 67.184,20.236 68.404,19.676 69.514,18.976 70.533,18.356 71.483,17.616 72.433,16.896 73.633,15.986 75.963,14.066 75.963,14.066 75.963,14.066 78.963,19.056 79.843,21.806 80.723,24.59 81.043,27.53 81.133,30.43 81.213,33.03 81.043,35.69 80.413,38.22 79.683,41.1 76.923,46.46 76.923,46.46 76.923,46.46 76.693,44.52 76.223,43.69 75.733,42.87 75.033,42.1 74.163,41.72 73.263,41.31 72.173,41.29 71.203,41.52 70.363,41.71 68.954,42.83 68.954,42.83 68.954,42.83 69.254,40.47 68.874,39.39 68.594,38.58 68.144,37.63 67.344,37.32 66.304,36.91 65.004,37.36 64.084,37.95 62.804,38.79 61.434,41.74 61.434,41.74 61.434,41.74 61.444,38.04 60.394,36.68 59.814,35.95 58.794,35.33 57.874,35.47 56.044,35.73 54.754,37.65 53.734,39.2 52.394,41.21 51.324,46.06 51.324,46.06 Z"
     style="fill:#ff0000;fill-opacity:1;stroke:#ff0008;stroke-width:0.26719;stroke-miterlimit:4;stroke-dasharray:none;stroke-opacity:1"
     id="2004-cartoon-sigil"
     inkscape:connector-curvature="0" />
  <path
     d="M 51.038,4.2164 C 53.858,4.2164 56.678,4.4364 59.428,4.8664 62.148,5.3064 64.828,5.9664 67.408,6.8364 69.878,7.6864 72.288,8.7264 74.548,9.9864 76.688,11.196 78.718,12.566 80.518,14.146 82.188,15.656 83.758,17.326 85.008,19.156 86.178,20.916 87.168,22.801 87.798,24.773 88.418,26.662 88.768,28.66 88.768,30.659 88.768,32.658 88.418,34.655 87.798,36.545 87.168,38.517 86.178,40.405 85.008,42.13 83.758,43.963 82.188,45.633 80.518,47.139 78.718,48.754 76.688,50.123 74.548,51.328 72.288,52.587 69.878,53.628 67.408,54.476 64.828,55.352 62.148,56.009 59.428,56.447 56.678,56.885 53.858,57.105 51.038,57.105 48.258,57.105 45.428,56.885 42.678,56.447 39.958,56.009 37.288,55.352 34.688,54.476 32.218,53.628 29.798,52.587 27.558,51.328 25.428,50.123 23.398,48.727 21.598,47.139 19.908,45.633 18.358,43.963 17.088,42.13 15.928,40.405 14.928,38.517 14.308,36.545 13.678,34.655 13.358,32.629 13.358,30.659 13.358,28.687 13.678,26.662 14.308,24.773 14.928,22.801 15.928,20.916 17.088,19.156 18.358,17.326 19.908,15.656 21.598,14.146 23.398,12.566 25.428,11.196 27.558,9.9864 29.798,8.7264 32.218,7.6864 34.688,6.8364 37.288,5.9664 39.958,5.3064 42.678,4.8664 45.428,4.4364 48.258,4.2164 51.038,4.2164 Z M 51.148,0.02644 C 39.798,-0.03356 27.438,3.5264 19.058,10.786 13.458,15.626 9.4977,23.184 9.5677,30.385 9.6277,37.86 13.908,45.606 19.788,50.561 28.048,57.515 40.098,60.91 51.148,60.746 63.198,60.554 75.978,56.467 84.598,48.499 89.528,43.928 92.838,37.011 92.718,30.495 92.608,23.513 89.118,16.126 83.728,11.356 75.278,3.8864 62.718,0.07644 51.148,0.02644 Z M 51.048,48.892 C 51.048,48.892 50.148,42.347 48.188,39.88 47.258,38.715 45.778,37.196 44.348,37.606 43.408,37.873 43.148,39.234 42.998,40.195 42.798,41.524 43.688,44.171 43.688,44.171 43.688,44.171 41.328,41.441 40.018,40.2 39.068,39.306 38.118,38.402 37.018,37.709 35.958,37.043 34.858,36.239 33.618,36.141 32.248,36.033 30.488,36.167 29.648,37.258 28.678,38.526 29.148,40.518 29.608,42.047 29.948,43.179 30.868,44.049 31.588,44.988 32.528,46.21 33.548,47.367 34.608,48.48 35.568,49.481 37.628,51.338 37.628,51.338 34.578,50.903 25.948,47.004 22.078,42.455 19.048,38.892 16.788,33.972 17.178,29.313 17.608,24.195 21.058,19.386 24.908,15.986 29.578,11.866 37.738,9.4764 42.108,8.6864 42.108,8.6864 38.228,10.446 36.748,11.926 35.368,13.296 34.038,14.996 33.718,16.916 33.528,18.106 33.748,19.486 34.498,20.426 35.608,21.816 37.608,22.286 39.338,22.717 41.198,23.18 43.698,23.306 45.088,22.978 45.868,22.795 46.508,22.622 46.748,21.236 46.888,20.446 47.568,15.436 47.818,12.526 47.918,11.326 47.988,8.9164 47.988,8.9164 48.418,9.9664 48.838,11.016 49.268,12.066 49.268,12.066 50.448,12.156 51.038,12.166 51.638,12.176 52.828,12.156 52.828,12.156 53.258,11.076 53.678,9.9964 54.108,8.9164 54.108,8.9164 54.088,11.326 54.188,12.526 54.428,15.446 55.328,20.456 55.428,21.236 55.608,22.622 56.268,22.703 57.008,22.977 57.738,23.25 60.838,23.172 62.668,22.716 64.348,22.296 66.208,21.796 67.358,20.506 68.148,19.616 68.598,18.306 68.478,17.136 68.258,15.176 66.828,13.466 65.448,12.056 63.878,10.456 59.738,8.5064 59.738,8.5064 64.728,9.1964 73.098,12.176 78.028,16.676 81.498,19.846 84.478,24.302 84.918,28.982 85.338,33.409 83.458,38.161 80.678,41.629 76.748,46.527 69.088,50.32 64.538,51.344 64.538,51.344 66.618,49.403 67.608,48.381 68.648,47.303 69.758,46.268 70.628,45.042 71.528,43.771 72.588,42.466 72.848,40.932 73.058,39.648 73.088,38.049 72.228,37.077 71.418,36.173 69.938,35.99 68.728,36.09 67.258,36.211 65.968,37.162 64.738,37.973 63.568,38.744 62.588,39.769 61.598,40.76 60.498,41.863 58.508,44.264 58.508,44.264 58.508,44.264 59.558,40.799 58.948,39.227 58.678,38.533 58.048,37.76 57.308,37.71 55.748,37.605 54.368,39.132 53.468,40.408 51.758,42.804 51.048,48.892 51.048,48.892 Z"
     style="fill:#ff0000;fill-opacity:1;stroke:#ff0008;stroke-width:0.28838;stroke-miterlimit:4;stroke-dasharray:none;stroke-opacity:1"
     id="1995-movie-sigil"
     inkscape:connector-curvature="0" />
  <path
     d="M 51.024,6.0364 C 54.354,6.0364 57.684,6.2464 60.954,6.6464 64.154,7.0464 67.324,7.6564 70.374,8.4664 73.304,9.2464 76.164,10.206 78.834,11.366 81.354,12.476 83.754,13.746 85.894,15.206 87.874,16.596 89.724,18.136 91.194,19.826 92.594,21.446 93.764,23.185 94.504,25.003 95.234,26.746 95.654,28.589 95.654,30.432 95.654,32.275 95.234,34.118 94.504,35.861 93.764,37.679 92.594,39.421 91.194,41.012 89.724,42.702 87.874,44.243 85.894,45.632 83.754,47.121 81.354,48.384 78.834,49.495 76.164,50.657 73.304,51.616 70.374,52.399 67.324,53.207 64.154,53.813 60.954,54.217 57.684,54.621 54.354,54.823 51.024,54.823 47.714,54.823 44.382,54.621 41.128,54.217 37.925,53.813 34.755,53.207 31.696,52.399 28.772,51.616 25.914,50.657 23.244,49.495 20.732,48.384 18.336,47.096 16.2,45.632 14.2,44.243 12.368,42.702 10.884,41.012 9.4837,39.421 8.3167,37.679 7.5637,35.861 6.8377,34.118 6.4547,32.25 6.4547,30.432 6.4547,28.613 6.8397,26.746 7.5637,25.003 8.3167,23.185 9.4797,21.446 10.884,19.826 12.368,18.136 14.196,16.596 16.2,15.206 18.332,13.746 20.736,12.476 23.244,11.366 25.918,10.206 28.772,9.2464 31.696,8.4664 34.755,7.6564 37.925,7.0464 41.128,6.6464 44.382,6.2464 47.714,6.0364 51.024,6.0364 Z M 51.144,2.1464 C 38.243,2.0864 24.078,4.4164 13.756,12.156 8.0667,16.416 2.6117,23.276 2.6847,30.386 2.7607,37.798 8.6197,44.791 14.613,49.153 24.784,56.555 38.565,58.732 51.144,58.626 64.284,58.516 78.684,56.069 89.124,48.094 94.554,43.949 99.594,37.317 99.604,30.488 99.614,23.601 94.574,16.876 89.114,12.686 78.694,4.6864 64.284,2.2064 51.144,2.1464 Z M 51.084,50.676 C 50.214,50.668 49.104,47.273 47.874,45.748 46.57,44.134 45.333,42.282 43.489,41.332 42.393,40.766 40.931,40.16 39.838,40.731 38.924,41.207 38.504,43.521 38.504,43.521 38.504,43.521 36.931,41.867 36.042,41.157 35.246,40.521 34.402,39.932 33.491,39.477 32.369,38.916 31.195,38.341 29.948,38.207 28.582,38.06 26.913,37.932 25.862,38.74 26.585,39.705 26.787,39.966 27.272,40.561 28.286,41.805 29.304,43.051 30.408,44.217 31.142,44.993 31.931,45.715 32.722,46.433 33.745,47.363 35.863,49.139 35.863,49.139 24.062,46.055 17.117,43.438 12.076,35.891 10.374,33.342 9.9967,29.646 11.021,26.757 12.718,21.966 17.505,18.616 21.917,16.096 28.28,12.456 35.707,11.276 43.144,10.356 40.031,11.546 33.448,14.996 30.702,19.306 30.247,20.016 29.926,21.006 30.229,21.796 30.528,22.576 31.468,22.947 32.219,23.308 34.565,24.435 37.214,24.846 39.791,25.211 41.125,25.4 42.529,25.366 43.832,25.354 44.396,25.075 44.591,24.622 45.366,24.015 45.366,24.015 45.602,20.836 45.864,19.256 46.121,17.706 46.914,14.656 46.914,14.656 47.234,15.886 47.334,17.446 47.734,18.416 47.734,18.416 49.844,17.576 50.944,17.576 52.124,17.586 54.364,18.516 54.364,18.516 54.924,17.636 55.054,15.806 55.174,14.756 55.174,14.756 55.984,17.426 56.224,18.806 56.514,20.536 56.654,24.059 56.654,24.059 57.044,24.586 57.684,25.015 58.334,25.321 61.724,25.528 65.554,24.765 68.984,23.696 69.764,23.453 70.564,23.155 71.184,22.623 71.544,22.316 71.914,21.936 71.984,21.476 72.124,20.566 71.734,19.586 71.194,18.846 68.284,14.846 63.164,12.106 59.004,10.396 68.724,11.426 77.994,13.676 85.354,19.316 88.314,21.576 90.994,24.915 91.564,28.589 92.034,31.61 90.954,35.035 89.014,37.4 83.654,43.951 75.884,46.831 66.484,49.13 66.484,49.13 68.744,47.206 69.824,46.19 70.494,45.56 71.144,44.907 71.764,44.235 72.564,43.377 73.334,42.494 74.084,41.588 74.874,40.622 76.374,38.617 76.374,38.617 76.374,38.617 74.614,38.09 73.704,38.122 72.054,38.18 70.414,38.697 68.904,39.366 67.914,39.801 67.044,40.465 66.204,41.133 65.344,41.815 63.824,43.405 63.824,43.405 63.824,43.405 63.284,41.121 62.354,40.683 61.074,40.085 59.444,40.835 58.214,41.519 56.634,42.391 55.614,44.028 54.504,45.44 53.214,47.076 51.814,50.682 51.084,50.676 Z"
     style="fill:#ff0000;fill-opacity:1;stroke:#ff0008;stroke-width:0.30124;stroke-miterlimit:4;stroke-dasharray:none;stroke-opacity:1"
     id="1997-movie-sigil"
     inkscape:connector-curvature="0" />
  <path
     d="M 51.179,3.9764 C 53.999,3.9764 56.819,4.1864 59.589,4.6164 62.299,5.0664 64.989,5.7264 67.579,6.6064 70.049,7.4464 72.478,8.4864 74.728,9.7464 76.868,10.946 78.908,12.316 80.718,13.896 82.398,15.416 83.958,17.076 85.208,18.926 86.398,20.666 87.378,22.556 88.018,24.514 88.628,26.414 88.978,28.424 88.978,30.404 88.978,32.404 88.628,34.404 88.018,36.294 87.378,38.254 86.398,40.144 85.208,41.874 83.958,43.714 82.398,45.374 80.718,46.894 78.908,48.504 76.868,49.864 74.728,51.064 72.478,52.324 70.049,53.374 67.579,54.224 64.989,55.084 62.299,55.744 59.589,56.184 56.819,56.634 53.999,56.854 51.179,56.854 48.379,56.854 45.544,56.634 42.785,56.184 40.067,55.744 37.379,55.084 34.787,54.224 32.311,53.374 29.889,52.324 27.627,51.064 25.499,49.864 23.469,48.474 21.66,46.894 19.967,45.374 18.414,43.714 17.156,41.874 15.971,40.144 14.982,38.254 14.344,36.294 13.729,34.404 13.405,32.374 13.405,30.404 13.405,28.444 13.732,26.414 14.344,24.514 14.982,22.556 15.967,20.666 17.156,18.926 18.414,17.076 19.963,15.416 21.66,13.896 23.465,12.316 25.502,10.946 27.627,9.7464 29.892,8.4864 32.311,7.4464 34.787,6.6064 37.379,5.7264 40.067,5.0664 42.785,4.6164 45.544,4.1864 48.379,3.9764 51.179,3.9764 Z M 51.359,0.12644 C 40.086,0.07644 27.795,3.6164 19.472,10.856 13.9,15.676 9.5517,23.214 9.6177,30.374 9.6857,37.834 14.346,45.544 20.203,50.484 28.408,57.404 40.383,60.794 51.359,60.644 63.339,60.444 76.058,56.484 84.618,48.544 89.528,43.994 92.789,36.984 92.669,30.484 92.569,23.524 89.088,16.176 83.728,11.426 75.338,3.9764 62.859,0.18644 51.359,0.12644 Z M 51.239,53.364 C 50.589,48.764 49.439,43.454 46.346,39.744 44.962,38.094 42.873,36.184 40.738,36.504 39.549,36.684 38.818,38.074 38.281,39.144 37.782,40.144 37.69,42.434 37.69,42.434 37.69,42.434 36.776,39.444 36.113,38.034 35.611,36.964 35.102,35.854 34.309,34.984 33.588,34.184 32.686,33.524 31.709,33.074 30.667,32.604 29.481,32.084 28.356,32.304 27.051,32.564 25.797,33.484 25.103,34.614 24.392,35.774 24.526,37.304 24.513,38.664 24.501,39.864 24.716,41.074 24.965,42.244 25.187,43.294 25.888,45.324 25.888,45.324 23.441,43.604 19.57,39.674 18.207,35.854 16.991,32.444 16.931,28.414 18.146,25.004 19.706,20.636 23.301,17.056 27.022,14.276 30.598,11.606 36.27,9.7364 39.339,9.0364 39.339,9.0364 36.467,11.866 35.573,13.626 34.928,14.906 34.313,16.376 34.514,17.786 34.692,19.036 35.481,20.226 36.433,21.046 37.433,21.916 38.786,22.466 40.106,22.566 41.27,22.654 42.488,22.316 43.514,21.756 44.509,21.216 45.419,20.396 45.971,19.406 47.079,17.416 46.919,14.956 47.389,12.726 47.669,11.376 48.219,8.6864 48.219,8.6864 48.479,10.006 48.739,11.336 48.999,12.656 48.999,12.656 50.369,12.606 51.049,12.606 51.819,12.606 53.349,12.656 53.349,12.656 53.659,11.356 53.969,10.046 54.279,8.7464 54.279,8.7464 54.689,11.406 54.949,12.726 55.379,14.886 55.359,17.246 56.439,19.166 57.099,20.346 58.109,21.416 59.329,22.006 60.379,22.516 61.649,22.594 62.809,22.446 63.939,22.306 65.139,21.936 65.979,21.176 66.869,20.366 67.399,19.156 67.649,17.986 67.899,16.786 67.859,15.456 67.399,14.326 66.519,12.136 62.849,8.8964 62.849,8.8964 66.529,9.6264 73.318,12.266 77.448,15.696 80.598,18.306 83.388,21.776 84.578,25.684 85.578,28.974 85.478,32.774 84.268,35.984 82.828,39.794 79.498,43.274 76.498,45.394 76.498,45.394 77.228,43.264 77.448,42.164 77.678,41.044 77.828,39.914 77.838,38.784 77.848,37.614 77.938,36.374 77.488,35.304 76.998,34.154 76.228,32.874 75.058,32.424 73.678,31.884 71.998,32.414 70.638,33.014 69.629,33.464 68.809,34.304 68.089,35.144 67.149,36.234 66.449,37.524 65.849,38.834 65.369,39.894 64.779,42.174 64.779,42.174 64.779,42.174 64.809,40.084 64.319,39.214 63.659,38.044 62.559,36.704 61.219,36.644 59.159,36.564 57.399,38.554 56.139,40.184 53.269,43.884 51.759,48.764 51.239,53.364 Z"
     style="fill:#ff0000;fill-opacity:1;stroke:#ff0008;stroke-width:0.28865;stroke-miterlimit:4;stroke-dasharray:none;stroke-opacity:1"
     id="1992-movie-sigil"
     inkscape:connector-curvature="0" />
  <path
     d="M 51.158,3.9064 C 54.258,3.9064 57.348,4.1264 60.408,4.5564 63.398,4.9964 66.348,5.6464 69.188,6.5264 71.908,7.3664 74.568,8.4164 77.058,9.6564 79.398,10.866 81.638,12.226 83.628,13.796 85.468,15.306 87.198,16.966 88.578,18.796 89.868,20.536 90.958,22.416 91.658,24.389 92.328,26.269 92.718,28.259 92.718,30.249 92.718,32.239 92.328,34.229 91.658,36.109 90.958,38.069 89.868,39.949 88.578,41.659 87.198,43.499 85.468,45.159 83.628,46.659 81.638,48.269 79.398,49.629 77.058,50.819 74.568,52.079 71.908,53.119 69.188,53.969 66.348,54.829 63.398,55.489 60.408,55.919 57.348,56.369 54.258,56.579 51.158,56.579 48.078,56.579 44.968,56.369 41.928,55.919 38.938,55.489 35.988,54.829 33.138,53.969 30.418,53.119 27.758,52.079 25.268,50.819 22.938,49.629 20.698,48.239 18.708,46.659 16.848,45.159 15.138,43.499 13.748,41.659 12.448,39.949 11.368,38.069 10.668,36.109 9.9977,34.229 9.6277,32.209 9.6277,30.249 9.6277,28.279 9.9977,26.269 10.668,24.389 11.368,22.416 12.448,20.536 13.748,18.796 15.138,16.966 16.848,15.306 18.708,13.796 20.698,12.226 22.938,10.866 25.268,9.6564 27.758,8.4164 30.418,7.3664 33.138,6.5264 35.988,5.6464 38.938,4.9964 41.928,4.5564 44.968,4.1264 48.078,3.9064 51.158,3.9064 Z M 51.148,0.14644 C 38.768,0.09644 25.288,3.6364 16.148,10.866 10.048,15.686 5.7277,23.219 5.7977,30.379 5.8777,37.829 10.538,45.539 16.948,50.469 25.968,57.399 39.108,60.769 51.148,60.619 64.288,60.419 78.138,56.469 87.538,48.529 92.928,43.989 96.618,36.979 96.488,30.489 96.368,23.539 92.548,16.176 86.668,11.436 77.468,3.9864 63.768,0.19644 51.148,0.14644 Z M 51.128,51.759 C 51.128,51.759 51.028,48.359 50.228,46.859 49.728,45.759 48.928,44.759 47.928,44.059 47.128,43.659 46.128,43.459 45.228,43.459 44.128,43.459 42.228,44.259 42.228,44.259 42.228,44.259 43.428,42.059 43.328,40.859 43.028,39.059 41.928,37.159 40.428,36.159 38.528,34.959 35.828,34.659 33.728,35.259 31.928,35.759 30.128,37.259 29.328,38.759 29.328,38.759 28.728,35.859 27.728,34.959 26.328,33.859 24.298,33.129 22.628,33.659 20.998,34.179 19.468,35.859 19.288,37.559 18.958,40.769 23.928,46.059 23.928,46.059 20.128,44.059 15.928,39.659 14.228,35.059 13.028,31.859 13.128,27.959 14.328,24.759 15.428,21.556 17.228,20.056 20.728,16.856 24.928,13.056 33.428,10.056 36.728,9.3564 34.828,10.556 33.028,11.756 32.228,13.556 31.428,14.956 31.128,16.856 31.628,18.356 32.128,19.756 33.528,20.556 34.728,21.256 35.828,21.956 37.228,22.356 38.528,22.456 39.828,22.659 41.228,22.659 42.328,22.056 43.828,21.356 45.428,19.956 45.628,18.356 45.628,18.356 45.988,14.826 46.128,13.056 46.298,10.896 46.528,6.5564 46.528,6.5564 47.028,8.4564 47.528,10.356 48.028,12.256 48.028,12.256 50.028,11.356 51.128,11.356 52.228,11.356 54.228,12.256 54.228,12.256 54.758,10.356 55.298,8.4564 55.828,6.5564 55.828,6.5564 56.058,11.026 56.228,13.256 56.338,14.756 56.628,17.756 56.628,17.756 56.728,19.456 57.728,20.456 58.828,21.256 59.828,22.056 61.128,22.456 62.328,22.556 64.028,22.659 65.628,22.156 67.128,21.456 68.328,20.856 69.728,20.156 70.328,18.956 71.028,17.556 71.128,15.756 70.528,14.356 69.728,12.156 68.428,10.556 65.728,9.2564 71.228,10.656 78.828,14.056 83.728,18.656 86.028,20.856 87.728,23.859 88.528,26.959 89.228,29.859 89.228,33.159 88.028,35.959 86.128,40.259 81.728,43.959 78.428,46.059 78.428,46.059 83.128,41.159 83.128,38.059 83.128,36.459 82.028,34.659 80.628,33.959 79.128,33.159 76.928,33.359 75.528,34.259 74.028,35.159 73.028,37.659 73.028,38.859 72.228,37.659 70.328,35.859 68.528,35.359 66.628,34.759 64.328,34.859 62.528,35.759 61.028,36.459 59.728,38.059 59.328,39.659 58.928,40.959 59.128,43.059 60.428,44.459 60.428,44.459 58.128,43.459 56.928,43.459 55.928,43.459 54.828,43.759 54.028,44.359 53.128,44.959 52.528,46.059 52.128,47.059 51.428,48.459 51.128,51.759 51.128,51.759 Z"
     style="fill:#ff0000;fill-opacity:1;stroke:#ff0008;stroke-width:0.30206;stroke-miterlimit:4;stroke-dasharray:none;stroke-opacity:1"
     id="1989-movie-sigil"
     inkscape:connector-curvature="0" />
  <path
     d="M 51.383,3.9664 C 54.913,3.9664 58.443,4.1864 61.923,4.6164 65.333,5.0764 68.703,5.7264 71.943,6.5964 75.053,7.4464 78.093,8.5064 80.933,9.7564 83.593,10.966 86.163,12.326 88.413,13.906 90.523,15.416 92.503,17.086 94.063,18.936 95.553,20.676 96.793,22.566 97.583,24.545 98.343,26.435 98.803,28.425 98.803,30.435 98.803,32.435 98.343,34.425 97.583,36.315 96.793,38.295 95.553,40.195 94.063,41.895 92.503,43.745 90.523,45.415 88.413,46.925 86.163,48.535 83.593,49.905 80.933,51.115 78.093,52.365 75.053,53.415 71.943,54.275 68.703,55.125 65.333,55.795 61.923,56.235 58.443,56.685 54.913,56.895 51.383,56.895 47.873,56.895 44.323,56.685 40.853,56.235 37.443,55.795 34.073,55.125 30.813,54.275 27.703,53.415 24.673,52.365 21.843,51.115 19.193,49.905 16.623,48.505 14.353,46.925 12.233,45.415 10.273,43.745 8.7027,41.895 7.2127,40.195 5.9727,38.295 5.1827,36.315 4.4227,34.425 3.9927,32.405 3.9927,30.435 3.9927,28.445 4.4227,26.435 5.1827,24.545 5.9727,22.566 7.2127,20.676 8.7027,18.936 10.273,17.086 12.233,15.416 14.353,13.906 16.623,12.326 19.193,10.966 21.843,9.7564 24.673,8.5064 27.703,7.4464 30.813,6.5964 34.073,5.7264 37.443,5.0764 40.853,4.6164 44.323,4.1864 47.873,3.9664 51.383,3.9664 Z M 51.143,0.17644 C 37.233,0.12644 22.073,3.6564 11.793,10.836 4.9327,15.636 0.08268,23.125 0.16268,30.245 0.24268,37.655 5.4827,45.325 12.693,50.235 22.833,57.125 37.513,60.745 51.053,60.595 65.823,60.395 81.583,56.375 92.143,48.485 98.203,43.975 102.27,36.815 102.12,30.355 101.98,23.445 97.693,16.126 91.083,11.416 80.743,4.0064 65.323,0.22644 51.143,0.17644 Z M 51.303,49.465 C 51.303,49.465 48.723,44.325 46.633,42.435 45.103,41.055 43.213,39.645 41.153,39.555 39.903,39.495 38.653,40.205 37.683,41.005 37.103,41.495 36.433,42.935 36.433,42.935 36.433,42.935 34.453,41.235 33.323,40.615 32.453,40.125 31.503,39.745 30.533,39.535 29.603,39.335 28.613,39.215 27.673,39.375 26.633,39.545 25.533,39.865 24.743,40.565 24.183,41.065 23.823,41.805 23.653,42.535 23.473,43.255 23.573,44.025 23.723,44.745 23.893,45.575 24.233,46.385 24.643,47.125 25.053,47.835 26.143,49.075 26.143,49.075 20.833,47.105 15.043,44.225 11.423,39.665 9.1727,36.825 7.3927,33.025 7.8127,29.425 8.3227,24.925 11.683,20.936 15.103,17.966 20.003,13.726 30.453,10.646 32.833,9.9764 32.833,9.9764 30.373,12.106 29.923,13.586 29.613,14.576 29.813,15.716 30.173,16.686 30.613,17.896 31.433,18.996 32.423,19.826 33.553,20.776 34.993,21.356 36.423,21.736 37.983,22.146 39.713,22.526 41.263,22.066 42.493,21.696 44.233,20.976 44.333,19.756 44.333,19.756 45.013,14.896 45.383,12.476 45.593,11.086 46.053,8.3264 46.053,8.3264 47.063,9.7364 48.223,11.146 48.873,12.556 48.873,12.556 50.493,12.536 51.303,12.536 52.083,12.536 53.643,12.556 53.643,12.556 54.563,11.176 55.473,9.7864 56.393,8.4064 56.393,8.4064 56.833,11.366 57.083,12.846 57.483,15.306 58.363,20.226 58.363,20.226 58.443,20.986 59.873,21.626 60.833,21.916 62.383,22.376 64.093,22.166 65.673,21.806 67.253,21.456 68.873,20.866 70.113,19.826 71.203,18.916 72.163,17.686 72.513,16.316 72.763,15.356 72.613,14.286 72.243,13.366 71.713,12.016 69.583,9.9264 69.583,9.9264 72.453,10.506 83.463,14.176 88.613,18.936 91.623,21.706 94.383,25.495 94.733,29.575 95.033,33.175 93.223,36.915 90.963,39.735 87.393,44.175 80.673,47.285 76.553,48.955 76.553,48.955 77.233,48.145 77.513,47.705 77.963,47.025 78.473,46.345 78.673,45.555 78.913,44.605 78.903,43.565 78.673,42.615 78.473,41.815 78.153,40.955 77.523,40.415 76.733,39.745 75.613,39.545 74.583,39.445 73.433,39.345 72.273,39.605 71.163,39.905 70.253,40.145 69.363,40.485 68.563,40.975 67.733,41.485 66.323,42.855 66.323,42.855 66.323,42.855 65.313,41.085 64.473,40.575 63.253,39.835 61.683,39.425 60.283,39.705 58.433,40.075 56.933,41.535 55.613,42.885 53.773,44.755 51.303,49.465 51.303,49.465 Z"
     style="fill:#ff0000;fill-opacity:1;stroke:#ff0008;stroke-width:0.3234;stroke-miterlimit:4;stroke-dasharray:none;stroke-opacity:1"
     id="1989-movie-logo"
     inkscape:connector-curvature="0" />
  <path
     d="M 51.108,4.0464 C 53.938,4.0464 56.768,4.2664 59.548,4.6964 62.278,5.1364 64.978,5.7964 67.558,6.6764 70.058,7.5164 72.488,8.5664 74.758,9.8164 76.898,11.026 78.948,12.386 80.758,13.976 82.438,15.476 84.018,17.146 85.268,18.976 86.448,20.726 87.448,22.619 88.088,24.589 88.698,26.479 89.048,28.479 89.048,30.469 89.048,32.469 88.698,34.459 88.088,36.349 87.448,38.319 86.448,40.209 85.268,41.919 84.018,43.769 82.438,45.429 80.758,46.939 78.948,48.549 76.898,49.909 74.758,51.109 72.488,52.379 70.058,53.419 67.558,54.269 64.978,55.139 62.278,55.789 59.548,56.239 56.768,56.679 53.938,56.889 51.108,56.889 48.298,56.889 45.458,56.679 42.688,56.239 39.958,55.789 37.258,55.139 34.648,54.269 32.168,53.419 29.728,52.379 27.468,51.109 25.338,49.909 23.288,48.519 21.478,46.939 19.778,45.429 18.218,43.769 16.948,41.919 15.758,40.209 14.778,38.319 14.138,36.349 13.518,34.459 13.198,32.439 13.198,30.469 13.198,28.499 13.518,26.479 14.138,24.589 14.778,22.619 15.758,20.726 16.948,18.976 18.218,17.146 19.778,15.476 21.478,13.976 23.288,12.386 25.338,11.026 27.468,9.8164 29.728,8.5664 32.168,7.5164 34.648,6.6764 37.258,5.7964 39.958,5.1364 42.688,4.6964 45.458,4.2664 48.298,4.0464 51.108,4.0464 Z M 51.208,0.25644 C 39.948,0.20644 27.688,3.7364 19.378,10.936 13.828,15.736 9.3177,23.369 9.3777,30.499 9.4477,37.919 14.278,45.479 20.108,50.399 28.308,57.289 40.258,60.659 51.208,60.509 63.158,60.309 76.178,56.369 84.728,48.469 89.628,43.939 93.028,36.959 92.908,30.489 92.798,23.559 88.858,16.236 83.508,11.506 75.138,4.0864 62.678,0.31644 51.208,0.25644 Z M 51.168,50.769 C 51.168,50.769 49.368,42.659 46.798,39.609 45.478,38.039 43.558,36.059 41.548,36.419 40.428,36.619 39.868,38.049 39.408,39.089 38.898,40.269 38.808,42.889 38.808,42.889 38.808,42.889 37.098,39.739 35.998,38.319 35.038,37.079 33.938,35.929 32.728,34.929 32.008,34.329 31.288,33.669 30.398,33.389 29.178,33.019 27.658,32.629 26.578,33.299 25.558,33.929 25.278,35.369 25.068,36.549 24.818,37.909 25.048,39.359 25.408,40.689 25.828,42.209 26.678,43.579 27.478,44.929 28.138,46.039 29.728,48.099 29.728,48.099 27.168,46.729 21.558,42.569 19.368,38.359 17.538,34.839 16.688,30.429 17.658,26.579 18.808,22.056 22.338,18.236 25.988,15.346 30.368,11.876 35.798,9.7364 41.358,8.6964 41.358,8.6964 38.138,10.756 36.918,12.196 35.878,13.416 34.818,14.816 34.588,16.406 34.398,17.746 34.658,19.286 35.468,20.366 36.448,21.666 38.138,22.456 39.748,22.719 41.268,22.969 42.978,22.709 44.288,21.906 45.308,21.286 45.968,20.156 46.448,19.066 47.268,17.196 47.338,15.066 47.498,13.026 47.638,11.336 47.438,7.9264 47.438,7.9264 48.018,9.3464 48.608,11.036 49.188,12.456 49.188,12.456 50.508,12.426 51.168,12.436 51.858,12.446 53.238,12.496 53.238,12.496 53.698,11.016 54.318,9.4064 54.778,7.9264 54.778,7.9264 54.788,11.536 54.958,13.326 55.148,15.186 55.178,17.136 55.878,18.876 56.358,20.046 56.978,21.316 58.058,21.976 59.418,22.809 61.208,22.859 62.778,22.619 64.128,22.406 65.548,21.866 66.478,20.866 67.408,19.876 68.028,18.426 67.948,17.076 67.828,15.216 66.478,13.586 65.278,12.156 63.978,10.616 60.538,8.4164 60.538,8.4164 60.538,8.4164 71.398,11.196 75.678,14.566 79.768,17.796 83.658,22.206 84.758,27.299 85.658,31.439 84.428,36.099 82.308,39.759 80.138,43.519 72.488,48.299 72.488,48.299 72.488,48.299 74.358,45.869 75.128,44.549 75.738,43.529 76.338,42.469 76.678,41.329 77.128,39.869 77.528,38.309 77.328,36.799 77.178,35.589 76.958,34.049 75.908,33.409 74.678,32.659 72.968,33.279 71.598,33.739 70.408,34.139 69.358,34.949 68.438,35.809 67.498,36.659 66.828,37.759 66.088,38.789 65.198,40.029 63.568,42.619 63.568,42.619 63.568,42.619 63.528,39.789 62.868,38.589 62.328,37.619 61.498,36.429 60.388,36.369 58.288,36.239 56.508,38.329 55.228,39.989 52.868,43.029 51.168,50.769 51.168,50.769 Z"
     style="fill:#ff0000;fill-opacity:1;stroke:#ff0008;stroke-width:0.28911;stroke-miterlimit:4;stroke-dasharray:none;stroke-opacity:1"
     id="1970-comics-sigil"
     inkscape:connector-curvature="0" />
  <path
     d="M 51.259,3.8264 C 54.079,3.8264 56.899,4.0364 59.669,4.4764 62.389,4.9264 65.079,5.5864 67.669,6.4664 70.149,7.3164 72.569,8.3664 74.839,9.6364 76.969,10.856 79.009,12.216 80.819,13.816 82.499,15.326 84.069,17.006 85.319,18.856 86.499,20.606 87.499,22.506 88.129,24.487 88.739,26.387 89.099,28.397 89.099,30.407 89.099,32.407 88.739,34.417 88.129,36.327 87.499,38.297 86.499,40.197 85.319,41.927 84.069,43.787 82.499,45.457 80.819,46.977 79.009,48.587 76.969,49.967 74.839,51.187 72.569,52.447 70.149,53.497 67.669,54.347 65.079,55.217 62.389,55.887 59.669,56.317 56.899,56.767 54.079,56.987 51.259,56.987 48.449,56.987 45.619,56.767 42.859,56.317 40.139,55.887 37.449,55.217 34.849,54.347 32.369,53.497 29.949,52.447 27.689,51.187 25.559,49.967 23.519,48.557 21.709,46.977 20.019,45.457 18.459,43.787 17.199,41.927 16.009,40.197 15.029,38.297 14.399,36.327 13.779,34.417 13.449,32.377 13.449,30.407 13.449,28.417 13.779,26.387 14.399,24.487 15.029,22.506 16.009,20.606 17.199,18.856 18.459,17.006 20.019,15.326 21.709,13.816 23.519,12.216 25.559,10.856 27.689,9.6364 29.949,8.3664 32.369,7.3164 34.849,6.4664 37.449,5.5864 40.139,4.9264 42.859,4.4764 45.619,4.0364 48.449,3.8264 51.259,3.8264 Z M 51.149,0.14644 C 39.889,0.07644 27.579,3.4364 19.129,10.866 13.699,15.636 9.5987,23.147 9.6587,30.377 9.7287,37.887 14.149,45.587 19.859,50.467 28.189,57.597 40.189,60.827 51.149,60.617 63.059,60.387 75.999,56.417 84.699,48.277 89.439,43.847 92.699,36.977 92.629,30.487 92.549,23.467 88.869,16.136 83.649,11.446 75.119,3.7764 62.619,0.21644 51.149,0.14644 Z M 51.169,48.357 C 50.079,47.097 44.569,42.657 40.579,41.117 38.829,40.447 36.809,39.817 35.019,40.357 34.479,40.517 33.899,40.927 33.759,41.467 33.569,42.217 34.539,43.627 34.539,43.627 34.049,43.877 33.359,42.687 32.719,42.277 32.179,41.937 31.599,41.667 31.029,41.367 30.519,41.107 30.049,40.717 29.489,40.587 28.819,40.427 27.919,40.097 27.439,40.577 26.849,41.167 27.259,42.277 27.469,43.087 27.709,43.957 28.309,44.697 28.799,45.467 29.259,46.177 29.779,46.847 30.319,47.517 30.639,47.917 31.329,48.677 31.329,48.677 28.939,47.877 23.919,44.747 21.489,41.497 18.939,38.077 16.939,33.697 17.209,29.447 17.499,24.897 20.239,20.546 23.379,17.246 26.649,13.806 32.779,11.096 35.749,10.216 35.749,10.216 34.299,11.636 33.629,12.396 33.089,13.016 32.579,13.646 32.119,14.326 31.729,14.906 31.359,15.746 30.999,16.586 32.139,16.836 33.869,17.246 35.179,17.466 36.999,17.776 38.839,18.016 40.679,18.206 42.219,18.366 43.819,18.546 45.379,18.546 45.379,17.736 45.769,16.086 46.229,14.986 46.839,13.516 47.639,12.156 48.649,10.856 48.599,12.176 48.359,13.606 48.749,14.926 48.749,14.926 50.279,13.796 51.169,13.786 52.119,13.776 53.769,14.976 53.769,14.976 53.899,13.596 53.889,12.146 53.709,10.766 54.399,11.766 55.679,13.776 56.319,15.446 56.689,16.406 56.849,17.616 56.849,18.756 58.079,18.616 60.099,18.456 61.679,18.276 63.399,18.086 65.129,17.956 66.839,17.666 68.329,17.416 69.949,17.016 71.429,16.656 71.429,16.656 70.789,15.196 70.369,14.526 69.889,13.766 69.319,13.076 68.729,12.396 68.069,11.626 66.609,10.216 66.609,10.216 71.529,11.736 76.399,14.326 79.859,18.136 82.649,21.206 84.949,25.237 85.199,29.377 85.439,33.467 83.669,37.707 81.269,41.027 78.589,44.737 70.309,49.307 70.309,49.307 70.309,49.307 71.459,48.147 71.979,47.527 72.549,46.867 73.099,46.197 73.569,45.467 74.019,44.767 74.479,44.057 74.709,43.257 74.939,42.477 75.399,41.497 74.929,40.827 74.659,40.437 74.039,40.437 73.569,40.457 72.729,40.497 71.949,40.957 71.209,41.347 70.649,41.647 70.149,42.067 69.649,42.457 68.969,42.987 67.699,44.127 67.699,44.127 67.699,44.127 68.329,42.887 68.399,42.207 68.449,41.667 68.559,40.927 68.129,40.587 66.679,39.447 64.369,40.417 62.619,41.007 58.319,42.447 52.359,47.067 51.169,48.357 Z"
     style="fill:#ff0000;fill-opacity:1;stroke:#ff0008;stroke-width:0.28958;stroke-miterlimit:4;stroke-dasharray:none;stroke-opacity:1"
     id="1987-comics-sigil"
     inkscape:connector-curvature="0" />
  <path
     d="M 51.353,3.9564 C 53.763,3.9564 56.173,4.1764 58.543,4.6064 60.863,5.0564 63.163,5.7064 65.373,6.5964 67.483,7.4464 69.553,8.4964 71.493,9.7464 73.313,10.966 75.053,12.336 76.603,13.926 78.033,15.436 79.383,17.106 80.443,18.956 81.463,20.716 82.303,22.605 82.843,24.585 83.363,26.485 83.673,28.495 83.673,30.495 83.673,32.495 83.363,34.505 82.843,36.405 82.303,38.375 81.463,40.275 80.443,42.005 79.383,43.845 78.033,45.525 76.603,47.035 75.053,48.655 73.313,50.025 71.493,51.235 69.553,52.495 67.483,53.545 65.373,54.395 63.163,55.275 60.863,55.935 58.543,56.375 56.173,56.815 53.763,57.035 51.353,57.035 48.953,57.035 46.533,56.815 44.173,56.375 41.853,55.935 39.553,55.275 37.333,54.395 35.223,53.545 33.143,52.495 31.213,51.235 29.403,50.025 27.663,48.625 26.113,47.035 24.673,45.525 23.333,43.845 22.263,42.005 21.243,40.275 20.403,38.375 19.863,36.405 19.343,34.505 19.053,32.465 19.053,30.495 19.053,28.515 19.343,26.485 19.863,24.585 20.403,22.605 21.243,20.716 22.263,18.956 23.333,17.106 24.673,15.436 26.113,13.926 27.663,12.336 29.403,10.966 31.213,9.7464 33.143,8.4964 35.223,7.4464 37.333,6.5964 39.553,5.7064 41.853,5.0564 44.173,4.6064 46.533,4.1764 48.953,3.9564 51.353,3.9564 Z M 51.313,2.0364 C 41.973,1.9864 32.043,5.6364 25.143,12.406 20.533,16.936 17.023,23.665 17.083,30.385 17.133,37.375 20.653,44.595 25.493,49.225 32.303,55.715 42.223,58.875 51.313,58.735 61.223,58.555 71.623,54.665 78.713,47.245 82.783,42.975 85.303,36.655 85.203,30.565 85.123,24.035 82.493,17.236 78.053,12.796 71.103,5.8164 60.833,2.0764 51.313,2.0364 Z M 51.263,47.575 C 51.263,47.575 49.273,43.805 47.533,42.745 46.563,42.155 45.233,41.685 44.193,42.135 43.363,42.495 42.943,43.545 42.723,44.435 42.453,45.515 43.273,47.305 43.013,47.765 43.013,47.765 41.463,46.475 40.603,45.955 39.883,45.505 39.123,45.075 38.313,44.805 37.523,44.545 36.683,44.375 35.853,44.385 35.153,44.385 34.393,44.415 33.783,44.765 33.243,45.075 32.773,45.585 32.563,46.175 32.443,46.505 32.543,46.875 32.603,47.225 32.663,47.635 32.773,48.055 32.953,48.435 33.143,48.865 33.703,49.625 33.703,49.625 29.353,47.315 26.083,44.075 23.753,40.125 21.983,37.125 21.053,33.495 21.093,30.005 21.133,26.585 22.183,23.085 23.923,20.136 25.943,16.736 29.743,13.316 32.353,11.766 32.353,11.766 32.383,12.686 32.513,13.126 32.713,13.806 33.043,14.446 33.463,15.016 33.983,15.716 34.653,16.286 35.353,16.806 35.953,17.256 36.623,17.616 37.303,17.926 38.153,18.306 39.043,18.616 39.953,18.806 41.033,19.036 41.853,19.116 43.263,19.116 43.503,17.806 43.813,16.686 44.333,15.566 44.973,14.206 46.813,11.816 46.813,11.816 46.913,12.866 46.723,14.356 46.823,15.406 46.823,15.406 49.793,15.226 51.273,15.236 52.753,15.246 55.693,15.456 55.693,15.456 55.793,14.386 55.633,12.976 55.733,11.906 55.733,11.906 57.623,14.346 58.253,15.736 58.733,16.806 58.933,17.876 59.183,19.126 60.413,19.036 61.393,19.066 62.473,18.856 63.303,18.696 64.113,18.406 64.903,18.086 65.593,17.806 66.283,17.496 66.903,17.076 67.543,16.646 68.143,16.136 68.643,15.556 69.113,15.006 69.533,14.396 69.803,13.726 70.063,13.086 70.243,11.706 70.243,11.706 72.273,13.006 76.153,16.336 78.113,19.446 79.983,22.406 81.453,25.865 81.543,29.365 81.643,33.555 80.263,37.885 78.033,41.425 75.823,44.935 72.483,47.665 68.763,49.735 68.763,49.735 69.153,49.065 69.313,48.705 69.483,48.315 69.683,47.925 69.753,47.505 69.833,47.025 69.883,46.515 69.703,46.065 69.483,45.525 69.043,45.045 68.533,44.765 67.873,44.395 67.053,44.375 66.303,44.385 65.553,44.395 64.813,44.585 64.113,44.835 63.303,45.115 62.543,45.525 61.823,45.995 60.893,46.605 59.243,48.135 59.243,48.135 59.243,48.135 59.783,45.715 59.553,44.525 59.383,43.665 59.133,42.555 58.333,42.185 57.113,41.625 55.523,42.365 54.403,43.115 52.893,44.135 51.263,47.575 51.263,47.575 Z"
     style="fill:#ff0000;fill-opacity:1;stroke:#ff0008;stroke-width:0.26741;stroke-miterlimit:4;stroke-dasharray:none;stroke-opacity:1"
     id="1986-novel-sigil-1"
     inkscape:connector-curvature="0" />
  <path
     d="M 51.198,4.9164 C 53.788,4.9164 56.378,5.1264 58.918,5.5564 61.428,5.9764 63.888,6.6064 66.268,7.4564 68.538,8.2764 70.758,9.2964 72.838,10.506 74.798,11.676 76.678,12.996 78.338,14.526 79.878,15.986 81.328,17.596 82.478,19.376 83.548,21.066 84.458,22.9 85.048,24.82 85.608,26.65 85.768,28.49 85.768,30.42 85.768,32.35 85.608,34.38 85.048,36.21 84.458,38.11 83.548,39.93 82.478,41.59 81.328,43.38 79.878,45 78.338,46.46 76.678,48.02 74.798,49.34 72.838,50.5 70.758,51.73 68.538,52.73 66.268,53.56 63.888,54.39 61.428,55.04 58.918,55.45 56.378,55.89 53.788,56.09 51.198,56.09 48.618,56.09 46.018,55.89 43.468,55.45 40.968,55.04 38.518,54.39 36.128,53.56 33.848,52.73 31.628,51.73 29.548,50.5 27.598,49.34 25.728,47.99 24.068,46.46 22.518,45 21.088,43.38 19.918,41.59 18.828,39.93 17.918,38.11 17.348,36.21 16.778,34.38 16.468,32.42 16.468,30.51 16.468,28.6 16.778,26.65 17.348,24.82 17.918,22.9 18.828,21.066 19.918,19.376 21.088,17.596 22.518,15.986 24.068,14.526 25.728,12.996 27.598,11.676 29.548,10.506 31.628,9.2964 33.848,8.2764 36.128,7.4564 38.518,6.6064 40.968,5.9764 43.468,5.5564 46.018,5.1264 48.618,4.9164 51.198,4.9164 Z M 51.188,0.83644 C 40.828,0.78644 29.388,4.3064 21.748,11.336 16.658,16.016 12.618,23.68 12.678,30.64 12.728,37.88 17.328,45.11 22.688,49.9 30.218,56.64 41.118,60.08 51.188,59.93 62.168,59.74 73.748,55.99 81.598,48.28 86.108,43.87 89.718,37.05 89.608,30.74 89.508,23.99 86.398,16.836 81.488,12.226 73.788,4.9864 61.738,0.87644 51.188,0.83644 Z M 51.148,48.57 C 50.908,45.93 49.968,41.45 47.768,38.81 46.958,37.84 45.728,37.1 44.478,36.95 43.218,36.8 41.838,37.23 40.828,37.98 39.218,39.18 37.568,43.07 37.568,43.07 37.568,43.07 37.108,40.75 36.678,39.66 36.228,38.54 35.688,37.43 34.968,36.46 34.458,35.78 33.868,35.12 33.138,34.67 32.288,34.16 31.308,33.76 30.308,33.75 29.348,33.74 28.368,34.08 27.558,34.6 26.478,35.3 25.708,36.41 25.008,37.47 24.368,38.45 23.878,39.54 23.518,40.65 23.168,41.75 22.878,44.07 22.878,44.07 21.908,41.85 21.328,38.15 21.278,35.12 21.228,32.09 21.618,28.99 22.578,26.11 23.558,23.16 25.178,20.396 27.058,17.916 28.818,15.596 31.228,13.396 33.328,11.816 33.328,11.816 33.598,13.456 33.998,14.166 34.438,14.966 35.138,15.616 35.858,16.176 36.598,16.746 37.438,17.176 38.308,17.486 39.388,17.866 40.548,18.106 41.688,18.126 42.738,18.136 43.798,17.926 44.808,17.636 45.438,17.466 46.628,16.876 46.628,16.876 46.628,16.876 47.238,13.836 47.468,12.306 47.628,11.246 47.838,9.1164 47.838,9.1164 48.148,10.156 48.468,11.206 48.778,12.246 48.778,12.246 50.338,12.296 51.118,12.306 51.938,12.306 53.578,12.246 53.578,12.246 53.868,11.146 54.168,10.046 54.458,8.9464 54.458,8.9464 54.748,11.186 54.918,12.306 55.138,13.836 55.648,16.876 55.648,16.876 55.648,16.876 56.998,17.466 57.698,17.656 58.488,17.876 59.308,18.076 60.128,18.086 61.368,18.106 62.638,17.976 63.798,17.556 65.148,17.076 66.468,16.356 67.498,15.356 68.018,14.846 68.428,14.196 68.668,13.516 68.878,12.946 68.908,11.716 68.908,11.716 70.188,12.616 73.998,15.946 75.888,18.626 77.808,21.346 79.188,24.47 80.118,27.66 80.858,30.18 81.218,32.85 81.148,35.48 81.068,38.44 79.528,44.21 79.528,44.21 79.528,44.21 79.118,41.75 78.738,40.56 78.418,39.54 78.038,38.52 77.478,37.61 76.838,36.57 76.118,35.51 75.118,34.82 74.198,34.19 73.078,33.73 71.968,33.72 70.978,33.7 69.978,34.08 69.148,34.61 68.258,35.18 67.608,36.09 67.018,36.97 66.468,37.78 66.078,38.7 65.718,39.61 65.308,40.68 64.768,42.91 64.768,42.91 64.768,42.91 63.258,39.54 61.898,38.36 60.968,37.55 59.748,36.79 58.518,36.85 56.988,36.92 55.498,37.94 54.508,39.12 52.358,41.68 51.408,46.16 51.148,48.57 Z"
     style="fill:#ff0000;fill-opacity:1;stroke:#ff0008;stroke-width:0.27224;stroke-miterlimit:4;stroke-dasharray:none;stroke-opacity:1"
     id="1964-comics-sigil"
     inkscape:connector-curvature="0" />
  <path
     d="M 51.204,4.2264 C 54.014,4.2264 56.844,4.4264 59.624,4.8664 62.334,5.2964 65.034,5.9464 67.634,6.8264 70.114,7.6664 72.544,8.6864 74.824,9.9564 76.944,11.136 78.994,12.496 80.814,14.096 82.494,15.576 84.044,17.236 85.314,19.076 86.494,20.796 87.484,22.68 88.134,24.66 88.744,26.54 89.104,28.53 89.104,30.5 89.104,32.47 88.744,34.46 88.134,36.33 87.484,38.31 86.494,40.19 85.314,41.9 84.044,43.74 82.494,45.38 80.814,46.85 78.984,48.46 76.944,49.83 74.824,51.02 72.544,52.29 70.114,53.31 67.634,54.14 65.024,55.02 62.334,55.67 59.624,56.1 56.844,56.54 54.024,56.75 51.204,56.75 48.384,56.75 45.554,56.54 42.774,56.1 40.064,55.67 37.364,55.02 34.764,54.14 32.294,53.31 29.864,52.29 27.584,51.02 25.464,49.83 23.434,48.45 21.604,46.85 19.924,45.38 18.354,43.74 17.084,41.9 15.894,40.19 14.884,38.31 14.244,36.33 13.634,34.46 13.324,32.47 13.324,30.5 13.324,28.53 13.634,26.53 14.244,24.66 14.884,22.67 15.894,20.796 17.084,19.076 18.354,17.226 19.914,15.576 21.604,14.096 23.424,12.496 25.464,11.136 27.584,9.9564 29.864,8.6864 32.294,7.6564 34.764,6.8264 37.364,5.9464 40.064,5.2964 42.774,4.8664 45.554,4.4264 48.384,4.2264 51.204,4.2264 Z M 51.454,0.10644 C 39.884,0.07644 27.234,3.6964 18.624,11.426 13.384,16.136 9.6137,23.52 9.6437,30.56 9.6737,37.55 13.524,44.82 18.754,49.46 27.354,57.1 39.894,60.81 51.394,60.66 63.174,60.51 75.874,56.36 84.514,48.35 89.264,43.94 92.664,37.15 92.644,30.66 92.624,23.56 88.874,16.126 83.614,11.356 75.184,3.7464 62.814,0.13644 51.454,0.10644 Z M 51.154,50.05 C 50.764,47.12 49.464,44.23 47.454,42.12 46.004,40.61 43.974,39.51 41.904,39.21 40.394,39 38.824,39.52 37.434,40.13 36.464,40.56 34.874,41.99 34.874,41.99 34.874,41.99 34.004,39.71 33.304,38.73 32.744,37.94 32.044,37.26 31.274,36.68 30.594,36.17 29.844,35.73 29.044,35.44 28.224,35.14 27.354,34.9 26.474,34.93 25.634,34.96 24.774,35.21 24.024,35.61 23.394,35.96 22.804,36.44 22.384,37.04 21.964,37.63 21.804,38.38 21.604,39.08 21.414,39.75 21.204,41.13 21.204,41.13 21.204,41.13 18.434,36.9 17.854,34.49 17.234,31.94 17.224,29.18 17.794,26.62 18.324,24.3 19.484,22.096 20.904,20.186 22.584,17.916 27.134,14.426 27.134,14.426 27.134,14.426 28.064,16.416 28.744,17.266 29.474,18.186 30.374,18.986 31.354,19.636 32.164,20.176 33.054,20.646 34.004,20.866 35.134,21.146 36.334,21.126 37.484,20.986 38.444,20.876 39.384,20.596 40.264,20.206 41.064,19.856 41.834,19.416 42.484,18.846 43.134,18.276 43.644,17.556 44.114,16.836 44.674,15.996 45.524,14.156 45.524,14.156 45.524,14.156 47.274,16.156 48.424,16.746 49.294,17.186 50.294,17.366 51.264,17.376 52.224,17.386 53.244,17.276 54.104,16.836 55.324,16.206 57.084,13.986 57.084,13.986 57.084,13.986 57.804,16.096 58.414,17.016 58.804,17.616 59.324,18.126 59.864,18.586 60.594,19.216 61.384,19.796 62.264,20.206 63.324,20.696 64.484,21.106 65.654,21.166 66.924,21.236 68.204,20.926 69.404,20.526 70.434,20.176 71.454,19.706 72.314,19.026 73.044,18.456 73.614,17.686 74.124,16.916 74.604,16.196 75.304,14.606 75.304,14.606 75.304,14.606 79.724,17.736 81.364,19.836 83.054,21.986 84.504,24.48 85.074,27.15 85.614,29.69 85.374,32.42 84.674,34.92 84.054,37.12 81.414,40.95 81.414,40.95 81.414,40.95 81.194,39.77 81.004,39.2 80.734,38.39 80.484,37.54 79.964,36.86 79.484,36.23 78.854,35.68 78.134,35.35 77.314,34.97 76.364,34.81 75.474,34.89 74.404,34.99 73.394,35.47 72.464,36 71.544,36.53 70.714,37.23 69.994,38.02 69.474,38.58 69.074,39.26 68.684,39.92 68.294,40.58 67.644,41.99 67.644,41.99 67.644,41.99 65.924,40.27 64.824,39.85 63.254,39.25 61.444,39.12 59.794,39.44 58.274,39.74 56.754,40.44 55.644,41.52 53.344,43.77 51.874,47 51.154,50.05 Z"
     style="fill:#ff0000;fill-opacity:1;stroke:#ff0008;stroke-width:0.2881;stroke-miterlimit:4;stroke-dasharray:none;stroke-opacity:1"
     id="1966-tv-sigil"
     inkscape:connector-curvature="0" />
  <path
     d="M 51.169,2.3964 C 53.169,2.3864 55.169,2.3764 57.169,2.3364 59.229,2.2964 61.299,2.1764 63.359,2.1464 65.309,2.1264 67.589,2.0964 69.209,2.1764 71.658,2.3064 72.948,2.2564 75.398,2.3764 77.278,3.9364 79.168,5.9864 81.028,7.8064 83.398,10.126 85.748,12.476 88.108,14.806 88.108,14.806 85.248,18.036 83.828,19.656 82.188,21.536 80.558,23.45 78.928,25.34 77.128,27.43 75.338,29.52 73.538,31.6 71.268,34.23 69.009,36.86 66.719,39.48 64.999,41.45 63.229,43.38 61.529,45.37 60.289,46.82 59.119,48.35 57.869,49.79 56.699,51.13 55.489,52.43 54.269,53.72 53.209,54.83 52.139,55.95 51.079,57.06 49.809,55.71 48.509,54.38 47.279,53 45.639,51.17 44.119,49.24 42.509,47.38 40.889,45.51 39.249,43.65 37.599,41.8 35.999,40.01 34.369,38.25 32.779,36.45 31.229,34.7 29.689,32.94 28.179,31.16 26.149,28.77 24.199,26.3 22.159,23.91 20.819,22.336 19.439,20.786 18.069,19.236 16.839,17.836 14.339,15.066 14.339,15.066 14.339,15.066 18.349,10.836 20.389,8.7464 22.509,6.5764 24.919,3.8464 26.829,2.2864 28.799,2.2564 30.509,2.3064 32.479,2.2764 34.719,2.2364 37.089,2.3064 39.389,2.3364 41.259,2.3564 43.139,2.4064 45.009,2.4164 47.059,2.4264 49.119,2.4064 51.169,2.3964 Z M 50.909,0.05644 C 42.429,0.07644 33.939,0.24644 25.459,0.15644 20.729,5.0264 15.989,9.8964 11.259,14.766 17.949,22.58 24.579,30.46 31.339,38.21 37.919,45.75 44.629,53.16 51.279,60.64 58.889,51.94 66.309,43.33 73.918,34.64 79.628,28.05 85.328,21.456 91.029,14.856 86.148,9.9264 81.278,4.9964 76.398,0.06644 67.899,0.06644 59.409,0.03644 50.909,0.05644 Z M 51.229,46.38 C 51.229,46.38 50.759,41.48 49.759,39.27 48.249,35.92 46.799,30.85 43.149,30.44 42.329,30.35 41.659,31.32 41.269,32.04 40.729,33.06 40.869,35.47 40.869,35.47 40.869,35.47 39.589,33.27 38.849,32.23 38.399,31.59 37.879,31 37.359,30.41 36.789,29.76 36.319,28.97 35.579,28.53 34.999,28.19 34.239,27.73 33.639,28.02 33.279,28.2 33.229,28.73 33.149,29.13 33.059,29.57 33.109,30.04 33.169,30.49 33.229,31.07 33.389,31.65 33.549,32.21 33.699,32.76 34.109,33.82 34.109,33.82 31.969,32.34 25.289,26.03 22.999,20.806 21.549,17.496 20.409,13.426 21.689,10.046 22.509,7.8664 24.759,6.2964 26.909,5.4064 29.929,4.1564 32.569,4.3464 36.709,4.8364 36.709,4.8364 34.119,5.2664 33.169,6.0864 32.669,6.5164 32.289,7.1764 32.249,7.8264 32.199,8.6864 32.679,9.5464 33.189,10.246 34.069,11.456 35.409,12.286 36.689,13.076 38.279,14.056 40.019,14.816 41.799,15.366 43.769,15.976 47.879,16.476 47.879,16.476 47.879,16.476 48.039,13.866 48.129,12.556 48.269,10.436 48.559,6.1964 48.559,6.1964 48.559,6.1964 48.799,9.8564 49.719,11.356 50.049,11.886 50.539,12.546 51.169,12.556 51.879,12.566 52.489,11.856 52.869,11.256 53.809,9.7764 53.989,6.1364 53.989,6.1364 53.989,6.1364 54.359,10.416 54.499,12.556 54.589,13.876 54.709,16.506 54.709,16.506 54.709,16.506 59.259,15.926 61.409,15.186 63.449,14.486 65.459,13.566 67.169,12.256 68.349,11.356 69.619,10.336 70.149,8.9464 70.378,8.3564 70.358,7.6464 70.149,7.0564 69.949,6.4964 69.509,5.9864 68.999,5.6764 67.969,5.0464 65.459,4.8964 65.459,4.8964 69.579,4.5264 73.198,4.1164 76.538,5.7064 78.468,6.6264 80.268,8.3464 80.928,10.386 81.998,13.636 81.048,17.436 79.688,20.566 77.378,25.87 71.318,31.9 68.519,33.84 68.669,33.32 68.819,32.8 68.969,32.28 69.129,31.74 69.379,31.22 69.449,30.66 69.509,30.17 69.489,29.67 69.409,29.18 69.339,28.76 69.429,28.15 69.049,27.97 68.469,27.7 67.829,28.38 67.279,28.71 66.589,29.12 65.989,29.67 65.419,30.25 64.799,30.87 64.289,31.59 63.779,32.29 63.099,33.2 61.869,35.11 61.869,35.11 61.869,35.11 61.899,32.89 61.359,31.98 60.939,31.29 60.229,30.39 59.419,30.5 55.779,31.01 54.349,36 52.819,39.35 51.809,41.53 51.229,46.38 51.229,46.38 Z"
     style="fill:#ff0000;fill-opacity:1;stroke:#ff0008;stroke-width:0.31177;stroke-miterlimit:4;stroke-dasharray:none;stroke-opacity:1"
     id="1993-comics-sigil"
     inkscape:connector-curvature="0" />
</svg>
