<?xml version="1.0" encoding="UTF-8" standalone="no"?>
<svg
   xmlns:dc="http://purl.org/dc/elements/1.1/"
   xmlns:cc="http://creativecommons.org/ns#"
   xmlns:rdf="http://www.w3.org/1999/02/22-rdf-syntax-ns#"
   xmlns:svg="http://www.w3.org/2000/svg"
   xmlns="http://www.w3.org/2000/svg"
   xmlns:sodipodi="http://sodipodi.sourceforge.net/DTD/sodipodi-0.dtd"
   xmlns:inkscape="http://www.inkscape.org/namespaces/inkscape"
   id="svg989"
   viewBox="0 0 136.51 69.074"
   version="1.1"
   height="69.771mm"
   width="136.51mm"
   sodipodi:docname="anim-52points-unscaled.svg"
   inkscape:version="0.92.2 5c3e80d, 2017-08-06">
  <sodipodi:namedview
     pagecolor="#ffffff"
     bordercolor="#666666"
     borderopacity="1"
     objecttolerance="10"
     gridtolerance="10"
     guidetolerance="10"
     inkscape:pageopacity="0"
     inkscape:pageshadow="2"
     inkscape:window-width="1680"
     inkscape:window-height="921"
     id="namedview1618"
     showgrid="false"
     inkscape:zoom="0.22106"
     inkscape:cx="253.45"
     inkscape:cy="131.85"
     inkscape:window-x="0"
     inkscape:window-y="1"
     inkscape:window-maximized="1"
     inkscape:current-layer="svg989" />
  <metadata
     id="metadata995">
    <rdf:RDF>
      <cc:Work
         rdf:about="">
        <dc:format>image/svg+xml</dc:format>
        <dc:type
           rdf:resource="http://purl.org/dc/dcmitype/StillImage" />
        <dc:title />
      </cc:Work>
    </rdf:RDF>
  </metadata>
  <defs
     id="defs993" />
  <path
     style="fill:#ff00ff;fill-opacity:1;stroke:#ff0000;stroke-width:0.10001;stroke-miterlimit:4;stroke-dasharray:none;stroke-opacity:1"
     d="M 68.128,54.336 C 68.128,54.336 66.148,49.366 64.458,47.346 62.158,44.596 59.318,42.036 55.968,40.756 53.248,39.726 50.098,39.516 47.268,40.156 45.148,40.636 41.598,43.366 41.598,43.366 41.598,43.366 41.278,41.696 40.998,40.896 40.618,39.826 40.158,38.776 39.538,37.826 38.898,36.836 38.148,35.886 37.248,35.136 36.238,34.306 35.098,33.586 33.848,33.196 32.038,32.636 30.068,32.556 28.188,32.736 26.528,32.896 24.898,33.406 23.368,34.076 21.718,34.806 20.208,35.866 18.768,36.956 17.588,37.846 15.478,39.946 15.478,39.946 15.478,39.946 17.168,36.386 18.208,34.706 19.068,33.316 19.948,31.896 21.098,30.726 23.148,28.636 25.558,26.866 28.108,25.426 30.658,23.986 32.858,23.116 36.258,22.146 36.418,23.086 38.308,24.496 39.588,25.326 41.248,26.396 45.048,27.506 45.048,27.506 44.158,31.836 43.268,36.166 42.378,40.496 44.518,36.506 46.668,32.506 48.808,28.516 48.808,28.516 53.188,29.406 55.398,29.706 57.628,30.006 62.108,30.316 62.108,30.316 62.108,30.316 62.528,25.106 63.128,22.566 63.728,20.046 64.488,17.036 65.688,15.216 65.958,18.216 66.158,20.986 66.238,23.986 66.028,24.526 65.818,25.066 65.608,25.606 66.668,27.186 68.598,31.726 68.928,35.076 69.478,40.586 69.748,46.486 68.238,52.036 70.678,46.626 71.448,44.156 72.118,40.406 72.708,37.056 72.928,32.166 72.788,30.216 72.788,30.216 78.318,30.076 81.058,29.736 83.238,29.466 87.528,28.496 87.528,28.496 89.609,32.376 91.699,36.256 93.779,40.136 92.989,35.906 92.189,31.676 91.399,27.446 91.399,27.446 95.629,26.146 97.459,24.946 98.579,24.216 100.35,22.146 100.35,22.146 102.81,22.816 106.48,24.326 109.26,25.976 111.11,27.076 112.8,28.476 114.36,29.976 116.25,31.786 118.13,33.686 119.47,35.936 120.19,37.126 120.98,39.826 120.98,39.826 120.98,39.826 118.66,37.686 117.4,36.756 116.25,35.906 115.05,35.106 113.77,34.466 112.51,33.836 111.19,33.276 109.81,32.966 108.27,32.626 106.67,32.446 105.1,32.606 103.69,32.756 102.27,33.116 101.02,33.786 99.679,34.506 98.509,35.566 97.539,36.746 96.759,37.696 96.209,38.826 95.749,39.966 95.289,41.086 94.809,43.466 94.809,43.466 93.419,42.166 90.889,40.486 88.878,40.146 86.278,39.706 83.478,39.656 80.978,40.506 77.848,41.556 75.078,43.726 72.848,46.156 70.718,48.476 68.128,54.336 68.128,54.336 Z"
     id="2014-cartoon-sigil"
     inkscape:connector-curvature="0"
     sodipodi:nodetypes="cccccccccccccccsccccccccccccccccccccccccccscccccccccc" />
  <path
     id="2010-comics-sigil"
     d="M 68.028,58.874 C 68.028,58.874 65.708,50.964 64.548,47.004 63.708,44.144 62.008,38.444 62.008,38.444 61.078,37.704 58.368,38.424 56.668,38.974 55.278,39.414 53.668,40.464 52.858,41.144 52.225,40.511 51.591,39.877 50.958,39.244 50.068,38.354 48.738,38.054 47.588,37.564 46.788,37.224 45.978,36.874 45.128,36.674 44.228,36.454 43.308,36.364 42.378,36.324 41.538,36.294 40.698,36.354 39.858,36.444 38.888,36.544 37.928,36.684 36.978,36.924 36.198,37.124 35.408,37.364 34.678,37.734 34.168,37.984 33.248,38.694 33.248,38.694 33.248,38.694 34.128,35.444 34.778,33.904 35.628,31.904 36.618,29.954 37.858,28.164 38.998,26.514 40.348,25.004 41.818,23.634 43.438,22.124 47.108,19.634 47.108,19.634 47.108,19.634 48.288,20.524 48.918,20.914 49.738,21.424 50.558,21.944 51.448,22.314 52.248,22.644 53.088,22.884 53.938,23.034 54.758,23.184 55.598,23.214 56.428,23.214 57.178,23.214 57.928,23.144 58.678,23.054 59.508,22.954 61.158,22.624 61.158,22.624 61.158,22.624 61.258,21.384 61.338,20.764 61.798,17.324 63.078,10.504 63.078,10.504 63.718,13.884 64.358,17.254 64.998,20.634 64.998,20.634 67.018,20.664 68.028,20.664 69.038,20.664 71.068,20.634 71.068,20.634 71.708,17.254 72.348,13.874 72.988,10.494 72.988,10.494 73.958,17.264 74.538,20.634 74.638,21.214 74.868,22.374 74.868,22.374 74.868,22.374 76.368,22.794 77.128,22.924 77.878,23.054 78.628,23.134 79.388,23.144 80.238,23.154 81.098,23.104 81.938,22.974 82.898,22.834 83.858,22.634 84.768,22.314 85.528,22.044 86.268,21.684 86.958,21.254 87.668,20.814 88.928,19.704 88.928,19.704 88.928,19.704 92.848,22.234 94.528,23.834 95.958,25.204 97.188,26.784 98.288,28.434 99.438,30.154 100.37,32.024 101.23,33.904 102.01,35.614 103.25,39.174 103.25,39.174 103.25,39.174 101.67,37.994 100.78,37.594 100.01,37.254 99.168,37.104 98.348,36.924 97.448,36.724 96.538,36.534 95.618,36.444 94.618,36.344 93.608,36.294 92.608,36.394 91.768,36.484 90.938,36.714 90.128,36.944 89.238,37.194 88.358,37.474 87.518,37.864 86.528,38.334 85.618,38.964 84.708,39.584 84.118,39.984 83.008,40.864 83.008,40.864 83.008,40.864 80.218,39.154 78.658,38.764 77.058,38.364 74.548,37.804 73.728,38.574 73.728,38.574 72.308,44.114 71.538,46.874 70.418,50.894 68.028,58.874 68.028,58.874 Z"
     style="fill:#ff00ff;fill-opacity:1;stroke:#ff0008;stroke-width:0.10001;stroke-miterlimit:4;stroke-dasharray:none;stroke-opacity:1"
     inkscape:connector-curvature="0"
     sodipodi:nodetypes="cccccsccccccccccccccscccccsccccccccccccccccccccccsccc" />
  <path
     style="fill:#ff00ff;fill-opacity:1;stroke:#fa0000;stroke-width:0.10841;stroke-miterlimit:4;stroke-dasharray:none;stroke-opacity:1"
     d="M 68.279,47.298 C 67.689,50.318 67.819,53.488 67.709,56.608 67.709,56.608 64.639,52.758 62.849,51.078 60.949,49.288 56.669,46.278 56.669,46.278 56.669,46.278 51.989,46.798 49.719,47.388 47.359,48.008 42.839,49.908 42.839,49.908 43.399,46.948 44.389,43.999 45.689,41.039 44.249,42.999 42.779,46.418 42.069,49.238 40.159,46.678 38.359,43.719 36.149,41.449 36.149,41.449 27.829,43.929 23.919,45.769 20.399,47.418 13.899,51.758 13.899,51.758 17.259,45.349 18.839,39.929 26.049,31.409 21.219,35.989 16.899,42.519 14.099,47.708 16.489,41.169 20.789,35.479 25.249,30.179 27.399,27.629 29.989,25.459 32.659,23.449 35.649,21.199 38.819,19.109 42.229,17.539 47.089,15.299 55.589,12.689 57.519,12.619 57.519,12.619 47.259,15.779 41.019,22.419 45.949,18.599 50.129,16.769 53.989,15.049 53.359,15.789 49.999,17.589 50.019,22.329 50.709,21.419 50.179,20.909 50.929,20.129 54.719,21.569 58.319,22.299 61.779,22.449 61.819,23.049 61.859,23.659 61.899,24.259 62.269,22.949 62.539,21.349 63.059,19.959 63.699,18.229 65.439,14.959 65.439,14.959 66.529,16.759 64.739,17.149 65.239,17.729 65.239,17.729 67.099,17.039 68.079,17.019 69.189,16.999 71.339,17.729 71.339,17.729 71.709,16.929 70.139,16.829 71.159,14.819 71.159,14.819 72.869,18.049 73.489,19.759 74.009,21.219 74.439,22.709 74.639,24.269 74.752,23.682 74.866,23.096 74.979,22.509 77.669,22.549 83.089,21.159 85.819,19.989 86.329,20.399 86.179,21.779 86.619,22.359 87.039,20.019 84.969,16.699 82.479,14.959 88.989,17.209 92.949,20.559 96.009,22.739 91.509,17.469 82.169,13.669 78.689,12.599 87.759,14.119 92.059,16.349 98.149,19.549 101.39,21.259 104.33,23.529 107.05,25.969 110.46,29.029 113.58,32.439 116.24,36.169 118.8,39.759 121.35,44.329 122.61,47.888 119.17,42.069 116.49,36.789 110.72,31.569 115.16,37.289 118.93,42.389 122.51,51.558 122.51,51.558 115.07,46.838 111.06,45.069 107.65,43.569 102.94,42.019 100.43,41.599 98.279,44.069 96.299,46.588 94.569,49.168 94.249,46.668 91.609,41.659 90.859,40.909 91.949,43.869 93.259,46.798 93.659,49.858 93.659,49.858 89.299,48.078 87.029,47.458 84.729,46.828 79.999,46.159 79.999,46.159 79.999,46.159 75.839,49.108 73.999,50.868 72.089,52.678 68.839,56.838 68.839,56.838 68.739,53.658 68.859,50.478 68.279,47.298 Z"
     id="2009-comics-title"
     inkscape:connector-curvature="0"
     sodipodi:nodetypes="ccccccccccccccccccccccccccccccccccccccccccccccccccccc" />
  <path
     style="fill:#ff00ff;fill-opacity:1;stroke:#ff0000;stroke-width:0.1;stroke-miterlimit:4;stroke-dasharray:none;stroke-opacity:1"
     d="M 67.865,65.255 C 67.865,65.255 65.255,53.385 63.705,47.505 62.835,44.215 60.835,37.705 60.835,37.705 60.835,37.705 59.485,39.945 58.795,41.055 58.075,42.215 56.615,44.535 56.615,44.535 56.615,44.535 55.315,40.315 54.675,38.205 54.095,36.285 52.965,32.425 52.965,32.425 52.965,32.425 48.755,39.355 46.995,43.005 45.225,46.675 42.375,54.325 42.375,54.325 42.375,54.325 41.985,43.615 41.745,38.265 41.555,33.985 41.105,25.425 41.105,25.425 39.235,25.665 35.845,26.745 33.715,28.315 29.965,31.085 27.405,34.855 25.005,39.245 25.005,39.245 27.455,32.245 28.625,28.725 29.465,26.215 30.285,23.475 31.055,21.165 36.035,17.375 36.315,17.095 38.925,15.035 43.455,11.485 52.445,4.3149 52.445,4.3149 52.445,4.3149 53.245,7.0449 53.675,8.4049 53.955,9.2949 54.265,10.175 54.555,11.055 54.745,11.655 55.135,12.845 55.135,12.845 55.135,12.845 55.715,14.105 56.105,14.675 56.625,15.435 57.175,16.185 57.895,16.755 58.435,17.185 59.735,17.715 59.735,17.715 59.735,17.715 60.845,15.625 61.425,14.585 62.455,12.735 64.595,9.0749 64.595,9.0749 64.715,10.545 65.685,17.125 66.065,18.135 66.065,18.135 66.955,18.015 67.395,17.975 67.895,17.935 68.895,17.885 68.895,17.885 69.325,16.975 70.515,10.785 70.895,9.2949 70.895,9.2949 72.655,12.695 73.555,14.385 74.055,15.325 75.085,17.185 75.085,17.185 75.085,17.185 75.865,17.335 76.405,17.215 77.455,16.665 78.685,15.895 79.705,15.075 80.435,14.485 81.145,13.845 81.695,13.085 82.105,12.525 82.385,11.875 82.635,11.235 83.095,10.105 83.385,8.9149 83.695,7.7449 83.945,6.8249 84.345,4.9649 84.345,4.9649 91.716,11.745 96.106,15.045 104.29,19.225 107.62,23.625 110.37,28.755 110.95,30.545 110.99,31.115 111.16,32.335 111.46,33.285 111.61,34.925 111.35,38.215 111.35,38.215 111.35,38.215 108.56,30.795 106.34,27.565 104.17,24.405 102.02,22.335 95.686,22.765 95.686,22.765 98.305,28.605 98.885,31.725 99.315,34.065 99.055,38.875 99.055,38.875 99.055,38.875 96.616,34.375 94.856,32.565 92.906,30.565 87.995,27.735 87.995,27.735 87.995,27.735 86.285,31.265 85.425,33.035 84.445,35.065 82.475,39.125 82.475,39.125 82.475,39.125 80.345,36.635 79.305,35.375 78.425,34.335 76.715,32.215 76.715,32.215 76.715,32.215 73.105,40.415 71.865,44.705 69.925,51.405 67.855,65.255 67.865,65.255 Z"
     id="2009-comics-sigil"
     inkscape:connector-curvature="0"
     sodipodi:nodetypes="ccccccccccccccccccccscccccccccccccccccccccccccccccccc" />
  <path
     id="2008-tv-sigil"
     d="M 68.255,49.2 C 67.988,48.79 64.578,44.081 62.033,42.331 59.942,40.881 57.384,38.891 54.934,39.561 54.373,39.711 54.008,40.371 53.856,40.931 53.643,41.711 54.191,43.351 54.191,43.351 54.191,43.351 52.673,41.811 51.792,41.201 50.88,40.571 49.862,40.091 48.843,39.651 48.068,39.311 47.288,38.921 46.45,38.811 45.626,38.701 44.545,38.401 43.963,38.991 43.409,39.561 43.666,40.591 43.837,41.371 44.025,42.221 44.59,42.961 45.067,43.691 45.551,44.441 46.117,45.141 46.712,45.811 47.253,46.41 48.454,47.5 48.454,47.5 45.908,46.87 38.868,44.521 35.515,41.061 33.86,39.351 32.313,36.951 32.537,34.581 32.825,31.521 35.42,28.911 37.88,27.081 42.792,23.411 51.525,21.731 55.274,21.101 55.274,21.101 53.574,22.131 52.984,22.901 52.623,23.371 52.362,23.951 52.289,24.541 52.237,24.961 52.293,25.421 52.484,25.801 52.705,26.241 53.096,26.601 53.519,26.841 53.969,27.111 54.512,27.171 55.025,27.261 56.318,27.481 58.951,27.551 58.951,27.551 58.951,27.551 59.343,27.011 59.537,26.741 61.052,24.631 64.054,20.401 64.054,20.401 64.12,22.931 64.185,25.471 64.251,28.001 64.251,28.001 66.919,27.921 68.254,27.911 69.623,27.911 72.362,27.981 72.362,27.981 72.396,25.451 72.43,22.931 72.464,20.401 72.464,20.401 75.355,24.551 76.853,26.581 77.12,26.941 77.671,27.651 77.671,27.651 77.671,27.651 79.315,27.501 80.132,27.381 80.903,27.271 81.685,27.191 82.432,26.971 82.789,26.871 83.19,26.801 83.464,26.541 83.902,26.141 84.242,25.551 84.278,24.951 84.321,24.241 83.95,23.531 83.54,22.941 82.993,22.161 81.354,21.101 81.354,21.101 84.255,21.651 93.372,23.491 98.303,26.841 100.62,28.421 102.96,30.571 103.74,33.271 104.25,35.051 103.99,37.241 102.96,38.771 99.822,43.441 92.121,46.34 88.403,47.3 88.403,47.3 89.672,45.961 90.281,45.271 90.814,44.661 91.411,44.101 91.833,43.411 92.239,42.751 92.627,42.031 92.748,41.271 92.862,40.551 93.075,39.601 92.553,39.091 91.818,38.381 90.495,38.731 89.486,38.911 88.471,39.091 87.565,39.671 86.648,40.141 85.739,40.611 84.811,41.081 84.022,41.731 83.451,42.201 82.534,43.381 82.534,43.381 82.534,43.381 82.949,41.781 82.706,41.041 82.499,40.401 82.057,39.671 81.407,39.511 79.096,38.941 76.758,40.861 74.799,42.211 72.17,44.021 68.514,48.82 68.255,49.2 Z"
     style="fill:#ff00ff;fill-opacity:1;stroke:#ff0008;stroke-width:0.10001;stroke-miterlimit:4;stroke-dasharray:none;stroke-opacity:1"
     inkscape:connector-curvature="0"
     sodipodi:nodetypes="ccccccccccccccccccccccccccccccccccccccccccccccccccccc" />
  <path
     id="2006-comics-title"
     d="M 67.036,63.223 C 67.036,63.223 66.076,60.323 65.056,59.253 62.646,56.733 59.316,54.933 55.926,54.153 50.476,52.903 44.616,53.863 39.176,55.133 36.876,55.673 32.646,57.903 32.646,57.903 32.646,57.903 32.816,56.363 32.626,55.633 32.376,54.673 31.946,53.693 31.216,53.023 29.886,51.823 27.986,51.383 26.256,50.923 24.366,50.423 22.386,50.303 20.436,50.233 18.406,50.163 16.366,50.353 14.346,50.543 11.876,50.783 9.4161,51.093 6.9761,51.563 5.6261,51.823 4.3161,52.223 2.9861,52.543 2.0361,52.783 0.12611,53.243 0.12611,53.243 0.12611,53.243 3.3561,48.633 5.1661,46.473 8.6661,42.304 12.356,38.264 16.376,34.594 21.406,30.004 29.066,25.054 32.456,21.994 33.586,20.974 44.086,10.674 44.266,8.8039 43.976,12.884 48.526,18.144 51.806,19.764 52.316,20.014 51.916,18.144 52.696,17.964 53.626,20.534 54.696,21.744 53.876,14.844 56.566,16.814 54.636,15.404 55.176,15.614 55.186,14.474 55.186,13.324 55.196,12.184 55.836,12.024 57.136,11.804 57.136,11.804 57.016,13.694 58.656,14.464 58.946,14.524 58.946,14.524 58.016,11.754 58.246,10.784 57.596,10.774 56.946,10.754 56.296,10.744 59.476,6.5639 63.176,9.1739 64.336,11.454 64.376,10.754 64.406,10.054 64.446,9.3539 65.066,8.4239 66.116,7.2139 66.846,6.2239 65.816,10.654 65.216,13.214 63.526,15.964 64.166,16.804 62.316,18.654 59.866,23.614 60.336,24.014 61.196,24.034 61.866,23.784 62.876,23.404 64.466,22.724 65.666,22.014 66.966,21.244 68.216,20.344 69.336,19.334 69.746,18.964 70.096,18.534 70.436,18.104 71.076,17.294 71.726,16.484 72.196,15.564 72.766,14.464 73.446,12.074 73.446,12.074 73.906,13.604 73.966,13.284 74.356,13.904 76.956,18.054 101.66,30.184 115.92,36.624 117.44,37.314 118.98,37.954 120.39,38.834 126.13,42.424 136.48,51.243 136.48,51.243 136.48,51.243 132.99,49.693 131.18,49.093 129.79,48.633 128.36,48.293 126.93,47.973 125.06,47.573 123.18,47.033 121.27,46.983 118.71,46.923 116.1,47.213 113.65,47.943 112.49,48.293 111.43,48.933 110.39,49.553 109.04,50.343 107.71,51.183 106.55,52.223 105.12,53.513 103.88,55.023 102.78,56.603 102.17,57.493 101.23,59.463 101.23,59.463 99.926,57.593 94.346,53.363 90.056,52.203 86.386,51.213 82.226,51.463 78.656,52.763 75.326,53.973 72.726,56.713 70.206,59.193 68.986,60.393 67.036,63.223 67.036,63.223 Z"
     style="fill:#ff00ff;fill-opacity:1;stroke:#ff0008;stroke-width:0.10798;stroke-miterlimit:4;stroke-dasharray:none;stroke-opacity:1"
     inkscape:connector-curvature="0"
     sodipodi:nodetypes="cccccccccccccccsccccccccccccccccccccccccccccccccccccc" />
  <path
     style="fill:#ff00ff;fill-opacity:1;stroke:#ff0000;stroke-width:0.06624;stroke-miterlimit:4;stroke-dasharray:none;stroke-opacity:1"
     d="M 68.354,50.618 C 68.354,50.618 67.334,45.769 65.934,43.819 64.754,42.129 63.184,39.879 61.124,39.919 60.147,39.939 59.391,40.999 58.919,41.849 58.176,43.189 58.184,46.388 58.184,46.388 58.184,46.388 57.054,43.739 55.98,42.879 55.114,42.169 53.932,41.499 52.838,41.719 51.906,41.919 51.121,42.779 50.733,43.639 50.232,44.769 50.695,47.328 50.695,47.328 50.695,47.328 49.125,46.189 48.202,46.009 47.277,45.849 46.249,45.929 45.393,46.328 44.5,46.738 43.711,47.488 43.241,48.348 42.789,49.188 42.736,51.148 42.736,51.148 42.736,51.148 40.381,46.598 39.662,44.149 38.866,41.449 38.33,38.619 38.327,35.799 38.324,32.509 38.869,29.169 39.874,26.014 40.734,23.318 43.649,18.423 43.649,18.423 43.649,18.423 45.471,20.028 46.417,20.79 47.314,21.512 48.224,22.224 49.174,22.874 50.238,23.603 51.324,24.307 52.468,24.902 53.556,25.469 54.7,25.921 55.847,26.359 56.896,26.749 57.959,27.119 59.04,27.409 60.223,27.719 62.633,28.149 62.633,28.149 62.633,28.149 63.854,23.656 64.534,21.435 64.654,21.035 64.914,20.242 64.914,20.242 65.074,20.626 65.224,21.011 65.374,21.395 65.374,21.395 67.354,21.456 68.354,21.455 69.274,21.455 71.124,21.395 71.124,21.395 71.264,20.977 71.394,20.557 71.534,20.139 71.534,20.139 71.824,20.999 71.964,21.435 72.634,23.65 73.804,28.129 73.804,28.129 73.804,28.129 75.534,27.849 76.384,27.659 77.454,27.419 78.524,27.179 79.564,26.819 80.754,26.429 81.884,25.891 83.004,25.36 84.214,24.797 85.434,24.234 86.544,23.538 87.564,22.916 88.514,22.173 89.465,21.453 90.665,20.542 92.995,18.625 92.995,18.625 92.995,18.625 95.995,23.617 96.875,26.369 97.755,29.149 98.075,32.089 98.165,34.989 98.245,37.589 98.075,40.249 97.445,42.779 96.715,45.659 93.955,51.018 93.955,51.018 93.955,51.018 93.725,49.078 93.255,48.248 92.765,47.428 92.065,46.658 91.195,46.278 90.295,45.869 89.205,45.849 88.234,46.079 87.394,46.268 85.984,47.388 85.984,47.388 85.984,47.388 86.284,45.029 85.904,43.949 85.624,43.139 85.174,42.189 84.374,41.879 83.334,41.469 82.034,41.919 81.114,42.509 79.834,43.349 78.464,46.298 78.464,46.298 78.464,46.298 78.474,42.599 77.424,41.239 76.844,40.509 75.824,39.889 74.904,40.029 73.074,40.289 71.784,42.209 70.764,43.759 69.424,45.769 68.354,50.618 68.354,50.618 Z"
     id="2004-cartoon-sigil"
     inkscape:connector-curvature="0"
     sodipodi:nodetypes="ccccccccccccccccccccccccccccccccccccccccccccccccccccc" />
  <path
     id="1997-movie-sigil"
     d="M 68.275,54.927 C 67.405,54.92 66.295,51.524 65.065,50 63.761,48.386 62.524,46.534 60.68,45.584 59.584,45.018 58.122,44.412 57.029,44.983 56.115,45.459 55.695,47.773 55.695,47.773 55.695,47.773 54.122,46.119 53.233,45.409 52.437,44.773 51.593,44.184 50.682,43.729 49.56,43.168 48.386,42.593 47.139,42.459 45.773,42.312 44.104,42.184 43.053,42.992 43.776,43.957 43.978,44.218 44.463,44.813 45.477,46.057 46.495,47.303 47.599,48.469 48.333,49.244 49.122,49.967 49.913,50.685 50.936,51.614 53.054,53.391 53.054,53.391 41.253,50.307 34.308,47.69 29.267,40.143 27.565,37.594 27.188,33.898 28.212,31.009 29.909,26.22 34.696,22.87 39.108,20.348 45.471,16.71 52.898,15.527 60.335,14.607 57.222,15.801 50.639,19.248 47.893,23.556 47.438,24.269 47.117,25.26 47.42,26.049 47.719,26.826 48.659,27.199 49.41,27.56 51.756,28.687 54.405,29.098 56.982,29.463 58.316,29.652 59.72,29.618 61.023,29.606 61.587,29.327 61.782,28.874 62.557,28.267 62.557,28.267 62.793,25.083 63.055,23.51 63.312,21.958 64.105,18.908 64.105,18.908 64.425,20.135 64.525,21.695 64.925,22.669 64.925,22.669 67.035,21.825 68.135,21.832 69.315,21.839 71.555,22.764 71.555,22.764 72.115,21.891 72.245,20.054 72.365,19.009 72.365,19.009 73.175,21.68 73.415,23.053 73.705,24.787 73.845,28.311 73.845,28.311 74.235,28.838 74.875,29.267 75.525,29.573 78.915,29.78 82.745,29.017 86.175,27.948 86.955,27.705 87.755,27.407 88.375,26.875 88.735,26.572 89.105,26.187 89.175,25.726 89.315,24.822 88.925,23.837 88.385,23.097 85.475,19.096 80.355,16.361 76.195,14.644 85.915,15.675 95.185,17.93 102.54,23.571 105.5,25.832 108.18,29.167 108.75,32.841 109.23,35.862 108.14,39.287 106.2,41.652 100.84,48.202 93.075,51.082 83.675,53.381 83.675,53.381 85.935,51.458 87.015,50.441 87.685,49.812 88.335,49.158 88.955,48.487 89.755,47.629 90.525,46.746 91.275,45.84 92.065,44.874 93.565,42.869 93.565,42.869 93.565,42.869 91.805,42.342 90.895,42.374 89.245,42.432 87.605,42.949 86.095,43.618 85.105,44.053 84.235,44.717 83.395,45.385 82.535,46.067 81.015,47.657 81.015,47.657 81.015,47.657 80.475,45.373 79.545,44.935 78.265,44.337 76.635,45.087 75.405,45.771 73.825,46.643 72.805,48.279 71.695,49.692 70.405,51.328 69.005,54.934 68.275,54.927 Z"
     style="fill:#ff00ff;fill-opacity:1;stroke:#ff0000;stroke-width:0.08597;stroke-miterlimit:4;stroke-dasharray:none;stroke-opacity:1"
     inkscape:connector-curvature="0"
     sodipodi:nodetypes="ccccccccccccccccccccccccccccccccccccccccccccccccccccc" />
  <path
     style="fill:#ff00ff;fill-opacity:1;stroke:#ff0000;stroke-width:0.1;stroke-miterlimit:4;stroke-dasharray:none;stroke-opacity:1"
     d="M 68.409,55.609 C 68.409,55.609 65.429,50.672 63.249,48.87 61.689,47.581 59.829,46.441 57.819,46.155 56.269,45.933 54.509,46.156 53.179,47 52.289,47.569 51.339,49.591 51.339,49.591 51.339,49.591 49.239,47.758 48.039,47.074 47.119,46.551 46.129,46.116 45.099,45.889 44.099,45.668 43.049,45.622 42.029,45.736 40.659,45.889 39.199,46.103 38.039,46.853 37.349,47.302 36.809,48.012 36.449,48.754 36.079,49.518 35.959,50.399 35.909,51.248 35.869,52.014 36.019,52.783 36.159,53.536 36.279,54.158 36.669,55.366 36.669,55.366 31.869,53.396 26.689,50.472 23.489,46.175 21.189,43.087 19.369,39.022 19.869,35.204 20.509,30.307 24.249,26.04 27.969,22.794 32.369,18.959 40.619,15.913 43.799,15.316 43.799,15.316 42.879,17.435 42.859,18.56 42.839,19.801 43.179,21.081 43.769,22.172 44.479,23.486 45.629,24.555 46.819,25.458 48.099,26.429 49.549,27.287 51.109,27.66 53.199,28.16 55.449,28.038 57.559,27.625 58.819,27.378 60.239,26.9 61.139,26.192 61.139,26.192 61.919,20.8 62.339,18.108 62.549,16.723 63.009,13.958 63.009,13.958 63.709,15.003 64.399,16.047 65.099,17.092 65.099,17.092 67.309,17.072 68.409,17.072 69.409,17.072 71.409,17.092 71.409,17.092 72.059,16.074 72.699,15.056 73.349,14.038 73.349,14.038 73.789,16.998 74.039,18.478 74.439,20.938 75.319,25.858 75.319,25.858 75.769,26.472 76.889,26.964 77.789,27.256 79.779,27.899 81.939,28.199 84.019,27.95 85.789,27.737 87.529,27.06 89.039,26.116 90.439,25.241 91.789,24.109 92.609,22.679 93.429,21.258 93.979,19.533 93.799,17.902 93.689,16.923 92.459,15.266 92.459,15.266 95.329,15.846 105.96,19.834 110.91,24.641 113.78,27.437 116.22,31.221 116.66,35.208 117.04,38.662 115.75,42.37 113.77,45.222 110.51,49.903 103.7,53.646 100.01,55.392 100.01,55.392 100.59,54.141 100.73,53.474 100.91,52.682 101.03,51.854 100.93,51.048 100.82,50.077 100.54,49.089 100.02,48.258 99.609,47.594 99.019,46.999 98.339,46.618 97.309,46.042 96.069,45.887 94.889,45.764 93.699,45.639 92.469,45.633 91.289,45.89 90.239,46.12 89.249,46.603 88.309,47.138 87.169,47.789 85.159,49.492 85.159,49.492 85.159,49.492 84.399,47.807 83.699,47.277 82.549,46.421 81.019,45.932 79.589,46.023 77.289,46.168 75.079,47.404 73.299,48.858 71.139,50.613 68.409,55.609 68.409,55.609 Z"
     id="1996-comics-title"
     inkscape:connector-curvature="0"
     sodipodi:nodetypes="ccccccccccccccccccccccccccscccccccccccccccccccccccccc" />
  <path
     id="1995-movie-sigil"
     d="M 68.248,53.714 C 68.248,53.714 67.348,47.169 65.388,44.702 64.458,43.537 62.978,42.018 61.548,42.428 60.608,42.695 60.348,44.056 60.198,45.017 59.998,46.346 60.888,48.993 60.888,48.993 60.888,48.993 58.528,46.263 57.218,45.022 56.268,44.128 55.318,43.224 54.218,42.531 53.158,41.865 52.058,41.061 50.818,40.963 49.448,40.855 47.688,40.989 46.848,42.08 45.878,43.348 46.348,45.34 46.808,46.869 47.148,48.001 48.068,48.871 48.788,49.81 49.728,51.032 50.748,52.188 51.808,53.301 52.768,54.303 54.828,56.16 54.828,56.16 51.778,55.725 43.148,51.826 39.278,47.277 36.248,43.714 33.988,38.794 34.378,34.135 34.808,29.017 38.258,24.206 42.108,20.807 46.778,16.685 54.938,14.301 59.308,13.51 59.308,13.51 55.428,15.272 53.948,16.746 52.568,18.122 51.238,19.82 50.918,21.742 50.728,22.923 50.948,24.312 51.698,25.247 52.808,26.642 54.808,27.108 56.538,27.539 58.398,28.002 60.898,28.128 62.288,27.8 63.068,27.617 63.708,27.444 63.948,26.056 64.088,25.265 64.768,20.261 65.018,17.346 65.118,16.145 65.188,13.733 65.188,13.733 65.618,14.785 66.038,15.838 66.468,16.89 66.468,16.89 67.648,16.973 68.238,16.987 68.838,17.001 70.028,16.973 70.028,16.973 70.458,15.893 70.878,14.813 71.308,13.733 71.308,13.733 71.288,16.145 71.388,17.346 71.628,20.269 72.528,25.28 72.628,26.057 72.808,27.444 73.468,27.525 74.208,27.799 74.938,28.072 78.038,27.994 79.868,27.538 81.548,27.122 83.408,26.622 84.558,25.328 85.348,24.441 85.798,23.131 85.678,21.953 85.458,19.995 84.028,18.283 82.648,16.878 81.078,15.278 76.938,13.329 76.938,13.329 81.928,14.015 90.298,16.997 95.228,21.501 98.698,24.671 101.68,29.124 102.12,33.804 102.54,38.231 100.66,42.983 97.878,46.451 93.948,51.349 86.288,55.142 81.738,56.166 81.738,56.166 83.818,54.225 84.808,53.203 85.848,52.125 86.958,51.09 87.828,49.864 88.728,48.593 89.788,47.288 90.048,45.754 90.258,44.47 90.288,42.871 89.428,41.899 88.618,40.995 87.138,40.812 85.928,40.912 84.458,41.033 83.168,41.984 81.938,42.795 80.768,43.566 79.788,44.591 78.798,45.582 77.698,46.685 75.708,49.085 75.708,49.085 75.708,49.085 76.758,45.621 76.148,44.049 75.878,43.355 75.248,42.582 74.508,42.532 72.948,42.427 71.568,43.954 70.668,45.23 68.958,47.626 68.248,53.714 68.248,53.714 Z"
     style="fill:#ff00ff;fill-opacity:1;stroke:#ff0000;stroke-width:0.10001;stroke-miterlimit:4;stroke-dasharray:none;stroke-opacity:1"
     inkscape:connector-curvature="0"
     sodipodi:nodetypes="ccccccccccccccccccccccccccccccccccccccccccccccccccccc" />
  <path
     style="fill:#ff00ff;fill-opacity:1;stroke:#ff0000;stroke-width:0.05619;stroke-miterlimit:4;stroke-dasharray:none;stroke-opacity:1"
     d="M 68.233,46.088 C 68.233,46.088 67.263,43.154 66.333,41.953 65.443,40.802 64.373,39.551 62.963,39.185 62.423,39.044 61.763,39.16 61.303,39.484 60.663,39.938 60.223,40.721 60.223,41.643 60.223,41.643 59.263,40.47 58.653,40.046 57.943,39.554 57.133,39.126 56.273,39.003 55.673,38.917 55.033,38.993 54.483,39.232 54.023,39.43 53.613,39.774 53.333,40.183 52.993,40.673 52.793,41.28 52.753,41.875 52.723,42.428 52.923,42.976 53.093,43.503 53.213,43.876 53.403,44.226 53.583,44.575 53.773,44.935 54.203,45.625 54.203,45.625 51.263,44.178 49.163,43.175 47.493,41.052 46.293,39.536 45.443,37.57 45.413,35.638 45.383,34.098 45.953,32.468 46.923,31.27 49.563,28.002 53.093,25.943 57.703,24.739 57.703,24.739 56.593,25.717 56.323,26.38 56.013,27.119 55.983,27.986 56.143,28.769 56.293,29.488 56.653,30.186 57.143,30.73 57.683,31.321 58.413,31.743 59.153,32.02 59.953,32.313 60.823,32.453 61.663,32.373 62.583,32.286 62.943,32.43 64.283,31.475 64.283,31.475 64.733,27.978 64.963,26.231 65.093,25.297 65.353,23.43 65.353,23.43 65.953,24.187 66.803,25.631 67.183,26.388 67.183,26.388 67.883,26.371 68.233,26.369 68.603,26.367 69.353,26.379 69.353,26.379 69.893,25.639 70.593,24.237 71.133,23.497 71.133,23.497 71.473,25.622 71.633,26.687 71.873,28.283 72.303,31.48 72.303,31.48 72.353,31.888 73.483,32.156 74.143,32.267 75.173,32.44 76.273,32.394 77.263,32.047 78.123,31.742 78.933,31.184 79.513,30.475 79.983,29.907 80.263,29.178 80.393,28.456 80.513,27.819 80.543,27.117 80.313,26.514 80.023,25.786 78.783,24.728 78.783,24.728 82.173,25.45 86.703,27.755 89.284,30.89 90.444,32.306 91.164,34.249 91.094,36.079 91.024,37.889 90.044,39.647 88.903,41.054 87.213,43.137 83.773,45.149 82.363,45.741 82.363,45.741 83.193,44.342 83.473,43.58 83.633,43.141 83.773,42.679 83.783,42.212 83.783,41.668 83.723,41.091 83.463,40.612 83.153,40.026 82.653,39.485 82.043,39.208 81.413,38.919 80.653,38.933 79.973,39.041 79.443,39.124 78.963,39.394 78.493,39.654 78.063,39.891 77.663,40.173 77.303,40.508 76.983,40.82 76.453,41.569 76.453,41.569 76.453,41.569 75.913,39.978 75.273,39.527 74.773,39.176 74.053,39.047 73.463,39.208 72.073,39.586 71.043,40.868 70.163,42.013 69.253,43.206 68.233,46.088 68.233,46.088 Z"
     id="1995-movie-promo"
     inkscape:connector-curvature="0"
     sodipodi:nodetypes="ccccccccccccccccccccccccccccccccccccccccccccccccccccc" />
  <path
     id="1993-comics-sigil"
     d="M 68.223,55.747 C 68.223,55.747 67.753,50.847 66.753,48.637 65.243,45.287 63.793,40.217 60.143,39.807 59.323,39.717 58.653,40.687 58.263,41.407 57.723,42.427 57.863,44.837 57.863,44.837 57.863,44.837 56.583,42.637 55.843,41.597 55.393,40.957 54.873,40.367 54.353,39.777 53.783,39.127 53.313,38.337 52.573,37.897 51.993,37.557 51.233,37.097 50.633,37.387 50.273,37.567 50.223,38.097 50.143,38.497 50.053,38.937 50.103,39.407 50.163,39.857 50.223,40.437 50.383,41.017 50.543,41.577 50.693,42.127 51.103,43.187 51.103,43.187 48.963,41.707 42.283,35.397 39.993,30.177 38.543,26.867 37.403,22.797 38.683,19.417 39.503,17.237 41.753,15.667 43.903,14.777 46.923,13.527 49.563,13.717 53.703,14.207 53.703,14.207 51.113,14.637 50.163,15.457 49.663,15.887 49.283,16.547 49.243,17.197 49.193,18.057 49.673,18.917 50.183,19.617 51.063,20.827 52.403,21.657 53.683,22.447 55.273,23.427 57.013,24.187 58.793,24.737 60.763,25.347 64.873,25.847 64.873,25.847 64.873,25.847 65.033,23.237 65.123,21.927 65.263,19.807 65.553,15.567 65.553,15.567 65.553,15.567 65.793,19.227 66.713,20.727 67.043,21.257 67.533,21.917 68.163,21.927 68.873,21.937 69.483,21.227 69.863,20.627 70.803,19.147 70.983,15.507 70.983,15.507 70.983,15.507 71.353,19.787 71.493,21.927 71.583,23.247 71.703,25.877 71.703,25.877 71.703,25.877 76.253,25.297 78.403,24.557 80.443,23.857 82.453,22.937 84.163,21.627 85.343,20.727 86.613,19.707 87.143,18.317 87.373,17.727 87.353,17.017 87.143,16.427 86.943,15.867 86.503,15.357 85.993,15.047 84.963,14.417 82.453,14.267 82.453,14.267 86.573,13.897 90.193,13.487 93.533,15.077 95.463,15.997 97.263,17.717 97.923,19.757 98.993,23.007 98.043,26.807 96.683,29.937 94.373,35.237 88.313,41.267 85.513,43.207 85.663,42.687 85.813,42.167 85.963,41.647 86.123,41.107 86.373,40.587 86.443,40.027 86.503,39.537 86.483,39.037 86.403,38.547 86.333,38.127 86.423,37.517 86.043,37.337 85.463,37.067 84.823,37.747 84.273,38.077 83.583,38.487 82.983,39.037 82.413,39.617 81.793,40.237 81.283,40.957 80.773,41.657 80.093,42.567 78.863,44.477 78.863,44.477 78.863,44.477 78.893,42.257 78.353,41.347 77.933,40.657 77.223,39.757 76.413,39.867 72.773,40.377 71.343,45.367 69.813,48.717 68.803,50.897 68.223,55.747 68.223,55.747 Z"
     style="fill:#ff00ff;fill-opacity:1;stroke:#ff0008;stroke-width:0.10001;stroke-miterlimit:4;stroke-dasharray:none;stroke-opacity:1"
     inkscape:connector-curvature="0"
     sodipodi:nodetypes="ccccccccccccccccccccccccccccccccccccccccccccccccccccc" />
  <path
     style="fill:#ff00ff;fill-opacity:1;stroke:#ff0000;stroke-width:0.12593;stroke-miterlimit:4;stroke-dasharray:none;stroke-opacity:1"
     d="M 65.364,66.962 C 65.364,66.962 63.154,62.732 61.364,61.262 59.134,59.422 56.334,57.472 53.464,57.732 51.884,57.872 50.414,59.092 49.544,60.422 48.504,61.992 48.454,65.962 48.454,65.962 48.454,65.962 46.934,63.922 46.074,63.002 45.384,62.272 44.644,61.572 43.844,60.962 42.994,60.312 42.114,59.622 41.104,59.252 39.754,58.742 38.254,58.292 36.844,58.582 35.834,58.782 34.844,59.382 34.214,60.202 33.564,61.062 33.364,62.242 33.304,63.322 33.244,64.242 33.574,65.152 33.744,66.062 33.964,67.252 34.494,69.612 34.494,69.612 33.224,68.132 29.964,61.632 28.624,57.282 27.204,52.642 26.414,47.742 26.434,42.882 26.474,37.022 27.574,31.152 29.274,25.542 29.984,23.162 32.334,18.752 32.334,18.752 36.284,19.472 40.144,19.732 43.944,18.992 46.894,18.422 52.334,15.302 52.334,15.302 54.834,16.532 57.964,18.862 60.444,21.042 62.694,23.022 65.244,27.002 66.984,27.332 66.984,26.282 65.034,22.702 63.814,20.622 62.114,17.732 57.864,12.342 57.864,12.342 57.864,12.342 60.294,9.2419 61.284,7.5519 62.704,5.1319 64.854,0.59186 64.854,-0.08814 67.694,5.0719 64.364,6.4319 65.294,8.1519 70.574,9.5319 70.104,11.692 69.684,14.792 72.774,11.332 69.104,7.7219 69.104,7.7219 69.694,6.2319 70.344,4.1319 70.484,2.3719 72.544,3.7419 72.744,7.9819 71.434,10.682 72.794,11.442 67.064,22.552 68.084,23.542 70.584,25.212 73.314,26.372 77.144,26.152 73.754,27.432 70.734,27.612 67.574,27.612 72.384,29.112 81.034,27.952 86.764,24.942 90.404,23.032 94.254,19.082 94.894,15.482 96.774,19.062 95.474,23.582 93.504,26.022 96.644,23.552 97.554,19.922 97.034,15.922 98.924,19.042 100.89,22.372 101.28,27.332 102.53,25.472 102.66,23.282 102.75,21.072 105.97,27.082 109.1,35.822 109.82,43.692 110.59,52.172 109.61,61.022 106.74,69.062 106.74,69.062 106.16,66.522 105.76,65.282 105.22,63.602 104.6,61.942 103.83,60.362 103.22,59.122 102.62,57.832 101.71,56.792 100.67,55.602 99.474,54.442 98.004,53.862 97.114,53.512 96.074,53.462 95.124,53.622 94.414,53.742 93.764,54.122 93.154,54.512 92.234,55.102 91.384,55.822 90.694,56.672 89.934,57.602 88.914,59.812 88.914,59.812 88.914,59.812 84.944,56.612 82.554,55.902 80.304,55.242 77.764,55.052 75.524,55.732 72.704,56.572 70.184,58.512 68.294,60.752 66.814,62.502 65.364,66.962 65.364,66.962 Z"
     id="1993-cartoon-title"
     inkscape:connector-curvature="0"
     sodipodi:nodetypes="ccccccccccccccccccccccccccccccccccccccccccccccccccccc" />
  <path
     id="1992-movie-sigil"
     d="M 68.232,57.109 C 67.582,52.509 66.432,47.199 63.339,43.489 61.955,41.839 59.866,39.929 57.731,40.249 56.542,40.429 55.811,41.819 55.274,42.889 54.775,43.889 54.683,46.179 54.683,46.179 54.683,46.179 53.769,43.189 53.106,41.779 52.604,40.709 52.095,39.599 51.302,38.729 50.581,37.929 49.679,37.269 48.702,36.819 47.66,36.349 46.474,35.829 45.349,36.049 44.044,36.309 42.79,37.229 42.096,38.359 41.385,39.519 41.519,41.049 41.506,42.409 41.494,43.609 41.709,44.819 41.958,45.989 42.18,47.039 42.881,49.069 42.881,49.069 40.434,47.349 36.563,43.419 35.2,39.599 33.984,36.189 33.924,32.159 35.139,28.749 36.699,24.379 40.294,20.799 44.015,18.019 47.591,15.349 53.263,13.479 56.332,12.779 56.332,12.779 53.46,15.609 52.566,17.369 51.921,18.649 51.306,20.119 51.507,21.529 51.685,22.779 52.474,23.969 53.426,24.789 54.426,25.659 55.779,26.209 57.099,26.309 58.263,26.399 59.481,26.059 60.507,25.499 61.502,24.959 62.412,24.139 62.964,23.149 64.072,21.159 63.912,18.699 64.382,16.469 64.662,15.119 65.212,12.429 65.212,12.429 65.472,13.749 65.732,15.079 65.992,16.399 65.992,16.399 67.362,16.349 68.042,16.349 68.812,16.349 70.342,16.399 70.342,16.399 70.652,15.099 70.962,13.789 71.272,12.489 71.272,12.489 71.682,15.149 71.942,16.469 72.372,18.629 72.352,20.989 73.432,22.909 74.092,24.089 75.102,25.159 76.322,25.749 77.372,26.259 78.642,26.339 79.802,26.189 80.932,26.049 82.132,25.679 82.972,24.919 83.862,24.109 84.392,22.899 84.642,21.729 84.892,20.529 84.852,19.199 84.392,18.069 83.512,15.879 79.842,12.639 79.842,12.639 83.522,13.369 90.312,16.009 94.442,19.439 97.592,22.049 100.38,25.519 101.57,29.429 102.57,32.719 102.47,36.519 101.26,39.729 99.822,43.539 96.492,47.019 93.492,49.139 93.492,49.139 94.222,47.009 94.442,45.909 94.672,44.789 94.822,43.659 94.832,42.529 94.842,41.359 94.932,40.119 94.482,39.049 93.992,37.899 93.222,36.619 92.052,36.169 90.672,35.629 88.992,36.159 87.632,36.759 86.622,37.209 85.802,38.049 85.082,38.889 84.142,39.979 83.442,41.269 82.842,42.579 82.362,43.639 81.772,45.919 81.772,45.919 81.772,45.919 81.802,43.829 81.312,42.959 80.652,41.789 79.552,40.449 78.212,40.389 76.152,40.309 74.392,42.299 73.132,43.929 70.262,47.629 68.752,52.509 68.232,57.109 Z"
     style="fill:#ff00ff;fill-opacity:1;stroke:#ff0008;stroke-width:0.10001;stroke-miterlimit:4;stroke-dasharray:none;stroke-opacity:1"
     inkscape:connector-curvature="0"
     sodipodi:nodetypes="ccccccccccccccccccccccccccscccccccccccccccccccccccccc" />
  <path
     id="1989-movie-sigil"
     d="M 68.194,57.372 C 68.194,57.372 68.094,53.972 67.294,52.472 66.794,51.372 65.994,50.372 64.994,49.672 64.194,49.272 63.194,49.072 62.294,49.072 61.194,49.072 59.294,49.872 59.294,49.872 59.294,49.872 60.494,47.672 60.394,46.472 60.094,44.672 58.994,42.772 57.494,41.772 55.594,40.572 52.894,40.272 50.794,40.872 48.994,41.372 47.194,42.872 46.394,44.372 46.394,44.372 45.794,41.472 44.794,40.572 43.394,39.472 41.364,38.742 39.694,39.272 38.064,39.792 36.534,41.472 36.354,43.172 36.024,46.382 40.994,51.672 40.994,51.672 37.194,49.672 32.994,45.272 31.294,40.672 30.094,37.472 30.194,33.572 31.394,30.372 32.494,27.172 34.294,25.672 37.794,22.472 41.994,18.672 50.494,15.672 53.794,14.972 51.894,16.172 50.094,17.372 49.294,19.172 48.494,20.572 48.194,22.472 48.694,23.972 49.194,25.372 50.594,26.172 51.794,26.872 52.894,27.572 54.294,27.972 55.594,28.072 56.894,28.272 58.294,28.272 59.394,27.672 60.894,26.972 62.494,25.572 62.694,23.972 62.694,23.972 63.054,20.442 63.194,18.672 63.364,16.512 63.594,12.172 63.594,12.172 64.094,14.072 64.594,15.972 65.094,17.872 65.094,17.872 67.094,16.972 68.194,16.972 69.294,16.972 71.294,17.872 71.294,17.872 71.824,15.972 72.364,14.072 72.894,12.172 72.894,12.172 73.124,16.642 73.294,18.872 73.404,20.372 73.694,23.372 73.694,23.372 73.794,25.072 74.794,26.072 75.894,26.872 76.894,27.672 78.194,28.072 79.394,28.172 81.094,28.272 82.694,27.772 84.194,27.072 85.394,26.472 86.794,25.772 87.394,24.572 88.094,23.172 88.194,21.372 87.594,19.972 86.794,17.772 85.494,16.172 82.794,14.872 88.294,16.272 95.894,19.672 100.79,24.272 103.09,26.472 104.79,29.472 105.59,32.572 106.29,35.472 106.29,38.772 105.09,41.572 103.19,45.872 98.794,49.572 95.494,51.672 95.494,51.672 100.19,46.772 100.19,43.672 100.19,42.072 99.094,40.272 97.694,39.572 96.194,38.772 93.994,38.972 92.594,39.872 91.094,40.772 90.094,43.272 90.094,44.472 89.294,43.272 87.394,41.472 85.594,40.972 83.694,40.372 81.394,40.472 79.594,41.372 78.094,42.072 76.794,43.672 76.394,45.272 75.994,46.572 76.194,48.672 77.494,50.072 77.494,50.072 75.194,49.072 73.994,49.072 72.994,49.072 71.894,49.372 71.094,49.972 70.194,50.572 69.594,51.672 69.194,52.672 68.494,54.072 68.194,57.372 68.194,57.372 Z"
     style="fill:#ff00ff;fill-opacity:1;stroke:#fa0000;stroke-width:0.1;stroke-miterlimit:4;stroke-dasharray:none;stroke-opacity:1"
     inkscape:connector-curvature="0"
     sodipodi:nodetypes="cccsccccccccccccccccccccccscccccccsccccccscccccccsccc" />
  <path
     id="1989-movie-logo"
     d="M 68.3,55.346 C 68.3,55.346 65.72,50.206 63.63,48.316 62.1,46.936 60.21,45.526 58.15,45.436 56.9,45.376 55.65,46.086 54.68,46.886 54.1,47.376 53.43,48.816 53.43,48.816 53.43,48.816 51.45,47.116 50.32,46.496 49.45,46.006 48.5,45.626 47.53,45.416 46.6,45.216 45.61,45.096 44.67,45.256 43.63,45.426 42.53,45.746 41.74,46.446 41.18,46.946 40.82,47.686 40.65,48.416 40.47,49.136 40.57,49.906 40.72,50.626 40.89,51.456 41.23,52.266 41.64,53.006 42.05,53.716 43.14,54.956 43.14,54.956 37.83,52.986 32.04,50.106 28.42,45.546 26.17,42.706 24.39,38.906 24.81,35.306 25.32,30.806 28.68,26.816 32.1,23.846 37,19.606 47.45,16.526 49.83,15.856 49.83,15.856 47.37,17.986 46.92,19.466 46.61,20.456 46.81,21.596 47.17,22.566 47.61,23.776 48.43,24.876 49.42,25.706 50.55,26.656 51.99,27.236 53.42,27.616 54.98,28.026 56.71,28.406 58.26,27.946 59.49,27.576 61.23,26.856 61.33,25.636 61.33,25.636 62.01,20.776 62.38,18.356 62.59,16.966 63.05,14.206 63.05,14.206 64.06,15.616 65.22,17.026 65.87,18.436 65.87,18.436 67.49,18.416 68.3,18.416 69.08,18.416 70.64,18.436 70.64,18.436 71.56,17.056 72.47,15.666 73.39,14.286 73.39,14.286 73.83,17.246 74.08,18.726 74.48,21.186 75.36,26.106 75.36,26.106 75.44,26.866 76.87,27.506 77.83,27.796 79.38,28.256 81.09,28.046 82.67,27.686 84.25,27.336 85.87,26.746 87.11,25.706 88.2,24.796 89.16,23.566 89.51,22.196 89.76,21.236 89.61,20.166 89.24,19.246 88.71,17.896 86.58,15.806 86.58,15.806 89.45,16.386 100.46,20.056 105.61,24.816 108.62,27.586 111.38,31.376 111.73,35.456 112.03,39.056 110.22,42.796 107.96,45.616 104.39,50.056 97.67,53.166 93.55,54.836 93.55,54.836 94.23,54.026 94.51,53.586 94.96,52.906 95.47,52.226 95.67,51.436 95.91,50.486 95.9,49.446 95.67,48.496 95.47,47.696 95.15,46.836 94.52,46.296 93.73,45.626 92.61,45.426 91.58,45.326 90.43,45.226 89.27,45.486 88.16,45.786 87.25,46.026 86.36,46.366 85.56,46.856 84.73,47.366 83.32,48.736 83.32,48.736 83.32,48.736 82.31,46.966 81.47,46.456 80.25,45.716 78.68,45.306 77.28,45.586 75.43,45.956 73.93,47.416 72.61,48.766 70.77,50.636 68.3,55.346 68.3,55.346 Z"
     style="fill:#ff00ff;fill-opacity:1;stroke:#ff0000;stroke-width:0.1;stroke-miterlimit:4;stroke-dasharray:none;stroke-opacity:1"
     inkscape:connector-curvature="0"
     sodipodi:nodetypes="ccccccccccccccccccccccccccscccccccccccccccccccccccscc" />
  <path
     id="1987-comics-sigil"
     d="M 68.222,53.364 C 67.132,52.104 61.622,47.664 57.632,46.125 55.882,45.455 53.862,44.825 52.072,45.365 51.532,45.525 50.952,45.935 50.812,46.474 50.622,47.224 51.592,48.634 51.592,48.634 51.102,48.884 50.412,47.694 49.772,47.284 49.232,46.944 48.652,46.674 48.082,46.374 47.572,46.115 47.102,45.725 46.542,45.595 45.872,45.435 44.972,45.105 44.492,45.585 43.902,46.175 44.312,47.284 44.522,48.094 44.762,48.964 45.362,49.704 45.852,50.474 46.312,51.184 46.832,51.854 47.372,52.524 47.692,52.924 48.382,53.684 48.382,53.684 45.992,52.884 40.972,49.754 38.542,46.504 35.992,43.085 33.992,38.705 34.262,34.455 34.552,29.905 37.292,25.555 40.432,22.255 43.702,18.815 49.832,16.105 52.802,15.225 52.802,15.225 51.352,16.645 50.682,17.405 50.142,18.025 49.632,18.655 49.172,19.335 48.782,19.915 48.412,20.755 48.052,21.595 49.192,21.845 50.922,22.255 52.232,22.475 54.052,22.785 55.892,23.025 57.732,23.215 59.272,23.375 60.872,23.555 62.432,23.555 62.432,22.745 62.822,21.095 63.282,19.995 63.892,18.525 64.692,17.165 65.702,15.865 65.652,17.185 65.412,18.615 65.802,19.935 65.802,19.935 67.332,18.805 68.222,18.795 69.172,18.785 70.822,19.985 70.822,19.985 70.952,18.605 70.942,17.155 70.762,15.775 71.452,16.775 72.732,18.785 73.372,20.455 73.742,21.415 73.902,22.625 73.902,23.765 75.132,23.625 77.152,23.465 78.732,23.285 80.452,23.095 82.182,22.965 83.892,22.675 85.382,22.425 87.002,22.025 88.482,21.665 88.482,21.665 87.842,20.205 87.422,19.535 86.942,18.775 86.372,18.085 85.782,17.405 85.122,16.635 83.662,15.225 83.662,15.225 88.582,16.745 93.452,19.335 96.912,23.145 99.702,26.215 102,30.245 102.25,34.385 102.49,38.475 100.72,42.715 98.322,46.035 95.642,49.744 87.362,54.314 87.362,54.314 87.362,54.314 88.512,53.154 89.032,52.534 89.602,51.874 90.152,51.204 90.622,50.474 91.072,49.774 91.532,49.064 91.762,48.264 91.992,47.484 92.452,46.504 91.982,45.835 91.712,45.445 91.092,45.445 90.622,45.465 89.782,45.505 89.002,45.965 88.262,46.354 87.702,46.654 87.202,47.074 86.702,47.464 86.022,47.994 84.752,49.134 84.752,49.134 84.752,49.134 85.382,47.894 85.452,47.214 85.502,46.674 85.612,45.935 85.182,45.595 83.732,44.455 81.422,45.425 79.672,46.015 75.372,47.454 69.412,52.074 68.222,53.364 Z"
     style="fill:#ff00ff;fill-opacity:1;stroke:#ff0008;stroke-width:0.10001;stroke-miterlimit:4;stroke-dasharray:none;stroke-opacity:1"
     inkscape:connector-curvature="0"
     sodipodi:nodetypes="ccccccccscccccccccccccccccccccccccccccccccccccccccccc" />
  <path
     id="1986-novel-sigil-1"
     d="M 68.198,51.599 C 68.198,51.599 66.208,47.829 64.468,46.769 63.498,46.179 62.168,45.709 61.128,46.159 60.298,46.519 59.878,47.569 59.658,48.459 59.388,49.539 60.208,51.329 59.948,51.789 59.948,51.789 58.398,50.499 57.538,49.979 56.818,49.529 56.058,49.099 55.248,48.829 54.458,48.569 53.618,48.399 52.788,48.409 52.088,48.409 51.328,48.439 50.718,48.789 50.178,49.099 49.708,49.609 49.498,50.199 49.378,50.529 49.478,50.899 49.538,51.249 49.598,51.659 49.708,52.079 49.888,52.459 50.078,52.889 50.638,53.649 50.638,53.649 46.288,51.339 43.018,48.099 40.688,44.149 38.918,41.149 37.988,37.519 38.028,34.029 38.068,30.609 39.118,27.109 40.858,24.159 42.878,20.759 46.678,17.339 49.288,15.789 49.288,15.789 49.318,16.709 49.448,17.149 49.648,17.829 49.978,18.469 50.398,19.039 50.918,19.739 51.588,20.309 52.288,20.829 52.888,21.279 53.558,21.639 54.238,21.949 55.088,22.329 55.978,22.639 56.888,22.829 57.968,23.059 58.788,23.139 60.198,23.139 60.438,21.829 60.748,20.709 61.268,19.589 61.908,18.229 63.748,15.839 63.748,15.839 63.848,16.889 63.658,18.379 63.758,19.429 63.758,19.429 66.728,19.249 68.208,19.259 69.688,19.269 72.628,19.479 72.628,19.479 72.728,18.409 72.568,16.999 72.668,15.929 72.668,15.929 74.558,18.369 75.188,19.759 75.668,20.829 75.868,21.899 76.118,23.149 77.348,23.059 78.328,23.089 79.408,22.879 80.238,22.719 81.048,22.429 81.838,22.109 82.528,21.829 83.218,21.519 83.838,21.099 84.478,20.669 85.078,20.159 85.578,19.579 86.048,19.029 86.468,18.419 86.738,17.749 86.998,17.109 87.178,15.729 87.178,15.729 89.208,17.029 93.088,20.359 95.048,23.469 96.918,26.429 98.388,29.889 98.478,33.389 98.578,37.579 97.198,41.909 94.968,45.449 92.758,48.959 89.418,51.689 85.698,53.759 85.698,53.759 86.088,53.089 86.248,52.729 86.418,52.339 86.618,51.949 86.688,51.529 86.768,51.049 86.818,50.539 86.638,50.089 86.418,49.549 85.978,49.069 85.468,48.789 84.808,48.419 83.988,48.399 83.238,48.409 82.488,48.419 81.748,48.609 81.048,48.859 80.238,49.139 79.478,49.549 78.758,50.019 77.828,50.629 76.178,52.159 76.178,52.159 76.178,52.159 76.718,49.739 76.488,48.549 76.318,47.689 76.068,46.579 75.268,46.209 74.048,45.649 72.458,46.389 71.338,47.139 69.828,48.159 68.198,51.599 68.198,51.599 Z"
     style="fill:#ff00ff;fill-opacity:1;stroke:#ff0000;stroke-width:0.10001;stroke-miterlimit:4;stroke-dasharray:none;stroke-opacity:1"
     inkscape:connector-curvature="0"
     sodipodi:nodetypes="ccccccccccccccccccccccccccscccccccccccccccsccsccccccc" />
  <path
     id="1970-comics-sigil"
     d="M 68.269,56.191 C 68.269,56.191 66.469,48.081 63.899,45.032 62.579,43.462 60.659,41.482 58.649,41.842 57.529,42.042 56.969,43.472 56.509,44.512 55.999,45.692 55.909,48.311 55.909,48.311 55.909,48.311 54.199,45.162 53.099,43.742 52.139,42.502 51.039,41.352 49.829,40.352 49.109,39.752 48.389,39.092 47.499,38.812 46.279,38.442 44.759,38.052 43.679,38.722 42.659,39.352 42.379,40.792 42.169,41.972 41.919,43.332 42.149,44.782 42.509,46.112 42.929,47.631 43.779,49.001 44.579,50.351 45.239,51.461 46.829,53.521 46.829,53.521 44.269,52.151 38.659,47.991 36.469,43.782 34.639,40.262 33.789,35.852 34.759,32.002 35.909,27.482 39.439,23.662 43.089,20.772 47.469,17.302 52.899,15.162 58.459,14.122 58.459,14.122 55.239,16.182 54.019,17.622 52.979,18.842 51.919,20.242 51.689,21.832 51.499,23.172 51.759,24.712 52.569,25.792 53.549,27.092 55.239,27.882 56.849,28.142 58.369,28.392 60.079,28.132 61.389,27.332 62.409,26.712 63.069,25.582 63.549,24.492 64.369,22.622 64.439,20.492 64.599,18.452 64.739,16.762 64.539,13.352 64.539,13.352 65.119,14.772 65.709,16.462 66.289,17.882 66.289,17.882 67.609,17.852 68.269,17.862 68.959,17.872 70.339,17.922 70.339,17.922 70.799,16.442 71.419,14.832 71.879,13.352 71.879,13.352 71.889,16.962 72.059,18.752 72.249,20.612 72.279,22.562 72.979,24.302 73.459,25.472 74.079,26.742 75.159,27.402 76.519,28.232 78.309,28.282 79.879,28.042 81.229,27.832 82.649,27.292 83.579,26.292 84.509,25.302 85.129,23.852 85.049,22.502 84.929,20.642 83.579,19.012 82.379,17.582 81.079,16.042 77.639,13.842 77.639,13.842 77.639,13.842 88.499,16.622 92.779,19.992 96.869,23.222 100.76,27.632 101.86,32.722 102.76,36.862 101.53,41.522 99.409,45.182 97.239,48.941 89.589,53.721 89.589,53.721 89.589,53.721 91.459,51.291 92.229,49.971 92.839,48.951 93.439,47.891 93.779,46.751 94.229,45.292 94.629,43.732 94.429,42.222 94.279,41.012 94.059,39.472 93.009,38.832 91.779,38.082 90.069,38.702 88.699,39.162 87.509,39.562 86.459,40.372 85.539,41.232 84.599,42.082 83.929,43.182 83.189,44.212 82.299,45.452 80.669,48.041 80.669,48.041 80.669,48.041 80.629,45.212 79.969,44.012 79.429,43.042 78.599,41.852 77.489,41.792 75.389,41.662 73.609,43.752 72.329,45.412 69.969,48.451 68.269,56.191 68.269,56.191 Z"
     style="fill:#ff00ff;fill-opacity:1;stroke:#ff0000;stroke-width:0.10001;stroke-miterlimit:4;stroke-dasharray:none;stroke-opacity:1"
     inkscape:connector-curvature="0"
     sodipodi:nodetypes="ccccccccccccccccccccccccccccccccccccccccccccccccccccc" />
  <path
     id="1966-tv-sigil"
     d="M 68.036,52.843 C 67.646,49.913 66.346,47.023 64.336,44.913 62.886,43.403 60.856,42.303 58.786,42.003 57.276,41.793 55.706,42.313 54.316,42.923 53.346,43.353 51.756,44.783 51.756,44.783 51.756,44.783 50.886,42.503 50.186,41.523 49.626,40.733 48.926,40.053 48.156,39.473 47.476,38.963 46.726,38.523 45.926,38.233 45.106,37.933 44.236,37.693 43.356,37.723 42.516,37.753 41.656,38.003 40.906,38.403 40.276,38.753 39.686,39.233 39.266,39.833 38.846,40.423 38.686,41.173 38.486,41.873 38.296,42.543 38.086,43.923 38.086,43.923 38.086,43.923 35.316,39.693 34.736,37.283 34.116,34.733 34.106,31.973 34.676,29.413 35.206,27.093 36.366,24.893 37.786,22.983 39.466,20.713 44.016,17.223 44.016,17.223 44.016,17.223 44.946,19.213 45.626,20.063 46.356,20.983 47.256,21.783 48.236,22.433 49.046,22.973 49.936,23.443 50.886,23.663 52.016,23.943 53.216,23.923 54.366,23.783 55.326,23.673 56.266,23.393 57.146,23.003 57.946,22.653 58.716,22.213 59.366,21.643 60.016,21.073 60.526,20.353 60.996,19.633 61.556,18.793 62.406,16.953 62.406,16.953 62.406,16.953 64.156,18.953 65.306,19.543 66.176,19.983 67.176,20.163 68.146,20.173 69.106,20.183 70.126,20.073 70.986,19.633 72.206,19.003 73.966,16.783 73.966,16.783 73.966,16.783 74.686,18.893 75.296,19.813 75.686,20.413 76.206,20.923 76.746,21.383 77.476,22.013 78.266,22.593 79.146,23.003 80.206,23.493 81.366,23.903 82.536,23.963 83.806,24.033 85.086,23.723 86.286,23.323 87.316,22.973 88.336,22.503 89.196,21.823 89.926,21.253 90.496,20.483 91.006,19.713 91.486,18.993 92.186,17.403 92.186,17.403 92.186,17.403 96.606,20.533 98.246,22.633 99.936,24.783 101.39,27.273 101.96,29.943 102.5,32.483 102.26,35.213 101.56,37.713 100.94,39.913 98.296,43.743 98.296,43.743 98.296,43.743 98.076,42.563 97.886,41.993 97.616,41.183 97.366,40.333 96.846,39.653 96.366,39.023 95.736,38.473 95.016,38.143 94.196,37.763 93.246,37.603 92.356,37.683 91.286,37.783 90.276,38.263 89.346,38.793 88.426,39.323 87.596,40.023 86.876,40.813 86.356,41.373 85.956,42.053 85.566,42.713 85.176,43.373 84.526,44.783 84.526,44.783 84.526,44.783 82.806,43.063 81.706,42.643 80.136,42.043 78.326,41.913 76.676,42.233 75.156,42.533 73.636,43.233 72.526,44.313 70.226,46.563 68.756,49.793 68.036,52.843 Z"
     style="fill:#ff00ff;fill-opacity:1;stroke:#ff0000;stroke-width:0.10001;stroke-miterlimit:4;stroke-dasharray:none;stroke-opacity:1"
     inkscape:connector-curvature="0"
     sodipodi:nodetypes="ccccccccccccccccccccccsccccccccccccccccccscccccsccccc" />
  <path
     id="2014-75anniv-logo"
     d="M 69.537,56.413 C 68.847,54.663 67.327,52.273 65.677,50.663 63.427,48.473 60.667,46.703 57.727,45.603 55.047,44.603 52.087,44.053 49.237,44.353 46.907,44.583 44.587,45.313 42.647,46.753 42.647,46.753 42.727,44.993 42.437,44.173 42.087,43.173 41.397,42.293 40.657,41.533 39.757,40.613 38.657,39.883 37.517,39.293 36.227,38.633 34.807,38.223 33.407,37.873 32.097,37.543 30.767,37.343 29.427,37.253 27.947,37.153 26.457,37.183 24.987,37.363 23.547,37.523 22.107,37.813 20.717,38.263 19.617,38.613 17.547,39.683 17.547,39.683 17.547,39.683 19.317,33.753 20.777,31.053 22.247,28.343 24.087,25.783 26.267,23.583 29.097,20.733 32.367,18.233 35.937,16.373 38.997,14.773 44.307,13.293 45.777,13.103 45.777,13.103 43.117,15.403 42.397,16.943 41.907,17.973 41.667,19.193 41.867,20.313 42.107,21.633 42.907,22.843 43.827,23.823 45.267,25.333 47.197,26.343 49.117,27.153 51.387,28.123 53.867,28.613 56.317,28.913 58.627,29.193 63.307,28.943 63.307,28.943 63.307,28.943 63.877,26.043 64.167,24.593 64.557,22.653 65.357,18.763 65.357,18.763 65.867,20.583 66.717,22.733 67.227,24.553 67.227,24.553 68.697,24.533 69.427,24.533 70.227,24.533 71.837,24.543 71.837,24.543 72.297,22.793 72.947,20.563 73.637,18.913 73.637,18.913 74.397,22.643 74.777,24.503 75.077,25.993 75.677,28.963 75.677,28.963 75.677,28.963 79.367,29.193 81.207,29.033 83.537,28.823 85.867,28.413 88.107,27.713 89.867,27.163 91.657,26.553 93.157,25.493 94.557,24.503 95.997,23.313 96.667,21.733 97.227,20.413 97.337,18.793 96.877,17.433 96.267,15.643 93.197,13.113 93.197,13.113 106.69,16.053 114.83,23.683 118.97,32.683 114.46,32.683 109.96,32.683 105.45,32.683 105.09,35.973 104.72,39.253 104.36,42.543 105.4,43.523 106.43,44.513 107.47,45.493 111.16,44.673 113.44,45.133 114.83,47.243 115.77,48.663 115.25,51.163 113.96,52.273 111.52,54.363 107.36,53.713 104.32,52.443 103.58,53.773 102.85,55.103 102.11,56.433 98.997,56.423 95.887,56.423 92.777,56.413 96.577,49.663 100.37,42.913 104.17,36.163 104.25,35.013 104.34,33.863 104.42,32.713 98.117,32.683 91.807,32.703 85.507,32.673 85.367,34.203 85.307,35.783 85.087,37.313 89.177,37.303 93.277,37.303 97.367,37.293 93.777,43.683 90.177,50.063 86.587,56.453 80.907,56.443 75.217,56.423 69.537,56.413 Z"
     style="fill:#ff00ff;fill-opacity:1;stroke:#ff0000;stroke-width:0.10001;stroke-miterlimit:4;stroke-dasharray:none;stroke-opacity:1"
     inkscape:connector-curvature="0"
     sodipodi:nodetypes="ccccccccccccccccccccccccccscccccscccccccccccccccccccc" />
  <path
     style="fill:none;fill-opacity:1;stroke:#ff0008;stroke-width:0.10798;stroke-miterlimit:4;stroke-dasharray:none;stroke-opacity:1"
     d="M 68.26,55.96 C 67.52,55.09 65.08,52.86 63.168,51.8 61.573,50.91 59.804,50.22 57.989,50.03 56.539,49.88 55.001,50.03 53.65,50.57 52.815,50.91 51.985,51.39 51.49,52.2 50.876,51.26 50.236,51.07 49.498,50.68 48.674,50.25 47.772,49.88 46.844,49.8 44.839,49.62 42.751,49.95 40.866,50.66 39.693,51.1 37.711,52.7 37.711,52.7 35.962,51.8 34.64,51.64 33.068,51.77 30.771,51.98 28.624,53.14 26.625,54.29 24.363,55.59 22.369,57.34 20.493,59.15 19.063,60.53 16.629,63.69 16.629,63.69 16.776,57.23 17.49,51.29 19.142,45.64 20.994,39.32 23.929,33.29 27.388,27.68 29.943,23.53 33.091,19.73 36.514,16.27 40.282,12.46 47.512,7.1799 48.952,6.0699 48.952,6.0699 47.335,7.9199 47.127,9.0699 46.974,9.9199 47.223,10.84 47.616,11.61 48.002,12.37 48.698,12.94 49.36,13.47 50.199,14.15 51.162,14.66 52.133,15.12 53.817,15.92 55.579,16.59 57.386,17.05 58.907,17.44 62.043,17.75 62.043,17.75 62.064,17.03 62.028,14.81 62.026,13.34 62.023,10.88 62.038,5.9699 62.038,5.9699 62.442,7.1199 63.67,11.99 63.99,13.08 63.99,13.08 66.92,11.83 68.48,11.75 69.79,11.68 72.36,12.48 72.36,12.48 72.91,11.32 74.84,6.8399 75.27,5.6999 75.24,8.2099 74.88,9.8899 74.7,11.99 74.54,13.89 74.24,17.7 74.24,17.7 74.24,17.7 75.47,17.61 76.07,17.51 77.9,17.21 79.75,16.89 81.5,16.3 83.04,15.78 84.58,15.18 85.93,14.28 87.07,13.52 88.36,12.72 88.94,11.49 89.41,10.49 89.46,9.2299 89.13,8.1799 88.82,7.2199 87.25,5.8099 87.25,5.8099 91.66,8.6799 96.05,12.23 99.89,16.05 102.66,18.8 105.11,21.86 107.3,25.08 110.11,29.2 112.85,33.47 114.59,38.14 117.61,46.23 119.48,50.72 119.88,63.5 119.88,63.5 117.77,60.78 116.54,59.58 114.6,57.69 112.6,55.78 110.23,54.46 107.71,53.06 104.93,51.62 102.05,51.64 100.91,51.64 99.62,52.32 98.85,52.77 97.34,51.64 95.9,50.72 94.22,50.17 92.98,49.77 91.63,49.61 90.34,49.71 89.2,49.8 88.05,50.1 87.04,50.62 86.32,50.99 85.95,51.34 85.17,52.13 84.18,50.88 82.5,50.32 80.96,50.02 79.55,49.75 78.06,50.01 76.67,50.38 74.99,50.83 73.4,51.63 71.95,52.6 70.57,53.52 68.68,55.41 68.26,55.96 Z"
     id="1960-comics-title"
     inkscape:connector-curvature="0"
     sodipodi:nodetypes="cccccccccccccccccccccccccccccccccsccccccccccccccccccc" />
  <path
     id="1957-comics-title"
     d="M 67.522,53.957 C 66.733,52.497 64.967,50.817 63.267,49.777 61.057,48.417 58.518,47.477 55.948,47.147 52.553,46.697 48.964,46.937 45.712,48.007 43.339,48.787 41.074,49.977 39.333,51.947 39.333,51.947 37.656,50.507 36.711,49.947 35.912,49.477 35.034,49.137 34.165,48.807 33.459,48.537 32.74,48.297 32.005,48.127 30.723,47.817 29.418,47.557 28.102,47.487 26.982,47.417 25.856,47.537 24.739,47.647 23.797,47.737 22.856,47.857 21.932,48.067 20.88,48.307 19.838,48.607 18.833,48.997 18.067,49.297 16.614,50.077 16.614,50.077 16.614,50.077 20.244,43.647 22.444,40.697 24.655,37.727 27.079,34.887 29.803,32.387 32.751,29.667 36.021,27.297 39.435,25.197 41.947,23.657 47.358,21.277 47.358,21.277 48.933,22.637 51.088,23.407 53.142,23.937 55.622,24.587 60.807,24.547 60.807,24.547 60.807,24.547 57.531,25.607 56.048,26.457 54.889,27.117 52.88,28.907 52.88,28.907 54.531,27.837 55.793,27.157 57.381,26.577 58.544,26.157 61.004,25.777 61.004,25.777 60.563,22.837 59.373,19.077 61.129,17.107 61.124,16.587 61.119,16.067 61.114,15.547 61.583,15.637 62.052,15.737 62.521,15.827 61.549,17.057 60.793,18.507 60.731,19.737 61.564,18.997 62.293,18.607 63.212,18.447 64.22,18.277 65.499,18.177 66.249,18.877 68.03,20.527 67.813,25.997 67.813,25.997 63.887,28.167 52.679,32.737 44.463,38.037 44.463,38.037 69.228,24.987 71.343,26.717 72.667,27.797 66.112,30.657 65.893,31.677 76.727,25.777 72.022,31.697 66.235,36.487 69.392,34.107 77.347,29.177 72.107,25.837 72.359,25.507 72.611,25.167 72.863,24.837 76.355,25.107 84.513,21.967 87.387,18.807 91.318,20.437 94.591,21.847 97.92,23.877 100.96,25.727 103.88,27.847 106.46,30.297 109.71,33.397 112.65,36.877 115.09,40.657 117.09,43.757 119.92,50.617 119.92,50.617 119.92,50.617 117.74,49.147 116.56,48.587 115.51,48.087 114.41,47.707 113.29,47.417 112.07,47.097 110.81,46.897 109.56,46.787 108.44,46.697 107.32,46.677 106.21,46.757 104.94,46.837 103.68,46.997 102.44,47.307 101.41,47.557 100.41,47.917 99.44,48.347 98.458,48.787 97.509,49.307 96.614,49.897 95.686,50.517 93.997,51.987 93.997,51.987 92.755,50.827 90.46,49.647 88.466,48.997 86.01,48.207 83.364,47.847 80.785,47.987 78.034,48.137 75.242,48.757 72.757,49.947 70.776,50.897 68.965,52.157 67.522,53.957 Z"
     style="fill:#ff00ff;fill-opacity:1;stroke:#ff0008;stroke-width:0.10341;stroke-miterlimit:4;stroke-dasharray:none;stroke-opacity:1"
     inkscape:connector-curvature="0"
     sodipodi:nodetypes="ccccccccccccccccccccccccccccccccccccccccccccccccccccc" />
  <path
     style="fill:#ff00ff;fill-opacity:1;stroke:#ff0000;stroke-width:0.09052;stroke-miterlimit:4;stroke-dasharray:none;stroke-opacity:1"
     d="M 68.227,53.361 C 68.227,53.361 65.917,48.441 64.257,46.321 62.447,44.001 60.547,41.411 57.847,40.261 55.677,39.331 53.127,39.591 50.787,39.891 48.787,40.141 45.027,41.721 45.027,41.721 44.327,38.401 43.827,35.331 41.807,33.151 40.967,32.251 40.587,32.211 39.857,32.011 39.017,31.771 38.107,31.841 37.237,31.961 35.447,32.201 33.207,33.081 32.037,33.491 32.037,33.491 31.547,30.981 31.007,29.841 30.347,28.461 29.487,27.141 28.377,26.091 27.577,25.341 26.587,24.771 25.577,24.341 24.707,23.971 22.807,23.651 22.807,23.651 22.807,23.651 24.947,22.371 26.057,21.801 27.687,20.961 29.377,20.231 31.047,19.491 32.107,19.021 33.147,18.551 34.227,18.141 36.127,17.421 40.007,16.201 40.007,16.201 40.007,16.201 42.097,17.691 43.167,18.401 44.237,19.111 45.297,19.831 46.417,20.461 47.547,21.091 48.717,21.651 49.897,22.171 51.077,22.691 52.267,23.161 53.487,23.591 54.787,24.041 56.107,24.491 57.457,24.811 58.657,25.101 61.107,25.431 61.107,25.431 62.737,24.641 65.137,22.231 65.857,20.111 65.207,19.171 64.347,18.231 64.517,17.321 64.517,17.321 65.897,17.381 66.467,17.711 67.287,18.191 68.317,19.871 68.317,19.871 68.317,19.871 69.157,18.371 69.847,17.921 70.497,17.501 72.107,17.361 72.107,17.361 72.107,17.361 72.167,18.991 70.757,20.051 71.607,22.181 73.317,24.221 75.537,25.481 75.537,25.481 77.757,25.141 78.857,24.871 80.107,24.571 81.337,24.131 82.567,23.731 83.707,23.351 84.867,23.011 85.967,22.541 87.337,21.971 88.657,21.301 89.967,20.591 91.247,19.891 92.517,19.161 93.727,18.331 94.717,17.651 96.577,16.121 96.577,16.121 96.577,16.121 98.957,16.941 100.14,17.371 102.46,18.221 104.8,19.031 107.05,20.011 108.49,20.641 109.89,21.321 111.25,22.101 112.1,22.591 113.72,23.711 113.72,23.711 113.72,23.711 111.67,24.091 110.73,24.531 109.61,25.061 108.52,25.751 107.68,26.661 106.64,27.781 105.92,29.191 105.35,30.611 104.98,31.531 104.67,33.531 104.67,33.531 104.67,33.531 100.65,31.881 98.527,31.781 97.797,31.741 97.027,31.861 96.367,32.171 95.497,32.581 94.697,33.241 94.167,34.041 92.677,36.281 91.677,40.461 91.697,41.731 91.697,41.731 87.927,40.101 85.917,39.851 83.507,39.561 80.887,39.401 78.667,40.371 75.967,41.571 74.077,44.161 72.247,46.481 70.597,48.561 68.227,53.361 68.227,53.361 Z"
     id="1949-movie-sigil"
     inkscape:connector-curvature="0"
     sodipodi:nodetypes="cccccccccccccccccscsccccccccccccccccccccccccccccccccc" />
  <path
     id="1940-comics-title"
     d="M 70.637,58.203 C 70.637,58.203 69.577,55.813 68.727,54.843 67.397,53.333 65.777,51.913 63.887,51.213 61.177,50.203 58.037,49.943 55.227,50.603 52.727,51.203 50.057,53.003 48.617,54.543 48.087,53.183 46.967,51.733 45.697,50.773 44.237,49.663 42.427,48.843 40.597,48.713 38.737,48.583 36.727,49.043 35.167,50.073 33.997,50.843 32.987,52.143 32.617,53.403 31.677,52.433 30.997,51.243 29.857,50.603 28.587,49.903 27.057,49.673 25.607,49.653 24.327,49.633 22.977,49.813 21.837,50.383 20.317,51.133 18.037,53.753 18.037,53.753 18.037,53.753 21.847,44.764 24.197,40.504 26.097,37.074 28.267,33.794 30.587,30.634 32.887,27.504 35.387,24.514 38.027,21.674 41.257,18.194 46.827,12.904 48.267,11.794 48.267,11.794 50.017,13.154 50.917,13.794 51.647,14.314 52.397,14.824 53.157,15.304 53.977,15.824 54.807,16.314 55.657,16.794 56.607,17.334 57.557,17.864 58.537,18.334 59.537,18.814 60.577,19.224 61.597,19.664 62.387,20.004 63.957,20.684 63.957,20.684 64.107,20.004 63.857,18.474 64.037,17.394 64.297,15.864 64.687,12.014 64.687,12.014 65.177,13.074 65.477,15.414 65.967,16.484 66.437,21.554 68.567,19.174 70.247,19.164 71.907,19.154 73.827,22.294 74.427,16.464 74.977,15.304 76.207,13.614 76.637,12.474 76.967,14.964 76.807,15.814 76.717,17.474 76.667,18.334 76.387,20.024 76.387,20.024 76.387,20.024 77.927,19.554 78.677,19.284 79.667,18.924 80.637,18.524 81.597,18.094 82.507,17.684 83.387,17.234 84.277,16.784 85.337,16.244 86.387,15.704 87.427,15.124 88.317,14.634 89.197,14.134 90.047,13.584 91.147,12.864 93.267,11.304 93.267,11.304 96.907,14.354 98.827,16.214 101.34,18.944 103.86,21.684 106.24,24.584 108.33,27.674 110.43,30.774 112.3,34.034 113.86,37.434 115.75,41.534 117.88,47.443 118.45,50.183 118.45,50.183 117.26,49.573 116.62,49.373 116.14,49.213 115.63,49.113 115.12,49.063 114.59,49.013 114.06,49.003 113.54,49.093 112.74,49.223 111.99,49.373 111.22,49.823 109.54,49.193 109.2,48.993 108.13,48.823 106.1,48.513 103.97,48.433 101.97,48.873 100.1,49.273 98.307,50.133 96.727,51.213 95.387,52.113 94.167,53.363 93.257,54.583 92.267,53.333 91.707,52.583 90.647,51.963 89.087,51.053 87.237,50.513 85.437,50.553 82.137,50.613 78.877,51.923 75.997,53.533 73.927,54.693 70.637,58.203 70.637,58.203 Z"
     style="fill:#ff00ff;fill-opacity:1;stroke:#ff0008;stroke-width:0.10798;stroke-miterlimit:4;stroke-dasharray:none;stroke-opacity:1"
     inkscape:connector-curvature="0"
     sodipodi:nodetypes="ccccccccccccccccccccccccccccccccccccccccccccccccccccc" />
  <path
     id="1964-comics-sigil"
     d="M 68.188,54.581 C 67.948,51.941 67.008,47.461 64.808,44.821 63.998,43.851 62.768,43.111 61.518,42.961 60.258,42.811 58.878,43.241 57.868,43.991 56.258,45.191 54.608,49.081 54.608,49.081 54.608,49.081 54.148,46.761 53.718,45.671 53.268,44.551 52.728,43.441 52.008,42.471 51.498,41.791 50.908,41.131 50.178,40.681 49.328,40.171 48.348,39.771 47.348,39.761 46.388,39.751 45.408,40.091 44.598,40.611 43.518,41.311 42.748,42.421 42.048,43.481 41.408,44.461 40.918,45.551 40.558,46.661 40.208,47.761 39.918,50.081 39.918,50.081 38.948,47.861 38.368,44.161 38.318,41.131 38.268,38.101 38.658,35.001 39.618,32.121 40.598,29.171 42.218,26.411 44.098,23.931 45.858,21.611 48.268,19.411 50.368,17.831 50.368,17.831 50.638,19.471 51.038,20.181 51.478,20.981 52.178,21.631 52.898,22.191 53.638,22.761 54.478,23.191 55.348,23.501 56.428,23.881 57.588,24.121 58.728,24.141 59.778,24.151 60.838,23.941 61.848,23.651 62.478,23.481 63.668,22.891 63.668,22.891 63.668,22.891 64.278,19.851 64.508,18.321 64.668,17.261 64.878,15.131 64.878,15.131 65.188,16.171 65.508,17.221 65.818,18.261 65.818,18.261 67.378,18.311 68.158,18.321 68.978,18.321 70.618,18.261 70.618,18.261 70.908,17.161 71.208,16.061 71.498,14.961 71.498,14.961 71.788,17.201 71.958,18.321 72.178,19.851 72.688,22.891 72.688,22.891 72.688,22.891 74.038,23.481 74.738,23.671 75.528,23.891 76.348,24.091 77.168,24.101 78.408,24.121 79.678,23.991 80.838,23.571 82.188,23.091 83.508,22.371 84.538,21.371 85.058,20.861 85.468,20.211 85.708,19.531 85.918,18.961 85.948,17.731 85.948,17.731 87.228,18.631 91.038,21.961 92.928,24.641 94.848,27.361 96.228,30.481 97.158,33.671 97.898,36.191 98.258,38.861 98.188,41.491 98.108,44.451 96.568,50.221 96.568,50.221 96.568,50.221 96.158,47.761 95.778,46.571 95.458,45.551 95.078,44.531 94.518,43.621 93.878,42.581 93.158,41.521 92.158,40.831 91.238,40.201 90.118,39.741 89.008,39.731 88.018,39.711 87.018,40.091 86.188,40.621 85.298,41.191 84.648,42.101 84.058,42.981 83.508,43.791 83.118,44.711 82.758,45.621 82.348,46.691 81.808,48.921 81.808,48.921 81.808,48.921 80.298,45.551 78.938,44.371 78.008,43.561 76.788,42.801 75.558,42.861 74.028,42.931 72.538,43.951 71.548,45.131 69.398,47.691 68.448,52.171 68.188,54.581 Z"
     style="fill:#ff00ff;fill-opacity:1;stroke:#ff0000;stroke-width:0.10001;stroke-miterlimit:4;stroke-dasharray:none;stroke-opacity:1"
     inkscape:connector-curvature="0"
     sodipodi:nodetypes="cccccccccccccsccccccccccccccccccccccccccccscccccccccc" />
  <path
     style="fill:#ff00ff;fill-opacity:1;stroke:#ff0000;stroke-width:0.12035;stroke-miterlimit:4;stroke-dasharray:none;stroke-opacity:1"
     d="M 92.841,56.751 C 92.471,58.902 91.761,63.207 91.761,63.207 91.761,63.207 89.901,63.209 88.971,63.199 87.331,63.182 85.701,63.121 84.061,63.107 82.601,63.095 81.151,63.118 79.691,63.114 78.061,63.11 76.441,63.085 74.811,63.084 73.041,63.083 71.271,63.109 69.501,63.11 68.181,63.111 66.871,63.089 65.551,63.098 64.061,63.107 62.561,63.17 61.071,63.17 59.631,63.17 58.191,63.108 56.751,63.1 55.111,63.091 53.481,63.132 51.841,63.126 50.651,63.122 49.461,63.076 48.261,63.083 46.761,63.091 46.921,63.188 43.751,63.186 43.411,60.706 43.051,58.23 42.741,55.746 42.421,53.118 42.161,50.482 41.861,47.851 41.621,45.758 41.371,43.667 41.141,41.573 40.941,39.687 40.331,36.357 40.561,35.911 40.861,35.353 41.681,35.36 42.261,35.131 42.681,34.963 43.131,34.842 43.561,34.697 43.861,34.89 44.171,35.083 44.471,35.276 45.601,34.904 46.731,34.538 47.861,34.161 48.951,33.795 50.041,33.415 51.141,33.05 52.311,32.66 53.491,32.28 54.661,31.896 54.661,31.896 55.151,24.504 55.411,20.809 55.751,15.968 56.491,6.2889 56.491,6.2889 57.371,8.5969 57.971,11.116 58.851,13.424 58.851,13.424 61.121,12.784 62.281,12.822 63.361,12.857 65.441,13.589 65.441,13.589 66.541,11.397 67.761,8.6959 68.861,6.5029 68.861,6.5029 69.291,16.356 69.491,21.283 69.631,24.716 69.881,31.583 69.881,31.583 71.061,32.11 72.281,32.516 73.461,33.043 73.671,31.201 72.771,32.487 72.701,31.727 72.421,28.957 70.881,26.958 72.641,27.101 72.591,25.592 71.941,24.058 71.741,22.437 74.221,21.756 73.071,21.094 71.171,20.469 71.971,19.758 74.051,20.312 75.621,20.893 77.531,19.209 79.671,17.149 82.291,17.001 81.251,17.78 80.741,18.582 80.581,19.271 81.701,18.151 83.461,18.005 86.111,18.092 85.471,18.853 84.831,19.614 84.191,20.375 86.271,20.116 87.911,20.603 89.211,21.756 86.931,21.403 85.651,21.426 89.001,22.579 88.671,23.1 88.131,23.291 87.891,23.761 87.371,24.766 87.541,25.705 87.201,27.167 88.851,27.087 87.731,28.106 87.241,31.973 86.181,31.798 86.851,32.383 86.011,37.153 87.871,37.782 89.721,38.411 91.581,39.04 91.721,38.871 91.851,38.703 91.991,38.534 93.321,38.73 94.661,38.926 95.991,39.122 95.991,39.122 95.461,42.124 95.191,43.623 94.811,45.735 94.401,47.841 94.021,49.953 93.611,52.217 93.231,54.484 92.841,56.751 Z"
     id="1994-cartoon-title"
     inkscape:connector-curvature="0"
     sodipodi:nodetypes="ccccccccscccccccccccccccccccccccccccccccccccccccccccc" />
  <path
     style="fill:#ff00ff;fill-opacity:1;stroke:#ff0000;stroke-width:0.10933;stroke-miterlimit:4;stroke-dasharray:none;stroke-opacity:1"
     d="M 67.88,66.968 C 67.739,58.138 65.36,51.078 65.439,46.058 65.195,44.618 63.945,43.748 60.273,41.568 59.438,42.418 58.18,43.928 57.56,45.378 56.496,46.258 55.486,50.648 55.486,50.648 53.861,45.218 57.485,44.788 51.027,39.668 47.47,37.448 44.615,41.598 41.583,40.818 43.974,38.648 48.056,34.698 40.735,32.188 36.285,27.968 30.358,31.248 27.668,30.948 28.467,29.208 35.037,29.788 36.492,25.668 33.702,25.808 35.152,21.158 31.397,21.668 30.01,20.128 28.92,22.328 27.415,20.198 18.326,19.318 14.508,20.908 10.649,20.528 13.813,17.098 35.933,17.108 36.328,15.998 40.407,15.168 41.39,16.658 49.316,14.488 50.714,14.428 52.741,14.678 52.5,12.978 53.498,13.088 54.88,14.828 54.88,14.828 56.205,15.608 55.749,20.628 53.732,20.618 55.082,17.328 52.581,17.058 52.254,17.908 50.818,21.658 58.308,21.948 59.403,25.168 59.73,26.118 59.884,23.468 62.349,24.408 60.436,26.048 61.657,26.748 62.484,26.978 64.366,27.508 65.022,26.408 65.022,26.408 65.022,26.408 64.761,20.018 64.798,16.838 64.852,12.168 64.856,3.4179 65.274,2.8979 65.987,3.4579 65.898,9.6579 66.078,11.128 66.078,11.128 66.753,11.498 67.126,11.578 67.581,11.668 68.521,11.578 68.521,11.578 68.701,10.108 68.95,2.9779 69.499,2.6179 70.133,2.7579 70.047,13.058 70.355,16.358 70.754,20.638 69.851,18.878 70.343,26.718 71.611,27.208 72.441,28.128 72.731,26.908 74.742,25.868 74.193,25.198 72.802,24.478 75.06,23.248 75.673,25.438 76.532,25.468 76.018,21.918 85.189,21.448 83.504,17.958 82.969,16.848 80.032,17.838 81.952,20.408 77.301,17.858 81.446,13.298 82.281,13.328 82.281,14.148 88.343,15.468 91.903,15.218 93.265,16.478 97.797,15.468 101.58,16.258 110.27,16.258 110.74,17.978 113.64,17.018 114.67,18.368 124.42,19.018 125.81,20.338 122.54,19.798 114.19,19.048 111.92,20.428 104.74,19.878 106.66,21.508 102.89,21.018 101.57,22.058 101.12,24.588 99.079,25.718 99.901,28.398 107.94,30.768 107.38,31.648 106.53,29.708 92.749,29.218 95.457,31.798 85.725,35.088 93.829,39.678 94.059,40.458 93.553,41.378 88.269,37.288 83.77,39.608 80.714,42.448 80.698,44.708 80.602,50.568 80.602,50.568 77.785,42.568 74.938,41.778 73.383,42.108 71.248,43.508 70.286,44.678 70.458,47.708 69.688,52.088 69.286,55.648 68.131,60.048 68.829,60.238 67.88,66.968 Z"
     id="1991-comics-title"
     inkscape:connector-curvature="0"
     sodipodi:nodetypes="ccccccccccccccccccccccccccccccccccccccccccccccccccccc" />
</svg>
