<?xml version="1.0" encoding="UTF-8" standalone="no"?>
<svg
   xmlns:dc="http://purl.org/dc/elements/1.1/"
   xmlns:cc="http://creativecommons.org/ns#"
   xmlns:rdf="http://www.w3.org/1999/02/22-rdf-syntax-ns#"
   xmlns:svg="http://www.w3.org/2000/svg"
   xmlns="http://www.w3.org/2000/svg"
   xmlns:sodipodi="http://sodipodi.sourceforge.net/DTD/sodipodi-0.dtd"
   xmlns:inkscape="http://www.inkscape.org/namespaces/inkscape"
   width="136.51mm"
   height="69.771mm"
   version="1.1"
   viewBox="0 0 136.51 69.074"
   id="svg989"
   sodipodi:docname="anim-52points.svg"
   inkscape:version="0.92.2 5c3e80d, 2017-08-06">
  <sodipodi:namedview
     pagecolor="#ffffff"
     bordercolor="#666666"
     borderopacity="1"
     objecttolerance="10"
     gridtolerance="10"
     guidetolerance="10"
     inkscape:pageopacity="0"
     inkscape:pageshadow="2"
     inkscape:window-width="1680"
     inkscape:window-height="921"
     id="namedview1533"
     showgrid="false"
     inkscape:zoom="2.3103"
     inkscape:cx="263.18"
     inkscape:cy="84.082"
     inkscape:window-x="0"
     inkscape:window-y="1"
     inkscape:window-maximized="1"
     inkscape:current-layer="svg989" />
  <metadata
     id="metadata995">
    <rdf:RDF>
      <cc:Work
         rdf:about="">
        <dc:format>image/svg+xml</dc:format>
        <dc:type
           rdf:resource="http://purl.org/dc/dcmitype/StillImage" />
        <dc:title />
      </cc:Work>
    </rdf:RDF>
  </metadata>
  <defs
     id="defs993" />
  <path
     style="fill:#ff00ff;fill-opacity:1;stroke:#ff0000;stroke-width:0.13406;stroke-miterlimit:4;stroke-dasharray:none;stroke-opacity:1"
     d="M 69.973,63.783 C 69.048,61.437 67.01,58.233 64.799,56.075 61.783,53.139 58.083,50.767 54.142,49.292 50.55,47.952 46.582,47.214 42.761,47.617 39.638,47.925 36.528,48.903 33.928,50.834 33.928,50.834 34.035,48.474 33.646,47.375 33.177,46.035 32.252,44.855 31.26,43.836 30.054,42.603 28.579,41.625 27.051,40.834 25.322,39.949 23.418,39.399 21.542,38.93 19.786,38.488 18.003,38.22 16.207,38.099 14.223,37.965 12.226,38.005 10.255,38.247 8.3248,38.461 6.3945,38.85 4.5313,39.453 3.0567,39.922 0.28198,41.357 0.28198,41.357 0.28198,41.357 2.6546,33.408 4.6117,29.788 6.5822,26.156 9.0486,22.724 11.971,19.775 15.764,15.955 20.148,12.604 24.933,10.11 29.035,7.9655 36.153,5.9816 38.123,5.7269 38.123,5.7269 34.558,8.81 33.593,10.874 32.936,12.255 32.614,13.89 32.882,15.392 33.204,17.161 34.276,18.783 35.509,20.097 37.44,22.121 40.027,23.475 42.601,24.56 45.643,25.861 48.968,26.518 52.252,26.92 55.348,27.295 61.622,26.96 61.622,26.96 61.622,26.96 62.386,23.073 62.775,21.129 63.297,18.528 64.37,13.314 64.37,13.314 65.053,15.754 66.193,18.636 66.876,21.075 66.876,21.075 68.847,21.048 69.825,21.048 70.898,21.048 73.056,21.062 73.056,21.062 73.673,18.716 74.544,15.727 75.469,13.515 75.469,13.515 76.488,18.515 76.997,21.008 77.399,23.006 78.203,26.987 78.203,26.987 78.203,26.987 83.15,27.295 85.616,27.081 88.739,26.799 91.863,26.249 94.865,25.311 97.225,24.574 99.624,23.756 101.63,22.335 103.51,21.008 105.44,19.413 106.34,17.295 107.09,15.526 107.24,13.354 106.62,11.531 105.8,9.1317 101.69,5.7403 101.69,5.7403 119.78,9.6813 130.69,19.909 136.24,31.973 130.19,31.973 124.16,31.973 118.11,31.973 117.63,36.383 117.13,40.78 116.65,45.19 118.05,46.504 119.43,47.831 120.82,49.145 125.77,48.045 128.82,48.662 130.69,51.49 131.95,53.394 131.25,56.745 129.52,58.233 126.25,61.035 120.67,60.163 116.6,58.461 115.61,60.244 114.63,62.027 113.64,63.809 109.46,63.796 105.29,63.796 101.13,63.783 106.22,54.734 111.3,45.686 116.4,36.638 116.5,35.097 116.63,33.555 116.73,32.013 108.28,31.973 99.825,32 91.38,31.96 91.192,34.011 91.112,36.129 90.817,38.18 96.3,38.166 101.8,38.166 107.28,38.153 102.47,46.718 97.64,55.271 92.828,63.836 85.214,63.823 77.587,63.796 69.973,63.783 Z"
     id="2014-75anniv-logo"
     inkscape:connector-curvature="0" />
  <path
     id="2014-cartoon-sigil"
     d="M 68.091,60.064 C 68.091,60.064 65.531,53.639 63.346,51.028 60.373,47.473 56.702,44.163 52.372,42.509 48.855,41.177 44.784,40.906 41.125,41.733 38.385,42.354 33.796,45.883 33.796,45.883 33.796,45.883 33.382,43.724 33.02,42.69 32.529,41.307 31.934,39.949 31.133,38.721 30.305,37.442 29.336,36.213 28.173,35.244 26.867,34.171 25.393,33.24 23.777,32.736 21.438,32.012 18.891,31.909 16.461,32.142 14.315,32.348 12.208,33.008 10.23,33.874 8.0971,34.817 6.1452,36.188 4.2837,37.597 2.7583,38.747 0.03078,41.462 0.03078,41.462 0.03078,41.462 2.2154,36.86 3.5598,34.688 4.6715,32.891 5.8091,31.056 7.2957,29.543 9.9457,26.842 13.061,24.553 16.357,22.692 19.654,20.831 22.498,19.706 26.893,18.452 27.1,19.667 29.543,21.49 31.197,22.563 33.343,23.946 38.255,25.381 38.255,25.381 37.105,30.978 35.954,36.575 34.804,42.173 37.57,37.015 40.35,31.844 43.116,26.686 43.116,26.686 48.778,27.837 51.635,28.225 54.517,28.613 60.309,29.013 60.309,29.013 60.309,29.013 60.852,22.278 61.627,18.995 62.403,15.737 63.385,11.846 64.936,9.4937 65.285,13.372 65.544,16.952 65.647,20.831 65.376,21.529 65.105,22.227 64.833,22.925 66.203,24.967 68.698,30.836 69.125,35.166 69.836,42.289 70.185,49.916 68.233,57.09 71.387,50.097 72.382,46.904 73.248,42.056 74.011,37.726 74.296,31.405 74.115,28.884 74.115,28.884 81.263,28.703 84.805,28.263 87.623,27.914 93.169,26.661 93.169,26.661 95.859,31.676 98.56,36.692 101.25,41.707 100.23,36.239 99.194,30.771 98.173,25.303 98.173,25.303 103.64,23.623 106.01,22.072 107.45,21.128 109.74,18.452 109.74,18.452 112.92,19.318 117.67,21.27 121.26,23.403 123.65,24.825 125.84,26.635 127.85,28.574 130.3,30.913 132.73,33.37 134.46,36.278 135.39,37.816 136.41,41.307 136.41,41.307 136.41,41.307 133.41,38.54 131.78,37.338 130.3,36.239 128.75,35.205 127.09,34.378 125.46,33.563 123.76,32.84 121.97,32.439 119.98,31.999 117.91,31.767 115.88,31.973 114.06,32.167 112.23,32.633 110.61,33.499 108.88,34.43 107.36,35.8 106.11,37.325 105.1,38.553 104.39,40.014 103.8,41.488 103.2,42.935 102.58,46.012 102.58,46.012 100.78,44.332 97.513,42.16 94.914,41.72 91.553,41.152 87.933,41.087 84.702,42.186 80.656,43.543 77.075,46.348 74.192,49.489 71.439,52.488 68.091,60.064 68.091,60.064 Z"
     style="fill:#ff00ff;fill-opacity:1;stroke:#ff0000;stroke-width:0.12928;stroke-miterlimit:4;stroke-dasharray:none;stroke-opacity:1"
     inkscape:connector-curvature="0" />
  <path
     style="fill:#ff00ff;fill-opacity:1;stroke:#ff0008;stroke-width:0.14211;stroke-miterlimit:4;stroke-dasharray:none;stroke-opacity:1"
     d="M 67.932,69.022 C 67.932,69.022 64.635,57.782 62.987,52.155 61.794,48.091 59.378,39.992 59.378,39.992 58.056,38.94 54.206,39.963 51.79,40.745 49.815,41.37 47.527,42.862 46.376,43.828 45.477,42.929 44.576,42.028 43.676,41.128 42.412,39.864 40.522,39.438 38.888,38.741 37.751,38.258 36.6,37.761 35.392,37.477 34.113,37.164 32.806,37.036 31.485,36.979 30.291,36.937 29.097,37.022 27.904,37.15 26.526,37.292 25.161,37.491 23.812,37.832 22.703,38.116 21.581,38.457 20.543,38.983 19.819,39.338 18.511,40.347 18.511,40.347 18.511,40.347 19.762,35.729 20.685,33.541 21.893,30.699 23.3,27.928 25.062,25.384 26.682,23.04 28.6,20.894 30.689,18.947 32.991,16.802 38.206,13.264 38.206,13.264 38.206,13.264 39.882,14.528 40.778,15.082 41.943,15.807 43.108,16.546 44.373,17.072 45.509,17.541 46.703,17.882 47.911,18.095 49.076,18.308 50.27,18.351 51.449,18.351 52.515,18.351 53.58,18.251 54.646,18.123 55.826,17.981 58.17,17.512 58.17,17.512 58.17,17.512 58.312,15.75 58.426,14.869 59.08,9.9812 60.898,0.29031 60.898,0.29031 61.808,5.0931 62.717,9.8817 63.627,14.685 63.627,14.685 66.497,14.727 67.932,14.727 69.367,14.727 72.252,14.685 72.252,14.685 73.161,9.8817 74.071,5.0789 74.98,0.2761 74.98,0.2761 76.358,9.8959 77.182,14.685 77.325,15.509 77.651,17.157 77.651,17.157 77.651,17.157 79.783,17.754 80.863,17.939 81.928,18.123 82.994,18.237 84.074,18.251 85.282,18.265 86.504,18.194 87.697,18.01 89.062,17.811 90.426,17.526 91.719,17.072 92.799,16.688 93.85,16.177 94.831,15.566 95.84,14.94 97.63,13.363 97.63,13.363 97.63,13.363 103.2,16.958 105.59,19.232 107.62,21.178 109.37,23.423 110.93,25.768 112.56,28.212 113.89,30.869 115.11,33.541 116.22,35.97 117.98,41.029 117.98,41.029 117.98,41.029 115.74,39.352 114.47,38.784 113.38,38.301 112.18,38.088 111.02,37.832 109.74,37.548 108.44,37.278 107.14,37.15 105.72,37.008 104.28,36.937 102.86,37.079 101.67,37.207 100.49,37.533 99.335,37.86 98.07,38.216 96.82,38.613 95.626,39.168 94.22,39.835 92.927,40.731 91.634,41.612 90.795,42.18 89.218,43.43 89.218,43.43 89.218,43.43 85.253,41.001 83.037,40.446 80.763,39.878 77.197,39.082 76.031,40.176 76.031,40.176 74.014,48.048 72.92,51.97 71.328,57.683 67.932,69.022 67.932,69.022 Z"
     id="2010-comics-sigil"
     inkscape:connector-curvature="0" />
  <path
     id="2009-comics-title"
     d="M 68.285,50.463 C 67.546,54.246 67.709,58.217 67.571,62.125 67.571,62.125 63.725,57.302 61.483,55.198 59.103,52.956 53.742,49.186 53.742,49.186 53.742,49.186 47.88,49.837 45.037,50.576 42.08,51.353 36.419,53.732 36.419,53.732 37.12,50.025 38.36,46.331 39.989,42.623 38.185,45.078 36.344,49.361 35.454,52.893 33.062,49.687 30.807,45.98 28.039,43.137 28.039,43.137 17.617,46.243 12.72,48.548 8.3104,50.614 0.16851,56.05 0.16851,56.05 4.3772,48.022 6.3563,41.233 15.388,30.561 9.3375,36.298 3.9263,44.477 0.41903,50.977 3.4127,42.786 8.7989,35.659 14.385,29.02 17.079,25.826 20.323,23.108 23.667,20.59 27.413,17.772 31.383,15.154 35.655,13.187 41.742,10.381 52.389,7.112 54.807,7.0243 54.807,7.0243 41.955,10.983 34.139,19.3 40.314,14.515 45.55,12.223 50.385,10.068 49.596,10.995 45.387,13.25 45.412,19.187 46.277,18.047 45.613,17.408 46.552,16.431 51.3,18.235 55.809,19.149 60.143,19.337 60.193,20.089 60.243,20.853 60.293,21.605 60.757,19.964 61.095,17.96 61.746,16.218 62.548,14.051 64.727,9.9554 64.727,9.9554 66.093,12.21 63.851,12.699 64.477,13.425 64.477,13.425 66.807,12.561 68.034,12.536 69.425,12.511 72.118,13.425 72.118,13.425 72.581,12.423 70.615,12.298 71.892,9.7801 71.892,9.7801 74.034,13.826 74.811,15.968 75.462,17.797 76.001,19.663 76.251,21.617 76.393,20.882 76.536,20.148 76.677,19.413 80.047,19.463 86.836,17.722 90.255,16.256 90.894,16.77 90.706,18.498 91.257,19.225 91.784,16.294 89.191,12.135 86.072,9.9554 94.226,12.774 99.186,16.97 103.02,19.701 97.383,13.099 85.683,8.3396 81.324,6.9993 92.685,8.9032 98.072,11.697 105.7,15.705 109.76,17.847 113.44,20.69 116.85,23.747 121.12,27.579 125.03,31.851 128.36,36.523 131.57,41.02 134.76,46.744 136.34,51.202 132.03,43.913 128.67,37.3 121.45,30.761 127.01,37.926 131.73,44.314 136.21,55.799 136.21,55.799 126.9,49.887 121.87,47.671 117.6,45.792 111.7,43.851 108.56,43.325 105.86,46.419 103.38,49.574 101.22,52.806 100.81,49.674 97.508,43.4 96.568,42.46 97.934,46.168 99.575,49.837 100.08,53.67 100.08,53.67 94.614,51.44 91.771,50.664 88.89,49.874 82.965,49.036 82.965,49.036 82.965,49.036 77.754,52.73 75.45,54.935 73.057,57.202 68.986,62.413 68.986,62.413 68.861,58.43 69.011,54.446 68.285,50.463 Z"
     style="fill:#ff00ff;fill-opacity:1;stroke:#fa0000;stroke-width:0.13579;stroke-miterlimit:4;stroke-dasharray:none;stroke-opacity:1"
     inkscape:connector-curvature="0" />
  <path
     id="2009-comics-sigil"
     d="M 67.815,69.126 C 67.815,69.126 64.873,55.748 63.127,49.122 62.147,45.415 59.892,38.078 59.892,38.078 59.892,38.078 58.372,40.602 57.594,41.853 56.782,43.16 55.137,45.775 55.137,45.775 55.137,45.775 53.672,41.019 52.95,38.642 52.297,36.478 51.023,32.128 51.023,32.128 51.023,32.128 46.28,39.938 44.296,44.051 42.3,48.187 39.089,56.808 39.089,56.808 39.089,56.808 38.65,44.738 38.379,38.71 38.165,33.886 37.658,24.239 37.658,24.239 35.55,24.51 31.73,25.727 29.33,27.496 25.103,30.618 22.219,34.866 19.514,39.813 19.514,39.813 22.274,31.925 23.593,27.958 24.54,25.129 25.464,22.042 26.332,19.438 31.945,15.167 32.26,14.852 35.202,12.53 40.306,8.5292 50.437,0.44887 50.437,0.44887 50.437,0.44887 51.339,3.5255 51.824,5.0582 52.139,6.0611 52.489,7.053 52.816,8.0446 53.03,8.7208 53.469,10.062 53.469,10.062 53.469,10.062 54.123,11.482 54.562,12.124 55.148,12.98 55.768,13.826 56.58,14.468 57.188,14.953 58.653,15.55 58.653,15.55 58.653,15.55 59.904,13.195 60.558,12.023 61.718,9.9384 64.13,5.8132 64.13,5.8132 64.266,7.4699 65.358,14.885 65.786,16.023 65.786,16.023 66.789,15.888 67.285,15.844 67.849,15.798 68.976,15.742 68.976,15.742 69.461,14.717 70.802,7.7403 71.23,6.0611 71.23,6.0611 73.214,9.8927 74.227,11.798 74.791,12.856 75.951,14.953 75.951,14.953 75.951,14.953 76.831,15.122 77.439,14.986 78.623,14.367 80.008,13.5 81.159,12.574 81.981,11.91 82.782,11.189 83.401,10.332 83.863,9.701 84.178,8.9687 84.46,8.2475 84.978,6.974 85.305,5.6329 85.655,4.3143 85.937,3.2775 86.387,1.1814 86.387,1.1814 94.694,8.8223 99.642,12.541 108.86,17.251 112.61,22.21 115.72,27.992 116.37,30.009 116.42,30.651 116.61,32.026 116.95,33.096 117.12,34.946 116.82,38.653 116.82,38.653 116.82,38.653 113.68,30.291 111.17,26.651 108.73,23.09 106.31,20.757 99.168,21.242 99.168,21.242 102.12,27.822 102.78,31.339 103.26,33.976 102.97,39.396 102.97,39.396 102.97,39.396 100.22,34.325 98.233,32.285 96.035,30.031 90.501,26.842 90.501,26.842 90.501,26.842 88.574,30.82 87.604,32.816 86.5,35.103 84.28,39.678 84.28,39.678 84.28,39.678 81.88,36.872 80.707,35.453 79.715,34.28 77.789,31.89 77.789,31.89 77.789,31.89 73.721,41.132 72.323,45.967 70.136,53.517 67.804,69.126 67.815,69.126 Z"
     style="fill:#ff00ff;fill-opacity:1;stroke:#ff0000;stroke-width:0.1127;stroke-miterlimit:4;stroke-dasharray:none;stroke-opacity:1"
     inkscape:connector-curvature="0" />
  <path
     style="fill:#ff00ff;fill-opacity:1;stroke:#ff0008;stroke-width:0.19058;stroke-miterlimit:4;stroke-dasharray:none;stroke-opacity:1"
     d="M 68.255,62.27 C 67.746,61.489 61.249,52.515 56.399,49.181 52.414,46.418 47.54,42.626 42.871,43.902 41.803,44.187 41.107,45.446 40.817,46.512 40.412,47.999 41.456,51.124 41.456,51.124 41.456,51.124 38.562,48.19 36.884,47.027 35.146,45.827 33.206,44.912 31.265,44.073 29.787,43.426 28.302,42.682 26.705,42.473 25.135,42.263 23.074,41.692 21.966,42.816 20.909,43.902 21.399,45.865 21.726,47.351 22.083,48.971 23.16,50.381 24.069,51.772 24.991,53.201 26.069,54.535 27.204,55.812 28.234,56.953 30.523,59.03 30.523,59.03 25.671,57.829 12.257,53.354 5.8671,46.76 2.7134,43.502 -0.23453,38.928 0.19231,34.412 0.74109,28.581 5.6861,23.608 10.373,20.12 19.734,13.127 36.375,9.9259 43.519,8.7251 43.519,8.7251 40.28,10.688 39.155,12.155 38.468,13.051 37.97,14.156 37.831,15.28 37.732,16.081 37.839,16.957 38.203,17.681 38.624,18.52 39.368,19.206 40.175,19.663 41.033,20.178 42.067,20.292 43.045,20.463 45.508,20.883 50.526,21.016 50.526,21.016 50.526,21.016 51.273,19.987 51.642,19.473 54.53,15.452 60.25,7.3912 60.25,7.3912 60.376,12.212 60.5,17.053 60.626,21.873 60.626,21.873 65.709,21.721 68.254,21.702 70.862,21.702 76.081,21.836 76.081,21.836 76.147,17.015 76.211,12.212 76.276,7.3912 76.276,7.3912 81.785,15.299 84.64,19.167 85.148,19.854 86.198,21.207 86.198,21.207 86.198,21.207 89.331,20.92 90.888,20.692 92.357,20.482 93.847,20.33 95.271,19.911 95.951,19.72 96.715,19.587 97.237,19.091 98.072,18.329 98.719,17.205 98.789,16.062 98.87,14.709 98.164,13.355 97.382,12.231 96.339,10.745 93.217,8.7251 93.217,8.7251 98.745,9.7732 116.12,13.28 125.52,19.663 129.93,22.674 134.39,26.771 135.87,31.916 136.85,35.308 136.35,39.481 134.39,42.396 128.41,51.295 113.73,56.82 106.65,58.649 106.65,58.649 109.07,56.097 110.23,54.783 111.25,53.62 112.38,52.554 113.19,51.238 113.96,49.981 114.69,48.609 114.93,47.16 115.15,45.789 115.55,43.978 114.55,43.007 113.16,41.654 110.63,42.32 108.71,42.663 106.77,43.007 105.06,44.111 103.31,45.008 101.57,45.903 99.804,46.799 98.3,48.037 97.213,48.932 95.465,51.181 95.465,51.181 95.465,51.181 96.256,48.132 95.793,46.722 95.399,45.502 94.557,44.111 93.317,43.807 88.914,42.72 84.459,46.379 80.726,48.951 75.716,52.401 68.748,61.546 68.255,62.27 Z"
     id="2008-tv-sigil"
     inkscape:connector-curvature="0" />
  <path
     style="fill:#ff00ff;fill-opacity:1;stroke:#ff0008;stroke-width:0.10798;stroke-miterlimit:4;stroke-dasharray:none;stroke-opacity:1"
     d="M 67.036,63.223 C 67.036,63.223 66.076,60.323 65.056,59.253 62.646,56.733 59.316,54.933 55.926,54.153 50.476,52.903 44.616,53.863 39.176,55.133 36.876,55.673 32.646,57.903 32.646,57.903 32.646,57.903 32.816,56.363 32.626,55.633 32.376,54.673 31.946,53.693 31.216,53.023 29.886,51.823 27.986,51.383 26.256,50.923 24.366,50.423 22.386,50.303 20.436,50.233 18.406,50.163 16.366,50.353 14.346,50.543 11.876,50.783 9.4161,51.093 6.9761,51.563 5.6261,51.823 4.3161,52.223 2.9861,52.543 2.0361,52.783 0.12611,53.243 0.12611,53.243 0.12611,53.243 3.3561,48.633 5.1661,46.473 8.6661,42.304 12.356,38.264 16.376,34.594 21.406,30.004 29.066,25.054 32.456,21.994 33.586,20.974 44.086,10.674 44.266,8.8039 43.976,12.884 48.526,18.144 51.806,19.764 52.316,20.014 51.916,18.144 52.696,17.964 53.626,20.534 54.696,21.744 53.876,14.844 56.566,16.814 54.636,15.404 55.176,15.614 55.186,14.474 55.186,13.324 55.196,12.184 55.836,12.024 57.136,11.804 57.136,11.804 57.016,13.694 58.656,14.464 58.946,14.524 58.946,14.524 58.016,11.754 58.246,10.784 57.596,10.774 56.946,10.754 56.296,10.744 59.476,6.5639 63.176,9.1739 64.336,11.454 64.376,10.754 64.406,10.054 64.446,9.3539 65.066,8.4239 66.116,7.2139 66.846,6.2239 65.816,10.654 65.216,13.214 63.526,15.964 64.166,16.804 62.316,18.654 59.866,23.614 60.336,24.014 61.196,24.034 61.866,23.784 62.876,23.404 64.466,22.724 65.666,22.014 66.966,21.244 68.216,20.344 69.336,19.334 69.746,18.964 70.096,18.534 70.436,18.104 71.076,17.294 71.726,16.484 72.196,15.564 72.766,14.464 73.446,12.074 73.446,12.074 73.906,13.604 73.966,13.284 74.356,13.904 76.956,18.054 101.66,30.184 115.92,36.624 117.44,37.314 118.98,37.954 120.39,38.834 126.13,42.424 136.48,51.243 136.48,51.243 136.48,51.243 132.99,49.693 131.18,49.093 129.79,48.633 128.36,48.293 126.93,47.973 125.06,47.573 123.18,47.033 121.27,46.983 118.71,46.923 116.1,47.213 113.65,47.943 112.49,48.293 111.43,48.933 110.39,49.553 109.04,50.343 107.71,51.183 106.55,52.223 105.12,53.513 103.88,55.023 102.78,56.603 102.17,57.493 101.23,59.463 101.23,59.463 99.926,57.593 94.346,53.363 90.056,52.203 86.386,51.213 82.226,51.463 78.656,52.763 75.326,53.973 72.726,56.713 70.206,59.193 68.986,60.393 67.036,63.223 67.036,63.223 Z"
     id="2006-comics-title" />
  <path
     id="2004-cartoon-sigil"
     d="M 68.464,68.248 C 68.464,68.248 66.309,58.006 63.352,53.887 60.86,50.317 57.543,45.564 53.192,45.649 51.128,45.691 49.531,47.93 48.534,49.726 46.965,52.556 46.982,59.313 46.982,59.313 46.982,59.313 44.595,53.718 42.326,51.901 40.497,50.402 38,48.986 35.69,49.451 33.721,49.874 32.063,51.69 31.243,53.507 30.185,55.894 31.163,61.299 31.163,61.299 31.163,61.299 27.847,58.893 25.897,58.513 23.943,58.175 21.772,58.344 19.963,59.187 18.077,60.053 16.411,61.637 15.418,63.454 14.463,65.228 14.351,69.368 14.351,69.368 14.351,69.368 9.3767,59.757 7.8579,54.584 6.1765,48.881 5.0443,42.903 5.038,36.946 5.0317,29.997 6.1829,22.942 8.3057,16.278 10.122,10.583 16.28,0.24309 16.28,0.24309 16.28,0.24309 20.128,3.6333 22.126,5.2429 24.021,6.768 25.943,8.2719 27.95,9.6449 30.198,11.185 32.492,12.672 34.908,13.929 37.206,15.126 39.623,16.081 42.045,17.006 44.261,17.83 46.507,18.612 48.79,19.224 51.289,19.879 56.379,20.787 56.379,20.787 56.379,20.787 58.959,11.297 60.395,6.6053 60.648,5.7604 61.198,4.0854 61.198,4.0854 61.536,4.8965 61.852,5.7097 62.169,6.5208 62.169,6.5208 66.352,6.6497 68.464,6.6476 70.407,6.6476 74.315,6.5208 74.315,6.5208 74.611,5.6379 74.885,4.7507 75.181,3.8678 75.181,3.8678 75.794,5.6844 76.089,6.6053 77.505,11.284 79.976,20.745 79.976,20.745 79.976,20.745 83.63,20.154 85.426,19.752 87.686,19.245 89.946,18.738 92.143,17.978 94.656,17.154 97.043,16.018 99.409,14.896 101.96,13.707 104.54,12.518 106.89,11.047 109.04,9.7336 111.05,8.1642 113.06,6.6433 115.59,4.719 120.51,0.66978 120.51,0.66978 120.51,0.66978 126.85,11.214 128.71,17.027 130.57,22.9 131.24,29.11 131.43,35.235 131.6,40.727 131.24,46.346 129.91,51.69 128.37,57.774 122.54,69.093 122.54,69.093 122.54,69.093 122.05,64.995 121.06,63.242 120.03,61.51 118.55,59.884 116.71,59.081 114.81,58.217 112.51,58.175 110.46,58.661 108.68,59.06 105.7,61.426 105.7,61.426 105.7,61.426 106.34,56.443 105.53,54.162 104.94,52.451 103.99,50.444 102.3,49.789 100.11,48.923 97.36,49.874 95.417,51.12 92.713,52.894 89.819,59.123 89.819,59.123 89.819,59.123 89.84,51.31 87.622,48.437 86.397,46.895 84.243,45.586 82.299,45.881 78.434,46.431 75.709,50.486 73.555,53.76 70.724,58.006 68.464,68.248 68.464,68.248 Z"
     style="fill:#ff00ff;fill-opacity:1;stroke:#ff0000;stroke-width:0.13992;stroke-miterlimit:4;stroke-dasharray:none;stroke-opacity:1"
     inkscape:connector-curvature="0" />
  <path
     style="fill:#ff00ff;fill-opacity:1;stroke:#ff0000;stroke-width:0.14434;stroke-miterlimit:4;stroke-dasharray:none;stroke-opacity:1"
     d="M 68.289,68.614 C 66.828,68.603 64.965,62.901 62.899,60.342 60.71,57.632 58.633,54.523 55.537,52.928 53.697,51.978 51.243,50.96 49.407,51.919 47.873,52.718 47.168,56.603 47.168,56.603 47.168,56.603 44.527,53.826 43.034,52.634 41.698,51.566 40.281,50.577 38.751,49.814 36.867,48.872 34.896,47.906 32.803,47.681 30.509,47.434 27.707,47.22 25.943,48.576 27.157,50.196 27.496,50.635 28.31,51.634 30.012,53.722 31.722,55.814 33.575,57.772 34.807,59.073 36.132,60.287 37.46,61.492 39.178,63.052 42.734,66.035 42.734,66.035 22.921,60.858 11.26,56.464 2.7968,43.793 -0.06078,39.513 -0.69374,33.308 1.0255,28.457 3.8747,20.417 11.912,14.793 19.319,10.558 30.002,4.4503 42.472,2.4641 54.958,0.91947 49.732,2.9241 38.679,8.7114 34.069,15.944 33.305,17.141 32.766,18.805 33.275,20.13 33.777,21.434 35.355,22.061 36.616,22.667 40.554,24.559 45.002,25.249 49.329,25.862 51.568,26.179 53.926,26.122 56.113,26.102 57.06,25.633 57.387,24.873 58.689,23.854 58.689,23.854 59.085,18.508 59.525,15.867 59.956,13.261 61.288,8.1406 61.288,8.1406 61.825,10.201 61.993,12.82 62.664,14.455 62.664,14.455 66.207,13.038 68.054,13.05 70.035,13.062 73.796,14.615 73.796,14.615 74.736,13.149 74.954,10.065 75.156,8.3102 75.156,8.3102 76.516,12.795 76.919,15.1 77.405,18.011 77.641,23.928 77.641,23.928 78.295,24.812 79.37,25.533 80.461,26.046 86.153,26.394 92.583,25.113 98.342,23.318 99.651,22.91 100.99,22.41 102.04,21.517 102.64,21.008 103.26,20.362 103.38,19.588 103.61,18.07 102.96,16.416 102.05,15.174 97.167,8.4562 88.57,3.8643 81.586,0.98159 97.905,2.7126 113.47,6.4986 125.82,15.969 130.79,19.766 135.29,25.365 136.24,31.533 137.05,36.605 135.22,42.356 131.96,46.326 122.96,57.323 109.93,62.159 94.144,66.019 94.144,66.019 97.939,62.79 99.752,61.083 100.88,60.027 101.97,58.929 103.01,57.802 104.35,56.361 105.65,54.879 106.9,53.358 108.23,51.736 110.75,48.37 110.75,48.37 110.75,48.37 107.79,47.485 106.27,47.539 103.5,47.636 100.74,48.504 98.208,49.627 96.545,50.358 95.085,51.472 93.674,52.594 92.231,53.739 89.679,56.408 89.679,56.408 89.679,56.408 88.772,52.574 87.21,51.838 85.061,50.834 82.325,52.094 80.26,53.242 77.607,54.706 75.894,57.453 74.031,59.825 71.865,62.572 69.514,68.626 68.289,68.614 Z"
     id="1997-movie-sigil"
     inkscape:connector-curvature="0" />
  <path
     id="1996-comics-title"
     d="M 68.47,63.972 C 68.47,63.972 64.295,57.054 61.24,54.529 59.054,52.722 56.448,51.125 53.631,50.724 51.459,50.413 48.993,50.726 47.129,51.908 45.882,52.706 44.551,55.539 44.551,55.539 44.551,55.539 41.608,52.97 39.927,52.012 38.638,51.279 37.251,50.67 35.807,50.352 34.406,50.042 32.935,49.977 31.505,50.137 29.586,50.352 27.54,50.651 25.914,51.702 24.948,52.331 24.191,53.326 23.687,54.366 23.168,55.437 23,56.671 22.93,57.861 22.874,58.934 23.084,60.012 23.28,61.067 23.448,61.938 23.995,63.631 23.995,63.631 17.269,60.871 10.01,56.773 5.5263,50.752 2.3035,46.425 -0.24681,40.729 0.45382,35.379 1.3506,28.517 6.5913,22.538 11.804,17.99 17.969,12.616 29.53,8.3477 33.986,7.5112 33.986,7.5112 32.697,10.48 32.669,12.057 32.64,13.796 33.117,15.589 33.944,17.118 34.939,18.959 36.55,20.457 38.217,21.723 40.011,23.083 42.043,24.286 44.229,24.808 47.157,25.509 50.31,25.338 53.267,24.759 55.032,24.413 57.022,23.743 58.283,22.751 58.283,22.751 59.376,15.196 59.965,11.423 60.259,9.4827 60.904,5.6083 60.904,5.6083 61.885,7.0726 62.851,8.5355 63.832,9.9998 63.832,9.9998 66.929,9.9718 68.47,9.9718 69.872,9.9718 72.674,9.9998 72.674,9.9998 73.585,8.5733 74.482,7.1469 75.393,5.7204 75.393,5.7204 76.009,9.8681 76.359,11.942 76.92,15.389 78.153,22.283 78.153,22.283 78.784,23.144 80.353,23.833 81.614,24.242 84.403,25.143 87.429,25.563 90.344,25.215 92.824,24.916 95.262,23.967 97.378,22.645 99.34,21.419 101.23,19.832 102.38,17.829 103.53,15.837 104.3,13.42 104.05,11.135 103.89,9.763 102.17,7.4411 102.17,7.4411 106.19,8.2538 121.09,13.842 128.02,20.578 132.05,24.496 135.47,29.798 136.08,35.385 136.61,40.225 134.81,45.421 132.03,49.417 127.46,55.976 117.92,61.221 112.75,63.668 112.75,63.668 113.56,61.915 113.76,60.98 114.01,59.87 114.18,58.71 114.04,57.581 113.89,56.22 113.49,54.836 112.77,53.671 112.19,52.741 111.36,51.907 110.41,51.373 108.97,50.566 107.23,50.349 105.58,50.176 103.91,50.001 102.18,49.993 100.53,50.353 99.06,50.675 97.672,51.352 96.355,52.102 94.758,53.014 91.941,55.4 91.941,55.4 91.941,55.4 90.876,53.039 89.895,52.296 88.284,51.097 86.14,50.412 84.136,50.539 80.913,50.742 77.817,52.474 75.322,54.512 72.296,56.971 68.47,63.972 68.47,63.972 Z"
     style="fill:#ff00ff;fill-opacity:1;stroke:#ff0000;stroke-width:0.14012;stroke-miterlimit:4;stroke-dasharray:none;stroke-opacity:1"
     inkscape:connector-curvature="0" />
  <path
     style="fill:#ff00ff;fill-opacity:1;stroke:#ff0000;stroke-width:0.16036;stroke-miterlimit:4;stroke-dasharray:none;stroke-opacity:1"
     d="M 68.243,65.147 C 68.243,65.147 66.8,54.652 63.657,50.697 62.166,48.829 59.793,46.393 57.5,47.051 55.993,47.479 55.576,49.661 55.335,51.202 55.015,53.333 56.442,57.577 56.442,57.577 56.442,57.577 52.658,53.2 50.557,51.21 49.034,49.776 47.511,48.327 45.747,47.216 44.047,46.148 42.284,44.859 40.295,44.702 38.099,44.528 35.277,44.743 33.93,46.493 32.375,48.526 33.128,51.72 33.866,54.171 34.411,55.986 35.886,57.381 37.04,58.887 38.548,60.846 40.183,62.7 41.883,64.484 43.422,66.091 46.725,69.069 46.725,69.069 41.835,68.371 27.997,62.119 21.792,54.826 16.934,49.113 13.31,41.224 13.935,33.753 14.625,25.547 20.156,17.833 26.33,12.383 33.818,5.7738 46.901,1.9513 53.908,0.68297 53.908,0.68297 47.687,3.5082 45.314,5.8716 43.101,8.0779 40.969,10.801 40.456,13.882 40.151,15.776 40.504,18.003 41.706,19.502 43.486,21.739 46.693,22.486 49.467,23.177 52.449,23.92 56.458,24.122 58.687,23.596 59.937,23.302 60.963,23.025 61.348,20.799 61.573,19.531 62.663,11.508 63.064,6.8337 63.224,4.908 63.336,1.0405 63.336,1.0405 64.026,2.7273 64.699,4.4157 65.389,6.1025 65.389,6.1025 67.281,6.2356 68.227,6.258 69.189,6.2805 71.097,6.2356 71.097,6.2356 71.786,4.5039 72.46,2.7722 73.149,1.0405 73.149,1.0405 73.117,4.908 73.278,6.8337 73.662,11.52 75.106,19.555 75.266,20.801 75.555,23.025 76.613,23.155 77.799,23.594 78.97,24.032 83.94,23.907 86.875,23.176 89.568,22.509 92.551,21.707 94.395,19.632 95.661,18.21 96.383,16.109 96.19,14.221 95.838,11.081 93.545,8.3361 91.332,6.0833 88.815,3.5178 82.177,0.39275 82.177,0.39275 90.178,1.4927 103.6,6.2741 111.5,13.496 117.07,18.579 121.85,25.719 122.55,33.223 123.23,40.321 120.21,47.94 115.75,53.501 109.45,61.355 97.169,67.436 89.873,69.078 89.873,69.078 93.208,65.966 94.795,64.327 96.463,62.599 98.243,60.939 99.638,58.974 101.08,56.936 102.78,54.843 103.2,52.384 103.53,50.325 103.58,47.761 102.2,46.202 100.9,44.753 98.531,44.459 96.591,44.62 94.234,44.814 92.166,46.339 90.194,47.639 88.318,48.875 86.746,50.519 85.159,52.108 83.395,53.876 80.204,57.724 80.204,57.724 80.204,57.724 81.888,52.17 80.91,49.65 80.477,48.537 79.467,47.297 78.28,47.217 75.779,47.049 73.566,49.497 72.123,51.543 69.381,55.385 68.243,65.147 68.243,65.147 Z"
     id="1995-movie-sigil"
     inkscape:connector-curvature="0" />
  <path
     id="1995-movie-promo"
     d="M 68.189,68.534 C 68.189,68.534 65.295,59.782 62.521,56.2 59.867,52.767 56.675,49.035 52.469,47.943 50.858,47.523 48.89,47.869 47.518,48.835 45.609,50.189 44.296,52.525 44.296,55.275 44.296,55.275 41.433,51.776 39.613,50.512 37.495,49.044 35.079,47.767 32.514,47.4 30.724,47.144 28.815,47.371 27.175,48.084 25.803,48.674 24.58,49.7 23.744,50.92 22.73,52.382 22.134,54.192 22.014,55.967 21.925,57.617 22.521,59.251 23.029,60.823 23.386,61.936 23.953,62.98 24.49,64.021 25.057,65.095 26.34,67.153 26.34,67.153 17.57,62.837 11.306,59.845 6.3246,53.512 2.7452,48.99 0.2098,43.126 0.12031,37.363 0.03083,32.77 1.731,27.908 4.6244,24.334 12.499,14.586 23.029,8.4445 36.779,4.8532 36.779,4.8532 33.469,7.7704 32.663,9.748 31.738,11.952 31.649,14.538 32.126,16.874 32.574,19.019 33.647,21.101 35.109,22.723 36.72,24.486 38.897,25.745 41.105,26.571 43.491,27.445 46.086,27.863 48.592,27.624 51.336,27.365 52.41,27.794 56.407,24.946 56.407,24.946 57.749,14.515 58.435,9.3036 58.823,6.5176 59.598,0.94865 59.598,0.94865 61.388,3.2067 63.923,7.5139 65.057,9.7719 65.057,9.7719 67.145,9.7212 68.189,9.7152 69.292,9.7093 71.53,9.7451 71.53,9.7451 73.14,7.5378 75.228,3.3558 76.839,1.1485 76.839,1.1485 77.853,7.487 78.33,10.664 79.046,15.424 80.329,24.961 80.329,24.961 80.478,26.178 83.849,26.977 85.817,27.308 88.89,27.824 92.171,27.687 95.124,26.652 97.689,25.742 100.11,24.078 101.84,21.963 103.24,20.269 104.07,18.094 104.46,15.94 104.82,14.04 104.91,11.946 104.22,10.148 103.36,7.9762 99.658,4.8204 99.658,4.8204 109.77,6.974 123.28,13.849 130.98,23.201 134.44,27.424 136.59,33.22 136.38,38.679 136.17,44.078 133.25,49.321 129.84,53.518 124.8,59.732 114.54,65.733 110.34,67.499 110.34,67.499 112.81,63.326 113.65,61.053 114.12,59.744 114.54,58.365 114.57,56.972 114.57,55.35 114.39,53.629 113.62,52.2 112.69,50.452 111.2,48.838 109.38,48.012 107.5,47.15 105.24,47.192 103.21,47.514 101.63,47.761 100.19,48.567 98.793,49.342 97.51,50.049 96.317,50.89 95.243,51.89 94.289,52.82 92.708,55.054 92.708,55.054 92.708,55.054 91.097,50.309 89.188,48.964 87.697,47.917 85.549,47.532 83.789,48.012 79.643,49.139 76.571,52.963 73.946,56.379 71.231,59.937 68.189,68.534 68.189,68.534 Z"
     style="fill:#ff00ff;fill-opacity:1;stroke:#ff0000;stroke-width:0.16761;stroke-miterlimit:4;stroke-dasharray:none;stroke-opacity:1"
     inkscape:connector-curvature="0" />
  <path
     id="1994-cartoon-title"
     d="M 100.11,50.069 C 99.732,52.164 99.297,54.245 98.922,56.34 98.524,58.582 98.27,60.85 97.81,63.081 97.387,65.132 96.312,69.179 96.312,69.179 96.312,69.179 92.057,68.958 89.918,68.926 87.887,68.895 85.844,68.97 83.801,68.987 82.133,69 80.453,69.011 78.785,69.018 76.755,69.028 74.736,69.044 72.705,69.036 70.179,69.027 67.641,68.993 65.103,68.96 62.661,68.929 60.207,68.87 57.766,68.843 55.602,68.821 53.439,68.783 51.275,68.809 49.329,68.833 47.371,68.943 45.425,68.986 43.177,69.035 42.524,69.08 38.692,69.079 38.281,66.081 37.846,63.087 37.471,60.085 37.085,56.908 36.77,53.722 36.408,50.542 36.118,48.012 35.816,45.485 35.537,42.954 35.296,40.674 34.558,36.649 34.836,36.11 35.199,35.435 36.19,35.444 36.891,35.167 37.399,34.964 37.943,34.818 38.463,34.642 38.825,34.876 39.2,35.109 39.563,35.342 40.928,34.893 42.294,34.45 43.66,33.995 44.978,33.552 46.295,33.093 47.625,32.652 49.039,32.18 50.465,31.721 51.879,31.257 51.879,31.257 52.472,22.322 52.786,17.856 53.197,12.004 54.091,0.30524 54.091,0.30524 55.155,3.095 55.88,6.1398 56.944,8.9295 56.944,8.9295 59.688,8.156 61.09,8.2019 62.395,8.2442 64.909,9.129 64.909,9.129 66.239,6.4795 67.713,3.2146 69.043,0.56391 69.043,0.56391 69.563,12.473 69.805,18.429 69.974,22.578 70.276,30.879 70.276,30.879 71.702,31.516 73.177,32.006 74.603,32.643 74.567,32.236 74.543,31.829 74.506,31.421 74.506,31.421 73.878,31.378 73.769,31.09 72.137,25.383 72.198,24.921 73.588,25.49 73.382,23.802 72.911,21.573 72.512,19.883 73.056,19.548 73.612,19.213 74.156,18.878 74.422,18.138 72.935,18.348 71.823,17.432 74.144,16.636 75.546,17.492 77.214,17.907 79.716,15.976 82.194,13.436 85.24,13.246 84.007,13.947 83.596,15.077 83.1,16.04 85.01,14.364 87.561,14.574 90.014,14.542 89.144,15.513 88.249,16.461 87.609,17.32 89.821,16.987 93.217,18.041 93.87,19.233 92.818,19.082 91.767,18.685 90.727,18.822 91.428,19.32 92.468,19.693 93.35,19.961 92.214,20.601 91.453,23.579 91.175,25.529 93.205,25.073 91.465,29.099 91.295,31.296 91.066,31.334 90.824,31.374 90.594,31.413 90.353,33.53 90.111,35.647 89.869,37.765 92.069,38.49 94.281,39.215 96.481,39.94 97.158,38.936 97.303,39.001 101.73,40.149 101.42,42.124 100.69,46.77 100.11,50.069 Z"
     style="fill:#ff00ff;fill-opacity:1;stroke:#ff0000;stroke-width:0.14547;stroke-miterlimit:4;stroke-dasharray:none;stroke-opacity:1"
     inkscape:connector-curvature="0" />
  <path
     style="fill:#ff00ff;fill-opacity:1;stroke:#ff0008;stroke-width:0.16415;stroke-miterlimit:4;stroke-dasharray:none;stroke-opacity:1"
     d="M 68.202,69.202 C 68.202,69.202 67.431,61.159 65.789,57.532 63.311,52.033 60.931,43.712 54.94,43.039 53.594,42.891 52.495,44.483 51.855,45.665 50.968,47.339 51.198,51.295 51.198,51.295 51.198,51.295 49.097,47.684 47.883,45.977 47.144,44.927 46.291,43.958 45.437,42.99 44.502,41.923 43.73,40.626 42.516,39.904 41.564,39.346 40.316,38.591 39.331,39.067 38.74,39.362 38.658,40.232 38.527,40.889 38.379,41.611 38.461,42.382 38.56,43.121 38.658,44.073 38.921,45.025 39.184,45.944 39.43,46.847 40.103,48.587 40.103,48.587 36.59,46.158 25.626,35.801 21.868,27.233 19.488,21.8 17.617,15.12 19.718,9.5726 21.064,5.9945 24.756,3.4177 28.285,1.9569 33.242,-0.09475 37.575,0.2171 44.37,1.0213 44.37,1.0213 40.119,1.7271 38.56,3.073 37.739,3.7788 37.116,4.862 37.05,5.9289 36.968,7.3404 37.756,8.7519 38.593,9.9009 40.037,11.887 42.236,13.249 44.337,14.546 46.947,16.154 49.803,17.402 52.724,18.304 55.958,19.306 62.704,20.126 62.704,20.126 62.704,20.126 62.966,15.842 63.114,13.692 63.344,10.213 63.82,3.2535 63.82,3.2535 63.82,3.2535 64.214,9.2607 65.724,11.723 66.265,12.593 67.07,13.676 68.104,13.692 69.269,13.709 70.27,12.543 70.894,11.559 72.437,9.1294 72.732,3.1551 72.732,3.1551 72.732,3.1551 73.339,10.18 73.569,13.692 73.717,15.859 73.914,20.175 73.914,20.175 73.914,20.175 81.382,19.224 84.911,18.009 88.259,16.86 91.558,15.35 94.365,13.2 96.301,11.723 98.386,10.049 99.256,7.7671 99.633,6.7988 99.6,5.6334 99.256,4.6651 98.928,3.7459 98.205,2.9089 97.368,2.4 95.678,1.366 91.558,1.1198 91.558,1.1198 98.32,0.51254 104.26,-0.1604 109.74,2.4493 112.91,3.9593 115.87,6.7824 116.95,10.131 118.71,15.465 117.15,21.702 114.91,26.839 111.12,35.538 101.18,45.435 96.58,48.619 96.827,47.766 97.073,46.913 97.319,46.059 97.582,45.173 97.992,44.319 98.107,43.4 98.205,42.596 98.173,41.775 98.041,40.971 97.926,40.282 98.074,39.28 97.45,38.985 96.498,38.542 95.448,39.658 94.545,40.2 93.413,40.872 92.428,41.775 91.492,42.727 90.475,43.745 89.638,44.927 88.801,46.075 87.685,47.569 85.666,50.704 85.666,50.704 85.666,50.704 85.715,47.06 84.829,45.567 84.139,44.434 82.974,42.957 81.644,43.137 75.67,43.975 73.323,52.165 70.812,57.663 69.154,61.241 68.202,69.202 68.202,69.202 Z"
     id="1993-comics-sigil"
     inkscape:connector-curvature="0" />
  <path
     id="1993-cartoon-title"
     d="M 65.364,66.962 C 65.364,66.962 63.154,62.732 61.364,61.262 59.134,59.422 56.334,57.472 53.464,57.732 51.884,57.872 50.414,59.092 49.544,60.422 48.504,61.992 48.454,65.962 48.454,65.962 48.454,65.962 46.934,63.922 46.074,63.002 45.384,62.272 44.644,61.572 43.844,60.962 42.994,60.312 42.114,59.622 41.104,59.252 39.754,58.742 38.254,58.292 36.844,58.582 35.834,58.782 34.844,59.382 34.214,60.202 33.564,61.062 33.364,62.242 33.304,63.322 33.244,64.242 33.574,65.152 33.744,66.062 33.964,67.252 34.494,69.612 34.494,69.612 33.224,68.132 29.964,61.632 28.624,57.282 27.204,52.642 26.414,47.742 26.434,42.882 26.474,37.022 27.574,31.152 29.274,25.542 29.984,23.162 32.334,18.752 32.334,18.752 36.284,19.472 40.144,19.732 43.944,18.992 46.894,18.422 52.334,15.302 52.334,15.302 54.834,16.532 57.964,18.862 60.444,21.042 62.694,23.022 65.244,27.002 66.984,27.332 66.984,26.282 65.034,22.702 63.814,20.622 62.114,17.732 57.864,12.342 57.864,12.342 57.864,12.342 60.294,9.2419 61.284,7.5519 62.704,5.1319 64.854,0.59186 64.854,-0.08814 67.694,5.0719 64.364,6.4319 65.294,8.1519 70.574,9.5319 70.104,11.692 69.684,14.792 72.774,11.332 69.104,7.7219 69.104,7.7219 69.694,6.2319 70.344,4.1319 70.484,2.3719 72.544,3.7419 72.744,7.9819 71.434,10.682 72.794,11.442 67.064,22.552 68.084,23.542 70.584,25.212 73.314,26.372 77.144,26.152 73.754,27.432 70.734,27.612 67.574,27.612 72.384,29.112 81.034,27.952 86.764,24.942 90.404,23.032 94.254,19.082 94.894,15.482 96.774,19.062 95.474,23.582 93.504,26.022 96.644,23.552 97.554,19.922 97.034,15.922 98.924,19.042 100.89,22.372 101.28,27.332 102.53,25.472 102.66,23.282 102.75,21.072 105.97,27.082 109.1,35.822 109.82,43.692 110.59,52.172 109.61,61.022 106.74,69.062 106.74,69.062 106.16,66.522 105.76,65.282 105.22,63.602 104.6,61.942 103.83,60.362 103.22,59.122 102.62,57.832 101.71,56.792 100.67,55.602 99.474,54.442 98.004,53.862 97.114,53.512 96.074,53.462 95.124,53.622 94.414,53.742 93.764,54.122 93.154,54.512 92.234,55.102 91.384,55.822 90.694,56.672 89.934,57.602 88.914,59.812 88.914,59.812 88.914,59.812 84.944,56.612 82.554,55.902 80.304,55.242 77.764,55.052 75.524,55.732 72.704,56.572 70.184,58.512 68.294,60.752 66.814,62.502 65.364,66.962 65.364,66.962 Z"
     style="fill:#ff00ff;fill-opacity:1;stroke:#ff0000;stroke-width:0.12593;stroke-miterlimit:4;stroke-dasharray:none;stroke-opacity:1" />
  <path
     style="fill:#ff00ff;fill-opacity:1;stroke:#ff0008;stroke-width:0.15433;stroke-miterlimit:4;stroke-dasharray:none;stroke-opacity:1"
     d="M 68.22,69.245 C 67.217,62.146 65.442,53.952 60.669,48.226 58.533,45.68 55.31,42.733 52.015,43.226 50.18,43.504 49.052,45.649 48.223,47.3 47.453,48.844 47.311,52.378 47.311,52.378 47.311,52.378 45.901,47.763 44.878,45.588 44.103,43.936 43.318,42.223 42.094,40.881 40.981,39.646 39.589,38.628 38.082,37.933 36.474,37.208 34.643,36.406 32.907,36.745 30.894,37.146 28.958,38.566 27.887,40.31 26.79,42.1 26.997,44.461 26.977,46.56 26.958,48.412 27.29,50.279 27.674,52.084 28.017,53.705 29.099,56.837 29.099,56.837 25.323,54.183 19.349,48.118 17.246,42.223 15.369,36.961 15.277,30.742 17.151,25.48 19.559,18.736 25.107,13.212 30.849,8.9215 36.367,4.8012 45.12,1.9155 49.856,0.83524 49.856,0.83524 45.424,5.2024 44.045,7.9184 43.049,9.8937 42.1,12.162 42.41,14.338 42.685,16.267 43.903,18.103 45.372,19.369 46.915,20.711 49.003,21.56 51.04,21.714 52.836,21.853 54.716,21.329 56.299,20.465 57.834,19.631 59.239,18.366 60.091,16.838 61.8,13.767 61.553,9.9709 62.279,6.5296 62.711,4.4463 63.56,0.29513 63.56,0.29513 63.961,2.3321 64.362,4.3846 64.763,6.4216 64.763,6.4216 66.877,6.3444 67.927,6.3444 69.115,6.3444 71.476,6.4216 71.476,6.4216 71.955,4.4154 72.433,2.3939 72.911,0.38772 72.911,0.38772 73.544,4.4926 73.945,6.5296 74.609,9.8629 74.578,13.505 76.245,16.468 77.263,18.289 78.822,19.94 80.704,20.85 82.325,21.637 84.285,21.761 86.075,21.529 87.818,21.313 89.67,20.742 90.967,19.569 92.34,18.319 93.158,16.452 93.544,14.647 93.929,12.795 93.868,10.742 93.158,8.9987 91.8,5.6191 86.136,0.6192 86.136,0.6192 91.815,1.7457 102.29,5.8197 108.67,11.113 113.53,15.141 117.83,20.495 119.67,26.529 121.21,31.606 121.06,37.47 119.19,42.424 116.97,48.304 111.83,53.674 107.2,56.945 107.2,56.945 108.33,53.658 108.67,51.961 109.02,50.233 109.25,48.489 109.27,46.745 109.28,44.939 109.42,43.026 108.73,41.375 107.97,39.6 106.78,37.625 104.98,36.93 102.85,36.097 100.26,36.915 98.158,37.841 96.599,38.535 95.334,39.831 94.223,41.128 92.772,42.81 91.692,44.801 90.766,46.822 90.025,48.458 89.115,51.976 89.115,51.976 89.115,51.976 89.161,48.751 88.405,47.408 87.386,45.603 85.689,43.535 83.621,43.443 80.442,43.319 77.726,46.39 75.782,48.905 71.353,54.615 69.022,62.146 68.22,69.245 Z"
     id="1992-movie-sigil"
     inkscape:connector-curvature="0" />
  <path
     id="1991-comics-title"
     d="M 67.856,69.029 C 67.706,59.634 65.175,52.122 65.259,46.781 64.999,45.248 63.669,44.323 59.762,42.003 58.874,42.908 57.535,44.514 56.875,46.057 55.743,46.993 54.669,51.664 54.669,51.664 52.94,45.887 56.796,45.429 49.924,39.982 46.14,37.62 43.102,42.035 39.876,41.205 42.42,38.896 46.763,34.694 38.974,32.023 34.239,27.533 27.932,31.023 25.07,30.704 25.92,28.852 32.911,29.469 34.459,25.086 31.49,25.235 33.033,20.287 29.038,20.83 27.562,19.191 26.402,21.532 24.801,19.266 15.13,18.329 11.068,20.021 6.962,19.617 10.329,15.967 33.864,15.978 34.285,14.797 38.625,13.914 39.671,15.499 48.104,13.19 49.591,13.126 51.748,13.392 51.492,11.583 52.553,11.7 54.024,13.552 54.024,13.552 55.434,14.382 54.949,19.723 52.802,19.712 54.239,16.212 51.578,15.925 51.23,16.829 49.702,20.819 57.671,21.128 58.836,24.554 59.184,25.564 59.348,22.745 61.971,23.745 59.936,25.49 61.235,26.235 62.115,26.479 64.117,27.043 64.815,25.873 64.815,25.873 64.815,25.873 64.537,19.074 64.577,15.69 64.634,10.722 64.638,1.4114 65.083,0.85816 65.842,1.454 65.747,8.0508 65.939,9.615 65.939,9.615 66.657,10.009 67.054,10.094 67.538,10.19 68.538,10.094 68.538,10.094 68.73,8.5297 68.994,0.94328 69.579,0.56024 70.253,0.7092 70.162,11.669 70.489,15.18 70.914,19.734 69.953,17.861 70.477,26.203 71.826,26.724 72.709,27.703 73.017,26.405 75.157,25.298 74.573,24.586 73.093,23.819 75.496,22.511 76.148,24.841 77.062,24.873 76.515,21.096 86.273,20.596 84.48,16.882 83.911,15.701 80.786,16.754 82.829,19.489 77.88,16.776 82.29,11.924 83.179,11.956 83.179,12.828 89.629,14.233 93.416,13.967 94.866,15.307 99.688,14.233 103.71,15.073 112.96,15.073 113.46,16.903 116.54,15.882 117.64,17.318 128.01,18.01 129.49,19.414 126.01,18.84 117.13,18.042 114.71,19.51 107.08,18.925 109.12,20.659 105.11,20.138 103.7,21.245 103.22,23.936 101.05,25.139 101.93,27.99 110.48,30.512 109.88,31.448 108.98,29.384 94.317,28.863 97.198,31.608 86.843,35.109 95.466,39.992 95.71,40.822 95.172,41.801 89.55,37.449 84.763,39.918 81.511,42.94 81.494,45.344 81.392,51.579 81.392,51.579 78.395,43.067 75.366,42.227 73.711,42.578 71.44,44.067 70.416,45.312 70.599,48.536 69.78,53.197 69.352,56.984 68.123,61.666 68.866,61.868 67.856,69.029 Z"
     style="fill:#ff00ff;fill-opacity:1;stroke:#ff0000;stroke-width:0.11633;stroke-miterlimit:4;stroke-dasharray:none;stroke-opacity:1"
     inkscape:connector-curvature="0" />
  <path
     style="fill:#ff00ff;fill-opacity:1;stroke:#fa0000;stroke-width:0.15233;stroke-miterlimit:4;stroke-dasharray:none;stroke-opacity:1"
     d="M 68.163,69.201 C 68.163,69.201 68.01,64.021 66.792,61.736 66.03,60.061 64.812,58.538 63.288,57.471 62.07,56.862 60.546,56.557 59.175,56.557 57.5,56.557 54.606,57.776 54.606,57.776 54.606,57.776 56.434,54.425 56.281,52.597 55.824,49.855 54.149,46.961 51.864,45.437 48.969,43.609 44.857,43.152 41.658,44.066 38.916,44.828 36.174,47.113 34.955,49.398 34.955,49.398 34.041,44.98 32.518,43.609 30.385,41.934 27.293,40.822 24.749,41.629 22.266,42.421 19.936,44.98 19.661,47.57 19.159,52.46 26.73,60.518 26.73,60.518 20.941,57.471 14.543,50.769 11.954,43.762 10.126,38.887 10.278,32.946 12.106,28.072 13.782,23.197 16.524,20.912 21.855,16.038 28.253,10.249 41.201,5.6796 46.228,4.6133 43.333,6.4413 40.591,8.2692 39.373,11.011 38.154,13.144 37.697,16.038 38.459,18.323 39.22,20.455 41.353,21.674 43.181,22.74 44.857,23.807 46.989,24.416 48.969,24.568 50.95,24.873 53.082,24.873 54.758,23.959 57.043,22.893 59.48,20.76 59.785,18.323 59.785,18.323 60.333,12.946 60.546,10.249 60.805,6.9592 61.156,0.34815 61.156,0.34815 61.917,3.2424 62.679,6.1366 63.441,9.0309 63.441,9.0309 66.487,7.6599 68.163,7.6599 69.838,7.6599 72.885,9.0309 72.885,9.0309 73.692,6.1366 74.515,3.2424 75.322,0.34815 75.322,0.34815 75.673,7.1572 75.932,10.554 76.099,12.839 76.541,17.409 76.541,17.409 76.693,19.998 78.216,21.522 79.892,22.74 81.415,23.959 83.396,24.568 85.224,24.721 87.813,24.873 90.25,24.111 92.535,23.045 94.363,22.131 96.496,21.065 97.41,19.237 98.476,17.104 98.628,14.362 97.714,12.23 96.496,8.8785 94.516,6.4413 90.403,4.461 98.781,6.5936 110.36,11.773 117.82,18.78 121.32,22.131 123.91,26.701 125.13,31.423 126.19,35.841 126.19,40.867 124.37,45.133 121.47,51.683 114.78,57.319 109.75,60.518 109.75,60.518 116.9,53.054 116.9,48.332 116.9,45.894 115.23,43.152 113.1,42.086 110.81,40.867 107.46,41.172 105.33,42.543 103.05,43.914 101.52,47.722 101.52,49.55 100.3,47.722 97.41,44.98 94.668,44.219 91.774,43.305 88.27,43.457 85.528,44.828 83.243,45.894 81.263,48.332 80.654,50.769 80.044,52.749 80.349,55.948 82.329,58.081 82.329,58.081 78.826,56.557 76.998,56.557 75.475,56.557 73.799,57.014 72.58,57.928 71.209,58.842 70.295,60.518 69.686,62.041 68.62,64.174 68.163,69.201 68.163,69.201 Z"
     id="1989-movie-sigil"
     inkscape:connector-curvature="0" />
  <path
     style="fill:#ff00ff;fill-opacity:1;stroke:#ff0000;stroke-width:0.15653;stroke-miterlimit:4;stroke-dasharray:none;stroke-opacity:1"
     d="M 68.325,66.979 C 68.325,66.979 64.287,58.933 61.015,55.975 58.62,53.815 55.662,51.608 52.438,51.467 50.481,51.373 48.524,52.484 47.006,53.737 46.098,54.504 45.049,56.758 45.049,56.758 45.049,56.758 41.95,54.097 40.181,53.126 38.82,52.359 37.333,51.764 35.814,51.436 34.359,51.123 32.809,50.935 31.338,51.185 29.71,51.451 27.988,51.952 26.751,53.048 25.875,53.83 25.311,54.989 25.045,56.131 24.763,57.258 24.92,58.464 25.155,59.591 25.421,60.89 25.953,62.158 26.595,63.316 27.237,64.427 28.943,66.368 28.943,66.368 20.631,63.285 11.568,58.777 5.9017,51.639 2.3798,47.194 -0.4064,41.246 0.25102,35.611 1.0493,28.567 6.3087,22.321 11.662,17.672 19.332,11.036 35.689,6.2145 39.414,5.1658 39.414,5.1658 35.564,8.4998 34.859,10.816 34.374,12.366 34.687,14.151 35.251,15.669 35.939,17.563 37.223,19.285 38.773,20.584 40.541,22.071 42.795,22.979 45.034,23.574 47.476,24.215 50.184,24.81 52.61,24.09 54.535,23.511 57.259,22.384 57.415,20.474 57.415,20.474 58.48,12.867 59.059,9.079 59.387,6.9033 60.107,2.5831 60.107,2.5831 61.688,4.7901 63.504,6.9972 64.522,9.2042 64.522,9.2042 67.057,9.1729 68.325,9.1729 69.546,9.1729 71.988,9.2042 71.988,9.2042 73.428,7.0441 74.852,4.8684 76.292,2.7083 76.292,2.7083 76.981,7.3415 77.373,9.6582 77.999,13.509 79.376,21.21 79.376,21.21 79.501,22.4 81.74,23.401 83.242,23.855 85.669,24.575 88.345,24.247 90.818,23.683 93.291,23.135 95.827,22.212 97.768,20.584 99.474,19.159 100.98,17.234 101.52,15.09 101.92,13.587 101.68,11.912 101.1,10.472 100.27,8.359 96.939,5.0875 96.939,5.0875 101.43,5.9954 118.66,11.74 126.73,19.191 131.44,23.527 135.76,29.459 136.31,35.845 136.78,41.48 133.94,47.335 130.4,51.749 124.82,58.698 114.3,63.567 107.85,66.181 107.85,66.181 108.91,64.913 109.35,64.224 110.06,63.16 110.85,62.095 111.17,60.859 111.54,59.372 111.53,57.744 111.17,56.257 110.85,55.004 110.35,53.658 109.37,52.813 108.13,51.764 106.38,51.451 104.77,51.295 102.96,51.138 101.15,51.545 99.412,52.015 97.987,52.39 96.594,52.923 95.342,53.69 94.043,54.488 91.836,56.632 91.836,56.632 91.836,56.632 90.255,53.862 88.94,53.063 87.03,51.905 84.573,51.263 82.381,51.702 79.486,52.281 77.138,54.566 75.072,56.679 72.191,59.606 68.325,66.979 68.325,66.979 Z"
     id="1989-movie-logo"
     inkscape:connector-curvature="0" />
  <path
     style="fill:#ff00ff;fill-opacity:1;stroke:#ff0008;stroke-width:0.17601;stroke-miterlimit:4;stroke-dasharray:none;stroke-opacity:1"
     d="M 68.197,67.497 C 66.279,65.279 56.581,57.465 49.559,54.756 46.479,53.577 42.924,52.468 39.774,53.419 38.823,53.7 37.803,54.422 37.556,55.371 37.222,56.69 38.929,59.172 38.929,59.172 38.067,59.612 36.852,57.518 35.726,56.796 34.776,56.198 33.755,55.722 32.752,55.195 31.854,54.739 31.027,54.052 30.041,53.823 28.862,53.542 27.278,52.961 26.433,53.806 25.395,54.844 26.117,56.796 26.486,58.222 26.909,59.753 27.965,61.055 28.827,62.41 29.637,63.66 30.552,64.839 31.502,66.018 32.065,66.722 33.28,68.06 33.28,68.06 29.073,66.652 20.238,61.143 15.962,55.423 11.474,49.406 7.9538,41.697 8.429,34.218 8.9394,26.21 13.762,18.554 19.288,12.746 25.043,6.6918 35.832,1.9224 41.059,0.3736 41.059,0.3736 38.507,2.8727 37.328,4.2103 36.377,5.3015 35.48,6.4103 34.67,7.607 33.984,8.6278 33.332,10.106 32.699,11.585 34.705,12.025 37.75,12.746 40.055,13.133 43.259,13.679 46.497,14.101 49.735,14.436 52.446,14.717 55.261,15.034 58.007,15.034 58.007,13.608 58.693,10.705 59.503,8.7686 60.577,6.1815 61.985,3.7879 63.762,1.5 63.674,3.8231 63.252,6.3399 63.938,8.663 63.938,8.663 66.631,6.6742 68.197,6.6566 69.869,6.639 72.773,8.751 72.773,8.751 73.002,6.3223 72.984,3.7703 72.667,1.3416 73.882,3.1015 76.135,6.639 77.261,9.5782 77.912,11.268 78.194,13.397 78.194,15.404 80.358,15.157 83.914,14.876 86.694,14.559 89.721,14.224 92.766,13.996 95.776,13.485 98.398,13.045 101.25,12.341 103.85,11.708 103.85,11.708 102.73,9.1382 101.99,7.959 101.14,6.6214 100.14,5.4071 99.102,4.2103 97.94,2.8551 95.371,0.3736 95.371,0.3736 104.03,3.0487 112.6,7.607 118.69,14.312 123.6,19.716 127.65,26.808 128.08,34.094 128.51,41.293 125.39,48.755 121.17,54.598 116.46,61.126 101.88,69.169 101.88,69.169 101.88,69.169 103.91,67.127 104.82,66.036 105.83,64.874 106.79,63.695 107.62,62.41 108.41,61.178 109.22,59.929 109.63,58.521 110.03,57.148 110.84,55.423 110.01,54.246 109.54,53.56 108.45,53.56 107.62,53.595 106.14,53.665 104.77,54.475 103.47,55.159 102.48,55.687 101.6,56.426 100.72,57.113 99.524,58.046 97.289,60.052 97.289,60.052 97.289,60.052 98.398,57.87 98.521,56.673 98.609,55.722 98.803,54.422 98.046,53.823 95.494,51.817 91.429,53.524 88.349,54.563 80.781,57.095 70.292,65.226 68.197,67.497 Z"
     id="1987-comics-sigil"
     inkscape:connector-curvature="0" />
  <path
     style="fill:#ff00ff;fill-opacity:1;stroke:#ff0000;stroke-width:0.18086;stroke-miterlimit:4;stroke-dasharray:none;stroke-opacity:1"
     d="M 68.151,65.206 C 68.151,65.206 64.552,58.389 61.406,56.471 59.652,55.405 57.246,54.554 55.366,55.369 53.864,56.02 53.104,57.918 52.707,59.527 52.218,61.482 53.702,64.718 53.231,65.55 53.231,65.55 50.428,63.217 48.874,62.277 47.572,61.462 46.198,60.686 44.732,60.197 43.303,59.727 41.784,59.42 40.283,59.437 39.017,59.437 37.643,59.491 36.54,60.125 35.562,60.686 34.713,61.607 34.333,62.674 34.116,63.27 34.297,63.941 34.405,64.574 34.515,65.315 34.713,66.075 35.038,66.762 35.382,67.539 36.395,68.913 36.395,68.913 28.528,64.736 22.614,58.876 18.4,51.733 15.2,46.307 13.517,39.744 13.59,33.431 13.662,27.247 15.562,20.918 18.708,15.582 22.361,9.4332 29.234,3.2482 33.953,0.44557 33.953,0.44557 34.009,2.1099 34.243,2.9045 34.604,4.1354 35.201,5.2924 35.961,6.3233 36.901,7.589 38.113,8.6198 39.378,9.5612 40.465,10.374 41.675,11.025 42.904,11.586 44.443,12.273 46.052,12.833 47.698,13.177 49.65,13.593 51.134,13.738 53.684,13.738 54.118,11.369 54.679,9.3433 55.619,7.3178 56.776,4.8575 60.104,0.53586 60.104,0.53586 60.285,2.4347 59.941,5.1299 60.121,7.028 60.121,7.028 65.493,6.7031 68.17,6.7205 70.846,6.7393 76.163,7.1192 76.163,7.1192 76.344,5.1836 76.054,2.6333 76.236,0.6987 76.236,0.6987 79.652,5.1112 80.792,7.6252 81.66,9.5612 82.021,11.495 82.474,13.756 84.699,13.593 86.471,13.647 88.425,13.268 89.925,12.978 91.39,12.454 92.819,11.875 94.067,11.369 95.314,10.808 96.436,10.048 97.593,9.2708 98.677,8.3487 99.582,7.299 100.43,6.3045 101.19,5.2011 101.68,3.9904 102.15,2.8321 102.48,0.33691 102.48,0.33691 106.14,2.6884 113.16,8.7098 116.7,14.335 120.09,19.688 122.74,25.944 122.92,32.274 123.09,39.851 120.6,47.682 116.57,54.085 112.57,60.432 106.53,65.369 99.8,69.112 99.8,69.112 100.5,67.901 100.8,67.25 101.1,66.544 101.46,65.839 101.59,65.08 101.74,64.212 101.83,63.29 101.5,62.477 101.1,61.499 100.31,60.631 99.383,60.125 98.189,59.457 96.707,59.42 95.35,59.437 93.994,59.457 92.657,59.799 91.39,60.25 89.925,60.758 88.55,61.499 87.248,62.349 85.567,63.452 82.583,66.22 82.583,66.22 82.583,66.22 83.56,61.843 83.144,59.691 82.837,58.135 82.385,56.127 80.937,55.459 78.731,54.445 75.856,55.784 73.83,57.141 71.098,58.985 68.151,65.206 68.151,65.206 Z"
     id="1986-novel-sigil-1"
     inkscape:connector-curvature="0" />
  <path
     style="fill:#ff00ff;fill-opacity:1;stroke:#ff0000;stroke-width:0.16006;stroke-miterlimit:4;stroke-dasharray:none;stroke-opacity:1"
     d="M 68.277,69.054 C 68.277,69.054 65.396,56.074 61.283,51.195 59.171,48.682 56.098,45.513 52.881,46.09 51.089,46.41 50.192,48.698 49.456,50.363 48.64,52.251 48.496,56.442 48.496,56.442 48.496,56.442 45.759,51.403 43.999,49.13 42.462,47.146 40.702,45.305 38.766,43.705 37.613,42.745 36.461,41.688 35.037,41.24 33.084,40.648 30.652,40.024 28.923,41.096 27.291,42.105 26.843,44.409 26.507,46.298 26.106,48.474 26.475,50.795 27.051,52.923 27.723,55.354 29.083,57.547 30.364,59.707 31.42,61.484 33.964,64.781 33.964,64.781 29.867,62.588 20.889,55.93 17.384,49.194 14.456,43.561 13.095,36.503 14.648,30.342 16.488,23.108 22.137,16.994 27.979,12.369 34.989,6.8158 43.679,3.391 52.577,1.7266 52.577,1.7266 47.424,5.0234 45.471,7.3279 43.807,9.2804 42.11,11.521 41.742,14.066 41.438,16.21 41.854,18.675 43.151,20.403 44.719,22.484 47.424,23.748 50,24.164 52.433,24.564 55.17,24.148 57.266,22.868 58.899,21.876 59.955,20.067 60.723,18.323 62.035,15.33 62.147,11.921 62.403,8.6563 62.627,5.9516 62.307,0.49426 62.307,0.49426 63.236,2.7668 64.18,5.4715 65.108,7.7441 65.108,7.7441 67.221,7.696 68.277,7.712 69.381,7.728 71.59,7.8081 71.59,7.8081 72.326,5.4395 73.318,2.8628 74.054,0.49426 74.054,0.49426 74.07,6.2717 74.342,9.1364 74.646,12.113 74.694,15.234 75.815,18.019 76.583,19.891 77.575,21.924 79.304,22.98 81.48,24.308 84.345,24.388 86.857,24.004 89.018,23.668 91.291,22.804 92.779,21.203 94.267,19.619 95.26,17.298 95.131,15.138 94.939,12.161 92.779,9.5525 90.858,7.2639 88.778,4.7993 83.273,1.2785 83.273,1.2785 83.273,1.2785 100.65,5.7276 107.5,11.121 114.05,16.29 120.28,23.348 122.04,31.494 123.48,38.12 121.51,45.577 118.11,51.435 114.64,57.451 102.4,65.101 102.4,65.101 102.4,65.101 105.39,61.212 106.62,59.099 107.6,57.467 108.56,55.77 109.1,53.946 109.82,51.611 110.46,49.114 110.14,46.698 109.9,44.761 109.55,42.297 107.87,41.272 105.9,40.072 103.17,41.064 100.97,41.8 99.068,42.441 97.388,43.737 95.916,45.113 94.411,46.474 93.339,48.234 92.155,49.882 90.73,51.867 88.122,56.01 88.122,56.01 88.122,56.01 88.058,51.483 87.001,49.562 86.137,48.01 84.809,46.106 83.033,46.009 79.672,45.801 76.823,49.146 74.774,51.803 70.998,56.667 68.277,69.054 68.277,69.054 Z"
     id="1970-comics-sigil"
     inkscape:connector-curvature="0" />
  <path
     style="fill:#ff00ff;fill-opacity:1;stroke:#ff0000;stroke-width:0.19012;stroke-miterlimit:4;stroke-dasharray:none;stroke-opacity:1"
     d="M 67.837,69.131 C 67.095,63.56 64.624,58.066 60.802,54.055 58.046,51.184 54.187,49.093 50.251,48.523 47.381,48.123 44.396,49.112 41.754,50.272 39.909,51.09 36.887,53.808 36.887,53.808 36.887,53.808 35.233,49.473 33.902,47.61 32.837,46.109 31.507,44.816 30.043,43.713 28.75,42.743 27.325,41.907 25.804,41.356 24.245,40.785 22.591,40.329 20.918,40.386 19.321,40.443 17.686,40.919 16.26,41.679 15.063,42.344 13.941,43.257 13.143,44.397 12.345,45.519 12.04,46.945 11.66,48.276 11.298,49.55 10.899,52.173 10.899,52.173 10.899,52.173 5.6335,44.132 4.5308,39.55 3.3521,34.702 3.3332,29.455 4.4168,24.588 5.4243,20.178 7.6296,15.996 10.329,12.365 13.523,8.0491 22.173,1.4143 22.173,1.4143 22.173,1.4143 23.941,5.1974 25.234,6.8133 26.621,8.5624 28.333,10.083 30.196,11.319 31.735,12.345 33.427,13.239 35.233,13.657 37.382,14.19 39.663,14.151 41.849,13.886 43.674,13.676 45.461,13.143 47.134,12.402 48.655,11.738 50.118,10.901 51.354,9.8165 52.59,8.7334 53.56,7.3647 54.453,5.9958 55.518,4.399 57.133,0.901 57.133,0.901 57.133,0.901 60.46,4.7032 62.647,5.8248 64.301,6.6612 66.202,7.0035 68.045,7.0225 69.871,7.0414 71.81,6.8323 73.445,5.9958 75.764,4.7982 79.11,0.57778 79.11,0.57778 79.11,0.57778 80.478,4.5891 81.639,6.3381 82.38,7.4787 83.368,8.4482 84.395,9.3228 85.783,10.52 87.285,11.624 88.957,12.402 90.973,13.334 93.178,14.114 95.402,14.228 97.816,14.361 100.25,13.772 102.53,13.011 104.49,12.345 106.43,11.451 108.06,10.16 109.45,9.0756 110.54,7.6118 111.51,6.1479 112.42,4.7792 113.74,1.7565 113.74,1.7565 113.74,1.7565 122.15,7.7068 125.27,11.699 128.49,15.786 131.24,20.52 132.32,25.596 133.35,30.425 132.9,35.615 131.57,40.367 130.39,44.55 125.36,51.831 125.36,51.831 125.36,51.831 124.94,49.587 124.59,48.504 124.07,46.964 123.6,45.348 122.6,44.055 121.7,42.858 120.49,41.812 119.13,41.185 117.57,40.463 115.76,40.158 114.07,40.31 112.03,40.5 110.12,41.413 108.35,42.42 106.6,43.428 105.02,44.759 103.66,46.26 102.67,47.325 101.91,48.618 101.16,49.872 100.42,51.127 99.185,53.808 99.185,53.808 99.185,53.808 95.915,50.538 93.824,49.74 90.84,48.599 87.399,48.351 84.262,48.96 81.372,49.53 78.483,50.861 76.373,52.914 72,57.192 69.206,63.332 67.837,69.131 Z"
     id="1966-tv-sigil"
     inkscape:connector-curvature="0" />
  <path
     style="fill:#ff00ff;fill-opacity:1;stroke:#ff0000;stroke-width:0.17398;stroke-miterlimit:4;stroke-dasharray:none;stroke-opacity:1"
     d="M 68.138,69.236 C 67.721,64.643 66.086,56.85 62.258,52.257 60.849,50.57 58.71,49.282 56.535,49.021 54.343,48.76 51.942,49.508 50.185,50.813 47.385,52.901 44.514,59.668 44.514,59.668 44.514,59.668 43.714,55.632 42.966,53.736 42.183,51.787 41.244,49.856 39.991,48.169 39.104,46.986 38.077,45.838 36.808,45.055 35.329,44.168 33.624,43.472 31.884,43.454 30.214,43.437 28.51,44.029 27.1,44.933 25.222,46.151 23.882,48.082 22.664,49.926 21.551,51.631 20.699,53.527 20.072,55.458 19.463,57.372 18.959,61.407 18.959,61.407 17.272,57.546 16.263,51.109 16.176,45.838 16.089,40.567 16.767,35.174 18.437,30.164 20.142,25.032 22.96,20.23 26.231,15.916 29.292,11.88 33.485,8.053 37.138,5.3044 37.138,5.3044 37.608,8.1574 38.304,9.3925 39.069,10.784 40.287,11.915 41.539,12.889 42.827,13.881 44.288,14.629 45.801,15.168 47.68,15.829 49.698,16.247 51.681,16.281 53.508,16.299 55.352,15.934 57.109,15.429 58.205,15.133 60.275,14.107 60.275,14.107 60.275,14.107 61.336,8.8184 61.736,6.1568 62.015,4.3128 62.38,0.60737 62.38,0.60737 62.919,2.4166 63.476,4.2432 64.015,6.0524 64.015,6.0524 66.729,6.1394 68.086,6.1568 69.513,6.1568 72.366,6.0524 72.366,6.0524 72.87,4.1388 73.392,2.2252 73.896,0.31164 73.896,0.31164 74.401,4.2084 74.697,6.1568 75.079,8.8184 75.967,14.107 75.967,14.107 75.967,14.107 78.315,15.133 79.533,15.464 80.907,15.847 82.334,16.194 83.76,16.212 85.917,16.247 88.127,16.021 90.145,15.29 92.493,14.455 94.789,13.202 96.581,11.463 97.486,10.575 98.199,9.4447 98.617,8.2618 98.982,7.2702 99.034,5.1304 99.034,5.1304 101.26,6.6961 107.89,12.489 111.18,17.151 114.52,21.883 116.92,27.311 118.54,32.86 119.82,37.244 120.45,41.889 120.33,46.464 120.19,51.613 117.51,61.651 117.51,61.651 117.51,61.651 116.8,57.372 116.13,55.301 115.58,53.527 114.92,51.753 113.94,50.169 112.83,48.36 111.58,46.516 109.84,45.316 108.24,44.22 106.29,43.42 104.36,43.402 102.64,43.368 100.9,44.029 99.452,44.951 97.903,45.942 96.773,47.525 95.746,49.056 94.789,50.465 94.111,52.066 93.485,53.649 92.771,55.51 91.832,59.39 91.832,59.39 91.832,59.39 89.205,53.527 86.839,51.474 85.221,50.065 83.099,48.743 80.959,48.847 78.298,48.969 75.706,50.744 73.983,52.796 70.243,57.25 68.591,65.043 68.138,69.236 Z"
     id="1964-comics-sigil"
     inkscape:connector-curvature="0" />
  <path
     id="1960-comics-title"
     d="M 69.319,59.951 C 68.439,58.918 65.54,56.268 63.268,55.008 61.372,53.95 59.27,53.13 57.113,52.905 55.39,52.726 53.563,52.905 51.957,53.546 50.965,53.95 49.978,54.521 49.39,55.483 48.661,54.366 47.9,54.14 47.023,53.677 46.044,53.166 44.972,52.726 43.869,52.631 41.487,52.417 39.005,52.81 36.765,53.653 35.371,54.176 33.016,56.077 33.016,56.077 30.938,55.008 29.367,54.818 27.499,54.972 24.769,55.222 22.218,56.6 19.842,57.967 17.154,59.512 14.785,61.591 12.555,63.742 10.856,65.382 7.9635,69.137 7.9635,69.137 8.1382,61.461 8.9867,54.402 10.95,47.688 13.151,40.177 16.638,33.012 20.749,26.345 23.785,21.414 27.526,16.898 31.594,12.786 36.071,8.2587 44.663,1.9841 46.374,0.66506 46.374,0.66506 44.453,2.8635 44.206,4.2301 44.024,5.2402 44.32,6.3336 44.787,7.2486 45.245,8.1517 46.072,8.8291 46.859,9.4589 47.856,10.267 49,10.873 50.154,11.42 52.156,12.37 54.249,13.167 56.397,13.713 58.204,14.177 61.931,14.545 61.931,14.545 61.956,13.689 61.913,11.051 61.911,9.3044 61.907,6.3811 61.925,0.54622 61.925,0.54622 62.405,1.9128 63.864,7.7001 64.244,8.9954 64.244,8.9954 67.726,7.51 69.58,7.4149 71.137,7.3318 74.191,8.2824 74.191,8.2824 74.844,6.904 77.138,1.5801 77.649,0.22537 77.613,3.2081 77.186,5.2045 76.972,7.7001 76.781,9.958 76.425,14.486 76.425,14.486 76.425,14.486 77.887,14.379 78.6,14.26 80.774,13.903 82.973,13.523 85.052,12.822 86.882,12.204 88.712,11.491 90.317,10.421 91.671,9.5183 93.204,8.5676 93.894,7.106 94.452,5.9176 94.512,4.4202 94.119,3.1725 93.751,2.0316 91.885,0.35609 91.885,0.35609 97.126,3.7666 102.34,7.9854 106.91,12.525 110.2,15.793 113.11,19.429 115.71,23.256 119.05,28.151 122.31,33.226 124.38,38.775 127.97,48.389 130.19,53.725 130.66,68.912 130.66,68.912 128.16,65.679 126.69,64.253 124.39,62.007 122.01,59.738 119.2,58.169 116.2,56.505 112.9,54.794 109.48,54.818 108.12,54.818 106.59,55.626 105.67,56.161 103.88,54.818 102.16,53.725 100.17,53.071 98.694,52.596 97.09,52.406 95.557,52.524 94.203,52.631 92.836,52.988 91.636,53.606 90.78,54.045 90.34,54.461 89.414,55.4 88.237,53.915 86.241,53.249 84.411,52.893 82.735,52.572 80.964,52.881 79.313,53.321 77.316,53.855 75.427,54.806 73.704,55.959 72.064,57.052 69.818,59.298 69.319,59.951 Z"
     style="fill:none;fill-opacity:1;stroke:#ff0008;stroke-width:0.12832;stroke-miterlimit:4;stroke-dasharray:none;stroke-opacity:1"
     inkscape:connector-curvature="0" />
  <path
     style="fill:#ff00ff;fill-opacity:1;stroke:#ff0008;stroke-width:0.13589;stroke-miterlimit:4;stroke-dasharray:none;stroke-opacity:1"
     d="M 67.291,59.984 C 66.254,58.066 63.934,55.858 61.7,54.491 58.796,52.704 55.459,51.469 52.082,51.035 47.621,50.444 42.904,50.759 38.631,52.165 35.513,53.19 32.536,54.754 30.248,57.343 30.248,57.343 28.045,55.451 26.803,54.715 25.753,54.097 24.599,53.65 23.457,53.217 22.529,52.862 21.585,52.547 20.619,52.323 18.934,51.916 17.219,51.574 15.49,51.482 14.018,51.39 12.538,51.548 11.071,51.692 9.8327,51.811 8.5961,51.968 7.3819,52.244 5.9995,52.56 4.6302,52.954 3.3095,53.466 2.303,53.861 0.39359,54.886 0.39359,54.886 0.39359,54.886 5.1637,46.436 8.0547,42.559 10.96,38.657 14.146,34.925 17.725,31.639 21.599,28.065 25.896,24.951 30.382,22.191 33.683,20.167 40.794,17.04 40.794,17.04 42.864,18.827 45.695,19.839 48.395,20.535 51.653,21.39 58.467,21.337 58.467,21.337 58.467,21.337 54.162,22.73 52.213,23.847 50.69,24.714 48.05,27.066 48.05,27.066 50.22,25.66 51.878,24.767 53.965,24.005 55.493,23.453 58.726,22.953 58.726,22.953 58.146,19.09 56.583,14.149 58.89,11.56 58.884,10.877 58.877,10.194 58.87,9.5102 59.487,9.6285 60.103,9.7599 60.719,9.8781 59.442,11.494 58.449,13.4 58.367,15.016 59.462,14.044 60.42,13.531 61.627,13.321 62.952,13.098 64.633,12.966 65.618,13.886 67.959,16.054 67.673,23.242 67.673,23.242 62.514,26.094 47.786,32.099 36.99,39.064 36.99,39.064 69.533,21.915 72.312,24.189 74.052,25.608 65.438,29.366 65.15,30.706 79.387,22.953 73.204,30.733 65.6,37.027 69.748,33.9 80.202,27.421 73.316,23.032 73.647,22.598 73.978,22.152 74.31,21.718 78.898,22.073 89.619,17.947 93.395,13.794 98.561,15.936 102.86,17.789 107.24,20.457 111.23,22.888 115.07,25.673 118.46,28.893 122.73,32.967 126.59,37.54 129.8,42.507 132.43,46.581 136.15,55.595 136.15,55.595 136.15,55.595 133.28,53.663 131.73,52.928 130.35,52.271 128.91,51.771 127.43,51.39 125.83,50.97 124.18,50.707 122.53,50.562 121.06,50.444 119.59,50.418 118.13,50.523 116.46,50.628 114.81,50.838 113.18,51.246 111.82,51.574 110.51,52.047 109.23,52.612 107.94,53.19 106.7,53.874 105.52,54.649 104.3,55.464 102.08,57.395 102.08,57.395 100.45,55.871 97.434,54.321 94.813,53.466 91.586,52.428 88.109,51.955 84.72,52.139 81.105,52.336 77.436,53.151 74.17,54.715 71.567,55.963 69.187,57.619 67.291,59.984 Z"
     id="1957-comics-title"
     inkscape:connector-curvature="0" />
  <path
     id="1949-movie-sigil"
     d="M 68.212,62.586 C 68.212,62.586 64.756,55.225 62.273,52.053 59.565,48.582 56.722,44.707 52.683,42.986 49.436,41.595 45.621,41.984 42.12,42.433 39.128,42.807 33.502,45.171 33.502,45.171 32.455,40.204 31.707,35.61 28.685,32.349 27.428,31.002 26.859,30.943 25.767,30.643 24.511,30.284 23.149,30.389 21.847,30.569 19.169,30.928 15.818,32.244 14.068,32.858 14.068,32.858 13.335,29.102 12.527,27.397 11.539,25.332 10.253,23.357 8.5919,21.786 7.395,20.664 5.9138,19.811 4.4028,19.168 3.1011,18.615 0.25851,18.136 0.25851,18.136 0.25851,18.136 3.4602,16.221 5.1209,15.368 7.5596,14.111 10.088,13.019 12.587,11.912 14.172,11.209 15.728,10.506 17.344,9.8922 20.187,8.815 25.992,6.9897 25.992,6.9897 25.992,6.9897 29.119,9.219 30.719,10.281 32.32,11.343 33.906,12.421 35.582,13.363 37.272,14.306 39.023,15.144 40.788,15.922 42.554,16.7 44.334,17.403 46.159,18.046 48.104,18.719 50.079,19.393 52.099,19.871 53.894,20.305 57.56,20.799 57.56,20.799 59.999,19.617 63.589,16.011 64.666,12.84 63.694,11.433 62.407,10.027 62.662,8.6654 62.662,8.6654 64.726,8.7552 65.579,9.2489 66.806,9.967 68.347,12.481 68.347,12.481 68.347,12.481 69.604,10.236 70.636,9.5631 71.608,8.9347 74.017,8.7252 74.017,8.7252 74.017,8.7252 74.107,11.164 71.997,12.75 73.269,15.937 75.827,18.989 79.149,20.874 79.149,20.874 82.47,20.365 84.116,19.961 85.986,19.512 87.826,18.854 89.667,18.256 91.372,17.687 93.108,17.178 94.753,16.475 96.803,15.622 98.778,14.62 100.74,13.558 102.65,12.51 104.55,11.418 106.36,10.176 107.84,9.1591 110.63,6.8701 110.63,6.8701 110.63,6.8701 114.19,8.0969 115.96,8.7402 119.43,10.012 122.93,11.224 126.3,12.69 128.45,13.633 130.55,14.65 132.58,15.817 133.85,16.55 136.28,18.226 136.28,18.226 136.28,18.226 133.21,18.794 131.8,19.452 130.13,20.245 128.5,21.278 127.24,22.639 125.68,24.315 124.61,26.424 123.75,28.549 123.2,29.925 122.74,32.917 122.74,32.917 122.74,32.917 116.72,30.449 113.54,30.299 112.45,30.239 111.3,30.419 110.31,30.883 109.01,31.496 107.81,32.484 107.02,33.681 104.79,37.032 103.3,43.286 103.33,45.186 103.33,45.186 97.686,42.747 94.679,42.373 91.073,41.939 87.153,41.7 83.832,43.151 79.792,44.946 76.965,48.821 74.227,52.292 71.758,55.404 68.212,62.586 68.212,62.586 Z"
     style="fill:#ff00ff;fill-opacity:1;stroke:#ff0000;stroke-width:0.13543;stroke-miterlimit:4;stroke-dasharray:none;stroke-opacity:1"
     inkscape:connector-curvature="0" />
  <path
     style="fill:#ff00ff;fill-opacity:1;stroke:#ff0008;stroke-width:0.14634;stroke-miterlimit:4;stroke-dasharray:none;stroke-opacity:1"
     d="M 71.483,66.529 C 71.483,66.529 70.046,63.29 68.894,61.975 67.092,59.928 64.896,58.005 62.335,57.056 58.662,55.687 54.406,55.334 50.598,56.229 47.21,57.042 43.591,59.482 41.64,61.569 40.921,59.725 39.403,57.761 37.682,56.459 35.703,54.955 33.251,53.844 30.77,53.668 28.25,53.492 25.525,54.114 23.411,55.511 21.825,56.554 20.456,58.315 19.955,60.024 18.682,58.709 17.76,57.096 16.215,56.229 14.494,55.28 12.42,54.968 10.456,54.942 8.72,54.914 6.8903,55.158 5.3463,55.931 3.2858,56.947 0.19579,60.497 0.19579,60.497 0.19579,60.497 5.3594,48.316 8.5438,42.542 11.119,37.893 14.06,33.448 17.204,29.165 20.322,24.924 23.71,20.871 27.287,17.023 31.665,12.306 39.214,5.1367 41.165,3.6323 41.165,3.6323 43.537,5.4756 44.757,6.3429 45.746,7.0477 46.763,7.7386 47.792,8.3897 48.904,9.0945 50.029,9.7587 51.18,10.409 52.468,11.141 53.756,11.859 55.084,12.496 56.44,13.147 57.849,13.701 59.231,14.298 60.301,14.759 62.43,15.681 62.43,15.681 62.632,14.759 62.294,12.686 62.538,11.222 62.891,9.1481 63.419,3.9305 63.419,3.9305 64.083,5.3671 64.489,8.5385 65.154,9.9885 65.79,16.86 68.677,13.635 70.954,13.621 73.204,13.607 75.806,17.863 76.619,9.9611 77.365,8.3897 79.032,6.099 79.614,4.5539 80.061,7.929 79.845,9.0802 79.723,11.33 79.655,12.496 79.276,14.786 79.276,14.786 79.276,14.786 81.362,14.149 82.379,13.784 83.721,13.296 85.035,12.754 86.336,12.171 87.569,11.615 88.762,11.005 89.968,10.396 91.405,9.6635 92.828,8.9314 94.237,8.1457 95.444,7.4813 96.637,6.8037 97.788,6.0583 99.28,5.0825 102.15,2.9683 102.15,2.9683 107.09,7.1018 109.69,9.623 113.09,13.323 116.51,17.036 119.74,20.967 122.57,25.153 125.42,29.356 127.94,33.773 130.06,38.381 132.63,43.938 135.51,51.947 136.28,55.659 136.28,55.659 134.67,54.833 133.8,54.562 133.15,54.345 132.46,54.21 131.77,54.142 131.05,54.074 130.33,54.061 129.63,54.182 128.55,54.358 127.53,54.562 126.49,55.171 124.2,54.318 123.74,54.046 122.3,53.817 119.54,53.396 116.66,53.288 113.95,53.885 111.41,54.426 108.98,55.592 106.85,57.056 105.03,58.275 103.38,59.969 102.14,61.622 100.8,59.928 100.04,58.912 98.601,58.072 96.487,56.839 93.98,56.107 91.541,56.161 87.068,56.243 82.65,58.018 78.747,60.2 75.941,61.772 71.483,66.529 71.483,66.529 Z"
     id="1940-comics-title"
     inkscape:connector-curvature="0" />
</svg>
