<?xml version="1.0" encoding="UTF-8" standalone="no"?>
<svg
   xmlns:dc="http://purl.org/dc/elements/1.1/"
   xmlns:cc="http://creativecommons.org/ns#"
   xmlns:rdf="http://www.w3.org/1999/02/22-rdf-syntax-ns#"
   xmlns:svg="http://www.w3.org/2000/svg"
   xmlns="http://www.w3.org/2000/svg"
   xmlns:sodipodi="http://sodipodi.sourceforge.net/DTD/sodipodi-0.dtd"
   xmlns:inkscape="http://www.inkscape.org/namespaces/inkscape"
   id="svg989"
   viewBox="0 0 136.71 68.592"
   version="1.1"
   height="69.285mm"
   width="136.71mm"
   sodipodi:docname="anim-52points.svg"
   inkscape:version="0.92.2 5c3e80d, 2017-08-06">
  <sodipodi:namedview
     pagecolor="#ffffff"
     bordercolor="#666666"
     borderopacity="1"
     objecttolerance="10"
     gridtolerance="10"
     guidetolerance="10"
     inkscape:pageopacity="0"
     inkscape:pageshadow="2"
     inkscape:window-width="1680"
     inkscape:window-height="921"
     id="namedview2567"
     showgrid="false"
     inkscape:zoom="2.303"
     inkscape:cx="258.36"
     inkscape:cy="130.07"
     inkscape:window-x="0"
     inkscape:window-y="1"
     inkscape:window-maximized="1"
     inkscape:current-layer="svg989" />
  <metadata
     id="metadata995">
    <rdf:RDF>
      <cc:Work
         rdf:about="">
        <dc:format>image/svg+xml</dc:format>
        <dc:type
           rdf:resource="http://purl.org/dc/dcmitype/StillImage" />
        <dc:title></dc:title>
      </cc:Work>
    </rdf:RDF>
  </metadata>
  <defs
     id="defs993" />
  <path
     d="M 40.953,26.416 C 41.121,25.821 41.044,24.565 41.044,24.565 41.044,24.565 39.749,24.526 39.154,24.759 38.571,24.979 38.053,25.407 37.652,25.886 37.238,26.403 36.953,27.038 36.798,27.685 36.642,28.306 36.733,29.614 36.733,29.614 36.733,29.614 38.027,29.484 38.597,29.213 39.18,28.941 39.697,28.501 40.112,28.009 40.487,27.543 40.798,26.999 40.953,26.416 Z M 34.364,29.575 C 34.364,29.575 34.183,28.216 33.885,27.62 33.548,26.947 33.056,26.326 32.474,25.86 31.956,25.445 31.322,25.148 30.674,25.005 29.846,24.798 28.098,24.953 28.098,24.953 28.098,24.953 28.279,26.52 28.642,27.193 29.043,27.931 29.639,28.578 30.338,29.044 30.959,29.458 31.697,29.704 32.435,29.795 33.082,29.86 34.364,29.575 34.364,29.575 Z M 48.436,59.958 C 48.436,59.958 46.209,57.007 44.694,56.023 42.61,54.676 40.138,53.848 37.665,53.563 35.503,53.304 33.238,53.589 31.14,54.223 29.574,54.702 27.205,55.842 26.791,56.528 26.376,55.285 25.159,54.159 24.176,53.278 23.244,52.424 21.871,51.595 20.564,51.026 18.984,50.34 17.276,49.9 15.554,49.692 13.987,49.498 10.829,49.757 10.829,49.757 11.036,47.44 10.842,45.653 10.324,43.725 9.9355,42.275 9.0552,40.838 7.9936,39.711 6.8803,38.533 5.4692,37.537 3.9287,37.006 2.7636,36.617 0.25217,36.76 0.25217,36.76 0.25217,36.76 0.69232,29.588 1.8445,26.222 3.1131,22.481 5.0161,18.843 7.6053,15.854 9.5989,13.544 12.084,11.519 14.894,10.304 17.263,9.2776 21.289,8.7313 22.557,9.0627 22.557,9.0627 19.761,10.733 18.648,11.898 17.664,12.944 16.719,14.148 16.292,15.523 15.813,17.028 15.722,18.727 16.123,20.254 16.486,21.665 17.405,22.921 18.363,24.008 19.489,25.29 20.887,26.364 22.389,27.154 23.658,27.827 26.493,28.449 26.493,28.449 26.493,28.449 25.949,23.387 25.846,20.837 25.703,17.215 25.91,9.9612 25.91,9.9612 26.674,12.871 27.723,16.745 28.486,19.659 28.486,19.659 30.959,17.719 33.367,17.609 36.021,17.489 39.231,19.516 39.231,19.516 39.115,16.456 39.309,12.809 39.827,9.6906 39.827,9.6906 40.629,16.904 41.328,20.461 41.898,23.374 43.516,29.096 43.516,29.096 43.516,29.096 46.468,29.355 47.944,29.303 49.588,29.251 51.245,29.083 52.863,28.759 54.714,28.397 56.617,28.022 58.313,27.193 59.478,26.623 60.944,26.093 61.449,24.902 61.733,24.267 61.591,23.4 61.19,22.817 60.452,21.704 57.705,20.863 57.705,20.863 60.012,20.215 75.249,19.814 83.987,20.539 92.168,21.225 100.34,22.584 108.21,24.915 114.67,26.818 121.02,29.329 126.85,32.708 130.36,34.74 136.48,40.139 136.48,40.139 133.09,38.261 128.65,37.485 124.6,37.614 120.52,37.744 115.86,38.236 112.8,40.954 111.85,41.796 110.99,43.246 111.33,44.475 112.07,47.116 114.68,48.281 117.94,49.356 117.94,49.356 106.02,49.006 100.08,49.459 95.081,49.835 89.968,50.094 85.217,51.66 82.925,52.424 79.818,52.877 78.821,55.078 78.563,55.647 79.029,56.45 79.249,56.916 77.436,56.126 72.569,54.676 69.112,54.081 65.099,53.395 60.982,52.955 56.915,53.278 54.934,53.434 52.656,53.369 51.089,54.612 49.523,55.842 48.319,57.382 48.436,59.958 Z"
     style="fill:#ff00ff;fill-opacity:1;stroke:#ff0013;stroke-width:0.11406;stroke-miterlimit:4;stroke-dasharray:none;stroke-opacity:1"
     id="2000-comics-title-batgirl"
     inkscape:connector-curvature="0"
     sodipodi:nodetypes="ccccccccccsscccsccccccccccccccccccccccccccccccccccccccccccccccccccccccc" />
  <path
     d="M 73.678,19.817 C 73.834,19.595 73.925,19.048 73.925,19.048 73.925,19.048 73.209,19.165 72.87,19.257 72.479,19.374 72.089,19.517 71.724,19.686 71.385,19.83 71.034,19.96 70.734,20.181 70.499,20.338 70.122,20.768 70.122,20.768 70.122,20.768 70.799,21.08 71.151,21.067 71.724,21.041 72.245,20.728 72.753,20.455 73.079,20.286 73.456,20.116 73.678,19.817 Z M 66.865,20.741 C 66.865,20.741 66.488,20.299 66.24,20.142 65.862,19.895 65.406,19.791 64.977,19.634 64.508,19.465 64.065,19.204 63.57,19.139 63.361,19.1 62.918,19.178 62.918,19.178 62.918,19.178 63.27,19.686 63.492,19.895 63.856,20.233 64.273,20.533 64.729,20.728 65.172,20.911 65.667,21.041 66.149,21.002 66.409,20.976 66.865,20.741 66.865,20.741 Z M 68.533,60.379 C 68.533,60.379 64.429,55.533 61.889,53.697 59.202,51.756 56.18,50.219 53.028,49.242 49.277,48.083 45.278,47.562 41.344,47.679 38.934,47.744 34.232,49.046 34.232,49.046 34.232,49.046 33.06,47.08 32.291,46.246 30.858,44.683 29.217,43.289 27.419,42.156 25.791,41.127 23.981,40.384 22.157,39.772 20.724,39.303 19.226,39.03 17.741,38.808 15.983,38.548 14.211,38.378 12.44,38.391 10.955,38.404 9.4699,38.561 8.011,38.782 6.6433,38.991 5.2886,39.277 3.96,39.681 2.6965,40.059 0.24764,41.101 0.24764,41.101 0.24764,41.101 4.5201,34.314 7.2425,31.397 10.421,27.984 14.068,24.988 17.963,22.435 21.701,19.986 25.752,17.967 29.946,16.417 34.948,14.567 43.558,12.718 45.486,12.57 45.486,12.57 43.35,13.994 42.66,15.036 41.917,16.169 41.201,17.563 41.409,18.892 41.604,20.142 42.633,21.197 43.649,21.966 45.017,23.008 46.776,23.516 48.469,23.776 50.267,24.05 52.168,23.985 53.901,23.464 55.698,22.93 57.483,22.018 58.785,20.663 59.87,19.53 60.509,17.993 60.939,16.482 61.642,13.994 61.551,8.7565 61.551,8.7565 62.762,10.372 64.104,12.273 65.315,13.89 65.315,13.89 67.412,13.093 68.507,13.09 69.627,13.089 71.763,13.89 71.763,13.89 72.909,12.316 74.238,10.587 75.384,9.0144 75.384,9.0144 75.658,13.916 76.114,16.313 76.426,17.98 77.208,19.66 78.419,20.885 79.513,22.005 81.063,22.63 82.548,23.138 84.072,23.646 85.714,23.972 87.329,23.894 89.218,23.79 91.197,23.386 92.839,22.435 93.881,21.836 94.91,20.976 95.405,19.869 95.835,18.892 95.926,17.667 95.561,16.664 94.949,14.997 91.94,12.755 91.94,12.755 91.94,12.755 101.62,14.307 106.2,15.948 110.89,17.641 115.4,19.973 119.54,22.747 123.42,25.353 127.06,28.401 130.18,31.879 132.68,34.666 136.4,40.502 136.53,41.153 136.53,41.153 134.65,40.163 133.66,39.798 132.49,39.368 131.28,39.043 130.05,38.821 128.4,38.509 126.73,38.326 125.05,38.3 123.1,38.274 121.13,38.391 119.21,38.73 117.26,39.082 115.33,39.655 113.48,40.384 112.02,40.957 110.6,41.687 109.28,42.521 107.97,43.341 106.7,44.253 105.6,45.334 104.47,46.454 102.63,49.099 102.63,49.099 102.63,49.099 97.762,47.692 95.248,47.614 91.549,47.509 87.785,48.043 84.268,49.177 80.868,50.271 77.638,52.003 74.759,54.113 72.388,55.859 68.533,60.379 68.533,60.379 Z"
     style="fill:#ff00ff;fill-opacity:1;stroke:#ff0013;stroke-width:0.11477;stroke-miterlimit:4;stroke-dasharray:none;stroke-opacity:1"
     id="2000-comics-logo"
     inkscape:connector-curvature="0"
     sodipodi:nodetypes="ccccccccccccccccccccccccccccccccccccccccccccccccccccccccccccccccccccccc" />
  <path
     id="2008-comics-logo"
     style="fill:#ff00ff;fill-opacity:1;stroke:#ff0013;stroke-width:0.1273;stroke-miterlimit:4;stroke-dasharray:none;stroke-opacity:1"
     d="M 93.523,46.811 C 93.653,45.453 93.754,42.736 93.754,42.736 93.754,42.736 89.16,46.045 86.891,47.75 84.71,49.397 82.571,51.102 80.419,52.778 79.147,53.775 77.905,54.801 76.604,55.754 75.694,56.433 73.816,57.705 73.816,57.705 73.816,57.705 80.895,55.119 84.406,53.761 87.296,52.648 93.061,50.336 93.061,50.336 93.061,50.336 93.422,47.996 93.523,46.811 Z M 62.633,57.532 C 62.633,57.532 60.35,55.697 59.194,54.786 57.551,53.5 55.875,52.243 54.199,50.986 52.119,49.426 49.98,47.909 47.9,46.334 46.166,45.034 42.742,42.361 42.742,42.361 42.742,42.361 42.987,45.149 43.103,46.551 43.204,47.808 43.392,50.322 43.392,50.322 43.392,50.322 50.703,53.125 54.373,54.497 57.118,55.523 62.633,57.532 62.633,57.532 Z M 68.499,68.859 C 68.499,68.859 66.317,67.674 65.219,67.082 64.092,66.461 62.951,65.854 61.824,65.233 60.581,64.539 59.353,63.845 58.115,63.152 56.843,62.444 55.586,61.736 54.3,61.057 53.188,60.45 52.061,59.901 50.948,59.294 49.72,58.63 48.535,57.936 47.322,57.257 46.238,56.636 45.155,56.014 44.056,55.408 42.929,54.786 41.803,54.18 40.676,53.587 39.708,53.067 38.725,52.576 37.757,52.07 36.659,51.492 35.561,50.943 34.477,50.351 33.74,49.946 33.018,49.513 32.296,49.094 31.645,48.704 30.359,47.909 30.359,47.909 30.359,47.909 30.489,42.115 30.504,39.211 30.533,35.353 30.432,31.51 30.403,27.652 30.388,23.043 30.388,18.42 30.403,13.796 30.417,9.2452 30.461,0.14273 30.461,0.14273 30.461,0.14273 32.989,5.5175 34.203,8.2338 34.968,9.9532 35.662,11.701 36.442,13.406 37.237,15.155 38.927,18.608 38.927,18.608 38.927,18.608 39.78,16.614 40.343,15.704 41.152,14.403 42.106,13.204 43.132,12.063 44.215,10.863 45.371,9.7075 46.643,8.7106 48.116,7.5547 49.691,6.5434 51.353,5.6909 52.928,4.8673 54.589,4.2027 56.294,3.6681 58.49,2.9746 60.754,2.4545 63.023,2.1077 64.858,1.8332 66.722,1.7176 68.571,1.7321 70.579,1.7465 72.602,1.9199 74.596,2.2233 76.084,2.44 77.558,2.7579 79.003,3.1769 80.751,3.697 82.456,4.3617 84.132,5.0985 85.476,5.7053 86.834,6.3555 88.076,7.1791 89.666,8.2049 91.168,9.3897 92.512,10.719 93.711,11.889 94.824,13.175 95.719,14.577 96.557,15.891 97.742,18.781 97.742,18.781 97.742,18.781 99.534,15.082 100.39,13.204 101.35,11.095 102.24,8.9562 103.19,6.8323 104.16,4.6795 106.14,0.40281 106.14,0.40281 106.14,0.40281 106.34,9.8665 106.35,14.606 106.37,18.55 106.27,22.48 106.24,26.424 106.21,30.166 106.19,33.909 106.19,37.651 106.21,41.118 106.28,48.068 106.28,48.068 106.28,48.068 105.05,48.704 104.45,49.021 103.36,49.599 102.29,50.192 101.21,50.77 100.23,51.304 99.245,51.824 98.277,52.359 97.164,52.966 96.081,53.602 94.968,54.208 93.928,54.786 92.859,55.321 91.804,55.899 90.576,56.564 89.362,57.271 88.134,57.951 87.108,58.514 86.082,59.092 85.057,59.655 84.132,60.161 83.207,60.667 82.282,61.173 81.083,61.837 79.87,62.487 78.67,63.166 77.5,63.817 76.344,64.51 75.174,65.16 73.975,65.81 72.747,66.432 71.547,67.096 70.521,67.66 68.499,68.859 68.499,68.859 Z"
     inkscape:connector-curvature="0"
     sodipodi:nodetypes="cccccccccccsccccccccccccccccccccccccccccccccccccccccccccccccccccccccccc" />
  <path
     d="M 73.585,20.954 C 73.365,20.641 73.156,20.34 72.936,20.027 72.624,19.935 72.322,19.831 72.01,19.738 71.303,20.143 70.585,20.537 69.878,20.943 69.867,21.047 69.867,21.151 69.867,21.267 69.855,21.441 69.855,21.626 69.855,21.811 70.481,21.777 71.106,21.742 71.732,21.707 72.322,21.684 72.902,21.649 73.481,21.614 73.515,21.394 73.55,21.174 73.585,20.954 Z M 66.704,21.777 C 66.704,21.634 66.704,21.491 66.704,21.348 66.704,21.232 66.693,21.116 66.681,21 66.009,20.607 65.338,20.213 64.654,19.819 64.388,19.865 64.121,19.912 63.866,19.958 63.577,20.34 63.299,20.722 63.009,21.105 63.102,21.278 63.195,21.452 63.276,21.626 63.866,21.661 64.446,21.684 65.025,21.707 65.581,21.73 66.148,21.753 66.704,21.777 Z M 68.268,54.071 C 67.191,53.168 63.89,50.978 61.388,50.017 57.818,48.639 54.007,47.723 50.196,47.584 46.362,47.434 42.458,48.001 38.809,49.148 35.971,50.052 32.021,52.171 30.863,53.237 30.863,53.237 28.28,52.426 26.971,52.125 25.871,51.87 24.77,51.65 23.647,51.523 22.28,51.372 20.901,51.337 19.523,51.372 17.994,51.407 16.476,51.523 14.971,51.766 13.499,51.998 12.063,52.38 10.638,52.809 9.3062,53.202 7.9857,53.654 6.7347,54.222 5.6227,54.731 4.5686,55.368 3.5145,55.994 2.4257,56.654 0.30636,58.091 0.30636,58.091 0.30636,58.091 1.9392,50.388 3.1438,46.646 4.557,42.244 6.2714,37.924 8.2869,33.754 10.175,29.839 12.329,26.039 14.75,22.425 17.403,18.464 23.508,11.143 23.508,11.143 23.508,11.143 27.203,13.066 29.091,13.923 31.048,14.803 33.052,15.614 35.068,16.367 36.875,17.027 38.693,17.641 40.535,18.197 42.817,18.881 45.111,19.518 47.439,20.039 49.443,20.479 51.458,20.792 53.485,21.105 55.304,21.383 58.976,21.8 58.976,21.8 58.976,21.8 59.775,18.719 60.134,17.166 60.621,15.093 61.503,10.923 61.503,10.923 62.164,11.85 62.951,12.892 63.612,13.819 63.612,13.819 66.786,13.216 68.396,13.228 69.959,13.228 73.064,13.819 73.064,13.819 73.77,12.904 74.431,12 75.137,11.085 75.137,11.085 75.971,14.884 76.423,16.784 76.817,18.464 77.662,21.8 77.662,21.8 77.662,21.8 81.601,21.394 83.558,21.093 85.667,20.769 87.775,20.375 89.86,19.9 91.794,19.46 93.705,18.915 95.605,18.348 97.968,17.641 100.32,16.9 102.61,16.031 104.55,15.301 106.44,14.467 108.31,13.61 109.96,12.846 113.18,11.189 113.18,11.189 113.18,11.189 119.12,18.255 121.69,22.078 124.23,25.831 126.47,29.781 128.46,33.846 130.34,37.739 131.95,41.77 133.3,45.882 134.61,49.878 136.4,58.125 136.4,58.125 136.4,58.125 134.98,57.094 134.25,56.62 133.44,56.098 132.61,55.589 131.77,55.148 130.63,54.558 129.48,54.025 128.28,53.561 126.88,53.029 125.46,52.542 124,52.195 122.61,51.847 121.18,51.604 119.76,51.465 118.18,51.314 116.58,51.291 115,51.361 113.57,51.419 112.13,51.558 110.72,51.824 109.1,52.148 105.96,53.179 105.96,53.179 105.96,53.179 102.53,50.909 100.62,50.191 96.613,48.662 92.339,47.561 88.053,47.457 84.276,47.364 80.442,48.083 76.875,49.322 73.782,50.399 69.125,53.283 68.268,54.071 Z"
     style="fill:#ff00ff;fill-opacity:1;stroke:#ff0013;stroke-width:0.03692;stroke-miterlimit:4;stroke-dasharray:none;stroke-opacity:1"
     id="2008-tv-title"
     inkscape:connector-curvature="0"
     sodipodi:nodetypes="ccccccccccsccccccccccccccccccccccccccccccccccccccsccccccccccccccccccccc" />
  <path
     d="M 74.007,18.583 C 73.693,18.671 73.392,18.747 73.077,18.835 72.525,18.973 71.972,19.111 71.419,19.249 70.741,19.362 70.062,19.463 69.384,19.576 69.648,19.84 69.899,20.104 70.163,20.368 70.339,20.531 70.527,20.682 70.703,20.845 71.042,20.656 71.394,20.455 71.733,20.267 72.123,20.003 72.525,19.739 72.914,19.475 73.278,19.174 73.643,18.885 74.007,18.583 Z M 65.891,20.883 C 66.08,20.707 66.281,20.518 66.469,20.342 66.72,20.066 66.984,19.79 67.235,19.513 66.582,19.425 65.941,19.35 65.288,19.262 64.987,19.199 64.672,19.124 64.371,19.061 63.793,18.898 63.215,18.747 62.637,18.583 63.039,18.923 63.429,19.262 63.831,19.601 64.195,19.827 64.547,20.053 64.911,20.28 65.238,20.481 65.564,20.682 65.891,20.883 Z M 68.354,49.628 C 67.688,55.244 67.537,58.862 67.801,62.594 65.414,58.649 58.232,51.714 53.546,49.025 50.066,48.811 39.312,52.003 36.146,53.736 36.774,49.515 38.457,46.047 40.091,42.341 38.319,44.49 35.605,49.364 35.392,52.794 35.392,52.794 33.771,50.608 32.98,49.515 32.15,48.384 31.384,47.216 30.505,46.123 29.65,45.042 27.766,43.007 27.766,43.007 27.766,43.007 21.107,44.967 17.878,46.248 14.587,47.542 11.383,49.063 8.2671,50.734 5.5031,52.216 3.003,53.799 0.25156,55.633 3.3171,45.997 8.7696,37.693 15.416,30.242 9.9129,35.569 5.3524,40.834 0.32694,50.796 2.915,42.266 11.823,29.627 20.906,22.164 30.542,14.249 39.94,9.5 54.953,6.6355 43.985,10.216 37.314,15.015 33.47,19.337 37.842,15.706 44.789,11.221 50.518,9.6382 47.39,11.761 45.254,15.053 45.43,18.684 45.644,17.666 45.933,16.825 46.284,15.895 46.284,15.895 50.682,17.465 52.956,17.98 55.305,18.521 60.112,19.048 60.112,19.048 60.112,19.048 60.162,19.727 60.3,20.807 60.3,20.807 61.393,16.536 62.197,14.488 62.901,12.641 64.76,9.1357 64.76,9.1357 66.067,13.005 64.635,10.756 64.459,12.942 64.459,12.942 66.984,12.076 68.291,12.076 69.673,12.088 72.311,13.056 72.311,13.056 72.022,10.618 70.427,13.37 71.859,9.1859 71.859,9.1859 73.982,13.156 74.761,15.267 75.414,17.063 76.231,20.82 76.231,20.82 76.231,20.82 76.331,19.928 76.721,18.923 78.505,19.061 81.596,18.508 83.97,17.955 86.144,17.453 89.561,16.498 90.315,15.857 90.616,16.812 90.654,17.591 91.508,18.872 91.219,14.827 89.36,11.988 86.018,9.4875 89.398,10.505 97.991,15.003 103.13,19.413 95.202,11.473 84.824,7.427 80.653,6.4596 93.33,8.2437 107.45,14.5 117.27,23.483 125.55,31.059 131.82,39.376 136.43,50.847 132.42,43.183 126.83,35.444 121.29,30.494 129.21,39.527 133.55,48.196 136.46,55.583 134.76,54.39 130.83,52.04 127.89,50.495 124.82,48.899 121.66,47.455 118.43,46.186 115.29,44.954 108.82,43.007 108.82,43.007 108.82,43.007 106.46,45.746 105.33,47.153 104.56,48.108 103.09,50.08 103.09,50.08 103.09,50.08 101.8,51.249 101.27,52.266 100.33,48.661 98.556,44.703 96.584,42.253 97.991,45.583 99.788,48.422 100.38,53.51 94.674,50.947 88.468,49.578 83.141,48.987 78.492,52.153 73.869,55.269 68.957,62.455 68.994,58.598 69.12,54.314 68.354,49.628 Z"
     style="fill:#ff00ff;fill-opacity:1;stroke:#ff0013;stroke-width:0.02602;stroke-miterlimit:4;stroke-dasharray:none;stroke-opacity:1"
     id="2009-comics-title"
     inkscape:connector-curvature="0"
     sodipodi:nodetypes="ccccccccccccccccccccccccccccccccccccccccccccccccccccccccccccccccccccccc" />
  <path
     id="2013-tv-title"
     style="fill:#ff00ff;fill-opacity:1;stroke:#ff0013;stroke-width:0.02908;stroke-miterlimit:4;stroke-dasharray:none;stroke-opacity:1"
     d="M 74.022,15.961 C 73.697,16.175 73.372,16.389 73.047,16.603 72.869,16.67 72.691,16.724 72.513,16.791 72.313,16.991 72.113,17.192 71.913,17.393 71.944,17.594 71.976,17.808 72.007,18.008 72.238,17.901 72.47,17.781 72.701,17.674 72.917,17.54 73.132,17.406 73.348,17.272 73.613,17.058 73.879,16.831 74.144,16.617 74.104,16.403 74.062,16.175 74.022,15.961 Z M 67.737,17.928 C 68.028,17.982 68.319,18.022 68.611,18.075 68.644,17.942 68.677,17.794 68.711,17.661 68.514,17.433 68.316,17.206 68.119,16.978 67.39,16.777 66.662,16.563 65.933,16.362 65.616,16.229 65.299,16.095 64.981,15.961 65.004,16.162 65.026,16.376 65.048,16.577 65.444,16.831 65.841,17.085 66.237,17.339 66.737,17.54 67.236,17.727 67.737,17.928 Z M 68.343,67.052 C 68.343,67.052 65.656,64.028 64.173,62.663 62.767,61.365 61.296,60.121 59.71,59.05 58.054,57.926 56.247,57.029 54.467,56.119 52.567,55.156 50.654,54.246 48.673,53.456 46.88,52.734 45.033,52.132 43.187,51.583 41.367,51.061 39.534,50.606 37.687,50.205 35.358,49.71 33.017,49.255 30.662,48.92 28.735,48.652 26.794,48.465 24.854,48.331 22.9,48.197 20.946,48.144 18.993,48.117 16.571,48.104 14.149,48.077 11.74,48.264 9.6389,48.438 7.5514,48.826 5.4638,49.148 3.6974,49.429 0.19145,50.071 0.19145,50.071 0.19145,50.071 4.313,41.466 6.8288,37.439 9.3178,33.464 12.101,29.677 15.152,26.131 18.19,22.612 21.482,19.293 25.014,16.282 28.641,13.204 36.563,7.932 36.563,7.932 36.563,7.932 38.972,10.127 40.296,11.063 41.568,11.973 42.932,12.776 44.324,13.485 45.796,14.235 47.335,14.85 48.874,15.426 50.185,15.894 51.51,16.296 52.862,16.657 53.999,16.951 55.15,17.219 56.314,17.406 57.545,17.58 58.937,18.169 60.048,17.714 61.316,17.206 61.926,16.028 62.244,14.797 62.76,12.816 60.982,1.9772 60.982,1.9772 61.924,5.0951 62.794,8.28 63.736,11.398 63.736,11.398 66.926,10.394 68.573,10.381 69.815,10.367 72.233,11.063 72.233,11.063 72.934,8.1194 73.455,5.0148 74.156,2.0709 73.989,5.2289 73.998,8.8152 73.831,11.973 73.809,12.375 75.712,13.512 75.154,18.129 75.154,18.129 78.438,17.714 80.063,17.406 81.589,17.112 83.1,16.724 84.6,16.322 86.029,15.934 87.464,15.546 88.846,15.011 90.322,14.436 91.757,13.753 93.146,13.004 94.385,12.321 95.6,11.599 96.735,10.756 97.887,9.9125 99.988,7.9588 99.988,7.9588 103.32,9.9928 109.07,14.195 113.22,17.808 116.35,20.538 119.3,23.522 121.99,26.707 125.19,30.494 128.08,34.548 130.67,38.777 132.9,42.47 136.53,50.339 136.53,50.339 136.53,50.339 132.27,49.415 130.13,49.094 128.14,48.8 126.14,48.626 124.14,48.465 122.37,48.331 120.6,48.238 118.82,48.211 116.9,48.197 114.96,48.238 113.03,48.358 110.82,48.492 108.62,48.719 106.43,49.014 104.4,49.295 102.38,49.669 100.38,50.071 98.485,50.459 96.596,50.86 94.738,51.382 92.691,51.958 90.672,52.627 88.68,53.376 86.707,54.126 84.753,54.928 82.853,55.852 80.72,56.882 78.583,57.926 76.613,59.237 75.026,60.308 73.546,61.526 72.159,62.837 70.781,64.135 68.343,67.052 68.343,67.052 Z"
     inkscape:connector-curvature="0"
     sodipodi:nodetypes="ccccccccccccccccccccccccccccccccccccccccccccccccccccccccccccccccccccccc" />
  <path
     d="M 97.201,42.854 C 97.255,41.966 97.299,41.068 97.343,40.169 95.874,41.133 94.405,42.098 92.936,43.063 91.314,44.093 89.691,45.113 88.069,46.143 88.003,46.494 87.948,46.845 87.893,47.196 87.959,47.47 88.014,47.733 88.08,47.996 89.275,47.711 90.48,47.415 91.675,47.13 93.451,46.636 95.238,46.154 97.014,45.661 97.08,44.729 97.135,43.797 97.201,42.854 Z M 75.089,48.073 C 75.122,47.799 75.155,47.524 75.188,47.25 75.199,46.922 75.21,46.582 75.21,46.253 73.752,45.299 72.294,44.356 70.836,43.403 69.169,42.328 67.514,41.254 65.848,40.18 65.935,41.046 66.023,41.923 66.111,42.789 66.078,43.677 66.045,44.565 66.012,45.453 67.514,45.913 69.005,46.384 70.507,46.845 72.031,47.25 73.565,47.667 75.089,48.073 Z M 73.445,68.507 C 72.239,68.583 71.033,68.66 69.827,68.638 68.512,68.605 67.207,68.452 65.903,68.309 64.565,68.167 63.217,68.024 61.89,67.794 60.465,67.542 59.051,67.213 57.659,66.84 56.058,66.402 54.458,65.92 52.912,65.317 51.476,64.758 50.095,64.056 48.691,63.387 47.321,62.729 45.896,62.138 44.591,61.337 43.385,60.603 42.289,59.704 41.171,58.838 39.921,57.884 38.65,56.941 37.499,55.867 36.391,54.847 35.339,53.751 34.418,52.578 33.421,51.317 31.765,48.555 31.765,48.555 35.58,42.021 39.724,35.696 45.655,31.738 44.109,35.608 44.043,38.272 43.758,41.89 55.872,53.828 63.688,58.246 74.793,62.148 70.452,60.241 60.805,53.313 58.525,50.44 57.889,34.008 59.478,10.333 62,0.49907 62.46,2.2838 62.877,4.0805 63.381,5.8543 63.765,7.2048 64.083,8.579 64.62,9.8781 65.157,11.178 65.913,12.372 66.56,13.618 67.898,12.925 69.147,12.03 70.573,11.538 71.241,11.308 71.965,11.31 72.644,11.144 73.445,10.951 74.201,10.63 75.001,10.446 75.561,10.317 76.131,10.26 76.701,10.163 77.358,10.052 78.005,9.8737 78.663,9.8243 79.343,9.7739 80.022,9.8616 80.702,9.8726 81.327,9.8824 81.952,9.8879 82.577,9.8868 83.19,9.8857 83.815,9.8232 84.429,9.8693 85.131,9.9219 85.821,10.108 86.523,10.206 87.148,10.292 87.784,10.283 88.398,10.427 89.044,10.58 89.625,10.916 90.261,11.101 91.007,11.322 91.807,11.36 92.552,11.619 93.144,11.825 93.66,12.192 94.241,12.438 95.118,12.812 95.995,13.131 96.915,13.429 97.518,11.992 98.198,10.582 98.735,9.1184 99.294,7.6137 99.766,6.079 100.19,4.5311 100.57,3.1597 100.84,1.5942 101.16,0.37629 101.89,4.9181 102.8,9.7706 103.36,14.503 103.98,19.638 104.37,24.798 104.64,29.962 104.92,35.74 104.99,41.539 104.94,47.327 104.92,50.517 104.65,56.897 104.65,56.897 104.65,56.897 103.81,57.774 103.33,58.147 102.79,58.564 102.13,58.838 101.57,59.243 100.98,59.66 100.47,60.186 99.886,60.603 99.261,61.063 98.615,61.48 97.946,61.874 97.179,62.324 96.367,62.697 95.567,63.113 94.712,63.563 93.879,64.089 92.98,64.483 92.114,64.856 91.204,65.108 90.305,65.404 89.34,65.722 88.387,66.051 87.411,66.347 86.413,66.643 85.394,66.917 84.374,67.169 83.322,67.421 82.27,67.706 81.195,67.86 80.055,68.024 78.915,68.024 77.775,68.123 76.328,68.233 74.892,68.408 73.445,68.507 Z"
     style="fill:#ff00ff;fill-opacity:1;stroke:#ff0013;stroke-width:0.0792;stroke-miterlimit:4;stroke-dasharray:none;stroke-opacity:1"
     id="2001-comics-logo"
     inkscape:connector-curvature="0"
     sodipodi:nodetypes="cccccccccccccccccccccccccccccccccccccccccccccsccccccccccccccccccccccccc" />
  <path
     d="M 68.139,17.952 C 68.499,17.522 68.859,17.092 69.219,16.652 69.009,16.622 68.809,16.582 68.599,16.542 68.359,16.642 68.109,16.742 67.869,16.842 67.619,16.852 67.379,16.872 67.139,16.882 66.859,17.022 66.579,17.162 66.299,17.312 66.529,17.522 66.759,17.742 66.999,17.962 67.179,18.112 67.369,18.272 67.559,18.422 67.749,18.262 67.949,18.112 68.139,17.952 Z M 64.339,16.242 C 64.219,15.942 64.089,15.642 63.969,15.342 63.859,14.972 63.739,14.612 63.629,14.242 63.489,13.702 63.359,13.152 63.219,12.612 63.009,12.562 62.809,12.522 62.599,12.472 62.519,12.862 62.429,13.262 62.349,13.652 62.259,14.182 62.159,14.702 62.069,15.232 62.349,15.522 62.619,15.812 62.899,16.102 63.379,16.152 63.859,16.192 64.339,16.242 Z M 65.169,66.22 C 64.369,66.22 64.869,64.653 61.278,61.13 59.548,59.433 57.398,57.906 55.028,57.587 53.498,57.377 51.748,57.677 50.538,58.725 47.698,61.21 49.248,64.773 48.338,65.013 47.498,65.242 46.828,63.575 46.068,62.847 45.288,62.098 44.588,61.27 43.738,60.611 42.908,59.972 42.028,59.343 41.048,58.954 39.848,58.485 38.538,58.006 37.268,58.196 36.298,58.335 35.318,58.834 34.678,59.573 33.878,60.511 33.588,61.839 33.438,63.066 33.328,63.955 33.568,64.863 33.688,65.751 33.838,66.889 34.938,69.145 34.248,69.155 32.338,69.185 28.648,61.819 26.998,57.577 25.268,53.145 24.508,48.304 24.398,43.553 24.298,38.443 25.028,33.243 26.558,28.362 27.748,24.569 31.928,17.692 31.928,17.692 31.928,17.692 37.218,16.622 39.778,15.802 42.438,14.952 45.048,13.912 47.548,12.672 49.638,11.642 53.548,9.1125 53.548,9.1125 53.548,9.1125 54.548,9.7925 55.028,10.152 55.438,10.462 55.828,10.792 56.228,11.112 56.768,11.522 56.968,11.692 57.848,12.322 57.848,12.322 60.288,9.0625 61.318,7.3025 62.699,4.9325 64.919,-0.09771 64.919,-0.09771 66.199,1.4225 66.199,4.1725 65.789,5.6025 65.789,5.6025 66.989,6.3725 67.619,6.6925 68.109,6.9425 69.139,7.3325 69.139,7.3325 69.729,5.8425 70.419,3.8025 70.589,2.1925 72.099,3.1025 72.389,7.7025 71.399,10.502 71.929,12.132 70.949,13.752 68.569,20.162 68.569,20.162 71.469,22.012 72.999,22.782 73.929,23.252 74.889,23.651 75.869,24 76.759,24.32 78.579,24.789 78.579,24.789 78.579,24.789 82.579,23.581 84.349,22.502 86.589,21.142 88.629,19.372 90.269,17.332 91.809,15.412 93.549,11.822 93.809,10.842 93.809,10.842 95.509,10.832 96.759,10.932 97.409,14.602 98.389,16.132 101.47,17.772 103.76,19.002 109.73,23.821 111.85,37.555 113.8,50.201 109.21,67.368 107.1,68.726 106.33,69.225 106.21,66.25 105.76,65.023 105.14,63.376 104.66,61.679 103.87,60.112 103.27,58.904 102.61,57.696 101.71,56.688 100.67,55.521 99.479,54.383 98.039,53.764 97.179,53.395 96.189,53.285 95.259,53.385 94.519,53.464 93.779,53.734 93.149,54.133 92.119,54.772 91.309,55.72 90.559,56.668 89.789,57.627 89.439,59.373 88.869,59.563 88.269,59.743 86.739,57.417 84.259,56.369 82.509,55.63 79.839,54.572 75.469,55.61 71.789,56.479 68.779,59.783 67.979,60.821 66.109,63.226 66.279,66.21 65.169,66.22 Z"
     style="fill:#ff00ff;fill-opacity:1;stroke:#ff0013;stroke-width:0.02223;stroke-miterlimit:4;stroke-dasharray:none;stroke-opacity:1"
     id="1993-cartoon-title-silhouette"
     inkscape:connector-curvature="0"
     sodipodi:nodetypes="ccccccccccccccccccccccccccccccccccccccccccccccccccccccccccccccccccccccc" />
  <path
     d="M 68.379,18.337 C 68.739,17.907 69.099,17.477 69.459,17.037 69.249,17.007 69.049,16.967 68.839,16.927 68.599,17.027 68.349,17.127 68.109,17.227 67.859,17.237 67.619,17.257 67.379,17.267 67.099,17.407 66.819,17.547 66.539,17.697 66.769,17.907 66.999,18.127 67.239,18.347 67.419,18.497 67.609,18.657 67.799,18.807 67.989,18.647 68.189,18.497 68.379,18.337 Z M 64.579,16.627 C 64.459,16.327 64.329,16.027 64.209,15.727 64.099,15.357 63.979,14.997 63.869,14.627 63.729,14.087 63.599,13.537 63.459,12.997 63.249,12.947 63.049,12.907 62.839,12.857 62.759,13.247 62.669,13.647 62.589,14.037 62.499,14.567 62.399,15.087 62.309,15.617 62.589,15.907 62.859,16.197 63.139,16.487 63.619,16.537 64.099,16.577 64.579,16.627 Z M 65.539,66.397 C 65.539,66.397 63.199,62.637 61.488,61.297 59.278,59.557 56.648,57.647 53.838,57.767 52.368,57.837 50.928,58.807 50.018,59.957 48.888,61.387 48.478,65.207 48.478,65.207 48.478,65.207 47.148,63.737 46.448,63.037 45.728,62.327 45.018,61.607 44.218,60.997 43.368,60.347 42.478,59.677 41.478,59.287 40.118,58.757 38.598,58.167 37.168,58.467 36.148,58.677 35.198,59.397 34.588,60.237 33.948,61.117 33.798,62.277 33.678,63.357 33.578,64.267 33.738,65.187 33.868,66.097 34.018,67.117 34.568,69.097 34.568,69.097 33.298,67.617 30.028,61.497 28.698,57.317 27.238,52.687 26.458,47.767 26.508,42.917 26.568,37.057 27.728,31.167 29.498,25.577 30.258,23.187 32.708,18.787 32.708,18.787 36.658,19.507 40.518,19.777 44.318,19.027 47.278,18.447 52.608,15.437 52.608,15.437 55.108,16.667 58.338,18.897 60.818,21.077 63.069,23.057 66.009,27.587 67.209,27.227 67.179,25.877 64.839,21.617 63.149,19.117 61.628,16.867 59.598,14.597 57.768,13.007 57.768,13.007 60.538,9.5075 61.658,7.5875 63.079,5.1575 65.229,0.62789 65.229,-0.05211 67.919,5.2075 64.539,6.2175 65.719,8.1875 70.259,9.5675 70.479,11.727 70.059,14.827 72.699,10.477 69.179,8.0075 69.179,8.0075 69.769,6.5175 70.619,4.3675 70.759,2.6075 72.469,3.8775 72.869,7.8175 71.559,10.517 72.919,11.277 67.289,22.487 68.309,23.477 70.609,25.247 73.689,26.407 77.519,26.187 74.129,27.467 70.869,27.487 67.709,27.487 68.139,29.097 79.939,28.897 85.689,25.777 89.329,23.867 93.579,21.247 95.059,15.997 96.419,16.197 96.399,22.217 93.739,26.087 96.879,23.617 97.879,20.297 97.239,16.137 99.129,19.257 101.17,22.307 101.56,27.267 102.81,25.407 102.94,23.417 103.03,21.207 106.25,27.217 109.25,35.867 109.95,43.677 110.71,52.107 109.79,60.857 106.92,68.897 106.92,68.897 106.49,66.487 106.14,65.317 105.63,63.627 105.04,61.947 104.21,60.397 103.54,59.157 102.74,57.967 101.79,56.927 100.77,55.807 99.719,54.597 98.329,53.997 97.459,53.617 96.449,53.577 95.499,53.657 94.699,53.727 93.859,53.907 93.179,54.347 92.219,54.977 91.599,56.027 90.919,56.957 90.219,57.917 89.039,59.997 89.039,59.997 89.039,59.997 86.269,57.307 84.519,56.637 81.829,55.587 78.699,55.067 75.899,55.767 73.089,56.467 70.619,58.447 68.669,60.587 67.189,62.217 65.539,66.397 65.539,66.397 Z"
     style="fill:#ff00ff;fill-opacity:1;stroke:#ff0013;stroke-width:0.02223;stroke-miterlimit:4;stroke-dasharray:none;stroke-opacity:1"
     id="1993-cartoon-title-shadow"
     inkscape:connector-curvature="0"
     sodipodi:nodetypes="cccccccccccccccccccccccccccccccccccccccsccccccccccccccccccccccccccccccc" />
  <path
     d="M 65.601,19.073 C 65.94,18.653 66.268,18.231 66.607,17.811 66.122,17.88 65.65,17.95 65.165,18.019 64.705,18.121 64.244,18.221 63.784,18.323 63.42,18.408 63.057,18.494 62.693,18.579 62.669,18.703 62.633,18.828 62.608,18.953 62.96,19.148 63.311,19.342 63.663,19.537 64.038,19.741 64.402,19.945 64.777,20.149 65.056,19.79 65.323,19.432 65.601,19.073 Z M 59.368,19.033 C 59.368,18.861 59.356,18.689 59.356,18.517 58.872,18.441 58.387,18.363 57.902,18.287 57.563,18.204 57.212,18.121 56.872,18.038 56.436,17.963 56.012,17.888 55.576,17.813 55.734,18.024 55.891,18.236 56.049,18.447 56.557,19 57.054,19.554 57.563,20.108 57.866,19.909 58.181,19.712 58.484,19.513 58.775,19.353 59.078,19.193 59.368,19.033 Z M 78.275,68.821 C 76.748,68.826 75.234,68.832 73.707,68.818 72.338,68.805 70.957,68.747 69.588,68.747 68.34,68.746 67.104,68.801 65.868,68.805 64.583,68.811 63.299,68.78 62.015,68.778 60.948,68.775 59.877,68.784 58.811,68.787 57.842,68.792 56.872,68.805 55.903,68.803 55.019,68.802 54.122,68.769 53.225,68.776 52.305,68.782 51.384,68.847 50.463,68.845 49.493,68.843 48.536,68.769 47.567,68.762 46.586,68.755 45.604,68.797 44.611,68.802 43.593,68.807 42.575,68.788 41.557,68.79 40.551,68.792 42.369,68.813 38.528,68.811 38.116,65.807 37.849,62.8 37.498,59.796 37.123,56.606 36.723,53.42 36.359,50.23 36.056,47.669 35.741,45.112 35.487,42.548 35.257,40.313 34.614,36.378 34.893,35.838 35.257,35.161 36.25,35.109 36.953,34.817 37.462,34.606 38.007,34.467 38.528,34.291 38.892,34.525 39.194,34.646 39.558,34.88 40.927,34.43 42.296,33.986 43.665,33.529 44.986,33.086 46.307,32.633 47.64,32.183 49.009,31.718 50.33,31.25 51.747,30.785 51.747,30.785 52.426,21.906 52.741,17.464 53.141,11.709 53.88,0.19366 53.88,0.19366 54.946,2.9902 55.988,5.7194 57.054,8.5159 57.054,8.5159 59.805,7.7405 61.215,7.7865 62.524,7.8289 65.044,8.7158 65.044,8.7158 66.377,6.0599 67.588,3.0932 68.921,0.43599 69.333,10.439 69.89,20.539 70.302,30.543 74.386,32.189 75.028,33.243 74.446,30.927 73.247,31.06 73.622,30.369 72.508,25.879 72.835,23.505 74.822,27.928 72.338,19.523 73.477,19.077 76.143,18.113 71.805,17.306 72.302,16.183 75.719,16.64 77.209,17.527 78.59,16.13 81.304,13.578 84.927,12.954 80.723,18.325 84.963,13.119 89.895,14.283 84.624,19.351 89.58,14.604 93.76,18.763 92.221,18.63 88.586,17.78 93.384,19.676 91.628,20.305 91.749,23.238 91.094,25.071 93.045,25.057 91.773,26.052 91.252,30.911 90.186,30.562 90.428,32.131 89.98,37.244 89.98,37.244 92.149,37.958 93.227,38.336 94.293,38.714 94.221,38.735 96.426,39.512 96.632,39.288 96.826,39.064 97.032,38.841 99.067,39.174 100.91,39.396 101.87,39.629 102.02,39.424 101.03,44.398 100.61,46.78 100.19,49.025 99.746,51.263 99.358,53.509 98.885,56.19 98.51,58.887 98.025,61.563 97.577,63.973 97.165,66.558 96.559,68.77 95.129,68.748 90.392,68.704 87.314,68.719 85.812,68.727 84.309,68.773 82.807,68.79 81.292,68.808 79.79,68.818 78.275,68.821 Z"
     style="fill:#ff00ff;fill-opacity:1;stroke:#ff0013;stroke-width:0.02566;stroke-miterlimit:4;stroke-dasharray:none;stroke-opacity:1"
     id="1994-cartoon-title"
     inkscape:connector-curvature="0"
     sodipodi:nodetypes="ccccccccccccccccccccccccccccccccccccccccccccccccccccccccccccccccccccccc" />
  <path
     d="M 62.977,15.697 C 63.077,15.547 63.177,15.407 63.277,15.257 63.137,15.217 63.007,15.177 62.867,15.137 62.637,15.207 62.397,15.267 62.167,15.337 61.887,15.417 61.598,15.487 61.318,15.567 61.308,15.687 61.308,15.797 61.298,15.917 61.638,15.957 61.967,15.997 62.307,16.037 62.427,16.027 62.557,16.007 62.677,15.997 62.777,15.897 62.877,15.797 62.977,15.697 Z M 58.268,14.597 C 58.118,14.477 57.968,14.367 57.818,14.247 57.638,14.077 57.738,14.087 57.568,13.917 57.338,13.707 57.038,13.457 56.828,13.257 56.638,13.087 56.188,12.807 56.188,12.807 56.188,12.807 56.218,13.197 56.228,13.377 56.248,13.547 56.268,13.967 56.268,13.967 56.268,13.967 56.768,14.157 57.168,14.337 57.458,14.477 58.268,14.597 58.268,14.597 Z M 67.277,63.017 C 67.277,63.017 66.317,60.117 65.297,59.047 62.887,56.527 59.558,54.727 56.168,53.947 50.718,52.697 44.858,53.657 39.418,54.927 37.118,55.467 32.888,57.697 32.888,57.697 32.888,57.697 33.058,56.157 32.868,55.427 32.618,54.467 32.188,53.487 31.458,52.817 30.128,51.617 28.228,51.177 26.498,50.717 24.608,50.217 22.628,50.097 20.678,50.027 18.648,49.957 16.608,50.147 14.588,50.337 12.118,50.577 9.6584,50.917 7.2184,51.357 5.8784,51.597 4.5584,51.897 3.2484,52.227 2.1584,52.497 0.01838,53.127 0.01838,53.127 0.01838,53.127 3.2984,48.347 5.1684,46.137 8.7084,41.967 12.568,38.057 16.618,34.387 21.518,29.947 28.728,25.067 32.118,22.007 33.248,20.987 42.678,12.137 44.428,9.1975 43.878,12.417 48.408,17.977 51.828,19.577 52.408,19.847 52.188,17.707 52.718,17.787 53.288,20.557 54.938,21.537 54.118,14.637 54.878,15.457 54.878,15.197 55.418,15.407 55.428,14.267 55.428,13.117 55.438,11.977 56.078,11.817 57.378,11.597 57.378,11.597 57.258,13.487 58.898,14.257 59.188,14.317 59.188,14.317 58.258,11.547 58.488,10.577 57.838,10.567 57.188,10.547 56.538,10.537 59.718,6.3575 63.417,8.9675 64.577,11.247 64.617,10.547 64.647,9.8475 64.687,9.1475 65.307,8.2175 66.357,7.0075 67.087,6.0175 66.057,10.447 65.457,13.007 63.767,15.757 64.407,16.597 62.557,18.447 60.108,23.407 60.578,23.807 61.438,23.827 62.107,23.577 63.117,23.197 64.707,22.517 65.907,21.807 67.207,21.037 68.457,20.137 69.577,19.127 69.987,18.757 70.337,18.327 70.677,17.897 71.317,17.087 71.967,16.277 72.437,15.357 73.007,14.257 73.687,11.867 73.687,11.867 74.147,13.397 74.207,13.077 74.597,13.697 77.197,17.847 101.9,29.977 116.16,36.417 117.68,37.107 119.22,37.747 120.62,38.627 126.36,42.217 136.71,51.037 136.71,51.037 136.71,51.037 133.22,49.487 131.41,48.887 130.02,48.427 128.59,48.087 127.16,47.767 125.29,47.367 123.41,46.827 121.5,46.777 118.95,46.717 116.34,47.007 113.89,47.737 112.73,48.087 111.67,48.727 110.63,49.347 109.28,50.137 107.95,50.977 106.79,52.017 105.36,53.307 104.12,54.817 103.02,56.397 102.41,57.287 101.47,59.257 101.47,59.257 100.17,57.387 94.587,53.157 90.297,51.997 86.627,51.007 82.487,51.287 78.897,52.557 75.607,53.727 72.927,56.287 70.447,58.747 69.187,59.997 67.277,63.017 67.277,63.017 Z"
     style="fill:#ff00ff;fill-opacity:1;stroke:#ff0013;stroke-width:0.01521;stroke-miterlimit:4;stroke-dasharray:none;stroke-opacity:1"
     id="2006-comics-title-shadow"
     inkscape:connector-curvature="0"
     sodipodi:nodetypes="cccccccccccccccccccccccccccccccccsccccccccccccccccccccccccccccccccccccc" />
  <path
     d="M 62.807,17.56 C 62.907,17.41 63.007,17.27 63.107,17.12 62.967,17.08 62.837,17.04 62.697,17 62.467,17.07 62.227,17.13 61.997,17.2 61.717,17.28 61.428,17.35 61.148,17.43 61.138,17.55 61.138,17.66 61.128,17.78 61.468,17.82 61.797,17.86 62.137,17.9 62.257,17.89 62.387,17.87 62.507,17.86 62.607,17.76 62.707,17.66 62.807,17.56 Z M 58.098,16.46 C 57.948,16.34 57.798,16.23 57.648,16.11 57.468,15.94 57.568,15.95 57.398,15.78 57.168,15.57 56.868,15.32 56.658,15.12 56.468,14.95 56.018,14.67 56.018,14.67 56.018,14.67 56.048,15.06 56.058,15.24 56.078,15.41 56.098,15.83 56.098,15.83 56.098,15.83 56.598,16.02 56.998,16.2 57.288,16.34 58.098,16.46 58.098,16.46 Z M 67.097,64.88 C 67.097,64.88 66.137,61.98 65.117,60.91 62.707,58.39 59.378,56.59 55.988,55.81 50.538,54.56 44.678,55.52 39.238,56.79 36.938,57.33 32.708,59.56 32.708,59.56 32.708,59.56 32.878,58.02 32.688,57.29 32.438,56.33 32.008,55.35 31.278,54.68 29.948,53.48 28.048,53.04 26.318,52.58 24.428,52.08 22.448,51.96 20.498,51.89 18.468,51.82 16.428,52.01 14.408,52.2 11.938,52.44 9.4784,52.75 7.0384,53.22 5.6884,53.48 4.3784,53.88 3.0484,54.2 2.0984,54.44 0.18838,54.9 0.18838,54.9 0.18838,54.9 3.4184,50.29 5.2284,48.13 8.7284,43.96 12.418,39.92 16.438,36.25 21.468,31.66 29.128,26.71 32.518,23.65 33.648,22.63 44.208,12.41 44.388,10.54 44.388,10.54 44.318,12.23 44.498,13.05 44.578,13.41 44.738,13.75 44.908,14.08 45.068,14.42 45.298,14.72 45.478,15.05 45.768,15.54 45.988,16.08 46.338,16.55 46.898,17.29 47.578,17.95 48.278,18.57 48.508,18.78 49.018,19.14 49.018,19.14 49.088,19.17 52.008,16.24 52.498,14.34 53.458,10.57 56.138,4.8205 57.068,4.1605 57.558,5.2205 57.098,7.1505 57.588,8.2205 57.588,8.2205 60.568,8.0905 61.887,8.6705 62.957,9.1405 64.507,11.01 64.507,11.01 65.127,10.08 66.177,8.8705 66.907,7.8805 65.877,12.31 65.277,14.87 63.587,17.62 64.227,18.46 62.377,20.31 59.928,25.27 60.398,25.67 61.258,25.69 61.927,25.44 62.937,25.06 64.527,24.38 65.727,23.67 67.027,22.9 68.277,22 69.397,20.99 69.807,20.62 70.157,20.19 70.497,19.76 71.137,18.95 71.787,18.14 72.257,17.22 72.827,16.12 73.507,13.73 73.507,13.73 73.967,15.26 74.027,14.94 74.417,15.56 77.017,19.71 101.72,31.84 115.98,38.28 117.5,38.97 119.04,39.61 120.45,40.49 126.19,44.08 136.54,52.9 136.54,52.9 136.54,52.9 133.05,51.35 131.24,50.75 129.85,50.29 128.42,49.95 126.99,49.63 125.12,49.23 123.24,48.69 121.33,48.64 118.77,48.58 116.16,48.87 113.71,49.6 112.55,49.95 111.49,50.59 110.45,51.21 109.1,52 107.77,52.84 106.61,53.88 105.18,55.17 103.94,56.68 102.84,58.26 102.23,59.15 101.29,61.12 101.29,61.12 99.987,59.25 94.407,55.02 90.117,53.86 86.447,52.87 82.317,53.18 78.717,54.42 75.457,55.54 72.707,57.94 70.267,60.37 68.967,61.67 67.097,64.88 67.097,64.88 Z"
     style="fill:#ff00ff;fill-opacity:1;stroke:#ff0013;stroke-width:0.01521;stroke-miterlimit:4;stroke-dasharray:none;stroke-opacity:1"
     id="2006-comics-title-silhouette"
     inkscape:connector-curvature="0"
     sodipodi:nodetypes="cccccccccccccccccccccccccccccccccsccccccccccccccccccccccccccccccccccccc" />
  <path
     d="M 71.659,7.9033 C 71.799,7.5997 71.94,7.2962 72.08,6.9809 71.683,7.0976 71.274,7.2028 70.865,7.3078 70.585,7.4129 70.306,7.518 70.025,7.6231 69.709,7.8099 69.406,7.9967 69.091,8.1718 69.313,8.2652 69.523,8.3586 69.745,8.452 70.095,8.6154 70.457,8.7789 70.808,8.9423 70.924,8.814 71.053,8.6855 71.17,8.5688 71.333,8.3469 71.496,8.1252 71.659,7.9033 Z M 66.651,8.4987 C 66.943,8.382 67.223,8.2535 67.503,8.1368 67.094,7.9617 66.698,7.7748 66.289,7.5997 65.997,7.4713 65.705,7.3546 65.413,7.2261 65.075,7.1094 64.748,6.9809 64.409,6.8642 64.572,7.1094 64.748,7.3428 64.911,7.588 65.052,7.7866 65.192,7.985 65.343,8.1951 65.495,8.417 65.647,8.6505 65.798,8.8837 66.079,8.7556 66.371,8.6272 66.651,8.4987 Z M 68.659,55.888 C 66.826,55.877 64.993,55.888 63.16,55.971 61.667,56.041 60.174,56.192 58.691,56.309 56.998,56.449 55.305,56.554 53.624,56.741 51.896,56.939 50.179,57.22 48.464,57.453 46.595,57.71 44.727,57.921 42.859,58.224 41.26,58.48 39.672,58.785 38.084,59.122 36.321,59.508 34.569,59.963 32.818,60.407 30.88,60.898 28.954,61.4 27.027,61.959 25.253,62.485 23.501,63.058 21.75,63.653 20.255,64.155 18.773,64.668 17.302,65.218 15.866,65.754 14.43,66.326 13.005,66.91 11.441,67.552 8.3233,68.918 8.3233,68.918 8.3233,68.918 9.6894,58.364 10.822,53.18 12.025,47.681 13.543,42.252 15.376,36.928 17.197,31.639 19.368,26.479 21.727,21.412 23.806,16.963 28.604,8.382 28.604,8.382 28.604,8.382 32.433,10.11 34.418,10.788 36.181,11.394 38.002,11.873 39.835,12.258 41.622,12.62 43.431,12.876 45.241,13.052 46.852,13.204 48.475,13.308 50.097,13.262 52.212,13.204 54.324,12.935 56.426,12.643 58.025,12.421 61.184,11.768 61.184,11.768 61.184,11.768 62.536,6.7241 63.206,4.2028 63.581,2.8018 64.316,0.01143 64.316,0.01143 64.771,1.4124 65.378,2.5682 65.834,3.9693 65.834,3.9693 67.597,3.3855 68.508,3.4089 69.325,3.4205 70.889,4.016 70.889,4.016 71.392,2.5917 71.811,1.681 72.313,0.25662 72.313,0.25662 73.177,3.0819 73.586,4.5063 74.263,6.8759 75.513,11.652 75.513,11.652 75.513,11.652 78.408,12.34 79.879,12.562 82.051,12.889 84.234,13.134 86.429,13.157 89.137,13.192 91.847,12.971 94.52,12.62 95.664,12.468 96.785,12.211 97.894,11.943 99.855,11.464 101.81,10.962 103.71,10.285 105.19,9.7478 108.06,8.3937 108.06,8.3937 108.06,8.3937 112.45,16.006 114.36,19.964 116.47,24.319 118.41,28.755 120.03,33.309 122.43,40.022 124.44,46.899 125.99,53.857 127.11,58.866 128.39,69.059 128.39,69.059 128.39,69.059 125.58,67.634 124.14,67.003 122.68,66.361 121.21,65.789 119.72,65.229 118.09,64.61 116.43,64.038 114.77,63.501 112.98,62.929 111.17,62.427 109.36,61.902 107.58,61.388 105.79,60.862 103.98,60.395 102.23,59.952 100.47,59.531 98.712,59.158 96.914,58.772 95.091,58.423 93.282,58.107 91.332,57.768 89.395,57.489 87.445,57.22 85.986,57.021 84.514,56.835 83.043,56.682 81.467,56.519 79.879,56.39 78.303,56.274 76.796,56.168 75.303,56.064 73.796,56.005 72.08,55.935 70.376,55.901 68.659,55.888 Z"
     style="fill:#ff00ff;fill-opacity:1;stroke:#ff0013;stroke-width:0.02479;stroke-miterlimit:4;stroke-dasharray:none;stroke-opacity:1"
     id="1983-comics-title"
     inkscape:connector-curvature="0"
     sodipodi:nodetypes="ccccccccccccccccccccccccccccccccccccccccccccccccccccccccccccccccccccccc" />
</svg>
