<?xml version="1.0" encoding="UTF-8" standalone="no"?>
<svg
   xmlns:dc="http://purl.org/dc/elements/1.1/"
   xmlns:cc="http://creativecommons.org/ns#"
   xmlns:rdf="http://www.w3.org/1999/02/22-rdf-syntax-ns#"
   xmlns:svg="http://www.w3.org/2000/svg"
   xmlns="http://www.w3.org/2000/svg"
   xmlns:sodipodi="http://sodipodi.sourceforge.net/DTD/sodipodi-0.dtd"
   xmlns:inkscape="http://www.inkscape.org/namespaces/inkscape"
   id="svg989"
   viewBox="0 0 136.72 68.68"
   version="1.1"
   height="69.374mm"
   width="136.72mm"
   sodipodi:docname="anim-52points-unscaled.svg"
   inkscape:version="0.92.2 5c3e80d, 2017-08-06">
  <sodipodi:namedview
     pagecolor="#ffffff"
     bordercolor="#666666"
     borderopacity="1"
     objecttolerance="10"
     gridtolerance="10"
     guidetolerance="10"
     inkscape:pageopacity="0"
     inkscape:pageshadow="2"
     inkscape:window-width="1680"
     inkscape:window-height="921"
     id="namedview4881"
     showgrid="false"
     inkscape:zoom="2.3028"
     inkscape:cx="258.38"
     inkscape:cy="130.24"
     inkscape:window-x="0"
     inkscape:window-y="1"
     inkscape:window-maximized="1"
     inkscape:current-layer="svg989" />
  <metadata
     id="metadata995">
    <rdf:RDF>
      <cc:Work
         rdf:about="">
        <dc:format>image/svg+xml</dc:format>
        <dc:type
           rdf:resource="http://purl.org/dc/dcmitype/StillImage" />
        <dc:title />
      </cc:Work>
    </rdf:RDF>
  </metadata>
  <defs
     id="defs993" />
  <path
     style="fill:none;fill-opacity:1;stroke:#ff0000;stroke-width:0.10001;stroke-miterlimit:4;stroke-dasharray:none;stroke-opacity:1"
     d="M 67.727,56.287 C 67.727,56.287 65.687,50.547 63.997,48.047 62.037,45.157 59.886,41.977 56.726,40.497 54.656,39.527 52.156,39.757 49.886,40.007 47.706,40.247 43.586,41.917 43.586,41.917 43.586,41.917 42.896,37.207 41.746,35.187 41.066,33.977 40.146,32.717 38.866,32.187 37.626,31.667 36.156,32.027 34.826,32.257 33.306,32.527 31.656,33.287 30.446,33.767 30.446,33.767 30.176,30.857 29.536,29.577 28.646,27.817 27.296,26.187 25.626,25.117 24.366,24.307 22.806,23.977 21.316,23.837 19.856,23.697 16.936,24.247 16.936,24.247 16.936,24.247 20.116,21.797 21.826,20.737 24.656,18.977 27.606,17.397 30.646,16.017 32.276,15.277 33.986,14.717 35.676,14.137 37.116,13.637 40.046,12.767 40.046,12.767 40.046,12.767 41.936,14.237 42.936,14.907 44.036,15.647 45.186,16.337 46.346,16.987 47.446,17.607 48.566,18.207 49.726,18.717 51.096,19.317 52.506,19.827 53.926,20.287 55.136,20.687 56.376,21.027 57.616,21.327 58.686,21.587 60.846,21.987 60.846,21.987 61.206,21.807 64.047,19.507 64.167,18.037 63.487,16.927 63.147,15.667 63.327,14.607 63.327,14.607 64.677,14.267 65.327,14.417 66.357,14.647 68.047,16.017 68.047,16.017 68.047,16.017 69.367,14.847 70.177,14.597 70.997,14.347 72.747,14.567 72.747,14.567 72.747,14.567 73.277,16.857 71.797,18.097 71.927,18.707 74.807,21.897 75.157,21.987 75.157,21.987 77.127,21.617 78.097,21.387 79.137,21.147 80.167,20.887 81.187,20.587 82.187,20.287 83.187,19.957 84.157,19.577 85.657,18.997 87.137,18.377 88.567,17.657 89.917,16.977 91.217,16.197 92.497,15.387 93.757,14.587 96.157,12.817 96.157,12.817 96.157,12.817 99.707,13.817 101.44,14.457 103.9,15.357 106.31,16.387 108.66,17.537 110.16,18.277 111.63,19.107 113.05,19.987 115.36,21.427 119.79,24.617 119.79,24.617 119.79,24.617 116.84,23.657 115.32,23.737 113.54,23.827 111.7,24.327 110.22,25.317 108.67,26.357 107.47,27.957 106.64,29.637 106,30.927 105.67,33.837 105.67,33.837 105.67,33.837 103.49,32.757 102.32,32.487 100.79,32.137 99.137,31.717 97.637,32.147 96.667,32.427 95.797,33.117 95.207,33.937 93.557,36.237 92.627,40.547 92.647,42.037 92.647,42.037 88.857,40.367 86.837,40.077 84.417,39.737 81.757,39.427 79.527,40.407 76.357,41.797 74.197,44.927 72.147,47.727 70.247,50.317 67.727,56.287 67.727,56.287 Z"
     id="1949-movie-sigil"
     inkscape:connector-curvature="0"
     sodipodi:nodetypes="ccccccccccccccccccccccccccccccccccccccccccccccccccccc" />
  <path
     d="M 62.479,24.295 C 62.032,24.185 61.636,23.855 61.186,23.665 60.976,23.815 61.036,24.025 61.026,24.215 61.316,24.235 61.888,24.855 62.161,24.775 62.395,24.715 62.405,24.475 62.479,24.295 Z M 65.562,23.395 C 64.862,23.485 64.182,23.735 63.506,24.005 63.458,24.125 63.615,24.335 63.723,24.515 64.362,24.575 64.949,24.685 65.565,23.865 65.673,23.705 65.583,23.555 65.562,23.395 Z M 67.8,53.635 C 67.011,52.175 65.314,50.745 63.614,49.705 61.406,48.345 58.866,47.405 56.296,47.075 52.896,46.625 49.306,46.865 46.056,47.935 43.686,48.715 41.416,49.905 39.676,51.875 39.676,51.875 38.006,50.435 37.056,49.875 36.256,49.405 35.376,49.065 34.516,48.735 33.806,48.465 33.086,48.225 32.356,48.055 31.066,47.745 29.766,47.485 28.446,47.415 27.326,47.345 26.206,47.465 25.086,47.575 24.146,47.665 23.206,47.785 22.276,47.995 21.226,48.235 20.186,48.535 19.176,48.925 18.416,49.225 16.956,50.005 16.956,50.005 16.956,50.005 20.586,43.575 22.786,40.625 25.006,37.655 27.426,34.815 30.146,32.315 33.096,29.595 36.366,27.225 39.786,25.125 42.296,23.585 47.706,21.205 47.706,21.205 48.646,22.255 51.406,23.395 53.466,23.915 55.866,24.515 60.446,24.495 60.906,24.295 61.016,24.625 57.836,25.585 56.396,26.385 55.226,27.035 52.916,28.285 53.006,28.895 53.286,28.945 56.056,27.085 57.726,26.505 58.866,26.115 61.266,25.805 61.266,25.805 60.536,22.845 59.836,18.755 61.376,17.035 61.356,16.522 61.336,16.008 61.316,15.495 61.782,15.585 62.152,15.835 62.621,15.925 61.596,16.785 60.586,18.445 60.856,19.595 61.526,19.175 62.64,18.535 63.559,18.375 64.567,18.205 65.698,18.105 66.448,18.805 68.229,20.455 67.987,26.095 67.987,26.095 54.376,32.705 49.566,33.905 44.806,37.965 44.806,37.965 69.395,24.915 71.511,26.645 72.834,27.725 65.661,30.655 66.24,31.605 72.391,27.875 76.502,27.565 66.461,36.255 73.778,31.685 75.688,28.005 72.454,25.765 72.112,25.525 72.779,25.125 73.081,24.905 79.324,24.285 84.887,21.715 87.609,18.865 91.54,20.495 94.858,21.875 98.188,23.915 101.26,25.805 104.16,28.015 106.76,30.515 109.93,33.565 112.84,36.955 115.22,40.655 117.12,43.615 119.77,50.175 119.77,50.175 119.77,50.175 117.9,48.975 116.9,48.515 115.85,48.025 114.75,47.655 113.64,47.345 112.42,47.005 111.16,46.775 109.9,46.625 108.79,46.495 107.67,46.395 106.55,46.455 105.28,46.525 104.03,46.785 102.79,47.085 101.76,47.335 100.73,47.625 99.756,48.035 98.731,48.455 97.724,48.955 96.806,49.575 95.854,50.225 94.189,51.825 94.189,51.825 92.946,50.665 90.75,49.555 88.813,48.925 86.356,48.135 83.712,47.805 81.132,47.915 78.379,48.035 75.543,48.505 73.058,49.695 71.077,50.645 69.243,51.835 67.8,53.635 Z"
     style="fill:#ff0000;fill-opacity:1;stroke:#ff0008;stroke-width:0.02117;stroke-miterlimit:4;stroke-dasharray:none;stroke-opacity:1"
     id="1957-comics-title-shadow"
     inkscape:connector-curvature="0"
     sodipodi:nodetypes="cccccccccccccccccccccccccccccsccccccccccccccccccccccccccccccccc" />
  <path
     d="M 67.33,22.601 C 67.25,22.331 66.65,22.471 66.01,22.431 65.62,22.401 64.63,21.971 64.01,21.951 64.47,22.711 65.54,23.161 66.45,23.681 66.81,23.191 67.41,22.871 67.33,22.601 Z M 72.71,21.971 C 72.09,22.011 71.47,22.211 70.85,22.411 70.32,22.501 69.85,22.211 69.39,22.611 69.49,23.051 69.83,23.371 70.23,23.691 71.09,23.131 72.06,22.781 72.71,21.971 Z M 68.36,46.591 C 67.83,51.061 67.71,53.941 67.92,56.911 66.02,53.771 60.296,48.251 56.566,46.111 53.796,45.941 45.236,48.481 42.716,49.861 43.216,46.501 44.556,43.741 45.856,40.791 44.446,42.501 42.286,46.381 42.116,49.111 42.116,49.111 40.826,47.371 40.196,46.501 39.536,45.601 38.926,44.671 38.226,43.801 37.546,42.941 36.046,41.321 36.046,41.321 36.046,41.321 30.746,42.881 28.176,43.901 25.556,44.931 23.006,46.141 20.526,47.471 18.326,48.651 16.336,49.911 14.146,51.371 16.586,43.701 20.926,37.091 26.216,31.161 21.836,35.401 18.206,39.591 14.206,47.521 16.266,40.731 23.356,30.671 30.586,24.731 38.256,18.431 45.736,14.651 57.686,12.371 48.956,15.221 43.646,19.041 40.586,22.481 44.066,19.591 49.596,16.021 54.156,14.761 51.666,16.451 49.966,19.071 50.106,21.961 50.276,21.151 50.506,20.481 50.786,19.741 50.786,19.741 54.286,20.991 56.096,21.401 57.966,21.831 61.8,22.251 61.8,22.251 61.8,22.251 61.84,22.791 61.95,23.651 61.95,23.651 62.82,20.251 63.46,18.621 64.02,17.151 65.5,14.361 65.5,14.361 66.54,17.441 65.4,15.651 65.26,17.391 65.26,17.391 67.27,16.701 68.31,16.701 69.41,16.711 71.51,17.481 71.51,17.481 71.28,15.541 70.01,17.731 71.15,14.401 71.15,14.401 72.84,17.561 73.46,19.241 73.98,20.671 74.63,23.661 74.63,23.661 74.63,23.661 74.71,22.951 75.02,22.151 76.44,22.261 78.9,21.821 80.79,21.381 82.52,20.981 85.24,20.221 85.84,19.711 86.08,20.471 86.11,21.091 86.79,22.111 86.56,18.891 85.08,16.631 82.42,14.641 85.11,15.451 91.95,19.031 96.04,22.541 89.73,16.221 81.47,13.001 78.15,12.231 88.24,13.651 99.48,18.631 107.3,25.781 113.89,31.811 118.88,38.431 122.55,47.561 119.36,41.461 114.91,35.301 110.5,31.361 116.8,38.551 120.26,45.451 122.57,51.331 121.22,50.381 118.09,48.511 115.75,47.281 113.31,46.011 110.79,44.861 108.22,43.851 105.72,42.871 100.57,41.321 100.57,41.321 100.57,41.321 98.69,43.501 97.79,44.621 97.18,45.381 96.01,46.951 96.01,46.951 96.01,46.951 94.98,47.881 94.56,48.691 93.81,45.821 92.4,42.671 90.83,40.721 91.95,43.371 93.38,45.631 93.85,49.681 89.31,47.641 84.37,46.551 80.13,46.081 76.43,48.601 72.75,51.081 68.84,56.801 68.87,53.731 68.97,50.321 68.36,46.591 Z"
     style="fill:#ff0000;fill-opacity:1;stroke:#ff0008;stroke-width:0.02117;stroke-miterlimit:4;stroke-dasharray:none;stroke-opacity:1"
     id="2009-comics-title"
     inkscape:connector-curvature="0"
     sodipodi:nodetypes="scccscccccccccccccccccccccccccccccccccccccccccccccccccccccccccc" />
  <path
     d="M 57.696,45.265 C 55.406,43.585 53.106,41.905 50.816,40.225 50.916,41.965 51.026,43.705 51.126,45.445 55.796,47.255 60.456,49.075 65.121,50.885 62.641,49.015 60.176,47.135 57.696,45.265 Z M 85.921,40.215 C 83.511,42.035 81.111,43.865 78.701,45.685 76.511,47.305 74.311,48.935 72.121,50.555 76.621,48.855 81.131,47.145 85.631,45.445 85.731,43.705 85.821,41.955 85.921,40.215 Z M 68.461,58.345 C 68.461,58.345 66.951,57.525 66.191,57.115 65.411,56.685 64.621,56.265 63.841,55.835 62.981,55.355 62.131,54.875 61.276,54.395 60.396,53.905 59.526,53.415 58.636,52.945 57.866,52.525 57.086,52.145 56.316,51.725 55.466,51.265 54.646,50.785 53.806,50.315 53.056,49.885 52.306,49.455 51.546,49.035 50.766,48.605 49.986,48.185 49.206,47.775 48.536,47.415 47.856,47.075 47.186,46.725 46.426,46.325 45.666,45.945 44.916,45.535 44.406,45.255 43.906,44.955 43.406,44.665 42.956,44.395 42.066,43.845 42.066,43.845 42.066,43.845 42.156,39.835 42.166,37.825 42.186,35.155 42.116,32.495 42.096,29.825 42.086,26.635 42.086,23.435 42.096,20.235 42.106,17.085 42.136,10.785 42.136,10.785 42.136,10.785 43.886,14.505 44.726,16.385 45.256,17.575 45.736,18.785 46.276,19.965 46.826,21.175 47.996,23.565 47.996,23.565 47.996,23.565 48.586,22.185 48.976,21.555 49.536,20.655 50.196,19.825 50.906,19.035 51.656,18.205 52.456,17.405 53.336,16.715 54.356,15.915 55.446,15.215 56.596,14.625 57.686,14.055 58.836,13.595 60.016,13.225 61.536,12.745 63.101,12.385 64.671,12.145 65.941,11.955 67.231,11.875 68.511,11.885 69.901,11.895 71.301,12.015 72.681,12.225 73.711,12.375 74.731,12.595 75.731,12.885 76.941,13.245 78.121,13.705 79.281,14.215 80.211,14.635 81.151,15.085 82.011,15.655 83.111,16.365 84.151,17.185 85.081,18.105 85.911,18.915 86.681,19.805 87.301,20.775 87.881,21.685 88.701,23.685 88.701,23.685 88.701,23.685 89.941,21.125 90.531,19.825 91.201,18.365 91.811,16.885 92.471,15.415 93.141,13.925 94.511,10.965 94.511,10.965 94.511,10.965 94.651,17.515 94.661,20.795 94.671,23.525 94.601,26.245 94.581,28.975 94.561,31.565 94.551,34.155 94.551,36.745 94.561,39.145 94.611,43.955 94.611,43.955 94.611,43.955 93.761,44.395 93.341,44.615 92.591,45.015 91.851,45.425 91.101,45.825 90.421,46.195 89.741,46.555 89.071,46.925 88.301,47.345 87.551,47.785 86.781,48.205 86.061,48.605 85.321,48.975 84.591,49.375 83.741,49.835 82.901,50.325 82.051,50.795 81.341,51.185 80.631,51.585 79.921,51.975 79.281,52.325 78.641,52.675 78.001,53.025 77.171,53.485 76.331,53.935 75.501,54.405 74.691,54.855 73.891,55.335 73.081,55.785 72.251,56.235 71.401,56.665 70.571,57.125 69.861,57.515 68.461,58.345 68.461,58.345 Z"
     style="fill:#ff0000;fill-opacity:1;stroke:#ff0008;stroke-width:0.02117;stroke-miterlimit:4;stroke-dasharray:none;stroke-opacity:1"
     id="2008-comics-logo"
     inkscape:connector-curvature="0"
     sodipodi:nodetypes="ccccccccccccccccccccccccccccccccccccccccccccccccccccccccccccccc" />
  <path
     d="M 56.236,12.689 C 56.106,13.119 56.186,13.539 56.306,13.969 56.306,13.969 57.306,14.429 57.856,14.599 58.176,14.709 58.286,14.629 58.186,14.359 57.666,13.669 57.166,13.289 56.236,12.689 Z M 63.366,15.049 C 62.816,14.989 62.006,15.379 61.286,15.439 61.186,15.619 61.296,15.759 61.326,15.909 61.776,16.089 62.216,16.049 62.656,16.109 63.066,15.879 63.326,15.539 63.366,15.049 Z M 67.286,63.059 C 67.286,63.059 66.326,60.159 65.306,59.089 62.896,56.569 59.566,54.769 56.176,53.989 50.726,52.739 44.866,53.699 39.426,54.969 37.126,55.509 32.896,57.739 32.896,57.739 32.896,57.739 33.066,56.199 32.876,55.469 32.626,54.509 32.196,53.529 31.466,52.859 30.136,51.659 28.236,51.219 26.506,50.759 24.616,50.259 22.636,50.139 20.686,50.069 18.656,49.999 16.616,50.189 14.596,50.379 12.126,50.619 9.6656,50.959 7.2256,51.399 5.8856,51.639 4.5656,51.939 3.2556,52.269 2.1656,52.539 0.02558,53.169 0.02558,53.169 0.02558,53.169 3.3056,48.389 5.1756,46.179 8.7156,42.009 12.576,38.099 16.626,34.429 21.526,29.989 28.736,25.109 32.126,22.049 33.256,21.029 42.686,12.179 44.436,9.2388 43.886,12.459 48.416,18.019 51.836,19.619 52.416,19.889 52.196,17.749 52.726,17.829 53.296,20.599 54.946,21.579 54.126,14.679 54.886,15.499 54.886,15.239 55.426,15.449 55.436,14.309 55.436,13.159 55.446,12.019 56.086,11.859 57.386,11.639 57.386,11.639 57.266,13.529 58.906,14.299 59.196,14.359 59.196,14.359 58.266,11.589 58.496,10.619 57.846,10.609 57.196,10.589 56.546,10.579 59.726,6.3988 63.426,9.0088 64.586,11.289 64.626,10.589 64.656,9.8888 64.696,9.1888 65.316,8.2588 66.366,7.0488 67.096,6.0588 66.066,10.489 65.466,13.049 63.776,15.799 64.416,16.639 62.566,18.489 60.116,23.449 60.586,23.849 61.446,23.869 62.116,23.619 63.126,23.239 64.716,22.559 65.916,21.849 67.216,21.079 68.466,20.179 69.586,19.169 69.996,18.799 70.346,18.369 70.686,17.939 71.326,17.129 71.976,16.319 72.446,15.399 73.016,14.299 73.696,11.909 73.696,11.909 74.156,13.439 74.216,13.119 74.606,13.739 77.206,17.889 101.91,30.019 116.17,36.459 117.69,37.149 119.23,37.789 120.63,38.669 126.37,42.259 136.72,51.079 136.72,51.079 136.72,51.079 133.23,49.529 131.42,48.929 130.03,48.469 128.6,48.129 127.17,47.809 125.3,47.409 123.42,46.869 121.51,46.819 118.96,46.759 116.35,47.049 113.9,47.779 112.74,48.129 111.68,48.769 110.64,49.389 109.29,50.179 107.96,51.019 106.8,52.059 105.37,53.349 104.13,54.859 103.03,56.439 102.42,57.329 101.48,59.299 101.48,59.299 100.18,57.429 94.596,53.199 90.306,52.039 86.636,51.049 82.496,51.329 78.906,52.599 75.616,53.769 72.936,56.329 70.456,58.789 69.196,60.039 67.286,63.059 67.286,63.059 Z"
     style="fill:#ff0000;fill-opacity:1;stroke:#ff0008;stroke-width:0.02117;stroke-miterlimit:4;stroke-dasharray:none;stroke-opacity:1"
     id="2006-comics-title-shadow"
     inkscape:connector-curvature="0"
     sodipodi:nodetypes="cccccccccccccccccccccccccsccccccccccccccccccccccccccccccccccccc" />
  <path
     d="M 68.679,21.727 C 67.722,21.017 66.711,21.107 65.808,20.577 65.718,20.757 65.707,20.937 65.807,21.127 66.652,21.607 67.624,22.457 68.682,22.407 68.809,22.177 68.835,21.957 68.679,21.727 Z M 72.865,20.517 C 72.237,20.817 71.605,21.107 71.022,21.667 70.912,21.907 70.865,22.137 71.107,22.357 71.678,22.057 72.229,21.697 72.752,21.257 72.841,20.987 72.895,20.737 72.865,20.517 Z M 68.353,58.877 C 68.353,58.877 66.345,56.617 65.237,55.597 64.186,54.627 63.087,53.697 61.902,52.897 60.666,52.057 59.316,51.387 57.986,50.707 56.566,49.987 55.126,49.307 53.656,48.717 52.316,48.177 50.936,47.727 49.556,47.317 48.196,46.927 46.826,46.587 45.436,46.287 43.706,45.917 41.956,45.577 40.196,45.327 38.756,45.127 37.306,44.987 35.856,44.887 34.396,44.787 32.936,44.747 31.466,44.727 29.666,44.717 27.856,44.697 26.056,44.837 24.476,44.967 22.926,45.257 21.366,45.497 20.046,45.707 17.426,46.187 17.426,46.187 17.426,46.187 20.496,39.757 22.386,36.747 24.246,33.777 26.326,30.947 28.606,28.297 30.866,25.667 33.336,23.187 35.976,20.937 38.676,18.637 44.606,14.697 44.606,14.697 44.606,14.697 46.406,16.337 47.386,17.037 48.346,17.717 49.356,18.317 50.406,18.847 51.506,19.407 52.646,19.867 53.806,20.297 54.776,20.647 55.776,20.947 56.776,21.217 57.636,21.437 58.486,21.637 59.356,21.777 60.286,21.907 61.326,22.347 62.154,22.007 63.102,21.627 63.558,20.747 63.795,19.827 64.181,18.347 62.852,10.247 62.852,10.247 63.556,12.577 64.206,14.957 64.91,17.287 64.91,17.287 67.294,16.537 68.525,16.527 69.453,16.517 71.26,17.037 71.26,17.037 71.784,14.837 72.173,12.517 72.697,10.317 72.572,12.677 72.579,15.357 72.454,17.717 72.438,18.017 73.86,18.867 73.443,22.317 73.443,22.317 75.897,22.007 77.111,21.777 78.252,21.557 79.381,21.267 80.502,20.967 81.57,20.677 82.642,20.387 83.675,19.987 84.778,19.557 85.85,19.047 86.888,18.487 87.814,17.977 88.722,17.437 89.57,16.807 90.432,16.177 92.001,14.717 92.001,14.717 94.49,16.237 98.785,19.377 101.88,22.077 104.23,24.117 106.44,26.347 108.45,28.727 110.83,31.557 113,34.587 114.92,37.747 116.6,40.507 119.3,46.387 119.3,46.387 119.3,46.387 116.13,45.697 114.52,45.457 113.04,45.237 111.54,45.107 110.05,44.987 108.73,44.887 107.4,44.817 106.08,44.797 104.64,44.787 103.19,44.817 101.75,44.907 100.1,45.007 98.453,45.177 96.815,45.397 95.298,45.607 93.791,45.887 92.291,46.187 90.878,46.477 89.466,46.777 88.078,47.167 86.548,47.597 85.039,48.097 83.551,48.657 82.076,49.217 80.616,49.817 79.196,50.507 77.602,51.277 76.005,52.057 74.533,53.037 73.347,53.837 72.241,54.747 71.205,55.727 70.175,56.697 68.353,58.877 68.353,58.877 Z"
     style="fill:#ff0000;fill-opacity:1;stroke:#ff0008;stroke-width:0.02117;stroke-miterlimit:4;stroke-dasharray:none;stroke-opacity:1"
     id="2013-tv-title"
     inkscape:connector-curvature="0"
     sodipodi:nodetypes="ccccccccccccccccccccccccccccccccccccccccccccccccccccccccccccccc" />
  <path
     d="M 56.036,14.595 C 55.906,15.025 55.986,15.445 56.106,15.875 56.106,15.875 57.106,16.335 57.656,16.505 57.976,16.615 58.086,16.535 57.986,16.265 57.466,15.575 56.966,15.195 56.036,14.595 Z M 63.167,16.955 C 62.617,16.895 61.807,17.285 61.086,17.345 60.986,17.525 61.096,17.665 61.126,17.815 61.576,17.995 62.017,17.955 62.457,18.015 62.867,17.785 63.127,17.445 63.167,16.955 Z M 67.137,64.925 C 67.137,64.925 66.177,62.025 65.157,60.955 62.747,58.435 59.416,56.635 56.026,55.855 50.576,54.605 44.716,55.565 39.276,56.835 36.976,57.375 32.746,59.605 32.746,59.605 32.746,59.605 32.916,58.065 32.726,57.335 32.476,56.375 32.046,55.395 31.316,54.725 29.986,53.525 28.086,53.085 26.356,52.625 24.466,52.125 22.486,52.005 20.536,51.935 18.506,51.865 16.466,52.055 14.446,52.245 11.976,52.485 9.5156,52.795 7.0756,53.265 5.7256,53.525 4.4156,53.925 3.0856,54.245 2.1356,54.485 0.15558,54.675 0.15558,54.675 1.8856,50.855 14.866,37.715 15.676,36.815 18.796,34.105 26.976,28.535 30.996,24.865 36.026,20.275 37.196,18.795 40.586,15.735 41.716,14.715 44.116,11.295 44.116,11.295 44.116,11.295 43.946,12.315 44.226,12.955 44.306,13.315 45.016,14.545 45.186,14.875 45.346,15.215 45.646,15.715 45.826,16.045 46.116,16.535 47.016,17.315 47.366,17.785 47.926,18.525 47.756,18.505 48.456,19.125 48.686,19.335 49.056,19.185 49.056,19.185 49.776,18.705 52.046,16.285 52.536,14.385 53.496,10.615 56.176,4.8648 57.106,4.2048 57.256,5.3348 56.896,7.1948 57.386,8.2648 57.386,8.2648 60.506,8.2748 61.827,8.8548 62.897,9.3248 64.347,11.055 64.347,11.055 64.967,10.125 65.977,8.9148 66.707,7.9248 64.867,14.465 64.607,16.815 63.457,17.635 64.127,18.705 62.857,19.095 59.966,25.315 60.436,25.715 61.296,25.735 61.967,25.485 62.977,25.105 64.567,24.425 65.767,23.715 67.067,22.945 68.317,22.045 69.437,21.035 69.847,20.665 70.197,20.235 70.537,19.805 71.177,18.995 71.827,18.185 72.297,17.265 72.867,16.165 73.277,13.975 73.277,13.975 73.767,14.255 74.067,14.985 74.457,15.605 77.057,19.755 101.76,31.885 116.02,38.325 117.54,39.015 119.08,39.655 120.49,40.535 126.23,44.125 136.58,52.945 136.58,52.945 136.58,52.945 133.09,51.395 131.28,50.795 129.89,50.335 128.46,49.995 127.03,49.675 125.16,49.275 123.28,48.735 121.37,48.685 118.81,48.625 116.2,48.915 113.75,49.645 112.59,49.995 111.53,50.635 110.49,51.255 109.14,52.045 107.81,52.885 106.65,53.925 105.22,55.215 103.98,56.725 102.88,58.305 102.27,59.195 101.33,61.165 101.33,61.165 100.03,59.295 94.447,55.065 90.157,53.905 86.487,52.915 82.357,53.225 78.757,54.465 75.497,55.585 72.747,57.985 70.307,60.415 69.007,61.715 67.137,64.925 67.137,64.925 Z"
     style="fill:#ff0000;fill-opacity:1;stroke:#ff0008;stroke-width:0.02117;stroke-miterlimit:4;stroke-dasharray:none;stroke-opacity:1"
     id="2006-comics-title-silhouette"
     inkscape:connector-curvature="0"
     sodipodi:nodetypes="cccccccccccccccccccccccccsccccccccccccccccccccccccccccccccccccc" />
  <path
     d="M 40.816,27.982 C 39.876,27.232 38.716,26.842 37.296,27.242 36.976,28.212 37.866,29.712 38.816,30.382 39.706,31.002 41.146,31.252 42.056,30.702 42.276,30.102 41.596,28.602 40.816,27.982 Z M 47.316,26.962 C 46.716,26.732 45.426,27.052 44.806,27.662 44.026,28.442 43.586,29.782 43.876,30.842 44.666,31.042 46.066,30.342 46.616,29.502 47.136,28.702 47.606,27.742 47.316,26.962 Z M 52.966,54.252 C 52.966,54.252 51.246,51.972 50.076,51.212 48.466,50.172 46.556,49.532 44.646,49.312 42.976,49.112 41.226,49.332 39.606,49.822 38.396,50.192 36.566,51.072 36.246,51.602 35.926,50.642 34.986,49.772 34.226,49.092 33.506,48.432 32.446,47.792 31.436,47.352 30.216,46.822 28.896,46.482 27.566,46.322 26.356,46.172 23.916,46.372 23.916,46.372 24.076,44.582 23.926,43.202 23.526,41.712 23.226,40.592 22.546,39.482 21.726,38.612 20.866,37.702 19.776,36.932 18.586,36.522 17.686,36.222 15.746,36.332 15.746,36.332 15.746,36.332 16.086,30.792 16.976,28.192 17.956,25.302 19.426,22.492 21.426,20.183 22.966,18.399 24.886,16.834 27.056,15.896 28.886,15.103 31.996,14.681 32.976,14.937 32.976,14.937 30.816,16.226 29.956,17.127 29.186,17.934 28.476,18.868 28.136,19.927 27.756,21.087 27.666,22.392 27.956,23.582 28.216,24.682 28.876,25.692 29.626,26.532 30.516,27.532 31.656,28.312 32.846,28.912 33.836,29.412 36.016,29.912 36.016,29.912 36.016,29.912 35.596,26.002 35.516,24.032 35.406,21.234 35.566,15.631 35.566,15.631 36.156,17.879 36.966,20.871 37.556,23.122 37.556,23.122 39.466,21.624 41.326,21.539 43.376,21.446 45.856,23.012 45.856,23.012 45.766,20.648 45.916,17.831 46.316,15.422 46.316,15.422 46.886,20.997 47.426,23.742 47.876,26.062 49.216,30.602 49.216,30.602 49.216,30.602 51.466,30.642 52.586,30.572 53.856,30.492 55.136,30.392 56.386,30.152 57.836,29.872 59.326,29.622 60.646,28.972 61.536,28.532 62.639,28.082 63.019,27.172 63.229,26.672 63.119,26.012 62.819,25.562 62.349,24.842 60.616,24.242 60.616,24.242 62.399,23.742 73.679,23.242 80.429,23.802 86.749,24.332 93.059,25.382 99.139,27.182 104.13,28.652 109.04,30.592 113.54,33.202 116.25,34.772 120.98,38.942 120.98,38.942 118.36,37.492 114.93,36.892 111.8,36.992 108.65,37.092 105.05,37.472 102.69,39.572 101.95,40.222 101.29,41.342 101.55,42.292 102.12,44.332 104.14,45.232 106.66,46.062 106.66,46.062 97.449,45.792 92.859,46.142 88.999,46.432 85.049,46.632 81.379,47.842 79.609,48.432 77.209,48.782 76.439,50.482 76.239,50.922 76.599,51.542 76.769,51.902 75.369,51.292 71.609,50.172 68.939,49.712 65.839,49.182 62.659,48.842 59.516,49.092 57.986,49.212 56.226,49.162 55.016,50.122 53.806,51.072 52.876,52.262 52.966,54.252 Z"
     style="fill:#ff0000;fill-opacity:1;stroke:#ff0008;stroke-width:0.02117;stroke-miterlimit:4;stroke-dasharray:none;stroke-opacity:1"
     id="2000-comics-title-batgirl"
     inkscape:connector-curvature="0"
     sodipodi:nodetypes="ccccccccccccccccccccccccccccccccccccccccccccccccccccccccccccccc" />
  <path
     d="M 74.682,45.277 C 71.872,43.437 69.062,41.597 66.252,39.767 66.252,41.374 66.252,42.98 66.252,44.587 69.052,45.407 71.852,46.237 74.652,47.057 74.662,46.467 74.672,45.867 74.682,45.277 Z M 94.752,39.737 C 91.892,41.567 89.032,43.407 86.172,45.237 86.202,45.847 86.232,46.467 86.262,47.077 89.072,46.257 91.882,45.447 94.702,44.627 94.712,42.997 94.732,41.367 94.752,39.737 Z M 73.002,65.577 C 71.902,65.647 70.802,65.717 69.702,65.697 68.502,65.667 67.312,65.527 66.122,65.397 64.902,65.267 63.672,65.137 62.462,64.927 61.166,64.697 59.876,64.397 58.606,64.057 57.146,63.657 55.686,63.217 54.276,62.667 52.966,62.157 51.706,61.517 50.426,60.907 49.176,60.307 47.876,59.767 46.686,59.037 45.586,58.367 44.586,57.547 43.566,56.757 42.426,55.887 41.266,55.027 40.216,54.047 39.206,53.117 38.246,52.117 37.406,51.047 36.496,49.897 34.986,47.377 34.986,47.377 38.466,41.417 42.246,35.647 47.656,32.037 46.246,35.567 46.186,37.997 45.926,41.297 56.976,52.187 64.102,56.217 74.232,59.777 70.272,58.037 61.476,51.717 59.396,49.097 58.816,34.107 60.266,12.511 62.562,3.5398 62.982,5.1678 63.362,6.8068 63.822,8.4248 64.172,9.6568 64.462,10.911 64.952,12.096 65.442,13.282 66.132,14.371 66.722,15.508 67.942,14.875 69.082,14.059 70.382,13.61 70.992,13.4 71.652,13.402 72.272,13.251 73.002,13.075 73.692,12.782 74.422,12.614 74.932,12.496 75.452,12.444 75.972,12.356 76.572,12.255 77.162,12.092 77.762,12.047 78.382,12.001 79.002,12.081 79.622,12.091 80.192,12.1 80.762,12.105 81.332,12.104 81.892,12.103 82.462,12.046 83.022,12.088 83.662,12.136 84.292,12.306 84.932,12.395 85.502,12.474 86.082,12.465 86.642,12.597 87.232,12.736 87.762,13.043 88.342,13.212 89.022,13.413 89.752,13.448 90.432,13.684 90.972,13.872 91.442,14.207 91.972,14.431 92.772,14.772 93.572,15.063 94.412,15.335 94.962,14.024 95.582,12.738 96.072,11.403 96.582,10.03 97.012,8.6298 97.402,7.2178 97.742,5.9668 97.992,4.5388 98.282,3.4278 98.952,7.5708 99.782,11.998 100.29,16.315 100.85,20.999 101.21,25.706 101.45,30.417 101.71,35.687 101.77,40.977 101.73,46.257 101.71,49.167 101.46,54.987 101.46,54.987 101.46,54.987 100.7,55.787 100.26,56.127 99.772,56.507 99.172,56.757 98.662,57.127 98.122,57.507 97.652,57.987 97.122,58.367 96.552,58.787 95.962,59.167 95.352,59.527 94.652,59.937 93.912,60.277 93.182,60.657 92.402,61.067 91.642,61.547 90.822,61.907 90.032,62.247 89.202,62.477 88.382,62.747 87.502,63.037 86.632,63.337 85.742,63.607 84.832,63.877 83.902,64.127 82.972,64.357 82.012,64.587 81.052,64.847 80.072,64.987 79.032,65.137 77.992,65.137 76.952,65.227 75.632,65.327 74.322,65.487 73.002,65.577 Z"
     style="fill:#ff0000;fill-opacity:1;stroke:#ff0008;stroke-width:0.02117;stroke-miterlimit:4;stroke-dasharray:none;stroke-opacity:1"
     id="2001-comics-logo"
     inkscape:connector-curvature="0"
     sodipodi:nodetypes="cccccccccccccccccccccccccccccccccccccsccccccccccccccccccccccccc" />
  <path
     d="M 67.208,23.842 C 66.348,23.072 65.328,22.842 64.278,22.682 63.928,23.252 65.068,23.692 65.618,23.992 66.058,24.222 66.588,24.352 67.078,24.302 67.268,24.202 67.208,24.002 67.208,23.842 Z M 72.658,22.732 C 71.718,22.742 70.738,23.122 69.698,23.852 69.688,23.982 69.658,24.072 69.868,24.212 70.508,24.412 70.868,24.232 71.308,24.022 71.868,23.762 72.658,23.212 72.658,22.732 Z M 68.478,54.392 C 68.478,54.392 65.328,50.672 63.378,49.262 61.316,47.772 58.996,46.592 56.576,45.842 53.696,44.952 50.626,44.552 47.606,44.642 45.756,44.692 42.146,45.692 42.146,45.692 42.146,45.692 41.246,44.182 40.656,43.542 39.556,42.342 38.296,41.272 36.916,40.402 35.666,39.612 34.276,39.042 32.876,38.572 31.776,38.212 30.626,38.002 29.486,37.832 28.136,37.632 26.776,37.502 25.416,37.512 24.276,37.522 23.136,37.642 22.016,37.812 20.966,37.972 19.926,38.192 18.906,38.502 17.936,38.792 16.056,39.592 16.056,39.592 16.056,39.592 19.336,34.382 21.426,32.142 23.866,29.522 26.666,27.222 29.656,25.262 32.526,23.382 35.636,21.832 38.856,20.642 42.696,19.222 49.306,17.802 50.786,17.689 50.786,17.689 49.146,18.782 48.616,19.582 48.046,20.452 47.496,21.522 47.656,22.542 47.806,23.502 48.596,24.312 49.376,24.902 50.426,25.702 51.776,26.092 53.076,26.292 54.456,26.502 55.916,26.452 57.246,26.052 58.626,25.642 59.996,24.942 60.996,23.902 61.828,23.032 62.318,21.852 62.648,20.692 63.188,18.782 63.118,14.761 63.118,14.761 64.048,16.001 65.078,17.461 66.008,18.702 66.008,18.702 67.618,18.09 68.458,18.088 69.318,18.087 70.958,18.702 70.958,18.702 71.838,17.494 72.858,16.166 73.738,14.959 73.738,14.959 73.948,18.722 74.298,20.562 74.538,21.842 75.138,23.132 76.068,24.072 76.908,24.932 78.098,25.412 79.238,25.802 80.408,26.192 81.668,26.442 82.908,26.382 84.358,26.302 85.878,25.992 87.138,25.262 87.938,24.802 88.728,24.142 89.108,23.292 89.438,22.542 89.508,21.602 89.228,20.832 88.758,19.552 86.448,17.831 86.448,17.831 86.448,17.831 93.878,19.022 97.398,20.282 101,21.582 104.46,23.372 107.64,25.502 110.62,27.502 113.41,29.842 115.81,32.512 117.73,34.652 120.58,39.132 120.68,39.632 120.68,39.632 119.24,38.872 118.48,38.592 117.58,38.262 116.65,38.012 115.71,37.842 114.44,37.602 113.16,37.462 111.87,37.442 110.37,37.422 108.86,37.512 107.39,37.772 105.89,38.042 104.41,38.482 102.99,39.042 101.87,39.482 100.78,40.042 99.758,40.682 98.758,41.312 97.778,42.012 96.938,42.842 96.068,43.702 94.658,45.732 94.658,45.732 94.658,45.732 90.918,44.652 88.988,44.592 86.148,44.512 83.258,44.922 80.558,45.792 77.948,46.632 75.468,47.962 73.258,49.582 71.438,50.922 68.478,54.392 68.478,54.392 Z"
     style="fill:#ff0000;fill-opacity:1;stroke:#ff0008;stroke-width:0.02117;stroke-miterlimit:4;stroke-dasharray:none;stroke-opacity:1"
     id="2000-comics-logo"
     inkscape:connector-curvature="0"
     sodipodi:nodetypes="ccccccccccccccccccccccccccccccccccccccccccccccccccccccccccccccc" />
  <path
     d="M 61.006,21.362 C 59.926,21.145 58.846,20.927 57.756,20.709 58.336,21.383 58.916,22.057 59.496,22.731 60.016,22.404 60.526,22.078 61.046,21.751 61.036,21.621 61.026,21.492 61.006,21.362 Z M 66.878,20.776 C 65.808,20.98 64.748,21.185 63.678,21.389 63.658,21.516 63.648,21.643 63.638,21.77 64.208,22.083 64.778,22.396 65.348,22.709 65.858,22.065 66.368,21.42 66.878,20.776 Z M 76.548,62.875 C 75.288,62.879 74.038,62.884 72.778,62.872 71.648,62.862 70.508,62.814 69.378,62.814 68.348,62.813 67.328,62.858 66.308,62.862 65.248,62.867 64.188,62.841 63.128,62.839 62.248,62.837 61.366,62.844 60.486,62.847 59.686,62.851 58.886,62.862 58.086,62.86 57.356,62.858 56.616,62.832 55.876,62.838 55.116,62.843 54.356,62.896 53.596,62.895 52.796,62.893 52.006,62.832 51.206,62.826 50.396,62.82 49.586,62.855 48.766,62.859 47.926,62.863 47.086,62.848 46.246,62.849 45.416,62.85 46.916,62.868 43.746,62.867 43.406,60.387 43.186,57.906 42.896,55.426 42.586,52.794 42.256,50.164 41.956,47.531 41.706,45.418 41.446,43.307 41.236,41.191 41.046,39.347 40.516,36.099 40.746,35.653 41.046,35.095 41.866,35.052 42.446,34.811 42.866,34.637 43.316,34.522 43.746,34.377 44.046,34.57 44.296,34.67 44.596,34.863 45.726,34.491 46.856,34.125 47.986,33.748 49.076,33.382 50.166,33.008 51.266,32.637 52.396,32.253 53.486,31.867 54.656,31.483 54.656,31.483 55.216,24.155 55.476,20.489 55.806,15.739 56.416,6.2348 56.416,6.2348 57.296,8.5428 58.156,10.796 59.036,13.104 59.036,13.104 61.306,12.464 62.468,12.502 63.548,12.537 65.628,13.269 65.628,13.269 66.728,11.077 67.728,8.6278 68.828,6.4348 69.168,14.691 69.628,23.027 69.968,31.283 73.338,32.642 73.868,33.512 73.388,31.6 72.398,31.71 72.708,31.14 71.788,27.434 72.058,25.475 73.698,29.125 71.648,22.188 72.588,21.82 74.788,21.025 71.208,20.359 71.618,19.432 74.438,19.809 75.668,20.541 76.808,19.388 79.048,17.282 82.038,16.767 78.568,21.2 82.068,16.903 86.138,17.864 81.788,22.046 85.878,18.129 89.328,21.561 88.058,21.451 85.058,20.75 89.018,22.315 87.568,22.834 87.668,25.254 87.128,26.767 88.738,26.756 87.688,27.577 87.258,31.587 86.378,31.299 86.578,32.594 86.208,36.814 86.208,36.814 87.998,37.403 88.888,37.715 89.768,38.027 89.708,38.044 91.528,38.686 91.698,38.501 91.858,38.316 92.028,38.132 93.708,38.407 95.228,38.59 96.018,38.782 96.148,38.613 95.328,42.718 94.978,44.684 94.638,46.537 94.268,48.384 93.948,50.238 93.558,52.45 93.248,54.676 92.848,56.885 92.478,58.874 92.138,61.007 91.638,62.832 90.458,62.814 86.548,62.778 84.008,62.791 82.768,62.797 81.528,62.835 80.288,62.849 79.038,62.864 77.798,62.872 76.548,62.875 Z"
     style="fill:#ff0000;fill-opacity:1;stroke:#ff0008;stroke-width:0.02117;stroke-miterlimit:4;stroke-dasharray:none;stroke-opacity:1"
     id="1994-cartoon-title"
     inkscape:connector-curvature="0"
     sodipodi:nodetypes="ccccccccccccccccccccccccccccccccccccccccccccccccccccccccccccccc" />
  <path
     d="M 67.717,22.899 C 66.777,22.579 66.267,22.019 65.727,21.469 65.467,21.349 65.297,21.409 65.317,21.789 65.837,22.589 66.767,23.219 67.407,23.359 67.637,23.209 67.617,23.049 67.717,22.899 Z M 71.677,21.849 C 70.977,21.859 70.327,22.809 69.597,22.879 69.497,23.059 69.577,23.249 69.647,23.429 70.627,23.509 71.077,22.739 71.747,22.319 71.837,22.099 71.817,21.939 71.677,21.849 Z M 68.367,55.819 C 67.627,54.949 65.187,52.719 63.276,51.659 61.676,50.769 59.916,50.079 58.096,49.889 56.646,49.739 55.106,49.889 53.756,50.429 52.926,50.769 52.096,51.249 51.596,52.059 50.986,51.119 50.346,50.929 49.606,50.539 48.786,50.109 47.876,49.739 46.956,49.659 44.946,49.479 42.856,49.809 40.976,50.519 39.796,50.959 37.816,52.559 37.816,52.559 36.066,51.659 34.746,51.499 33.176,51.629 30.876,51.839 28.736,52.999 26.736,54.149 24.466,55.449 22.476,57.199 20.596,59.009 19.166,60.389 16.736,63.549 16.736,63.549 16.886,57.089 17.596,51.149 19.246,45.499 21.106,39.179 24.036,33.149 27.496,27.539 30.046,23.389 33.196,19.589 36.626,16.129 40.386,12.319 47.616,7.0388 49.056,5.9288 49.056,5.9288 47.446,7.7788 47.236,8.9288 47.086,9.7788 47.326,10.699 47.726,11.469 48.106,12.229 48.806,12.799 49.466,13.329 50.306,14.009 51.266,14.519 52.236,14.979 53.926,15.779 55.686,16.449 57.496,16.909 59.016,17.299 62.151,17.609 62.151,17.609 62.172,16.889 62.136,14.669 62.134,13.199 62.131,10.739 62.146,5.8288 62.146,5.8288 62.55,6.9788 63.778,11.849 64.097,12.939 64.097,12.939 67.027,11.689 68.587,11.609 69.897,11.539 72.467,12.339 72.467,12.339 73.017,11.179 74.947,6.6988 75.377,5.5588 75.347,8.0688 74.987,9.7488 74.807,11.849 74.647,13.749 74.347,17.559 74.347,17.559 74.347,17.559 75.577,17.469 76.177,17.369 78.007,17.069 79.857,16.749 81.607,16.159 83.147,15.639 84.687,15.039 86.037,14.139 87.177,13.379 88.467,12.579 89.047,11.349 89.517,10.349 89.567,9.0888 89.237,8.0388 88.927,7.0788 87.357,5.6688 87.357,5.6688 91.767,8.5388 96.157,12.089 99.997,15.909 102.77,18.659 105.22,21.719 107.41,24.939 110.22,29.059 112.96,33.329 114.7,37.999 117.72,46.089 119.59,50.579 119.99,63.359 119.99,63.359 117.88,60.639 116.65,59.439 114.71,57.549 112.71,55.639 110.34,54.319 107.82,52.919 105.04,51.479 102.16,51.499 101.02,51.499 99.727,52.179 98.957,52.629 97.447,51.499 96.007,50.579 94.327,50.029 93.087,49.629 91.737,49.469 90.447,49.569 89.307,49.659 88.157,49.959 87.147,50.479 86.427,50.849 86.057,51.199 85.277,51.989 84.287,50.739 82.607,50.179 81.067,49.879 79.657,49.609 78.167,49.869 76.777,50.239 75.097,50.689 73.507,51.489 72.057,52.459 70.677,53.379 68.787,55.269 68.367,55.819 Z"
     style="fill:#ff0000;fill-opacity:1;stroke:#ff0008;stroke-width:0.02117;stroke-miterlimit:4;stroke-dasharray:none;stroke-opacity:1"
     id="1960-comics-title"
     inkscape:connector-curvature="0"
     sodipodi:nodetypes="cccccccccccccccccccccccccccccccccccccccccccsccccccccccccccccccc" />
  <path
     d="M 66.285,17.121 C 66.215,17.401 66.055,17.671 66.405,17.951 66.805,18.311 67.135,18.361 67.485,18.501 67.815,18.371 68.155,18.261 68.255,18.001 67.705,17.451 66.945,17.411 66.285,17.121 Z M 72.515,16.961 C 71.915,17.221 71.215,17.281 70.765,17.791 70.835,18.151 71.105,18.311 71.485,18.341 71.485,18.341 72.275,17.891 72.475,17.501 72.555,17.341 72.515,16.961 72.515,16.961 Z M 67.035,63.321 C 67.035,63.321 65.385,60.221 64.155,59.001 62.735,57.591 61.006,56.411 59.116,55.721 57.016,54.951 54.656,54.491 52.456,54.881 49.976,55.311 47.196,56.491 45.756,58.331 45.226,56.711 43.946,55.841 42.716,54.961 41.666,54.201 40.406,53.731 39.156,53.391 37.966,53.071 36.716,52.891 35.496,52.991 33.556,53.151 31.256,53.781 29.866,54.581 29.286,53.301 28.676,52.481 27.906,51.561 27.236,50.781 26.526,49.991 25.646,49.481 24.396,48.771 22.966,48.331 21.536,48.231 20.466,48.161 18.366,48.751 18.366,48.751 18.366,48.751 21.396,39.591 23.436,35.231 25.486,30.861 27.846,26.631 30.586,22.661 33.166,18.911 36.166,15.441 39.276,12.121 41.356,9.9008 44.206,6.9508 45.896,5.8708 45.896,5.8708 47.286,7.4508 48.036,8.1808 48.736,8.8608 49.456,9.5208 50.236,10.111 51.146,10.801 52.106,11.421 53.096,11.991 54.066,12.551 55.076,13.061 56.106,13.501 57.426,14.071 58.776,14.581 60.156,14.961 61.216,15.251 63.385,15.591 63.385,15.591 63.195,14.681 63.205,13.341 63.275,12.221 63.365,10.821 63.925,8.0708 63.925,8.0708 64.435,8.9508 64.945,9.8408 65.455,10.721 65.455,10.721 67.685,9.6508 68.895,9.5908 70.115,9.5208 72.475,10.351 72.475,10.351 73.015,9.4908 73.555,8.6408 74.095,7.7808 74.425,10.761 74.475,10.631 74.515,12.071 74.545,13.281 74.355,15.711 74.355,15.711 74.355,15.711 76.325,15.471 77.295,15.261 78.385,15.021 79.445,14.701 80.495,14.331 81.645,13.921 82.765,13.441 83.855,12.921 85.015,12.361 86.165,11.781 87.235,11.091 88.255,10.421 89.225,9.6708 90.125,8.8508 91.165,7.9108 93.005,5.8108 93.005,5.8108 96.645,9.4608 98.585,11.841 101.07,15.101 103.61,18.431 106.02,21.881 108.05,25.541 110.45,29.891 112.5,34.451 114.14,39.141 115.99,44.401 117.79,52.041 118.36,55.321 118.36,55.321 116.42,52.661 115.09,51.751 113.82,50.901 112.32,50.261 110.79,50.141 109.13,50.011 107.38,50.391 105.9,51.151 104.42,51.911 102.71,53.821 102.24,54.551 100.39,54.271 99.785,54.331 98.555,54.441 97.315,54.561 96.065,54.791 94.915,55.241 93.955,55.621 93.045,56.151 92.255,56.801 91.345,57.561 90.835,58.021 89.925,59.481 88.575,58.081 87.495,57.221 85.995,56.601 83.925,55.751 81.585,55.391 79.355,55.591 76.665,55.831 73.945,56.741 71.685,58.221 69.765,59.491 67.035,63.321 67.035,63.321 Z"
     style="fill:#ff0000;fill-opacity:1;stroke:#ff0008;stroke-width:0.02117;stroke-miterlimit:4;stroke-dasharray:none;stroke-opacity:1"
     id="1966-tv-title"
     inkscape:connector-curvature="0"
     sodipodi:nodetypes="cccccccccccccccccccccccccccccccccccccccccccccccccccccsccccccccc" />
  <path
     d="M 66.687,20.299 C 66.367,20.009 66.007,19.749 65.517,19.649 65.377,19.739 65.277,19.859 65.277,20.049 65.577,20.209 65.757,20.419 66.267,20.459 66.407,20.406 66.547,20.352 66.687,20.299 Z M 70.157,20.119 C 70.187,19.929 70.187,19.749 70.077,19.559 69.687,19.739 69.347,20.009 69.027,20.309 69.237,20.409 69.467,20.459 69.727,20.419 69.947,20.399 70.047,20.259 70.157,20.119 Z M 68.087,57.969 C 68.087,57.969 64.867,54.769 62.907,53.679 60.406,52.289 57.616,51.159 54.756,50.939 51.736,50.709 48.546,51.219 45.786,52.479 44.376,53.129 42.196,55.449 42.196,55.449 42.196,55.449 40.946,54.119 40.156,53.689 39.236,53.189 38.176,52.989 37.136,52.809 36.256,52.659 35.356,52.609 34.456,52.649 33.296,52.699 32.126,52.889 30.996,53.159 29.846,53.429 28.716,53.809 27.636,54.279 26.416,54.819 25.276,55.529 24.116,56.199 23.086,56.799 22.046,57.389 21.066,58.079 20.306,58.609 18.886,59.809 18.886,59.809 18.886,59.809 19.096,52.399 19.696,48.749 20.546,43.659 21.796,38.599 23.596,33.769 25.186,29.499 27.426,25.509 29.646,21.519 31.976,17.339 37.096,11.279 38.536,10.169 38.536,10.169 41.206,12.159 42.616,13.029 43.726,13.709 44.896,14.299 46.066,14.869 47.456,15.559 48.846,16.209 50.286,16.779 51.626,17.299 52.986,17.759 54.366,18.159 55.686,18.549 57.026,18.889 58.376,19.149 59.546,19.379 61.907,19.669 61.907,19.669 61.907,19.669 62.767,16.379 63.147,14.729 63.487,13.279 64.087,10.359 64.087,10.359 64.357,11.419 64.827,12.859 65.097,13.839 65.097,13.839 66.677,13.059 67.527,13.039 68.317,13.019 69.797,13.649 69.797,13.649 70.157,12.459 70.087,11.569 70.517,10.429 72.047,15.059 71.497,14.319 72.097,16.229 72.487,17.499 73.417,19.989 73.417,19.989 73.417,19.989 76.937,19.629 78.677,19.299 80.317,18.989 81.937,18.589 83.537,18.099 85.127,17.619 86.687,17.039 88.227,16.399 89.827,15.729 91.407,14.989 92.947,14.179 94.267,13.479 95.577,12.729 96.827,11.879 97.987,11.099 100.17,9.3188 100.17,9.3188 103.27,13.189 105.74,16.489 107.94,20.399 110.4,24.759 112.41,29.379 114.01,34.119 115.47,38.429 116.54,42.899 117.2,47.399 117.76,51.189 117.84,58.869 117.84,58.869 117.84,58.869 116.53,57.789 115.83,57.309 114.99,56.749 114.11,56.239 113.21,55.779 112.24,55.289 111.23,54.869 110.21,54.489 109.21,54.119 108.19,53.759 107.15,53.529 106.06,53.279 104.94,53.149 103.83,53.089 102.62,53.019 101.41,53.059 100.2,53.159 99.037,53.249 97.847,53.339 96.727,53.659 95.667,53.949 93.697,54.949 93.697,54.949 93.697,54.949 91.207,52.719 89.687,52.099 87.047,51.029 84.077,50.509 81.237,50.769 78.247,51.049 75.327,52.259 72.737,53.789 70.947,54.859 68.087,57.969 68.087,57.969 Z"
     style="fill:#ff0000;fill-opacity:1;stroke:#ff0008;stroke-width:0.02117;stroke-miterlimit:4;stroke-dasharray:none;stroke-opacity:1"
     id="1970-comics-title"
     inkscape:connector-curvature="0"
     sodipodi:nodetypes="ccccccccccccccccccccccccccccccccccccccccccccccccccccccccccccccc" />
  <path
     d="M 65.242,10.798 C 65.192,10.928 65.132,11.058 65.082,11.188 65.452,11.708 65.812,12.218 66.172,12.738 66.692,12.478 67.212,12.218 67.732,11.958 66.902,11.568 66.072,11.178 65.242,10.798 Z M 71.532,11.278 C 71.522,11.078 71.512,10.878 71.492,10.688 70.652,11.098 69.802,11.518 68.952,11.928 69.432,12.198 69.912,12.468 70.392,12.738 70.772,12.248 71.152,11.768 71.532,11.278 Z M 68.622,52.868 C 67.052,52.858 65.482,52.868 63.912,52.938 62.633,52.998 61.356,53.128 60.086,53.228 58.636,53.348 57.186,53.438 55.746,53.598 54.266,53.768 52.796,54.008 51.326,54.208 49.726,54.428 48.116,54.608 46.526,54.868 45.156,55.088 43.786,55.348 42.436,55.638 40.926,55.968 39.426,56.358 37.926,56.738 36.266,57.158 34.606,57.588 32.966,58.068 31.446,58.518 29.946,59.008 28.436,59.518 27.166,59.948 25.896,60.388 24.636,60.858 23.396,61.318 22.176,61.808 20.956,62.308 19.606,62.858 16.946,64.028 16.946,64.028 16.946,64.028 18.116,54.988 19.086,50.548 20.116,45.838 21.416,41.188 22.986,36.628 24.536,32.098 26.406,27.678 28.426,23.338 30.206,19.528 34.316,12.178 34.316,12.178 34.316,12.178 37.596,13.658 39.296,14.238 40.806,14.758 42.366,15.168 43.936,15.498 45.456,15.808 47.006,16.028 48.566,16.178 49.946,16.308 51.336,16.398 52.726,16.358 54.536,16.308 56.346,16.078 58.146,15.828 59.516,15.638 62.22,15.078 62.22,15.078 62.22,15.078 63.377,10.758 63.952,8.5978 64.272,7.3978 64.902,5.0078 64.902,5.0078 65.292,6.2078 65.812,7.1978 66.202,8.3978 66.202,8.3978 67.712,7.8978 68.492,7.9178 69.192,7.9278 70.532,8.4378 70.532,8.4378 70.962,7.2178 71.322,6.4378 71.752,5.2178 71.752,5.2178 72.492,7.6378 72.842,8.8578 73.422,10.888 74.492,14.978 74.492,14.978 74.492,14.978 76.972,15.568 78.232,15.758 80.092,16.038 81.962,16.248 83.842,16.268 86.162,16.298 88.482,16.108 90.772,15.808 91.752,15.678 92.712,15.458 93.662,15.228 95.342,14.818 97.022,14.388 98.642,13.808 99.912,13.348 102.36,12.188 102.36,12.188 102.36,12.188 106.12,18.708 107.76,22.098 109.56,25.828 111.23,29.628 112.62,33.528 114.67,39.278 116.39,45.168 117.72,51.128 118.68,55.418 119.78,64.148 119.78,64.148 119.78,64.148 117.37,62.928 116.14,62.388 114.89,61.838 113.62,61.348 112.35,60.868 110.95,60.338 109.53,59.848 108.11,59.388 106.58,58.898 105.03,58.468 103.48,58.018 101.95,57.578 100.42,57.128 98.872,56.728 97.372,56.348 95.872,55.988 94.362,55.668 92.822,55.338 91.262,55.038 89.712,54.768 88.042,54.478 86.382,54.238 84.712,54.008 83.462,53.838 82.202,53.678 80.942,53.548 79.592,53.408 78.232,53.298 76.882,53.198 75.592,53.108 74.312,53.018 73.022,52.968 71.552,52.908 70.092,52.878 68.622,52.868 Z"
     style="fill:#ff0000;fill-opacity:1;stroke:#ff0008;stroke-width:0.02117;stroke-miterlimit:4;stroke-dasharray:none;stroke-opacity:1"
     id="1983-comics-title"
     inkscape:connector-curvature="0"
     sodipodi:nodetypes="ccccccccccccccccccccccccccccccccccccccccccccccccccccccccccccccc" />
  <path
     d="M 62.725,12.345 C 62.465,12.665 62.195,14.235 62.115,15.205 62.115,15.205 62.605,15.865 62.965,16.055 63.395,16.285 64.395,16.345 64.395,16.345 64.425,15.725 63.145,12.085 62.725,12.345 Z M 69.215,16.575 C 68.905,15.985 67.305,17.015 66.345,17.235 66.355,17.525 66.575,17.915 66.845,18.115 67.085,18.285 67.725,18.285 67.725,18.285 68.525,17.825 68.765,17.155 69.215,16.575 Z M 65.175,66.304 C 64.375,66.304 64.875,64.735 61.286,61.205 59.556,59.505 57.406,57.975 55.036,57.655 53.506,57.445 51.756,57.745 50.546,58.795 47.706,61.285 49.256,64.855 48.346,65.095 47.506,65.324 46.836,63.655 46.076,62.925 45.296,62.175 44.596,61.345 43.746,60.685 42.916,60.045 42.036,59.415 41.056,59.025 39.856,58.555 38.546,58.075 37.276,58.265 36.306,58.405 35.326,58.905 34.686,59.645 33.886,60.585 33.596,61.915 33.446,63.145 33.336,64.035 33.576,64.945 33.696,65.834 33.846,66.974 34.946,69.234 34.256,69.244 32.346,69.274 28.656,61.895 27.006,57.645 25.276,53.205 24.516,48.355 24.406,43.595 24.306,38.475 25.036,33.265 26.566,28.375 27.756,24.575 31.936,17.695 31.936,17.695 31.936,17.695 37.226,16.625 39.786,15.805 42.446,14.955 45.056,13.915 47.556,12.675 49.646,11.645 53.556,9.1148 53.556,9.1148 53.556,9.1148 54.556,9.7948 55.036,10.155 55.446,10.465 55.836,10.795 56.236,11.115 56.776,11.525 56.976,11.695 57.856,12.325 57.856,12.325 60.296,9.0648 61.326,7.3048 62.745,4.9448 65.175,-0.00521 64.925,-0.09521 66.205,1.4248 66.205,4.1748 65.795,5.6048 65.795,5.6048 66.995,6.3748 67.625,6.6948 68.115,6.9448 69.145,7.3348 69.145,7.3348 69.735,5.8448 70.355,3.8348 70.525,2.2248 72.035,3.1348 72.665,7.1548 71.325,10.135 71.995,10.685 70.955,13.755 68.575,20.165 68.575,20.165 71.475,22.015 73.005,22.785 73.935,23.255 74.895,23.655 75.875,24.005 76.765,24.325 78.585,24.795 78.585,24.795 78.585,24.795 82.585,23.585 84.355,22.505 86.595,21.145 88.635,19.375 90.275,17.335 91.815,15.415 93.555,11.825 93.815,10.845 93.815,10.845 95.515,10.835 96.765,10.935 97.415,14.605 98.395,16.135 101.47,17.775 103.76,19.005 109.73,23.825 111.85,37.585 113.8,50.255 109.21,67.454 107.1,68.814 106.33,69.314 106.21,66.334 105.76,65.105 105.14,63.455 104.66,61.755 103.87,60.185 103.27,58.975 102.61,57.765 101.71,56.755 100.67,55.585 99.485,54.445 98.045,53.825 97.185,53.455 96.195,53.345 95.265,53.445 94.525,53.525 93.785,53.795 93.155,54.195 92.125,54.835 91.315,55.785 90.565,56.735 89.795,57.695 89.445,59.445 88.875,59.635 88.275,59.815 86.745,57.485 84.265,56.435 82.515,55.695 79.845,54.635 75.475,55.675 71.795,56.545 68.785,59.855 67.985,60.895 66.115,63.305 66.285,66.294 65.175,66.304 Z"
     style="fill:#ff0000;fill-opacity:1;stroke:#ff0008;stroke-width:0.02117;stroke-miterlimit:4;stroke-dasharray:none;stroke-opacity:1"
     id="1993-cartoon-title-silhouette"
     inkscape:connector-curvature="0"
     sodipodi:nodetypes="ccccccccccccccccccccccccccccccccccccccccccccccccccccccccccccccc" />
  <path
     d="M 62.965,12.659 C 62.705,12.979 62.435,14.549 62.355,15.519 62.355,15.519 62.845,16.179 63.205,16.369 63.635,16.599 64.635,16.659 64.635,16.659 64.665,16.039 63.385,12.399 62.965,12.659 Z M 69.455,16.889 C 69.145,16.299 67.545,17.329 66.585,17.549 66.595,17.839 66.815,18.229 67.085,18.429 67.325,18.599 67.965,18.599 67.965,18.599 68.765,18.139 69.005,17.469 69.455,16.889 Z M 65.545,66.249 C 65.545,66.249 63.205,62.496 61.496,61.159 59.286,59.422 56.656,57.515 53.846,57.635 52.376,57.705 50.936,58.673 50.026,59.821 48.896,61.248 48.486,65.061 48.486,65.061 48.486,65.061 47.156,63.594 46.456,62.895 45.736,62.187 45.026,61.468 44.226,60.859 43.376,60.21 42.486,59.542 41.486,59.152 40.126,58.623 38.606,58.034 37.176,58.334 36.156,58.543 35.206,59.262 34.596,60.101 33.956,60.979 33.806,62.137 33.686,63.215 33.586,64.123 33.746,65.041 33.876,65.949 34.026,66.968 34.576,68.944 34.576,68.944 33.306,67.467 30.036,61.358 28.706,57.186 27.246,52.565 26.466,47.654 26.516,42.813 26.576,36.964 27.736,31.085 29.506,25.506 30.266,23.119 32.716,18.719 32.716,18.719 36.666,19.439 40.526,19.709 44.326,18.959 47.286,18.379 52.616,15.369 52.616,15.369 55.116,16.599 58.346,18.829 60.826,21.009 63.075,22.989 66.015,27.512 67.215,27.153 67.185,25.805 64.845,21.549 63.155,19.049 61.636,16.799 59.606,14.529 57.776,12.939 57.776,12.939 60.546,9.4388 61.666,7.5188 63.085,5.0888 65.125,1.1688 65.165,0.21879 67.925,4.3988 64.545,6.1488 65.725,8.1188 70.265,9.4988 70.485,11.659 70.065,14.759 72.705,10.409 69.185,7.9388 69.185,7.9388 69.775,6.4488 70.625,4.2988 70.765,2.5388 72.475,3.8088 72.875,7.7488 71.565,10.449 72.925,11.209 67.295,22.419 68.315,23.409 70.615,25.177 73.695,26.334 77.525,26.115 74.135,27.392 70.875,27.412 67.715,27.412 68.145,29.019 79.945,28.82 85.695,25.706 89.335,23.799 93.585,21.179 95.065,15.929 96.425,16.129 96.405,22.149 93.745,26.015 96.885,23.549 97.885,20.229 97.245,16.069 99.135,19.189 101.17,22.239 101.56,27.193 102.81,25.336 102.94,23.349 103.03,21.139 106.25,27.143 109.25,35.777 109.95,43.572 110.71,51.986 109.79,60.719 106.92,68.744 106.92,68.744 106.49,66.339 106.14,65.171 105.63,63.484 105.04,61.807 104.21,60.26 103.54,59.023 102.74,57.835 101.79,56.797 100.77,55.679 99.725,54.471 98.335,53.872 97.465,53.493 96.455,53.453 95.505,53.533 94.705,53.603 93.865,53.782 93.185,54.222 92.225,54.85 91.605,55.898 90.925,56.827 90.225,57.785 89.045,59.861 89.045,59.861 89.045,59.861 86.275,57.176 84.525,56.507 81.835,55.459 78.705,54.94 75.905,55.639 73.095,56.338 70.625,58.314 68.675,60.45 67.195,62.077 65.545,66.249 65.545,66.249 Z"
     style="fill:#ff0000;fill-opacity:1;stroke:#ff0008;stroke-width:0.02117;stroke-miterlimit:4;stroke-dasharray:none;stroke-opacity:1"
     id="1993-cartoon-title-shadow"
     inkscape:connector-curvature="0"
     sodipodi:nodetypes="ccccccccccccccccccccccccccccccccccccccccccccccccccccccccccccccc" />
  <path
     d="M 68.164,23.786 C 67.574,23.676 67.334,23.096 66.734,22.866 66.514,22.916 66.034,22.646 66.484,23.436 67.004,23.766 67.534,24.206 68.014,24.306 68.254,24.216 68.514,24.126 68.164,23.786 Z M 72.844,23.106 C 72.424,23.596 71.774,23.756 71.214,24.056 71.364,24.256 71.504,24.386 71.904,24.416 72.484,24.126 73.054,23.786 73.594,23.356 73.604,23.016 73.164,23.126 72.844,23.106 Z M 70.754,58.016 C 70.754,58.016 69.694,55.626 68.844,54.656 67.514,53.146 65.894,51.726 64.004,51.026 61.296,50.016 58.156,49.756 55.346,50.416 52.846,51.016 50.176,52.816 48.736,54.356 48.206,52.996 47.086,51.546 45.816,50.586 44.356,49.476 42.546,48.656 40.716,48.526 38.856,48.396 36.846,48.856 35.286,49.886 34.116,50.656 33.106,51.956 32.736,53.216 31.796,52.246 31.116,51.056 29.976,50.416 28.706,49.716 27.176,49.486 25.726,49.466 24.446,49.446 23.096,49.626 21.956,50.196 20.436,50.946 18.156,53.566 18.156,53.566 18.156,53.566 21.966,44.576 24.316,40.316 26.216,36.886 28.386,33.606 30.706,30.446 33.006,27.316 35.506,24.326 38.146,21.486 41.376,18.006 46.946,12.716 48.386,11.606 48.386,11.606 50.136,12.966 51.036,13.606 51.766,14.126 52.516,14.636 53.276,15.116 54.096,15.636 54.926,16.126 55.776,16.606 56.726,17.146 57.676,17.676 58.656,18.146 59.656,18.626 60.696,19.036 61.714,19.476 62.504,19.816 64.074,20.496 64.074,20.496 64.224,19.816 63.974,18.286 64.154,17.206 64.414,15.676 64.594,11.956 64.594,11.956 65.084,13.016 65.594,15.226 66.084,16.296 66.554,21.366 68.074,19.156 69.754,19.146 71.414,19.136 73.944,22.536 74.544,16.276 75.094,15.116 76.324,13.426 76.754,12.286 77.084,14.776 76.924,15.626 76.834,17.286 76.784,18.146 76.504,19.836 76.504,19.836 76.504,19.836 78.044,19.366 78.794,19.096 79.784,18.736 80.754,18.336 81.714,17.906 82.624,17.496 83.504,17.046 84.394,16.596 85.454,16.056 86.504,15.516 87.544,14.936 88.434,14.446 89.314,13.946 90.164,13.396 91.264,12.676 93.384,11.116 93.384,11.116 97.024,14.166 98.944,16.026 101.45,18.756 103.97,21.496 106.35,24.396 108.44,27.486 110.54,30.586 112.41,33.846 113.97,37.246 115.86,41.346 117.99,47.256 118.56,49.996 118.56,49.996 117.37,49.386 116.73,49.186 116.25,49.026 115.74,48.926 115.23,48.876 114.7,48.826 114.17,48.816 113.65,48.906 112.85,49.036 112.1,49.186 111.33,49.636 109.65,49.006 109.31,48.806 108.24,48.636 106.21,48.326 104.08,48.246 102.08,48.686 100.21,49.086 98.424,49.946 96.844,51.026 95.504,51.926 94.284,53.176 93.374,54.396 92.384,53.146 91.824,52.396 90.764,51.776 89.204,50.866 87.354,50.326 85.554,50.366 82.254,50.426 78.994,51.736 76.114,53.346 74.044,54.506 70.754,58.016 70.754,58.016 Z"
     style="fill:#ff0000;fill-opacity:1;stroke:#ff0008;stroke-width:0.02117;stroke-miterlimit:4;stroke-dasharray:none;stroke-opacity:1"
     id="1940-comics-title-shadow"
     inkscape:connector-curvature="0"
     sodipodi:nodetypes="ccccccccccccccccccccccccccccccccccccccccccccccccccccccccccccccc" />
  <path
     d="M 62.479,25.991 C 62.032,25.881 61.636,25.551 61.186,25.361 60.976,25.511 61.036,25.721 61.026,25.911 61.316,25.931 61.888,26.551 62.161,26.471 62.395,26.411 62.405,26.171 62.479,25.991 Z M 65.562,25.091 C 64.862,25.181 64.182,25.431 63.506,25.701 63.458,25.821 63.615,26.031 63.723,26.211 64.362,26.271 64.949,26.381 65.565,25.561 65.673,25.401 65.583,25.251 65.562,25.091 Z M 67.8,55.331 C 67.011,53.871 65.314,52.441 63.614,51.401 61.406,50.041 58.866,49.101 56.296,48.771 52.896,48.321 49.306,48.561 46.056,49.631 43.686,50.411 41.416,51.601 39.676,53.571 39.676,53.571 38.006,52.131 37.056,51.571 36.256,51.101 35.376,50.761 34.516,50.431 33.806,50.161 33.086,49.921 32.356,49.751 31.066,49.441 29.766,49.181 28.446,49.111 27.326,49.041 26.206,49.161 25.086,49.271 24.146,49.361 23.206,49.481 22.276,49.691 21.226,49.931 20.186,50.231 19.176,50.621 18.416,50.921 16.956,51.701 16.956,51.701 16.956,51.701 20.586,45.271 22.786,42.321 25.006,39.351 27.426,36.511 30.146,34.011 33.096,31.291 36.366,28.921 39.786,26.821 42.296,25.281 47.706,22.901 47.706,22.901 48.316,23.601 49.196,24.001 49.976,24.381 50.816,24.791 51.726,25.121 52.626,25.391 53.306,25.591 53.996,25.731 54.696,25.851 55.396,25.961 56.116,26.011 56.826,26.061 57.476,26.101 58.126,26.101 58.786,26.131 59.466,26.151 60.906,25.991 60.906,25.991 60.456,23.051 60.146,21.341 60.886,19.441 60.536,18.701 60.366,15.581 60.716,15.601 61.376,16.241 62.006,16.811 62.907,17.021 63.246,17.101 64.162,16.461 64.834,16.371 65.596,16.271 67.135,16.521 67.135,16.521 67.594,15.461 67.436,14.941 67.742,13.821 69.272,18.061 69.504,18.561 70.232,20.981 70.859,23.061 70.895,26.291 73.391,26.551 73.391,26.551 75.241,26.351 76.15,26.161 77.2,25.941 78.228,25.621 79.25,25.291 79.833,25.101 80.408,24.891 80.977,24.671 81.764,24.361 82.561,24.061 83.31,23.661 84.247,23.171 85.145,22.591 85.995,21.961 86.566,21.541 87.609,20.561 87.609,20.561 91.54,22.191 94.852,23.571 98.179,25.611 101.16,27.441 103.97,29.591 106.5,32.011 109.74,35.111 112.71,38.541 115.14,42.301 117.07,45.281 119.77,51.871 119.77,51.871 119.77,51.871 117.9,50.671 116.9,50.211 115.85,49.721 114.75,49.351 113.64,49.041 112.42,48.701 111.16,48.481 109.9,48.321 108.82,48.181 107.72,48.061 106.62,48.131 105.32,48.201 104.03,48.501 102.77,48.811 101.74,49.071 100.72,49.391 99.741,49.791 98.79,50.171 97.836,50.571 96.98,51.131 95.957,51.811 94.189,53.521 94.189,53.521 92.946,52.361 90.75,51.251 88.813,50.621 86.356,49.831 83.712,49.501 81.132,49.611 78.388,49.721 75.566,50.171 73.081,51.361 71.1,52.311 69.243,53.531 67.8,55.331 Z"
     style="fill:#ff0000;fill-opacity:1;stroke:#ff0008;stroke-width:0.02117;stroke-miterlimit:4;stroke-dasharray:none;stroke-opacity:1"
     id="1957-comics-title-silhouette"
     inkscape:connector-curvature="0"
     sodipodi:nodetypes="ccccccccccccccccccccccccccccccccccccccccccccccccccccccccccccccc" />
  <path
     d="M 68.799,24.141 C 68.429,23.541 67.419,23.351 67.089,22.851 66.449,22.771 66.509,23.071 66.709,23.431 67.129,23.771 67.529,24.121 68.139,24.321 68.369,24.301 68.609,24.301 68.799,24.141 Z M 73.149,23.141 C 72.729,23.551 72.159,23.801 71.609,24.071 71.719,24.271 71.769,24.511 72.409,24.361 72.929,23.981 73.689,23.801 73.939,23.191 73.729,23.041 73.439,23.081 73.149,23.141 Z M 70.909,57.991 C 70.909,57.991 69.849,55.651 69.019,54.701 67.709,53.211 66.139,51.781 64.279,51.071 61.576,50.051 58.446,49.781 55.636,50.441 53.136,51.041 50.276,52.961 48.836,54.501 48.306,53.141 47.346,51.601 46.106,50.611 44.626,49.441 42.746,48.611 40.866,48.481 39.006,48.351 36.996,48.821 35.436,49.841 34.196,50.641 33.066,52.071 32.696,53.331 31.996,52.151 31.176,51.111 30.056,50.441 28.816,49.711 27.306,49.451 25.876,49.421 24.596,49.391 23.256,49.591 22.106,50.151 20.496,50.931 18.046,53.661 18.046,53.661 18.046,53.661 22.086,44.661 24.486,40.361 26.416,36.921 28.526,33.581 30.856,30.401 33.146,27.261 35.636,24.271 38.296,21.441 41.506,18.001 47.096,12.831 48.536,11.721 48.536,11.721 50.346,13.051 51.276,13.681 52.026,14.181 52.796,14.661 53.566,15.141 54.396,15.651 55.216,16.151 56.066,16.631 57.016,17.171 57.976,17.681 58.946,18.171 59.946,18.681 60.946,19.181 61.989,19.621 62.769,19.951 64.369,20.521 64.369,20.521 64.349,19.821 64.329,18.441 64.379,17.351 64.449,15.701 64.949,11.991 64.949,11.991 65.439,13.051 65.719,15.201 66.209,16.271 67.099,14.931 68.879,14.171 70.409,14.111 72.029,14.051 73.989,15.111 74.669,16.281 75.219,15.121 76.409,13.401 76.839,12.261 77.169,14.751 77.039,15.611 76.959,17.291 76.919,18.161 76.659,19.881 76.659,19.881 76.659,19.881 78.279,19.271 79.089,18.951 80.059,18.571 81.029,18.171 81.989,17.761 82.909,17.371 83.839,16.991 84.739,16.551 85.789,16.031 86.799,15.441 87.819,14.871 88.679,14.371 89.549,13.891 90.389,13.351 91.449,12.661 93.469,11.141 93.469,11.141 97.109,14.191 99.089,16.041 101.61,18.781 104.14,21.521 106.48,24.451 108.57,27.531 110.67,30.631 112.59,33.871 114.15,37.271 116.04,41.401 118.1,47.371 118.67,50.111 118.67,50.111 117.62,49.431 117.03,49.211 116.55,49.031 116.04,48.951 115.53,48.901 115,48.851 114.47,48.841 113.95,48.931 113.15,49.061 112.4,49.211 111.63,49.661 109.95,49.031 109.61,48.831 108.54,48.661 106.51,48.351 104.39,48.301 102.38,48.711 100.51,49.091 98.689,49.841 97.089,50.881 95.729,51.771 94.489,53.031 93.579,54.251 92.589,53.001 92.079,52.381 91.059,51.801 89.499,50.911 87.649,50.351 85.849,50.391 82.549,50.451 79.299,51.781 76.409,53.371 74.309,54.521 70.909,57.991 70.909,57.991 Z"
     style="fill:#ff0000;fill-opacity:1;stroke:#ff0008;stroke-width:0.02117;stroke-miterlimit:4;stroke-dasharray:none;stroke-opacity:1"
     id="1940-comics-title-silhouette"
     inkscape:connector-curvature="0"
     sodipodi:nodetypes="ccccccccccccccccccccccccccccccccccccccccccccccccccccccccccccccc" />
</svg>
