<svg width="34.732mm" height="14.979mm" version="1.1" viewBox="0 0 34.731998 14.97879" xmlns="http://www.w3.org/2000/svg">
  <g transform="translate(-6.7012 -247.78)">
    <path d="m16.222 247.78c-3.9007 3.4337 2.4348 5.5321 5.9114 5.0888l0.48816-3.595 0.8822 2.0586 1.2425 0.0338 0.85024-2.0069 0.54722 3.6099c2.7871-0.0336 9.1259-0.66458 6.4327-5.1893 5.5959 1.7688 8.56 4.6172 8.8573 8.5598-2.6527-0.46388-7.9712-2.1326-8.195 2.8527-5.6724-3.3374-8.2801 2.5666-9.0688 3.5664-1.8745-3.8497-4.7684-5.5532-9.2216-3.974-0.61307-4.3491-5.1905-2.61-8.2466-2.7954 1.2183-4.3657 4.2275-7.2391 9.5203-8.2093z"/>
  </g>
</svg>
