<svg width="35.177mm" height="14.29mm" version="1.1" viewBox="0 0 35.177071 14.2905" xmlns="http://www.w3.org/2000/svg">
  <g transform="translate(-129.2 -59.904)">
    <path d="m136.59 59.904 0.59157 1.1266 7.3016 3.1624 0.72076-1.4865 1.012 0.72204 1.2949 7.83e-4 0.69176-0.67097 0.91344 1.5741 7.5137-3.392 0.46822-1.0365c4.9505 2.6432 6.3032 4.9437 7.2805 7.2084-1.5642-1.5421-6.061 0.69761-5.9244 2.6606-1.7667-2.026-6.3324 1.05-5.8713 2.3604-1.9373-2.4072-5.9369 2.0611-5.9369 2.0611-0.73405-1.5926-4.2508-3.7796-5.7081-2.0556 0.40671-1.1032-3.394-4.3423-5.873-2.4047 0.79504-1.0438-3.7233-4.4038-5.8633-2.6578 1.8913-3.7937 4.4416-5.97 7.3886-7.1724z"/>
  </g>
</svg>
