<svg width="35.009mm" height="19.258mm" version="1.1" viewBox="0 0 35.008644 19.25845" xmlns="http://www.w3.org/2000/svg">
  <g transform="translate(-89.987 -245.79)">
    <path d="m99.777 245.79c-6.3334 5.322 6.615 8.6161 5.6043 0 1.4629 1.9413 2.9136 1.8095 4.0759 0.051-0.85581 8.5401 12.111 5.667 5.8591-0.051 3.194 2.2358 8.7177 5.343 9.6802 11.565-4.8117-4.3744-7.8676-0.14093-9.0688 1.7832-5.3142-3.2121-7.0089 2.0495-8.4574 5.91-1.0824-3.7512-3.5191-9.5078-8.3046-5.5024-2.4796-5.5325-5.7584-4.5577-9.1779-2.4368 0.93172-4.8491 5.4222-8.0557 9.7892-11.319z"/>
  </g>
</svg>
