<svg width="35.168mm" height="20.913mm" version="1.1" viewBox="0 0 35.167866 20.913321" xmlns="http://www.w3.org/2000/svg">
  <g transform="translate(-48.394 -194.97)">
    <path d="m56.216 197.13c0.07054 4.4811 7.7687 7.435 8.4622-2.1646l0.60545 2.979 1.2568 8.2e-4 0.88468-2.918c-0.36035 6.6616 6.1562 9.1826 8.3041 2.2554 4.2822 2.3954 8.6755 5.6143 7.6932 11.361-3.1866-4.3738-7.5874-4.6471-9.3644 0.35022-4.3804-2.6204-7.9559 5.2543-8.0089 6.8844-0.36175-1.7208-4.5311-10.026-8.0656-6.7897-2.9755-6.5553-7.8082-3.0863-9.5115-0.6487-0.32896-3.5276 0.05345-7.1146 7.7441-11.311z"/>
  </g>
</svg>
