<svg width="31.887mm" height="22.359mm" version="1.1" viewBox="0 0 31.88727 22.359167" xmlns="http://www.w3.org/2000/svg">
  <g transform="translate(-173.63 -55.363)">
    <path d="m183.77 55.363c-5.0683 4.6107 0.1477 8.8768 3.4314 5.1553l0.67876-5.0111 0.61989 1.7751h2.19l0.46919-1.7751 0.86467 5.216c3.8423 3.2929 8.1416-1.1592 3.4598-5.216 11.077 2.9621 13.008 12.561 5.6586 17.985 3.866-7.1128-2.4412-9.9244-5.0807-1.8685-1.932-8.3298-6.247 2.6099-6.5246 6.0985-0.6672-4.2755-4.3924-14.142-6.3998-6.2281-3.2422-8.2024-8.9051-4.4705-5.0618 2.1423-6.7542-4.6379-6.5352-14.771 5.6946-18.273z"/>
  </g>
</svg>
