<svg width="31.995mm" height="16.864mm" version="1.1" viewBox="0 0 31.994936 16.86388" xmlns="http://www.w3.org/2000/svg">
  <g transform="translate(-8.1857 -198.92)">
    <path d="m10.821 198.92c3.3851 2.3 6.9041 4.3656 11.361 4.7891l0.33724-3.683 0.79206 0.82121h1.8529l0.83858-0.84369 0.39368 3.7615c4.3486-0.64968 7.9531-2.255 11.172-4.8452 3.5109 5.7743 3.2272 12.838 0.66233 16.864-0.41383-1.9324-0.68867-4.0038-4.2709-2.7677-0.13947-1.6311-1.3362-4.0824-3.8927-1.5432-0.86763-3.8024-5.1246-0.98725-5.6943 3.3939-2.3543-6.429-5.2037-6.148-6.1015-3.1865-2.0919-2.4397-3.7042-0.83529-4.0282 1.4209-1.7388-0.75028-3.3182-0.86328-3.983 2.6827-3.5305-3.5784-2.0198-13.181 0.56043-16.864z"/>
  </g>
</svg>
