<svg width="36.236mm" height="16.05mm" version="1.1" viewBox="0 0 36.236237 16.049509" xmlns="http://www.w3.org/2000/svg">
  <g transform="translate(-170.95 -104.31)">
    <path d="m180.53 105.53c-1.5266 3.1686 1.7882 7.1048 6.3138 3.5074l0.38647-4.7259 0.85955 2.0157h1.9468l0.79432-2.0157 0.41417 4.5601c3.1388 3.2693 8.2711 0.66686 6.4048-3.5579 12.493 3.8057 12.208 11.08 2.1265 14.885 3.8354-4.815-1.6958-5.317-3.8206-3.1073-1.6928-1.0135-3.5417-3.3776-6.8482 3.2692-3.499-6.9034-5.9845-4.1163-6.8478-3.1457-4.7367-3.0944-6.8224-0.36426-3.8203 2.9478-14.639-5.1454-4.3995-13.83 2.0904-14.633z"/>
  </g>
</svg>
