<svg width="36.937mm" height="16.151mm" version="1.1" viewBox="0 0 36.937489 16.1506" xmlns="http://www.w3.org/2000/svg">
  <g transform="translate(-129.38 -246.35)">
    <path d="m139.36 246.35c-4.0739 4.1705 2.3991 5.7592 6.3178 5.7561l0.66208-4.0748 0.86541 2.2969h1.4856l0.79539-2.2759 0.65595 4.0779c4.1812-0.0879 9.1938-0.99502 6.9477-5.7292 4.5091 1.9422 8.8597 4.1134 9.2216 8.865-4.3417-0.0154-9.1559-0.40097-8.6415 3.3898-5.3467-3.9718-9.8017 3.8449-9.8017 3.8449-3.4157-6.3912-6.5612-5.2184-9.7122-4.1989-1.3898-4.025-5.3281-3.112-8.782-3.1377 0.97415-5.1301 5.1076-7.3188 9.9859-8.814z"/>
  </g>
</svg>
