<svg width="36.751mm" height="17.944mm" version="1.1" viewBox="0 0 36.751259 17.944185" xmlns="http://www.w3.org/2000/svg">
  <g transform="translate(-6.167 -13.452)">
    <path d="m16.72 13.452 5.5973 3.2114 0.0015-2.6926 0.9456 0.69772c1.0083-0.58624 1.8102-0.54939 2.7127 0.08037l0.72656-0.6291-0.04433 2.5788 6.0129-3.0626c5.1538 3.7631 8.8964 9.3668 10.246 14.848-1.6058-1.1909-3.2116-1.0625-4.8175 0.20047-2.5017-1.6009-4.4323-1.0805-5.7887 1.5725-3.1465-1.4353-5.3745 0.06885-7.738 1.1394-4.1045-2.4362-5.8726-1.7016-7.7529-1.1192-0.69368-1.9044-2.4849-3.8398-5.6122-1.6756-1.3409-1.1276-2.8877-1.1687-5.042-0.24019 1.6975-4.9493 5.4196-11.616 10.553-14.909z"/>
  </g>
</svg>
