<svg width="33.196mm" height="23.175mm" version="1.1" viewBox="0 0 33.19595 23.17506" xmlns="http://www.w3.org/2000/svg">
  <g transform="translate(-89.894 -53.993)">
    <path d="m100.87 54.173c-5.4436 5.0892-2.0808 7.5055 2.0543 7.1681 1.5966-0.25739 1.5532-4.6074 2.2946-7.1746l0.4331 1.8931c0.46608-0.18526 0.94442-0.33989 1.5992-0.05331l0.50279-1.8204c0.61651 2.7631 0.73704 7.3449 2.1298 7.262 5.2478-0.23581 6.9382-2.6728 1.871-7.4551 6.7699 1.0949 18.004 11.501 6.1272 19.355 7.3133-6.38-1.9962-10.235-1.8668-3.4726-3.6442-3.5901-6.9887-0.30743-5.5902 3.7057-3.2208-1.1645-3.5982 1.2987-4.1126 3.5873-0.19131-2.1596-0.0869-4.5572-4.0934-3.646 2.058-3.263-2.2258-7.6518-5.3496-3.5223 0.59141-6.0253-9.3313-4.0406-2.0184 3.6001-10.708-7.1726-1.9027-17.542 6.019-19.427z"/>
  </g>
</svg>
