<svg width="37.268mm" height="14.279mm" version="1.1" viewBox="0 0 37.267513 14.27916" xmlns="http://www.w3.org/2000/svg">
  <g transform="translate(-88.438 -153.49)">
    <path d="m96.511 154.98c2.3938 1.5613 5.0261 2.6459 8.0814 2.8842l1.0358-4.3722 0.70639 2.6485 1.1259 3e-3 0.76049-2.6347 1.0172 4.4262c3.0241-0.17913 5.6467-1.362 8.1052-2.9554l8.3618 7.7851c-2.285-0.90307-4.712-1.8325-7.0679-1.7265-1.4596 0.92157-1.8574 2.4499-2.7296 3.7072-1.4802-0.83402-3.0494-1.419-4.6858-1.9053-1.8521 1.4215-2.8828 3.2537-4.2229 4.9312-1.256-1.7354-2.5884-3.5022-4.3027-4.9381-1.6994 0.38463-3.2975 1.0224-4.8076 1.8804-0.61614-1.3892-1.3837-2.6919-2.658-3.705-2.4119-0.0288-4.5521 1.029-6.793 1.6841z"/>
  </g>
</svg>
