<svg width="33.051mm" height="20.435mm" version="1.1" viewBox="0 0 33.050594 20.435089" xmlns="http://www.w3.org/2000/svg">
  <g transform="translate(-90.168 -104.27)">
    <path d="m95.682 104.49c2.2923 2.0964 3.9939 4.3867 8.1038 4.938l0.11375-4.8299 0.86374 2.8596c0.95862-0.34789 1.6918-0.95877 3.7499-0.0239l0.64931-2.7352 0.3524 4.6549c4.2825-0.29727 6.0964-2.8485 8.2609-5.0797 2.7839 6.0911 4.3828 12.182 5.4424 18.273-4.1603-6.4768-6.8559-4.933-9.0078-0.41178-4.1538-6.4003-5.8188-1.5514-7.6439 2.5735-2.9647-8.3061-5.2483-5.9692-7.4558-2.445-3.626-7.3664-6.2473-3.2799-8.943-0.0411 1.0464-6.2418 2.4881-12.057 5.5144-17.733z"/>
  </g>
</svg>
