<svg width="26.927mm" height="15.845mm" version="1.1" viewBox="0 0 26.927158 15.844799" xmlns="http://www.w3.org/2000/svg">
  <g transform="translate(-175.76 -15.032)">
    <path d="m184.96 15.104c-3.69 2.9186-0.25491 3.8335 2.4871 4.1129l0.34233-2.683 0.55086 1.0318h1.5588l0.53935-1.0404 0.32924 2.7073c2.8289 0.03902 6.3837-1.6668 2.3738-4.2006 7.5701 2.2517 9.3214 6.0904 9.5512 10.344-4.8185-4.2205-6.9353-0.56251-6.6996 3.453-2.7209-3.7621-5.0728-4.0689-6.7387 2.0477-2.0057-6.4382-4.4377-5.2036-7.0148-2.0227 0.66284-6.553-4.3371-6.0935-6.4703-3.406-0.12466-4.9232 2.876-8.4003 9.1907-10.344z"/>
  </g>
</svg>
