<svg width="30.212mm" height="16.071mm" version="1.1" viewBox="0 0 30.21232 16.071381" xmlns="http://www.w3.org/2000/svg">
  <g transform="translate(-131.72 -198.84)">
    <path d="m138.04 198.97c2.164 1.3445 4.433 2.5062 7.1322 3.048l0.51013-3.1725 0.52638 1.1797h1.3004l0.46561-1.1745 0.7641 3.1613c2.4906-0.62607 4.8452-1.5692 6.9293-3.1439 3.7347 4.6181 6.1924 9.8037 6.2666 16.049-3.9497-3.7292-5.4113-2.3358-7.1351-1.4824-2.8107-2.5966-5.4046-1.3981-7.9459 0.71829-3.8984-3.7625-5.7817-2.0556-7.8425-0.83044-4.0493-2.1279-5.0628 0.60136-7.2888 1.3907 0.40087-5.4778 2.4757-11.568 6.3176-15.743z"/>
  </g>
</svg>
