<svg width="32.69mm" height="19.463mm" version="1.1" viewBox="0 0 32.690163 19.46273" xmlns="http://www.w3.org/2000/svg">
  <g transform="translate(-8.6048 -149.29)">
    <path d="m12.75 149.32c-0.20726 1.2766-0.77795 2.554-0.6293 3.7417 3.1504 0.8948 6.3351 1.4478 9.6759 0.43922l0.97314-4.2169 0.76464 2.5072c1.1091-0.95513 1.845-0.8977 2.7675 0l0.79293-2.5071 0.93709 4.1088c3.3508 1.4789 6.5782 0.2427 9.8396-0.2454-0.04218-1.2878-0.44635-2.5756-0.86513-3.8634 1.9241 2.8227 3.7804 5.6362 4.289 9.6232-0.40444 3.5114-2.227 6.8946-4.4332 9.5512 0.81545-1.9803 1.2981-4.0385 0.18564-4.3591-2.302-0.18999-4.4637-0.15713-5.1584 2.2056-1.9302-2.476-4.1559-3.8259-6.7894 2.4418-3.2325-6.4686-4.9844-5.1944-7.2247-2.3616-0.27764-2.6901-3.622-2.7145-5.0382-2.3302-1.5737 0.53048-0.05451 2.8091 0.38149 4.4755-2.1985-2.499-3.8294-5.6511-4.6134-9.1907 0.27218-3.2435 2.0253-6.9313 4.1448-10.02z"/>
  </g>
</svg>
