<svg width="25.046mm" height="23.787mm" version="1.1" viewBox="0 0 25.046412 23.787397" xmlns="http://www.w3.org/2000/svg">
  <g transform="translate(-53.474 -53.128)">
    <path d="m58.884 54.858c1.2927 1.7956 2.6989 3.4492 4.3745 4.7661l1.1399-6.4542 0.7101 1.9179 1.7044-3e-3 0.73919-1.9565 1.0993 6.4872c1.5607-1.3643 3.1182-2.7359 4.3971-4.7576 3.6381 1.2619 11.395 14.694-2.4509 22.058 1.3772-2.5407 2.2383-4.7639 2.3669-6.5362-1.0491 0.71104-2.2127 1.6256-2.9947 2.6184-0.05244-1.3539-0.32554-2.7709-1.0197-3.9402-1.2505 1.923-1.6198 4.4404-3.11 6.5245-1.0723-1.7229-1.625-4.4985-2.9018-6.3152-0.5708 0.95598-0.78563 2.3866-1.0856 3.7036-0.96324-1.0711-1.9039-1.9542-2.8151-2.5931-0.31673 2.1794 1.3737 4.3588 2.3694 6.5382-10.57-4.9373-9.7039-17.305-2.5229-22.058z"/>
  </g>
</svg>
