<?xml version="1.0" encoding="UTF-8" standalone="no"?>
<svg
   xmlns:dc="http://purl.org/dc/elements/1.1/"
   xmlns:cc="http://creativecommons.org/ns#"
   xmlns:rdf="http://www.w3.org/1999/02/22-rdf-syntax-ns#"
   xmlns:svg="http://www.w3.org/2000/svg"
   xmlns="http://www.w3.org/2000/svg"
   id="svg989"
   viewBox="0 0 117.54869 58.991608"
   version="1.1"
   height="59.587482mm"
   width="117.54868mm">
  <metadata
     id="metadata995">
    <rdf:RDF>
      <cc:Work
         rdf:about="">
        <dc:format>image/svg+xml</dc:format>
        <dc:type
           rdf:resource="http://purl.org/dc/dcmitype/StillImage" />
        <dc:title></dc:title>
      </cc:Work>
    </rdf:RDF>
  </metadata>
  <defs
     id="defs993" />
  <path
     id="path2113"
     d="m 58.750857,50.475938 c -3.57133,-3.46101 -7.14266,-6.92202 -10.71399,-10.38303 -3.28835,1.49055 -6.576701,2.9811 -9.865051,4.47165 -1.782693,-2.38496 -3.565387,-4.76992 -5.34808,-7.15488 -2.649953,1.746563 -5.299907,3.493127 -7.94986,5.23969 -1.710423,-2.18019 -3.420847,-4.36038 -5.13127,-6.54057 -3.97788,1.328037 -7.95576,2.656073 -11.9336396,3.98411 0,0 8.6368696,-10.63348 12.9742196,-15.93478 4.26188,-5.20906 12.82275,-15.5967403 12.82275,-15.5967403 0.494843,2.5277813 0.989687,5.0555613 1.48453,7.5833413 0,0 5.47977,1.06146 8.204491,1.66373 2.7896,0.61661 8.33522,1.995759 8.33522,1.995759 0.956947,-2.285573 1.913893,-4.571146 2.87084,-6.856719 0.449597,0.981283 0.899193,1.962567 1.34879,2.94385 0.96702,0 1.93404,0 2.90106,0 0.96796,0 1.93592,0 2.90388,0 0.432523,-0.981283 0.865047,-1.962567 1.29757,-2.94385 0.957073,2.285573 1.914147,4.571146 2.87122,6.856719 0,0 5.633895,-1.257559 8.452615,-1.878359 2.71902,-0.59884 8.16045,-1.78113 8.16045,-1.78113 0.44644,-2.52778 0.89287,-5.05556 1.3393,-7.5833413 0,0 8.72069,10.5689603 13.07556,15.8579603 4.299328,5.22155 12.887148,15.67356 12.887148,15.67356 -4.01709,-1.328037 -8.03418,-2.656073 -12.051268,-3.98411 -1.69838,2.18019 -3.39676,4.36038 -5.09514,6.54057 -2.64994,-1.746563 -5.29989,-3.493127 -7.94984,-5.23969 -1.79474,2.38496 -3.58948,4.76992 -5.38423,7.15488 -3.2763,-1.49055 -6.55261,-2.9811 -9.82892,-4.47165 -3.559448,3.46101 -7.118902,6.92202 -10.678355,10.38303 z"
     style="fill:#000000;fill-opacity:1;stroke:#ff000b;stroke-width:0.10000001;stroke-miterlimit:4;stroke-dasharray:none;stroke-opacity:1" />
  <path
     id="path2169"
     d="m 58.6632,55.106369 c 0,0 -1.03944,-6.81056 -1.73839,-10.18197 -0.38923,-1.87747 -0.54277,-3.85593 -1.36586,-5.58767 -1.08473,-2.28222 -2.54281,-4.54179 -4.57346,-6.04567 -1.60808,-1.19093 -3.63455,-2.0722 -5.6356,-2.06831 -1.54535,0.003 -3.26421,0.51061 -4.34596,1.61421 -1.31948,1.34612 -1.86256,5.33933 -1.86256,5.33933 -7.38504,-4.03488 -10.75661,-9.40707 -10.51273,-17.34147 0.24388,-7.9344 7.25382,-16.6823701 18.63829,-16.2987601 -2.53615,1.2784398 -4.60491,5.7461301 -1.55791,8.0965501 1.77797,1.37151 4.74158,2.2575 6.65023,1.07458 1.01568,-0.62949 1.96026,-1.64883 2.86721,-3.30067 0.90695,-1.6518403 1.10828,-6.4788201 1.01276,-6.4788201 l 1.14226,2.6495898 h 1.28173 1.42961 l 1.194,-2.6495898 c -0.0289,-0.0144 -0.13791,4.4808698 1.01406,6.5646101 0.70945,1.28329 1.6042,2.77393 3.00267,3.21488 2.193382,0.69159 5.299562,0.40925 6.749862,-1.42907 1.81999,-2.3069003 1.62869,-5.6150903 -2.09301,-7.7863701 12.39979,-0.19063 18.48809,8.8051901 18.95103,17.2431701 0.30549,5.5682 -2.71151,13.01201 -10.55094,16.13119 0,0 -0.45811,-3.59419 -1.61422,-4.84265 -1.15952,-1.25214 -3.01253,-2.03268 -4.71847,-1.98672 -2.18396,0.0588 -4.21604,1.46695 -5.894922,2.86497 -1.88654,1.57094 -3.25197,3.74375 -4.36542,5.9317 -0.80744,1.58662 -1.21498,3.35608 -1.61421,5.09099 -0.76922,3.34278 -1.49005,10.18197 -1.49005,10.18197 z"
     style="fill:#000000;fill-opacity:1;stroke:#ff000b;stroke-width:0.10000001;stroke-miterlimit:4;stroke-dasharray:none;stroke-opacity:1" />
  <path
     id="path3260"
     d="m 58.762943,45.983096 h -2e-5 v 0 c -0.87539,-2.1134 -4.19674,-6.26904 -6.92345,-5.27667 -1.78749,0.65054 -1.98496,3.7491 -1.2536,5.56716 -2.04369,-1.68267 -7.08784,-4.66895 -9.65941,-2.55278 -1.20725,0.99346 -1.0555,2.80855 0.30318,4.68058 -9.12055,-5.9304 -12.61575,-11.92091 -12.66451,-19.73795 -0.0444,-7.12242 5.61032,-14.54609 11.31391,-18.12658 -0.11759,2.4283 1.13992,3.43388 2.39072,4.64578 1.3375,1.2959 3.2492,1.90878 5.04605,2.39825 1.12068,0.30528 3.471,0.30704 3.471,0.30704 0.54925,-2.96738 2.00814,-5.14534 3.36487,-6.79485 l -0.009,3.02427 h 4.61963 4.52465 v -3.17072 c 1.76477,2.22917 3.116889,4.52525 3.376609,6.99849 0,0 2.50976,-0.1121 3.70422,-0.46056 1.7296,-0.50458 3.57791,-1.07763 4.881,-2.32186 1.23532,-1.17953 2.16072,-2.12158 2.41249,-4.52061 5.70602,2.5356 11.40279,11.14697 11.32169,18.32727 -0.0877,7.76467 -4.03389,13.69814 -12.68762,19.53725 1.85556,-2.86625 1.28704,-4.03487 -0.0666,-5.01726 -2.60709,-1.89206 -8.28742,1.56973 -9.22674,2.87377 0.52475,-1.54406 0.60836,-4.84528 -1.219369,-5.53718 -2.71846,-1.02909 -6.03802,2.93245 -7.01998,5.15716 v 0 z"
     style="fill:#000000;fill-opacity:1;stroke:#ff0008;stroke-width:0.10000001;stroke-miterlimit:4;stroke-dasharray:none;stroke-opacity:1" />
  <path
     id="path3273"
     d="m 58.786915,49.730833 -1e-5,1e-5 v 0 c -2.10067,-2.65412 -7.78133,-6.15925 -12.47373,-7.04376 -5.28676,-0.99655 -12.14609,-0.13817 -15.97847,2.27492 -1.86234,-1.57662 -6.56949,-3.94559 -10.26413,-4.39851 -3.91613,-0.48007 -8.55654,0.2885 -11.6834596,1.89626 0,0 2.4701096,-11.49037 4.3322996,-17.05116 1.75133,-5.22973 6.40457,-15.255699 6.40457,-15.255699 0,0 6.5556,1.6615 9.86651,2.34278 3.71997,0.76545 7.45966,1.45568 11.22416,1.95837 1.86837,0.24949 5.63056,0.52377 5.63056,0.52377 l 3.05883,-5.6004103 2.50093,5.9724003 c 0,0 4.92039,0.20531 7.38194,0.20097 2.4508,-0.004 7.34895,-0.226 7.34895,-0.226 l 2.510137,-6.0223003 2.99206,5.6228003 c 0,0 5.06932,-0.46981 7.59472,-0.78566 3.44538,-0.43091 6.90931,-0.79362 10.30619,-1.513 3.01246,-0.63796 8.89914,-2.47842 8.89914,-2.47842 0,0 4.497608,9.655219 6.196598,14.691209 1.93715,5.74191 4.52605,17.6072 4.52605,17.6072 -2.92965,-1.56247 -7.43157,-2.39198 -11.193088,-1.95098 -3.76001,0.44082 -7.99151,2.13342 -10.43412,4.48525 -5.29398,-2.80527 -10.41344,-3.39199 -15.60136,-2.48763 -4.9277,0.859 -10.797417,4.51661 -13.145277,7.23759 l -1e-5,1e-5 z"
     style="fill:#000000;fill-opacity:1;stroke:#ff0008;stroke-width:0.10000001;stroke-miterlimit:4;stroke-dasharray:none;stroke-opacity:1" />
  <path
     id="path3312"
     d="m 58.88246,47.483034 6e-5,-1e-5 -6e-5,1e-5 c -0.8906,-4.31366 -3.29896,-8.81491 -7.22527,-10.24783 -2.9721,-1.08468 -6.1796,-0.48588 -9.18025,2.4109 -0.83525,-3.14322 -4.358428,-7.274708 -7.905348,-7.134928 -2.77818,0.10949 -5.33526,1.01292 -5.73298,6.058488 -2.51984,-2.49368 -4.51961,-8.749568 -3.71632,-13.273418 0.95027,-5.351619 6.097,-10.898789 9.53352,-13.228679 0,0 0.93386,2.18752 1.73387,3.03427 1.41685,1.49963 3.16834,2.96399 5.19096,3.37061 2.535618,0.50975 5.757118,-0.0749 7.634908,-1.38233 1.60745,-1.11924 3.62585,-4.05724 3.75701,-5.49 0,0 1.17515,1.59407 1.99413,2.10931 1.16947,0.73575 2.56626,1.24663 3.94782,1.26316 1.279547,0.0153 2.600347,-0.40034 3.683257,-1.08209 0.87735,-0.55234 2.08059,-2.31183 2.08059,-2.31183 0.33837,1.76433 1.786605,4.16425 3.524305,5.25818 1.73586,1.09276 3.84627,1.85676 5.89533,1.76376 2.26315,-0.10272 4.59051,-1.05253 6.30803,-2.52985 1.19957,-1.03181 1.6003,-1.83693 2.40583,-4.09198 4.78598,2.89141 8.61826,8.07068 9.5819,13.505759 0.78712,4.4395 -0.66143,10.024508 -3.557,13.050128 0.1027,-1.88529 -1.41238,-5.467498 -3.6957,-5.936818 -3.96534,-0.81505 -7.46891,1.27953 -9.96445,6.942908 -1.83109,-2.13431 -5.58275,-3.49036 -8.35922,-2.59424 -4.184175,1.35048 -7.103765,6.11617 -7.934862,10.53651 v 0 z"
     style="fill:#000000;fill-opacity:1;stroke:#ff0008;stroke-width:0.10000001;stroke-miterlimit:4;stroke-dasharray:none;stroke-opacity:1" />
  <path
     id="path3329"
     d="m 58.753598,51.614576 v 1e-5 -1e-5 c -1.05157,-8.69873 -5.08771,-15.01512 -8.44372,-16.21003 -1.96095,-0.69819 -3.90101,-0.65133 -5.18216,5.34951 -0.99057,-4.60013 -4.969699,-10.85691 -9.104349,-9.76774 -4.29024,1.13016 -5.10015,4.27373 -2.53666,13.03411 -5.05089,-3.5958 -8.90257,-9.58161 -8.72423,-15.29249 0.31356,-10.04148 9.24378,-17.37946 21.801779,-20.8095203 -5.517689,5.0208103 -5.032809,7.2152303 -3.41245,10.5301703 1.11679,2.28473 4.69355,3.17377 7.17162,2.60247 1.73159,-0.3992 3.70931,-3.82896 3.70931,-3.82896 l 1.78398,-9.8414003 0.78136,3.9677803 h 2.15552 2.19764 l 0.92136,-3.9116203 1.76585,10.0357303 c 0,0 1.83421,2.90793 3.350344,3.35034 2.42331,0.70711 6.08761,0.52501 7.39456,-1.63469 2.01802,-3.33473 1.34709,-6.89245 -3.06068,-11.2857403 13.89959,4.3728903 20.96536,11.3621603 21.45585,21.3126203 0.2806,5.69256 -3.80439,11.0691 -8.68047,14.87492 2.59041,-7.56744 1.60209,-12.01898 -2.33496,-13.08981 -4.01171,-1.09114 -8.67132,5.24774 -9.39557,9.74783 -0.45956,-4.84697 -2.566,-5.66213 -4.21515,-5.28747 -3.829694,0.87005 -8.407424,7.40802 -9.398774,16.15399 v 1e-5 z"
     style="fill:#000000;fill-opacity:1;stroke:#ff0008;stroke-width:0.10000001;stroke-miterlimit:4;stroke-dasharray:none;stroke-opacity:1" />
  <path
     id="path3336"
     d="m 58.666192,54.608771 v 0 0 c 0,-5.23028 -4.10912,-12.38592 -8.6087,-14.48402 -4.77222,-2.22523 -10.75259,-0.97983 -14.88615,5.3108 -2.40878,-3.22935 -4.69508,-6.58798 -5.44054,-11.57305 -5.46848,2.72823 -7.2483,7.4137 -8.15016,12.56503 -5.25473,-2.32112 -14.0168126,-10.85232 -13.4465326,-18.42403 0.8203,-10.89129 9.5484526,-18.3418603 23.1141126,-23.3773203 -2.1509,2.02077 -2.42173,4.16364 -1.72305,6.1873603 1.09081,3.15954 5.03682,4.55338 8.07691,5.94278 3.60814,1.64902 11.60654,2.63241 11.60654,2.63241 l 2.45412,-9.5743903 0.9249,3.9876603 c 1.54611,-1.08503 3.98687,-1.56523 6.07855,-1.55815 2.01027,0.007 4.18198,0.64027 5.83168,1.53704 l 0.91515,-4.1768703 2.49411,9.7913303 c 0,0 8.68617,-1.02263 12.56379,-2.87173 2.68871,-1.28215 6.12176,-2.67917 7.0309,-5.51581 0.69804,-2.1780103 1.38337,-3.4030003 -1.93088,-6.5841103 13.98474,4.47134 24.019688,14.0696003 23.868518,23.3700203 -0.15117,9.30042 -8.71152,16.32339 -13.571518,18.56486 -0.71709,-5.78218 -3.22248,-9.80738 -8.07742,-12.39214 -0.81438,2.88563 -0.47224,4.61473 -5.36717,11.58091 -5.19297,-7.45021 -9.95356,-7.14258 -15.04236,-5.31649 -5.0888,1.82608 -8.17757,10.44372 -8.7148,14.37791 z"
     style="fill:#000000;fill-opacity:1;stroke:#ff0008;stroke-width:0.10000001;stroke-miterlimit:4;stroke-dasharray:none;stroke-opacity:1" />
  <path
     id="path3363"
     d="m 58.663613,47.396278 c -0.3552,-2.46335 -1.76194,-7.20576 -4.80497,-7.87978 -3.04303,-0.67402 -6.94786,2.10546 -8.84351,5.35563 0.18787,-3.41567 -0.12294,-7.49842 -3.19223,-8.90622 -3.069288,-1.4078 -8.275888,1.16179 -11.380718,5.37372 0.65153,-2.70208 0.78337,-7.48396 -3.89432,-8.70858 -4.67769,-1.22462 -12.75809,4.91584 -16.9931696,11.94329 1.7855496,-7.09514 5.5257196,-14.2201 10.1032596,-19.71108 4.57754,-5.49098 11.10713,-10.3721 15.91532,-13.16203 0.72989,2.33753 2.83251,4.98239 4.75875,7.07059 1.709498,1.85325 3.825888,3.30264 5.914408,4.71509 1.51359,1.02363 4.76735,2.70579 4.76735,2.70579 -0.26034,-5.61973 1.03061,-8.13075 2.25982,-10.32702 -0.17791,2.72501 -0.0425,5.45002 0.60724,8.17503 0,0 2.50634,-1.78669 4.78277,-1.79711 2.27643,-0.0104 4.78284,1.73051 4.78284,1.73051 0.59146,-2.70281 0.61706,-5.40563 0.62944,-8.10844 1.80744,3.19007 2.436339,5.92708 2.171769,10.16733 0,0 3.43972,-1.56191 5.02503,-2.57694 1.90194,-1.21775 3.79236,-2.52819 5.33083,-4.1815 2.08509,-2.24072 4.70745,-6.01033 5.13333,-7.61345 5.82544,3.05031 11.97303,8.50941 16.48748,13.95696 4.514458,5.44755 7.415438,11.49383 9.770268,19.35588 -4.2131,-7.32826 -11.826758,-13.53586 -17.504148,-12.20186 -3.10654,0.72993 -4.79339,3.45497 -3.64974,8.59329 -3.19954,-3.73697 -7.15698,-6.67449 -10.6457,-5.72034 -3.48873,0.95415 -4.26876,5.37732 -3.83846,9.27149 -3.38774,-4.50342 -5.56021,-5.81169 -8.634179,-5.39648 -3.07397,0.4152 -4.68179,5.40981 -5.05876,7.87623 z"
     style="fill:#000000;fill-opacity:1;stroke:#ff0008;stroke-width:0.10000001;stroke-miterlimit:4;stroke-dasharray:none;stroke-opacity:1" />
  <path
     id="path942"
     d="m 58.680402,42.480643 c -0.82826,-3.01137 -3.65379,-8.96554 -7.64182,-9.24314 -1.75162,-0.12192 -3.51405,1.92569 -3.8865,3.55559 -0.99286,-1.82868 -2.64408,-2.91681 -4.33283,-2.70285 -2.46796,0.31268 -4.74538,3.62541 -5.1469,5.40432 -1.30493,-1.32598 -4.26622,-2.38588 -5.78625,-1.13935 -2.7357,2.24346 -1.87609,7.72692 -0.5605,11.16415 -5.6854,-6.6752 -7.79018,-13.39485 -7.9456,-20.80828 -0.11185,-5.33501 1.21173,-9.63615 4.04181,-15.48989 2.13783,2.1486 4.79561,3.3425 7.4562,4.50655 2.55204,1.11656 5.27495,1.89832 8.02859,2.31907 2.70312,0.41302 6.47031,0.18087 8.20147,0.18087 0,-2.91133 2.67532,-9.78906 3.46231,-10.7178003 l 2.37701,1.9697903 h 1.73301 1.96329 l 2.11109,-1.9286703 c 0.97507,1.2370803 3.46155,7.1689503 3.52584,10.6766803 2.25686,0.15264 5.69281,0.21222 8.5008,-0.17221 1.99895,-0.27367 3.99378,-0.74611 5.86183,-1.5084 3.29405,-1.34421 6.35042,-2.69598 9.24639,-5.33137 2.18594,2.63539 4.54664,10.163 4.26215,15.52047 -0.39086,7.36047 -2.97443,15.06222 -8.08095,20.58306 1.13837,-3.2068 2.34552,-8.61959 -0.49746,-10.87438 -1.55679,-1.2347 -3.50135,-0.75486 -5.86026,1.09083 -0.43619,-2.36386 -2.5808,-4.94804 -4.97917,-5.30054 -1.74325,-0.25621 -3.46293,0.62588 -4.57458,2.64842 -0.25903,-1.96345 -1.94119,-3.74555 -3.67019,-3.67197 -4.03632,0.17176 -6.6836,6.10011 -7.80878,9.26905 z"
     style="fill:#000000;stroke:#ff0000;stroke-width:0.10000001;stroke-miterlimit:4;stroke-dasharray:none;stroke-opacity:1" />
  <path
     id="path926"
     d="m 58.667649,50.307109 h 1e-5 -1e-5 c -1.52954,-9.49373 -6.8955,-14.75293 -13.73621,-17.84104 -5.76873,-2.60419 -11.87642,-1.97187 -18.94583,1.26325 1.31201,-2.23855 -1.66183,-4.50568 -4.03545,-4.6652 -5.64718,-0.37951 -10.50703,3.39498 -14.5463196,9.61601 1.02942,-3.66479 6.0162296,-11.80919 10.5615396,-16.49658 5.53816,-5.71127 11.10522,-9.9406 19.6945,-13.4809093 l 1.42649,5.5462093 7.10417,1.45002 7.03377,1.50953 1.53083,-5.83599 1.74396,2.87644 h 2.16856 2.16318 l 1.76546,-2.83609 1.64651,5.79294 6.584123,-1.38106 7.38435,-1.57579 1.4776,-5.5462193 c 5.72619,2.0770293 14.14857,7.6125393 19.64069,13.3006893 4.712328,4.88052 10.144108,13.9386 10.814428,17.24174 -2.34089,-4.72551 -8.53686,-10.67868 -14.064778,-10.18094 -2.16896,0.1953 -5.8199,1.35935 -4.69455,4.67059 -4.77177,-2.75866 -12.09331,-3.74787 -17.32284,-1.80367 -7.48983,2.78452 -13.584753,7.53402 -15.394173,18.37607 v 0 z"
     style="fill:#000000;stroke:#fa0000;stroke-width:0.10000001;stroke-miterlimit:4;stroke-dasharray:none;stroke-opacity:1" />
  <path
     id="path946"
     d="m 58.809817,53.93906 h 10e-6 v 0 c -1.42148,-10.92787 -3.42005,-21.56721 -12.03626,-24.29208 -3.56214,-1.12652 -7.38173,1.99509 -9.84578,5.35549 -0.13339,-7.20872 -3.24366,-10.23181 -7.25704,-13.29531 C 21.597397,15.5446 9.3375274,13.91831 0.02286745,14.67807 10.212957,9.4374397 16.193327,8.1480197 24.596507,6.7484997 c 7.81449,-1.3014701 16.4144,-1.2131701 23.76087,-0.35032 -1.1676,0.47887 -4.41744,3.6529103 -4.16452,6.1026103 0.30243,2.92931 3.55862,5.76109 6.36575,6.12604 2.48763,0.32341 3.8118,-1.74854 3.39808,-1.80764 l 1.3268,-11.8093704 0.54417,3.7039501 c 0,0 1.96918,-0.58742 2.98217,-0.58489 1.03164,0.003 3.03406,0.61084 3.03406,0.61084 l 0.55159,-3.6817001 1.24893,11.8093704 c 0,0 0.74329,2.69771 4.138265,1.61995 3.39498,-1.07776 5.66834,-3.92592 5.67911,-6.90641 0.008,-2.2314303 -4.21437,-5.2012903 -4.21437,-5.2012903 6.40521,-0.7636501 16.25957,-0.9614501 24.22809,0.46898 8.301948,1.49027 12.402078,2.03791 24.050798,7.8739503 -6.15267,-0.52888 -20.174598,0.40663 -27.992288,5.8624 -4.6117,3.2184 -8.23634,5.50253 -8.94228,14.30625 -2.0267,-3.62732 -5.89573,-6.38049 -9.33453,-5.35787 -8.753375,2.60304 -11.238285,13.01869 -12.447375,24.40571 v 0 z"
     style="fill:#000000;stroke:#fa0000;stroke-width:0.10000001;stroke-miterlimit:4;stroke-dasharray:none;stroke-opacity:1" />
  <path
     id="path955"
     d="m 58.774135,53.410731 c -0.95848,-4.08263 -4.86834,-16.91663 -11.41605,-16.14987 -3.48687,0.40832 -3.98803,7.38425 -3.92793,9.77221 -0.88272,-3.40134 -5.06126,-7.87866 -8.46676,-6.81746 -2.64308,0.82362 -3.96992,5.18283 -2.84243,8.24073 -1.26894,-1.48019 -5.35948,-2.67913 -7.77037,-1.60723 -2.57917,1.14673 -4.5421,4.49061 -4.25039,7.35777 -3.40779,-6.47059 -6.692,-15.47947 -6.57022,-23.66547 0.13336,-8.964846 3.24961,-19.138356 7.94849,-25.7057166 3.14622,2.7925503 6.38889,5.5561806 10.34537,8.1058306 0,0 5.68221,3.03598 8.70241,4.12321 3.1135,1.12082 9.62207,2.44276 9.62207,2.44276 l 3.44707,-11.9266403 0.68797,1.73825 h 4.50099 4.1882 l 0.61188,-1.89358 3.417277,12.0541603 c 0,0 5.24214,-0.80301 7.74532,-1.63843 4.12763,-1.37758 8.11052,-3.25909 11.8343,-5.51042 3.38148,-2.04439 9.4242,-7.1909506 9.4242,-7.1909506 5.352468,7.8415706 7.823728,16.2300506 8.008448,24.9685866 0.1746,8.26014 -2.5173,17.35285 -6.565928,23.90047 -0.16443,-3.46639 -1.79678,-5.80902 -3.85684,-6.90894 -2.41975,-1.29197 -6.30714,-0.7153 -8.17881,1.43512 0.62273,-3.06081 0.009,-7.51148 -2.70818,-8.3685 -3.46698,-1.09357 -7.32708,3.33064 -8.64338,6.73438 0.32916,-2.92717 -0.73307,-9.11703 -4.15002,-9.44476 -6.418327,-0.6156 -11.136687,11.94256 -11.136687,15.95449 z"
     style="fill:#000000;stroke:#fa0000;stroke-width:0.10000001;stroke-miterlimit:4;stroke-dasharray:none;stroke-opacity:1" />
  <path
     id="path979"
     d="m 58.677678,50.99954 v 0 h -2e-5 c -2.66889,-5.82698 -7.04193,-9.04329 -12.17906,-10.76765 -4.62825,-1.55354 -9.96783,-2.00928 -14.6035,1.11598 0.16332,-5.17953 -4.4116,-7.05942 -8.04426,-8.443001 -5.32317,-2.02745 -12.75081,-0.95212 -17.0315196,1.395591 0.56953,-2.819001 3.8430796,-10.821131 7.7075596,-14.836781 5.36056,-5.57025 10.53051,-9.25014 20.15545,-11.4728903 -2.7919,1.5469 -4.20461,4.9652203 -3.62327,7.7602003 0.64653,3.10843 4.24096,5.00606 7.13671,6.30798 4.43267,1.99291 10.13891,2.04909 14.47325,1.76279 l 1.9543,-10.06083 1.86427,5.57579 2.19007,-0.0438 2.39905,0.0438 1.81335,-5.61292 2.03806,10.08893 c 3.849744,0.20041 8.434234,0.40705 12.280014,-1.03686 3.43987,-1.29151 7.8725,-2.99715 8.88019,-6.5306 0.80649,-2.82795 1.20271,-4.55024 -3.28109,-8.1892703 9.55909,2.0351003 14.53994,5.7046603 19.842078,11.1255303 4.00627,4.09599 6.82591,9.96177 8.07236,15.175101 -3.08133,-2.032771 -10.934928,-3.500041 -16.030198,-1.784291 -4.00281,1.347891 -8.98783,3.756231 -9.18028,8.733641 -3.18943,-2.30122 -8.72936,-2.85144 -12.89813,-1.66268 -5.7625,1.64323 -10.992874,5.01831 -13.935384,11.35624 h -2e-5 z"
     style="fill:#000000;fill-opacity:1;stroke:#ff0000;stroke-width:0.10000001;stroke-miterlimit:4;stroke-dasharray:none;stroke-opacity:1" />
  <path
     id="path958"
     d="m 58.771808,48.410743 c 0,0 -1.01947,-6.81939 -2.6164,-9.79934 -1.17124,-2.1856 -2.69712,-4.48273 -4.92176,-5.57799 -2.02494,-0.99693 -4.931155,-1.41329 -6.755865,-0.45445 -1.87321,0.98432 -3.24126,1.43062 -3.45826,5.32362 -0.19942,3.57757 1.82201,7.09582 3.89354,10.01943 2.12194,2.99475 8.360655,7.16517 8.360655,7.16517 -12.616425,-2.8883 -20.338335,-14.16989 -20.663585,-24.97271 -0.33621,-11.16664 7.40262,-23.1749403 20.735255,-26.2100303 -9.614525,3.50864 -14.536045,15.2467303 -13.050845,19.8796203 1.48521,4.63288 10.252245,4.45325 13.020465,3.90648 2.76822,-0.54677 2.5911,-2.10174 2.5911,-2.10174 l 0.9091,-6.857489 0.85645,6.021729 h 1.11543 l 1.20111,0.0153 0.85644,-5.96996 0.84208,6.90924 c 0,0 1.0403,1.83038 3.52867,1.97022 4.166684,0.23415 9.881504,0.53422 11.884174,-2.99696 2.00268,-3.53118 -1.90266,-16.7755503 -12.759624,-20.7484103 12.714284,2.81738 20.669354,14.8116313 20.608814,25.8248103 -0.0598,10.87222 -7.4302,21.9987 -20.624094,25.26907 0,0 6.100994,-4.19243 8.253294,-7.11958 2.06445,-2.80768 4.26188,-6.10904 4.15808,-9.59247 -0.0553,-1.85568 -1.02621,-3.86056 -2.51541,-4.96912 -1.71464,-1.27638 -4.26657,-1.75458 -6.31177,-1.13306 -2.903824,0.88245 -5.017954,3.70377 -6.551194,6.32294 -1.71911,2.93669 -2.58585,9.87568 -2.58585,9.87568 z"
     style="fill:#000000;fill-opacity:1;stroke:#ff0000;stroke-width:0.10000001;stroke-miterlimit:4;stroke-dasharray:none;stroke-opacity:1" />
  <path
     id="path963"
     d="m 58.721479,48.058987 -3.38589,-7.438141 c -0.80974,-5.765287 -2.68339,-8.888251 -5.69966,-12.237898 -2.39832,-2.663401 -5.74229,-4.830289 -9.26908,-5.600072 -4.56962,-0.997403 -9.72908,-0.441901 -13.94105,1.591718 -3.73695,1.804271 -6.76953,5.187547 -8.79816,8.807608 -1.46188,2.608706 -2.19837,7.295219 -2.08045,9.327985 -2.1408,-9.277202 0.93913,-18.177042 6.68742,-23.944915 5.78726,-5.806971 13.68033,-8.5859503 23.49817,-7.338796 0,0 -4.14865,0.445253 -4.5155,2.058211 -0.50982,2.241538 2.45243,4.105657 4.42083,5.293015 3.0388,1.833037 7.94605,2.365657 10.41132,2.225697 l 0.5732,-7.665876 0.69082,4.173269 h 1.40803 1.4224 l 0.68365,-4.068632 0.59191,7.534566 c 1.79489,0.145838 7.165903,-0.398443 10.215133,-2.062586 1.99341,-1.087919 5.06555,-2.638269 4.74704,-4.886773 -0.2436,-1.719707 -1.24796,-2.17241 -4.55661,-2.613488 9.48644,-1.5140543 18.47262,1.988398 24.33946,8.227476 5.335608,5.674145 7.508478,14.450712 6.100868,22.553602 0,0 -0.93681,-6.165757 -2.450008,-8.812755 -1.95131,-3.413382 -4.68301,-6.710647 -8.18983,-8.488566 -4.25955,-2.159542 -9.50785,-2.838002 -14.19649,-1.930252 -3.60608,0.69816 -7.09539,2.74321 -9.57562,5.452396 -3.061383,3.343984 -5.240343,7.758701 -5.662903,12.366083 z"
     style="fill:#000000;fill-opacity:1;stroke:#ff0000;stroke-width:0.10000001;stroke-miterlimit:4;stroke-dasharray:none;stroke-opacity:1" />
  <path
     id="path3276"
     d="m 58.954377,47.970706 c -2.99142,3.1e-4 -5.9859,0.0731 -8.96967,0.28684 -3.16107,0.2264 -6.31315,0.59486 -9.448967,1.05345 -3.01108,0.44035 -6.01326,0.96398 -8.98281,1.62901 -3.04167,0.68119 -6.04915,1.51636 -9.03379,2.41512 -2.77397,0.83532 -5.54048,1.71228 -8.23953,2.76481 -2.35532,0.9185 -6.9253796,3.0919 -6.9253796,3.0919 -0.15919,-4.06265 3.5911396,-19.93548 6.9097896,-29.44972 2.71878,-7.7945 10.60433,-22.3799493 10.60433,-22.3799493 0,0 6.69953,2.8205793 10.2396,3.5286493 3.14126,0.628301 6.39207,0.767521 9.591407,0.604641 2.7109,-0.138011 8.03303,-1.335051 8.03303,-1.335051 l 2.63652,-10.2300691 1.18678,3.58515 c 0,0 1.58953,-0.38368 2.39868,-0.37378 0.70102,0.009 2.06958,0.37459 2.06958,0.37459 l 1.30222,-3.66058 2.5729,10.4421291 c 0,0 4.892855,0.9457 7.373185,1.07976 3.00319,0.162311 6.04639,0.136301 9.01641,-0.33753 3.99745,-0.63775 10.04615,-2.3970493 11.56946,-3.6330793 1.52463,2.08601 8.053258,14.9362793 10.755208,22.7184593 3.25793,9.38351 5.91924,21.16422 6.57907,29.02316 0,0 -5.15202,-2.37742 -7.79891,-3.39289 -2.682338,-1.02907 -5.419388,-1.91769 -8.175098,-2.73012 -2.94322,-0.86772 -5.91738,-1.63961 -8.91675,-2.28707 -2.84498,-0.61414 -5.71825,-1.101 -8.59949,-1.51277 -3.00959,-0.43012 -6.03305,-0.78425 -9.06561,-0.99922 -2.888265,-0.20474 -5.786645,-0.27614 -8.682165,-0.27584 z"
     style="fill:#000000;fill-opacity:1;stroke:#ff000b;stroke-width:0.10000001;stroke-miterlimit:4;stroke-dasharray:none;stroke-opacity:1" />
  <path
     id="path3279"
     d="m 58.783575,53.638046 c 0,0 -3.64817,-4.07437 -5.84665,-5.66527 -2.3638,-1.71053 -5.05179,-2.95945 -7.75126,-4.06684 -3.15541,-1.29443 -6.45716,-2.24819 -9.78861,-2.97865 -3.3154,-0.72694 -6.70107,-1.16275 -10.08804,-1.38353 -2.83807,-0.185 -5.69785,-0.18419 -8.53211,0.0521 -2.96757,0.2474 -8.8191296,1.42545 -8.8191296,1.42545 2.4900396,-5.47808 6.7810696,-12.84142 11.5267796,-18.24932 4.49866,-5.126389 11.08448,-10.336749 15.73361,-13.0810893 0,0 2.78353,2.5079803 4.39722,3.4313803 2.33129,1.33403 4.92963,2.1615 7.49253,2.9653 1.41284,0.4431 3.79861,1.02902 4.32412,1.0169 5.0506,-0.11644 2.29559,-7.7510703 1.92856,-11.8105505 l 2.05142,6.8645005 c 0,0 2.20614,-0.71647 3.34992,-0.74978 1.01435,-0.0295 3.00449,0.49092 3.00449,0.49092 l 1.51901,-6.4905005 c -0.15837,2.4683302 -0.52207,4.9366705 -0.31429,7.4050005 1.04488,1.07619 0.99051,2.8438 0.95483,4.43351 2.15046,-0.0562 8.117667,-1.21387 11.803437,-2.8951 2.49902,-1.13991 6.10102,-3.70424 6.7286,-4.7567403 3.7884,2.0028503 12.07981,8.7587003 16.86171,14.3925593 4.290218,5.05458 9.180158,13.79158 10.282708,17.02524 0,0 -6.21686,-1.06342 -9.35849,-1.25232 -3.117128,-0.18742 -6.254788,-0.12939 -9.367488,0.12101 -3.15665,0.25393 -6.30802,0.70038 -9.3972,1.39741 -3.05378,0.68904 -6.07878,1.57183 -8.98264,2.74143 -2.55759,1.03013 -5.11416,2.16679 -7.376427,3.74306 -2.36307,1.6465 -6.33661,5.87392 -6.33661,5.87392 z"
     style="fill:#000000;fill-opacity:1;stroke:#ff000b;stroke-width:0.10000001;stroke-miterlimit:4;stroke-dasharray:none;stroke-opacity:1" />
  <path
     id="path3286"
     d="m 58.580723,57.977251 v 0 l 0.11444,-3e-4 c -1.80281,-4.11222 -10.65491,-14.60827 -17.913287,-19.71178 -4.09041,-2.87605 -9.738819,-5.0875 -14.047709,-5.58213 -0.35597,-2.61207 -4.01006,-11.76462 -7.11496,-17.10246 C 16.605427,10.399391 12.445337,4.9196718 8.4348274,1.0752718 l 17.9413596,6.2541499 9.620879,3.2517493 c 0,0 5.57024,14.23623 11.191537,18.94968 1.03793,0.87031 2.53555,1.89565 3.80559,1.42478 1.32281,-0.49043 1.67464,-2.34611 2.03836,-3.70922 0.7765,-2.9101 0.17188,-9.03411 0.17188,-9.03411 0,0 1.05551,3.08143 2.16247,4.20231 0.8359,0.84642 1.96462,1.61117 3.15264,1.6725 1.29242,0.0667 2.64627,-0.58057 3.59883,-1.4566 1.21909,-1.12115 2.24246,-4.43393 2.24246,-4.43393 0,0 -0.66093,5.9001 0.0281,8.72599 0.36771,1.50807 0.64938,3.67528 2.130119,4.14101 1.67633,0.52725 3.39539,-1.24428 4.66085,-2.46358 4.99271,-4.81054 10.39614,-18.0149 10.39614,-18.0149 l 12.5796,-4.2551693 14.958618,-5.3184599 c -3.91003,3.66803 -7.28616,8.3832899 -10.235618,13.0836592 -3.6105,5.75387 -7.96345,15.91846 -8.10349,18.73562 -4.07216,-0.0149 -10.86062,3.18321 -14.63745,5.67047 -7.84065,5.16352 -14.116569,14.239 -17.442539,19.47573 v 0 z"
     style="fill:#000000;fill-opacity:1;stroke:#ff000b;stroke-width:0.10000001;stroke-miterlimit:4;stroke-dasharray:none;stroke-opacity:1" />
  <path
     id="path869"
     d="m 58.637941,51.70537 c 0,-1.63491 -0.88852,-5.43997 -2.95622,-6.78642 -1.65128,-1.07528 -3.60171,-1.19126 -5.91148,0.0329 2.45013,-4.19098 -0.0974,-7.29901 -2.80541,-8.6865 -3.15059,-1.61426 -8.21127,-0.18824 -10.10934,3.25421 -0.45134,-5.13163 -5.46906,-6.44856 -7.95345,-4.6448 -3.29715,2.39386 -2.12568,6.8308 2.59295,11.94539 -5.16677,-3.53382 -11.47331,-10.15922 -10.54417,-16.66745 1.4273,-9.99763 9.17712,-15.82975 22.71492,-20.04844 -2.4713,1.50125 -5.55573,5.53765 -4.51015,8.60159 1.13348,3.3215 6.09655,4.89532 9.56963,4.39049 1.94974,-0.28341 4.24051,-2.87248 4.44824,-3.89223 l 0.92428,-11.9048603 1.51715,5.6308203 c 0,0 1.98533,-0.73799 3.02305,-0.74382 1.08745,-0.006 3.17647,0.74382 3.17647,0.74382 l 1.53311,-5.6300103 0.98625,11.9056803 c 0.58759,2.28193 3.229381,3.89279 5.506651,4.08411 3.06457,0.25746 7.21795,-1.27629 8.22353,-4.1826 1.06791,-3.08647 -0.22141,-6.17716 -4.12072,-8.88933 12.4044,3.69503 21.15472,9.73669 22.63733,19.60911 0.99062,6.59637 -4.94094,14.24022 -10.60973,16.96687 5.01193,-5.6833 5.98491,-9.35615 2.76273,-11.78416 -2.48987,-1.87619 -7.57676,-0.92502 -8.16463,4.56231 -2.09106,-3.81359 -6.68165,-4.88788 -9.79835,-3.39348 -2.82109,1.35266 -5.479511,4.40966 -3.15834,8.83849 -1.29756,-0.91873 -3.835311,-1.2131 -5.399881,-0.31691 -2.27474,1.30297 -3.57442,5.66642 -3.57442,7.00522 z"
     style="fill:#000000;fill-opacity:1;stroke:#ff0000;stroke-width:0.10000001;stroke-miterlimit:4;stroke-dasharray:none;stroke-opacity:1" />
  <path
     id="path878"
     d="m 58.642324,48.24501 c -0.24553,-2.83854 -2.08415,-7.4039 -4.76288,-9.90159 -2.92493,-2.72725 -7.15121,-4.31254 -11.14855,-4.4326 -3.421153,-0.10275 -8.473585,2.15024 -9.752045,3.21419 -0.89507,-1.54981 -2.84355,-4.22951 -4.97661,-5.46016 -2.70254,-1.5592 -6.04413,-2.34211 -9.14493,-1.99591 -2.97908,0.33261 -6.54533,2.35265 -8.1467,3.80807 0.47335,-1.89339 7.21821,-10.15043 11.95595,-14.08473 4.44185,-3.68858 12.59588,-8.10368 15.039652,-8.59243 0,0 3.20273,1.1224 4.766453,1.77861 1.59111,0.66771 3.14551,1.42186 4.68902,2.19326 1.24061,0.62002 2.46465,1.27402 3.6723,1.956 0.93333,0.52706 1.86558,1.0593 2.76016,1.64974 1.09671,0.72385 2.13036,1.53902 3.18989,2.31627 0.62166,0.45604 1.85831,1.37716 1.85831,1.37716 0,0 1.46513,-1.08581 2.2074,-1.61529 0.89342,-0.6373 1.78829,-1.27328 2.7032,-1.87931 1.00591,-0.66631 2.02039,-1.32144 3.061888,-1.93064 1.28191,-0.74983 2.58942,-1.45757 3.91852,-2.12016 1.68495,-0.83999 3.38681,-1.65392 5.1364,-2.34932 1.33251,-0.52963 4.07285,-1.38442 4.07285,-1.38442 4.48504,1.44317 10.88669,5.22619 15.44349,9.08783 4.63466,3.92762 10.222238,10.46406 11.694428,13.97842 -1.41465,-1.61674 -4.95089,-3.76682 -7.901748,-4.17422 -3.28541,-0.45359 -6.85145,0.43861 -9.72777,2.08981 -2.10383,1.20774 -4.11477,3.86904 -4.90794,5.37354 -2.31534,-1.58481 -6.27357,-3.30748 -9.66708,-3.20663 -4.00627,0.11906 -8.22356,1.73706 -11.167678,4.45671 -2.68955,2.48449 -4.4431,6.98314 -4.86598,9.8478 z"
     style="fill:#000000;fill-opacity:1;stroke:#ff0000;stroke-width:0.10000001;stroke-miterlimit:4;stroke-dasharray:none;stroke-opacity:1" />
  <path
     id="path885"
     d="m 58.771636,54.664162 c -1.06465,-3.77658 -2.17866,-6.31803 -3.69557,-9.28308 -1.07116,-2.09376 -2.83613,-4.9371 -3.78898,-5.95186 -1.18268,3.00182 -1.56932,6.09548 -1.79556,9.20766 -2.21883,-2.29326 -4.54025,-4.3557 -7.05584,-5.98125 -0.0539,1.79562 0.84461,4.96155 1.6383,7.33918 0.81097,2.4294 3.16629,7.00082 3.16629,7.00082 -11.965112,-5.46895 -16.963422,-15.73886 -17.509252,-26.23974 -0.47949,-9.22447 4.82077,-18.70787 12.908232,-24.5207103 0,0 1.30878,2.19462 2.0595,3.22622 1.13116,1.5543703 2.30714,3.0931503 3.67116,4.4477703 1.30511,1.29612 3.24689,3.00977 4.27985,3.4831 l 2.6006,-15.5054698 1.56613,4.8154295 1.88543,0.017 2.03975,-0.017 1.55964,-4.6620695 2.60709,15.3735098 c 1.26417,-0.6945 2.902166,-2.22072 4.210136,-3.49055 1.35674,-1.31718 2.62381,-2.73786 3.74833,-4.2581103 0.80215,-1.08443 2.12176,-3.44573 2.12176,-3.44573 8.52376,6.1806403 13.3233,15.3216303 12.8236,24.5366103 -0.5701,10.51321 -5.09254,20.41311 -17.5715,26.2472 1.68605,-2.68609 2.66545,-5.12303 3.55211,-7.85709 0.68609,-2.11561 1.34261,-5.11368 1.34261,-6.53575 -2.57842,1.65774 -4.72508,3.89116 -6.99261,5.96341 -0.37675,-3.08462 -0.73397,-6.29054 -1.8857,-9.06435 -0.755026,0.71807 -2.840006,3.83681 -3.929366,5.94893 -1.50793,2.92366 -2.4852,5.62313 -3.55614,9.20592 z"
     style="fill:#000000;fill-opacity:1;stroke:#ff0000;stroke-width:0.10000001;stroke-miterlimit:4;stroke-dasharray:none;stroke-opacity:1" />
</svg>
