<?xml version="1.0" encoding="UTF-8" standalone="no"?>
<svg
   xmlns:dc="http://purl.org/dc/elements/1.1/"
   xmlns:cc="http://creativecommons.org/ns#"
   xmlns:rdf="http://www.w3.org/1999/02/22-rdf-syntax-ns#"
   xmlns:svg="http://www.w3.org/2000/svg"
   xmlns="http://www.w3.org/2000/svg"
   xmlns:sodipodi="http://sodipodi.sourceforge.net/DTD/sodipodi-0.dtd"
   xmlns:inkscape="http://www.inkscape.org/namespaces/inkscape"
   id="svg989"
   viewBox="0 0 108.81 60.457"
   version="1.1"
   height="61.067mm"
   width="108.81mm"
   sodipodi:docname="anim-haloes.svg"
   inkscape:version="0.92.2 5c3e80d, 2017-08-06">
  <sodipodi:namedview
     pagecolor="#ffffff"
     bordercolor="#666666"
     borderopacity="1"
     objecttolerance="10"
     gridtolerance="10"
     guidetolerance="10"
     inkscape:pageopacity="0"
     inkscape:pageshadow="2"
     inkscape:window-width="1680"
     inkscape:window-height="921"
     id="namedview456"
     showgrid="false"
     inkscape:zoom="2.8985"
     inkscape:cx="205.63"
     inkscape:cy="115.4"
     inkscape:window-x="0"
     inkscape:window-y="1"
     inkscape:window-maximized="1"
     inkscape:current-layer="svg989" />
  <metadata
     id="metadata995">
    <rdf:RDF>
      <cc:Work
         rdf:about="">
        <dc:format>image/svg+xml</dc:format>
        <dc:type
           rdf:resource="http://purl.org/dc/dcmitype/StillImage" />
        <dc:title />
      </cc:Work>
    </rdf:RDF>
  </metadata>
  <defs
     id="defs993" />
  <path
     style="fill:#ff0000;fill-opacity:1;stroke:#fa0000;stroke-width:0.10841;stroke-miterlimit:4;stroke-dasharray:none;stroke-opacity:1"
     d="M 54.428,42.946 C 53.838,45.966 53.968,49.136 53.858,52.256 53.858,52.256 50.788,48.406 48.998,46.726 47.098,44.936 42.818,41.926 42.818,41.926 42.818,41.926 38.138,42.446 35.868,43.036 33.508,43.656 28.988,45.556 28.988,45.556 29.548,42.596 30.538,39.646 31.838,36.686 30.398,38.646 28.928,42.066 28.218,44.886 26.308,42.326 24.508,39.366 22.298,37.096 22.298,37.096 13.978,39.576 10.068,41.416 6.548,43.066 0.04801,47.406 0.04801,47.406 3.408,40.996 4.988,35.576 12.198,27.056 7.368,31.636 3.048,38.166 0.24801,43.356 2.638,36.816 6.938,31.126 11.398,25.826 13.548,23.276 16.138,21.106 18.808,19.096 21.798,16.846 24.968,14.756 28.378,13.186 33.238,10.946 41.738,8.3359 43.668,8.2659 43.668,8.2659 33.408,11.426 27.168,18.066 32.098,14.246 36.278,12.416 40.138,10.696 39.508,11.436 36.148,13.236 36.168,17.976 36.858,17.066 36.328,16.556 37.078,15.776 40.868,17.216 44.468,17.946 47.928,18.096 47.968,18.696 48.008,19.306 48.048,19.906 48.418,18.596 48.688,16.996 49.208,15.606 49.848,13.876 51.588,10.606 51.588,10.606 52.678,12.406 50.888,12.796 51.388,13.376 51.388,13.376 53.248,12.686 54.228,12.666 55.338,12.646 57.488,13.376 57.488,13.376 57.858,12.576 56.288,12.476 57.308,10.466 57.308,10.466 59.018,13.696 59.638,15.406 60.158,16.866 60.588,18.356 60.788,19.916 L 61.128,18.156 C 63.818,18.196 69.238,16.806 71.968,15.636 72.478,16.046 72.328,17.426 72.768,18.006 73.188,15.666 71.118,12.346 68.628,10.606 75.138,12.856 79.098,16.206 82.158,18.386 77.658,13.116 68.318,9.3159 64.838,8.2459 73.908,9.7659 78.208,11.996 84.298,15.196 87.538,16.906 90.478,19.176 93.198,21.616 96.608,24.676 99.728,28.086 102.39,31.816 104.95,35.406 107.5,39.976 108.76,43.536 105.32,37.716 102.64,32.436 96.868,27.216 101.31,32.936 105.08,38.036 108.66,47.206 108.66,47.206 101.22,42.486 97.208,40.716 93.798,39.216 89.088,37.666 86.578,37.246 84.428,39.716 82.448,42.236 80.718,44.816 80.398,42.316 77.758,37.306 77.008,36.556 78.098,39.516 79.408,42.446 79.808,45.506 79.808,45.506 75.448,43.726 73.178,43.106 70.878,42.476 66.148,41.806 66.148,41.806 66.148,41.806 61.988,44.756 60.148,46.516 58.238,48.326 54.988,52.486 54.988,52.486 54.888,49.306 55.008,46.126 54.428,42.946 Z"
     id="2009-comics-title"
     inkscape:connector-curvature="0" />
  <path
     style="fill:#ff0000;fill-opacity:1;stroke:#ff0000;stroke-width:0.11148;stroke-miterlimit:4;stroke-dasharray:none;stroke-opacity:1"
     d="M 54.575,53.649 C 54.575,53.649 51.254,48.145 48.823,46.135 47.084,44.7 45.011,43.429 42.77,43.11 41.042,42.861 39.08,43.111 37.598,44.052 36.606,44.686 35.547,46.94 35.547,46.94 35.547,46.94 33.206,44.897 31.868,44.134 30.842,43.551 29.739,43.065 28.59,42.812 27.476,42.567 26.305,42.515 25.168,42.642 23.641,42.813 22.013,43.052 20.72,43.888 19.951,44.387 19.349,45.18 18.948,46.007 18.535,46.859 18.402,47.84 18.346,48.787 18.301,49.641 18.468,50.497 18.624,51.338 18.758,52.03 19.193,53.377 19.193,53.377 13.842,51.181 8.0677,47.921 4.5004,43.132 1.9365,39.689 -0.09237,35.157 0.46501,30.901 1.1785,25.442 5.3477,20.685 9.4946,17.067 14.4,12.792 23.596,9.3962 27.141,8.7307 27.141,8.7307 26.116,11.093 26.093,12.347 26.071,13.73 26.45,15.157 27.108,16.373 27.899,17.838 29.181,19.03 30.508,20.037 31.935,21.119 33.551,22.075 35.29,22.491 37.62,23.049 40.128,22.913 42.48,22.452 43.885,22.177 45.468,21.644 46.471,20.855 46.471,20.855 47.341,14.844 47.809,11.843 48.043,10.299 48.556,7.2167 48.556,7.2167 49.336,8.3818 50.105,9.5456 50.886,10.711 50.886,10.711 53.349,10.688 54.575,10.688 55.69,10.688 57.92,10.711 57.92,10.711 58.644,9.5757 59.358,8.4409 60.082,7.3059 60.082,7.3059 60.573,10.606 60.852,12.256 61.298,14.998 62.278,20.483 62.278,20.483 62.78,21.167 64.029,21.715 65.032,22.041 67.25,22.758 69.658,23.092 71.977,22.815 73.95,22.577 75.89,21.822 77.573,20.77 79.134,19.795 80.639,18.533 81.553,16.939 82.467,15.355 83.08,13.432 82.879,11.613 82.757,10.522 81.385,8.675 81.385,8.675 84.585,9.3215 96.435,13.767 101.95,19.126 105.15,22.243 107.87,26.461 108.36,30.906 108.79,34.756 107.35,38.889 105.14,42.069 101.51,47.288 93.915,51.459 89.802,53.406 89.802,53.406 90.448,52.011 90.605,51.268 90.805,50.386 90.939,49.463 90.828,48.564 90.705,47.481 90.393,46.381 89.813,45.454 89.356,44.714 88.698,44.05 87.94,43.625 86.792,42.983 85.41,42.81 84.094,42.673 82.768,42.535 81.397,42.527 80.081,42.813 78.911,43.071 77.807,43.609 76.759,44.206 75.488,44.93 73.248,46.83 73.248,46.83 73.248,46.83 72.401,44.952 71.62,44.361 70.338,43.405 68.633,42.861 67.039,42.962 64.475,43.124 62.011,44.502 60.027,46.122 57.619,48.078 54.575,53.649 54.575,53.649 Z"
     id="1996-comics-title"
     inkscape:connector-curvature="0" />
  <path
     d="M 54.399,0.32125 A 38.905,30.085 0 0 0 15.489,30.415 38.905,30.085 0 0 0 54.399,60.509 38.905,30.085 0 0 0 93.318,30.415 38.905,30.085 0 0 0 54.399,0.32125 Z M 54.399,4.0715 A 35.163,26.342 0 0 1 89.547,30.415 35.163,26.342 0 0 1 54.399,56.758 35.163,26.342 0 0 1 19.239,30.415 35.163,26.342 0 0 1 54.399,4.0715 Z M 54.429,48.84 C 54.185,46.15 53.227,41.584 50.985,38.894 50.16,37.905 48.906,37.151 47.632,36.998 46.348,36.845 44.942,37.284 43.913,38.048 42.272,39.271 40.589,43.235 40.589,43.235 40.589,43.235 40.12,40.871 39.682,39.76 39.224,38.619 38.673,37.487 37.94,36.499 37.42,35.806 36.819,35.133 36.075,34.675 35.208,34.155 34.21,33.747 33.191,33.737 32.212,33.727 31.214,34.074 30.388,34.603 29.288,35.317 28.503,36.448 27.79,37.528 27.137,38.527 26.638,39.638 26.271,40.769 25.914,41.89 25.619,44.254 25.619,44.254 24.63,41.992 24.039,38.221 23.988,35.133 23.937,32.046 24.335,28.886 25.313,25.951 26.312,22.945 27.963,20.132 29.879,17.605 31.672,15.241 34.128,12.999 36.268,11.389 36.268,11.389 36.543,13.06 36.951,13.783 37.4,14.599 38.113,15.261 38.847,15.832 39.601,16.413 40.457,16.851 41.343,17.167 42.445,17.554 43.627,17.799 44.789,17.819 45.859,17.829 46.939,17.615 47.968,17.32 48.61,17.146 49.823,16.545 49.823,16.545 49.823,16.545 50.445,13.447 50.679,11.888 50.842,10.808 51.056,8.637 51.056,8.637 51.372,9.697 51.698,10.767 52.014,11.827 52.014,11.827 53.604,11.878 54.399,11.888 55.235,11.888 56.906,11.827 56.906,11.827 57.201,10.706 57.507,9.5848 57.803,8.4638 57.803,8.4638 58.098,10.747 58.271,11.888 58.496,13.447 59.015,16.545 59.015,16.545 59.015,16.545 60.391,17.146 61.105,17.34 61.91,17.564 62.745,17.768 63.581,17.778 64.845,17.799 66.139,17.666 67.321,17.238 68.697,16.749 70.042,16.015 71.092,14.996 71.621,14.476 72.039,13.814 72.284,13.121 72.498,12.54 72.528,11.287 72.528,11.287 73.833,12.204 77.716,15.597 79.642,18.329 81.598,21.101 83.005,24.28 83.952,27.531 84.707,30.099 85.073,32.82 85.002,35.5 84.921,38.517 83.351,44.397 83.351,44.397 83.351,44.397 82.933,41.89 82.546,40.677 82.22,39.638 81.833,38.598 81.262,37.671 80.61,36.611 79.876,35.531 78.857,34.828 77.919,34.186 76.778,33.717 75.647,33.707 74.638,33.686 73.619,34.074 72.773,34.614 71.866,35.195 71.204,36.122 70.602,37.019 70.042,37.844 69.644,38.782 69.278,39.709 68.86,40.8 68.309,43.072 68.309,43.072 68.309,43.072 66.771,39.638 65.385,38.435 64.437,37.61 63.194,36.835 61.94,36.896 60.381,36.968 58.863,38.007 57.854,39.21 55.663,41.819 54.694,46.384 54.429,48.84 Z"
     style="fill:#ff0000;fill-opacity:1;stroke:#ff0008;stroke-width:0.15075;stroke-miterlimit:4;stroke-dasharray:none;stroke-opacity:1"
     id="1964-comics-sigil"
     inkscape:connector-curvature="0" />
  <path
     d="M 54.399,0.1599 C 31.448,0.1599 12.838,13.7 12.838,30.41 12.828,47.12 31.438,60.67 54.399,60.67 77.359,60.68 95.979,47.12 95.969,30.41 95.969,13.7 77.359,0.1499 54.399,0.1599 Z M 54.399,3.9299 C 75.129,3.9399 92.179,15.79 92.179,30.41 92.189,45.03 75.139,56.89 54.399,56.9 33.658,56.9 16.598,45.04 16.608,30.41 16.608,15.79 33.658,3.9299 54.399,3.9299 Z M 54.149,50.05 C 53.759,47.12 52.459,44.23 50.449,42.12 48.999,40.61 46.969,39.51 44.899,39.21 43.389,39 41.818,39.52 40.428,40.13 39.458,40.56 37.868,41.99 37.868,41.99 37.868,41.99 36.998,39.71 36.298,38.73 35.738,37.94 35.038,37.26 34.268,36.68 33.588,36.17 32.838,35.73 32.038,35.44 31.218,35.14 30.348,34.9 29.468,34.93 28.628,34.96 27.768,35.21 27.018,35.61 26.388,35.96 25.798,36.44 25.378,37.04 24.958,37.63 24.798,38.38 24.598,39.08 24.408,39.75 24.198,41.13 24.198,41.13 24.198,41.13 21.428,36.9 20.848,34.49 20.228,31.94 20.218,29.18 20.788,26.62 21.318,24.3 22.478,22.1 23.898,20.19 25.578,17.92 30.128,14.43 30.128,14.43 30.128,14.43 31.058,16.42 31.738,17.27 32.468,18.19 33.368,18.99 34.348,19.64 35.158,20.18 36.048,20.65 36.998,20.87 38.128,21.15 39.328,21.13 40.478,20.99 41.438,20.88 42.379,20.6 43.259,20.21 44.059,19.86 44.829,19.42 45.479,18.85 46.129,18.28 46.639,17.56 47.109,16.84 47.669,16 48.519,14.16 48.519,14.16 48.519,14.16 50.269,16.16 51.419,16.75 52.289,17.19 53.289,17.37 54.259,17.38 55.219,17.39 56.239,17.28 57.099,16.84 58.319,16.21 60.079,13.99 60.079,13.99 60.079,13.99 60.799,16.1 61.409,17.02 61.799,17.62 62.319,18.13 62.859,18.59 63.589,19.22 64.379,19.8 65.259,20.21 66.319,20.7 67.479,21.11 68.649,21.17 69.919,21.24 71.199,20.93 72.399,20.53 73.429,20.18 74.449,19.71 75.309,19.03 76.039,18.46 76.609,17.69 77.119,16.92 77.599,16.2 78.299,14.61 78.299,14.61 78.299,14.61 82.719,17.74 84.359,19.84 86.049,21.99 87.499,24.48 88.069,27.15 88.609,29.69 88.369,32.42 87.669,34.92 87.049,37.12 84.409,40.95 84.409,40.95 84.409,40.95 84.189,39.77 83.999,39.2 83.729,38.39 83.479,37.54 82.959,36.86 82.479,36.23 81.849,35.68 81.129,35.35 80.309,34.97 79.359,34.81 78.469,34.89 77.399,34.99 76.389,35.47 75.459,36 74.539,36.53 73.709,37.23 72.989,38.02 72.469,38.58 72.069,39.26 71.679,39.92 71.289,40.58 70.639,41.99 70.639,41.99 70.639,41.99 68.919,40.27 67.819,39.85 66.249,39.25 64.439,39.12 62.789,39.44 61.269,39.74 59.749,40.44 58.639,41.52 56.339,43.77 54.869,47 54.149,50.05 Z"
     style="fill:#ff0000;fill-opacity:1;stroke:#ff0008;stroke-width:0.15622;stroke-miterlimit:4;stroke-dasharray:none;stroke-opacity:1"
     id="1966-tv-sigil"
     inkscape:connector-curvature="0" />
  <path
     d="M 54.399,0.2149 C 31.398,0.2149 12.748,13.735 12.758,30.415 12.748,47.095 31.398,60.615 54.399,60.615 77.409,60.625 96.059,47.095 96.049,30.415 96.059,13.735 77.409,0.2049 54.399,0.2149 Z M 54.399,3.9749 C 75.179,3.9849 92.349,15.815 92.339,30.415 92.339,45.005 75.169,56.835 54.399,56.845 33.618,56.845 16.618,45.015 16.608,30.415 16.608,15.815 33.618,3.9749 54.399,3.9749 Z M 54.459,50.705 C 54.459,50.705 52.659,42.595 50.089,39.545 48.769,37.975 46.849,35.995 44.839,36.355 43.719,36.555 43.159,37.985 42.699,39.025 42.189,40.205 42.099,42.825 42.099,42.825 42.099,42.825 40.388,39.675 39.288,38.255 38.328,37.015 37.228,35.865 36.018,34.865 35.298,34.265 34.578,33.605 33.688,33.325 32.468,32.955 30.948,32.565 29.868,33.235 28.848,33.865 28.568,35.305 28.358,36.485 28.108,37.845 28.338,39.295 28.698,40.625 29.118,42.145 29.968,43.515 30.768,44.865 31.428,45.975 33.018,48.035 33.018,48.035 30.458,46.665 24.848,42.505 22.658,38.295 20.828,34.775 19.978,30.365 20.948,26.515 22.098,21.995 25.628,18.175 29.278,15.285 33.658,11.815 39.088,9.6749 44.649,8.6349 44.649,8.6349 41.428,10.695 40.208,12.135 39.168,13.355 38.108,14.755 37.878,16.345 37.688,17.685 37.948,19.225 38.758,20.305 39.738,21.605 41.428,22.395 43.039,22.655 44.559,22.905 46.269,22.645 47.579,21.845 48.599,21.225 49.259,20.095 49.739,19.005 50.559,17.135 50.629,15.005 50.789,12.965 50.929,11.275 50.729,7.8649 50.729,7.8649 51.309,9.2849 51.899,10.975 52.479,12.395 52.479,12.395 53.799,12.365 54.459,12.375 55.149,12.385 56.529,12.435 56.529,12.435 56.989,10.955 57.609,9.3449 58.069,7.8649 58.069,7.8649 58.079,11.475 58.249,13.265 58.439,15.125 58.469,17.075 59.169,18.815 59.649,19.985 60.269,21.255 61.349,21.915 62.709,22.745 64.499,22.795 66.069,22.555 67.419,22.345 68.839,21.805 69.769,20.805 70.699,19.815 71.319,18.365 71.239,17.015 71.119,15.155 69.769,13.525 68.569,12.095 67.269,10.555 63.829,8.3549 63.829,8.3549 63.829,8.3549 74.689,11.135 78.969,14.505 83.059,17.735 86.949,22.145 88.049,27.235 88.949,31.375 87.719,36.035 85.599,39.695 83.429,43.455 75.779,48.235 75.779,48.235 75.779,48.235 77.649,45.805 78.419,44.485 79.029,43.465 79.629,42.405 79.969,41.265 80.419,39.805 80.819,38.245 80.619,36.735 80.469,35.525 80.249,33.985 79.199,33.345 77.969,32.595 76.259,33.215 74.889,33.675 73.699,34.075 72.649,34.885 71.729,35.745 70.789,36.595 70.119,37.695 69.379,38.725 68.489,39.965 66.859,42.555 66.859,42.555 66.859,42.555 66.819,39.725 66.159,38.525 65.619,37.555 64.789,36.365 63.679,36.305 61.579,36.175 59.799,38.265 58.519,39.925 56.159,42.965 54.459,50.705 54.459,50.705 Z"
     style="fill:#ff0000;fill-opacity:1;stroke:#ff0008;stroke-width:0.15622;stroke-miterlimit:4;stroke-dasharray:none;stroke-opacity:1"
     id="1970-comics-sigil"
     inkscape:connector-curvature="0" />
  <path
     d="M 54.404,0.15363 C 34.415,0.22812 18.199,13.837 18.21,30.543 18.199,47.259 34.415,60.751 54.404,60.676 74.397,60.612 90.613,47.003 90.602,30.287 90.613,13.582 74.397,0.07915 54.404,0.15363 Z M 54.404,2.2817 C 72.673,1.8029 88.847,15.21 88.56,30.394 89.017,45.62 72.705,58.793 54.404,58.538 36.181,58.687 19.795,45.301 20.104,30.521 19.752,15.55 35.745,1.7391 54.404,2.2817 Z M 54.372,48.621 C 54.372,48.621 52.255,44.609 50.403,43.481 49.371,42.854 47.956,42.354 46.849,42.832 45.966,43.215 45.519,44.333 45.285,45.28 44.998,46.429 45.87,48.333 45.594,48.823 45.594,48.823 43.944,47.45 43.029,46.897 42.263,46.418 41.455,45.961 40.597,45.673 39.756,45.397 38.863,45.216 37.979,45.226 37.235,45.226 36.426,45.258 35.777,45.631 35.202,45.961 34.702,46.503 34.479,47.131 34.351,47.482 34.457,47.876 34.521,48.248 34.585,48.685 34.702,49.131 34.894,49.536 35.096,49.993 35.692,50.802 35.692,50.802 31.063,48.344 27.584,44.897 25.105,40.694 23.221,37.502 22.232,33.639 22.274,29.926 22.317,26.287 23.434,22.562 25.285,19.423 27.435,15.806 31.478,12.167 34.255,10.517 34.255,10.517 34.287,11.496 34.425,11.965 34.638,12.688 34.989,13.369 35.436,13.976 35.99,14.72 36.703,15.327 37.447,15.88 38.086,16.359 38.799,16.742 39.522,17.072 40.427,17.476 41.369,17.806 42.338,18.008 43.487,18.253 44.359,18.338 45.86,18.338 46.115,16.944 46.445,15.753 46.998,14.561 47.679,13.114 49.637,10.571 49.637,10.571 49.743,11.688 49.541,13.273 49.648,14.391 49.648,14.391 52.808,14.199 54.383,14.21 55.957,14.22 59.086,14.444 59.086,14.444 59.192,13.305 59.022,11.805 59.128,10.666 59.128,10.666 61.139,13.263 61.81,14.742 62.32,15.88 62.533,17.019 62.799,18.349 64.108,18.253 65.151,18.285 66.3,18.062 67.183,17.891 68.045,17.583 68.885,17.242 69.62,16.944 70.354,16.614 71.014,16.168 71.695,15.71 72.333,15.167 72.865,14.55 73.365,13.965 73.812,13.316 74.099,12.603 74.376,11.922 74.567,10.454 74.567,10.454 76.727,11.837 80.856,15.38 82.941,18.689 84.931,21.839 86.495,25.52 86.591,29.245 86.697,33.703 85.229,38.31 82.856,42.077 80.505,45.812 76.951,48.716 72.993,50.919 72.993,50.919 73.408,50.206 73.578,49.823 73.759,49.408 73.972,48.993 74.046,48.546 74.131,48.035 74.184,47.493 73.993,47.014 73.759,46.439 73.291,45.929 72.748,45.631 72.046,45.237 71.173,45.216 70.375,45.226 69.577,45.237 68.79,45.439 68.045,45.705 67.183,46.003 66.374,46.439 65.608,46.94 64.619,47.589 62.863,49.217 62.863,49.217 62.863,49.217 63.438,46.642 63.193,45.375 63.012,44.46 62.746,43.279 61.895,42.886 60.597,42.29 58.905,43.077 57.713,43.875 56.106,44.96 54.372,48.621 54.372,48.621 Z"
     style="fill:#ff0000;fill-opacity:1;stroke:#ff0008;stroke-width:0.14578;stroke-miterlimit:4;stroke-dasharray:none;stroke-opacity:1"
     id="1986-novel-sigil-1"
     inkscape:connector-curvature="0" />
  <path
     d="M 54.409,0.1199 C 31.488,0.1999 12.898,13.78 12.918,30.47 12.788,47.73 32.598,61.66 55.699,60.66 78.839,59.93 95.969,46.73 95.889,30.21 95.909,13.53 77.319,0.0499 54.409,0.1199 Z M 54.519,3.9599 C 75.089,4.2199 92.379,15.63 92.299,30.31 91.949,45.02 75.629,56.6 55.889,57.04 34.988,57.19 16.208,45.31 16.568,30.56 16.388,15.93 33.508,3.9799 54.519,3.9599 Z M 54.349,48.4 C 53.259,47.14 47.749,42.7 43.759,41.16 42.008,40.49 39.988,39.86 38.198,40.4 37.658,40.56 37.078,40.97 36.938,41.51 36.748,42.26 37.718,43.67 37.718,43.67 37.228,43.92 36.538,42.73 35.898,42.32 35.358,41.98 34.778,41.71 34.208,41.41 33.698,41.15 33.228,40.76 32.668,40.63 31.998,40.47 31.098,40.14 30.618,40.62 30.028,41.21 30.438,42.32 30.648,43.13 30.888,44 31.488,44.74 31.978,45.51 32.438,46.22 32.958,46.89 33.498,47.56 33.818,47.96 34.508,48.72 34.508,48.72 32.118,47.92 27.098,44.79 24.668,41.54 22.118,38.12 20.118,33.74 20.388,29.49 20.678,24.94 23.418,20.59 26.558,17.29 29.828,13.85 35.958,11.14 38.928,10.26 38.928,10.26 37.478,11.68 36.808,12.44 36.268,13.06 35.758,13.69 35.298,14.37 34.908,14.95 34.538,15.79 34.178,16.63 35.318,16.88 37.048,17.29 38.358,17.51 40.178,17.82 42.019,18.06 43.859,18.25 45.399,18.41 46.999,18.59 48.559,18.59 48.559,17.78 48.949,16.13 49.409,15.03 50.019,13.56 50.819,12.2 51.829,10.9 51.779,12.22 51.539,13.65 51.929,14.97 51.929,14.97 53.459,13.84 54.349,13.83 55.299,13.82 56.949,15.02 56.949,15.02 57.079,13.64 57.069,12.19 56.889,10.81 57.579,11.81 58.859,13.82 59.499,15.49 59.869,16.45 60.029,17.66 60.029,18.8 61.259,18.66 63.279,18.5 64.859,18.32 66.579,18.13 68.309,18 70.019,17.71 71.509,17.46 73.129,17.06 74.609,16.7 74.609,16.7 73.969,15.24 73.549,14.57 73.069,13.81 72.499,13.12 71.909,12.44 71.249,11.67 69.789,10.26 69.789,10.26 74.709,11.78 79.579,14.37 83.039,18.18 85.829,21.25 88.129,25.28 88.379,29.42 88.619,33.51 86.849,37.75 84.449,41.07 81.769,44.78 73.489,49.35 73.489,49.35 73.489,49.35 74.639,48.19 75.159,47.57 75.729,46.91 76.279,46.24 76.749,45.51 77.199,44.81 77.659,44.1 77.889,43.3 78.119,42.52 78.579,41.54 78.109,40.87 77.839,40.48 77.219,40.48 76.749,40.5 75.909,40.54 75.129,41 74.389,41.39 73.829,41.69 73.329,42.11 72.829,42.5 72.149,43.03 70.879,44.17 70.879,44.17 70.879,44.17 71.509,42.93 71.579,42.25 71.629,41.71 71.739,40.97 71.309,40.63 69.859,39.49 67.549,40.46 65.799,41.05 61.499,42.49 55.539,47.11 54.349,48.4 Z"
     style="fill:#ff0000;fill-opacity:1;stroke:#ff0008;stroke-width:0.15596;stroke-miterlimit:4;stroke-dasharray:none;stroke-opacity:1"
     id="1987-comics-sigil"
     inkscape:connector-curvature="0" />
  <path
     d="M 54.409,0.2999 C 26.198,0.3799 3.328,13.88 3.358,30.47 3.198,47.62 27.558,61.47 55.989,60.48 84.469,59.75 105.55,46.63 105.45,30.21 105.48,13.63 82.599,0.2299 54.409,0.2999 Z M 54.539,3.8799 C 79.859,4.1399 101.86,15.84 101.76,30.43 101.33,45.05 80.519,56.44 56.239,56.88 30.518,57.03 6.918,45.22 7.348,30.56 7.138,16.02 28.698,3.8999 54.539,3.8799 Z M 54.509,49.52 C 54.509,49.52 51.929,44.38 49.839,42.49 48.309,41.11 46.419,39.7 44.359,39.61 43.109,39.55 41.858,40.26 40.888,41.06 40.308,41.55 39.638,42.99 39.638,42.99 39.638,42.99 37.658,41.29 36.528,40.67 35.658,40.18 34.708,39.8 33.738,39.59 32.808,39.39 31.818,39.27 30.878,39.43 29.838,39.6 28.738,39.92 27.948,40.62 27.388,41.12 27.028,41.86 26.858,42.59 26.678,43.31 26.778,44.08 26.928,44.8 27.098,45.63 27.438,46.44 27.848,47.18 28.258,47.89 29.348,49.13 29.348,49.13 24.038,47.16 18.248,44.28 14.628,39.72 12.378,36.88 10.598,33.08 11.018,29.48 11.528,24.98 14.888,20.99 18.308,18.02 23.208,13.78 33.658,10.7 36.038,10.03 36.038,10.03 33.578,12.16 33.128,13.64 32.818,14.63 33.018,15.77 33.378,16.74 33.818,17.95 34.638,19.05 35.628,19.88 36.758,20.83 38.198,21.41 39.628,21.79 41.188,22.2 42.919,22.58 44.469,22.12 45.699,21.75 47.439,21.03 47.539,19.81 47.539,19.81 48.219,14.95 48.589,12.53 48.799,11.14 49.259,8.3799 49.259,8.3799 50.269,9.7899 51.429,11.2 52.079,12.61 52.079,12.61 53.699,12.59 54.509,12.59 55.289,12.59 56.849,12.61 56.849,12.61 57.769,11.23 58.679,9.8399 59.599,8.4599 59.599,8.4599 60.039,11.42 60.289,12.9 60.689,15.36 61.569,20.28 61.569,20.28 61.649,21.04 63.079,21.68 64.039,21.97 65.589,22.43 67.299,22.22 68.879,21.86 70.459,21.51 72.079,20.92 73.319,19.88 74.409,18.97 75.369,17.74 75.719,16.37 75.969,15.41 75.819,14.34 75.449,13.42 74.919,12.07 72.789,9.9799 72.789,9.9799 75.659,10.56 86.669,14.23 91.819,18.99 94.829,21.76 97.589,25.55 97.939,29.63 98.239,33.23 96.429,36.97 94.169,39.79 90.599,44.23 83.879,47.34 79.759,49.01 79.759,49.01 80.439,48.2 80.719,47.76 81.169,47.08 81.679,46.4 81.879,45.61 82.119,44.66 82.109,43.62 81.879,42.67 81.679,41.87 81.359,41.01 80.729,40.47 79.939,39.8 78.819,39.6 77.789,39.5 76.639,39.4 75.479,39.66 74.369,39.96 73.459,40.2 72.569,40.54 71.769,41.03 70.939,41.54 69.529,42.91 69.529,42.91 69.529,42.91 68.519,41.14 67.679,40.63 66.459,39.89 64.889,39.48 63.489,39.76 61.639,40.13 60.139,41.59 58.819,42.94 56.979,44.81 54.509,49.52 54.509,49.52 Z"
     style="fill:#ff0000;fill-opacity:1;stroke:#ff0008;stroke-width:0.17248;stroke-miterlimit:4;stroke-dasharray:none;stroke-opacity:1"
     id="1989-movie-logo"
     inkscape:connector-curvature="0" />
  <path
     d="M 54.404,0.2399 C 29.338,0.3199 8.998,13.82 9.028,30.41 8.888,47.56 30.428,61.53 55.694,60.54 81.024,59.81 99.874,46.57 99.784,30.15 99.814,13.57 79.474,0.1699 54.404,0.2399 Z M 54.534,3.8199 C 77.034,4.0799 96.114,15.78 96.014,30.37 95.644,44.99 77.624,56.38 56.034,56.82 33.178,56.97 12.678,45.28 13.068,30.62 12.878,16.08 31.558,3.8399 54.534,3.8199 Z M 54.414,51.8 C 54.414,51.8 54.314,48.4 53.514,46.9 53.014,45.8 52.214,44.8 51.214,44.1 50.414,43.7 49.414,43.5 48.514,43.5 47.414,43.5 45.514,44.3 45.514,44.3 45.514,44.3 46.714,42.1 46.614,40.9 46.314,39.1 45.214,37.2 43.714,36.2 41.818,35 39.118,34.7 37.018,35.3 35.218,35.8 33.418,37.3 32.618,38.8 32.618,38.8 32.018,35.9 31.018,35 29.618,33.9 27.588,33.17 25.918,33.7 24.288,34.22 22.758,35.9 22.578,37.6 22.248,40.81 27.218,46.1 27.218,46.1 23.418,44.1 19.218,39.7 17.518,35.1 16.318,31.9 16.418,28 17.618,24.8 18.718,21.6 20.518,20.1 24.018,16.9 28.218,13.1 36.718,10.1 40.018,9.3999 38.118,10.6 36.318,11.8 35.518,13.6 34.718,15 34.418,16.9 34.918,18.4 35.418,19.8 36.818,20.6 38.018,21.3 39.118,22 40.518,22.4 41.818,22.5 43.114,22.7 44.514,22.7 45.614,22.1 47.114,21.4 48.714,20 48.914,18.4 48.914,18.4 49.274,14.87 49.414,13.1 49.584,10.94 49.814,6.5999 49.814,6.5999 50.314,8.4999 50.814,10.4 51.314,12.3 51.314,12.3 53.314,11.4 54.414,11.4 55.514,11.4 57.514,12.3 57.514,12.3 58.044,10.4 58.584,8.4999 59.114,6.5999 59.114,6.5999 59.344,11.07 59.514,13.3 59.624,14.8 59.914,17.8 59.914,17.8 60.014,19.5 61.014,20.5 62.114,21.3 63.114,22.1 64.414,22.5 65.614,22.6 67.314,22.7 68.914,22.2 70.414,21.5 71.614,20.9 73.014,20.2 73.614,19 74.314,17.6 74.414,15.8 73.814,14.4 73.014,12.2 71.714,10.6 69.014,9.2999 74.514,10.7 82.114,14.1 87.014,18.7 89.314,20.9 91.014,23.9 91.814,27 92.514,29.9 92.514,33.2 91.314,36 89.414,40.3 85.014,44 81.714,46.1 81.714,46.1 86.414,41.2 86.414,38.1 86.414,36.5 85.314,34.7 83.914,34 82.414,33.2 80.214,33.4 78.814,34.3 77.314,35.2 76.314,37.7 76.314,38.9 75.514,37.7 73.614,35.9 71.814,35.4 69.914,34.8 67.614,34.9 65.814,35.8 64.314,36.5 63.014,38.1 62.614,39.7 62.214,41 62.414,43.1 63.714,44.5 63.714,44.5 61.414,43.5 60.214,43.5 59.214,43.5 58.114,43.8 57.314,44.4 56.414,45 55.814,46.1 55.414,47.1 54.714,48.5 54.414,51.8 54.414,51.8 Z"
     style="fill:#ff0000;fill-opacity:1;stroke:#ff0008;stroke-width:0.16263;stroke-miterlimit:4;stroke-dasharray:none;stroke-opacity:1"
     id="1989-movie-sigil"
     inkscape:connector-curvature="0" />
  <path
     d="M 54.411,0.2399 C 31.408,0.3199 12.758,13.82 12.788,30.41 12.658,47.56 32.408,61.53 55.591,60.54 78.821,59.81 96.111,46.57 96.021,30.15 96.051,13.57 77.391,0.1699 54.411,0.2399 Z M 54.531,3.8199 C 75.161,4.0799 92.301,15.9 92.201,30.49 91.871,45.11 75.701,56.38 55.901,56.82 34.938,56.97 16.378,45.16 16.738,30.5 16.558,15.96 33.448,3.8399 54.531,3.8199 Z M 54.521,53.27 C 53.871,48.67 52.721,43.36 49.628,39.65 48.244,38 46.155,36.09 44.02,36.41 42.831,36.59 42.1,37.98 41.558,39.05 41.068,40.05 40.968,42.34 40.968,42.34 40.968,42.34 40.058,39.35 39.398,37.94 38.888,36.87 38.388,35.76 37.588,34.89 36.868,34.09 35.968,33.43 34.988,32.98 33.948,32.51 32.758,31.99 31.638,32.21 30.328,32.47 29.078,33.39 28.388,34.52 27.678,35.68 27.808,37.21 27.798,38.57 27.778,39.77 27.998,40.98 28.248,42.15 28.468,43.2 29.168,45.23 29.168,45.23 26.718,43.51 22.848,39.58 21.488,35.76 20.268,32.35 20.208,28.32 21.428,24.91 22.988,20.54 26.578,16.96 30.308,14.18 33.878,11.51 39.548,9.6399 42.621,8.9399 42.621,8.9399 39.748,11.77 38.858,13.53 38.208,14.81 37.598,16.28 37.798,17.69 37.978,18.94 38.758,20.13 39.718,20.95 40.718,21.82 42.068,22.37 43.388,22.47 44.552,22.56 45.77,22.22 46.796,21.66 47.791,21.12 48.701,20.3 49.253,19.31 50.361,17.32 50.201,14.86 50.671,12.63 50.951,11.28 51.501,8.5899 51.501,8.5899 51.761,9.9099 52.021,11.24 52.281,12.56 52.281,12.56 53.651,12.51 54.331,12.51 55.101,12.51 56.631,12.56 56.631,12.56 56.941,11.26 57.251,9.9499 57.561,8.6499 57.561,8.6499 57.971,11.31 58.231,12.63 58.661,14.79 58.641,17.15 59.721,19.07 60.381,20.25 61.391,21.32 62.611,21.91 63.661,22.42 64.931,22.5 66.091,22.35 67.221,22.21 68.421,21.84 69.261,21.08 70.151,20.27 70.681,19.06 70.931,17.89 71.181,16.69 71.141,15.36 70.681,14.23 69.801,12.04 66.131,8.7999 66.131,8.7999 69.811,9.5299 76.601,12.17 80.731,15.6 83.881,18.21 86.671,21.68 87.861,25.59 88.861,28.88 88.761,32.68 87.551,35.89 86.111,39.7 82.781,43.18 79.781,45.3 79.781,45.3 80.511,43.17 80.731,42.07 80.961,40.95 81.111,39.82 81.121,38.69 81.131,37.52 81.221,36.28 80.771,35.21 80.281,34.06 79.511,32.78 78.341,32.33 76.961,31.79 75.281,32.32 73.921,32.92 72.911,33.37 72.091,34.21 71.371,35.05 70.431,36.14 69.731,37.43 69.131,38.74 68.651,39.8 68.061,42.08 68.061,42.08 68.061,42.08 68.091,39.99 67.601,39.12 66.941,37.95 65.841,36.61 64.501,36.55 62.441,36.47 60.681,38.46 59.421,40.09 56.551,43.79 55.041,48.67 54.521,53.27 Z"
     style="fill:#ff0000;fill-opacity:1;stroke:#ff0008;stroke-width:0.15573;stroke-miterlimit:4;stroke-dasharray:none;stroke-opacity:1"
     id="1992-movie-sigil"
     inkscape:connector-curvature="0" />
  <path
     d="M 54.598,0.2599 C 31.318,0.0559 12.178,13.31 12.858,30.551 12.698,47.642 32.338,61.033 55.778,60.56 79.008,59.83 96.058,46.59 95.968,30.17 95.998,13.59 77.578,0.1899 54.598,0.2599 Z M 54.718,3.8399 C 75.348,4.0999 92.248,15.92 92.148,30.51 91.818,45.13 75.888,56.4 56.088,56.84 35.118,56.99 16.328,45.18 16.678,30.52 16.508,15.98 33.638,3.8599 54.718,3.8399 Z M 54.398,48.655 C 54.398,48.655 53.498,42.11 51.538,39.643 50.608,38.478 49.128,36.959 47.698,37.369 46.758,37.636 46.498,38.997 46.348,39.958 46.148,41.287 47.038,43.934 47.038,43.934 47.038,43.934 44.678,41.204 43.368,39.963 42.418,39.069 41.468,38.165 40.368,37.472 39.308,36.806 38.208,36.002 36.968,35.904 35.598,35.796 33.838,35.93 32.998,37.021 32.028,38.289 32.498,40.281 32.958,41.81 33.298,42.942 34.218,43.812 34.938,44.751 35.878,45.973 36.898,47.13 37.958,48.243 38.918,49.244 40.978,51.101 40.978,51.101 37.928,50.666 29.298,46.767 25.428,42.218 22.398,38.655 20.138,33.735 20.528,29.076 20.958,23.958 24.408,19.147 28.258,15.748 32.928,11.626 41.088,9.2419 45.458,8.4509 45.458,8.4509 41.578,10.213 40.098,11.687 38.718,13.063 37.388,14.761 37.068,16.683 36.878,17.864 37.098,19.253 37.848,20.188 38.958,21.583 40.958,22.049 42.688,22.48 44.548,22.943 47.048,23.069 48.438,22.741 49.218,22.558 49.858,22.385 50.098,20.997 50.238,20.206 50.918,15.202 51.168,12.287 51.268,11.086 51.338,8.6739 51.338,8.6739 51.768,9.7259 52.188,10.779 52.618,11.831 52.618,11.831 53.798,11.914 54.388,11.928 54.988,11.942 56.178,11.914 56.178,11.914 56.608,10.834 57.028,9.7539 57.458,8.6739 57.458,8.6739 57.438,11.086 57.538,12.287 57.778,15.21 58.678,20.221 58.778,20.998 58.958,22.385 59.618,22.466 60.358,22.74 61.088,23.013 64.188,22.935 66.018,22.479 67.698,22.063 69.558,21.563 70.708,20.269 71.498,19.382 71.948,18.072 71.828,16.894 71.608,14.936 70.178,13.224 68.798,11.819 67.228,10.219 63.088,8.2699 63.088,8.2699 68.078,8.9559 76.448,11.938 81.378,16.442 84.848,19.612 87.828,24.065 88.268,28.745 88.688,33.172 86.808,37.924 84.028,41.392 80.098,46.29 72.438,50.083 67.888,51.107 67.888,51.107 69.968,49.166 70.958,48.144 71.998,47.066 73.108,46.031 73.978,44.805 74.878,43.534 75.938,42.229 76.198,40.695 76.408,39.411 76.438,37.812 75.578,36.84 74.768,35.936 73.288,35.753 72.078,35.853 70.608,35.974 69.318,36.925 68.088,37.736 66.918,38.507 65.938,39.532 64.948,40.523 63.848,41.626 61.858,44.027 61.858,44.027 61.858,44.027 62.908,40.562 62.298,38.99 62.028,38.296 61.398,37.523 60.658,37.473 59.098,37.368 57.718,38.895 56.818,40.171 55.108,42.567 54.398,48.655 54.398,48.655 Z"
     style="fill:#ff0000;fill-opacity:1;stroke:#ff0008;stroke-width:0.15573;stroke-miterlimit:4;stroke-dasharray:none;stroke-opacity:1"
     id="1995-movie-sigil"
     inkscape:connector-curvature="0" />
  <path
     d="M 54.61,0.46726 C 29.807,0.4204 9.9033,13.946 9.5909,30.549 10.941,48.132 30.678,60.851 55.882,60.349 80.673,59.501 98.859,46.258 99.216,30.17 99.25,14.57 79.39,0.95371 54.61,0.46726 Z M 54.733,4.293 C 76.98,4.5507 95.479,16.017 95.367,30.504 95.01,45.031 77.572,56.221 56.217,56.656 33.802,56.89 13.362,45.711 13.574,30.515 13.395,16.077 32.005,4.312 54.733,4.293 Z M 54.477,47.864 C 54.477,47.864 53.339,42.453 51.777,40.278 50.46,38.392 48.708,35.882 46.41,35.927 45.32,35.949 44.477,37.131 43.95,38.08 43.121,39.575 43.13,43.145 43.13,43.145 43.13,43.145 41.869,40.188 40.671,39.229 39.704,38.437 38.387,37.689 37.16,37.935 36.122,38.158 35.252,39.117 34.817,40.077 34.259,41.338 34.772,44.194 34.772,44.194 34.772,44.194 33.021,42.922 31.994,42.721 30.957,42.543 29.819,42.632 28.859,43.078 27.866,43.536 26.985,44.372 26.46,45.332 25.958,46.269 25.891,48.456 25.891,48.456 25.891,48.456 23.269,43.379 22.466,40.646 21.574,37.634 20.982,34.476 20.971,31.33 20.971,27.659 21.585,23.933 22.7,20.413 23.66,17.405 26.918,11.943 26.918,11.943 26.918,11.943 28.948,13.734 29.997,14.584 31.001,15.39 32.016,16.184 33.076,16.909 34.259,17.723 35.475,18.508 36.747,19.172 37.963,19.805 39.246,20.309 40.518,20.798 41.693,21.233 42.879,21.646 44.085,21.969 45.405,22.315 48.094,22.795 48.094,22.795 48.094,22.795 49.456,17.782 50.215,15.304 50.348,14.858 50.639,13.973 50.639,13.973 50.817,14.401 50.984,14.831 51.152,15.259 51.152,15.259 53.361,15.327 54.477,15.326 55.503,15.326 57.567,15.259 57.567,15.259 57.723,14.793 57.868,14.324 58.025,13.858 58.025,13.858 58.348,14.817 58.504,15.304 59.252,17.775 60.557,22.772 60.557,22.772 60.557,22.772 62.487,22.46 63.436,22.248 64.629,21.98 65.823,21.713 66.984,21.311 68.311,20.876 69.572,20.275 70.822,19.683 72.172,19.055 73.533,18.427 74.771,17.65 75.909,16.956 76.969,16.127 78.029,15.324 79.368,14.308 81.967,12.169 81.967,12.169 81.967,12.169 85.314,17.738 86.296,20.809 87.278,23.91 87.635,27.191 87.736,30.426 87.825,33.327 87.635,36.295 86.932,39.117 86.118,42.331 83.038,48.311 83.038,48.311 83.038,48.311 82.782,46.146 82.257,45.22 81.711,44.305 80.93,43.446 79.959,43.022 78.955,42.565 77.739,42.543 76.657,42.799 75.719,43.011 74.146,44.261 74.146,44.261 74.146,44.261 74.481,41.628 74.057,40.423 73.745,39.519 73.243,38.459 72.35,38.113 71.19,37.656 69.739,38.158 68.713,38.816 67.285,39.753 65.756,43.045 65.756,43.045 65.756,43.045 65.767,38.917 64.596,37.399 63.949,36.585 62.811,35.893 61.784,36.049 59.743,36.339 58.303,38.481 57.165,40.211 55.67,42.453 54.477,47.864 54.477,47.864 Z"
     style="fill:#ff0000;fill-opacity:1;stroke:#ff0008;stroke-width:0.16117;stroke-miterlimit:4;stroke-dasharray:none;stroke-opacity:1"
     id="2004-cartoon-sigil"
     inkscape:connector-curvature="0" />
  <path
     d="M 54.654,3.1819 C 24.644,3.1463 0.54994,15.437 0.18218,30.538 1.8074,46.518 25.7,58.097 56.193,57.634 86.191,56.863 108.2,44.822 108.63,30.183 108.67,16.006 84.638,3.6327 54.654,3.1819 Z M 54.801,7.1799 C 81.723,7.4053 105,17.323 104.87,30.491 104.43,43.707 81.8,53.102 55.96,53.506 28.832,53.719 3.836,44.454 4.1089,30.633 3.8835,17.513 27.301,7.2036 54.801,7.1799 Z M 54.507,47.171 C 54.19,46.684 50.145,41.097 47.126,39.021 44.645,37.3 41.611,34.94 38.702,35.735 38.038,35.912 37.61,36.695 37.421,37.36 37.172,38.285 37.824,40.231 37.824,40.231 37.824,40.231 36.021,38.404 34.977,37.68 33.897,36.933 32.687,36.363 31.477,35.841 30.564,35.438 29.638,34.975 28.642,34.845 27.657,34.714 26.376,34.358 25.688,35.058 25.036,35.735 25.332,36.956 25.534,37.882 25.759,38.89 26.435,39.768 26.993,40.634 27.574,41.524 28.239,42.354 28.95,43.149 29.591,43.861 31.015,45.154 31.015,45.154 28.001,44.407 19.65,41.619 15.664,37.514 13.706,35.485 11.867,32.638 12.128,29.827 12.472,26.197 15.557,23.1 18.475,20.929 24.3,16.576 34.657,14.582 39.105,13.835 39.105,13.835 37.089,15.057 36.389,15.97 35.962,16.528 35.653,17.216 35.57,17.916 35.499,18.414 35.57,18.96 35.795,19.411 36.056,19.933 36.519,20.36 37.029,20.645 37.563,20.965 38.204,21.036 38.809,21.143 40.346,21.404 43.47,21.487 43.47,21.487 43.47,21.487 43.935,20.846 44.165,20.526 45.962,18.023 49.523,13.005 49.523,13.005 49.602,16.006 49.679,19.019 49.757,22.021 49.757,22.021 52.922,21.926 54.506,21.914 56.13,21.914 59.379,21.997 59.379,21.997 59.42,18.996 59.46,16.006 59.5,13.005 59.5,13.005 62.93,17.928 64.707,20.336 65.024,20.763 65.678,21.605 65.678,21.605 65.678,21.605 67.628,21.428 68.597,21.285 69.512,21.155 70.439,21.06 71.326,20.799 71.749,20.68 72.225,20.597 72.55,20.289 73.07,19.814 73.473,19.114 73.516,18.402 73.567,17.56 73.126,16.718 72.64,16.018 71.991,15.093 70.047,13.835 70.047,13.835 73.488,14.488 84.304,16.67 90.154,20.645 92.905,22.519 95.683,25.07 96.604,28.273 97.212,30.384 96.898,32.982 95.672,34.797 91.955,40.337 82.819,43.778 78.409,44.917 78.409,44.917 79.915,43.327 80.636,42.508 81.268,41.785 81.978,41.12 82.477,40.302 82.959,39.519 83.419,38.665 83.562,37.763 83.698,36.909 83.952,35.782 83.331,35.177 82.459,34.335 80.89,34.75 79.693,34.963 78.489,35.177 77.414,35.865 76.327,36.423 75.249,36.98 74.148,37.538 73.212,38.309 72.534,38.866 71.447,40.266 71.447,40.266 71.447,40.266 71.939,38.368 71.651,37.49 71.405,36.731 70.881,35.865 70.11,35.675 67.368,34.999 64.594,37.277 62.27,38.878 59.152,41.026 54.814,46.72 54.507,47.171 Z"
     style="fill:#ff0000;fill-opacity:1;stroke:#ff0008;stroke-width:0.16906;stroke-miterlimit:4;stroke-dasharray:none;stroke-opacity:1"
     id="2008-tv-sigil"
     inkscape:connector-curvature="0" />
  <path
     d="M 54.097,4.527 C 41.015,4.502 30.505,15.112 30.342,28.132 31.054,41.925 41.377,52.099 54.671,51.712 67.753,51.038 77.452,40.465 77.639,27.832 77.652,15.599 67.179,4.9265 54.097,4.527 Z M 54.072,6.6866 C 65.806,6.8988 75.667,16.748 75.605,28.094 75.417,39.504 66.218,49.04 54.946,49.377 43.112,49.565 32.34,40.028 32.44,28.107 32.352,16.785 42.076,6.7116 54.072,6.6866 Z M 54.122,60.524 C 54.122,60.524 51.226,50.651 49.778,45.707 48.729,42.137 46.607,35.022 46.607,35.022 45.446,34.099 42.064,34.997 39.942,35.684 38.207,36.233 36.197,37.544 35.186,38.393 34.399,37.606 33.6,36.807 32.814,36.021 31.703,34.91 30.043,34.535 28.607,33.924 27.609,33.499 26.598,33.063 25.537,32.813 24.413,32.538 23.265,32.426 22.104,32.376 21.055,32.339 20.007,32.413 18.958,32.526 17.747,32.651 16.549,32.825 15.363,33.125 14.39,33.375 13.403,33.674 12.492,34.136 11.856,34.448 10.707,35.334 10.707,35.334 10.707,35.334 11.806,31.278 12.617,29.355 13.678,26.859 14.914,24.425 16.462,22.19 17.885,20.13 19.57,18.246 21.405,16.535 23.427,14.651 28.008,11.542 28.008,11.542 28.008,11.542 29.481,12.653 30.268,13.14 31.291,13.777 32.315,14.426 33.426,14.888 34.424,15.3 35.473,15.599 36.534,15.787 37.557,15.974 38.606,16.011 39.642,16.011 40.578,16.011 41.514,15.924 42.451,15.811 43.487,15.687 45.546,15.275 45.546,15.275 45.546,15.275 45.671,13.727 45.771,12.953 46.345,8.6589 47.943,0.14559 47.943,0.14559 48.742,4.3647 49.541,8.5715 50.34,12.791 50.34,12.791 52.861,12.828 54.122,12.828 55.383,12.828 57.917,12.791 57.917,12.791 58.716,8.5715 59.514,4.3522 60.313,0.1331 60.313,0.1331 61.524,8.584 62.248,12.791 62.373,13.515 62.66,14.963 62.66,14.963 62.66,14.963 64.533,15.487 65.481,15.649 66.417,15.811 67.354,15.911 68.302,15.924 69.363,15.936 70.437,15.874 71.485,15.712 72.684,15.537 73.882,15.287 75.018,14.888 75.967,14.551 76.89,14.101 77.752,13.565 78.638,13.015 80.211,11.63 80.211,11.63 80.211,11.63 85.104,14.788 87.201,16.785 88.986,18.495 90.521,20.468 91.895,22.527 93.33,24.674 94.491,27.008 95.564,29.355 96.538,31.49 98.086,35.934 98.086,35.934 98.086,35.934 96.114,34.461 95.003,33.961 94.042,33.537 92.993,33.35 91.969,33.125 90.846,32.875 89.71,32.638 88.562,32.526 87.313,32.401 86.053,32.339 84.804,32.463 83.756,32.576 82.72,32.863 81.709,33.15 80.598,33.462 79.499,33.811 78.451,34.298 77.215,34.885 76.079,35.671 74.943,36.445 74.207,36.945 72.821,38.043 72.821,38.043 72.821,38.043 69.338,35.909 67.391,35.422 65.394,34.922 62.261,34.223 61.237,35.185 61.237,35.185 59.465,42.1 58.503,45.545 57.105,50.563 54.122,60.524 54.122,60.524 Z"
     style="fill:#ff0000;fill-opacity:1;stroke:#ff0008;stroke-width:0.10371;stroke-miterlimit:4;stroke-dasharray:none;stroke-opacity:1"
     id="2010-comics-sigil"
     inkscape:connector-curvature="0" />
  <path
     d="M 52.625,5.7619 C 37.928,7.2319 26.698,15.962 27.468,25.412 29.218,35.322 41.688,41.452 56.615,39.642 71.265,37.682 81.285,28.992 80.575,19.842 79.725,10.972 67.355,4.5819 52.625,5.7619 Z M 52.745,6.3519 C 66.615,5.0119 79.825,11.612 80.575,19.842 81.155,28.182 70.215,37.782 56.635,39.072 43.075,41.092 28.128,34.212 27.468,25.412 26.538,17.222 37.728,8.0319 52.745,6.3519 Z M 54.015,60.902 C 54.015,60.902 51.405,49.032 49.855,43.152 48.985,39.862 46.985,33.352 46.985,33.352 46.985,33.352 45.635,35.592 44.945,36.702 44.225,37.862 42.765,40.182 42.765,40.182 42.765,40.182 41.468,35.962 40.828,33.852 40.248,31.932 39.118,28.072 39.118,28.072 39.118,28.072 34.908,35.002 33.148,38.652 31.378,42.322 28.528,49.972 28.528,49.972 28.528,49.972 28.138,39.262 27.898,33.912 27.708,29.632 27.258,21.072 27.258,21.072 25.388,21.312 21.998,22.392 19.868,23.962 16.118,26.732 13.558,30.502 11.158,34.892 11.158,34.892 13.608,27.892 14.778,24.372 15.618,21.862 16.438,19.122 17.208,16.812 22.188,13.022 22.468,12.742 25.078,10.682 29.608,7.1319 38.598,-0.0381 38.598,-0.0381 38.598,-0.0381 39.398,2.6919 39.828,4.0519 40.108,4.9419 40.418,5.8219 40.708,6.7019 40.898,7.3019 41.288,8.4919 41.288,8.4919 41.288,8.4919 41.868,9.7519 42.255,10.322 42.775,11.082 43.325,11.832 44.045,12.402 44.585,12.832 45.885,13.362 45.885,13.362 45.885,13.362 46.995,11.272 47.575,10.232 48.605,8.3819 50.745,4.7219 50.745,4.7219 50.865,6.1919 51.835,12.772 52.215,13.782 52.215,13.782 53.105,13.662 53.545,13.622 54.045,13.582 55.045,13.532 55.045,13.532 55.475,12.622 56.665,6.4319 57.045,4.9419 57.045,4.9419 58.805,8.3419 59.705,10.032 60.205,10.972 61.235,12.832 61.235,12.832 61.235,12.832 62.015,12.982 62.555,12.862 63.605,12.312 64.835,11.542 65.855,10.722 66.585,10.132 67.295,9.4919 67.845,8.7319 68.255,8.1719 68.535,7.5219 68.785,6.8819 69.245,5.7519 69.535,4.5619 69.845,3.3919 70.095,2.4719 70.495,0.6119 70.495,0.6119 77.865,7.3919 82.255,10.692 90.435,14.872 93.765,19.272 96.515,24.402 97.095,26.192 97.135,26.762 97.305,27.982 97.605,28.932 97.755,30.572 97.495,33.862 97.495,33.862 97.495,33.862 94.705,26.442 92.485,23.212 90.315,20.052 88.165,17.982 81.835,18.412 81.835,18.412 84.455,24.252 85.035,27.372 85.465,29.712 85.205,34.522 85.205,34.522 85.205,34.522 82.765,30.022 81.005,28.212 79.055,26.212 74.145,23.382 74.145,23.382 74.145,23.382 72.435,26.912 71.575,28.682 70.595,30.712 68.625,34.772 68.625,34.772 68.625,34.772 66.495,32.282 65.455,31.022 64.575,29.982 62.865,27.862 62.865,27.862 62.865,27.862 59.255,36.062 58.015,40.352 56.075,47.052 54.005,60.902 54.015,60.902 Z"
     style="fill:#ff0000;fill-opacity:1;stroke:#ff0008;stroke-width:0.09401;stroke-miterlimit:4;stroke-dasharray:none;stroke-opacity:1"
     id="2009-comics-sigil"
     inkscape:connector-curvature="0" />
</svg>
