<?xml version="1.0" encoding="UTF-8" standalone="no"?>
<svg
   xmlns:dc="http://purl.org/dc/elements/1.1/"
   xmlns:cc="http://creativecommons.org/ns#"
   xmlns:rdf="http://www.w3.org/1999/02/22-rdf-syntax-ns#"
   xmlns:svg="http://www.w3.org/2000/svg"
   xmlns="http://www.w3.org/2000/svg"
   xmlns:sodipodi="http://sodipodi.sourceforge.net/DTD/sodipodi-0.dtd"
   xmlns:inkscape="http://www.inkscape.org/namespaces/inkscape"
   id="svg989"
   viewBox="0 0 136.72 68.68"
   version="1.1"
   height="69.374mm"
   width="136.72mm"
   sodipodi:docname="anim-52points.svg"
   inkscape:version="0.92.2 5c3e80d, 2017-08-06">
  <sodipodi:namedview
     pagecolor="#ffffff"
     bordercolor="#666666"
     borderopacity="1"
     objecttolerance="10"
     gridtolerance="10"
     guidetolerance="10"
     inkscape:pageopacity="0"
     inkscape:pageshadow="2"
     inkscape:window-width="1680"
     inkscape:window-height="921"
     id="namedview4881"
     showgrid="false"
     inkscape:zoom="2.3028"
     inkscape:cx="258.38"
     inkscape:cy="130.24"
     inkscape:window-x="0"
     inkscape:window-y="1"
     inkscape:window-maximized="1"
     inkscape:current-layer="svg989" />
  <metadata
     id="metadata995">
    <rdf:RDF>
      <cc:Work
         rdf:about="">
        <dc:format>image/svg+xml</dc:format>
        <dc:type
           rdf:resource="http://purl.org/dc/dcmitype/StillImage" />
        <dc:title></dc:title>
      </cc:Work>
    </rdf:RDF>
  </metadata>
  <defs
     id="defs993" />
  <path
     style="fill:#ff0000;fill-opacity:1;stroke:#ff0000;stroke-width:0.13217;stroke-miterlimit:4;stroke-dasharray:none;stroke-opacity:1"
     d="M 67.523,63.27 C 67.523,63.27 64.827,55.685 62.593,52.381 60.003,48.562 57.161,44.359 52.985,42.403 50.249,41.121 46.945,41.425 43.945,41.756 41.064,42.073 35.62,44.28 35.62,44.28 35.62,44.28 34.708,38.055 33.188,35.386 32.289,33.787 31.074,32.122 29.382,31.421 27.743,30.734 25.801,31.21 24.043,31.514 22.034,31.871 19.854,32.875 18.255,33.509 18.255,33.509 17.898,29.664 17.052,27.972 15.876,25.646 14.092,23.492 11.885,22.078 10.22,21.008 8.1581,20.572 6.189,20.386 4.2596,20.201 0.40071,20.928 0.40071,20.928 0.40071,20.928 4.6032,17.691 6.863,16.29 10.603,13.964 14.501,11.876 18.519,10.052 20.673,9.0742 22.933,8.3341 25.166,7.5676 27.069,6.9069 30.941,5.7571 30.941,5.7571 30.941,5.7571 33.439,7.6998 34.761,8.5852 36.214,9.5631 37.734,10.475 39.267,11.334 40.721,12.153 42.201,12.946 43.734,13.62 45.544,14.413 47.408,15.087 49.284,15.695 50.883,16.224 52.522,16.673 54.161,17.069 55.575,17.413 58.429,17.942 58.429,17.942 58.905,17.704 62.659,14.664 62.818,12.722 61.919,11.255 61.47,9.5896 61.708,8.1887 61.708,8.1887 63.492,7.7394 64.351,7.9377 65.712,8.2416 67.946,10.052 67.946,10.052 67.946,10.052 69.69,8.5059 70.76,8.1755 71.844,7.8451 74.157,8.1359 74.157,8.1359 74.157,8.1359 74.857,11.162 72.901,12.801 73.073,13.607 76.879,17.823 77.342,17.942 77.342,17.942 79.945,17.453 81.227,17.149 82.601,16.832 83.963,16.488 85.311,16.092 86.632,15.695 87.954,15.259 89.236,14.757 91.218,13.99 93.174,13.171 95.063,12.219 96.848,11.321 98.566,10.29 100.26,9.2195 101.92,8.1623 105.09,5.8232 105.09,5.8232 105.09,5.8232 109.79,7.1447 112.08,7.9905 115.33,9.1799 118.51,10.541 121.62,12.061 123.6,13.039 125.54,14.136 127.42,15.299 130.47,17.202 136.33,21.417 136.33,21.417 136.33,21.417 132.43,20.149 130.42,20.254 128.07,20.373 125.63,21.034 123.68,22.342 121.63,23.717 120.04,25.831 118.95,28.051 118.1,29.756 117.67,33.602 117.67,33.602 117.67,33.602 114.78,32.175 113.24,31.818 111.22,31.355 109.03,30.8 107.05,31.368 105.77,31.738 104.62,32.65 103.84,33.734 101.66,36.774 100.43,42.469 100.46,44.438 100.46,44.438 95.447,42.231 92.777,41.848 89.579,41.399 86.064,40.989 83.117,42.284 78.928,44.121 76.073,48.258 73.364,51.958 70.853,55.381 67.523,63.27 67.523,63.27 Z"
     id="1949-movie-sigil"
     inkscape:connector-curvature="0"
     sodipodi:nodetypes="ccccccccccccccccccccccccccccccccccccccccccccccccccccc" />
  <path
     d="M 60.574,20.967 C 59.982,20.822 59.458,20.385 58.861,20.133 58.584,20.332 58.663,20.61 58.65,20.861 59.034,20.888 59.792,21.709 60.152,21.603 60.463,21.524 60.476,21.205 60.574,20.967 Z M 64.656,19.776 C 63.729,19.895 62.829,20.226 61.933,20.583 61.87,20.743 62.077,21.02 62.221,21.259 63.067,21.338 63.844,21.484 64.659,20.398 64.802,20.186 64.684,19.987 64.656,19.776 Z M 67.618,59.811 C 66.574,57.878 64.327,55.985 62.076,54.608 59.153,52.807 55.791,51.563 52.388,51.126 47.886,50.531 43.134,50.849 38.831,52.265 35.693,53.298 32.688,54.873 30.385,57.482 30.385,57.482 28.173,55.575 26.916,54.833 25.856,54.211 24.691,53.761 23.553,53.324 22.613,52.967 21.66,52.649 20.693,52.424 18.985,52.013 17.264,51.669 15.516,51.576 14.034,51.484 12.551,51.643 11.068,51.788 9.8236,51.907 8.579,52.066 7.3481,52.344 5.9579,52.662 4.5811,53.059 3.2439,53.575 2.2377,53.973 0.30482,55.006 0.30482,55.006 0.30482,55.006 5.1107,46.493 8.0233,42.586 10.962,38.655 14.166,34.895 17.767,31.585 21.672,27.984 26.002,24.847 30.53,22.066 33.853,20.027 41.016,16.876 41.016,16.876 42.26,18.267 45.914,19.776 48.642,20.464 51.818,21.259 57.882,21.232 58.491,20.967 58.636,21.405 54.427,22.675 52.52,23.735 50.971,24.595 47.913,26.249 48.032,27.057 48.403,27.124 52.07,24.662 54.281,23.893 55.791,23.377 58.967,22.967 58.967,22.967 58.001,19.048 57.074,13.633 59.113,11.355 59.087,10.676 59.061,9.9966 59.034,9.3168 59.651,9.4355 60.141,9.7664 60.762,9.8856 59.405,11.024 58.068,13.223 58.425,14.745 59.312,14.189 60.786,13.342 62.003,13.129 63.338,12.904 64.836,12.773 65.829,13.699 68.186,15.884 67.866,23.35 67.866,23.35 49.846,32.101 43.478,33.69 37.176,39.065 37.176,39.065 69.73,21.788 72.532,24.079 74.283,25.508 64.786,29.387 65.553,30.645 73.696,25.707 79.139,25.297 65.846,36.801 75.533,30.751 78.062,25.879 73.78,22.913 73.327,22.596 74.21,22.066 74.61,21.775 82.875,20.954 90.241,17.552 93.844,13.779 99.048,15.936 103.44,17.763 107.85,20.464 111.92,22.967 115.76,25.893 119.2,29.202 123.4,33.24 127.25,37.728 130.39,42.627 132.91,46.545 136.43,55.231 136.43,55.231 136.43,55.231 133.95,53.642 132.62,53.032 131.24,52.384 129.78,51.894 128.31,51.484 126.69,51.034 125.02,50.729 123.35,50.531 121.88,50.358 120.4,50.226 118.93,50.306 117.24,50.398 115.58,50.743 113.94,51.139 112.58,51.47 111.22,51.855 109.92,52.397 108.57,52.953 107.24,53.615 106.02,54.436 104.76,55.297 102.55,57.415 102.55,57.415 100.91,55.879 98.002,54.41 95.438,53.575 92.185,52.53 88.685,52.093 85.268,52.238 81.624,52.397 77.87,53.019 74.58,54.595 71.957,55.853 69.528,57.428 67.618,59.811 Z"
     style="fill:#ff0000;fill-opacity:1;stroke:#ff0008;stroke-width:0.02803;stroke-miterlimit:4;stroke-dasharray:none;stroke-opacity:1"
     id="1957-comics-title-shadow"
     inkscape:connector-curvature="0"
     sodipodi:nodetypes="cccccccccccccccccccccccccccccsccccccccccccccccccccccccccccccccc" />
  <path
     d="M 67.066,19.533 C 66.966,19.194 66.212,19.37 65.408,19.32 64.918,19.282 63.674,18.742 62.895,18.717 63.473,19.671 64.817,20.237 65.96,20.89 66.413,20.274 67.167,19.872 67.066,19.533 Z M 73.825,18.742 C 73.046,18.792 72.267,19.043 71.488,19.294 70.823,19.408 70.232,19.043 69.654,19.546 69.78,20.099 70.207,20.501 70.709,20.903 71.79,20.199 73.009,19.759 73.825,18.742 Z M 68.36,49.673 C 67.694,55.289 67.543,58.907 67.807,62.638 65.42,58.694 58.229,51.758 53.543,49.07 50.063,48.856 39.308,52.047 36.142,53.781 36.77,49.56 38.454,46.092 40.087,42.386 38.316,44.534 35.602,49.409 35.388,52.839 35.388,52.839 33.768,50.653 32.976,49.56 32.147,48.429 31.381,47.261 30.501,46.168 29.647,45.087 27.762,43.052 27.762,43.052 27.762,43.052 21.104,45.012 17.875,46.293 14.583,47.587 11.38,49.108 8.2639,50.779 5.5,52.261 2.9999,53.844 0.24845,55.678 3.3139,46.042 8.7665,37.738 15.413,30.287 9.9098,35.614 5.3492,40.879 0.32383,50.841 2.9119,42.311 11.819,29.672 20.903,22.209 30.539,14.294 39.936,9.5452 54.95,6.6807 43.982,10.261 37.311,15.061 33.466,19.382 37.838,15.752 44.786,11.266 50.515,9.6834 47.387,11.807 45.251,15.098 45.427,18.729 45.64,17.711 45.929,16.87 46.281,15.94 46.281,15.94 50.678,17.51 52.952,18.026 55.302,18.566 60.118,19.093 60.118,19.093 60.118,19.093 60.169,19.772 60.307,20.852 60.307,20.852 61.4,16.581 62.204,14.533 62.908,12.686 64.767,9.1809 64.767,9.1809 66.074,13.05 64.641,10.802 64.465,12.988 64.465,12.988 66.991,12.121 68.297,12.121 69.679,12.133 72.318,13.101 72.318,13.101 72.029,10.663 70.433,13.415 71.865,9.2311 71.865,9.2311 73.988,13.201 74.767,15.312 75.421,17.108 76.237,20.865 76.237,20.865 76.237,20.865 76.338,19.973 76.727,18.968 78.511,19.106 81.602,18.553 83.976,18 86.15,17.498 89.567,16.543 90.321,15.902 90.623,16.857 90.66,17.636 91.515,18.918 91.226,14.872 89.366,12.033 86.024,9.5326 89.404,10.55 97.997,15.048 103.14,19.458 95.208,11.518 84.831,7.4722 80.66,6.5048 93.336,8.2889 107.46,14.545 117.28,23.528 125.56,31.104 131.83,39.421 136.44,50.892 132.43,43.228 126.84,35.489 121.3,30.539 129.22,39.572 133.56,48.241 136.47,55.628 134.77,54.434 130.84,52.085 127.9,50.54 124.83,48.944 121.67,47.499 118.44,46.231 115.3,44.999 108.83,43.052 108.83,43.052 108.83,43.052 106.47,45.791 105.33,47.198 104.57,48.153 103.1,50.125 103.1,50.125 103.1,50.125 101.8,51.294 101.28,52.311 100.33,48.706 98.563,44.748 96.59,42.298 97.997,45.627 99.794,48.467 100.38,53.555 94.681,50.992 88.474,49.623 83.147,49.032 78.499,52.198 73.875,55.314 68.963,62.5 69.001,58.643 69.126,54.359 68.36,49.673 Z"
     style="fill:#ff0000;fill-opacity:1;stroke:#ff0008;stroke-width:0.0266;stroke-miterlimit:4;stroke-dasharray:none;stroke-opacity:1"
     id="2009-comics-title"
     inkscape:connector-curvature="0"
     sodipodi:nodetypes="scccscccccccccccccccccccccccccccccccccccccccccccccccccccccccccc" />
  <path
     d="M 53.037,49.936 C 49.747,47.523 46.442,45.109 43.152,42.695 43.296,45.195 43.454,47.695 43.598,50.195 50.307,52.795 57.002,55.41 63.705,58.011 60.142,55.324 56.6,52.623 53.037,49.936 Z M 93.589,42.681 C 90.126,45.296 86.678,47.925 83.215,50.54 80.069,52.867 76.908,55.209 73.762,57.537 80.227,55.094 86.707,52.637 93.172,50.195 93.316,47.695 93.445,45.181 93.589,42.681 Z M 68.503,68.729 C 68.503,68.729 66.334,67.551 65.242,66.961 64.121,66.344 62.986,65.74 61.866,65.122 60.63,64.433 59.409,63.743 58.181,63.054 56.916,62.35 55.666,61.646 54.388,60.97 53.281,60.367 52.161,59.821 51.054,59.218 49.833,58.557 48.655,57.867 47.448,57.192 46.371,56.574 45.293,55.956 44.201,55.353 43.081,54.735 41.96,54.132 40.839,53.542 39.877,53.025 38.9,52.537 37.937,52.034 36.845,51.459 35.753,50.913 34.676,50.324 33.943,49.922 33.225,49.491 32.506,49.074 31.86,48.686 30.581,47.896 30.581,47.896 30.581,47.896 30.71,42.135 30.725,39.247 30.753,35.411 30.653,31.589 30.624,27.753 30.61,23.17 30.61,18.573 30.624,13.975 30.638,9.4494 30.682,0.39799 30.682,0.39799 30.682,0.39799 33.196,5.7426 34.403,8.4437 35.164,10.153 35.854,11.892 36.63,13.587 37.42,15.326 39.101,18.759 39.101,18.759 39.101,18.759 39.948,16.777 40.509,15.872 41.313,14.578 42.262,13.386 43.282,12.251 44.359,11.058 45.509,9.9091 46.773,8.9178 48.238,7.7684 49.804,6.7627 51.457,5.915 53.023,5.0961 54.675,4.4352 56.37,3.9036 58.554,3.214 60.803,2.6968 63.058,2.3519 64.883,2.079 66.736,1.964 68.575,1.9784 70.572,1.9928 72.584,2.1652 74.566,2.4669 76.046,2.6824 77.512,2.9985 78.948,3.4151 80.687,3.9323 82.382,4.5932 84.049,5.326 85.385,5.9294 86.735,6.5759 87.971,7.3948 89.551,8.4149 91.046,9.593 92.382,10.915 93.574,12.079 94.681,13.357 95.571,14.751 96.405,16.058 97.583,18.932 97.583,18.932 97.583,18.932 99.364,15.254 100.21,13.386 101.17,11.288 102.05,9.162 103,7.05 103.96,4.9093 105.93,0.6566 105.93,0.6566 105.93,0.6566 106.13,10.067 106.15,14.78 106.16,18.702 106.06,22.61 106.03,26.532 106,30.253 105.99,33.974 105.99,37.695 106,41.144 106.07,48.054 106.07,48.054 106.07,48.054 104.85,48.686 104.25,49.002 103.17,49.577 102.11,50.166 101.03,50.741 100.05,51.272 99.077,51.79 98.114,52.321 97.008,52.925 95.93,53.557 94.824,54.16 93.79,54.735 92.727,55.267 91.678,55.841 90.457,56.502 89.25,57.206 88.028,57.881 87.008,58.442 85.988,59.016 84.968,59.577 84.049,60.08 83.129,60.582 82.21,61.085 81.017,61.746 79.81,62.393 78.618,63.068 77.454,63.714 76.305,64.404 75.141,65.051 73.949,65.697 72.727,66.315 71.535,66.976 70.515,67.536 68.503,68.729 68.503,68.729 Z"
     style="fill:#ff0000;fill-opacity:1;stroke:#ff0008;stroke-width:0.03042;stroke-miterlimit:4;stroke-dasharray:none;stroke-opacity:1"
     id="2008-comics-logo"
     inkscape:connector-curvature="0"
     sodipodi:nodetypes="ccccccccccccccccccccccccccccccccccccccccccccccccccccccccccccccc" />
  <path
     d="M 56.236,12.689 C 56.106,13.119 56.186,13.539 56.306,13.969 56.306,13.969 57.306,14.429 57.856,14.599 58.176,14.709 58.286,14.629 58.186,14.359 57.666,13.669 57.166,13.289 56.236,12.689 Z M 63.366,15.049 C 62.816,14.989 62.006,15.379 61.286,15.439 61.186,15.619 61.296,15.759 61.326,15.909 61.776,16.089 62.216,16.049 62.656,16.109 63.066,15.879 63.326,15.539 63.366,15.049 Z M 67.286,63.059 C 67.286,63.059 66.326,60.159 65.306,59.089 62.896,56.569 59.566,54.769 56.176,53.989 50.726,52.739 44.866,53.699 39.426,54.969 37.126,55.509 32.896,57.739 32.896,57.739 32.896,57.739 33.066,56.199 32.876,55.469 32.626,54.509 32.196,53.529 31.466,52.859 30.136,51.659 28.236,51.219 26.506,50.759 24.616,50.259 22.636,50.139 20.686,50.069 18.656,49.999 16.616,50.189 14.596,50.379 12.126,50.619 9.6656,50.959 7.2256,51.399 5.8856,51.639 4.5656,51.939 3.2556,52.269 2.1656,52.539 0.02558,53.169 0.02558,53.169 0.02558,53.169 3.3056,48.389 5.1756,46.179 8.7156,42.009 12.576,38.099 16.626,34.429 21.526,29.989 28.736,25.109 32.126,22.049 33.256,21.029 42.686,12.179 44.436,9.2388 43.886,12.459 48.416,18.019 51.836,19.619 52.416,19.889 52.196,17.749 52.726,17.829 53.296,20.599 54.946,21.579 54.126,14.679 54.886,15.499 54.886,15.239 55.426,15.449 55.436,14.309 55.436,13.159 55.446,12.019 56.086,11.859 57.386,11.639 57.386,11.639 57.266,13.529 58.906,14.299 59.196,14.359 59.196,14.359 58.266,11.589 58.496,10.619 57.846,10.609 57.196,10.589 56.546,10.579 59.726,6.3988 63.426,9.0088 64.586,11.289 64.626,10.589 64.656,9.8888 64.696,9.1888 65.316,8.2588 66.366,7.0488 67.096,6.0588 66.066,10.489 65.466,13.049 63.776,15.799 64.416,16.639 62.566,18.489 60.116,23.449 60.586,23.849 61.446,23.869 62.116,23.619 63.126,23.239 64.716,22.559 65.916,21.849 67.216,21.079 68.466,20.179 69.586,19.169 69.996,18.799 70.346,18.369 70.686,17.939 71.326,17.129 71.976,16.319 72.446,15.399 73.016,14.299 73.696,11.909 73.696,11.909 74.156,13.439 74.216,13.119 74.606,13.739 77.206,17.889 101.91,30.019 116.17,36.459 117.69,37.149 119.23,37.789 120.63,38.669 126.37,42.259 136.72,51.079 136.72,51.079 136.72,51.079 133.23,49.529 131.42,48.929 130.03,48.469 128.6,48.129 127.17,47.809 125.3,47.409 123.42,46.869 121.51,46.819 118.96,46.759 116.35,47.049 113.9,47.779 112.74,48.129 111.68,48.769 110.64,49.389 109.29,50.179 107.96,51.019 106.8,52.059 105.37,53.349 104.13,54.859 103.03,56.439 102.42,57.329 101.48,59.299 101.48,59.299 100.18,57.429 94.596,53.199 90.306,52.039 86.636,51.049 82.496,51.329 78.906,52.599 75.616,53.769 72.936,56.329 70.456,58.789 69.196,60.039 67.286,63.059 67.286,63.059 Z"
     style="fill:#ff0000;fill-opacity:1;stroke:#ff0008;stroke-width:0.02117;stroke-miterlimit:4;stroke-dasharray:none;stroke-opacity:1"
     id="2006-comics-title-shadow"
     inkscape:connector-curvature="0"
     sodipodi:nodetypes="cccccccccccccccccccccccccsccccccccccccccccccccccccccccccccccccc" />
  <path
     d="M 68.786,17.383 C 67.505,16.433 66.152,16.554 64.943,15.844 64.824,16.086 64.808,16.327 64.942,16.581 66.073,17.223 67.374,18.361 68.789,18.294 68.96,17.986 68.994,17.691 68.786,17.383 Z M 74.388,15.764 C 73.547,16.166 72.701,16.554 71.922,17.303 71.774,17.624 71.711,17.932 72.034,18.227 72.8,17.825 73.536,17.344 74.236,16.754 74.356,16.394 74.427,16.059 74.388,15.764 Z M 68.35,67.099 C 68.35,67.099 65.662,64.074 64.179,62.71 62.773,61.411 61.302,60.167 59.716,59.096 58.062,57.971 56.256,57.075 54.476,56.165 52.576,55.202 50.649,54.292 48.681,53.502 46.888,52.78 45.042,52.178 43.195,51.629 41.375,51.107 39.542,50.652 37.682,50.25 35.366,49.756 33.025,49.301 30.669,48.965 28.742,48.698 26.801,48.51 24.861,48.377 22.907,48.243 20.954,48.189 18.987,48.163 16.578,48.15 14.155,48.122 11.746,48.31 9.6321,48.484 7.5585,48.872 5.4705,49.193 3.7039,49.474 0.19775,50.116 0.19775,50.116 0.19775,50.116 4.3061,41.512 6.8351,37.483 9.3242,33.509 12.108,29.722 15.159,26.176 18.183,22.656 21.489,19.338 25.021,16.327 28.635,13.249 36.57,7.9761 36.57,7.9761 36.57,7.9761 38.979,10.17 40.291,11.107 41.576,12.017 42.927,12.821 44.332,13.53 45.804,14.279 47.33,14.894 48.882,15.47 50.181,15.939 51.519,16.34 52.857,16.702 54.008,16.995 55.145,17.263 56.31,17.45 57.554,17.624 58.946,18.213 60.054,17.758 61.322,17.25 61.932,16.072 62.25,14.841 62.766,12.86 60.988,2.0209 60.988,2.0209 61.93,5.1389 62.799,8.3235 63.742,11.442 63.742,11.442 66.932,10.438 68.58,10.425 69.822,10.411 72.239,11.107 72.239,11.107 72.941,8.1635 73.462,5.0587 74.163,2.1145 73.995,5.2727 74.005,8.8595 73.837,12.017 73.816,12.419 75.719,13.556 75.161,18.174 75.161,18.174 78.445,17.758 80.069,17.45 81.596,17.156 83.108,16.768 84.607,16.366 86.036,15.978 87.471,15.59 88.854,15.055 90.329,14.48 91.764,13.797 93.154,13.047 94.392,12.366 95.608,11.642 96.742,10.799 97.896,9.9566 99.995,8.0024 99.995,8.0024 103.32,10.037 109.08,14.239 113.22,17.852 116.37,20.582 119.31,23.566 122.01,26.751 125.19,30.539 128.09,34.593 130.67,38.822 132.92,42.515 136.53,50.385 136.53,50.385 136.53,50.385 132.29,49.461 130.13,49.14 128.15,48.845 126.14,48.672 124.15,48.51 122.38,48.377 120.61,48.284 118.83,48.256 116.91,48.243 114.97,48.284 113.04,48.404 110.83,48.538 108.63,48.765 106.44,49.06 104.41,49.34 102.39,49.715 100.38,50.116 98.493,50.504 96.603,50.906 94.746,51.428 92.698,52.004 90.679,52.672 88.688,53.422 86.714,54.171 84.76,54.975 82.86,55.898 80.727,56.928 78.59,57.971 76.619,59.283 75.032,60.354 73.552,61.572 72.166,62.883 70.787,64.182 68.35,67.099 68.35,67.099 Z"
     style="fill:#ff0000;fill-opacity:1;stroke:#ff0008;stroke-width:0.02833;stroke-miterlimit:4;stroke-dasharray:none;stroke-opacity:1"
     id="2013-tv-title"
     inkscape:connector-curvature="0"
     sodipodi:nodetypes="ccccccccccccccccccccccccccccccccccccccccccccccccccccccccccccccc" />
  <path
     d="M 56.036,14.595 C 55.906,15.025 55.986,15.445 56.106,15.875 56.106,15.875 57.106,16.335 57.656,16.505 57.976,16.615 58.086,16.535 57.986,16.265 57.466,15.575 56.966,15.195 56.036,14.595 Z M 63.167,16.955 C 62.617,16.895 61.807,17.285 61.086,17.345 60.986,17.525 61.096,17.665 61.126,17.815 61.576,17.995 62.017,17.955 62.457,18.015 62.867,17.785 63.127,17.445 63.167,16.955 Z M 67.137,64.925 C 67.137,64.925 66.177,62.025 65.157,60.955 62.747,58.435 59.416,56.635 56.026,55.855 50.576,54.605 44.716,55.565 39.276,56.835 36.976,57.375 32.746,59.605 32.746,59.605 32.746,59.605 32.916,58.065 32.726,57.335 32.476,56.375 32.046,55.395 31.316,54.725 29.986,53.525 28.086,53.085 26.356,52.625 24.466,52.125 22.486,52.005 20.536,51.935 18.506,51.865 16.466,52.055 14.446,52.245 11.976,52.485 9.5156,52.795 7.0756,53.265 5.7256,53.525 4.4156,53.925 3.0856,54.245 2.1356,54.485 0.15558,54.675 0.15558,54.675 1.8856,50.855 14.866,37.715 15.676,36.815 18.796,34.105 26.976,28.535 30.996,24.865 36.026,20.275 37.196,18.795 40.586,15.735 41.716,14.715 44.116,11.295 44.116,11.295 44.116,11.295 43.946,12.315 44.226,12.955 44.306,13.315 45.016,14.545 45.186,14.875 45.346,15.215 45.646,15.715 45.826,16.045 46.116,16.535 47.016,17.315 47.366,17.785 47.926,18.525 47.756,18.505 48.456,19.125 48.686,19.335 49.056,19.185 49.056,19.185 49.776,18.705 52.046,16.285 52.536,14.385 53.496,10.615 56.176,4.8648 57.106,4.2048 57.256,5.3348 56.896,7.1948 57.386,8.2648 57.386,8.2648 60.506,8.2748 61.827,8.8548 62.897,9.3248 64.347,11.055 64.347,11.055 64.967,10.125 65.977,8.9148 66.707,7.9248 64.867,14.465 64.607,16.815 63.457,17.635 64.127,18.705 62.857,19.095 59.966,25.315 60.436,25.715 61.296,25.735 61.967,25.485 62.977,25.105 64.567,24.425 65.767,23.715 67.067,22.945 68.317,22.045 69.437,21.035 69.847,20.665 70.197,20.235 70.537,19.805 71.177,18.995 71.827,18.185 72.297,17.265 72.867,16.165 73.277,13.975 73.277,13.975 73.767,14.255 74.067,14.985 74.457,15.605 77.057,19.755 101.76,31.885 116.02,38.325 117.54,39.015 119.08,39.655 120.49,40.535 126.23,44.125 136.58,52.945 136.58,52.945 136.58,52.945 133.09,51.395 131.28,50.795 129.89,50.335 128.46,49.995 127.03,49.675 125.16,49.275 123.28,48.735 121.37,48.685 118.81,48.625 116.2,48.915 113.75,49.645 112.59,49.995 111.53,50.635 110.49,51.255 109.14,52.045 107.81,52.885 106.65,53.925 105.22,55.215 103.98,56.725 102.88,58.305 102.27,59.195 101.33,61.165 101.33,61.165 100.03,59.295 94.447,55.065 90.157,53.905 86.487,52.915 82.357,53.225 78.757,54.465 75.497,55.585 72.747,57.985 70.307,60.415 69.007,61.715 67.137,64.925 67.137,64.925 Z"
     style="fill:#ff0000;fill-opacity:1;stroke:#ff0008;stroke-width:0.02117;stroke-miterlimit:4;stroke-dasharray:none;stroke-opacity:1"
     id="2006-comics-title-silhouette"
     inkscape:connector-curvature="0"
     sodipodi:nodetypes="cccccccccccccccccccccccccsccccccccccccccccccccccccccccccccccccc" />
  <path
     d="M 32.577,26.012 C 31.356,25.038 29.849,24.531 28.004,25.051 27.589,26.311 28.745,28.259 29.979,29.13 31.135,29.935 33.006,30.26 34.188,29.545 34.474,28.766 33.59,26.817 32.577,26.012 Z M 41.021,24.687 C 40.242,24.388 38.566,24.804 37.761,25.596 36.747,26.61 36.176,28.35 36.552,29.727 37.579,29.987 39.397,29.078 40.112,27.987 40.788,26.947 41.398,25.7 41.021,24.687 Z M 48.361,60.139 C 48.361,60.139 46.127,57.177 44.607,56.19 42.515,54.839 40.034,54.008 37.553,53.722 35.383,53.462 33.11,53.748 31.005,54.384 29.433,54.865 27.056,56.008 26.64,56.697 26.225,55.45 25.003,54.319 24.016,53.436 23.081,52.579 21.704,51.747 20.392,51.176 18.807,50.487 17.092,50.045 15.364,49.838 13.792,49.643 10.622,49.902 10.622,49.902 10.83,47.577 10.635,45.784 10.116,43.849 9.7259,42.394 8.8425,40.952 7.7772,39.821 6.66,38.639 5.244,37.639 3.698,37.106 2.5288,36.717 0.00855,36.859 0.00855,36.859 0.00855,36.859 0.45025,29.662 1.6065,26.285 2.8796,22.53 4.7893,18.88 7.3875,15.88 9.3881,13.563 11.882,11.529 14.701,10.311 17.079,9.2807 21.119,8.7325 22.392,9.0651 22.392,9.0651 19.586,10.74 18.469,11.91 17.469,12.958 16.546,14.172 16.104,15.548 15.611,17.055 15.494,18.75 15.871,20.296 16.208,21.725 17.066,23.037 18.04,24.128 19.196,25.427 20.677,26.441 22.223,27.22 23.509,27.87 26.341,28.519 26.341,28.519 26.341,28.519 25.796,23.44 25.692,20.88 25.549,17.246 25.757,9.9667 25.757,9.9667 26.523,12.887 27.576,16.774 28.342,19.698 28.342,19.698 30.823,17.752 33.24,17.642 35.903,17.521 39.125,19.555 39.125,19.555 39.008,16.484 39.203,12.825 39.722,9.6951 39.722,9.6951 40.463,16.938 41.164,20.504 41.749,23.518 43.49,29.416 43.49,29.416 43.49,29.416 46.413,29.468 47.868,29.377 49.518,29.273 51.18,29.143 52.804,28.831 54.688,28.467 56.624,28.142 58.338,27.298 59.495,26.726 60.928,26.142 61.421,24.96 61.694,24.31 61.551,23.453 61.161,22.868 60.551,21.933 58.299,21.153 58.299,21.153 60.616,20.504 75.27,19.854 84.039,20.582 92.249,21.27 100.45,22.634 108.34,24.973 114.83,26.882 121.21,29.403 127.05,32.793 130.57,34.833 136.72,40.25 136.72,40.25 133.32,38.366 128.86,37.587 124.79,37.717 120.7,37.847 116.02,38.34 112.96,41.069 112,41.913 111.14,43.368 111.48,44.602 112.22,47.252 114.84,48.422 118.12,49.5 118.12,49.5 106.15,49.149 100.19,49.604 95.172,49.98 90.041,50.24 85.273,51.812 82.973,52.579 79.856,53.033 78.855,55.242 78.595,55.813 79.063,56.619 79.284,57.087 77.465,56.294 72.581,54.839 69.112,54.241 65.085,53.553 60.954,53.111 56.87,53.436 54.883,53.592 52.596,53.527 51.024,54.774 49.453,56.008 48.244,57.554 48.361,60.139 Z"
     style="fill:#ff0000;fill-opacity:1;stroke:#ff0008;stroke-width:0.0275;stroke-miterlimit:4;stroke-dasharray:none;stroke-opacity:1"
     id="2000-comics-title-batgirl"
     inkscape:connector-curvature="0"
     sodipodi:nodetypes="ccccccccccccccccccccccccccccccccccccccccccccccccccccccccccccccc" />
  <path
     d="M 75.358,46.423 C 72.247,44.386 69.137,42.349 66.026,40.323 66.026,42.102 66.026,43.88 66.026,45.659 69.126,46.567 72.225,47.485 75.325,48.393 75.336,47.74 75.347,47.076 75.358,46.423 Z M 97.575,40.29 C 94.409,42.316 91.243,44.353 88.077,46.378 88.111,47.054 88.144,47.74 88.177,48.415 91.288,47.508 94.398,46.611 97.52,45.703 97.531,43.899 97.553,42.094 97.575,40.29 Z M 73.498,68.895 C 72.281,68.972 71.063,69.05 69.845,69.027 68.517,68.994 67.2,68.839 65.882,68.695 64.532,68.551 63.17,68.408 61.831,68.175 60.396,67.921 58.968,67.588 57.562,67.212 55.946,66.769 54.33,66.282 52.769,65.673 51.319,65.109 49.924,64.4 48.507,63.725 47.123,63.061 45.684,62.463 44.367,61.655 43.149,60.913 42.042,60.006 40.913,59.131 39.651,58.168 38.367,57.216 37.205,56.131 36.087,55.102 35.024,53.995 34.094,52.81 33.087,51.537 31.415,48.747 31.415,48.747 35.267,42.15 39.452,35.762 45.441,31.766 43.88,35.674 43.813,38.364 43.525,42.017 55.758,54.072 63.646,58.533 74.86,62.474 70.476,60.548 60.739,53.552 58.437,50.651 57.795,34.058 59.4,10.151 61.941,0.22007 62.406,2.0222 62.827,3.8366 63.336,5.6277 63.724,6.9915 64.045,8.3799 64.587,9.6917 65.13,11.005 65.893,12.21 66.546,13.469 67.897,12.768 69.159,11.865 70.598,11.368 71.273,11.135 72.004,11.137 72.69,10.97 73.498,10.775 74.262,10.451 75.07,10.265 75.635,10.134 76.21,10.077 76.786,9.9795 77.45,9.8677 78.103,9.6873 78.768,9.6375 79.454,9.5865 80.14,9.6751 80.827,9.6862 81.458,9.6961 82.089,9.7017 82.72,9.7006 83.339,9.6994 83.97,9.6364 84.59,9.6828 85.299,9.736 85.996,9.9242 86.705,10.023 87.336,10.11 87.978,10.1 88.598,10.246 89.251,10.4 89.838,10.74 90.48,10.927 91.232,11.15 92.04,11.188 92.793,11.45 93.391,11.658 93.911,12.029 94.498,12.277 95.384,12.654 96.269,12.976 97.199,13.277 97.808,11.826 98.494,10.402 99.037,8.9246 99.601,7.4047 100.08,5.8547 100.51,4.2916 100.89,2.9067 101.16,1.326 101.48,0.09609 102.22,4.6823 103.14,9.5832 103.71,14.362 104.33,19.547 104.72,24.758 104.99,29.973 105.28,35.807 105.34,41.663 105.3,47.508 105.28,50.729 105,57.172 105,57.172 105,57.172 104.16,58.057 103.67,58.434 103.13,58.854 102.47,59.131 101.9,59.541 101.31,59.961 100.79,60.493 100.2,60.913 99.568,61.378 98.915,61.799 98.24,62.197 97.465,62.651 96.646,63.028 95.837,63.448 94.974,63.902 94.133,64.433 93.225,64.832 92.35,65.208 91.432,65.463 90.524,65.762 89.55,66.083 88.587,66.415 87.601,66.714 86.594,67.013 85.565,67.29 84.535,67.544 83.472,67.799 82.41,68.087 81.325,68.242 80.174,68.408 79.022,68.408 77.871,68.507 76.41,68.618 74.96,68.795 73.498,68.895 Z"
     style="fill:#ff0000;fill-opacity:1;stroke:#ff0008;stroke-width:0.02343;stroke-miterlimit:4;stroke-dasharray:none;stroke-opacity:1"
     id="2001-comics-logo"
     inkscape:connector-curvature="0"
     sodipodi:nodetypes="cccccccccccccccccccccccccccccccccccccsccccccccccccccccccccccccc" />
  <path
     d="M 66.853,20.545 C 65.729,19.538 64.395,19.238 63.023,19.028 62.565,19.774 64.056,20.349 64.775,20.741 65.35,21.042 66.043,21.212 66.683,21.146 66.932,21.016 66.853,20.754 66.853,20.545 Z M 73.978,19.094 C 72.75,19.107 71.468,19.604 70.109,20.558 70.096,20.728 70.056,20.846 70.331,21.029 71.168,21.29 71.638,21.055 72.214,20.78 72.946,20.44 73.978,19.721 73.978,19.094 Z M 68.514,60.485 C 68.514,60.485 64.395,55.622 61.846,53.778 59.15,51.83 56.117,50.288 52.953,49.307 49.188,48.144 45.175,47.621 41.226,47.738 38.808,47.804 34.088,49.111 34.088,49.111 34.088,49.111 32.911,47.137 32.14,46.3 30.702,44.731 29.055,43.332 27.251,42.195 25.616,41.162 23.799,40.417 21.969,39.803 20.531,39.332 19.027,39.057 17.537,38.835 15.772,38.574 13.994,38.404 12.216,38.417 10.725,38.43 9.235,38.587 7.7707,38.809 6.398,39.018 5.0383,39.306 3.7048,39.711 2.4366,40.09 -0.02122,41.136 -0.02122,41.136 -0.02122,41.136 4.267,34.325 6.9994,31.396 10.189,27.971 13.85,24.964 17.759,22.401 21.511,19.944 25.577,17.917 29.787,16.361 34.807,14.505 43.449,12.649 45.384,12.501 45.384,12.501 43.24,13.93 42.547,14.976 41.802,16.113 41.082,17.512 41.292,18.845 41.488,20.101 42.521,21.159 43.54,21.931 44.913,22.977 46.678,23.487 48.378,23.748 50.182,24.023 52.091,23.957 53.829,23.434 55.633,22.898 57.425,21.983 58.732,20.623 59.82,19.486 60.46,17.943 60.892,16.427 61.598,13.93 61.506,8.6728 61.506,8.6728 62.722,10.294 64.069,12.203 65.284,13.825 65.284,13.825 67.389,13.025 68.488,13.022 69.612,13.021 71.756,13.825 71.756,13.825 72.906,12.246 74.24,10.51 75.39,8.9317 75.39,8.9317 75.665,13.851 76.123,16.257 76.436,17.93 77.221,19.617 78.437,20.846 79.535,21.97 81.091,22.598 82.581,23.107 84.111,23.617 85.758,23.944 87.379,23.866 89.275,23.761 91.262,23.356 92.909,22.401 93.955,21.8 94.988,20.937 95.485,19.826 95.916,18.845 96.008,17.617 95.642,16.61 95.027,14.936 92.007,12.686 92.007,12.686 92.007,12.686 101.72,14.244 106.32,15.891 111.03,17.59 115.56,19.931 119.71,22.715 123.61,25.33 127.26,28.389 130.39,31.88 132.9,34.678 136.63,40.535 136.76,41.188 136.76,41.188 134.88,40.195 133.88,39.829 132.71,39.397 131.49,39.07 130.26,38.848 128.6,38.534 126.93,38.351 125.24,38.325 123.28,38.299 121.31,38.417 119.39,38.757 117.42,39.11 115.49,39.685 113.63,40.417 112.17,40.992 110.74,41.724 109.41,42.561 108.1,43.385 106.82,44.3 105.72,45.385 104.58,46.509 102.74,49.163 102.74,49.163 102.74,49.163 97.851,47.751 95.328,47.673 91.615,47.568 87.837,48.104 84.307,49.242 80.894,50.34 77.652,52.079 74.763,54.197 72.384,55.949 68.514,60.485 68.514,60.485 Z"
     style="fill:#ff0000;fill-opacity:1;stroke:#ff0008;stroke-width:0.02768;stroke-miterlimit:4;stroke-dasharray:none;stroke-opacity:1"
     id="2000-comics-logo"
     inkscape:connector-curvature="0"
     sodipodi:nodetypes="ccccccccccccccccccccccccccccccccccccccccccccccccccccccccccccccc" />
  <path
     d="M 59.455,18.578 C 58.148,18.315 56.84,18.051 55.52,17.787 56.222,18.603 56.925,19.419 57.627,20.235 58.257,19.839 58.874,19.445 59.504,19.049 59.492,18.891 59.48,18.735 59.455,18.578 Z M 66.565,17.868 C 65.27,18.115 63.986,18.363 62.691,18.61 62.667,18.764 62.654,18.918 62.642,19.072 63.332,19.451 64.023,19.83 64.713,20.209 65.33,19.429 65.948,18.648 66.565,17.868 Z M 78.274,68.843 C 76.749,68.848 75.235,68.854 73.709,68.84 72.341,68.827 70.961,68.769 69.593,68.769 68.345,68.768 67.11,68.823 65.875,68.827 64.592,68.833 63.308,68.802 62.025,68.8 60.959,68.797 59.891,68.806 58.826,68.809 57.857,68.814 56.888,68.827 55.92,68.825 55.036,68.823 54.14,68.791 53.244,68.798 52.324,68.804 51.403,68.869 50.483,68.867 49.514,68.865 48.558,68.791 47.589,68.784 46.608,68.777 45.628,68.819 44.635,68.824 43.618,68.829 42.6,68.81 41.583,68.812 40.578,68.813 42.395,68.835 38.556,68.833 38.145,65.831 37.878,62.827 37.527,59.824 37.152,56.637 36.752,53.452 36.389,50.264 36.086,47.706 35.771,45.149 35.517,42.587 35.287,40.355 34.645,36.422 34.924,35.882 35.287,35.206 36.28,35.154 36.982,34.862 37.491,34.651 38.036,34.512 38.556,34.337 38.92,34.57 39.222,34.691 39.586,34.925 40.954,34.475 42.322,34.032 43.69,33.575 45.01,33.132 46.33,32.679 47.662,32.23 49.03,31.765 50.35,31.297 51.767,30.832 51.767,30.832 52.445,21.959 52.759,17.521 53.159,11.769 53.898,0.26098 53.898,0.26098 54.963,3.0556 56.004,5.7839 57.07,8.5785 57.07,8.5785 59.819,7.8035 61.226,7.8495 62.533,7.8919 65.052,8.7783 65.052,8.7783 66.384,6.1241 67.595,3.1585 68.927,0.50314 69.338,10.5 69.895,20.594 70.307,30.59 74.387,32.236 75.029,33.289 74.448,30.974 73.249,31.107 73.625,30.417 72.511,25.93 72.838,23.558 74.823,27.977 72.341,19.578 73.479,19.132 76.143,18.17 71.808,17.363 72.305,16.241 75.719,16.697 77.209,17.583 78.589,16.187 81.301,13.637 84.922,13.014 80.72,18.381 84.958,13.178 89.886,14.342 84.619,19.406 89.571,14.663 93.749,18.819 92.211,18.685 88.578,17.837 93.373,19.732 91.618,20.36 91.739,23.29 91.085,25.122 93.034,25.109 91.763,26.103 91.242,30.958 90.177,30.61 90.419,32.178 89.971,37.287 89.971,37.287 92.138,38.001 93.216,38.378 94.282,38.756 94.209,38.777 96.413,39.554 96.618,39.33 96.812,39.106 97.018,38.883 99.052,39.216 100.89,39.438 101.85,39.67 102.01,39.466 101.01,44.436 100.59,46.817 100.18,49.06 99.73,51.297 99.343,53.542 98.871,56.22 98.495,58.915 98.011,61.59 97.563,63.999 97.151,66.581 96.546,68.791 95.117,68.769 90.383,68.726 87.307,68.741 85.806,68.749 84.304,68.795 82.803,68.812 81.289,68.83 79.788,68.84 78.274,68.843 Z"
     style="fill:#ff0000;fill-opacity:1;stroke:#ff0008;stroke-width:0.02563;stroke-miterlimit:4;stroke-dasharray:none;stroke-opacity:1"
     id="1994-cartoon-title"
     inkscape:connector-curvature="0"
     sodipodi:nodetypes="ccccccccccccccccccccccccccccccccccccccccccccccccccccccccccccccc" />
  <path
     d="M 67.598,20.744 C 66.484,20.365 65.88,19.701 65.24,19.05 64.932,18.908 64.731,18.979 64.754,19.429 65.37,20.377 66.472,21.123 67.23,21.289 67.503,21.111 67.479,20.922 67.598,20.744 Z M 72.289,19.5 C 71.46,19.512 70.69,20.637 69.825,20.72 69.706,20.934 69.801,21.159 69.884,21.372 71.045,21.467 71.578,20.554 72.372,20.057 72.479,19.796 72.455,19.607 72.289,19.5 Z M 68.368,59.744 C 67.491,58.713 64.6,56.071 62.337,54.815 60.441,53.761 58.356,52.944 56.2,52.718 54.482,52.541 52.658,52.718 51.058,53.358 50.075,53.761 49.092,54.33 48.5,55.289 47.777,54.176 47.019,53.95 46.142,53.488 45.171,52.979 44.093,52.541 43.003,52.446 40.621,52.233 38.145,52.624 35.918,53.465 34.52,53.986 32.175,55.881 32.175,55.881 30.101,54.815 28.538,54.626 26.678,54.78 23.953,55.029 21.418,56.403 19.048,57.765 16.359,59.305 14.002,61.378 11.775,63.523 10.08,65.158 7.2017,68.901 7.2017,68.901 7.3794,61.248 8.2205,54.211 10.175,47.518 12.379,40.031 15.85,32.887 19.949,26.241 22.97,21.324 26.701,16.823 30.765,12.724 35.219,8.2101 43.784,1.9548 45.49,0.6398 45.49,0.6398 43.583,2.8314 43.334,4.1938 43.157,5.2008 43.441,6.2909 43.915,7.2031 44.365,8.1035 45.194,8.7788 45.976,9.4066 46.971,10.212 48.109,10.816 49.258,11.361 51.26,12.309 53.345,13.103 55.489,13.648 57.29,14.11 61.004,14.477 61.004,14.477 61.029,13.624 60.986,10.994 60.984,9.2526 60.98,6.3383 60.998,0.52133 60.998,0.52133 61.476,1.8837 62.931,7.6533 63.309,8.9446 63.309,8.9446 66.78,7.4638 68.628,7.369 70.18,7.2861 73.225,8.2338 73.225,8.2338 73.876,6.8596 76.163,1.552 76.672,0.20147 76.637,3.175 76.21,5.1653 75.997,7.6533 75.807,9.9042 75.452,14.418 75.452,14.418 75.452,14.418 76.909,14.311 77.62,14.193 79.788,13.837 81.98,13.458 84.053,12.759 85.877,12.143 87.702,11.432 89.301,10.366 90.651,9.4659 92.18,8.5181 92.867,7.061 93.424,5.8763 93.483,4.3834 93.092,3.1395 92.725,2.0022 90.865,0.33178 90.865,0.33178 96.089,3.7318 101.29,7.9376 105.84,12.463 109.12,15.721 112.03,19.346 114.62,23.161 117.95,28.042 121.2,33.1 123.26,38.633 126.84,48.217 129.05,53.536 129.52,68.676 129.52,68.676 127.02,65.454 125.57,64.032 123.27,61.793 120.9,59.53 118.09,57.967 115.11,56.308 111.81,54.602 108.4,54.626 107.05,54.626 105.52,55.431 104.61,55.964 102.82,54.626 101.11,53.536 99.122,52.884 97.653,52.41 96.054,52.221 94.525,52.339 93.175,52.446 91.812,52.801 90.616,53.417 89.763,53.856 89.325,54.27 88.401,55.206 87.228,53.725 85.238,53.062 83.413,52.707 81.743,52.387 79.978,52.695 78.331,53.133 76.341,53.666 74.457,54.614 72.739,55.763 71.104,56.853 68.865,59.092 68.368,59.744 Z"
     style="fill:#ff0000;fill-opacity:1;stroke:#ff0008;stroke-width:0.02508;stroke-miterlimit:4;stroke-dasharray:none;stroke-opacity:1"
     id="1960-comics-title"
     inkscape:connector-curvature="0"
     sodipodi:nodetypes="cccccccccccccccccccccccccccccccccccccccccccsccccccccccccccccccc" />
  <path
     d="M 65.88,13.714 C 65.796,14.049 65.605,14.371 66.023,14.706 66.501,15.136 66.896,15.196 67.314,15.363 67.709,15.208 68.115,15.076 68.234,14.766 67.577,14.108 66.669,14.06 65.88,13.714 Z M 73.326,13.523 C 72.609,13.833 71.773,13.905 71.235,14.515 71.318,14.945 71.641,15.136 72.095,15.172 72.095,15.172 73.04,14.634 73.279,14.168 73.374,13.977 73.326,13.523 73.326,13.523 Z M 66.776,68.936 C 66.776,68.936 64.804,65.231 63.334,63.772 61.637,62.087 59.57,60.677 57.311,59.852 54.801,58.931 51.98,58.382 49.35,58.848 46.386,59.362 43.063,60.772 41.342,62.971 40.708,61.035 39.178,59.995 37.708,58.943 36.453,58.035 34.947,57.473 33.453,57.067 32.031,56.684 30.536,56.469 29.078,56.589 26.759,56.78 24.01,57.533 22.349,58.489 21.655,56.959 20.926,55.979 20.006,54.879 19.205,53.947 18.356,53.003 17.305,52.393 15.811,51.545 14.101,51.019 12.392,50.899 11.113,50.815 8.603,51.521 8.603,51.521 8.603,51.521 12.225,40.572 14.663,35.36 17.113,30.137 19.934,25.081 23.209,20.336 26.293,15.853 29.879,11.706 33.596,7.7374 36.083,5.0837 39.489,1.5576 41.509,0.26667 41.509,0.26667 43.171,2.1552 44.067,3.0278 44.904,3.8406 45.764,4.6295 46.697,5.3349 47.784,6.1597 48.932,6.9007 50.115,7.582 51.275,8.2514 52.482,8.861 53.713,9.3869 55.291,10.068 56.904,10.678 58.554,11.132 59.821,11.479 62.413,11.885 62.413,11.885 62.186,10.797 62.198,9.1957 62.282,7.857 62.39,6.1836 63.059,2.8963 63.059,2.8963 63.668,3.9481 64.278,5.0119 64.888,6.064 64.888,6.064 67.553,4.7848 68.999,4.7131 70.458,4.6295 73.279,5.6218 73.279,5.6218 73.924,4.5936 74.569,3.5776 75.215,2.5497 75.609,6.1118 75.669,5.9565 75.717,7.6777 75.753,9.124 75.526,12.028 75.526,12.028 75.526,12.028 77.88,11.742 79.04,11.491 80.343,11.204 81.61,10.821 82.865,10.379 84.239,9.8889 85.578,9.3152 86.881,8.6937 88.267,8.0243 89.642,7.331 90.921,6.5063 92.14,5.7054 93.3,4.8087 94.375,3.8286 95.618,2.705 97.818,0.19495 97.818,0.19495 102.17,4.5577 104.49,7.4028 107.46,11.299 110.49,15.28 113.37,19.403 115.8,23.778 118.67,28.978 121.12,34.428 123.08,40.034 125.29,46.321 127.44,55.453 128.12,59.374 128.12,59.374 125.81,56.194 124.22,55.107 122.7,54.091 120.9,53.326 119.08,53.182 117.09,53.027 115,53.481 113.23,54.389 111.46,55.298 109.42,57.581 108.86,58.453 106.64,58.119 105.92,58.19 104.45,58.322 102.97,58.465 101.48,58.74 100.1,59.278 98.953,59.732 97.866,60.366 96.921,61.143 95.834,62.051 95.224,62.601 94.136,64.346 92.523,62.673 91.232,61.645 89.439,60.904 86.965,59.888 84.168,59.457 81.502,59.696 78.287,59.983 75.036,61.071 72.334,62.84 70.039,64.358 66.776,68.936 66.776,68.936 Z"
     style="fill:#ff0000;fill-opacity:1;stroke:#ff0008;stroke-width:0.0253;stroke-miterlimit:4;stroke-dasharray:none;stroke-opacity:1"
     id="1966-tv-title"
     inkscape:connector-curvature="0"
     sodipodi:nodetypes="cccccccccccccccccccccccccccccccccccccccccccccccccccccsccccccccc" />
  <path
     d="M 66.084,15.164 C 65.649,14.77 65.159,14.416 64.493,14.28 64.303,14.403 64.167,14.566 64.167,14.824 64.574,15.042 64.819,15.327 65.513,15.382 65.703,15.309 65.894,15.237 66.084,15.164 Z M 70.803,14.919 C 70.843,14.661 70.843,14.416 70.694,14.158 70.164,14.403 69.701,14.77 69.266,15.178 69.552,15.314 69.864,15.382 70.218,15.327 70.517,15.3 70.653,15.11 70.803,14.919 Z M 67.988,66.39 C 67.988,66.39 63.609,62.039 60.944,60.556 57.543,58.666 53.749,57.129 49.859,56.83 45.753,56.518 41.415,57.211 37.661,58.924 35.744,59.808 32.78,62.963 32.78,62.963 32.78,62.963 31.08,61.155 30.005,60.57 28.754,59.89 27.313,59.618 25.899,59.373 24.702,59.169 23.478,59.101 22.254,59.156 20.677,59.224 19.086,59.482 17.549,59.849 15.985,60.216 14.449,60.733 12.98,61.372 11.321,62.107 9.7706,63.072 8.1932,63.983 6.7925,64.799 5.3783,65.601 4.0456,66.54 3.0121,67.26 1.0811,68.892 1.0811,68.892 1.0811,68.892 1.3667,58.816 2.1826,53.852 3.3385,46.93 5.0383,40.05 7.486,33.481 9.6482,27.675 12.694,22.249 15.713,16.823 18.882,11.139 25.844,2.8981 27.802,1.3886 27.802,1.3886 31.433,4.0948 33.351,5.2779 34.86,6.2026 36.451,7.0049 38.042,7.78 39.932,8.7183 41.823,9.6022 43.781,10.377 45.603,11.084 47.452,11.71 49.329,12.254 51.124,12.784 52.946,13.247 54.782,13.6 56.373,13.913 59.584,14.307 59.584,14.307 59.584,14.307 60.753,9.8334 61.27,7.5896 61.732,5.6178 62.548,1.647 62.548,1.647 62.915,3.0885 63.555,5.0467 63.922,6.3793 63.922,6.3793 66.07,5.3186 67.226,5.2914 68.301,5.2643 70.313,6.121 70.313,6.121 70.803,4.5027 70.707,3.2924 71.292,1.7422 73.373,8.0384 72.625,7.0321 73.441,9.6294 73.971,11.356 75.236,14.743 75.236,14.743 75.236,14.743 80.023,14.253 82.389,13.804 84.619,13.383 86.822,12.839 88.998,12.172 91.16,11.52 93.281,10.731 95.375,9.8606 97.551,8.9495 99.7,7.9432 101.79,6.8417 103.59,5.8898 105.37,4.8699 107.07,3.714 108.65,2.6533 111.62,0.23248 111.62,0.23248 115.83,5.4954 119.19,9.983 122.18,15.3 125.53,21.229 128.26,27.512 130.44,33.957 132.42,39.818 133.88,45.897 134.77,52.016 135.54,57.17 135.65,67.614 135.65,67.614 135.65,67.614 133.86,66.145 132.91,65.493 131.77,64.731 130.57,64.038 129.35,63.412 128.03,62.746 126.66,62.175 125.27,61.658 123.91,61.155 122.52,60.665 121.11,60.352 119.63,60.012 118.1,59.836 116.59,59.754 114.95,59.659 113.3,59.713 111.66,59.849 110.08,59.972 108.46,60.094 106.93,60.529 105.49,60.923 102.81,62.283 102.81,62.283 102.81,62.283 99.428,59.251 97.361,58.408 93.771,56.953 89.732,56.246 85.87,56.599 81.804,56.98 77.833,58.625 74.311,60.706 71.877,62.161 67.988,66.39 67.988,66.39 Z"
     style="fill:#ff0000;fill-opacity:1;stroke:#ff0008;stroke-width:0.02879;stroke-miterlimit:4;stroke-dasharray:none;stroke-opacity:1"
     id="1970-comics-title"
     inkscape:connector-curvature="0"
     sodipodi:nodetypes="ccccccccccccccccccccccccccccccccccccccccccccccccccccccccccccccc" />
  <path
     d="M 64.726,6.8683 C 64.668,7.0198 64.598,7.1713 64.54,7.3228 64.971,7.9287 65.39,8.5231 65.81,9.129 66.416,8.826 67.022,8.5231 67.628,8.2201 66.66,7.7656 65.693,7.3111 64.726,6.8683 Z M 72.056,7.4277 C 72.044,7.1946 72.033,6.9615 72.009,6.7401 71.03,7.2179 70.04,7.7073 69.049,8.1851 69.609,8.4998 70.168,8.8144 70.727,9.129 71.17,8.558 71.613,7.9987 72.056,7.4277 Z M 68.665,55.893 C 66.835,55.882 65.006,55.893 63.176,55.975 61.686,56.045 60.198,56.196 58.718,56.313 57.028,56.453 55.338,56.558 53.66,56.744 51.935,56.942 50.222,57.222 48.509,57.455 46.645,57.711 44.769,57.921 42.916,58.224 41.319,58.48 39.723,58.783 38.15,59.121 36.39,59.506 34.642,59.96 32.894,60.403 30.96,60.892 29.025,61.394 27.114,61.953 25.343,62.477 23.595,63.048 21.835,63.643 20.355,64.144 18.875,64.656 17.407,65.204 15.962,65.74 14.54,66.311 13.119,66.894 11.546,67.535 8.4458,68.898 8.4458,68.898 8.4458,68.898 9.8092,58.364 10.94,53.19 12.14,47.701 13.655,42.282 15.484,36.968 17.291,31.69 19.47,26.539 21.824,21.481 23.898,17.042 28.687,8.4764 28.687,8.4764 28.687,8.4764 32.51,10.201 34.491,10.877 36.25,11.483 38.068,11.961 39.898,12.345 41.669,12.707 43.475,12.963 45.293,13.138 46.901,13.289 48.521,13.394 50.141,13.347 52.25,13.289 54.359,13.021 56.457,12.73 58.053,12.508 61.204,11.856 61.204,11.856 61.204,11.856 62.553,6.8217 63.223,4.3044 63.596,2.906 64.33,0.12088 64.33,0.12088 64.784,1.5193 65.39,2.6729 65.845,4.0713 65.845,4.0713 67.604,3.4887 68.513,3.512 69.329,3.5236 70.891,4.1179 70.891,4.1179 71.392,2.6962 71.811,1.7873 72.312,0.3656 72.312,0.3656 73.175,3.1857 73.582,4.6074 74.258,6.9732 75.505,11.739 75.505,11.739 75.505,11.739 78.395,12.427 79.864,12.648 82.031,12.975 84.21,13.219 86.401,13.243 89.105,13.278 91.808,13.056 94.477,12.707 95.619,12.555 96.737,12.299 97.844,12.031 99.802,11.553 101.76,11.052 103.65,10.376 105.13,9.8399 107.98,8.4881 107.98,8.4881 107.98,8.4881 112.36,16.086 114.27,20.036 116.37,24.383 118.32,28.811 119.94,33.356 122.33,40.057 124.33,46.92 125.88,53.866 127,58.865 128.28,69.038 128.28,69.038 128.28,69.038 125.47,67.616 124.04,66.987 122.58,66.346 121.1,65.775 119.62,65.216 117.99,64.598 116.34,64.027 114.68,63.491 112.9,62.92 111.09,62.419 109.29,61.895 107.5,61.382 105.72,60.858 103.92,60.391 102.17,59.949 100.42,59.529 98.66,59.156 96.866,58.772 95.048,58.422 93.241,58.107 91.295,57.769 89.361,57.49 87.415,57.222 85.958,57.024 84.49,56.837 83.022,56.686 81.448,56.523 79.864,56.394 78.29,56.278 76.787,56.173 75.295,56.068 73.792,56.01 72.079,55.94 70.378,55.905 68.665,55.893 Z"
     style="fill:#ff0000;fill-opacity:1;stroke:#ff0008;stroke-width:0.02467;stroke-miterlimit:4;stroke-dasharray:none;stroke-opacity:1"
     id="1983-comics-title"
     inkscape:connector-curvature="0"
     sodipodi:nodetypes="ccccccccccccccccccccccccccccccccccccccccccccccccccccccccccccccc" />
  <path
     d="M 62.725,12.345 C 62.465,12.665 62.195,14.235 62.115,15.205 62.115,15.205 62.605,15.865 62.965,16.055 63.395,16.285 64.395,16.345 64.395,16.345 64.425,15.725 63.145,12.085 62.725,12.345 Z M 69.215,16.575 C 68.905,15.985 67.305,17.015 66.345,17.235 66.355,17.525 66.575,17.915 66.845,18.115 67.085,18.285 67.725,18.285 67.725,18.285 68.525,17.825 68.765,17.155 69.215,16.575 Z M 65.175,66.304 C 64.375,66.304 64.875,64.735 61.286,61.205 59.556,59.505 57.406,57.975 55.036,57.655 53.506,57.445 51.756,57.745 50.546,58.795 47.706,61.285 49.256,64.855 48.346,65.095 47.506,65.324 46.836,63.655 46.076,62.925 45.296,62.175 44.596,61.345 43.746,60.685 42.916,60.045 42.036,59.415 41.056,59.025 39.856,58.555 38.546,58.075 37.276,58.265 36.306,58.405 35.326,58.905 34.686,59.645 33.886,60.585 33.596,61.915 33.446,63.145 33.336,64.035 33.576,64.945 33.696,65.834 33.846,66.974 34.946,69.234 34.256,69.244 32.346,69.274 28.656,61.895 27.006,57.645 25.276,53.205 24.516,48.355 24.406,43.595 24.306,38.475 25.036,33.265 26.566,28.375 27.756,24.575 31.936,17.695 31.936,17.695 31.936,17.695 37.226,16.625 39.786,15.805 42.446,14.955 45.056,13.915 47.556,12.675 49.646,11.645 53.556,9.1148 53.556,9.1148 53.556,9.1148 54.556,9.7948 55.036,10.155 55.446,10.465 55.836,10.795 56.236,11.115 56.776,11.525 56.976,11.695 57.856,12.325 57.856,12.325 60.296,9.0648 61.326,7.3048 62.745,4.9448 65.175,-0.00521 64.925,-0.09521 66.205,1.4248 66.205,4.1748 65.795,5.6048 65.795,5.6048 66.995,6.3748 67.625,6.6948 68.115,6.9448 69.145,7.3348 69.145,7.3348 69.735,5.8448 70.355,3.8348 70.525,2.2248 72.035,3.1348 72.665,7.1548 71.325,10.135 71.995,10.685 70.955,13.755 68.575,20.165 68.575,20.165 71.475,22.015 73.005,22.785 73.935,23.255 74.895,23.655 75.875,24.005 76.765,24.325 78.585,24.795 78.585,24.795 78.585,24.795 82.585,23.585 84.355,22.505 86.595,21.145 88.635,19.375 90.275,17.335 91.815,15.415 93.555,11.825 93.815,10.845 93.815,10.845 95.515,10.835 96.765,10.935 97.415,14.605 98.395,16.135 101.47,17.775 103.76,19.005 109.73,23.825 111.85,37.585 113.8,50.255 109.21,67.454 107.1,68.814 106.33,69.314 106.21,66.334 105.76,65.105 105.14,63.455 104.66,61.755 103.87,60.185 103.27,58.975 102.61,57.765 101.71,56.755 100.67,55.585 99.485,54.445 98.045,53.825 97.185,53.455 96.195,53.345 95.265,53.445 94.525,53.525 93.785,53.795 93.155,54.195 92.125,54.835 91.315,55.785 90.565,56.735 89.795,57.695 89.445,59.445 88.875,59.635 88.275,59.815 86.745,57.485 84.265,56.435 82.515,55.695 79.845,54.635 75.475,55.675 71.795,56.545 68.785,59.855 67.985,60.895 66.115,63.305 66.285,66.294 65.175,66.304 Z"
     style="fill:#ff0000;fill-opacity:1;stroke:#ff0008;stroke-width:0.02117;stroke-miterlimit:4;stroke-dasharray:none;stroke-opacity:1"
     id="1993-cartoon-title-silhouette"
     inkscape:connector-curvature="0"
     sodipodi:nodetypes="ccccccccccccccccccccccccccccccccccccccccccccccccccccccccccccccc" />
  <path
     d="M 62.965,12.659 C 62.705,12.979 62.435,14.549 62.355,15.519 62.355,15.519 62.845,16.179 63.205,16.369 63.635,16.599 64.635,16.659 64.635,16.659 64.665,16.039 63.385,12.399 62.965,12.659 Z M 69.455,16.889 C 69.145,16.299 67.545,17.329 66.585,17.549 66.595,17.839 66.815,18.229 67.085,18.429 67.325,18.599 67.965,18.599 67.965,18.599 68.765,18.139 69.005,17.469 69.455,16.889 Z M 65.545,66.249 C 65.545,66.249 63.205,62.496 61.496,61.159 59.286,59.422 56.656,57.515 53.846,57.635 52.376,57.705 50.936,58.673 50.026,59.821 48.896,61.248 48.486,65.061 48.486,65.061 48.486,65.061 47.156,63.594 46.456,62.895 45.736,62.187 45.026,61.468 44.226,60.859 43.376,60.21 42.486,59.542 41.486,59.152 40.126,58.623 38.606,58.034 37.176,58.334 36.156,58.543 35.206,59.262 34.596,60.101 33.956,60.979 33.806,62.137 33.686,63.215 33.586,64.123 33.746,65.041 33.876,65.949 34.026,66.968 34.576,68.944 34.576,68.944 33.306,67.467 30.036,61.358 28.706,57.186 27.246,52.565 26.466,47.654 26.516,42.813 26.576,36.964 27.736,31.085 29.506,25.506 30.266,23.119 32.716,18.719 32.716,18.719 36.666,19.439 40.526,19.709 44.326,18.959 47.286,18.379 52.616,15.369 52.616,15.369 55.116,16.599 58.346,18.829 60.826,21.009 63.075,22.989 66.015,27.512 67.215,27.153 67.185,25.805 64.845,21.549 63.155,19.049 61.636,16.799 59.606,14.529 57.776,12.939 57.776,12.939 60.546,9.4388 61.666,7.5188 63.085,5.0888 65.125,1.1688 65.165,0.21879 67.925,4.3988 64.545,6.1488 65.725,8.1188 70.265,9.4988 70.485,11.659 70.065,14.759 72.705,10.409 69.185,7.9388 69.185,7.9388 69.775,6.4488 70.625,4.2988 70.765,2.5388 72.475,3.8088 72.875,7.7488 71.565,10.449 72.925,11.209 67.295,22.419 68.315,23.409 70.615,25.177 73.695,26.334 77.525,26.115 74.135,27.392 70.875,27.412 67.715,27.412 68.145,29.019 79.945,28.82 85.695,25.706 89.335,23.799 93.585,21.179 95.065,15.929 96.425,16.129 96.405,22.149 93.745,26.015 96.885,23.549 97.885,20.229 97.245,16.069 99.135,19.189 101.17,22.239 101.56,27.193 102.81,25.336 102.94,23.349 103.03,21.139 106.25,27.143 109.25,35.777 109.95,43.572 110.71,51.986 109.79,60.719 106.92,68.744 106.92,68.744 106.49,66.339 106.14,65.171 105.63,63.484 105.04,61.807 104.21,60.26 103.54,59.023 102.74,57.835 101.79,56.797 100.77,55.679 99.725,54.471 98.335,53.872 97.465,53.493 96.455,53.453 95.505,53.533 94.705,53.603 93.865,53.782 93.185,54.222 92.225,54.85 91.605,55.898 90.925,56.827 90.225,57.785 89.045,59.861 89.045,59.861 89.045,59.861 86.275,57.176 84.525,56.507 81.835,55.459 78.705,54.94 75.905,55.639 73.095,56.338 70.625,58.314 68.675,60.45 67.195,62.077 65.545,66.249 65.545,66.249 Z"
     style="fill:#ff0000;fill-opacity:1;stroke:#ff0008;stroke-width:0.02117;stroke-miterlimit:4;stroke-dasharray:none;stroke-opacity:1"
     id="1993-cartoon-title-shadow"
     inkscape:connector-curvature="0"
     sodipodi:nodetypes="ccccccccccccccccccccccccccccccccccccccccccccccccccccccccccccccc" />
  <path
     d="M 68.093,19.912 C 67.291,19.763 66.965,18.975 66.15,18.662 65.851,18.73 65.198,18.363 65.81,19.437 66.517,19.885 67.237,20.483 67.89,20.619 68.216,20.497 68.569,20.375 68.093,19.912 Z M 74.455,18.988 C 73.884,19.654 73,19.872 72.239,20.279 72.443,20.551 72.633,20.728 73.177,20.769 73.965,20.375 74.74,19.912 75.474,19.328 75.488,18.866 74.89,19.015 74.455,18.988 Z M 71.614,66.439 C 71.614,66.439 70.173,63.191 69.018,61.872 67.21,59.82 65.008,57.89 62.439,56.938 58.758,55.565 54.49,55.212 50.671,56.109 47.273,56.924 43.643,59.371 41.686,61.464 40.966,59.616 39.443,57.645 37.717,56.34 35.733,54.831 33.272,53.717 30.785,53.54 28.257,53.363 25.525,53.988 23.404,55.389 21.814,56.435 20.441,58.202 19.938,59.915 18.661,58.596 17.736,56.979 16.187,56.109 14.461,55.157 12.381,54.845 10.41,54.818 8.6703,54.79 6.8354,55.035 5.2858,55.81 3.2198,56.829 0.12075,60.39 0.12075,60.39 0.12075,60.39 5.2994,48.171 8.4936,42.381 11.076,37.718 14.026,33.26 17.179,28.965 20.305,24.711 23.703,20.646 27.292,16.786 31.682,12.056 39.253,4.8657 41.21,3.357 41.21,3.357 43.589,5.2055 44.812,6.0754 45.805,6.7823 46.824,7.4755 47.857,8.1279 48.972,8.8347 50.1,9.5007 51.255,10.153 52.546,10.887 53.838,11.608 55.17,12.246 56.529,12.899 57.943,13.456 59.326,14.054 60.4,14.516 62.534,15.441 62.534,15.441 62.738,14.516 62.398,12.437 62.643,10.969 62.996,8.8891 63.241,3.8327 63.241,3.8327 63.907,5.2735 64.6,8.2774 65.266,9.7318 65.905,16.623 67.971,13.619 70.255,13.606 72.511,13.592 75.95,18.213 76.765,9.7046 77.513,8.1279 79.185,5.8308 79.769,4.2813 80.218,7.6658 80,8.8211 79.878,11.077 79.81,12.246 79.429,14.543 79.429,14.543 79.429,14.543 81.523,13.905 82.542,13.538 83.888,13.048 85.206,12.505 86.511,11.92 87.748,11.363 88.944,10.751 90.154,10.14 91.595,9.4056 93.022,8.6716 94.435,7.8832 95.645,7.2172 96.841,6.5376 97.997,5.79 99.492,4.8114 102.37,2.691 102.37,2.691 107.32,6.8366 109.93,9.3648 113.34,13.076 116.76,16.8 120,20.742 122.84,24.942 125.69,29.155 128.23,33.586 130.35,38.208 132.92,43.781 135.82,51.814 136.59,55.538 136.59,55.538 134.98,54.709 134.11,54.437 133.45,54.22 132.76,54.084 132.07,54.016 131.35,53.948 130.63,53.934 129.92,54.056 128.83,54.233 127.81,54.437 126.77,55.049 124.48,54.192 124.02,53.921 122.57,53.689 119.81,53.268 116.91,53.159 114.19,53.757 111.65,54.301 109.22,55.47 107.08,56.938 105.25,58.161 103.6,59.86 102.36,61.519 101.01,59.82 100.25,58.8 98.812,57.957 96.692,56.721 94.177,55.987 91.73,56.041 87.245,56.122 82.814,57.903 78.899,60.091 76.086,61.668 71.614,66.439 71.614,66.439 Z"
     style="fill:#ff0000;fill-opacity:1;stroke:#ff0008;stroke-width:0.02878;stroke-miterlimit:4;stroke-dasharray:none;stroke-opacity:1"
     id="1940-comics-title-shadow"
     inkscape:connector-curvature="0"
     sodipodi:nodetypes="ccccccccccccccccccccccccccccccccccccccccccccccccccccccccccccccc" />
  <path
     d="M 60.574,23.213 C 59.982,23.067 59.458,22.63 58.862,22.379 58.584,22.577 58.663,22.855 58.65,23.107 59.034,23.133 59.791,23.954 60.153,23.848 60.463,23.769 60.476,23.451 60.574,23.213 Z M 64.655,22.021 C 63.729,22.14 62.828,22.471 61.933,22.829 61.87,22.988 62.078,23.266 62.221,23.504 63.067,23.583 63.844,23.729 64.659,22.643 64.802,22.432 64.683,22.233 64.655,22.021 Z M 67.618,62.057 C 66.574,60.124 64.327,58.23 62.076,56.854 59.153,55.053 55.79,53.809 52.388,53.372 47.887,52.776 43.134,53.094 38.831,54.51 35.693,55.543 32.688,57.118 30.384,59.727 30.384,59.727 28.173,57.82 26.916,57.079 25.857,56.456 24.691,56.006 23.553,55.569 22.613,55.212 21.66,54.894 20.693,54.669 18.985,54.259 17.264,53.914 15.517,53.822 14.034,53.729 12.551,53.888 11.068,54.034 9.8238,54.153 8.5793,54.312 7.3481,54.59 5.9579,54.907 4.5811,55.305 3.2439,55.821 2.2377,56.218 0.30478,57.251 0.30478,57.251 0.30478,57.251 5.1106,48.738 8.0233,44.832 10.962,40.9 14.166,37.14 17.767,33.831 21.673,30.229 26.002,27.092 30.53,24.312 33.853,22.273 41.015,19.122 41.015,19.122 41.823,20.049 42.988,20.578 44.021,21.081 45.133,21.624 46.338,22.061 47.529,22.418 48.429,22.683 49.343,22.868 50.27,23.027 51.196,23.173 52.15,23.239 53.09,23.305 53.95,23.358 54.811,23.358 55.685,23.398 56.585,23.425 58.491,23.213 58.491,23.213 57.895,19.32 57.485,17.056 58.465,14.541 58.001,13.561 57.776,9.4307 58.24,9.4571 59.113,10.304 59.948,11.059 61.14,11.337 61.589,11.443 62.802,10.596 63.692,10.477 64.7,10.344 66.738,10.675 66.738,10.675 67.346,9.2718 67.136,8.5833 67.542,7.1005 69.567,12.714 69.874,13.376 70.838,16.58 71.668,19.334 71.716,23.61 75.02,23.954 75.02,23.954 77.47,23.689 78.673,23.438 80.063,23.147 81.424,22.723 82.777,22.286 83.549,22.034 84.31,21.756 85.064,21.465 86.106,21.055 87.161,20.658 88.152,20.128 89.393,19.479 90.582,18.711 91.707,17.877 92.463,17.321 93.844,16.024 93.844,16.024 99.048,18.182 103.43,20.009 107.84,22.71 111.78,25.132 115.5,27.979 118.85,31.183 123.14,35.287 127.08,39.828 130.29,44.806 132.85,48.751 136.42,57.476 136.42,57.476 136.42,57.476 133.95,55.887 132.62,55.278 131.23,54.629 129.78,54.14 128.31,53.729 126.69,53.279 125.02,52.988 123.36,52.776 121.93,52.591 120.47,52.432 119.01,52.524 117.29,52.617 115.58,53.014 113.92,53.425 112.55,53.769 111.2,54.193 109.91,54.722 108.65,55.225 107.38,55.755 106.25,56.496 104.9,57.396 102.56,59.66 102.56,59.66 100.91,58.125 98.002,56.655 95.438,55.821 92.185,54.775 88.685,54.338 85.269,54.484 81.636,54.629 77.9,55.225 74.61,56.801 71.987,58.058 69.529,59.674 67.618,62.057 Z"
     style="fill:#ff0000;fill-opacity:1;stroke:#ff0008;stroke-width:0.02803;stroke-miterlimit:4;stroke-dasharray:none;stroke-opacity:1"
     id="1957-comics-title-silhouette"
     inkscape:connector-curvature="0"
     sodipodi:nodetypes="ccccccccccccccccccccccccccccccccccccccccccccccccccccccccccccccc" />
  <path
     d="M 68.955,20.427 C 68.453,19.613 67.084,19.356 66.636,18.678 65.768,18.569 65.849,18.976 66.121,19.464 66.69,19.925 67.233,20.4 68.06,20.671 68.372,20.644 68.697,20.644 68.955,20.427 Z M 74.854,19.071 C 74.285,19.627 73.512,19.966 72.766,20.332 72.915,20.603 72.983,20.929 73.851,20.725 74.556,20.21 75.587,19.966 75.926,19.139 75.641,18.935 75.248,18.99 74.854,19.071 Z M 71.817,66.333 C 71.817,66.333 70.379,63.16 69.253,61.872 67.477,59.851 65.348,57.911 62.825,56.949 59.159,55.565 54.915,55.199 51.104,56.094 47.713,56.908 43.835,59.512 41.882,61.6 41.163,59.756 39.861,57.667 38.18,56.325 36.172,54.738 33.623,53.612 31.073,53.436 28.551,53.26 25.825,53.897 23.709,55.281 22.028,56.365 20.495,58.305 19.993,60.014 19.044,58.413 17.932,57.003 16.413,56.094 14.731,55.104 12.684,54.752 10.744,54.711 9.0085,54.67 7.1912,54.941 5.6316,55.701 3.4482,56.759 0.12558,60.461 0.12558,60.461 0.12558,60.461 5.6045,48.256 8.8593,42.424 11.477,37.759 14.338,33.229 17.498,28.917 20.604,24.658 23.981,20.603 27.588,16.765 31.941,12.1 39.522,5.0889 41.475,3.5835 41.475,3.5835 43.93,5.3872 45.191,6.2416 46.208,6.9197 47.252,7.5707 48.297,8.2216 49.422,8.9133 50.534,9.5913 51.687,10.242 52.975,10.975 54.277,11.666 55.593,12.331 56.949,13.022 58.305,13.701 59.72,14.297 60.777,14.745 62.947,15.518 62.947,15.518 62.92,14.568 62.893,12.697 62.961,11.219 63.056,8.9811 63.734,3.9497 63.734,3.9497 64.398,5.3872 64.778,8.303 65.443,9.7541 66.65,7.9368 69.064,6.9061 71.138,6.8248 73.335,6.7434 75.994,8.1809 76.916,9.7676 77.662,8.1945 79.275,5.8619 79.859,4.3159 80.306,7.6927 80.13,8.859 80.021,11.137 79.967,12.317 79.614,14.65 79.614,14.65 79.614,14.65 81.811,13.823 82.91,13.389 84.225,12.873 85.541,12.331 86.843,11.775 88.091,11.246 89.352,10.731 90.572,10.134 91.996,9.4286 93.366,8.6285 94.749,7.8554 95.916,7.1774 97.095,6.5264 98.235,5.7941 99.672,4.8583 102.41,2.797 102.41,2.797 107.35,6.9333 110.03,9.4422 113.45,13.158 116.88,16.874 120.06,20.848 122.89,25.024 125.74,29.229 128.34,33.623 130.46,38.234 133.02,43.835 135.82,51.931 136.59,55.647 136.59,55.647 135.16,54.725 134.36,54.426 133.71,54.182 133.02,54.074 132.33,54.006 131.61,53.938 130.89,53.924 130.19,54.046 129.1,54.223 128.09,54.426 127.04,55.036 124.76,54.182 124.3,53.911 122.85,53.68 120.1,53.26 117.22,53.192 114.5,53.748 111.96,54.263 109.49,55.281 107.32,56.691 105.48,57.898 103.79,59.607 102.56,61.261 101.22,59.566 100.53,58.725 99.143,57.939 97.028,56.732 94.519,55.972 92.078,56.026 87.602,56.108 83.195,57.911 79.275,60.068 76.427,61.627 71.817,66.333 71.817,66.333 Z"
     style="fill:#ff0000;fill-opacity:1;stroke:#ff0008;stroke-width:0.02871;stroke-miterlimit:4;stroke-dasharray:none;stroke-opacity:1"
     id="1940-comics-title-silhouette"
     inkscape:connector-curvature="0"
     sodipodi:nodetypes="ccccccccccccccccccccccccccccccccccccccccccccccccccccccccccccccc" />
</svg>
