<?xml version="1.0" encoding="UTF-8" standalone="no"?>
<svg
   xmlns:dc="http://purl.org/dc/elements/1.1/"
   xmlns:cc="http://creativecommons.org/ns#"
   xmlns:rdf="http://www.w3.org/1999/02/22-rdf-syntax-ns#"
   xmlns:svg="http://www.w3.org/2000/svg"
   xmlns="http://www.w3.org/2000/svg"
   xmlns:sodipodi="http://sodipodi.sourceforge.net/DTD/sodipodi-0.dtd"
   xmlns:inkscape="http://www.inkscape.org/namespaces/inkscape"
   width="117.5523mm"
   height="51.635941mm"
   version="1.1"
   viewBox="0 0 117.55231 51.119582"
   id="svg989"
   sodipodi:docname="anim-44points.svg"
   inkscape:version="0.92.2 5c3e80d, 2017-08-06">
  <metadata
     id="metadata995">
    <rdf:RDF>
      <cc:Work
         rdf:about="">
        <dc:format>image/svg+xml</dc:format>
        <dc:type
           rdf:resource="http://purl.org/dc/dcmitype/StillImage" />
        <dc:title></dc:title>
      </cc:Work>
    </rdf:RDF>
  </metadata>
  <defs
     id="defs993" />
  <sodipodi:namedview
     pagecolor="#ffffff"
     bordercolor="#666666"
     borderopacity="1"
     objecttolerance="10"
     gridtolerance="10"
     guidetolerance="10"
     inkscape:pageopacity="0"
     inkscape:pageshadow="2"
     inkscape:window-width="1680"
     inkscape:window-height="927"
     id="namedview991"
     showgrid="false"
     showguides="true"
     inkscape:guide-bbox="true"
     inkscape:zoom="0.16413793"
     inkscape:cx="470.35976"
     inkscape:cy="-464.85846"
     inkscape:window-x="1"
     inkscape:window-y="0"
     inkscape:window-maximized="0"
     inkscape:current-layer="svg989"
     inkscape:lockguides="false"
     inkscape:measure-start="-2589.52,1229.19"
     inkscape:measure-end="-2545.21,1198.89">
    <inkscape:grid
       type="xygrid"
       id="grid2406"
       originx="152.41769"
       originy="-150.69329" />
  </sodipodi:namedview>
  <path
     style="fill:#800080;fill-opacity:1;stroke:#fa0000;stroke-width:0.10000001;stroke-miterlimit:4;stroke-dasharray:none;stroke-opacity:1"
     d="m 58.769733,44.401384 c 0,0 -2.2198,-5.27327 -3.98655,-7.47691 -1.22803,-1.5317 -2.823875,-2.7652 -4.470175,-3.83471 -1.84858,-1.20092 -3.8786,-2.15221 -5.97425,-2.83612 -3.16339,-1.03236 -6.50431,-1.46011 -9.80747,-1.86254 -1.91622,-0.23345 -3.85209,-0.31134 -5.78247,-0.31714 -2.65594,-0.008 -7.95837,0.38853 -7.95837,0.38853 0,0 0.52639,-2.20039 0.55063,-3.32285 0.0271,-1.25422 -0.12147,-2.52648 -0.45439,-3.73602 -0.4947,-1.79728 -1.20578,-3.57816 -2.26074,-5.11504 -1.1164,-1.62639 -2.64607,-2.95181 -4.19123,-4.17819 -1.41831,-1.12571 -3.02058,-2.00572 -4.6084901,-2.8759897 -1.55477,-0.8521 -4.80138,-2.28848 -4.80138,-2.28848 l 19.4537501,0.0628 16.27453,-0.0628 c 0,0 0.3026,2.65901 0.88931,3.8315497 0.631,1.26107 1.54517,2.46332 2.72473,3.23603 1.26388,0.82795 2.8543,1.04444 4.34489,1.29147 1.76251,0.2921 4.714385,0.50332 5.355465,0.21195 0.42845,-0.19473 0.76446,-0.41253 0.78674,-0.99874 l 0.62193,-6.0777997 1.09422,4.0639397 c 0,0 1.46223,-0.23276 2.19933,-0.23 0.74675,0.003 2.2263,0.24969 2.2263,0.24969 l 1.10935,-3.8440097 0.65018,5.7001897 c 0.0482,0.55531 0.0763,1.03851 0.69768,1.24252 0.9443,0.31005 3.32138,0.10347 4.94458,-0.18936 1.76715,-0.3188 3.6501,-0.65044 5.11578,-1.68787 1.02026,-0.72215 1.73505,-1.84891 2.29197,-2.96796 0.58978,-1.1850797 1.04386,-3.8315497 1.04386,-3.8315497 l 17.03445,-0.0286 18.641117,0.0286 c 0,0 -3.27937,1.66904 -4.89221,2.55373 -1.47577,0.8095097 -3.02926,1.5099997 -4.3763,2.5192997 -1.43517,1.07534 -2.7963,2.29646 -3.885747,3.72095 -1.07404,1.40434 -1.99776,2.97407 -2.53701,4.6578 -0.45757,1.42871 -0.57205,2.96767 -0.54391,4.4676 0.0235,1.25223 0.59365,3.71017 0.59365,3.71017 0,0 -5.88032,-0.45023 -8.82442,-0.40097 -2.85043,0.0477 -5.71202,0.21634 -8.5259,0.67383 -2.61181,0.42464 -5.22986,0.97588 -7.70417,1.91378 -1.87556,0.71094 -3.69765,1.6251 -5.33412,2.78489 -1.53918,1.09084 -2.9967,2.36033 -4.13358,3.86583 -1.57836,2.09012 -3.59156,6.9885 -3.59156,6.9885 z"
     id="path1510"
     inkscape:connector-curvature="0"
     sodipodi:nodetypes="caaaaacaaaaacccaasscccacccssaacccaaaaacaaaaac" />
  <path
     style="fill:#800080;fill-opacity:1;stroke:#ff0000;stroke-width:0.10000001;stroke-miterlimit:4;stroke-dasharray:none;stroke-opacity:1"
     d="m 58.81129,50.164534 c 0,0 -1.00042,-7.75713 -2.09302,-11.49561 -0.66103,-2.26182 -1.47769,-4.51468 -2.67836,-6.54228 -0.78724,-1.32944 -1.792232,-2.54291 -2.917052,-3.60213 -1.03286,-0.97263 -2.10573,-2.06029 -3.46243,-2.47525 -1.75599,-0.5371 -3.8132,-0.56084 -5.50687,0.1487 -2.22964,0.93407 -5.2243,5.02997 -5.2243,5.02997 0,0 0.1703,-3.10403 -0.34206,-4.52848 -1.13436,-3.15372 -3.33414,-5.94414 -5.80246,-8.21131 -2.0329,-1.86722 -4.60663,-3.10066 -7.14367,-4.18813 -2.63888,-1.13112 -5.47246,-1.77042 -8.27868,-2.37724 -2.81137,-0.60793 -5.6649701,-1.09801 -8.5368701,-1.25788 -2.26495,-0.12608 -6.80117998,0.23864 -6.80117998,0.23864 C 7.4798779,6.7491043 14.783908,4.9107243 22.568978,3.5293343 c 8.46962,-1.50287 17.37317,-1.96181 25.78987,-0.90568 0,0 -2.8115,1.9001 -3.50076,3.36446 -0.55407,1.17714 -0.81087,2.69961 -0.29092,3.89222 1.07311,2.4614197 3.61506,4.8495797 6.29435,5.0271597 1.20195,0.0797 2.591512,-0.44446 3.096642,-1.86284 0,0 0.37201,-3.7518697 0.59262,-5.7202297 0.22061,-1.96835 0.73418,-6.08914 0.73418,-6.08914 l 0.54417,3.70395 c 0,0 1.96298,-0.67698 2.98216,-0.67471 1.03797,0.002 3.03407,0.70066 3.03407,0.70066 l 0.55159,-3.68169 c 0,0 0.36576,4.17261 0.57488,6.14089 0.20912,1.96828 0.67405,5.6684697 0.67405,5.6684697 0.78225,1.86891 1.7698,1.83681 2.90938,1.79896 2.621,-0.0871 5.10885,-2.2911 6.40215,-4.57245 0.6206,-1.0947297 0.74367,-2.5834497 0.30489,-3.7628697 -0.65462,-1.75955 -4.01341,-3.95138 -4.01341,-3.95138 6.00356,-0.79574 15.79271,-0.85354 23.53315,0.42639 8.54438,1.41287 17.21119,3.67147 24.74573,7.9165297 0,0 -5.76022,-0.39232 -8.62989,-0.18319 -3.15221,0.22972 -6.30329,0.73363 -9.35024,1.57344 -2.71216,0.74754 -5.38954,1.7248 -7.86512,3.06125 -2.26828,1.22454 -4.47822,2.66133 -6.29894,4.48604 -1.51569,1.51901 -2.89396,3.27257 -3.72299,5.25181 -0.78219,1.86741 -1.06739,5.9793 -1.06739,5.9793 0,0 -2.43595,-3.27024 -4.13637,-4.30331 -1.24555,-0.75672 -2.73835,-1.3131 -4.19374,-1.23645 -1.76245,0.0928 -3.46712,0.98269 -4.89318,2.0225 -1.24509,0.90786 -2.16852,2.22244 -2.98759,3.52765 -1.56715,2.49729 -2.72476,5.26484 -3.59169,8.08279 -1.09111,3.54664 -1.97934,10.95467 -1.97934,10.95467 z"
     id="path874"
     inkscape:connector-curvature="0"
     sodipodi:nodetypes="caaaaacaaaaacacaaaczccacczcaaacscaaaaacaaaaac" />
  <path
     style="fill:#800080;fill-opacity:1;stroke:#ff0000;stroke-width:0.10000001;stroke-miterlimit:4;stroke-dasharray:none;stroke-opacity:1"
     d="m 58.664079,44.320284 -3.38589,-7.43814 c 0,0 -0.69307,-4.20502 -1.52441,-6.14469 -0.71503,-1.66829 -1.781621,-3.18288 -2.923061,-4.59411 -1.04281,-1.28929 -2.22918,-2.48128 -3.54618,-3.48888 -1.65262,-1.26437 -3.43422,-2.438 -5.38949,-3.14984 -1.83664,-0.66866 -3.8254,-0.96122 -5.77978,-0.98856 -2.14046,-0.0299 -4.30319,0.3047 -6.3579,0.90524 -1.89392,0.55355 -3.73276,1.37791 -5.3873,2.45302 -1.60026,1.03983 -3.06435,2.33012 -4.28469,3.79738 -1.0964,1.31824 -1.92971,2.85225 -2.65318,4.40675 -0.6094,1.3094 -1.08104,2.69167 -1.40087,4.10008 -0.34138,1.50331 -0.54153,4.59295 -0.54153,4.59295 -1.73395,-8.29761 0.24405,-17.00518 5.5013,-22.78526 5.85526,-6.4375697 14.89061,-10.2294897 24.68428,-8.4984497 0,0 -3.63415,0.3863 -4.30754,1.78745 -0.45188,0.9402397 0.21797,2.1915097 0.86924,3.0064297 1.58196,1.9795 4.26001,2.84935 6.65751,3.66971 2.26577,0.77529 7.097441,1.11334 7.097441,1.11334 0,0 0.2064,-1.82085 0.30687,-3.09837 0.10047,-1.27752 0.26633,-4.5675097 0.26633,-4.5675097 l 0.69082,4.1732697 c 0,0 0.69487,-0.22302 1.17316,-0.23671 0.47829,-0.0137 1.65727,0.23671 1.65727,0.23671 l 0.68365,-4.0686297 c 0,0 0.2211,3.4087897 0.32335,4.6643497 0.10225,1.25556 0.26858,2.87021 0.26858,2.87021 0,0 5.30813,-0.27223 7.76999,-1.16571 2.28548,-0.82946 4.8539,-1.79056 6.22834,-3.79614 0.55981,-0.81686 1.00389,-2.05615 0.52654,-2.9237797 -0.71465,-1.29894 -4.11931,-1.67721 -4.11931,-1.67721 8.01739,-1.80685 18.40052,1.80911 24.25782,7.9866397 5.416771,5.71292 7.720351,14.2717 6.182511,22.79443 0,0 -0.68309,-3.61019 -1.23132,-5.35925 -0.45715,-1.45847 -0.96709,-2.91845 -1.707831,-4.2554 -0.95288,-1.71982 -2.07308,-3.38795 -3.47622,-4.76524 -1.31612,-1.29186 -2.89048,-2.33163 -4.52954,-3.17694 -1.57375,-0.81162 -3.27602,-1.40125 -5.00689,-1.77475 -1.50657,-0.32509 -3.06622,-0.41398 -4.60728,-0.38981 -1.70706,0.0268 -3.45187,0.10234 -5.08752,0.59167 -2.22244,0.66487 -4.32423,1.78537 -6.21847,3.12445 -1.49131,1.05424 -2.82435,2.35819 -3.952,3.79479 -1.1024,1.40443 -2.01132,2.98106 -2.68599,4.6341 -0.80116,1.96299 -1.57181,6.16329 -1.57181,6.16329 z"
     id="path877"
     inkscape:connector-curvature="0"
     sodipodi:nodetypes="ccaaaaaaaaaacacaaaczcczcczcaaacacaaaaaaaaaacc" />
  <path
     style="fill:#800080;fill-opacity:1;stroke:#fa0000;stroke-width:0.10000001;stroke-miterlimit:4;stroke-dasharray:none;stroke-opacity:1"
     d="m 58.632699,46.528304 c 0,0 -1.49392,-5.94965 -2.93325,-8.6228 -0.9018,-1.67484 -2.13905,-3.1779 -3.498601,-4.50829 -1.24438,-1.21769 -2.67105,-2.26978 -4.19483,-3.112 -2.36209,-1.30558 -4.88742,-2.46439 -7.5441,-2.93983 -2.56629,-0.45927 -5.26063,-0.36027 -7.81999,0.13616 -2.3538,0.45656 -6.71719,2.57268 -6.71719,2.57268 0,0 0.53473,-1.51456 0.26692,-2.20467 -0.33141,-0.85398 -1.26667,-1.37786 -2.08414,-1.79121 -1.11954,-0.5661 -2.41418,-0.89815 -3.66757,-0.84468 -1.81326,0.0773 -3.57231,0.83201 -5.18248,1.66942 -1.45465,0.75653 -2.76113,1.8104 -3.92315,2.96713 -1.5948501,1.58759 -4.0968501,5.36581 -4.0968501,5.36581 0.32916,-2.3873 6.3779701,-12.16964 11.1087701,-17.01863 5.44844,-5.58455 13.87383,-11.3696497 19.27869,-13.2735497 l 0.88391,3.18255 0.54258,2.3636497 6.28304,1.29797 7.854901,1.66159 0.84422,-2.86695 0.68661,-2.9690397 1.74396,2.8764297 2.16855,0.18508 2.16319,-0.18508 1.76546,-2.8360797 0.84519,3.1033997 0.80132,2.68954 8.24722,-1.8336 5.721253,-1.12326 0.6676,-2.4510097 0.81,-3.0952 c 5.83941,2.14922 14.02008,7.4918597 19.4687,13.1052497 4.871628,5.01894 9.810098,13.08512 11.193808,17.74827 0,0 -1.90668,-3.30273 -3.14321,-4.73966 -1.03524,-1.20302 -2.21878,-2.30157 -3.53145,-3.19369 -1.4969,-1.01733 -3.09742,-2.03135 -4.868568,-2.40377 -1.53263,-0.32226 -3.20853,-0.28934 -4.69386,0.20725 -1.03551,0.3462 -2.18687,0.88957 -2.70127,1.85265 -0.38568,0.7221 -0.0282,2.45578 -0.0282,2.45578 0,0 -4.72463,-2.26296 -7.27645,-2.65867 -2.59847,-0.40294 -5.30426,-0.18608 -7.88142,0.33612 -2.35652,0.47749 -4.668203,1.33294 -6.757893,2.52223 -1.77298,1.00904 -3.34575,2.37429 -4.76799,3.83677 -1.17989,1.21327 -2.27099,2.55162 -3.0714,4.04276 -1.41803,2.64177 -2.96203,8.49318 -2.96203,8.49318 z"
     id="path1513"
     inkscape:connector-curvature="0"
     sodipodi:nodetypes="caaaaacaaaaacacccccccccccccccccacaaaaacaaaaac" />
  <path
     style="fill:#800080;fill-opacity:1;stroke:#ff0000;stroke-width:0.10000001;stroke-miterlimit:4;stroke-dasharray:none;stroke-opacity:1"
     d="m 58.779965,49.810134 c 0,0 -1.95546,-2.41624 -3.09637,-3.4633 -1.09939,-1.00896 -2.32937,-1.87378 -3.580517,-2.68698 -1.08033,-0.70217 -2.23167,-1.29032 -3.37555,-1.88333 -1.10881,-0.57484 -2.22566,-1.13942 -3.3777,-1.62182 -1.49774,-0.62716 -3.03666,-1.15561 -4.58346,-1.64953 -1.47972,-0.47249 -2.97236,-0.91396 -4.48776,-1.25512 -1.33783,-0.30118 -2.69821,-0.49434 -4.05452,-0.69665 -1.78362,-0.26606 -3.57049,-0.52496 -5.36719,-0.67982 -1.59971,-0.13788 -3.20629,-0.20398 -4.81184,-0.22132 -1.56836,-0.0169 -3.13859,0.0165 -4.70397,0.11462 -1.74095,0.10916 -3.48343,0.25528 -5.20651,0.52701 -1.40797,0.22203 -4.1804101,0.89951 -4.1804101,0.89951 1.65814,-4.50705 6.1920001,-11.94372 10.5269501,-17.01046 4.77206,-5.57764 10.11934,-10.4030397 16.70702,-14.3463697 1.71714,1.82848 3.34892,2.93599 5.30317,3.95215 2.92423,1.5205397 6.16019,2.4232297 9.37971,3.1287897 0.76697,0.16808 1.58305,0.46093 2.34139,0.25746 0.711087,-0.19079 1.384027,-0.68715 1.779747,-1.30799 0.45433,-0.71278 0.61847,-1.64955 0.49861,-2.4862597 l -1.13378,-7.9147 2.05142,6.8645 c 0,0 2.21504,-0.79352 3.37156,-0.82386 1.01162,-0.0265 2.98285,0.565 2.98285,0.565 l 1.51901,-6.4905 -0.31429,7.405 c 1.09205,0.75565 0.98199,2.7565497 0.95483,4.4335097 0,0 2.90039,-0.32851 4.32453,-0.63636 1.84882,-0.39965 3.6911,-0.88103 5.45405,-1.56645 2.10098,-0.81684 4.19069,-1.7449697 6.05378,-3.0139097 1.00163,-0.68221 2.69968,-2.43512 2.69968,-2.43512 6.22855,3.92474 12.88973,9.6632197 17.971145,15.8161197 3.84159,4.65165 7.87995,12.31302 9.17327,15.60168 0,0 -2.72163,-0.44187 -4.08695,-0.63216 -1.876,-0.26148 -3.74953,-0.56904 -5.639125,-0.70006 -1.47808,-0.10248 -2.96305,-0.0953 -4.4444,-0.0664 -1.60597,0.0313 -3.21123,0.12474 -4.81184,0.25964 -1.37819,0.11616 -2.75348,0.27415 -4.12217,0.47307 -1.67542,0.2435 -3.34416,0.53806 -5.00204,0.88124 -1.45409,0.30099 -2.91503,0.59302 -4.33349,1.03226 -1.45189,0.44958 -2.85623,1.04395 -4.25652,1.63498 -1.35846,0.57338 -2.69708,1.19512 -4.01705,1.85229 -1.32984,0.6621 -2.68477,1.29203 -3.92837,2.10462 -1.11852,0.73086 -2.1731,1.56681 -3.15252,2.47564 -1.09543,1.01649 -3.02438,3.30939 -3.02438,3.30939 z"
     id="path879"
     inkscape:connector-curvature="0"
     sodipodi:nodetypes="caaaaaaaaaaacacsaaasccaccccaaacacaaaaaaaaaaacc" />
  <path
     style="fill:#800080;fill-opacity:1;stroke:#ff0000;stroke-width:0.10000001;stroke-miterlimit:4;stroke-dasharray:none;stroke-opacity:1"
     d="m 58.959295,44.173404 -3.36456,-0.0653 -3.465857,0.0719 -4.01505,0.29373 -4.25177,0.67202 -4.444,0.56667 -4.37163,0.86328 -4.54309,0.94443 -4.36008,1.01093 -4.52411,1.46512 -4.28672,1.25669 -4.55177,1.67496 -5.4215101,2.48667 c 1.24001,-9.788 3.1146601,-18.9006 6.2061101,-27.91889 2.859,-8.34021 9.14835,-19.9424697 11.30801,-23.9107797 0,0 5.11557,2.30982 7.81863,3.01304 2.16491,0.56322 4.41355,0.77521 6.64411,0.94446 2.44247,0.18533 4.90975,0.3089 7.34809,0.0754 2.0499,-0.1963 6.053207,-1.23462 6.053207,-1.23462 l 1.24187,-5.05535 1.39465,-5.17472 1.18678,3.58514999 c 0,0 1.57766,-0.57576 2.39869,-0.56125 0.71473,0.0126 2.06957,0.56206 2.06957,0.56206 l 1.30222,-3.66057999 1.25816,5.36534 1.31474,5.07679 c 0,0 3.55811,0.77522 5.36755,0.92211 3.08131,0.25014 6.19681,0.22093 9.27402,-0.0754 2.5082,-0.24153 5.0119,-0.68029 7.43197,-1.38217 2.02949,-0.58859 5.885525,-2.3554 5.885525,-2.3554 1.99895,3.02755 8.41369,15.9708197 11.31523,24.4788297 3.00533,8.81234 5.45598,20.23147 6.01904,27.26279 l -3.65636,-1.74115 -3.58969,-1.32508 -4.19876,-1.51941 -4.52498,-1.46559 -4.359695,-1.1859 -4.7195,-1.2083 -4.02056,-0.77476 -4.09439,-0.47979 -4.77687,-0.75908 -4.97844,-0.55707 -4.25371,-0.15885 z"
     id="path1547"
     inkscape:connector-curvature="0"
     sodipodi:nodetypes="cccccccccccccacaaaccccaccccaaacsccccccccccccc" />
  <path
     style="fill:#800080;fill-opacity:1;stroke:#ff0000;stroke-width:0.10000001;stroke-miterlimit:4;stroke-dasharray:none;stroke-opacity:1"
     d="m 58.680232,46.111074 c 0,0 -2.15835,-2.39452 -3.43914,-3.35661 -1.48697,-1.11697 -3.151224,-2.00345 -4.854924,-2.74917 -1.54843,-0.67776 -3.16943,-1.22689 -4.8292,-1.54653 -1.47043,-0.28318 -2.98485,-0.37507 -4.48117,-0.31681 -1.79572,0.0699 -3.59355,0.3418 -5.33197,0.79719 -1.86548,0.48866 -5.40625,2.05952 -5.40625,2.05952 0,0 -2.39521,-1.59267 -3.66859,-2.25527 -1.0363,-0.53923 -2.10491,-1.03219 -3.21639,-1.39178 -1.13928,-0.36858 -2.31692,-0.64886 -3.50769,-0.77481 -1.40075,-0.14815 -2.82067,-0.0731 -4.22559,0.0281 -1.21928,0.0879 -2.44794,0.20115 -3.63285,0.50173 -1.27596,0.32368 -3.6964801,1.38978 -3.6964801,1.38978 1.15645,-5.92527 2.2355201,-10.88467 3.9175201,-15.87731 1.89095,-5.61285 4.36969,-11.42054 6.81935,-16.4295497 0,0 4.50066,1.15327 6.76981,1.64837 2.22828,0.48618 4.47796,0.86854 6.71795,1.29756 2.19533,0.42047 4.37487,0.9371297 6.58794,1.2511197 2.20298,0.31256 6.64553,0.62787 6.64553,0.62787 l 1.42515,-2.3770397 1.63368,-3.22337 2.50093,5.9723997 c 0,0 4.845834,0.32805 7.272384,0.32534 2.48891,-0.003 7.45851,-0.35034 7.45851,-0.35034 l 2.51014,-6.0222997 1.4383,3.12667 1.55376,2.4961297 c 0,0 4.34677,-0.47977 6.51691,-0.74696 2.08379,-0.2565597 4.17233,-0.4853997 6.24469,-0.8220497 2.39516,-0.38909 4.78163,-0.84194 7.14701,-1.38337 2.3164,-0.53021 6.89144,-1.82473 6.89144,-1.82473 1.11558,1.45771 4.975828,11.1551897 6.869348,16.9491597 1.6349,5.00262 2.67553,8.73243 3.8533,15.34925 0,0 -2.76108,-1.28599 -4.23295,-1.63404 -1.40763,-0.33285 -2.87295,-0.42606 -4.31936,-0.41591 -0.956618,0.007 -1.905448,0.18054 -2.852568,0.31515 -1.49121,0.21194 -3.02325,0.29701 -4.45164,0.77481 -1.20328,0.4025 -2.30942,1.06682 -3.38802,1.73503 -0.83926,0.51992 -2.38268,1.75923 -2.38268,1.75923 0,0 -3.82164,-1.77757 -5.86022,-2.24839 -2.00964,-0.46414 -4.10231,-0.60383 -6.16391,-0.54135 -1.68303,0.051 -3.35943,0.35 -4.99604,0.74588 -1.47574,0.35696 -2.93483,0.82648 -4.31432,1.46072 -1.37721,0.63319 -2.69715,1.41223 -3.91098,2.32011 -1.31594,0.98424 -3.61072,3.35657 -3.61072,3.35657 z"
     id="path883"
     inkscape:connector-curvature="0"
     sodipodi:nodetypes="caaaaacaaaaacscaaaccccaccccaaacscaaaaacaaaaac" />
  <path
     style="fill:#800080;fill-opacity:1;stroke:#fa0000;stroke-width:0.10000001;stroke-miterlimit:4;stroke-dasharray:none;stroke-opacity:1"
     d="m 58.757751,46.829964 c 0,0 -4.0855,-4.23809 -6.17396,-6.31176 -1.492393,-1.48182 -4.541563,-4.37967 -4.541563,-4.37967 0,0 -3.11505,1.45811 -4.68106,2.16866 -1.72189,0.78127 -5.18399,2.30299 -5.18399,2.30299 0,0 -1.82567,-2.36024 -2.71884,-3.55522 -0.88957,-1.19016 -2.62924,-3.59966 -2.62924,-3.59966 0,0 -2.66434,1.96538 -4.04724,2.87382 -1.27145,0.83523 -3.90262,2.36587 -3.90262,2.36587 0,0 -1.75761,-2.0676 -2.59549,-3.13441 -0.87431,-1.11317 -2.53578,-3.40616 -2.53578,-3.40616 0,0 -3.74322,1.25111 -5.61504,1.87605 -2.10605,0.70315 -6.3186101,2.10806 -6.3186101,2.10806 0,0 8.3209901,-10.44836 12.5490301,-15.61779 4.36977,-5.34271 13.24795,-15.9137297 13.24795,-15.9137297 0,0 0.66242,2.77242 0.93176,4.17149 0.2178,1.13134 0.55277,3.4118497 0.55277,3.4118497 0,0 6.04784,1.13574 9.05003,1.80639 2.50997,0.5607 7.48968,1.8531 7.48968,1.8531 l 1.419073,-3.4711 1.45177,-3.3856197 1.34879,2.9438497 c 0,0 1.935,-0.0332 2.9026,-0.0332 0.96751,0 2.90234,0.0332 2.90234,0.0332 l 1.29757,-2.9438497 1.5032,3.6599597 1.36802,3.19676 c 0,0 5.31193,-1.44164 7.99797,-2.03599 2.85323,-0.63135 8.61509,-1.6235 8.61509,-1.6235 0,0 0.32163,-2.4016597 0.53047,-3.5947397 0.23391,-1.33628 0.80883,-3.9886 0.80883,-3.9886 0,0 9.4858,11.0266597 14.10246,16.6453197 4.027749,4.90192 11.860249,14.8862 11.860249,14.8862 0,0 -4.24984,-1.31697 -6.36141,-2.01661 -1.90496,-0.63118 -5.689849,-1.9675 -5.689849,-1.9675 0,0 -1.67993,2.28734 -2.55241,3.40615 -0.82733,1.06091 -2.54273,3.13442 -2.54273,3.13442 0,0 -3.13986,-1.98067 -4.68697,-3.00602 -1.09868,-0.72814 -3.26288,-2.23367 -3.26288,-2.23367 0,0 -1.81647,2.60657 -2.77347,3.87399 -0.84219,1.11539 -2.61076,3.28089 -2.61076,3.28089 0,0 -3.1668,-1.40331 -4.74338,-2.12011 -1.70015,-0.77299 -5.08553,-2.35154 -5.08553,-2.35154 0,0 -2.98059,3.12359 -4.50288,4.654 -2.02993,2.04077 -6.17395,6.03743 -6.17395,6.03743 z"
     id="path1507"
     inkscape:connector-curvature="0"
     sodipodi:nodetypes="cacacacacacacacacaccccaccccacacacacacacacacac" />
  <path
     style="fill:#800080;fill-opacity:1;stroke:#fa0000;stroke-width:0.10000001;stroke-miterlimit:4;stroke-dasharray:none;stroke-opacity:1"
     d="m 58.575408,47.904294 c 0,0 -0.2057,-2.97875 -0.88267,-4.2619 -0.58032,-1.09995 -1.52461,-2.04287 -2.58846,-2.68699 -0.65758,-0.39814 -1.44462,-0.63796 -2.21327,-0.64788 -1.09761,-0.0142 -3.1833,0.84324 -3.1833,0.84324 0,0 1.19877,-2.49416 0.9808,-3.77629 -0.30147,-1.77335 -1.44129,-3.59468 -3.00636,-4.48137 -2.09502,-1.18693 -4.93804,-1.15373 -7.21427,-0.36841 -1.53419,0.52931 -3.67492,3.19378 -3.67492,3.19378 0,0 -0.55429,-2.6086 -1.46732,-3.47154 -1.32166,-1.24914 -3.39536,-2.36076 -5.13697,-1.83737 -1.7362,0.52177 -3.13261,2.54302 -3.26291,4.35125 -0.2254,3.12786 4.5067,8.25825 4.5067,8.25825 -7.82689,-4.91718 -11.6166,-12.02407 -10.14271,-19.07205 1.94175,-9.28522 13.54229,-15.2912597 22.31346,-17.6438397 0,0 -3.85846,2.71017 -4.48739,4.8110397 -0.5512,1.84118 -0.29376,4.23482 0.96891,5.68376 1.84384,2.11586 5.25052,2.93667 8.02839,2.53659 2.07167,-0.29837 4.34369,-1.34482 4.99781,-3.40237 0,0 0.17128,-3.41401 0.32192,-5.4868 0.15064,-2.0727897 0.60236,-6.9472297 0.60236,-6.9472297 l 1.51715,5.63082 c 0,0 1.97133,-0.89671 3.02305,-0.90371 1.10082,-0.007 3.17647,0.90371 3.17647,0.90371 l 1.53311,-5.63001 c 0,0 0.56179,5.50893 0.71727,7.4941997 0.15548,1.98527 0.26898,4.41148 0.26898,4.41148 0.38631,2.47312 3.53613,4.05894 5.92538,4.05867 2.88705,-3.2e-4 6.27694,-1.44474 7.70645,-3.95305 0.86531,-1.51832 0.38226,-3.63225 -0.31876,-5.23307 -0.71532,-1.6334697 -3.70361,-3.8603697 -3.70361,-3.8603697 10.44402,3.28363 20.51509,8.7439797 22.43107,18.1740297 1.39285,6.85532 -2.82857,13.88434 -10.40347,18.40195 0,0 4.22238,-4.52755 4.44553,-7.395 0.12686,-1.63014 -0.46742,-3.66594 -1.84646,-4.5444 -1.62729,-1.03658 -4.16498,-0.76223 -5.7808,0.29213 -1.38215,0.90188 -2.22017,4.42542 -2.22017,4.42542 0,0 -1.74343,-2.42543 -3.05086,-2.98873 -2.19041,-0.94371 -4.99755,-1.30306 -7.14987,-0.27543 -1.89991,0.90712 -3.39377,2.99101 -3.77898,5.06082 -0.2311,1.2417 1.02302,3.64835 1.02302,3.64835 0,0 -2.16417,-0.83315 -3.28991,-0.77968 -0.93682,0.0445 -1.91259,0.34414 -2.66397,0.90542 -0.89975,0.67212 -1.46098,1.73777 -1.94461,2.75137 -0.56845,1.19138 -1.07581,3.81121 -1.07581,3.81121 z"
     id="path1525"
     inkscape:connector-curvature="0"
     sodipodi:nodetypes="caaacaaacaaacscaasczccacczcsaacscaaacaaacaaac" />
  <path
     style="fill:#800080;fill-opacity:1;stroke:#ff0000;stroke-width:0.10000001;stroke-miterlimit:4;stroke-dasharray:none;stroke-opacity:1"
     d="m 58.601898,51.510814 c 0,0 -0.53567,-4.00395 -0.84114,-6.00041 -0.2034,-1.32935 -0.39035,-2.66262 -0.66021,-3.98009 -0.30861,-1.50666 -0.55952,-3.04035 -1.09535,-4.48193 -0.39908,-1.07367 -0.98822,-2.06947 -1.56255,-3.06052 -0.54572,-0.94168 -1.04623,-1.93476 -1.78497,-2.73403 -0.73635,-0.79669 -1.66067,-1.40706 -2.57696,-1.98789 -0.87345,-0.55367 -1.76867,-1.12532 -2.76201,-1.41298 -0.89999,-0.26064 -1.87233,-0.39174 -2.79929,-0.25517 -0.98355,0.1449 -1.95999,0.5337 -2.76592,1.11581 -0.69894,0.50483 -1.24391,1.22493 -1.67262,1.97298 -0.38507,0.67191 -0.58823,1.43923 -0.76955,2.19213 -0.13405,0.55664 -0.23124,1.70202 -0.23124,1.70202 -8.13885,-3.48798 -11.74804,-12.58068 -10.09542,-19.80343 1.70103,-7.4342997 7.60115,-14.12445971 18.22098,-13.83679971 0,0 -2.87571,2.23900001 -3.11612,3.88039001 -0.22564,1.54055 0.56218,3.32992 1.75739,4.32776 1.46156,1.2201997 3.74542,1.6379597 5.59085,1.1695397 1.3123,-0.3330997 2.33008,-1.5118597 3.09775,-2.6270997 0.8359,-1.21437 1.22715,-2.71761 1.46782,-4.17208 0.19218,-1.16147 -0.0365,-3.53160001 -0.0365,-3.53160001 l 1.3564,2.87472001 1.28172,-0.004 1.42962,0.004 1.40901,-2.95914001 c 0,0 -0.28014,2.32868001 -0.0996,3.47250001 0.242,1.53324 0.63628,3.14042 1.56069,4.38736 0.88846,1.19844 2.12885,2.4053197 3.59865,2.6608697 1.86149,0.32364 4.14422,-0.24726 5.42764,-1.6338697 1.10282,-1.19149 1.52231,-3.20814 1.03979,-4.75831 -0.47564,-1.52806 -3.50594,-3.28011001 -3.50594,-3.28011001 11.97793,-0.16073 17.6572,7.15713001 19.26037,15.17091971 1.38998,6.94807 -3.5656,16.01179 -10.35362,18.56534 0,0 -0.28053,-2.20922 -0.7655,-3.18893 -0.49993,-1.00993 -1.21628,-1.96892 -2.13547,-2.62082 -0.77344,-0.54853 -1.73493,-0.84548 -2.67538,-0.96649 -0.89439,-0.11508 -1.81442,0.0471 -2.69417,0.24513 -0.64662,0.14556 -1.28012,0.3766 -1.86641,0.68573 -0.79173,0.41744 -1.50919,0.97309 -2.18795,1.55651 -0.62363,0.53603 -1.19478,1.1364 -1.71584,1.7726 -0.66445,0.81128 -1.27807,1.67253 -1.78497,2.59052 -0.54929,0.99475 -0.97659,2.05746 -1.34541,3.13227 -0.46906,1.36694 -0.7795,2.78466 -1.09534,4.1949 -0.28977,1.29382 -0.52182,2.60056 -0.73262,3.90957 -0.30547,1.89685 -0.77061,5.71213 -0.77061,5.71213 z"
     id="path873"
     inkscape:connector-curvature="0"
     sodipodi:nodetypes="caaaaaaaaaaacacaaaaacccccaaaaacacaaaaaaaaaaac" />
  <path
     style="fill:#800080;fill-opacity:1;stroke:#ff0000;stroke-width:0.10000001;stroke-miterlimit:4;stroke-dasharray:none;stroke-opacity:1"
     d="m 58.743277,44.614564 c 0,0 -0.72665,-4.94719 -1.50916,-7.30846 -0.52288,-1.57784 -1.17153,-3.14578 -2.10761,-4.51936 -0.88651,-1.30085 -1.90151,-2.61679 -3.253569,-3.42304 -1.22707,-0.73172 -2.70817,-1.11628 -4.13684,-1.12103 -1.70902,-0.006 -3.65546,0.20098 -4.95742,1.30809 -1.1826,1.00562 -1.72562,2.71053 -1.89641,4.25347 -0.18825,1.70066 0.38871,3.43936 1.01432,5.03194 0.70514,1.79505 1.88863,3.37346 3.02268,4.93338 0.96988,1.33411 2.00798,2.63757 3.21608,3.76052 1.54907,1.43988 5.109889,3.76094 5.109889,3.76094 -14.201089,-3.76815 -20.776049,-15.43591 -20.540129,-26.64877 0.22468,-10.67868 7.70097,-21.4912097 20.611799,-24.53396971 0,0 -4.301819,2.07250001 -6.043409,3.65711001 -2.1029,1.91335 -3.83885,4.29265 -5.08344,6.8488397 -1.19202,2.44823 -2.4345,5.16883 -2.16082,7.87804 0.13774,1.36353 0.74112,2.87389 1.85853,3.66735 3.11964,2.21522 7.66643,2.45844 11.376769,1.52426 1.04269,-0.26253 2.51236,-0.8325 2.61309,-1.89124 l 0.23275,-2.44642 0.67635,-4.41107 0.85645,6.02173 c 0,0 0.71349,-0.0569 1.10015,-0.0554 0.38666,0.001 1.21639,0.0707 1.21639,0.0707 l 0.85644,-5.96996 0.63193,4.55946 0.21015,2.34978 c 0.11036,1.23402 1.83086,1.71783 3.00071,1.96234 3.78627,0.79137 8.45875,0.5317 11.44268,-1.92964 1.04646,-0.86319 1.38406,-2.45515 1.4276,-3.81099 0.10091,-3.14255 -1.24514,-6.25861 -2.73538,-9.0271797 -1.18559,-2.2026 -2.87475,-4.16987 -4.79615,-5.77152 -1.6704,-1.39242 -5.68624,-3.19816001 -5.68624,-3.19816001 12.98405,2.87284001 20.54568,14.22136971 20.54187,25.00868971 -0.004,11.07065 -6.84302,23.10553 -20.55715,26.08519 0,0 3.08635,-2.10527 4.48056,-3.34101 1.34501,-1.19213 2.61983,-2.48203 3.71883,-3.90416 1.11407,-1.44163 2.16818,-2.96855 2.87904,-4.64609 0.67846,-1.60107 1.34566,-3.32106 1.27479,-5.05851 -0.0576,-1.41146 -0.42347,-2.95998 -1.36686,-4.01144 -0.95316,-1.06237 -2.47157,-1.58023 -3.8801,-1.81084 -1.60717,-0.26313 -3.37108,-0.12441 -4.85506,0.54646 -1.48198,0.66997 -2.61659,1.99376 -3.61272,3.27939 -1.17533,1.51693 -2.03295,3.28812 -2.68218,5.09394 -0.83365,2.31881 -1.5092,7.23664 -1.5092,7.23664 z"
     id="path882"
     inkscape:connector-curvature="0"
     sodipodi:nodetypes="caaaaaaaaacacaaaaasccczcccsaaaaacscaaaaaaaaac" />
</svg>
