<?xml version="1.0" encoding="UTF-8" standalone="no"?>
<svg
   xmlns:dc="http://purl.org/dc/elements/1.1/"
   xmlns:cc="http://creativecommons.org/ns#"
   xmlns:rdf="http://www.w3.org/1999/02/22-rdf-syntax-ns#"
   xmlns:svg="http://www.w3.org/2000/svg"
   xmlns="http://www.w3.org/2000/svg"
   width="102.29mm"
   height="61.015mm"
   version="1.1"
   viewBox="0 0 102.29 60.405"
   id="svg989">
  <metadata
     id="metadata995">
    <rdf:RDF>
      <cc:Work
         rdf:about="">
        <dc:format>image/svg+xml</dc:format>
        <dc:type
           rdf:resource="http://purl.org/dc/dcmitype/StillImage" />
        <dc:title></dc:title>
      </cc:Work>
    </rdf:RDF>
  </metadata>
  <defs
     id="defs993" />
  <path
     id="2008-tv-sigil"
     style="fill:#ff0000;fill-opacity:1;stroke:#ff0008;stroke-width:0.29281;stroke-miterlimit:4;stroke-dasharray:none;stroke-opacity:1"
     d="M 51.217,8.7435 C 54.738,8.7435 58.276,8.9222 61.747,9.2796 65.142,9.6369 68.504,10.184 71.747,10.899 74.845,11.602 77.873,12.462 80.71,13.479 83.379,14.472 85.935,15.6 88.201,16.907 90.303,18.135 92.264,19.509 93.825,21.028 95.313,22.459 96.549,24.001 97.348,25.642 98.111,27.194 98.546,28.825 98.546,30.466 98.546,32.119 98.111,33.75 97.348,35.302 96.549,36.921 95.313,38.485 93.825,39.892 92.264,41.388 90.303,42.762 88.201,44.001 85.932,45.341 83.382,46.469 80.71,47.452 77.877,48.48 74.845,49.339 71.747,50.032 68.504,50.747 65.142,51.294 61.747,51.651 58.276,52.02 54.738,52.187 51.217,52.187 47.698,52.187 44.169,52.02 40.701,51.651 37.3,51.294 33.933,50.747 30.687,50.032 27.586,49.339 24.554,48.48 21.721,47.452 19.055,46.469 16.513,45.308 14.248,44.001 12.127,42.762 10.184,41.388 8.6083,39.892 7.1231,38.485 5.8857,36.921 5.0869,35.302 4.3163,33.75 3.9098,32.075 3.9098,30.466 3.9098,28.847 4.3197,27.194 5.0869,25.642 5.8857,24.001 7.1197,22.459 8.6083,21.028 10.184,19.509 12.123,18.135 14.248,16.907 16.509,15.6 19.059,14.472 21.721,13.479 24.558,12.462 27.586,11.602 30.687,10.899 33.933,10.184 37.3,9.6369 40.701,9.2796 44.169,8.9222 47.698,8.7435 51.217,8.7435 Z M 51.524,4.9806 C 38.043,4.9806 23.387,6.7562 12.151,14.204 6.51,17.946 0.09281,23.833 0.18103,30.6 0.27261,37.625 7.1186,43.532 13.048,47.296 24.082,54.309 38.266,55.917 51.337,55.783 65.271,55.638 80.541,53.873 91.951,45.878 96.955,42.371 102.15,36.72 102.11,30.612 102.06,23.978 96.512,17.644 90.839,14.216 80.283,7.8278 64.986,4.9806 51.524,4.9806 Z M 51.261,46.302 C 50.963,45.844 47.155,40.584 44.313,38.63 41.978,37.011 39.121,34.788 36.385,35.536 35.759,35.704 35.351,36.441 35.181,37.066 34.943,37.937 35.555,39.769 35.555,39.769 35.555,39.769 33.86,38.049 32.876,37.368 31.858,36.664 30.721,36.128 29.583,35.637 28.718,35.257 27.846,34.822 26.911,34.699 25.99,34.576 24.783,34.241 24.133,34.9 23.515,35.536 23.802,36.687 23.993,37.558 24.203,38.507 24.833,39.333 25.366,40.149 25.907,40.986 26.539,41.768 27.203,42.516 27.807,43.186 29.149,44.403 29.149,44.403 26.305,43.7 18.443,41.076 14.699,37.212 12.851,35.302 11.123,32.622 11.373,29.975 11.695,26.558 14.593,23.643 17.34,21.597 22.826,17.499 32.578,15.623 36.765,14.919 36.765,14.919 34.866,16.069 34.207,16.929 33.804,17.454 33.513,18.102 33.431,18.761 33.373,19.23 33.436,19.743 33.649,20.168 33.896,20.659 34.333,21.061 34.805,21.329 35.307,21.631 35.914,21.7 36.487,21.801 37.931,22.046 40.871,22.124 40.871,22.124 40.871,22.124 41.309,21.519 41.525,21.218 43.217,18.861 46.57,14.137 46.57,14.137 46.644,16.963 46.716,19.799 46.79,22.627 46.79,22.627 49.769,22.538 51.26,22.526 52.789,22.526 55.848,22.605 55.848,22.605 55.886,19.777 55.924,16.963 55.962,14.137 55.962,14.137 59.19,18.772 60.863,21.039 61.161,21.441 61.777,22.236 61.777,22.236 61.777,22.236 63.612,22.069 64.525,21.935 65.386,21.812 66.259,21.722 67.093,21.474 67.492,21.363 67.94,21.285 68.246,20.994 68.735,20.548 69.115,19.889 69.155,19.219 69.203,18.426 68.789,17.633 68.331,16.974 67.72,16.103 65.889,14.919 65.889,14.919 69.129,15.533 79.311,17.588 84.817,21.329 87.407,23.096 90.022,25.497 90.889,28.512 91.462,30.5 91.166,32.946 90.012,34.654 86.512,39.869 77.912,43.108 73.761,44.18 73.761,44.18 75.179,42.684 75.858,41.913 76.453,41.232 77.121,40.606 77.591,39.836 78.044,39.099 78.477,38.295 78.613,37.446 78.74,36.642 78.979,35.581 78.395,35.012 77.574,34.219 76.097,34.61 74.97,34.811 73.836,35.012 72.824,35.659 71.802,36.184 70.786,36.709 69.75,37.234 68.869,37.96 68.231,38.485 67.207,39.802 67.207,39.802 67.207,39.802 67.671,38.016 67.399,37.189 67.168,36.475 66.675,35.659 65.949,35.481 63.368,34.844 60.757,36.988 58.569,38.496 55.633,40.517 51.55,45.878 51.261,46.302 Z" />
  <path
     id="2004-cartoon-sigil"
     style="fill:#ff0000;fill-opacity:1;stroke:#ff0008;stroke-width:0.29978;stroke-miterlimit:4;stroke-dasharray:none;stroke-opacity:1"
     d="M 51.211,4.4572 C 54.286,4.4572 57.359,4.6703 60.378,5.1079 63.351,5.5342 66.279,6.185 69.107,7.049 71.811,7.89 74.458,8.9222 76.915,10.157 79.249,11.346 81.47,12.692 83.445,14.263 85.285,15.744 86.99,17.393 88.348,19.2 89.649,20.928 90.727,22.794 91.422,24.747 92.095,26.609 92.466,28.584 92.466,30.558 92.466,32.533 92.095,34.496 91.422,36.37 90.727,38.312 89.649,40.185 88.348,41.89 86.99,43.697 85.285,45.347 83.445,46.838 81.47,48.431 79.249,49.778 76.915,50.978 74.458,52.213 71.811,53.245 69.107,54.075 66.279,54.95 63.351,55.59 60.378,56.016 57.359,56.465 54.286,56.679 51.211,56.679 48.137,56.679 45.059,56.465 42.036,56.016 39.071,55.59 36.135,54.95 33.306,54.075 30.603,53.245 27.961,52.213 25.49,50.978 23.168,49.778 20.951,48.398 18.976,46.838 17.127,45.347 15.433,43.697 14.06,41.89 12.765,40.185 11.685,38.312 10.99,36.37 10.318,34.496 9.9643,32.51 9.9643,30.558 9.9643,28.618 10.32,26.609 10.99,24.747 11.685,22.794 12.762,20.928 14.06,19.2 15.433,17.393 17.124,15.744 18.976,14.263 20.947,12.692 23.171,11.346 25.49,10.157 27.964,8.9222 30.603,7.89 33.306,7.049 36.135,6.185 39.071,5.5342 42.036,5.1079 45.059,4.6703 48.137,4.4572 51.211,4.4572 Z M 51.155,0.41807 C 39.059,0.35072 25.786,3.3352 16.456,11.031 10.827,15.676 6.12,23.075 6.1885,30.379 6.2602,37.975 11.325,45.548 17.251,50.305 26.445,57.676 39.367,60.459 51.155,60.358 63.597,60.257 77.296,57.205 86.765,49.138 92.05,44.617 96.146,37.436 96.101,30.48 96.056,23.4 91.781,16.17 86.373,11.604 76.96,3.6605 63.475,0.4741 51.155,0.41807 Z M 51.346,47.971 C 51.346,47.971 50.201,42.53 48.631,40.342 47.307,38.446 45.545,35.922 43.234,35.967 42.138,35.989 41.29,37.178 40.76,38.132 39.926,39.635 39.936,43.225 39.936,43.225 39.936,43.225 38.667,40.253 37.463,39.287 36.491,38.491 35.165,37.739 33.937,37.986 32.891,38.211 32.011,39.175 31.575,40.14 31.014,41.408 31.533,44.28 31.533,44.28 31.533,44.28 29.771,43.002 28.736,42.8 27.697,42.62 26.544,42.71 25.584,43.159 24.582,43.618 23.697,44.46 23.17,45.425 22.663,46.367 22.603,48.566 22.603,48.566 22.603,48.566 19.96,43.461 19.154,40.713 18.26,37.683 17.659,34.507 17.656,31.344 17.653,27.652 18.265,23.905 19.392,20.366 20.356,17.337 23.627,11.851 23.627,11.851 23.627,11.851 25.672,13.646 26.733,14.499 27.739,15.317 28.761,16.114 29.826,16.844 31.02,17.662 32.238,18.448 33.522,19.121 34.743,19.749 36.026,20.265 37.313,20.748 38.491,21.186 39.682,21.601 40.896,21.931 42.223,22.279 44.927,22.76 44.927,22.76 44.927,22.76 46.297,17.718 47.06,15.227 47.195,14.779 47.487,13.893 47.487,13.893 47.665,14.319 47.834,14.757 48.002,15.182 48.002,15.182 50.224,15.25 51.346,15.25 52.378,15.25 54.453,15.182 54.453,15.182 54.61,14.712 54.756,14.241 54.913,13.769 54.913,13.769 55.239,14.734 55.396,15.227 56.148,17.707 57.46,22.738 57.46,22.738 57.46,22.738 59.401,22.424 60.355,22.211 61.555,21.942 62.757,21.672 63.923,21.264 65.259,20.826 66.526,20.232 67.783,19.625 69.14,18.998 70.509,18.369 71.755,17.584 72.898,16.889 73.964,16.058 75.029,15.25 76.376,14.229 78.991,12.075 78.991,12.075 78.991,12.075 82.356,17.673 83.344,20.759 84.331,23.883 84.69,27.182 84.791,30.435 84.881,33.352 84.69,36.337 83.983,39.175 83.164,42.407 80.067,48.42 80.067,48.42 80.067,48.42 79.809,46.244 79.283,45.313 78.732,44.392 77.947,43.528 76.971,43.103 75.961,42.642 74.737,42.62 73.65,42.878 72.707,43.091 71.126,44.348 71.126,44.348 71.126,44.348 71.463,41.7 71.036,40.488 70.722,39.579 70.218,38.514 69.32,38.166 68.153,37.706 66.694,38.211 65.663,38.872 64.226,39.815 62.689,43.125 62.689,43.125 62.689,43.125 62.7,38.973 61.522,37.447 60.872,36.628 59.727,35.933 58.695,36.09 56.642,36.381 55.194,38.536 54.05,40.275 52.546,42.53 51.346,47.971 51.346,47.971 Z" />
  <path
     id="1995-movie-sigil"
     style="fill:#ff0000;fill-opacity:1;stroke:#ff0008;stroke-width:0.28838;stroke-miterlimit:4;stroke-dasharray:none;stroke-opacity:1"
     d="M 51.038,4.2164 C 53.858,4.2164 56.678,4.4364 59.428,4.8664 62.148,5.3064 64.828,5.9664 67.408,6.8364 69.878,7.6864 72.288,8.7264 74.548,9.9864 76.688,11.196 78.718,12.566 80.518,14.146 82.188,15.656 83.758,17.326 85.008,19.156 86.178,20.916 87.168,22.801 87.798,24.773 88.418,26.662 88.768,28.66 88.768,30.659 88.768,32.658 88.418,34.655 87.798,36.545 87.168,38.517 86.178,40.405 85.008,42.13 83.758,43.963 82.188,45.633 80.518,47.139 78.718,48.754 76.688,50.123 74.548,51.328 72.288,52.587 69.878,53.628 67.408,54.476 64.828,55.352 62.148,56.009 59.428,56.447 56.678,56.885 53.858,57.105 51.038,57.105 48.258,57.105 45.428,56.885 42.678,56.447 39.958,56.009 37.288,55.352 34.688,54.476 32.218,53.628 29.798,52.587 27.558,51.328 25.428,50.123 23.398,48.727 21.598,47.139 19.908,45.633 18.358,43.963 17.088,42.13 15.928,40.405 14.928,38.517 14.308,36.545 13.678,34.655 13.358,32.629 13.358,30.659 13.358,28.687 13.678,26.662 14.308,24.773 14.928,22.801 15.928,20.916 17.088,19.156 18.358,17.326 19.908,15.656 21.598,14.146 23.398,12.566 25.428,11.196 27.558,9.9864 29.798,8.7264 32.218,7.6864 34.688,6.8364 37.288,5.9664 39.958,5.3064 42.678,4.8664 45.428,4.4364 48.258,4.2164 51.038,4.2164 Z M 51.148,0.02644 C 39.798,-0.03356 27.438,3.5264 19.058,10.786 13.458,15.626 9.4977,23.184 9.5677,30.385 9.6277,37.86 13.908,45.606 19.788,50.561 28.048,57.515 40.098,60.91 51.148,60.746 63.198,60.554 75.978,56.467 84.598,48.499 89.528,43.928 92.838,37.011 92.718,30.495 92.608,23.513 89.118,16.126 83.728,11.356 75.278,3.8864 62.718,0.07644 51.148,0.02644 Z M 51.048,48.892 C 51.048,48.892 50.148,42.347 48.188,39.88 47.258,38.715 45.778,37.196 44.348,37.606 43.408,37.873 43.148,39.234 42.998,40.195 42.798,41.524 43.688,44.171 43.688,44.171 43.688,44.171 41.328,41.441 40.018,40.2 39.068,39.306 38.118,38.402 37.018,37.709 35.958,37.043 34.858,36.239 33.618,36.141 32.248,36.033 30.488,36.167 29.648,37.258 28.678,38.526 29.148,40.518 29.608,42.047 29.948,43.179 30.868,44.049 31.588,44.988 32.528,46.21 33.548,47.367 34.608,48.48 35.568,49.481 37.628,51.338 37.628,51.338 34.578,50.903 25.948,47.004 22.078,42.455 19.048,38.892 16.788,33.972 17.178,29.313 17.608,24.195 21.058,19.386 24.908,15.986 29.578,11.866 37.738,9.4764 42.108,8.6864 42.108,8.6864 38.228,10.446 36.748,11.926 35.368,13.296 34.038,14.996 33.718,16.916 33.528,18.106 33.748,19.486 34.498,20.426 35.608,21.816 37.608,22.286 39.338,22.717 41.198,23.18 43.698,23.306 45.088,22.978 45.868,22.795 46.508,22.622 46.748,21.236 46.888,20.446 47.568,15.436 47.818,12.526 47.918,11.326 47.988,8.9164 47.988,8.9164 48.418,9.9664 48.838,11.016 49.268,12.066 49.268,12.066 50.448,12.156 51.038,12.166 51.638,12.176 52.828,12.156 52.828,12.156 53.258,11.076 53.678,9.9964 54.108,8.9164 54.108,8.9164 54.088,11.326 54.188,12.526 54.428,15.446 55.328,20.456 55.428,21.236 55.608,22.622 56.268,22.703 57.008,22.977 57.738,23.25 60.838,23.172 62.668,22.716 64.348,22.296 66.208,21.796 67.358,20.506 68.148,19.616 68.598,18.306 68.478,17.136 68.258,15.176 66.828,13.466 65.448,12.056 63.878,10.456 59.738,8.5064 59.738,8.5064 64.728,9.1964 73.098,12.176 78.028,16.676 81.498,19.846 84.478,24.302 84.918,28.982 85.338,33.409 83.458,38.161 80.678,41.629 76.748,46.527 69.088,50.32 64.538,51.344 64.538,51.344 66.618,49.403 67.608,48.381 68.648,47.303 69.758,46.268 70.628,45.042 71.528,43.771 72.588,42.466 72.848,40.932 73.058,39.648 73.088,38.049 72.228,37.077 71.418,36.173 69.938,35.99 68.728,36.09 67.258,36.211 65.968,37.162 64.738,37.973 63.568,38.744 62.588,39.769 61.598,40.76 60.498,41.863 58.508,44.264 58.508,44.264 58.508,44.264 59.558,40.799 58.948,39.227 58.678,38.533 58.048,37.76 57.308,37.71 55.748,37.605 54.368,39.132 53.468,40.408 51.758,42.804 51.048,48.892 51.048,48.892 Z" />
  <path
     id="1997-movie-sigil"
     style="fill:#ff0000;fill-opacity:1;stroke:#ff0008;stroke-width:0.31587;stroke-miterlimit:4;stroke-dasharray:none;stroke-opacity:1"
     d="M 51.018,4.8538 C 54.509,4.8538 58.002,5.0741 61.431,5.4935 64.786,5.9129 68.11,6.5525 71.308,7.4018 74.381,8.2198 77.379,9.2254 80.179,10.443 82.821,11.606 85.338,12.938 87.582,14.469 89.658,15.926 91.597,17.541 93.139,19.313 94.607,21.012 95.834,22.835 96.61,24.741 97.376,26.569 97.815,28.502 97.815,30.434 97.815,32.366 97.376,34.3 96.61,36.127 95.834,38.033 94.607,39.86 93.139,41.527 91.597,43.3 89.658,44.916 87.582,46.373 85.338,47.934 82.821,49.258 80.179,50.423 77.379,51.641 74.381,52.647 71.308,53.468 68.11,54.316 64.786,54.95 61.431,55.375 58.002,55.798 54.509,56.009 51.018,56.009 47.547,56.009 44.054,55.798 40.641,55.375 37.283,54.95 33.96,54.316 30.752,53.468 27.685,52.647 24.689,51.641 21.889,50.423 19.255,49.258 16.743,47.907 14.503,46.373 12.406,44.916 10.485,43.3 8.9292,41.527 7.4605,39.86 6.2368,38.033 5.4472,36.127 4.686,34.3 4.2844,32.34 4.2844,30.434 4.2844,28.527 4.6882,26.569 5.4472,24.741 6.2368,22.835 7.4563,21.012 8.9292,19.313 10.485,17.541 12.402,15.926 14.503,14.469 16.739,12.938 19.259,11.606 21.889,10.443 24.693,9.2254 27.685,8.2198 30.752,7.4018 33.96,6.5525 37.283,5.9129 40.641,5.4935 44.054,5.0741 47.547,4.8538 51.018,4.8538 Z M 51.144,0.77495 C 37.617,0.712 22.764,3.1551 11.94,11.27 5.9747,15.737 0.2548,22.931 0.3313,30.386 0.41103,38.158 6.5546,45.49 12.839,50.064 23.504,57.826 37.954,60.108 51.144,59.997 64.922,59.882 80.021,57.316 90.969,48.953 96.663,44.607 101.95,37.653 101.96,30.493 101.97,23.272 96.684,16.22 90.957,11.827 80.032,3.4383 64.922,0.8378 51.144,0.77495 Z M 51.081,51.661 C 50.168,51.653 49.005,48.094 47.715,46.494 46.348,44.801 45.051,42.859 43.118,41.863 41.968,41.27 40.435,40.634 39.289,41.234 38.331,41.733 37.89,44.159 37.89,44.159 37.89,44.159 36.241,42.425 35.308,41.68 34.473,41.014 33.589,40.396 32.634,39.918 31.457,39.33 30.226,38.727 28.918,38.586 27.486,38.433 25.736,38.299 24.635,39.146 25.392,40.158 25.604,40.431 26.113,41.055 27.176,42.359 28.243,43.666 29.401,44.889 30.171,45.703 30.998,46.459 31.827,47.212 32.9,48.187 35.121,50.05 35.121,50.05 22.747,46.816 15.464,44.072 10.179,36.158 8.3946,33.486 7.9984,29.609 9.072,26.581 10.852,21.557 15.872,18.045 20.498,15.402 27.169,11.585 34.957,10.348 42.755,9.3828 39.492,10.631 32.589,14.249 29.709,18.768 29.232,19.512 28.895,20.55 29.213,21.379 29.527,22.197 30.513,22.586 31.3,22.964 33.759,24.146 36.537,24.577 39.24,24.96 40.638,25.158 42.111,25.123 43.477,25.109 44.068,24.817 44.273,24.342 45.085,23.705 45.085,23.705 45.332,20.372 45.608,18.715 45.878,17.09 46.708,13.893 46.708,13.893 47.044,15.182 47.149,16.817 47.568,17.834 47.568,17.834 49.781,16.954 50.935,16.954 52.172,16.964 54.521,17.94 54.521,17.94 55.108,17.017 55.244,15.097 55.369,13.997 55.369,13.997 56.219,16.796 56.471,18.244 56.775,20.057 56.921,23.752 56.921,23.752 57.331,24.304 58.002,24.754 58.684,25.075 62.238,25.293 66.253,24.492 69.85,23.371 70.668,23.116 71.507,22.804 72.158,22.246 72.535,21.924 72.923,21.526 72.997,21.043 73.143,20.089 72.734,19.061 72.168,18.286 69.116,14.092 63.748,11.218 59.386,9.4255 69.578,10.505 79.298,12.865 87.016,18.779 90.12,21.149 92.929,24.649 93.527,28.502 94.02,31.669 92.888,35.26 90.853,37.741 85.232,44.609 77.085,47.63 67.229,50.04 67.229,50.04 69.599,48.023 70.731,46.958 71.433,46.297 72.115,45.612 72.765,44.907 73.604,44.008 74.412,43.081 75.198,42.132 76.026,41.119 77.599,39.017 77.599,39.017 77.599,39.017 75.753,38.464 74.8,38.498 73.07,38.558 71.35,39.1 69.767,39.803 68.729,40.258 67.817,40.954 66.935,41.655 66.033,42.37 64.44,44.037 64.44,44.037 64.44,44.037 63.874,41.642 62.898,41.182 61.556,40.556 59.847,41.342 58.557,42.06 56.9,42.974 55.831,44.691 54.667,46.171 53.315,47.886 51.846,51.667 51.081,51.661 Z" />
  <path
     id="1992-movie-sigil"
     style="fill:#ff0000;fill-opacity:1;stroke:#ff0008;stroke-width:0.28865;stroke-miterlimit:4;stroke-dasharray:none;stroke-opacity:1"
     d="M 51.179,3.9764 C 53.999,3.9764 56.819,4.1864 59.589,4.6164 62.299,5.0664 64.989,5.7264 67.579,6.6064 70.049,7.4464 72.478,8.4864 74.728,9.7464 76.868,10.946 78.908,12.316 80.718,13.896 82.398,15.416 83.958,17.076 85.208,18.926 86.398,20.666 87.378,22.556 88.018,24.514 88.628,26.414 88.978,28.424 88.978,30.404 88.978,32.404 88.628,34.404 88.018,36.294 87.378,38.254 86.398,40.144 85.208,41.874 83.958,43.714 82.398,45.374 80.718,46.894 78.908,48.504 76.868,49.864 74.728,51.064 72.478,52.324 70.049,53.374 67.579,54.224 64.989,55.084 62.299,55.744 59.589,56.184 56.819,56.634 53.999,56.854 51.179,56.854 48.379,56.854 45.544,56.634 42.785,56.184 40.067,55.744 37.379,55.084 34.787,54.224 32.311,53.374 29.889,52.324 27.627,51.064 25.499,49.864 23.469,48.474 21.66,46.894 19.967,45.374 18.414,43.714 17.156,41.874 15.971,40.144 14.982,38.254 14.344,36.294 13.729,34.404 13.405,32.374 13.405,30.404 13.405,28.444 13.732,26.414 14.344,24.514 14.982,22.556 15.967,20.666 17.156,18.926 18.414,17.076 19.963,15.416 21.66,13.896 23.465,12.316 25.502,10.946 27.627,9.7464 29.892,8.4864 32.311,7.4464 34.787,6.6064 37.379,5.7264 40.067,5.0664 42.785,4.6164 45.544,4.1864 48.379,3.9764 51.179,3.9764 Z M 51.359,0.12644 C 40.086,0.07644 27.795,3.6164 19.472,10.856 13.9,15.676 9.5517,23.214 9.6177,30.374 9.6857,37.834 14.346,45.544 20.203,50.484 28.408,57.404 40.383,60.794 51.359,60.644 63.339,60.444 76.058,56.484 84.618,48.544 89.528,43.994 92.789,36.984 92.669,30.484 92.569,23.524 89.088,16.176 83.728,11.426 75.338,3.9764 62.859,0.18644 51.359,0.12644 Z M 51.239,53.364 C 50.589,48.764 49.439,43.454 46.346,39.744 44.962,38.094 42.873,36.184 40.738,36.504 39.549,36.684 38.818,38.074 38.281,39.144 37.782,40.144 37.69,42.434 37.69,42.434 37.69,42.434 36.776,39.444 36.113,38.034 35.611,36.964 35.102,35.854 34.309,34.984 33.588,34.184 32.686,33.524 31.709,33.074 30.667,32.604 29.481,32.084 28.356,32.304 27.051,32.564 25.797,33.484 25.103,34.614 24.392,35.774 24.526,37.304 24.513,38.664 24.501,39.864 24.716,41.074 24.965,42.244 25.187,43.294 25.888,45.324 25.888,45.324 23.441,43.604 19.57,39.674 18.207,35.854 16.991,32.444 16.931,28.414 18.146,25.004 19.706,20.636 23.301,17.056 27.022,14.276 30.598,11.606 36.27,9.7364 39.339,9.0364 39.339,9.0364 36.467,11.866 35.573,13.626 34.928,14.906 34.313,16.376 34.514,17.786 34.692,19.036 35.481,20.226 36.433,21.046 37.433,21.916 38.786,22.466 40.106,22.566 41.27,22.654 42.488,22.316 43.514,21.756 44.509,21.216 45.419,20.396 45.971,19.406 47.079,17.416 46.919,14.956 47.389,12.726 47.669,11.376 48.219,8.6864 48.219,8.6864 48.479,10.006 48.739,11.336 48.999,12.656 48.999,12.656 50.369,12.606 51.049,12.606 51.819,12.606 53.349,12.656 53.349,12.656 53.659,11.356 53.969,10.046 54.279,8.7464 54.279,8.7464 54.689,11.406 54.949,12.726 55.379,14.886 55.359,17.246 56.439,19.166 57.099,20.346 58.109,21.416 59.329,22.006 60.379,22.516 61.649,22.594 62.809,22.446 63.939,22.306 65.139,21.936 65.979,21.176 66.869,20.366 67.399,19.156 67.649,17.986 67.899,16.786 67.859,15.456 67.399,14.326 66.519,12.136 62.849,8.8964 62.849,8.8964 66.529,9.6264 73.318,12.266 77.448,15.696 80.598,18.306 83.388,21.776 84.578,25.684 85.578,28.974 85.478,32.774 84.268,35.984 82.828,39.794 79.498,43.274 76.498,45.394 76.498,45.394 77.228,43.264 77.448,42.164 77.678,41.044 77.828,39.914 77.838,38.784 77.848,37.614 77.938,36.374 77.488,35.304 76.998,34.154 76.228,32.874 75.058,32.424 73.678,31.884 71.998,32.414 70.638,33.014 69.629,33.464 68.809,34.304 68.089,35.144 67.149,36.234 66.449,37.524 65.849,38.834 65.369,39.894 64.779,42.174 64.779,42.174 64.779,42.174 64.809,40.084 64.319,39.214 63.659,38.044 62.559,36.704 61.219,36.644 59.159,36.564 57.399,38.554 56.139,40.184 53.269,43.884 51.759,48.764 51.239,53.364 Z" />
  <path
     id="1989-movie-sigil"
     style="fill:#ff0000;fill-opacity:1;stroke:#ff0008;stroke-width:0.30206;stroke-miterlimit:4;stroke-dasharray:none;stroke-opacity:1"
     d="M 51.158,3.9064 C 54.258,3.9064 57.348,4.1264 60.408,4.5564 63.398,4.9964 66.348,5.6464 69.188,6.5264 71.908,7.3664 74.568,8.4164 77.058,9.6564 79.398,10.866 81.638,12.226 83.628,13.796 85.468,15.306 87.198,16.966 88.578,18.796 89.868,20.536 90.958,22.416 91.658,24.389 92.328,26.269 92.718,28.259 92.718,30.249 92.718,32.239 92.328,34.229 91.658,36.109 90.958,38.069 89.868,39.949 88.578,41.659 87.198,43.499 85.468,45.159 83.628,46.659 81.638,48.269 79.398,49.629 77.058,50.819 74.568,52.079 71.908,53.119 69.188,53.969 66.348,54.829 63.398,55.489 60.408,55.919 57.348,56.369 54.258,56.579 51.158,56.579 48.078,56.579 44.968,56.369 41.928,55.919 38.938,55.489 35.988,54.829 33.138,53.969 30.418,53.119 27.758,52.079 25.268,50.819 22.938,49.629 20.698,48.239 18.708,46.659 16.848,45.159 15.138,43.499 13.748,41.659 12.448,39.949 11.368,38.069 10.668,36.109 9.9977,34.229 9.6277,32.209 9.6277,30.249 9.6277,28.279 9.9977,26.269 10.668,24.389 11.368,22.416 12.448,20.536 13.748,18.796 15.138,16.966 16.848,15.306 18.708,13.796 20.698,12.226 22.938,10.866 25.268,9.6564 27.758,8.4164 30.418,7.3664 33.138,6.5264 35.988,5.6464 38.938,4.9964 41.928,4.5564 44.968,4.1264 48.078,3.9064 51.158,3.9064 Z M 51.148,0.14644 C 38.768,0.09644 25.288,3.6364 16.148,10.866 10.048,15.686 5.7277,23.219 5.7977,30.379 5.8777,37.829 10.538,45.539 16.948,50.469 25.968,57.399 39.108,60.769 51.148,60.619 64.288,60.419 78.138,56.469 87.538,48.529 92.928,43.989 96.618,36.979 96.488,30.489 96.368,23.539 92.548,16.176 86.668,11.436 77.468,3.9864 63.768,0.19644 51.148,0.14644 Z M 51.128,51.759 C 51.128,51.759 51.028,48.359 50.228,46.859 49.728,45.759 48.928,44.759 47.928,44.059 47.128,43.659 46.128,43.459 45.228,43.459 44.128,43.459 42.228,44.259 42.228,44.259 42.228,44.259 43.428,42.059 43.328,40.859 43.028,39.059 41.928,37.159 40.428,36.159 38.528,34.959 35.828,34.659 33.728,35.259 31.928,35.759 30.128,37.259 29.328,38.759 29.328,38.759 28.728,35.859 27.728,34.959 26.328,33.859 24.298,33.129 22.628,33.659 20.998,34.179 19.468,35.859 19.288,37.559 18.958,40.769 23.928,46.059 23.928,46.059 20.128,44.059 15.928,39.659 14.228,35.059 13.028,31.859 13.128,27.959 14.328,24.759 15.428,21.556 17.228,20.056 20.728,16.856 24.928,13.056 33.428,10.056 36.728,9.3564 34.828,10.556 33.028,11.756 32.228,13.556 31.428,14.956 31.128,16.856 31.628,18.356 32.128,19.756 33.528,20.556 34.728,21.256 35.828,21.956 37.228,22.356 38.528,22.456 39.828,22.659 41.228,22.659 42.328,22.056 43.828,21.356 45.428,19.956 45.628,18.356 45.628,18.356 45.988,14.826 46.128,13.056 46.298,10.896 46.528,6.5564 46.528,6.5564 47.028,8.4564 47.528,10.356 48.028,12.256 48.028,12.256 50.028,11.356 51.128,11.356 52.228,11.356 54.228,12.256 54.228,12.256 54.758,10.356 55.298,8.4564 55.828,6.5564 55.828,6.5564 56.058,11.026 56.228,13.256 56.338,14.756 56.628,17.756 56.628,17.756 56.728,19.456 57.728,20.456 58.828,21.256 59.828,22.056 61.128,22.456 62.328,22.556 64.028,22.659 65.628,22.156 67.128,21.456 68.328,20.856 69.728,20.156 70.328,18.956 71.028,17.556 71.128,15.756 70.528,14.356 69.728,12.156 68.428,10.556 65.728,9.2564 71.228,10.656 78.828,14.056 83.728,18.656 86.028,20.856 87.728,23.859 88.528,26.959 89.228,29.859 89.228,33.159 88.028,35.959 86.128,40.259 81.728,43.959 78.428,46.059 78.428,46.059 83.128,41.159 83.128,38.059 83.128,36.459 82.028,34.659 80.628,33.959 79.128,33.159 76.928,33.359 75.528,34.259 74.028,35.159 73.028,37.659 73.028,38.859 72.228,37.659 70.328,35.859 68.528,35.359 66.628,34.759 64.328,34.859 62.528,35.759 61.028,36.459 59.728,38.059 59.328,39.659 58.928,40.959 59.128,43.059 60.428,44.459 60.428,44.459 58.128,43.459 56.928,43.459 55.928,43.459 54.828,43.759 54.028,44.359 53.128,44.959 52.528,46.059 52.128,47.059 51.428,48.459 51.128,51.759 51.128,51.759 Z" />
  <path
     id="1989-movie-logo"
     style="fill:#ff0000;fill-opacity:1;stroke:#ff0008;stroke-width:0.3234;stroke-miterlimit:4;stroke-dasharray:none;stroke-opacity:1"
     d="M 51.383,3.9664 C 54.913,3.9664 58.443,4.1864 61.923,4.6164 65.333,5.0764 68.703,5.7264 71.943,6.5964 75.053,7.4464 78.093,8.5064 80.933,9.7564 83.593,10.966 86.163,12.326 88.413,13.906 90.523,15.416 92.503,17.086 94.063,18.936 95.553,20.676 96.793,22.566 97.583,24.545 98.343,26.435 98.803,28.425 98.803,30.435 98.803,32.435 98.343,34.425 97.583,36.315 96.793,38.295 95.553,40.195 94.063,41.895 92.503,43.745 90.523,45.415 88.413,46.925 86.163,48.535 83.593,49.905 80.933,51.115 78.093,52.365 75.053,53.415 71.943,54.275 68.703,55.125 65.333,55.795 61.923,56.235 58.443,56.685 54.913,56.895 51.383,56.895 47.873,56.895 44.323,56.685 40.853,56.235 37.443,55.795 34.073,55.125 30.813,54.275 27.703,53.415 24.673,52.365 21.843,51.115 19.193,49.905 16.623,48.505 14.353,46.925 12.233,45.415 10.273,43.745 8.7027,41.895 7.2127,40.195 5.9727,38.295 5.1827,36.315 4.4227,34.425 3.9927,32.405 3.9927,30.435 3.9927,28.445 4.4227,26.435 5.1827,24.545 5.9727,22.566 7.2127,20.676 8.7027,18.936 10.273,17.086 12.233,15.416 14.353,13.906 16.623,12.326 19.193,10.966 21.843,9.7564 24.673,8.5064 27.703,7.4464 30.813,6.5964 34.073,5.7264 37.443,5.0764 40.853,4.6164 44.323,4.1864 47.873,3.9664 51.383,3.9664 Z M 51.143,0.17644 C 37.233,0.12644 22.073,3.6564 11.793,10.836 4.9327,15.636 0.08268,23.125 0.16268,30.245 0.24268,37.655 5.4827,45.325 12.693,50.235 22.833,57.125 37.513,60.745 51.053,60.595 65.823,60.395 81.583,56.375 92.143,48.485 98.203,43.975 102.27,36.815 102.12,30.355 101.98,23.445 97.693,16.126 91.083,11.416 80.743,4.0064 65.323,0.22644 51.143,0.17644 Z M 51.303,49.465 C 51.303,49.465 48.723,44.325 46.633,42.435 45.103,41.055 43.213,39.645 41.153,39.555 39.903,39.495 38.653,40.205 37.683,41.005 37.103,41.495 36.433,42.935 36.433,42.935 36.433,42.935 34.453,41.235 33.323,40.615 32.453,40.125 31.503,39.745 30.533,39.535 29.603,39.335 28.613,39.215 27.673,39.375 26.633,39.545 25.533,39.865 24.743,40.565 24.183,41.065 23.823,41.805 23.653,42.535 23.473,43.255 23.573,44.025 23.723,44.745 23.893,45.575 24.233,46.385 24.643,47.125 25.053,47.835 26.143,49.075 26.143,49.075 20.833,47.105 15.043,44.225 11.423,39.665 9.1727,36.825 7.3927,33.025 7.8127,29.425 8.3227,24.925 11.683,20.936 15.103,17.966 20.003,13.726 30.453,10.646 32.833,9.9764 32.833,9.9764 30.373,12.106 29.923,13.586 29.613,14.576 29.813,15.716 30.173,16.686 30.613,17.896 31.433,18.996 32.423,19.826 33.553,20.776 34.993,21.356 36.423,21.736 37.983,22.146 39.713,22.526 41.263,22.066 42.493,21.696 44.233,20.976 44.333,19.756 44.333,19.756 45.013,14.896 45.383,12.476 45.593,11.086 46.053,8.3264 46.053,8.3264 47.063,9.7364 48.223,11.146 48.873,12.556 48.873,12.556 50.493,12.536 51.303,12.536 52.083,12.536 53.643,12.556 53.643,12.556 54.563,11.176 55.473,9.7864 56.393,8.4064 56.393,8.4064 56.833,11.366 57.083,12.846 57.483,15.306 58.363,20.226 58.363,20.226 58.443,20.986 59.873,21.626 60.833,21.916 62.383,22.376 64.093,22.166 65.673,21.806 67.253,21.456 68.873,20.866 70.113,19.826 71.203,18.916 72.163,17.686 72.513,16.316 72.763,15.356 72.613,14.286 72.243,13.366 71.713,12.016 69.583,9.9264 69.583,9.9264 72.453,10.506 83.463,14.176 88.613,18.936 91.623,21.706 94.383,25.495 94.733,29.575 95.033,33.175 93.223,36.915 90.963,39.735 87.393,44.175 80.673,47.285 76.553,48.955 76.553,48.955 77.233,48.145 77.513,47.705 77.963,47.025 78.473,46.345 78.673,45.555 78.913,44.605 78.903,43.565 78.673,42.615 78.473,41.815 78.153,40.955 77.523,40.415 76.733,39.745 75.613,39.545 74.583,39.445 73.433,39.345 72.273,39.605 71.163,39.905 70.253,40.145 69.363,40.485 68.563,40.975 67.733,41.485 66.323,42.855 66.323,42.855 66.323,42.855 65.313,41.085 64.473,40.575 63.253,39.835 61.683,39.425 60.283,39.705 58.433,40.075 56.933,41.535 55.613,42.885 53.773,44.755 51.303,49.465 51.303,49.465 Z" />
  <path
     id="1970-comics-sigil"
     style="fill:#ff0000;fill-opacity:1;stroke:#ff0008;stroke-width:0.28911;stroke-miterlimit:4;stroke-dasharray:none;stroke-opacity:1"
     d="M 51.108,4.0464 C 53.938,4.0464 56.768,4.2664 59.548,4.6964 62.278,5.1364 64.978,5.7964 67.558,6.6764 70.058,7.5164 72.488,8.5664 74.758,9.8164 76.898,11.026 78.948,12.386 80.758,13.976 82.438,15.476 84.018,17.146 85.268,18.976 86.448,20.726 87.448,22.619 88.088,24.589 88.698,26.479 89.048,28.479 89.048,30.469 89.048,32.469 88.698,34.459 88.088,36.349 87.448,38.319 86.448,40.209 85.268,41.919 84.018,43.769 82.438,45.429 80.758,46.939 78.948,48.549 76.898,49.909 74.758,51.109 72.488,52.379 70.058,53.419 67.558,54.269 64.978,55.139 62.278,55.789 59.548,56.239 56.768,56.679 53.938,56.889 51.108,56.889 48.298,56.889 45.458,56.679 42.688,56.239 39.958,55.789 37.258,55.139 34.648,54.269 32.168,53.419 29.728,52.379 27.468,51.109 25.338,49.909 23.288,48.519 21.478,46.939 19.778,45.429 18.218,43.769 16.948,41.919 15.758,40.209 14.778,38.319 14.138,36.349 13.518,34.459 13.198,32.439 13.198,30.469 13.198,28.499 13.518,26.479 14.138,24.589 14.778,22.619 15.758,20.726 16.948,18.976 18.218,17.146 19.778,15.476 21.478,13.976 23.288,12.386 25.338,11.026 27.468,9.8164 29.728,8.5664 32.168,7.5164 34.648,6.6764 37.258,5.7964 39.958,5.1364 42.688,4.6964 45.458,4.2664 48.298,4.0464 51.108,4.0464 Z M 51.208,0.25644 C 39.948,0.20644 27.688,3.7364 19.378,10.936 13.828,15.736 9.3177,23.369 9.3777,30.499 9.4477,37.919 14.278,45.479 20.108,50.399 28.308,57.289 40.258,60.659 51.208,60.509 63.158,60.309 76.178,56.369 84.728,48.469 89.628,43.939 93.028,36.959 92.908,30.489 92.798,23.559 88.858,16.236 83.508,11.506 75.138,4.0864 62.678,0.31644 51.208,0.25644 Z M 51.168,50.769 C 51.168,50.769 49.368,42.659 46.798,39.609 45.478,38.039 43.558,36.059 41.548,36.419 40.428,36.619 39.868,38.049 39.408,39.089 38.898,40.269 38.808,42.889 38.808,42.889 38.808,42.889 37.098,39.739 35.998,38.319 35.038,37.079 33.938,35.929 32.728,34.929 32.008,34.329 31.288,33.669 30.398,33.389 29.178,33.019 27.658,32.629 26.578,33.299 25.558,33.929 25.278,35.369 25.068,36.549 24.818,37.909 25.048,39.359 25.408,40.689 25.828,42.209 26.678,43.579 27.478,44.929 28.138,46.039 29.728,48.099 29.728,48.099 27.168,46.729 21.558,42.569 19.368,38.359 17.538,34.839 16.688,30.429 17.658,26.579 18.808,22.056 22.338,18.236 25.988,15.346 30.368,11.876 35.798,9.7364 41.358,8.6964 41.358,8.6964 38.138,10.756 36.918,12.196 35.878,13.416 34.818,14.816 34.588,16.406 34.398,17.746 34.658,19.286 35.468,20.366 36.448,21.666 38.138,22.456 39.748,22.719 41.268,22.969 42.978,22.709 44.288,21.906 45.308,21.286 45.968,20.156 46.448,19.066 47.268,17.196 47.338,15.066 47.498,13.026 47.638,11.336 47.438,7.9264 47.438,7.9264 48.018,9.3464 48.608,11.036 49.188,12.456 49.188,12.456 50.508,12.426 51.168,12.436 51.858,12.446 53.238,12.496 53.238,12.496 53.698,11.016 54.318,9.4064 54.778,7.9264 54.778,7.9264 54.788,11.536 54.958,13.326 55.148,15.186 55.178,17.136 55.878,18.876 56.358,20.046 56.978,21.316 58.058,21.976 59.418,22.809 61.208,22.859 62.778,22.619 64.128,22.406 65.548,21.866 66.478,20.866 67.408,19.876 68.028,18.426 67.948,17.076 67.828,15.216 66.478,13.586 65.278,12.156 63.978,10.616 60.538,8.4164 60.538,8.4164 60.538,8.4164 71.398,11.196 75.678,14.566 79.768,17.796 83.658,22.206 84.758,27.299 85.658,31.439 84.428,36.099 82.308,39.759 80.138,43.519 72.488,48.299 72.488,48.299 72.488,48.299 74.358,45.869 75.128,44.549 75.738,43.529 76.338,42.469 76.678,41.329 77.128,39.869 77.528,38.309 77.328,36.799 77.178,35.589 76.958,34.049 75.908,33.409 74.678,32.659 72.968,33.279 71.598,33.739 70.408,34.139 69.358,34.949 68.438,35.809 67.498,36.659 66.828,37.759 66.088,38.789 65.198,40.029 63.568,42.619 63.568,42.619 63.568,42.619 63.528,39.789 62.868,38.589 62.328,37.619 61.498,36.429 60.388,36.369 58.288,36.239 56.508,38.329 55.228,39.989 52.868,43.029 51.168,50.769 51.168,50.769 Z" />
  <path
     id="1987-comics-sigil"
     style="fill:#ff0000;fill-opacity:1;stroke:#ff0008;stroke-width:0.28958;stroke-miterlimit:4;stroke-dasharray:none;stroke-opacity:1"
     d="M 51.259,3.8264 C 54.079,3.8264 56.899,4.0364 59.669,4.4764 62.389,4.9264 65.079,5.5864 67.669,6.4664 70.149,7.3164 72.569,8.3664 74.839,9.6364 76.969,10.856 79.009,12.216 80.819,13.816 82.499,15.326 84.069,17.006 85.319,18.856 86.499,20.606 87.499,22.506 88.129,24.487 88.739,26.387 89.099,28.397 89.099,30.407 89.099,32.407 88.739,34.417 88.129,36.327 87.499,38.297 86.499,40.197 85.319,41.927 84.069,43.787 82.499,45.457 80.819,46.977 79.009,48.587 76.969,49.967 74.839,51.187 72.569,52.447 70.149,53.497 67.669,54.347 65.079,55.217 62.389,55.887 59.669,56.317 56.899,56.767 54.079,56.987 51.259,56.987 48.449,56.987 45.619,56.767 42.859,56.317 40.139,55.887 37.449,55.217 34.849,54.347 32.369,53.497 29.949,52.447 27.689,51.187 25.559,49.967 23.519,48.557 21.709,46.977 20.019,45.457 18.459,43.787 17.199,41.927 16.009,40.197 15.029,38.297 14.399,36.327 13.779,34.417 13.449,32.377 13.449,30.407 13.449,28.417 13.779,26.387 14.399,24.487 15.029,22.506 16.009,20.606 17.199,18.856 18.459,17.006 20.019,15.326 21.709,13.816 23.519,12.216 25.559,10.856 27.689,9.6364 29.949,8.3664 32.369,7.3164 34.849,6.4664 37.449,5.5864 40.139,4.9264 42.859,4.4764 45.619,4.0364 48.449,3.8264 51.259,3.8264 Z M 51.149,0.14644 C 39.889,0.07644 27.579,3.4364 19.129,10.866 13.699,15.636 9.5987,23.147 9.6587,30.377 9.7287,37.887 14.149,45.587 19.859,50.467 28.189,57.597 40.189,60.827 51.149,60.617 63.059,60.387 75.999,56.417 84.699,48.277 89.439,43.847 92.699,36.977 92.629,30.487 92.549,23.467 88.869,16.136 83.649,11.446 75.119,3.7764 62.619,0.21644 51.149,0.14644 Z M 51.169,48.357 C 50.079,47.097 44.569,42.657 40.579,41.117 38.829,40.447 36.809,39.817 35.019,40.357 34.479,40.517 33.899,40.927 33.759,41.467 33.569,42.217 34.539,43.627 34.539,43.627 34.049,43.877 33.359,42.687 32.719,42.277 32.179,41.937 31.599,41.667 31.029,41.367 30.519,41.107 30.049,40.717 29.489,40.587 28.819,40.427 27.919,40.097 27.439,40.577 26.849,41.167 27.259,42.277 27.469,43.087 27.709,43.957 28.309,44.697 28.799,45.467 29.259,46.177 29.779,46.847 30.319,47.517 30.639,47.917 31.329,48.677 31.329,48.677 28.939,47.877 23.919,44.747 21.489,41.497 18.939,38.077 16.939,33.697 17.209,29.447 17.499,24.897 20.239,20.546 23.379,17.246 26.649,13.806 32.779,11.096 35.749,10.216 35.749,10.216 34.299,11.636 33.629,12.396 33.089,13.016 32.579,13.646 32.119,14.326 31.729,14.906 31.359,15.746 30.999,16.586 32.139,16.836 33.869,17.246 35.179,17.466 36.999,17.776 38.839,18.016 40.679,18.206 42.219,18.366 43.819,18.546 45.379,18.546 45.379,17.736 45.769,16.086 46.229,14.986 46.839,13.516 47.639,12.156 48.649,10.856 48.599,12.176 48.359,13.606 48.749,14.926 48.749,14.926 50.279,13.796 51.169,13.786 52.119,13.776 53.769,14.976 53.769,14.976 53.899,13.596 53.889,12.146 53.709,10.766 54.399,11.766 55.679,13.776 56.319,15.446 56.689,16.406 56.849,17.616 56.849,18.756 58.079,18.616 60.099,18.456 61.679,18.276 63.399,18.086 65.129,17.956 66.839,17.666 68.329,17.416 69.949,17.016 71.429,16.656 71.429,16.656 70.789,15.196 70.369,14.526 69.889,13.766 69.319,13.076 68.729,12.396 68.069,11.626 66.609,10.216 66.609,10.216 71.529,11.736 76.399,14.326 79.859,18.136 82.649,21.206 84.949,25.237 85.199,29.377 85.439,33.467 83.669,37.707 81.269,41.027 78.589,44.737 70.309,49.307 70.309,49.307 70.309,49.307 71.459,48.147 71.979,47.527 72.549,46.867 73.099,46.197 73.569,45.467 74.019,44.767 74.479,44.057 74.709,43.257 74.939,42.477 75.399,41.497 74.929,40.827 74.659,40.437 74.039,40.437 73.569,40.457 72.729,40.497 71.949,40.957 71.209,41.347 70.649,41.647 70.149,42.067 69.649,42.457 68.969,42.987 67.699,44.127 67.699,44.127 67.699,44.127 68.329,42.887 68.399,42.207 68.449,41.667 68.559,40.927 68.129,40.587 66.679,39.447 64.369,40.417 62.619,41.007 58.319,42.447 52.359,47.067 51.169,48.357 Z" />
  <path
     id="1986-novel-sigil-1"
     style="fill:#ff0000;fill-opacity:1;stroke:#ff0008;stroke-width:0.28359;stroke-miterlimit:4;stroke-dasharray:none;stroke-opacity:1"
     d="M 51.366,2.3571 C 53.921,2.3571 56.477,2.5904 58.991,3.0465 61.451,3.5237 63.89,4.213 66.234,5.1569 68.472,6.0583 70.667,7.1718 72.724,8.4975 74.654,9.7909 76.5,11.244 78.143,12.93 79.66,14.531 81.092,16.302 82.216,18.264 83.298,20.131 84.188,22.134 84.761,24.234 85.312,26.249 85.641,28.38 85.641,30.501 85.641,32.623 85.312,34.754 84.761,36.769 84.188,38.858 83.298,40.873 82.216,42.708 81.092,44.659 79.66,46.441 78.143,48.042 76.5,49.76 74.654,51.213 72.724,52.496 70.667,53.833 68.472,54.946 66.234,55.848 63.89,56.781 61.451,57.481 58.991,57.947 56.477,58.414 53.921,58.647 51.366,58.647 48.82,58.647 46.254,58.414 43.751,57.947 41.291,57.481 38.852,56.781 36.497,55.848 34.26,54.946 32.054,53.833 30.007,52.496 28.088,51.213 26.242,49.728 24.598,48.042 23.071,46.441 21.65,44.659 20.515,42.708 19.434,40.873 18.543,38.858 17.97,36.769 17.419,34.754 17.111,32.591 17.111,30.501 17.111,28.402 17.419,26.249 17.97,24.234 18.543,22.134 19.434,20.131 20.515,18.264 21.65,16.302 23.071,14.531 24.598,12.93 26.242,11.244 28.088,9.7909 30.007,8.4975 32.054,7.1718 34.26,6.0583 36.497,5.1569 38.852,4.213 41.291,3.5237 43.751,3.0465 46.254,2.5904 48.82,2.3571 51.366,2.3571 Z M 51.323,0.32095 C 41.418,0.26793 30.887,4.1388 23.57,11.318 18.681,16.122 14.958,23.258 15.022,30.385 15.075,37.798 18.808,45.455 23.941,50.365 31.163,57.247 41.683,60.599 51.323,60.45 61.833,60.259 72.862,56.134 80.381,48.265 84.697,43.737 87.37,37.034 87.264,30.576 87.179,23.651 84.39,16.44 79.681,11.732 72.311,4.3297 61.419,0.36337 51.323,0.32095 Z M 51.27,48.615 C 51.27,48.615 49.16,44.617 47.315,43.493 46.286,42.867 44.875,42.369 43.772,42.846 42.892,43.228 42.447,44.341 42.213,45.285 41.927,46.43 42.797,48.329 42.521,48.816 42.521,48.816 40.877,47.448 39.965,46.897 39.202,46.42 38.396,45.964 37.537,45.677 36.699,45.402 35.808,45.221 34.928,45.232 34.185,45.232 33.379,45.264 32.733,45.635 32.16,45.964 31.661,46.505 31.439,47.13 31.311,47.48 31.418,47.873 31.481,48.244 31.545,48.679 31.661,49.124 31.852,49.527 32.054,49.983 32.648,50.789 32.648,50.789 28.034,48.339 24.567,44.903 22.096,40.714 20.219,37.533 19.232,33.683 19.275,29.982 19.317,26.355 20.431,22.643 22.276,19.516 24.418,15.91 28.448,12.283 31.216,10.639 31.216,10.639 31.248,11.615 31.386,12.082 31.598,12.803 31.948,13.481 32.393,14.086 32.945,14.828 33.655,15.433 34.398,15.984 35.034,16.461 35.744,16.843 36.466,17.172 37.367,17.575 38.311,17.904 39.276,18.105 40.421,18.349 41.291,18.434 42.786,18.434 43.041,17.045 43.369,15.857 43.921,14.669 44.6,13.227 46.551,10.692 46.551,10.692 46.657,11.806 46.455,13.386 46.562,14.5 46.562,14.5 49.711,14.309 51.281,14.319 52.85,14.33 55.968,14.553 55.968,14.553 56.074,13.418 55.905,11.922 56.011,10.788 56.011,10.788 58.015,13.375 58.683,14.849 59.192,15.984 59.404,17.119 59.669,18.445 60.974,18.349 62.013,18.381 63.158,18.158 64.039,17.989 64.898,17.681 65.736,17.342 66.467,17.045 67.199,16.716 67.857,16.271 68.535,15.815 69.172,15.274 69.702,14.659 70.2,14.075 70.646,13.428 70.932,12.718 71.208,12.039 71.399,10.576 71.399,10.576 73.551,11.954 77.666,15.486 79.745,18.784 81.728,21.923 83.287,25.591 83.382,29.303 83.488,33.747 82.025,38.339 79.66,42.093 77.316,45.815 73.774,48.71 69.829,50.906 69.829,50.906 70.243,50.195 70.412,49.813 70.593,49.4 70.805,48.986 70.879,48.541 70.964,48.032 71.017,47.491 70.826,47.014 70.593,46.441 70.126,45.932 69.585,45.635 68.885,45.243 68.016,45.221 67.22,45.232 66.425,45.243 65.64,45.444 64.898,45.709 64.039,46.006 63.233,46.441 62.469,46.939 61.483,47.586 59.733,49.209 59.733,49.209 59.733,49.209 60.306,46.642 60.062,45.38 59.882,44.468 59.616,43.291 58.768,42.899 57.474,42.305 55.788,43.09 54.6,43.885 52.999,44.967 51.27,48.615 51.27,48.615 Z" />
  <path
     id="1964-comics-sigil"
     style="fill:#ff0000;fill-opacity:1;stroke:#ff0008;stroke-width:0.27771;stroke-miterlimit:4;stroke-dasharray:none;stroke-opacity:1"
     d="M 51.199,4.4047 C 53.841,4.4047 56.483,4.6189 59.074,5.0575 61.635,5.486 64.144,6.1286 66.572,6.9957 68.887,7.8322 71.152,8.8727 73.274,10.107 75.273,11.3 77.191,12.647 78.884,14.207 80.455,15.697 81.934,17.339 83.108,19.155 84.199,20.879 85.127,22.75 85.729,24.708 86.3,26.575 86.464,28.452 86.464,30.421 86.464,32.389 86.3,34.46 85.729,36.327 85.127,38.265 84.199,40.122 83.108,41.815 81.934,43.641 80.455,45.294 78.884,46.783 77.191,48.374 75.273,49.721 73.274,50.904 71.152,52.159 68.887,53.179 66.572,54.026 64.144,54.872 61.635,55.535 59.074,55.954 56.483,56.402 53.841,56.606 51.199,56.606 48.567,56.606 45.915,56.402 43.314,55.954 40.764,55.535 38.264,54.872 35.826,54.026 33.5,53.179 31.236,52.159 29.114,50.904 27.125,49.721 25.217,48.344 23.524,46.783 21.943,45.294 20.484,43.641 19.291,41.815 18.179,40.122 17.25,38.265 16.669,36.327 16.088,34.46 15.771,32.461 15.771,30.513 15.771,28.564 16.088,26.575 16.669,24.708 17.25,22.75 18.179,20.879 19.291,19.155 20.484,17.339 21.943,15.697 23.524,14.207 25.217,12.647 27.125,11.3 29.114,10.107 31.236,8.8727 33.5,7.8322 35.826,6.9957 38.264,6.1286 40.764,5.486 43.314,5.0575 45.915,4.6189 48.567,4.4047 51.199,4.4047 Z M 51.189,0.24274 C 40.621,0.19174 28.951,3.7824 21.157,10.953 15.965,15.727 11.844,23.545 11.905,30.645 11.956,38.031 16.649,45.406 22.116,50.292 29.798,57.168 40.917,60.677 51.189,60.524 62.389,60.33 74.202,56.504 82.21,48.64 86.81,44.141 90.493,37.184 90.381,30.747 90.279,23.862 87.106,16.564 82.098,11.861 74.243,4.4761 61.951,0.28355 51.189,0.24274 Z M 51.148,48.935 C 50.903,46.242 49.944,41.672 47.7,38.979 46.874,37.99 45.619,37.235 44.344,37.082 43.059,36.929 41.651,37.368 40.621,38.133 38.978,39.357 37.295,43.325 37.295,43.325 37.295,43.325 36.826,40.958 36.387,39.846 35.928,38.704 35.377,37.572 34.643,36.582 34.123,35.888 33.521,35.215 32.776,34.756 31.909,34.236 30.909,33.828 29.889,33.818 28.91,33.807 27.91,34.154 27.084,34.685 25.982,35.399 25.197,36.531 24.483,37.612 23.83,38.612 23.33,39.724 22.963,40.856 22.606,41.978 22.31,44.345 22.31,44.345 21.321,42.08 20.729,38.306 20.678,35.215 20.627,32.124 21.025,28.962 22.004,26.024 23.004,23.015 24.656,20.195 26.574,17.665 28.369,15.299 30.828,13.055 32.97,11.443 32.97,11.443 33.245,13.116 33.654,13.84 34.102,14.656 34.816,15.319 35.551,15.891 36.306,16.472 37.163,16.911 38.05,17.227 39.152,17.614 40.335,17.859 41.498,17.88 42.569,17.89 43.65,17.676 44.681,17.38 45.323,17.206 46.537,16.605 46.537,16.605 46.537,16.605 47.16,13.503 47.394,11.943 47.557,10.861 47.772,8.6891 47.772,8.6891 48.088,9.7496 48.414,10.821 48.73,11.882 48.73,11.882 50.322,11.933 51.117,11.943 51.954,11.943 53.627,11.882 53.627,11.882 53.923,10.759 54.229,9.6373 54.525,8.5156 54.525,8.5156 54.82,10.8 54.994,11.943 55.218,13.503 55.738,16.605 55.738,16.605 55.738,16.605 57.116,17.206 57.83,17.4 58.636,17.625 59.472,17.829 60.309,17.839 61.573,17.859 62.869,17.727 64.052,17.298 65.429,16.809 66.776,16.074 67.827,15.054 68.357,14.534 68.775,13.871 69.02,13.177 69.234,12.596 69.265,11.341 69.265,11.341 70.571,12.259 74.457,15.656 76.385,18.39 78.344,21.164 79.751,24.351 80.7,27.605 81.455,30.176 81.822,32.9 81.751,35.582 81.669,38.602 80.098,44.488 80.098,44.488 80.098,44.488 79.68,41.978 79.292,40.764 78.966,39.724 78.578,38.683 78.007,37.755 77.354,36.694 76.62,35.613 75.6,34.909 74.661,34.266 73.519,33.797 72.386,33.787 71.377,33.767 70.356,34.154 69.51,34.695 68.602,35.276 67.939,36.205 67.337,37.102 66.776,37.929 66.378,38.867 66.011,39.795 65.593,40.887 65.042,43.162 65.042,43.162 65.042,43.162 63.501,39.724 62.114,38.52 61.165,37.694 59.921,36.919 58.666,36.98 57.105,37.051 55.585,38.092 54.576,39.295 52.382,41.907 51.413,46.477 51.148,48.935 Z" />
  <path
     id="1966-tv-sigil"
     style="fill:#ff0000;fill-opacity:1;stroke:#ff0008;stroke-width:0.2881;stroke-miterlimit:4;stroke-dasharray:none;stroke-opacity:1"
     d="M 51.204,4.2264 C 54.014,4.2264 56.844,4.4264 59.624,4.8664 62.334,5.2964 65.034,5.9464 67.634,6.8264 70.114,7.6664 72.544,8.6864 74.824,9.9564 76.944,11.136 78.994,12.496 80.814,14.096 82.494,15.576 84.044,17.236 85.314,19.076 86.494,20.796 87.484,22.68 88.134,24.66 88.744,26.54 89.104,28.53 89.104,30.5 89.104,32.47 88.744,34.46 88.134,36.33 87.484,38.31 86.494,40.19 85.314,41.9 84.044,43.74 82.494,45.38 80.814,46.85 78.984,48.46 76.944,49.83 74.824,51.02 72.544,52.29 70.114,53.31 67.634,54.14 65.024,55.02 62.334,55.67 59.624,56.1 56.844,56.54 54.024,56.75 51.204,56.75 48.384,56.75 45.554,56.54 42.774,56.1 40.064,55.67 37.364,55.02 34.764,54.14 32.294,53.31 29.864,52.29 27.584,51.02 25.464,49.83 23.434,48.45 21.604,46.85 19.924,45.38 18.354,43.74 17.084,41.9 15.894,40.19 14.884,38.31 14.244,36.33 13.634,34.46 13.324,32.47 13.324,30.5 13.324,28.53 13.634,26.53 14.244,24.66 14.884,22.67 15.894,20.796 17.084,19.076 18.354,17.226 19.914,15.576 21.604,14.096 23.424,12.496 25.464,11.136 27.584,9.9564 29.864,8.6864 32.294,7.6564 34.764,6.8264 37.364,5.9464 40.064,5.2964 42.774,4.8664 45.554,4.4264 48.384,4.2264 51.204,4.2264 Z M 51.454,0.10644 C 39.884,0.07644 27.234,3.6964 18.624,11.426 13.384,16.136 9.6137,23.52 9.6437,30.56 9.6737,37.55 13.524,44.82 18.754,49.46 27.354,57.1 39.894,60.81 51.394,60.66 63.174,60.51 75.874,56.36 84.514,48.35 89.264,43.94 92.664,37.15 92.644,30.66 92.624,23.56 88.874,16.126 83.614,11.356 75.184,3.7464 62.814,0.13644 51.454,0.10644 Z M 51.154,50.05 C 50.764,47.12 49.464,44.23 47.454,42.12 46.004,40.61 43.974,39.51 41.904,39.21 40.394,39 38.824,39.52 37.434,40.13 36.464,40.56 34.874,41.99 34.874,41.99 34.874,41.99 34.004,39.71 33.304,38.73 32.744,37.94 32.044,37.26 31.274,36.68 30.594,36.17 29.844,35.73 29.044,35.44 28.224,35.14 27.354,34.9 26.474,34.93 25.634,34.96 24.774,35.21 24.024,35.61 23.394,35.96 22.804,36.44 22.384,37.04 21.964,37.63 21.804,38.38 21.604,39.08 21.414,39.75 21.204,41.13 21.204,41.13 21.204,41.13 18.434,36.9 17.854,34.49 17.234,31.94 17.224,29.18 17.794,26.62 18.324,24.3 19.484,22.096 20.904,20.186 22.584,17.916 27.134,14.426 27.134,14.426 27.134,14.426 28.064,16.416 28.744,17.266 29.474,18.186 30.374,18.986 31.354,19.636 32.164,20.176 33.054,20.646 34.004,20.866 35.134,21.146 36.334,21.126 37.484,20.986 38.444,20.876 39.384,20.596 40.264,20.206 41.064,19.856 41.834,19.416 42.484,18.846 43.134,18.276 43.644,17.556 44.114,16.836 44.674,15.996 45.524,14.156 45.524,14.156 45.524,14.156 47.274,16.156 48.424,16.746 49.294,17.186 50.294,17.366 51.264,17.376 52.224,17.386 53.244,17.276 54.104,16.836 55.324,16.206 57.084,13.986 57.084,13.986 57.084,13.986 57.804,16.096 58.414,17.016 58.804,17.616 59.324,18.126 59.864,18.586 60.594,19.216 61.384,19.796 62.264,20.206 63.324,20.696 64.484,21.106 65.654,21.166 66.924,21.236 68.204,20.926 69.404,20.526 70.434,20.176 71.454,19.706 72.314,19.026 73.044,18.456 73.614,17.686 74.124,16.916 74.604,16.196 75.304,14.606 75.304,14.606 75.304,14.606 79.724,17.736 81.364,19.836 83.054,21.986 84.504,24.48 85.074,27.15 85.614,29.69 85.374,32.42 84.674,34.92 84.054,37.12 81.414,40.95 81.414,40.95 81.414,40.95 81.194,39.77 81.004,39.2 80.734,38.39 80.484,37.54 79.964,36.86 79.484,36.23 78.854,35.68 78.134,35.35 77.314,34.97 76.364,34.81 75.474,34.89 74.404,34.99 73.394,35.47 72.464,36 71.544,36.53 70.714,37.23 69.994,38.02 69.474,38.58 69.074,39.26 68.684,39.92 68.294,40.58 67.644,41.99 67.644,41.99 67.644,41.99 65.924,40.27 64.824,39.85 63.254,39.25 61.444,39.12 59.794,39.44 58.274,39.74 56.754,40.44 55.644,41.52 53.344,43.77 51.874,47 51.154,50.05 Z" />
  <path
     id="1993-comics-sigil"
     style="fill:#ff0000;fill-opacity:1;stroke:#ff0008;stroke-width:0.31177;stroke-miterlimit:4;stroke-dasharray:none;stroke-opacity:1"
     d="M 51.169,2.3964 C 53.169,2.3864 55.169,2.3764 57.169,2.3364 59.229,2.2964 61.299,2.1764 63.359,2.1464 65.309,2.1264 67.589,2.0964 69.209,2.1764 71.658,2.3064 72.948,2.2564 75.398,2.3764 77.278,3.9364 79.168,5.9864 81.028,7.8064 83.398,10.126 85.748,12.476 88.108,14.806 88.108,14.806 85.248,18.036 83.828,19.656 82.188,21.536 80.558,23.45 78.928,25.34 77.128,27.43 75.338,29.52 73.538,31.6 71.268,34.23 69.009,36.86 66.719,39.48 64.999,41.45 63.229,43.38 61.529,45.37 60.289,46.82 59.119,48.35 57.869,49.79 56.699,51.13 55.489,52.43 54.269,53.72 53.209,54.83 52.139,55.95 51.079,57.06 49.809,55.71 48.509,54.38 47.279,53 45.639,51.17 44.119,49.24 42.509,47.38 40.889,45.51 39.249,43.65 37.599,41.8 35.999,40.01 34.369,38.25 32.779,36.45 31.229,34.7 29.689,32.94 28.179,31.16 26.149,28.77 24.199,26.3 22.159,23.91 20.819,22.336 19.439,20.786 18.069,19.236 16.839,17.836 14.339,15.066 14.339,15.066 14.339,15.066 18.349,10.836 20.389,8.7464 22.509,6.5764 24.919,3.8464 26.829,2.2864 28.799,2.2564 30.509,2.3064 32.479,2.2764 34.719,2.2364 37.089,2.3064 39.389,2.3364 41.259,2.3564 43.139,2.4064 45.009,2.4164 47.059,2.4264 49.119,2.4064 51.169,2.3964 Z M 50.909,0.05644 C 42.429,0.07644 33.939,0.24644 25.459,0.15644 20.729,5.0264 15.989,9.8964 11.259,14.766 17.949,22.58 24.579,30.46 31.339,38.21 37.919,45.75 44.629,53.16 51.279,60.64 58.889,51.94 66.309,43.33 73.918,34.64 79.628,28.05 85.328,21.456 91.029,14.856 86.148,9.9264 81.278,4.9964 76.398,0.06644 67.899,0.06644 59.409,0.03644 50.909,0.05644 Z M 51.229,46.38 C 51.229,46.38 50.759,41.48 49.759,39.27 48.249,35.92 46.799,30.85 43.149,30.44 42.329,30.35 41.659,31.32 41.269,32.04 40.729,33.06 40.869,35.47 40.869,35.47 40.869,35.47 39.589,33.27 38.849,32.23 38.399,31.59 37.879,31 37.359,30.41 36.789,29.76 36.319,28.97 35.579,28.53 34.999,28.19 34.239,27.73 33.639,28.02 33.279,28.2 33.229,28.73 33.149,29.13 33.059,29.57 33.109,30.04 33.169,30.49 33.229,31.07 33.389,31.65 33.549,32.21 33.699,32.76 34.109,33.82 34.109,33.82 31.969,32.34 25.289,26.03 22.999,20.806 21.549,17.496 20.409,13.426 21.689,10.046 22.509,7.8664 24.759,6.2964 26.909,5.4064 29.929,4.1564 32.569,4.3464 36.709,4.8364 36.709,4.8364 34.119,5.2664 33.169,6.0864 32.669,6.5164 32.289,7.1764 32.249,7.8264 32.199,8.6864 32.679,9.5464 33.189,10.246 34.069,11.456 35.409,12.286 36.689,13.076 38.279,14.056 40.019,14.816 41.799,15.366 43.769,15.976 47.879,16.476 47.879,16.476 47.879,16.476 48.039,13.866 48.129,12.556 48.269,10.436 48.559,6.1964 48.559,6.1964 48.559,6.1964 48.799,9.8564 49.719,11.356 50.049,11.886 50.539,12.546 51.169,12.556 51.879,12.566 52.489,11.856 52.869,11.256 53.809,9.7764 53.989,6.1364 53.989,6.1364 53.989,6.1364 54.359,10.416 54.499,12.556 54.589,13.876 54.709,16.506 54.709,16.506 54.709,16.506 59.259,15.926 61.409,15.186 63.449,14.486 65.459,13.566 67.169,12.256 68.349,11.356 69.619,10.336 70.149,8.9464 70.378,8.3564 70.358,7.6464 70.149,7.0564 69.949,6.4964 69.509,5.9864 68.999,5.6764 67.969,5.0464 65.459,4.8964 65.459,4.8964 69.579,4.5264 73.198,4.1164 76.538,5.7064 78.468,6.6264 80.268,8.3464 80.928,10.386 81.998,13.636 81.048,17.436 79.688,20.566 77.378,25.87 71.318,31.9 68.519,33.84 68.669,33.32 68.819,32.8 68.969,32.28 69.129,31.74 69.379,31.22 69.449,30.66 69.509,30.17 69.489,29.67 69.409,29.18 69.339,28.76 69.429,28.15 69.049,27.97 68.469,27.7 67.829,28.38 67.279,28.71 66.589,29.12 65.989,29.67 65.419,30.25 64.799,30.87 64.289,31.59 63.779,32.29 63.099,33.2 61.869,35.11 61.869,35.11 61.869,35.11 61.899,32.89 61.359,31.98 60.939,31.29 60.229,30.39 59.419,30.5 55.779,31.01 54.349,36 52.819,39.35 51.809,41.53 51.229,46.38 51.229,46.38 Z" />
</svg>
