<?xml version="1.0" encoding="UTF-8" standalone="no"?>
<svg
   xmlns:dc="http://purl.org/dc/elements/1.1/"
   xmlns:cc="http://creativecommons.org/ns#"
   xmlns:rdf="http://www.w3.org/1999/02/22-rdf-syntax-ns#"
   xmlns:svg="http://www.w3.org/2000/svg"
   xmlns="http://www.w3.org/2000/svg"
   id="svg989"
   viewBox="0 0 117.61351 59.12997"
   version="1.1"
   height="59.727242mm"
   width="117.61349mm">
  <metadata
     id="metadata995">
    <rdf:RDF>
      <cc:Work
         rdf:about="">
        <dc:format>image/svg+xml</dc:format>
        <dc:type
           rdf:resource="http://purl.org/dc/dcmitype/StillImage" />
        <dc:title></dc:title>
      </cc:Work>
    </rdf:RDF>
  </metadata>
  <defs
     id="defs993" />
  <path
     id="path6280"
     d="m 58.795556,51.549155 c 0,0 -0.57583,-4.47029 -2.74044,-5.98426 -1.6757,-1.17201 -4.49973,-1.37423 -6.30206,-0.0735 2.74734,-3.53389 0.52917,-7.14376 -2.50189,-8.71698 -4.05057,-2.10238 -9.40436,0.77947 -10.46269,3.42531 0,-4.49792 -4.41574,-6.54291 -6.87917,-5.34583 -5.55625,2.7 -1.85209,8.78541 1.85208,12.33005 -4.49792,-1.69258 -11.20962,-9.77167 -10.73144,-15.96064 0.94186,-12.19028 12.84811,-17.48195 22.63769,-20.65692 -4.40403,3.8609 -5.30598,6.25644 -3.94742,9.35709 1.39711,3.18861 6.428,4.29524 9.82603,3.53858 1.67527,-0.37304 3.64639,-3.63525 3.64639,-3.63525 l 1.05834,-12.1708404 1.51123,5.8295004 c 0,0 1.95717,-0.91038 3.03335,-0.91629 1.07618,-0.006 3.15823,0.91629 3.15823,0.91629 l 1.36019,-5.7543004 1.12961,11.7372604 c 0,0 2.28173,3.35117 4.087,3.74131 3.20001,0.69156 7.958381,-0.0788 9.336601,-3.04842 1.43648,-3.0952 1.28257,-5.41904 -3.855671,-9.48302 5.218941,0.39839 22.53371,8.35484 22.59607,20.50333 0.0395,7.69515 -4.521179,11.92849 -10.606599,15.89724 5.29167,-5.55626 6.0041,-9.40293 2.65561,-11.82105 -2.49198,-1.79959 -7.41811,-0.40395 -7.94728,4.67729 -2.11666,-3.70416 -7.338961,-4.75942 -10.453581,-3.08217 -2.77559,1.49467 -4.89225,4.93426 -2.24642,8.90301 -1.85208,-1.5875 -4.64823,-1.36433 -6.35,-0.26455 -1.95556,1.26379 -2.91042,6.34997 -2.91042,6.34997 z"
     style="fill:#000000;fill-opacity:1;stroke:#800000;stroke-width:0.13229167;stroke-miterlimit:4;stroke-dasharray:none;stroke-opacity:0" />
  <path
     id="path1886"
     d="m 58.799316,50.924928 v 0 0 c -0.18146,-3.53272 -4.55008,-13.320569 -7.87163,-14.031509 -3.32155,-0.71094 -4.60292,2.52493 -4.54011,6.098089 -1.28857,-3.121189 -8.15625,-11.946509 -12.19842,-9.249249 -4.04218,2.69726 0.0829,11.639269 2.93114,14.504739 -6.92344,-3.33982 -12.71126,-11.124779 -12.21243,-18.495909 0.7159,-10.5787 12.82506,-18.81718 23.96014,-20.6389204 -3.96652,2.0317604 -7.38833,6.6312204 -6.67157,9.7895804 0.71676,3.15836 4.61532,4.61871 7.9375,4.23334 3.32218,-0.38537 4.49791,-5.16154 4.49791,-5.16154 0.55741,-2.6539 0.41472,-6.18294 0.52917,-9.3905504 l 1.5875,4.2333404 2.12058,0.0561 h 2.00442 l 1.43125,-4.2894204 c 0.24024,3.1458604 0.33435,6.3648004 0.79375,9.4010804 0,0 0.96493,4.30182 3.70417,4.88642 3.95821,0.84474 7.91929,-0.86679 8.73125,-4.23333 0.81196,-3.36654 -3.43958,-8.2021 -6.90628,-9.4770004 15.37295,3.3130304 23.8994,12.7380404 24.1042,21.3832304 0.2048,8.64519 -7.81247,15.564479 -12.17084,17.641819 2.09424,-2.32489 7.18929,-11.439869 3.07025,-14.324769 -4.11904,-2.8849 -10.99978,5.71512 -12.48176,9.039179 0.0324,-2.483179 -0.37569,-5.865869 -3.88743,-6.144029 -3.51174,-0.27816 -8.32445,10.620399 -8.46276,14.169309 z"
     style="fill:#000000;fill-opacity:1;stroke:#ff000b;stroke-width:0.10000001;stroke-miterlimit:4;stroke-dasharray:none;stroke-opacity:1" />
  <path
     id="path2113"
     d="m 58.783648,50.726674 -10.71399,-10.38303 -9.86505,4.47165 -5.34808,-7.15488 -7.94986,5.23969 -5.13127,-6.54057 -11.9336496,3.98411 v 0 L 33.638728,8.8121206 l 1.48453,7.5833444 8.20449,1.663729 8.33522,1.99576 2.87084,-6.856718 1.34879,2.943848 h 2.90106 2.90388 l 1.29757,-2.943848 2.87122,6.856718 8.45262,-1.87836 8.16044,-1.781129 1.3393,-7.5833444 25.962712,31.5315234 v 0 l -12.051262,-3.98411 -5.09514,6.54057 -7.94985,-5.23969 -5.38423,7.15488 -9.82891,-4.47165 z"
     style="fill:#000000;fill-opacity:1;stroke:#ff000b;stroke-width:0.10000001;stroke-miterlimit:4;stroke-dasharray:none;stroke-opacity:1" />
  <path
     id="path2169"
     d="m 58.695603,55.357031 c 0,0 -1.03944,-6.81056 -1.73839,-10.18197 -0.38923,-1.87747 -0.54277,-3.85593 -1.36586,-5.58767 -1.08473,-2.28222 -2.54281,-4.54179 -4.57346,-6.04567 -1.60808,-1.19093 -3.63455,-2.0722 -5.6356,-2.06831 -1.54535,0.003 -3.26421,0.51061 -4.34596,1.61421 -1.31948,1.34612 -1.86256,5.33933 -1.86256,5.33933 -7.38504,-4.03488 -10.75661,-9.40707 -10.51273,-17.34147 0.24388,-7.9344 7.25382,-16.6823704 18.63829,-16.2987604 -2.53615,1.27844 -4.60491,5.7461304 -1.55791,8.0965504 1.77797,1.37151 4.74158,2.2575 6.65023,1.07458 1.01568,-0.62949 1.96026,-1.64883 2.86721,-3.30067 0.90695,-1.6518404 1.10828,-6.4788204 1.01276,-6.4788204 l 1.14226,2.64959 h 1.28173 1.42961 l 1.194,-2.64959 c -0.0289,-0.0144 -0.13791,4.48087 1.01406,6.5646104 0.70945,1.28329 1.6042,2.77393 3.00267,3.21488 2.19338,0.69159 5.29956,0.40925 6.74986,-1.42907 1.81999,-2.3069 1.62869,-5.6150904 -2.09301,-7.7863704 12.39979,-0.19063 18.48809,8.8051904 18.95103,17.2431704 0.30549,5.5682 -2.71151,13.01201 -10.55094,16.13119 0,0 -0.45811,-3.59419 -1.61422,-4.84265 -1.15952,-1.25214 -3.01253,-2.03268 -4.71847,-1.98672 -2.18396,0.0588 -4.21604,1.46695 -5.89492,2.86497 -1.88654,1.57094 -3.25197,3.74375 -4.36542,5.9317 -0.80744,1.58662 -1.21498,3.35608 -1.61421,5.09099 -0.76922,3.34278 -1.49005,10.18197 -1.49005,10.18197 z"
     style="fill:#000000;fill-opacity:1;stroke:#ff000b;stroke-width:0.10000001;stroke-miterlimit:4;stroke-dasharray:none;stroke-opacity:1" />
  <path
     id="path3242"
     d="m 58.857932,49.570023 v 0 0 c -2.59819,-4.122703 -5.46266,-8.442135 -10.29403,-11.865607 -2.39409,-2.335806 -9.50621,0.794419 -13.96014,2.681295 -1.51394,-2.991722 -4.55109,-9.046414 -7.11829,-8.757257 -7.18567,-0.582515 -13.23674,1.200962 -18.7417996,3.507488 L 19.332342,25.297717 30.864022,14.544023 c 3.07445,2.530417 4.06673,2.588906 6.24791,3.597965 2.35381,1.088923 4.82026,1.949742 7.32434,2.624837 2.73756,0.738041 8.36457,1.544228 8.36457,1.544228 l 2.23595,-12.3273644 2.27852,7.0907514 h 1.54262 1.37634 l 2.40625,-7.048172 2.21467,12.199624 c 0,0 5.11377,-0.51772 7.59246,-1.158171 2.7928,-0.72161 5.49755,-1.792398 8.11598,-3.002452 2.12424,-0.981673 5.10893,-2.554218 6.12193,-3.436087 l 10.53105,9.604034 11.653168,10.860145 c -7.87315,-3.974644 -18.023008,-4.040695 -19.721508,-3.343965 -2.48186,1.018068 -6.15397,8.585147 -6.15397,8.585147 -5.48429,-2.5197 -12.15378,-4.559059 -13.72649,-2.696681 -3.80716,2.502243 -7.46518,7.108222 -10.40988,11.932161 z"
     style="fill:#000000;fill-opacity:1;stroke:#ff0008;stroke-width:0.10000001;stroke-miterlimit:4;stroke-dasharray:none;stroke-opacity:1" />
  <path
     id="path3251"
     d="m 58.710807,54.559018 v 0 0 c -1.30549,-5.34015 -4.20071,-10.50183 -7.28687,-14.896989 -0.99693,1.86334 -1.76265,6.034009 -2.05079,9.086019 -2.16031,-2.31583 -4.48666,-4.2996 -6.98166,-5.94604 0.61124,4.85691 2.11711,9.6561 4.80256,14.37919 -11.83354,-5.60917 -17.42714,-16.677339 -17.43917,-26.440249 -0.012,-9.76291 4.32726,-18.56767 12.80971,-24.1956704 0,0 2.69466,4.1637704 4.27143,6.0704804 0.85049,1.02845 1.76832,2.01148 2.78354,2.87772 0.95037,0.8109 3.0704,2.14928 3.0704,2.14928 l 2.49619,-15.3944104 1.652,4.64962 h 1.87265 l 1.97215,0.046 1.65199,-4.72881 2.49619,15.4275804 c 0,0 2.38781,-1.80056 3.53095,-2.76336 1.09303,-0.92057 2.26805,-1.77563 3.17778,-2.8777 1.3578,-1.64487 3.3186,-5.4708304 3.3186,-5.4708304 7.390961,4.3036304 13.434131,15.1825504 12.975681,24.3759204 -0.52371,10.50217 -5.79639,20.792139 -17.519731,26.233339 2.52526,-4.46965 4.44858,-9.38035 4.78385,-14.20545 -2.50427,1.63834 -4.81786,3.7786 -6.98347,5.84653 -0.22056,-3.04811 -0.68905,-6.0785 -1.84191,-9.060009 -3.92484,4.728609 -5.77995,9.862149 -7.56208,14.837839 z"
     style="fill:#000000;fill-opacity:1;stroke:#ff0008;stroke-width:0.10000001;stroke-miterlimit:4;stroke-dasharray:none;stroke-opacity:1" />
  <path
     id="path3260"
     d="m 58.795346,46.233758 h -2e-5 v 0 c -0.87539,-2.1134 -4.19674,-6.26904 -6.92345,-5.27667 -1.78749,0.65054 -1.98496,3.7491 -1.2536,5.56716 -2.04369,-1.68267 -7.08784,-4.66895 -9.65941,-2.55278 -1.20725,0.99346 -1.0555,2.80855 0.30318,4.68058 -9.12055,-5.9304 -12.61575,-11.92091 -12.66451,-19.73795 -0.0444,-7.12242 5.61032,-14.54609 11.31391,-18.12658 -0.11759,2.4283 1.13992,3.43388 2.39072,4.64578 1.3375,1.2959 3.2492,1.90878 5.04605,2.39825 1.12068,0.30528 3.471,0.30704 3.471,0.30704 0.54925,-2.96738 2.00814,-5.14534 3.36487,-6.79485 l -0.009,3.02427 h 4.61963 4.52465 v -3.17072 c 1.76477,2.22917 3.11689,4.52525 3.37661,6.99849 0,0 2.50976,-0.1121 3.70422,-0.46056 1.7296,-0.50458 3.57791,-1.07763 4.881,-2.32186 1.23532,-1.17953 2.16072,-2.12158 2.41249,-4.52061 5.70602,2.5356 11.40279,11.14697 11.32169,18.32727 -0.0877,7.76467 -4.03389,13.69814 -12.68762,19.53725 1.85556,-2.86625 1.28704,-4.03487 -0.0666,-5.01726 -2.60709,-1.89206 -8.28742,1.56973 -9.22674,2.87377 0.52475,-1.54406 0.60836,-4.84528 -1.21937,-5.53718 -2.71846,-1.02909 -6.03802,2.93245 -7.01998,5.15716 v 0 z"
     style="fill:#000000;fill-opacity:1;stroke:#ff0008;stroke-width:0.10000001;stroke-miterlimit:4;stroke-dasharray:none;stroke-opacity:1" />
  <path
     id="path3273"
     d="m 58.819318,49.979801 -1e-5,10e-6 v 0 c -2.10067,-2.65412 -7.78133,-6.15925 -12.47373,-7.04376 -5.28676,-0.99655 -12.14609,-0.13817 -15.97847,2.27492 -1.86234,-1.57662 -6.56949,-3.945589 -10.26413,-4.398509 -3.91613,-0.48007 -8.55654,0.2885 -11.6834596,1.896259 0,0 2.4701096,-11.490369 4.3322996,-17.051159 1.75133,-5.22973 6.40457,-15.2557 6.40457,-15.2557 0,0 6.5556,1.6615 9.86651,2.34278 3.71997,0.76545 7.45966,1.45568 11.22416,1.95837 1.86837,0.24949 5.63056,0.52377 5.63056,0.52377 l 3.05883,-5.6004104 2.50093,5.9724004 c 0,0 4.92039,0.20531 7.38194,0.20097 2.4508,-0.004 7.34895,-0.226 7.34895,-0.226 l 2.51014,-6.0223004 2.99206,5.6228004 c 0,0 5.06931,-0.46981 7.59471,-0.78566 3.44538,-0.43091 6.90931,-0.79362 10.30619,-1.513 3.01246,-0.63796 8.89915,-2.47842 8.89915,-2.47842 0,0 4.497612,9.65522 6.196602,14.69121 1.93715,5.74191 4.52605,17.607199 4.52605,17.607199 -2.92965,-1.562469 -7.43157,-2.391979 -11.193092,-1.950979 -3.76002,0.44082 -7.99152,2.133419 -10.43413,4.485249 -5.29398,-2.80527 -10.41344,-3.39199 -15.60135,-2.48763 -4.9277,0.859 -10.79742,4.51661 -13.14528,7.23759 l -1e-5,10e-6 z"
     style="fill:#000000;fill-opacity:1;stroke:#ff0008;stroke-width:0.10000001;stroke-miterlimit:4;stroke-dasharray:none;stroke-opacity:1" />
  <path
     id="path3282"
     d="m 58.712601,46.587313 v 0 0 c -4.42225,-3.54344 -9.53767,-5.445679 -14.82728,-5.709379 -6.04215,-0.30121 -11.38932,1.071739 -17.50138,4.804829 -4.68115,-1.48577 -8.38639,-1.86802 -12.55087,-1.28269 -4.8926896,0.68768 -7.7974696,1.66579 -13.75881962,5.51334 C 1.7994214,41.892773 4.2564014,34.522034 7.8323114,27.455034 11.094841,21.007374 15.063981,15.393294 20.149021,9.6155836 c 3.89969,2.3496904 5.76858,2.7628604 8.76139,3.8777504 3.846,1.43272 7.78407,2.64115 11.77526,3.59761 3.33176,0.79843 10.12327,1.77836 10.12327,1.77836 l 2.11638,-9.3876104 1.71494,2.3886104 c 0,0 2.70558,-0.47718 4.07234,-0.47786 1.37841,-6.8e-4 4.10753,0.47786 4.10753,0.47786 l 1.82143,-2.3550404 2.12581,9.3540404 c 0,0 6.60571,-0.98433 9.856871,-1.73161 3.88221,-0.89234 7.75654,-1.89459 11.49166,-3.27905 3.19249,-1.18332 7.714169,-2.94015 9.275999,-4.2762304 3.588079,3.5186204 9.273989,11.6616404 12.598499,18.2701204 3.50503,6.96731 6.50921,16.321389 7.54882,22.146619 -2.61076,-2.28985 -8.35708,-4.95204 -13.04292,-5.67822 -4.36424,-0.67634 -9.463008,-0.0331 -13.178658,1.36362 -5.75176,-3.66183 -11.15827,-5.089179 -17.070941,-4.894139 -5.52382,0.18221 -10.35276,1.849199 -15.5341,5.796899 z"
     style="fill:#000000;fill-opacity:1;stroke:#ff0008;stroke-width:0.10000001;stroke-miterlimit:4;stroke-dasharray:none;stroke-opacity:1" />
  <path
     id="path3293"
     d="m 58.704248,48.854359 v 0 0 c -0.55458,-2.1992 -3.7141,-5.42733 -6.63723,-5.91595 -3.14235,-0.52526 -7.14468,0.82654 -8.81539,3.69341 -1.48113,-2.17434 -5.50373,-2.88917 -7.84361,-1.60572 -2.32098,1.27308 -3.8885,4.11128 -2.83826,7.4171 -8.70249,-4.60683 -13.78942,-13.542719 -13.01204,-22.038179 0.8947,-9.77753 6.44984,-18.56428 19.33035,-22.2248104 0,0 -2.67832,1.79244 -2.39301,3.0538104 0.77074,3.40748 5.98412,3.86717 9.38548,4.66449 2.24292,0.52577 6.94903,0.38606 6.94903,0.38606 l -0.055,-9.3169604 2.74859,6.5803804 c 0,0 1.97733,-0.90563 3.08842,-0.91654 1.11109,-0.0109 3.32154,0.91512 3.32154,0.91512 l 2.70021,-6.5789604 0.076,9.2327304 c 0,0 3.70465,0.32847 5.49236,-0.067 3.86722,-0.85544 9.95294,-1.01825 10.83386,-4.87974 0.29814,-1.3069104 -2.58766,-3.0783304 -2.58766,-3.0783304 14.39807,4.4848904 18.71065,12.4578704 19.6177,22.3220904 0.77495,8.42761 -5.16006,18.180519 -13.00164,21.807879 0.80957,-2.2397 -0.20002,-5.73843 -2.30031,-7.0298 -2.45043,-1.50665 -6.91773,-0.8637 -8.53017,1.3068 -1.05473,-2.17239 -5.23041,-4.00714 -8.1899,-3.61981 -3.11069,0.40711 -6.31168,3.07227 -7.33926,5.89191 z"
     style="fill:#000000;fill-opacity:1;stroke:#ff0008;stroke-width:0.10000001;stroke-miterlimit:4;stroke-dasharray:none;stroke-opacity:1" />
  <path
     id="path3300"
     d="m 58.771202,58.463053 v 0 h 2e-5 c -0.6069,-4.83269 -3.53694,-16.73284 -6.35725,-17.35945 -2.82031,-0.62661 -4.70501,4.70411 -5.11706,9.27626 0,0 -2.24432,-10.25114 -6.06547,-9.81494 -4.8544,0.55415 -4.69718,13.88477 -4.69718,13.88477 -6.79979,-9.64241 -8.65402,-17.97895 -8.72022,-27.63957 -0.061,-8.89707 4.17322,-20.6385804 7.68137,-25.5626704 2.00187,4.37866 2.88241,5.43327 4.89018,7.72659 1.984,2.2661704 4.29959,4.3307204 6.92927,5.7992404 2.07658,1.15965 6.76913,2.25638 6.76913,2.25638 l 1.50107,-9.7173304 0.91787,2.8862704 h 2.26827 2.21924 l 1.00223,-2.9266204 1.41854,9.7021404 c 0,0 5.19113,-1.40956 7.49439,-2.73988 2.73868,-1.58182 5.26685,-3.64747 7.27486,-6.0909204 1.70349,-2.0729 2.98642,-4.41324 3.8733,-7.05596 3.67308,5.02137 7.78588,16.6051904 7.74607,25.4832804 -0.0437,9.74187 -2.66884,20.685 -8.75011,27.88527 0.3592,-2.35063 -0.40265,-13.41381 -4.20056,-13.81955 -4.04502,-0.43214 -6.47388,9.87195 -6.47388,9.87195 -0.0246,-1.05801 -1.18132,-9.01519 -4.02071,-9.50741 -4.24636,-0.73612 -7.14982,12.65453 -7.58337,17.46215 z"
     style="fill:#000000;fill-opacity:1;stroke:#ff0008;stroke-width:0.10000001;stroke-miterlimit:4;stroke-dasharray:none;stroke-opacity:1" />
  <path
     id="path3307"
     d="m 58.789304,48.494141 h -2e-5 v 0 c -3.08502,-3.38736 -12.02529,-8.798749 -15.64005,-8.089179 -1.27972,0.2512 -2.82029,1.04829 -1.03174,3.620579 -1.45497,-1.87916 -6.08011,-4.260029 -7.10369,-3.038399 -1.19615,1.427589 1.20538,4.996459 4.13821,8.041169 -6.65901,-2.69448 -14.63335,-10.422029 -14.3682,-18.127989 0.31684,-9.20817 7.35971,-16.56228 18.61749,-20.43052 -2.4557,1.90531 -3.8082,4.15897 -4.73862,6.50164 4.7368,1.08848 2.32653,0.61136 7.02627,1.25944 l 7.41862,0.79097 c 1.05569,-5.0196 2.1461,-6.87098 3.20659,-7.68718 l 0.0384,3.8366 c 0,0 1.5429,-1.12443 2.43669,-1.11919 0.96032,0.006 2.60377,1.23312 2.60377,1.23312 l 0.0342,-3.91759 c 1.58739,1.83765 3.0027,4.3625 3.20542,7.59147 l 6.01888,-0.5599 c 4.77246,-0.44528 3.5933,-0.19389 8.31636,-1.38006 -0.65186,-2.42582 -2.64132,-4.64506 -4.88899,-6.70664 10.01836,3.74428 18.54162,10.08625 18.7535,19.75409 0.17496,7.98324 -5.7982,14.852029 -14.29534,19.116029 0,0 6.03731,-6.16662 3.92816,-8.444679 -1.19572,-1.29148 -6.75957,3.240309 -6.75957,3.240309 0,0 1.87876,-3.026789 -0.7306,-3.568619 -5.46496,-1.13479 -16.18575,8.084529 -16.18575,8.084529 z"
     style="fill:#000000;fill-opacity:1;stroke:#ff0008;stroke-width:0.10000001;stroke-miterlimit:4;stroke-dasharray:none;stroke-opacity:1" />
  <path
     id="path3312"
     d="m 58.914862,47.733697 6e-5,-10e-6 -6e-5,10e-6 c -0.8906,-4.31366 -3.29896,-8.81491 -7.22527,-10.24783 -2.9721,-1.08468 -6.1796,-0.48588 -9.18025,2.4109 -0.83525,-3.14322 -4.35843,-7.27471 -7.90535,-7.13493 -2.77818,0.10949 -5.33526,1.01292 -5.73298,6.05849 -2.51984,-2.49368 -4.51961,-8.74957 -3.71632,-13.27342 0.95027,-5.35162 6.097,-10.89879 9.53352,-13.22868 0,0 0.93386,2.18752 1.73387,3.03427 1.41685,1.49963 3.16834,2.96399 5.19096,3.37061 2.53562,0.50975 5.75712,-0.0749 7.63491,-1.38233 1.60745,-1.11924 3.62585,-4.05724 3.75701,-5.49 0,0 1.17515,1.59407 1.99413,2.10931 1.16947,0.73575 2.56626,1.24663 3.94782,1.26316 1.27955,0.0153 2.60035,-0.40034 3.68326,-1.08209 0.87735,-0.55234 2.08059,-2.31183 2.08059,-2.31183 0.33837,1.76433 1.78661,4.16425 3.52431,5.25818 1.73586,1.09276 3.84627,1.85676 5.89533,1.76376 2.263151,-0.10272 4.590511,-1.05253 6.308031,-2.52985 1.19957,-1.03181 1.6003,-1.83693 2.40583,-4.09198 4.78598,2.89141 8.61826,8.07068 9.5819,13.50576 0.78712,4.4395 -0.66143,10.02451 -3.557,13.05013 0.1027,-1.88529 -1.41238,-5.4675 -3.6957,-5.93682 -3.96534,-0.81505 -7.46891,1.27953 -9.964451,6.94291 -1.83109,-2.13431 -5.58275,-3.49036 -8.35922,-2.59424 -4.18418,1.35048 -7.10377,6.11617 -7.93487,10.53651 v 0 z"
     style="fill:#000000;fill-opacity:1;stroke:#ff0008;stroke-width:0.10000001;stroke-miterlimit:4;stroke-dasharray:none;stroke-opacity:1" />
  <path
     id="path3315"
     d="m 58.897425,50.359402 v 0 0 c -1.41266,-3.85325 -6.35196,-9.39634 -9.19697,-9.88194 -2.84501,-0.48561 -5.08617,1.3714 -5.88024,3.46151 -2.0557,-3.00496 -8.4871,-5.18227 -10.9639,-2.72397 -2.4768,2.4583 -2.01917,5.70014 0.88241,8.75053 -6.25675,-2.30644 -19.36844,-9.03469 -18.35738,-19.58627 1.01106,-10.55158 14.91069,-16.93232 25.03906,-19.51075 -3.66364,3.27741 -3.07861,5.24326 -2.08911,7.71803 1.01357,2.53497 4.77193,3.68578 7.00067,4.25104 2.19367,0.55636 5.14742,0.11009 6.43428,-1.54423 l 1.87416,-12.0751904 2.82094,4.2287804 h 2.436 2.33493 l 2.7479,-4.1528904 2.02119,12.0470404 c 2.79404,2.01135 4.53075,1.80153 6.82034,1.41554 2.35223,-0.39656 5.19325,-1.4829 6.14287,-3.67116 1.12212,-2.58577 3.90558,-2.55081 -1.78967,-8.26471 14.32355,4.13335 25.173705,10.8651 25.112285,20.54852 -0.0614,9.68342 -9.488745,14.96068 -18.141875,18.47387 2.88288,-3.54601 3.03516,-6.97607 0.28952,-8.93997 -2.74564,-1.9639 -8.72995,0.0582 -10.79888,3.25447 -0.0833,-1.07619 -2.04134,-4.34436 -5.13664,-3.68019 -3.0953,0.66417 -6.55189,3.77164 -9.60191,9.88194 z"
     style="fill:#000000;fill-opacity:1;stroke:#ff0008;stroke-width:0.10000001;stroke-miterlimit:4;stroke-dasharray:none;stroke-opacity:1" />
  <path
     id="path3322"
     d="m 58.733546,49.342429 -3e-5,0 3e-5,0 c -0.84343,-9.623404 -4.51057,-12.627513 -6.47727,-12.045362 -2.67175,0.790853 -1.49838,4.708547 -1.10517,6.649055 -1.86571,-2.816834 -9.52294,-10.963713 -13.23162,-7.50568 -3.93477,3.668832 2.20631,9.935901 6.9627,14.562328 -9.39674,-2.969953 -20.19442,-10.246148 -20.00273,-20.665964 0.19169,-10.419816 9.57408,-18.686145 24.43266,-21.8454094 -2.10568,0.705193 -8.31578,5.6945634 -7.95915,9.9185944 0.15286,1.810519 2.38896,2.944412 4.07598,3.619183 2.62842,1.05131 6.65529,1.269793 8.48745,0.296074 1.28329,-2.61515 1.60846,-9.177951 1.6725,-13.7669264 l 1.34209,3.4004344 h 1.80253 1.90659 l 1.15826,-3.2823934 c 0.21297,4.5989064 0.74183,9.4938864 1.70752,13.5006454 1.81425,1.004524 5.25486,0.686643 7.69792,-0.09869 1.98419,-0.637826 4.84248,-1.513326 5.12767,-3.577906 0.5892,-4.265299 -4.87313,-8.6491304 -8.19283,-9.9868344 13.22805,2.3342824 24.24202,10.4933174 24.59122,21.4646194 0.3077,9.667405 -10.03495,18.340509 -20.09167,20.935744 5.85749,-5.344357 10.29926,-10.63601 7.256,-14.221694 -3.13639,-3.695421 -9.73301,2.190146 -13.56044,7.310151 1.01639,-3.428701 0.90047,-6.478213 -1.39262,-6.788307 -3.39991,-0.459768 -5.69643,6.674492 -6.20762,12.128339 z"
     style="fill:#000000;fill-opacity:1;stroke:#ff0008;stroke-width:0.10000001;stroke-miterlimit:4;stroke-dasharray:none;stroke-opacity:1" />
  <path
     id="path3329"
     d="m 58.786003,51.865238 v 1e-5 -1e-5 c -1.05157,-8.69873 -5.087708,-15.01512 -8.443725,-16.21003 -1.960944,-0.69819 -3.901008,-0.65133 -5.182151,5.34951 -0.990579,-4.60013 -4.969702,-10.85691 -9.104355,-9.76774 -4.290244,1.13016 -5.100151,4.27373 -2.536659,13.03411 -5.050886,-3.5958 -8.902567,-9.58161 -8.724234,-15.29249 0.313564,-10.04148 9.243782,-17.37946 21.801788,-20.8095204 -5.517697,5.0208104 -5.032814,7.2152304 -3.412456,10.5301704 1.11679,2.28473 4.693551,3.17377 7.171625,2.60247 1.731591,-0.3992 3.709308,-3.82896 3.709308,-3.82896 l 1.783979,-9.8414004 0.78136,3.9677804 h 2.15552 2.19764 l 0.92136,-3.9116204 1.76585,10.0357304 c 0,0 1.83421,2.90793 3.35034,3.35034 2.42331,0.70711 6.08761,0.52501 7.39456,-1.63469 2.018021,-3.33473 1.347091,-6.89245 -3.06068,-11.2857404 13.899591,4.3728904 20.965361,11.3621604 21.455851,21.3126204 0.2806,5.69256 -3.80439,11.0691 -8.68047,14.87492 2.59041,-7.56744 1.60209,-12.01898 -2.33496,-13.08981 -4.01171,-1.09114 -8.671321,5.24774 -9.395571,9.74783 -0.45956,-4.84697 -2.566,-5.66213 -4.21515,-5.28747 -3.82969,0.87005 -8.40742,7.40802 -9.39877,16.15399 v 1e-5 z"
     style="fill:#000000;fill-opacity:1;stroke:#ff0008;stroke-width:0.10000001;stroke-miterlimit:4;stroke-dasharray:none;stroke-opacity:1" />
  <path
     id="path3341"
     d="m 58.828348,53.700492 3e-5,1e-5 -5.86242,-20.257909 c 0,0 -3.41957,-0.12702 -5.02764,0.35991 -1.51858,0.45983 -4.13888,2.35106 -4.13888,2.35106 -3.33791,-2.8294 -6.26434,-4.26088 -9.88334,-4.62377 -3.36869,-0.33779 -7.27035,0.60274 -9.87115,2.39166 0.68737,-3.0832 2.37308,-7.3051 4.56199,-10.38977 2.45253,-3.45616 6.6704,-7.0847 9.3004,-8.66846 0,0 2.88358,2.23197 4.57659,2.81783 1.74179,0.60274 3.65111,0.69153 5.49326,0.63123 1.34788,-0.0441 3.98055,-0.72374 3.98055,-0.72374 l 1.91186,-11.8577604 1.92085,10.1366304 h 3.03793 3.03787 l 1.92085,-10.1432104 1.877,11.8840504 c 0,0 2.39678,0.55443 3.61868,0.60311 1.84397,0.0735 3.75398,0.0755 5.51606,-0.47285 1.80548,-0.56186 4.92881,-2.80818 4.92881,-2.80818 2.64039,1.32635 6.55187,4.88109 8.91614,8.13681 2.33469,3.21498 3.63998,6.19066 4.91597,10.85888 -3.07782,-2.19921 -6.81235,-2.79873 -10.32911,-2.42452 -3.513,0.37381 -9.57738,4.53893 -9.57738,4.53893 0,0 -2.70611,-1.88484 -4.26259,-2.33335 -1.52205,-0.43859 -4.74331,-0.2862 -4.74331,-0.2862 z"
     style="fill:#000000;fill-opacity:1;stroke:#ff0008;stroke-width:0.10000001;stroke-miterlimit:4;stroke-dasharray:none;stroke-opacity:1" />
  <path
     id="path3352"
     d="m 58.807856,44.17804 10e-7,-1e-5 v 0 C 57.63344,41.62769 50.704362,33.70155 46.076733,34.14724 c -1.189681,0.11458 -2.367485,-0.11646 -1.554372,3.90912 -1.337512,-1.64209 -8.133615,-6.08334 -9.991105,-4.30632 -1.85749,1.77703 1.98301,6.61285 4.114354,8.57611 -6.766443,-2.30151 -16.317149,-5.90153 -15.536801,-13.55352 0.780348,-7.65199 17.988002,-12.08603 22.23231,-12.55491 -1.41325,0.85371 -2.874139,2.88853 -2.334763,4.48549 0.39236,1.16168 2.143448,1.25192 3.328986,1.56488 1.024598,0.27049 3.169731,0.24383 3.169731,0.24383 l 5.101451,-7.15617 -0.04239,7.76153 h 4.062057 4.587658 l -0.196365,-7.75544 5.072098,7.25309 c 0,0 2.151472,-0.0585 3.169731,-0.36574 1.272813,-0.38398 3.187078,-0.53243 3.553915,-1.81029 0.453521,-1.57982 -0.509214,-2.75007 -2.537539,-4.22783 4.512112,0.81401 22.302533,4.51008 22.27385,13.72409 -0.02067,6.64082 -10.263718,10.95929 -15.594402,12.33339 1.45919,-1.62174 6.216451,-6.0802 4.131523,-8.31304 -2.466268,-2.64123 -8.566315,3.05614 -10.030428,4.15789 1.0006,-2.43193 0.0079,-3.75798 -0.836026,-3.88696 -5.099565,-0.77935 -12.227524,7.46845 -13.412352,9.9516 z"
     style="fill:#000000;fill-opacity:1;stroke:#ff0008;stroke-width:0.10000001;stroke-miterlimit:4;stroke-dasharray:none;stroke-opacity:1" />
  <path
     id="path3363"
     d="m 58.696015,47.64694 c -0.3552,-2.46335 -1.76194,-7.20576 -4.80497,-7.87978 -3.04303,-0.67402 -6.94785,2.10546 -8.8435,5.35563 0.18787,-3.41567 -0.12294,-7.49842 -3.19223,-8.90622 -3.06929,-1.4078 -8.27589,1.16179 -11.38072,5.37372 0.65153,-2.70208 0.78337,-7.48396 -3.89432,-8.70858 C 21.902585,31.65709 13.822185,37.79755 9.5871054,44.825 11.372655,37.72986 15.112825,30.6049 19.690365,25.11392 c 4.57754,-5.49098 11.10713,-10.3721 15.91532,-13.16203 0.72989,2.33753 2.83251,4.98239 4.75875,7.07059 1.7095,1.85325 3.82589,3.30264 5.91441,4.71509 1.51359,1.02363 4.76734,2.70579 4.76734,2.70579 -0.26034,-5.61973 1.03061,-8.13075 2.25982,-10.32702 -0.17791,2.72501 -0.0425,5.45002 0.60724,8.17503 0,0 2.50634,-1.78669 4.78277,-1.79711 2.27643,-0.0104 4.78284,1.73051 4.78284,1.73051 0.59146,-2.70281 0.61706,-5.40563 0.62944,-8.10844 1.80744,3.19007 2.43634,5.92708 2.17177,10.16733 0,0 3.43972,-1.56191 5.02503,-2.57694 1.90194,-1.21775 3.79236,-2.52819 5.33083,-4.1815 2.08509,-2.24072 4.70745,-6.01033 5.13333,-7.61345 5.82544,3.05031 11.97303,8.50941 16.48748,13.95696 4.514455,5.44755 7.415435,11.49383 9.770265,19.35588 -4.2131,-7.32826 -11.826755,-13.53586 -17.504145,-12.20186 -3.10654,0.72993 -4.79339,3.45497 -3.64974,8.59329 -3.19954,-3.73697 -7.15698,-6.67449 -10.6457,-5.72034 -3.48873,0.95415 -4.26876,5.37732 -3.83846,9.27149 -3.38774,-4.50342 -5.56021,-5.81169 -8.63418,-5.39648 -3.07397,0.4152 -4.68179,5.40981 -5.05876,7.87623 z"
     style="fill:#000000;fill-opacity:1;stroke:#ff0008;stroke-width:0.10000001;stroke-miterlimit:4;stroke-dasharray:none;stroke-opacity:1" />
  <path
     id="path3370"
     d="m 58.664762,48.669822 -1e-5,10e-6 v 0 c -0.87992,-4.9271 -3.64819,-9.38218 -6.32654,-9.93522 -2.80031,-0.57821 -5.91428,2.47499 -7.27986,5.57537 -0.58346,-3.6153 -3.65,-9.01074 -7.36652,-8.86918 -4.16964,0.15882 -6.3822,5.51583 -7.26748,10.19232 -1.89063,-3.41848 -1.96007,-12.81391 0.0406,-18.72783 1.78424,-5.27416 8.39316,-11.74243 10.35293,-13.06641 0.23572,2.0434 1.88718,3.73021 3.58038,4.77426 1.9813,1.2217 4.55237,1.41553 6.87302,1.23475 1.03214,-0.0804 2.93494,-1.01594 2.93494,-1.01594 l 1.18573,-7.87981 0.93703,3.1393 h 2.33581 2.46477 l 0.88176,-3.30544 1.19177,7.93307 c 0,0 2.18753,1.15165 3.38647,1.24171 2.15743,0.16205 4.53838,-0.13051 6.35921,-1.299 1.68232,-1.07961 3.64701,-2.19341 3.53885,-4.84132 5.00896,3.48817 9.0561,8.84534 10.93904,14.63755 1.76177,5.41948 1.54543,11.00998 -0.3808,17.14429 -0.67673,-5.33465 -3.5049,-9.51447 -6.05599,-9.9401 -4.11633,-0.68678 -6.87509,2.01182 -8.70627,8.99778 -0.51835,-2.15365 -2.98654,-6.39754 -6.26742,-6.08276 -4.12331,0.39561 -6.43445,6.26463 -7.35138,10.0926 z"
     style="fill:#000000;fill-opacity:1;stroke:#ff0008;stroke-width:0.10000001;stroke-miterlimit:4;stroke-dasharray:none;stroke-opacity:1" />
  <path
     id="path942"
     d="m 58.712807,42.731305 c -0.82826,-3.01137 -3.65379,-8.96554 -7.64182,-9.24314 -1.75162,-0.12192 -3.51405,1.92569 -3.8865,3.55559 -0.99286,-1.82868 -2.64408,-2.91681 -4.33283,-2.70285 -2.46796,0.31268 -4.74538,3.62541 -5.1469,5.40432 -1.30493,-1.32598 -4.26622,-2.38588 -5.78625,-1.13935 -2.7357,2.24346 -1.87609,7.72692 -0.5605,11.16415 -5.6854,-6.6752 -7.79018,-13.39485 -7.9456,-20.80828 -0.11185,-5.33501 1.21173,-9.63615 4.04181,-15.48989 2.13783,2.1486 4.79561,3.3425 7.4562,4.50655 2.55204,1.11656 5.27495,1.89832 8.02859,2.31907 2.70312,0.41302 6.47031,0.18087 8.20147,0.18087 0,-2.91133 2.67532,-9.78906 3.46231,-10.7178004 l 2.37701,1.9697904 h 1.73301 1.96329 l 2.11109,-1.9286704 c 0.97507,1.2370804 3.46155,7.1689504 3.52584,10.6766804 2.25686,0.15264 5.68712,0.22558 8.5008,-0.11192 1.78575,-0.21421 3.58526,-0.54844 5.25892,-1.20695 3.52879,-1.38841 6.95333,-3.05772 9.8493,-5.69311 2.18594,2.63539 4.54664,10.163 4.26215,15.52047 -0.39086,7.36047 -2.97443,15.06222 -8.08095,20.58306 1.13837,-3.2068 2.34552,-8.61959 -0.49746,-10.87438 -1.55679,-1.2347 -3.50135,-0.75486 -5.86026,1.09083 -0.43619,-2.36386 -2.5808,-4.94804 -4.97917,-5.30054 -1.74325,-0.25621 -3.46293,0.62588 -4.57458,2.64842 -0.25903,-1.96345 -1.94119,-3.74555 -3.67019,-3.67197 -4.03632,0.17176 -6.6836,6.10011 -7.80878,9.26905 z"
     style="fill:#000000;stroke:#ff0000;stroke-width:0.10000001;stroke-miterlimit:4;stroke-dasharray:none;stroke-opacity:1" />
  <path
     id="path954"
     d="m 58.776325,55.81722 v 0 0 c 0,0 -1.83357,-18.482449 -8.76363,-18.893049 -2.01256,-0.11924 -3.17514,5.147819 -3.17514,5.147819 0,0 -1.22656,-7.279819 -4.00803,-7.319779 -2.78449,-0.04 -4.05461,7.455089 -4.33672,10.314869 -4.79289,-5.726729 -5.97645,-12.782239 -6.46593,-19.700759 -0.47222,-6.67454 2.64504,-15.11919 5.5701,-19.4309204 1.8929,2.718 5.98632,5.9705304 9.04851,7.5340504 3.06219,1.56352 7.02321,2.86028 8.54415,2.31462 1.52095,-0.54565 1.25479,-2.31462 1.25479,-2.31462 -2.09133,-4.2068004 -1.50383,-7.0605304 -0.52391,-9.6785004 l 1.7273,3.29642 h 1.12846 1.17548 l 1.77936,-3.22589 c 1.44507,3.33183 1.14606,6.5268604 -0.60556,9.6079704 0,0 -0.066,1.74497 1.19043,2.33813 1.25638,0.59316 5.70583,-0.72419 8.78171,-2.33813 3.07588,-1.61394 7.80004,-5.6730104 8.97553,-7.5575604 2.91243,4.02975 5.65143,12.2104804 5.55895,18.7578204 -0.10041,7.10875 -2.86216,15.66962 -6.46592,20.297149 -0.21408,-3.839369 -2.16372,-10.768029 -4.44314,-10.449749 -1.98493,0.27716 -3.33706,4.97258 -3.80262,7.637769 0,0 -1.41875,-5.467129 -3.53645,-5.301239 -5.97871,0.46835 -8.60772,18.963579 -8.60772,18.963579 z"
     style="fill:#000000;stroke:#ff0000;stroke-width:0.10000001;stroke-miterlimit:4;stroke-dasharray:none;stroke-opacity:1" />
  <path
     id="path966"
     d="m 58.844793,59.601621 v 0 l -2e-6,10e-6 C 57.481477,50.117221 54.078664,43.293101 47.127667,41.709792 41.914486,40.522332 36.637875,45.628261 33.395317,49.998851 34.225659,42.342591 31.845504,35.600042 26.290549,32.934052 20.627975,30.216412 13.992652,31.918522 8.1886114,38.165942 8.2985734,27.184492 12.594297,20.357112 18.534966,13.855762 25.158114,6.6075216 35.793045,2.2629116 44.4906,-0.07020844 40.015821,2.0243716 36.470976,4.5143816 36.703268,8.3240216 c 0.173835,2.8509204 3.933549,4.3763704 6.547657,5.5271904 2.927878,1.28896 6.004906,1.297 9.518225,1.22816 0.450057,-1.91171 1.716556,-8.3393304 1.940121,-10.2510404 l 1.095963,3.05049 h 3.039557 3.03745 l 1.054435,-3.08064 c 0.260439,1.92176 1.44474,8.3227204 1.937281,10.2444804 1.872856,0 7.261923,0.16557 10.381935,-1.40296 2.328737,-1.17074 5.427181,-2.98856 5.462709,-5.5947704 0.04973,-3.64832 -1.739866,-5.29183 -7.430641,-8.03738004 5.642965,1.19093004 18.516121,6.24805004 25.098245,12.93159044 6.477305,6.57709 11.232945,14.63262 11.033965,25.32302 -2.96973,-3.62437 -10.470739,-8.25905 -15.785146,-6.29721 -6.360548,2.34803 -10.103413,7.64883 -9.463673,18.004649 -2.903393,-4.30609 -8.363199,-9.504449 -13.5395,-8.352699 -6.99661,1.556779 -11.006348,8.673239 -11.787058,17.984719 z"
     style="fill:#000000;stroke:#ff0000;stroke-width:0.10000001;stroke-miterlimit:4;stroke-dasharray:none;stroke-opacity:1" />
  <path
     id="path978"
     d="m 58.722795,52.102673 v 0 0 c -2.29456,-6.365588 -6.52896,-10.819238 -11.91185,-13.436572 -4.91571,-2.390176 -11.0128,-2.48511 -16.36882,-0.977869 -0.9188,-4.722668 -4.00857,-9.480205 -8.08301,-12.124429 -4.19699,-2.72375 -8.39455,-3.96782 -14.7973996,-2.517586 3.2390896,-4.758201 5.2196896,-6.769441 8.6353496,-9.240502 4.15741,-3.007675 9.25581,-5.5647374 13.97096,-6.4640154 1.86748,2.7140564 3.02575,3.6897734 4.82949,5.2325884 1.95422,1.671524 4.0262,3.329843 6.41161,4.290462 2.93532,1.182073 9.34664,1.661626 9.34664,1.661626 0.31203,-2.506046 0.85567,-4.896287 1.45453,-7.258918 l 2.09684,5.65397 h 4.41566 4.51061 l 2.16359,-5.529581 c 0.51679,2.374618 1.03848,4.748011 1.36743,7.16959 0,0 5.38577,-0.346541 7.89272,-1.246219 3.098111,-1.111828 6.005691,-2.874256 8.507401,-5.013394 1.63876,-1.401255 3.09944,-3.1387274 4.10968,-4.9951854 3.95087,0.870466 9.427399,3.0833044 13.409064,5.9134924 3.73603,2.655595 7.29151,6.43844 9.3759,10.059012 -5.31954,-1.552067 -10.646625,-0.477028 -14.859444,2.232099 -4.12171,2.650535 -7.44931,7.795824 -8.01873,12.321706 -5.00355,-1.632393 -11.5948,-1.596254 -16.581951,0.801862 -5.3942,2.593848 -9.31295,7.075866 -11.87627,13.467863 z"
     style="fill:#000000;fill-opacity:1;stroke:#ff0000;stroke-width:0.10000001;stroke-miterlimit:4;stroke-dasharray:none;stroke-opacity:1" />
  <path
     id="path926"
     d="m 58.700057,50.557772 h 10e-6 -10e-6 c -1.52954,-9.49373 -6.8955,-14.75293 -13.73621,-17.84104 -5.76873,-2.60419 -11.87642,-1.97187 -18.94583,1.26325 1.31201,-2.23855 -1.66183,-4.50568 -4.03545,-4.6652 -5.64718,-0.37951 -10.50703,3.39498 -14.5463196,9.61601 1.02942,-3.66479 6.0162296,-11.80919 10.5615396,-16.49658 5.53816,-5.71127 11.10522,-9.9406 19.6945,-13.4809114 l 1.42649,5.5462084 7.10417,1.450023 7.03377,1.50953 1.53083,-5.835989 1.74396,2.876436 h 2.16856 2.16318 l 1.76546,-2.836084 1.64651,5.792937 6.58412,-1.38106 7.384351,-1.575793 1.4776,-5.5462184 c 5.72619,2.0770354 14.14857,7.6125414 19.640689,13.3006914 4.712323,4.88052 10.144103,13.9386 10.814423,17.24174 -2.34089,-4.72551 -8.53686,-10.67868 -14.064773,-10.18094 -2.168959,0.1953 -5.819899,1.35935 -4.694549,4.67059 -4.77177,-2.75866 -12.09331,-3.74787 -17.322841,-1.80367 -7.48983,2.78452 -13.58475,7.53402 -15.39417,18.37607 v 0 z"
     style="fill:#000000;stroke:#fa0000;stroke-width:0.10000001;stroke-miterlimit:4;stroke-dasharray:none;stroke-opacity:1" />
  <path
     id="path934"
     d="m 58.801559,48.4899 v 0 1e-5 c -1.15068,-4.62964 -5.05863,-9.317519 -9.43351,-11.823989 -8.34157,-4.77909 -18.27367,-4.40756 -28.54578,-4.1149 0.64007,-5.42979 0.46964,-7.8618 -1.4238,-11.0608 -3.01342,-5.09121 -9.08527,-8.149399 -14.3417996,-10.455774 h 18.9765696 16.75171 c 0.20912,1.870423 0.94118,4.760004 2.65246,6.233144 2.59728,2.23584 6.74841,2.57714 9.95384,2.57388 1.31902,-10e-4 1.4772,-1.04389 1.4772,-1.04389 l 0.63956,-6.268671 1.09422,4.063941 c 0,0 1.47531,-0.23597 2.21903,-0.23247 0.74031,0.003 2.2066,0.25216 2.2066,0.25216 l 1.12118,-4.182111 0.56803,6.408621 c 0,0 -0.009,0.88559 1.85142,0.9651 1.01724,0.0435 6.58338,-0.0952 8.99702,-1.99544 1.97536,-1.55515 2.59828,-3.45207 3.31575,-6.774264 h 16.07922 19.596351 c 0,0 -10.50584,4.612494 -13.448791,9.171134 -2.28699,3.54256 -3.44945,7.52802 -2.19269,12.45842 -7.10897,-0.62571 -19.69085,-0.77987 -27.92446,3.73687 -4.62054,2.5347 -7.32751,4.9433 -10.18933,12.089029 z"
     style="fill:#000000;stroke:#fa0000;stroke-width:0.10000001;stroke-miterlimit:4;stroke-dasharray:none;stroke-opacity:1" />
  <path
     id="path946"
     d="m 58.842225,54.211502 h 1e-5 v 0 c -1.42148,-10.92787 -3.42005,-21.567219 -12.03626,-24.292089 -3.56214,-1.12652 -7.38173,1.99509 -9.84578,5.35549 -0.13339,-7.20872 -3.24366,-10.23181 -7.25704,-13.29531 C 21.629805,15.817033 9.3699354,14.190743 0.05527538,14.950503 10.245365,9.7098716 16.225735,8.4204546 24.628915,7.0209356 c 7.81449,-1.301475 16.4144,-1.213173 23.76087,-0.350319 -1.1676,0.478864 -4.41744,3.6529054 -4.16452,6.1026064 0.30243,2.92931 3.55862,5.76109 6.36575,6.12604 2.48763,0.32341 3.8118,-1.74854 3.39808,-1.80764 l 1.3268,-11.8093714 0.54417,3.703949 c 0,0 1.96918,-0.587417 2.98217,-0.584884 1.03164,0.0026 3.03406,0.610838 3.03406,0.610838 l 0.55159,-3.681698 1.24893,11.8093664 c 0,0 0.74329,2.69771 4.13827,1.61995 3.39498,-1.07776 5.66834,-3.92592 5.67911,-6.90641 0.008,-2.2314334 -4.21437,-5.2012874 -4.21437,-5.2012874 6.4052,-0.763649 16.25956,-0.961448 24.22808,0.468975 8.301955,1.490276 12.402085,2.037912 24.050805,7.8739524 -6.15267,-0.52888 -20.174605,0.40663 -27.992295,5.8624 -4.6117,3.2184 -8.23634,5.50253 -8.94228,14.30625 -2.0267,-3.62732 -5.89572,-6.38049 -9.33452,-5.35787 -8.75338,2.60304 -11.23829,13.018699 -12.44738,24.405719 v 0 z"
     style="fill:#000000;stroke:#fa0000;stroke-width:0.10000001;stroke-miterlimit:4;stroke-dasharray:none;stroke-opacity:1" />
  <path
     id="path955"
     d="m 58.806538,53.661395 c -0.958475,-4.08263 -4.868332,-16.91663 -11.416047,-16.14987 -3.486867,0.40832 -3.98803,7.38425 -3.92793,9.77221 -0.882714,-3.40134 -5.06126,-7.87866 -8.466758,-6.81746 -2.643085,0.82362 -3.969921,5.18283 -2.842433,8.24073 -1.268933,-1.48019 -5.359481,-2.67913 -7.770363,-1.60723 -2.579175,1.14673 -4.542105,4.49061 -4.250394,7.35777 -3.407789,-6.47059 -6.692,-15.47947 -6.570225,-23.66547 0.133362,-8.96485 3.249615,-19.138364 7.948495,-25.7057214 3.14622,2.792547 6.388893,5.5561804 10.345366,8.1058254 0,0 5.682215,3.035982 8.70241,4.123212 3.113505,1.12082 9.622073,2.442755 9.622073,2.442755 l 3.447067,-11.9266324 0.687975,1.738244 h 4.50099 4.188195 l 0.611882,-1.893579 3.417277,12.0541604 c 0,0 5.242144,-0.803011 7.745322,-1.638433 4.127631,-1.377574 8.110521,-3.259083 11.834301,-5.510416 3.381482,-2.044385 9.424202,-7.1909504 9.424202,-7.1909504 5.352467,7.8415674 7.823727,16.2300554 8.008437,24.9685954 0.1746,8.26014 -2.5173,17.35285 -6.565919,23.90047 -0.164431,-3.46639 -1.796781,-5.80902 -3.856837,-6.90894 -2.419751,-1.29197 -6.307144,-0.7153 -8.178814,1.43512 0.622734,-3.06081 0.0089,-7.51148 -2.708174,-8.3685 -3.466985,-1.09357 -7.327084,3.33064 -8.643384,6.73438 0.329163,-2.92717 -0.733066,-9.11703 -4.150018,-9.44476 -6.41833,-0.6156 -11.136696,11.94256 -11.136696,15.95449 z"
     style="fill:#000000;stroke:#fa0000;stroke-width:0.10000001;stroke-miterlimit:4;stroke-dasharray:none;stroke-opacity:1" />
  <path
     id="path962"
     d="m 58.76662,50.176607 v 0 0 c -2.68218,-7.33331 -7.24641,-12.16844 -13.42148,-14.04072 -4.87894,-1.47929 -10.51958,-1.67976 -15.08889,2.50132 0.65622,-5.39928 -2.99856,-8.89969 -6.79579,-10.7434 -4.70826,-2.28606 -11.28589,-1.40956 -15.6160496,1.63941 2.15109,-4.72179 7.3843196,-9.09053 12.3036596,-12.04854 7.68488,-4.620937 18.32317,-7.246733 25.63701,-8.1509774 -2.99499,0.8858874 -4.99314,3.2748454 -4.84804,5.7871474 0.13586,2.35228 2.85982,4.2395 5.13288,4.8599 2.60534,0.71109 5.92915,0.0401 7.89736,-1.80913 1.71716,-1.61334 2.14771,-5.461671 2.00442,-6.77833 v 0 c 0,0 0.58119,2.562043 2.79491,2.562043 2.21372,0 2.78486,-2.500707 2.78486,-2.500707 v 0 c -0.0761,1.17984 0.47112,5.322944 2.32879,6.871514 2.29171,1.9104 6.0657,2.35714 8.85571,1.30008 1.86608,-0.70701 3.891511,-2.58079 3.859881,-4.57606 -0.0415,-2.616687 -1.969391,-4.72687 -5.249671,-5.8378014 6.020891,0.7956464 16.517761,2.9832864 23.716341,6.9979814 5.747199,3.20525 11.708459,7.30028 14.703729,13.17329 -5.74919,-3.50297 -11.82521,-3.67313 -16.716129,-0.98351 -3.39407,1.86647 -6.23418,5.52565 -5.63685,10.16155 -3.65348,-3.46293 -9.34347,-4.06506 -13.857691,-2.72853 -6.58484,1.94958 -12.23481,6.44123 -14.78896,14.34347 z"
     style="fill:#000000;stroke:#fa0000;stroke-width:0.10000001;stroke-miterlimit:4;stroke-dasharray:none;stroke-opacity:1" />
  <path
     id="path970"
     d="m 58.77219,49.377116 v 0 0 c -2.85846,-3.89005 -7.0604,-7.02142 -11.62124,-8.54183 -4.61425,-1.53822 -9.71383,-1.9125 -14.59099,-0.14169 -2.88455,-4.48109 -6.82982,-6.58771 -11.22958,-7.70806 -4.73403,-1.20546 -11.31269,-0.29532 -14.5778196,1.50486 2.20721,-4.84332 7.6058496,-10.38199 12.8532796,-13.87763 6.31205,-4.20485 13.34979,-6.59899 21.36109,-7.836352 -1.8364,1.193882 -3.6343,3.304822 -2.93329,5.152692 1.17053,3.08551 6.15445,3.92311 9.37212,3.19026 2.63938,-0.60114 5.51873,-3.16735 5.79621,-5.68797 l 0.35619,-5.341087 2.78927,3.718987 c 0,0 1.57196,-0.636836 2.42476,-0.641181 0.8528,-0.0043 2.52877,0.641191 2.52877,0.641191 l 2.6394,-3.62214 0.53113,5.38583 c 1.33379,4.32829 4.01079,5.36669 7.01374,5.80444 2.8763,0.41928 7.08741,-0.6593 8.02552,-3.41046 0.63274,-1.8556 -0.7703,-3.72501 -2.88004,-5.128138 9.42552,1.411668 15.44704,3.841398 21.91955,8.194998 5.02559,3.38036 9.75123,8.46658 12.30988,13.36479 -3.92565,-1.66665 -10.08721,-2.64472 -14.91642,-1.37543 -4.3005,1.13032 -8.63824,3.75286 -10.96438,7.598 -3.5058,-1.19682 -9.25638,-1.41211 -13.57655,-0.0642 -4.90208,1.52947 -9.62341,4.36826 -12.6306,8.82017 z"
     style="fill:#000000;fill-opacity:1;stroke:#fa0000;stroke-width:0.10000001;stroke-miterlimit:4;stroke-dasharray:none;stroke-opacity:1" />
  <path
     id="path943"
     d="m 58.699229,45.701301 v 0 0 c -4.03649,-3.84275 -7.779261,-6.140019 -12.381002,-7.707309 -5.391392,-1.83624 -9.555341,-2.2769 -17.001654,-1.70107 -1.874971,-3.05652 -5.05071,-6.04443 -8.540452,-7.5447 -4.29816,-1.8478 -9.909315,-2.04509 -13.9806796,-1.24005 1.987419,-2.52893 5.6640916,-5.67708 8.8709096,-8.05996 2.945532,-2.18872 5.943644,-4.02689 9.439421,-5.66545 1.861656,2.26375 5.525438,4.8282 8.66951,6.67767 2.570905,1.51231 5.372553,2.64487 8.216782,3.5432 2.384697,0.75319 5.149366,1.32063 7.34576,1.5253 l 1.67634,-6.87959 1.247054,4.26942 h 6.438011 6.43416 l 1.27794,-4.45866 1.56837,7.06584 c 1.60569,-0.0593 4.61277,-0.70599 6.83579,-1.38714 3.165891,-0.97005 6.311631,-2.14725 9.170731,-3.81741 3.04173,-1.77684 5.52137,-3.5759 8.32965,-6.50386 2.91886,1.36371 5.958549,3.07793 8.65927,5.04364 3.55564,2.58795 6.3634,4.94933 9.82311,8.80721 -3.95997,-0.90975 -9.26848,-0.91056 -13.429771,0.75903 -3.758639,1.50804 -7.838179,4.90972 -9.240249,7.88869 -6.6418,-0.43828 -10.92692,-0.35679 -16.028391,1.28781 -4.96729,1.60134 -9.97203,4.508209 -13.40061,8.097399 z"
     style="fill:#000000;fill-opacity:1;stroke:#ff0000;stroke-width:0.10000001;stroke-miterlimit:4;stroke-dasharray:none;stroke-opacity:1" />
  <path
     id="path951"
     d="m 58.777068,50.156012 v 0 0 c -2.3528,-4.36809 -5.8834,-7.24871 -10.0508,-8.846259 -4.74472,-1.81886 -8.8585,-2.13495 -15.24337,-0.15839 -1.50879,-2.3884 -5.64644,-6.35545 -9.49355,-7.69367 -4.5761,-1.5918 -8.54675,-1.6823 -14.5341896,0.16769 1.2543696,-4.0749 5.6010796,-10.7151 10.0762896,-14.5657 5.05774,-4.35182 10.24021,-7.15304 17.97655,-8.80431 1.65407,3.73302 1.71416,3.87931 3.18047,5.34498 1.56671,1.56603 3.61156,2.69341 5.71245,3.39577 2.06777,0.69129 4.69684,1.03448 6.50202,0.71116 1.05933,-3.47659 1.57538,-6.95317 1.55105,-10.4297604 l 1.85935,5.1513204 c 0,0 1.63776,-0.26816 2.46374,-0.26494 0.84232,0.003 2.5103,0.28976 2.5103,0.28976 l 1.82416,-5.2030004 c 0.0437,3.5421004 0.80728,7.0841904 1.65136,10.6262904 2.64117,0.40109 3.94484,-0.0993 5.79086,-0.71116 2.40491,-0.79714 4.80854,-1.97533 6.60383,-3.76305 1.40273,-1.39682 2.11697,-2.66396 2.962,-5.14737 5.92481,0.95349 13.36688,4.74739 18.55916,9.32765 4.249712,3.74879 7.443702,8.38667 9.469882,14.11887 -4.08163,-1.7659 -9.433562,-1.86119 -13.822572,-0.45105 -4.09298,1.31503 -8.28409,4.92153 -10.23306,7.8499 -3.6962,-1.26136 -9.47576,-1.75003 -13.83777,-0.24813 -4.65671,1.603369 -8.95969,4.921709 -11.47816,9.303399 z"
     style="fill:#000000;fill-opacity:1;stroke:#ff0000;stroke-width:0.10000001;stroke-miterlimit:4;stroke-dasharray:none;stroke-opacity:1" />
  <path
     id="path960"
     d="m 58.77846,50.538158 v 0 0 c -0.88319,-3.2704 -5.0906,-9.31294 -9.65679,-11.10705 -4.54683,-1.78651 -9.32132,-3.37903 -14.57279,1.55593 -1.5604,-4.00598 -6.18536,-8.93594 -11.02011,-10.38868 -5.43395,-1.63278 -11.32046,-0.72093 -16.7703496,2.9154 2.02469,-5.06383 5.6802696,-11.12986 10.3787796,-14.9806 5.63442,-4.61778 10.9755,-7.43394 20.05914,-8.6756104 -1.72972,1.7122304 -1.95725,3.3738004 -1.41021,5.0254004 0.87641,2.64603 4.05932,4.00652 6.61871,5.11065 3.30584,1.42615 10.66812,1.68916 10.66812,1.68916 l 1.74935,-12.8801104 1.67697,6.4187104 c 0,0 1.50325,-0.47995 2.27918,-0.47357 0.82022,0.007 2.40074,0.54018 2.40074,0.54018 l 1.78357,-6.4831204 1.66054,12.8457004 c 0,0 6.20447,-0.0807 9.06272,-1.12848 3.06204,-1.12246 7.01057,-2.31178 8.19005,-5.35231 0.68614,-1.76877 0.81335,-3.3535 -1.41835,-5.5120304 7.64679,1.3771304 14.38386,4.0506604 19.99252,8.6656104 4.72121,3.88474 8.0004,8.96358 10.39879,15.1094 -4.46785,-3.45895 -11.00763,-4.46252 -16.31849,-2.9332 -4.99761,1.43911 -9.64184,5.88049 -11.53638,10.50412 -5.34542,-5.41015 -10.04059,-3.2431 -14.58499,-1.44933 -4.52928,1.78781 -8.66818,8.36523 -9.63072,10.98383 z"
     style="fill:#000000;fill-opacity:1;stroke:#ff0000;stroke-width:0.10000001;stroke-miterlimit:4;stroke-dasharray:none;stroke-opacity:1" />
  <path
     id="path974"
     d="m 58.787645,49.265165 v 0 0 c -2.26733,-5.20008 -7.19963,-9.749579 -12.63819,-11.207599 -3.71319,-0.99546 -7.78179,-1.08834 -11.29932,2.30952 -1.74876,-4.60878 -6.46759,-8.92856 -11.4061,-10.23299 -5.71734,-1.51015 -11.56701,-1.65962 -17.3327096,3.78076 2.10787,-6.15185 6.0411296,-11.44686 10.9011596,-15.46773 5.10312,-4.22199 11.32085,-6.73804 18.09796,-8.20169 -1.40158,1.4264 -1.49672,4.1522 -0.69635,5.99955 1.32214,3.05168 4.92746,4.70851 8.01725,5.93896 3.25265,1.29531 8.52221,1.40266 10.42721,1.26145 l 1.59083,-9.97372 1.48502,5.18953 c 0,0 1.87811,-0.72899 2.86261,-0.72708 0.98629,0.002 2.86497,0.7395 2.86497,0.7395 l 1.45779,-5.05295 1.70005,9.82967 c 3.13335,0.14123 7.50192,-0.0792 10.87989,-1.48928 2.89458,-1.20825 6.25471,-2.83647 7.46349,-5.73083 0.78458,-1.87863 0.68124,-4.35341 -0.7599,-6.06019 5.38189,0.75685 13.28872,4.18131 18.495775,8.54035 4.70884,3.94196 8.76035,9.53287 10.54513,15.10664 -5.79673,-5.33406 -11.724865,-5.19912 -17.461305,-3.63693 -4.88411,1.33007 -9.3694,5.68348 -11.24391,10.20722 -3.24036,-3.43486 -7.5222,-3.37857 -11.22227,-2.40597 -5.48385,1.44148 -10.75009,6.713629 -12.72908,11.283809 z"
     style="fill:#000000;fill-opacity:1;stroke:#ff0000;stroke-width:0.10000001;stroke-miterlimit:4;stroke-dasharray:none;stroke-opacity:1" />
  <path
     id="path979"
     d="m 58.710086,51.250202 v 0 h -2e-5 c -2.66889,-5.82698 -7.04193,-9.04329 -12.17906,-10.76765 -4.62825,-1.55354 -9.96783,-2.00928 -14.6035,1.11598 0.16332,-5.17953 -4.4116,-7.05942 -8.04426,-8.443 -5.32317,-2.02745 -12.75081,-0.95212 -17.0315196,1.39559 0.56953,-2.819 3.8430796,-10.82113 7.7075596,-14.83678 5.36056,-5.57025 10.53051,-9.25014 20.15545,-11.4728904 -2.7919,1.5469 -4.20461,4.9652204 -3.62327,7.7602004 0.64653,3.10843 4.24096,5.00606 7.13671,6.30798 4.43267,1.99291 10.13891,2.04909 14.47325,1.76279 l 1.9543,-10.06083 1.86427,5.57579 2.19007,-0.0438 2.39905,0.0438 1.81335,-5.61292 2.03806,10.08893 c 3.84974,0.20041 8.43423,0.40705 12.28001,-1.03686 3.43987,-1.29151 7.8725,-2.99715 8.88019,-6.5306 0.80649,-2.82795 1.20271,-4.55024 -3.28109,-8.1892704 9.55909,2.0351004 14.53994,5.7046604 19.842074,11.1255304 4.00627,4.09599 6.82591,9.96177 8.07236,15.1751 -3.08133,-2.03277 -10.934924,-3.50004 -16.030194,-1.78429 -4.00281,1.34789 -8.98783,3.75623 -9.18028,8.73364 -3.18943,-2.30122 -8.72936,-2.85144 -12.89813,-1.66268 -5.7625,1.64323 -10.99287,5.01831 -13.93538,11.35624 h -2e-5 z"
     style="fill:#000000;fill-opacity:1;stroke:#ff0000;stroke-width:0.10000001;stroke-miterlimit:4;stroke-dasharray:none;stroke-opacity:1" />
  <path
     id="path944"
     d="m 58.709754,48.509401 v 0 0 c -1.41858,-7.43653 -5.0067,-11.08582 -10.13644,-13.19412 -4.81588,-1.97931 -11.31481,-1.36611 -15.47646,2.11494 -1.15139,-2.3318 -4.90706,-6.14271 -8.46845,-6.95032 -4.69997,-1.0658 -9.74779,-0.51229 -14.03917,3.45441 2.32384,-4.08091 6.59879,-9.49762 10.93773,-13.2264 4.76211,-4.09244 11.64646,-8.11906 16.1567,-9.68469 0,0 5.22278,1.95215 7.74243,3.13788 2.38875,1.12413 4.72014,2.37982 6.9708,3.75979 2.19692,1.34702 6.35694,4.39972 6.35694,4.39972 l -0.044,0.0147 0.044,-0.0147 -0.044,0.0147 v 0 l 0.044,-0.0147 v 0 c 0,0 4.11827,-2.99764 6.28509,-4.33123 2.20586,-1.35761 4.47881,-2.61571 6.81916,-3.72555 2.62374,-1.24423 8.071811,-3.27649 8.071811,-3.27649 3.60092,1.5264 10.9961,5.42473 15.607489,9.36847 4.535946,3.87923 10.059376,10.78249 11.485306,13.73667 -3.44891,-2.94208 -7.887956,-4.78434 -12.109225,-4.15702 -4.25699,0.63263 -8.38603,3.42198 -10.46486,7.56215 -3.55031,-2.94939 -9.741911,-4.16547 -14.290621,-2.52036 -5.55617,2.00947 -9.50172,4.55419 -11.44823,13.53215 h 5e-5 z"
     style="fill:#000000;fill-opacity:1;stroke:#ff0000;stroke-width:0.10000001;stroke-miterlimit:4;stroke-dasharray:none;stroke-opacity:1" />
  <path
     id="path958"
     d="m 58.804209,48.661405 c 0,0 -1.01947,-6.81939 -2.6164,-9.79934 -1.17124,-2.1856 -2.69712,-4.48273 -4.92176,-5.57799 -2.02494,-0.99693 -4.93116,-1.41329 -6.75587,-0.45445 -1.87321,0.98432 -3.24125,1.43062 -3.45825,5.32362 -0.19942,3.57757 1.822,7.09582 3.89353,10.01943 2.12194,2.99475 8.36066,7.16517 8.36066,7.16517 -12.61642,-2.8883 -20.33833,-14.16989 -20.66358,-24.97271 -0.33621,-11.16664 7.40262,-23.1749404 20.73525,-26.2100304 -9.61453,3.50864 -14.53604,15.2467304 -13.05084,19.8796204 1.4852,4.63288 10.25224,4.45325 13.02046,3.90648 2.76822,-0.54677 2.5911,-2.10174 2.5911,-2.10174 l 0.9091,-6.85749 0.85645,6.02173 h 1.11543 l 1.20111,0.0153 0.85644,-5.96996 0.84208,6.90924 c 0,0 1.0403,1.83038 3.52867,1.97022 4.16668,0.23415 9.8815,0.53422 11.88417,-2.99696 2.00268,-3.53118 -1.90266,-16.7755504 -12.75962,-20.7484104 12.71428,2.81738 20.66935,14.8116304 20.60881,25.8248104 -0.0598,10.87222 -7.4302,21.9987 -20.62409,25.26907 0,0 6.10099,-4.19243 8.25329,-7.11958 2.06445,-2.80768 4.26188,-6.10904 4.15808,-9.59247 -0.0553,-1.85568 -1.02621,-3.86056 -2.51541,-4.96912 -1.71464,-1.27638 -4.26657,-1.75458 -6.31177,-1.13306 -2.90382,0.88245 -5.01795,3.70377 -6.55119,6.32294 -1.71911,2.93669 -2.58585,9.87568 -2.58585,9.87568 z"
     style="fill:#000000;fill-opacity:1;stroke:#ff0000;stroke-width:0.10000001;stroke-miterlimit:4;stroke-dasharray:none;stroke-opacity:1" />
  <path
     id="path963"
     d="m 58.753877,48.309648 -3.38589,-7.438141 c -0.80974,-5.765287 -2.68339,-8.88825 -5.69966,-12.237897 -2.39832,-2.663401 -5.74229,-4.830289 -9.26907,-5.600072 -4.56962,-0.997403 -9.72908,-0.441901 -13.94105,1.591718 -3.73695,1.804271 -6.76953,5.187547 -8.79816,8.807608 -1.46188,2.608705 -2.19837,7.295218 -2.08045,9.327984 -2.1408,-9.277201 0.93913,-18.177041 6.68742,-23.944915 5.78726,-5.806971 13.68033,-8.585949 23.49816,-7.338795 0,0 -4.14864,0.445252 -4.51549,2.05821 -0.50982,2.241538 2.45242,4.105657 4.42082,5.293015 3.0388,1.833038 7.94605,2.365658 10.41132,2.225698 l 0.5732,-7.665877 0.69082,4.173269 h 1.40803 1.4224 l 0.68365,-4.068632 0.59191,7.534567 c 1.79489,0.145838 7.1659,-0.398443 10.21513,-2.062587 1.99341,-1.087919 5.065551,-2.638269 4.747041,-4.886773 -0.2436,-1.719707 -1.247961,-2.17241 -4.556611,-2.613487 9.486441,-1.5140544 18.472621,1.988397 24.33946,8.227476 5.335613,5.674145 7.508483,14.450711 6.100873,22.553601 0,0 -0.93681,-6.165757 -2.450013,-8.812754 -1.95131,-3.413382 -4.683009,-6.710647 -8.189829,-8.488566 -4.25955,-2.159542 -9.50785,-2.838002 -14.19649,-1.930252 -3.606081,0.69816 -7.095391,2.74321 -9.575621,5.452396 -3.06138,3.343984 -5.24034,7.7587 -5.6629,12.366082 z"
     style="fill:#000000;fill-opacity:1;stroke:#ff0000;stroke-width:0.10000001;stroke-miterlimit:4;stroke-dasharray:none;stroke-opacity:1" />
  <path
     id="path3276"
     d="m 58.986783,48.221368 c -2.99142,3.1e-4 -5.985893,0.0731 -8.969668,0.28684 -3.161073,0.2264 -6.313153,0.59486 -9.448967,1.05345 -3.011078,0.44035 -6.013257,0.96398 -8.982808,1.62901 -3.041674,0.68119 -6.049157,1.51636 -9.03379,2.41512 -2.773971,0.83532 -5.540487,1.71228 -8.239532,2.76481 -2.355325,0.9185 -6.9253846,3.0919 -6.9253846,3.0919 -0.159185,-4.06265 3.5911426,-19.935479 6.9097896,-29.449719 2.718784,-7.7945 10.60433,-22.3799504 10.60433,-22.3799504 0,0 6.699536,2.8205804 10.239601,3.5286504 3.141267,0.6283 6.392075,0.76752 9.591416,0.60464 2.710894,-0.13801 8.03303,-1.33505 8.03303,-1.33505 l 2.636513,-10.23007044 1.18678,3.58515004 c 0,0 1.58953,-0.38368 2.39868,-0.37378 0.70102,0.009 2.06958,0.37459 2.06958,0.37459 l 1.30222,-3.66058004 2.5729,10.44213044 c 0,0 4.89286,0.9457 7.37319,1.07976 3.00319,0.16231 6.04639,0.1363 9.01641,-0.33753 3.99745,-0.63775 10.04615,-2.3970504 11.56946,-3.6330804 1.52463,2.08601 8.053247,14.9362804 10.755197,22.7184604 3.25793,9.38351 5.91924,21.164219 6.57907,29.023159 0,0 -5.15202,-2.37742 -7.79891,-3.39289 -2.682337,-1.02907 -5.419377,-1.91769 -8.175087,-2.73012 -2.94322,-0.86772 -5.91738,-1.63961 -8.91675,-2.28707 -2.84498,-0.61414 -5.71825,-1.101 -8.59949,-1.51277 -3.00959,-0.43012 -6.03305,-0.78425 -9.06561,-0.99922 -2.88827,-0.20474 -5.78665,-0.27614 -8.68217,-0.27584 z"
     style="fill:#000000;fill-opacity:1;stroke:#ff000b;stroke-width:0.10000001;stroke-miterlimit:4;stroke-dasharray:none;stroke-opacity:1" />
  <path
     id="path3279"
     d="m 58.815978,53.888708 c 0,0 -3.648171,-4.07437 -5.84665,-5.66527 -2.363796,-1.71053 -5.051785,-2.95945 -7.751256,-4.06684 -3.155407,-1.29443 -6.45716,-2.24819 -9.788613,-2.978649 -3.315399,-0.72694 -6.701073,-1.16275 -10.088042,-1.38353 -2.838065,-0.185 -5.697851,-0.18419 -8.532107,0.0521 -2.967567,0.2474 -8.8191296,1.42545 -8.8191296,1.42545 2.4900356,-5.47808 6.7810696,-12.84142 11.5267756,-18.24932 4.498668,-5.12639 11.084486,-10.33675 15.733611,-13.0810904 0,0 2.783532,2.5079804 4.397222,3.4313804 2.331293,1.33403 4.929632,2.1615 7.492535,2.9653 1.412836,0.4431 3.79861,1.02902 4.324114,1.0169 5.050605,-0.11644 2.295597,-7.7510704 1.92856,-11.8105504 l 2.051422,6.8645004 c 0,0 2.206136,-0.71647 3.349918,-0.74978 1.014349,-0.0295 3.004495,0.49092 3.004495,0.49092 l 1.519003,-6.4905004 c -0.158365,2.46833 -0.522062,4.9366704 -0.314284,7.4050004 1.044881,1.07619 0.990509,2.8438 0.954824,4.43351 2.150468,-0.0562 8.117676,-1.21387 11.803445,-2.8951 2.499024,-1.13991 6.101023,-3.70424 6.728597,-4.7567404 3.788406,2.0028504 12.07981,8.7587004 16.861712,14.3925604 4.29022,5.05458 9.18016,13.79158 10.28271,17.02524 0,0 -6.21686,-1.06342 -9.35849,-1.25232 -3.117127,-0.18742 -6.254787,-0.12939 -9.36749,0.12101 -3.156648,0.25393 -6.308018,0.70038 -9.397203,1.39741 -3.053781,0.689039 -6.078777,1.571829 -8.982634,2.741429 -2.557596,1.03013 -5.114164,2.16679 -7.376432,3.74306 -2.36307,1.6465 -6.336613,5.87392 -6.336613,5.87392 z"
     style="fill:#000000;fill-opacity:1;stroke:#ff000b;stroke-width:0.10000001;stroke-miterlimit:4;stroke-dasharray:none;stroke-opacity:1" />
  <path
     id="path3286"
     d="m 58.613135,58.227914 v 0 l 0.11444,-2.96e-4 C 56.924765,54.1154 48.072665,43.619351 40.814285,38.515838 36.723875,35.639784 31.075465,33.428332 26.766575,32.933711 26.410605,30.321637 22.756515,21.169084 19.651615,15.831245 16.637835,10.650058 12.477745,5.1703366 8.4672354,1.3259346 l 17.9413596,6.25415 9.62088,3.2517534 c 0,0 5.57024,14.236227 11.19154,18.949683 1.03793,0.870304 2.53555,1.895642 3.80559,1.424777 1.32281,-0.490428 1.67464,-2.34611 2.03836,-3.709218 0.7765,-2.910099 0.17188,-9.034111 0.17188,-9.034111 0,0 1.05551,3.081425 2.16247,4.202311 0.8359,0.846418 1.96462,1.611162 3.15264,1.672498 1.29242,0.06673 2.64627,-0.580568 3.59883,-1.456604 1.21909,-1.121151 2.24246,-4.433929 2.24246,-4.433929 0,0 -0.66093,5.900103 0.0281,8.725995 0.36771,1.508069 0.64938,3.675275 2.13012,4.141004 1.67633,0.52725 3.39539,-1.244281 4.66085,-2.463575 4.99271,-4.810542 10.39614,-18.014903 10.39614,-18.014903 l 12.5796,-4.2551704 14.958615,-5.318463 c -3.91003,3.668032 -7.28616,8.383292 -10.235615,13.0836664 -3.6105,5.753868 -7.96345,15.918462 -8.10349,18.73562 -4.07216,-0.01495 -10.86062,3.183209 -14.63745,5.670471 -7.84065,5.163519 -14.11657,14.238998 -17.44254,19.475728 v 0 z"
     style="fill:#000000;fill-opacity:1;stroke:#ff000b;stroke-width:0.10000001;stroke-miterlimit:4;stroke-dasharray:none;stroke-opacity:1" />
</svg>
