<?xml version="1.0" encoding="UTF-8" standalone="no"?>
<svg
   xmlns:dc="http://purl.org/dc/elements/1.1/"
   xmlns:cc="http://creativecommons.org/ns#"
   xmlns:rdf="http://www.w3.org/1999/02/22-rdf-syntax-ns#"
   xmlns:svg="http://www.w3.org/2000/svg"
   xmlns="http://www.w3.org/2000/svg"
   xmlns:xlink="http://www.w3.org/1999/xlink"
   id="svg989"
   viewBox="0 0 117.61351 59.12997"
   version="1.1"
   height="59.727242mm"
   width="117.61349mm">
  <metadata
     id="metadata995">
    <rdf:RDF>
      <cc:Work
         rdf:about="">
        <dc:format>image/svg+xml</dc:format>
        <dc:type
           rdf:resource="http://purl.org/dc/dcmitype/StillImage" />
        <dc:title></dc:title>
      </cc:Work>
    </rdf:RDF>
  </metadata>
  <defs
     id="defs993" />
  <path
     id="path6280"
     d="m 58.795556,51.549155 c 0,0 -0.57583,-4.47029 -2.74044,-5.98426 -1.6757,-1.17201 -4.49973,-1.37423 -6.30206,-0.0735 2.74734,-3.53389 0.52917,-7.14376 -2.50189,-8.71698 -4.05057,-2.10238 -9.40436,0.77947 -10.46269,3.42531 0,-4.49792 -4.41574,-6.54291 -6.87917,-5.34583 -5.55625,2.7 -1.85209,8.78541 1.85208,12.33005 -4.49792,-1.69258 -11.20962,-9.77167 -10.73144,-15.96064 0.94186,-12.19028 12.84811,-17.48195 22.63769,-20.65692 -5.82083,4.7625 -5.20759,7.65358 -3.56102,10.12989 1.64657,2.47631 6.34665,3.53545 9.43963,2.76578 2.05889,-0.51234 3.64639,-3.63525 3.64639,-3.63525 l 1.05834,-12.1708404 1.51123,5.8295004 c 0,0 1.95717,-0.91038 3.03335,-0.91629 1.07618,-0.006 3.15823,0.91629 3.15823,0.91629 l 1.36019,-5.7543004 1.12961,11.7372604 c 0,0 0.004,0.13725 0.0298,0.19931 2.4776,5.97987 9.39788,4.15942 12.363401,1.71718 2.02045,-1.66392 3.34337,-6.32064 -2.825271,-10.70662 5.218941,0.39839 22.53371,8.35484 22.59607,20.50333 0.0395,7.69515 -4.521179,11.92849 -10.606599,15.89724 5.29167,-5.55626 6.0041,-9.40293 2.65561,-11.82105 -2.49198,-1.79959 -7.41811,-0.40395 -7.94728,4.67729 -2.11666,-3.70416 -7.338961,-4.75942 -10.453581,-3.08217 -2.77559,1.49467 -4.89225,4.93426 -2.24642,8.90301 -1.85208,-1.5875 -4.64823,-1.36433 -6.35,-0.26455 -1.95556,1.26379 -2.91042,6.34997 -2.91042,6.34997 z"
     style="fill:#000000;fill-opacity:1;stroke:#800000;stroke-width:0.13229167;stroke-miterlimit:4;stroke-dasharray:none;stroke-opacity:0" />
  <path
     id="path1886"
     d="m 58.799316,50.924928 v 0 0 c -0.18146,-3.53272 -4.55008,-13.320569 -7.87163,-14.031509 -3.32155,-0.71094 -4.60292,2.52493 -4.54011,6.098089 -1.28857,-3.121189 -8.15625,-11.946509 -12.19842,-9.249249 -4.04218,2.69726 0.0829,11.639269 2.93114,14.504739 -6.92344,-3.33982 -12.71126,-11.124779 -12.21243,-18.495909 0.7159,-10.5787 12.82506,-18.81718 23.96014,-20.6389204 -3.96652,2.0317604 -7.38833,6.6312204 -6.67157,9.7895804 0.71676,3.15836 4.61532,4.61871 7.9375,4.23334 3.32218,-0.38537 4.49791,-5.16154 4.49791,-5.16154 0.55741,-2.6539 0.41472,-6.18294 0.52917,-9.3905504 l 1.5875,4.2333404 2.12058,0.0561 h 2.00442 l 1.43125,-4.2894204 c 0.24024,3.1458604 0.33435,6.3648004 0.79375,9.4010804 0,0 0.96493,4.30182 3.70417,4.88642 3.95821,0.84474 7.91929,-0.86679 8.73125,-4.23333 0.81196,-3.36654 -3.43958,-8.2021 -6.90628,-9.4770004 15.37295,3.3130304 23.8994,12.7380404 24.1042,21.3832304 0.2048,8.64519 -7.81247,15.564479 -12.17084,17.641819 2.09424,-2.32489 7.18929,-11.439869 3.07025,-14.324769 -4.11904,-2.8849 -10.99978,5.71512 -12.48176,9.039179 0.0324,-2.483179 -0.37569,-5.865869 -3.88743,-6.144029 -3.51174,-0.27816 -8.32445,10.620399 -8.46276,14.169309 z"
     style="fill:#000000;fill-opacity:1;stroke:#ff000b;stroke-width:0.10000001;stroke-miterlimit:4;stroke-dasharray:none;stroke-opacity:1" />
  <path
     id="path2113"
     d="m 58.783648,50.726674 -10.71399,-10.38303 -9.86505,4.47165 -5.34808,-7.15488 -7.94986,5.23969 -5.13127,-6.54057 -11.9336496,3.98411 v 0 L 33.638728,8.8121206 l 1.48453,7.5833444 16.53971,3.659489 1.49682,-3.659489 1.37402,-3.197229 1.34879,2.943848 h 2.90106 2.90388 l 1.29757,-2.943848 1.3744,3.197229 1.49682,3.659489 16.61306,-3.659489 1.3393,-7.5833444 25.962712,31.5315234 v 0 l -12.051262,-3.98411 -5.09514,6.54057 -7.94985,-5.23969 -5.38423,7.15488 -9.82891,-4.47165 z"
     style="fill:#000000;fill-opacity:1;stroke:#ff000b;stroke-width:0.10000001;stroke-miterlimit:4;stroke-dasharray:none;stroke-opacity:1" />
  <g
     transform="translate(484.44999,-216.79614)"
     style="fill:#000000"
     id="g2412">
    <path
       style="fill:#000000;fill-opacity:1;stroke:#ff000b;stroke-width:0.10000001;stroke-miterlimit:4;stroke-dasharray:none;stroke-opacity:1"
       d="m -425.75439,272.13194 v 0 h 10e-6 c -0.41907,-11.0398 -4.00973,-21.71004 -11.15449,-23.55369 -3.56474,-0.91985 -7.7999,0.0809 -8.36735,6.62361 v 0 0 c -7.38504,-4.03488 -10.75661,-9.40707 -10.51273,-17.34147 0.24388,-7.9344 7.25382,-16.68237 18.63829,-16.29876 -2.53615,1.27844 -4.60491,5.74613 -1.55791,8.09655 1.77797,1.37151 4.74158,2.2575 6.65023,1.07458 1.01568,-0.62949 1.96026,-1.64883 2.86721,-3.30067 0.90695,-1.65184 1.10828,-6.47882 1.01276,-6.47882 l 1.14226,2.64959 h 1.28173 1.42961 l 1.194,-2.64959 c -0.0289,-0.0144 -0.13791,4.48087 1.01406,6.56461 0.70945,1.28329 1.6042,2.77393 3.00267,3.21488 2.19338,0.69159 5.29956,0.40925 6.74986,-1.42907 1.81999,-2.3069 1.62869,-5.61509 -2.09301,-7.78637 12.39979,-0.19063 18.48809,8.80519 18.95103,17.24317 0.30549,5.5682 -2.71151,13.01201 -10.55094,16.13119 v 0 0 c -1.61472,-8.35534 -6.97026,-6.92064 -9.37169,-5.95112 -5.79692,2.34034 -9.88322,12.06912 -10.3256,23.19138 h 10e-6 z"
       id="path2169" />
  </g>
  <path
     id="path2275"
     d="m 58.698107,48.099061 v 0 l -3.30996,-6.994723 c -2.01132,-11.575414 -10.45796,-18.161727 -19.30139,-18.202359 -9.48569,-0.04359 -19.19078,6.273156 -20.88172,19.33326 v 0 0 c -0.83695,-9.637064 0.94904,-17.059164 6.41468,-22.72143 5.76417,-5.971502 14.99741,-9.284926 23.7084,-7.607274 -6.71563,0.948592 -3.68899,4.378916 -2.17491,5.768179 2.0043,1.839095 4.81532,2.592528 7.43931,3.258839 1.74559,0.443257 5.38366,0.455858 5.38366,0.455858 l 0.61373,-6.932535 0.63653,3.442159 h 1.47167 1.63534 l 0.48175,-3.442159 0.59347,7.078863 c 0,0 4.0706,-0.08892 6.00057,-0.658266 2.64614,-0.780615 5.50017,-1.764161 7.39983,-3.707477 3.37808,-3.455702 0.25098,-4.866498 -2.9562,-5.263461 10.43971,-1.744795 17.94607,1.580545 23.74165,7.524605 5.543833,5.685841 8.036233,12.505235 6.621113,22.885058 v 0 0 C 100.6684,29.659722 92.439667,23.267911 83.429957,22.840058 c -9.34536,-0.443792 -19.6415,6.408686 -21.31215,18.26428 z"
     style="fill:#000000;fill-opacity:1;stroke:#ff000b;stroke-width:0.20217437;stroke-miterlimit:4;stroke-dasharray:none;stroke-opacity:1" />
  <path
     id="path2334"
     d="m 58.683529,48.331228 v 0 0 c -0.40664,-4.55687 -3.82176,-9.76118 -8.13085,-11.86073 -5.24021,-2.55323 -10.73014,-3.15945 -17.45262,1.10236 -1.14695,-2.37473 -4.84718,-6.09523 -8.37322,-6.89269 -4.68117,-1.0587 -9.40537,-0.73945 -13.97212,3.4767 0,0 3.99283,-6.6449 9.28558,-11.83661 5.29275,-5.19171 14.27243,-9.97163 17.6842,-11.1125 0,0 8.23884,3.23594 12.11347,5.35076 3.13634,1.71185 8.94689,5.90397 8.94689,5.90397 v 0 0 0 0 0 0 0 0 c 0,0 6.99201,-4.89193 10.75929,-6.87058 3.27329,-1.7192 10.22089,-4.30857 10.22089,-4.30857 5.41761,1.51168 12.83961,6.51939 18.12169,11.28887 3.625221,3.27341 8.972871,11.58466 8.972871,11.58466 -2.54882,-2.72429 -8.024001,-4.69545 -12.275631,-3.97666 -4.0823,0.69017 -8.6427,3.98851 -10.07117,7.31791 -5.19391,-3.78592 -11.15621,-3.63962 -16.26422,-1.70978 -4.72465,1.78501 -8.90926,7.99128 -9.56505,12.54289 z"
     style="fill:#000000;fill-opacity:1;stroke:#ff000b;stroke-width:0.10000001;stroke-miterlimit:4;stroke-dasharray:none;stroke-opacity:1" />
  <path
     id="path2375"
     d="m 58.782846,48.110884 1e-5,-0.27352 v 0.27352 c -1.8673,-14.70615 -9.33805,-17.7397 -15.22643,-14.76838 -5.88839,2.97132 -1.47956,15.45596 9.366,21.91554 v 0 0 c -12.0728,-2.63228 -19.6677,-14.0675 -20.23662,-25.34934 -0.56892,-11.28184 9.31428,-23.4762104 20.4521,-25.6736104 -10.61791,4.18409 -14.28551,16.9225504 -12.57666,20.6608204 1.70885,3.73827 9.29266,3.24489 11.95953,3.04862 2.66687,-0.19627 3.3191,-1.9513 3.3191,-1.9513 l 0.93973,-6.81343 0.83792,5.91562 h 1.16533 1.18724 l 0.92037,-5.91562 0.6732,5.91562 c 0,0 -0.2141,2.07622 3.35725,2.93291 3.57135,0.85669 10.465131,0.27285 12.231001,-3.13242 1.76588,-3.40528 -2.139151,-16.8700504 -12.231001,-20.4613104 9.01651,1.93138 20.030211,11.8690304 20.030211,25.4741004 0,13.60507 -9.795041,22.60474 -20.262981,25.31609 v 0 0 c 10.942971,-7.21367 15.521631,-18.46441 9.51396,-21.76458 -5.53434,-3.04015 -12.97912,-0.57767 -15.41925,14.65067 v -0.27352 z"
     style="fill:#000000;fill-opacity:1;stroke:#ff0000;stroke-width:0.10000001;stroke-miterlimit:4;stroke-dasharray:none;stroke-opacity:1" />
  <path
     id="path2408"
     d="m 58.896058,48.13447 v 0 0 c 0,0 -26.474373,-0.93709 -51.3268176,10.86856 v 0 0 0 c 0.800449,-9.5625 3.5293046,-20.24882 6.5908386,-28.7184 3.061534,-8.46958 8.127777,-18.83019 10.740591,-22.6722004 5.923375,2.8395904 9.77711,3.5216804 14.89624,3.9506204 4.360626,0.36539 9.09531,0.0665 13.072151,-1.20665 v 0 l 2.583027,-9.92566044 1.11879,3.25873004 c 0,0 1.57278,-0.41668 2.33662,-0.41183 0.76383,0.005 2.15029,0.39613 2.15029,0.39613 l 1.19731,-3.03891004 2.67723,9.84472044 v 0 c 3.98132,1.01601 9.79639,1.43793 14.51527,1.00306 4.71888,-0.43486 10.26873,-2.0217904 13.22445,-3.8546804 3.82892,6.4693204 8.677762,16.1450704 11.591082,24.8083504 2.83561,8.43219 5.11732,17.68373 5.78237,26.72143 v 0 0 0 C 93.486378,52.21204 76.517948,47.99502 58.896058,48.13447 Z"
     style="fill:#000000;fill-opacity:1;stroke:#ff000b;stroke-width:0.10000001;stroke-miterlimit:4;stroke-dasharray:none;stroke-opacity:1" />
  <path
     id="path2434"
     d="m 58.690144,53.775039 v 2e-5 0 C 54.742072,48.078549 44.45938,42.723599 36.011608,41.30402 26.976381,39.78572 16.085126,38.93406 8.0680304,41.13638 v 0 0 c 2.4097936,-5.86548 5.5300286,-10.99445 9.4477246,-15.6686 5.01322,-5.98121 12.319302,-13.13 17.629175,-15.40705 4.749483,4.64715 10.805763,6.19065 17.041707,7.30745 v 0 c 2.332711,-0.8661 2.263327,-2.60569 2.319244,-3.9964 L 53.190417,5.5735096 55.442352,12.45446 c 0,0 2.176363,-0.86 3.247792,-0.88573 1.071429,-0.0257 3.049839,0.68777 3.049839,0.68777 L 63.04511,5.5735096 62.916731,12.97587 c 0.795565,1.27226 1.094265,2.74327 0.947904,4.39231 v 0 c 7.726793,-0.61225 13.860821,-3.1159 18.573463,-7.30745 5.06083,2.29897 12.668787,9.40433 17.673712,15.40705 3.94766,4.73468 8.57949,12.38389 9.44768,15.89821 h -1e-5 1e-5 c -4.38616,-1.57843 -18.92091,-2.23237 -27.794903,-0.062 -8.480469,2.074149 -17.313302,5.620439 -23.074441,12.471039 v 0 z"
     style="fill:#000000;fill-opacity:1;stroke:#ff0000;stroke-width:0.10000001;stroke-miterlimit:4;stroke-dasharray:none;stroke-opacity:1" />
  <path
     id="path3242"
     d="m 58.857931,49.499856 v 0 0 c -2.59819,-4.122703 -5.46266,-8.442135 -10.29403,-11.865607 -2.39409,-2.335805 -9.50621,0.794419 -13.96014,2.681295 -1.51394,-2.991722 -4.55109,-9.046413 -7.11829,-8.757256 -7.18567,-0.582515 -13.23674,1.200962 -18.7417996,3.507488 L 19.332341,25.227551 30.864021,14.473857 c 3.07445,2.530417 7.23952,4.048497 11.13797,5.399565 3.48193,1.206717 7.63377,2.417913 10.79885,2.367465 l 0.91453,-5.236613 1.32142,-7.0907514 2.27852,7.0907514 h 1.54262 1.37634 l 2.40625,-7.0481724 1.23626,7.0481724 0.97841,5.151452 c 2.60799,0.151981 7.15962,-0.955329 10.561011,-2.101652 3.96037,-1.334708 10.25636,-4.613189 11.26936,-5.495058 L 97.216611,24.16305 108.86978,35.023195 C 100.99663,31.048551 90.846772,30.9825 89.148272,31.67923 c -2.48186,1.018068 -6.15397,8.585146 -6.15397,8.585146 -5.48429,-2.5197 -12.153781,-4.559058 -13.726491,-2.69668 -3.80716,2.502242 -7.46518,7.108221 -10.40988,11.93216 z"
     style="fill:#000000;fill-opacity:1;stroke:#ff0008;stroke-width:0.10000001;stroke-miterlimit:4;stroke-dasharray:none;stroke-opacity:1" />
  <path
     id="path3251"
     d="m 58.710807,54.632932 v 0 0 c -1.30549,-5.34015 -4.20071,-10.50183 -7.28687,-14.89699 -0.99693,1.86334 -1.76265,6.03401 -2.05079,9.08602 -2.16031,-2.31583 -4.48666,-4.2996 -6.98166,-5.94604 0.61124,4.85691 2.11711,9.6561 4.80256,14.37919 -11.83354,-5.60917 -17.42714,-16.67734 -17.43917,-26.44025 -0.012,-9.76291 4.32726,-18.56767 12.80971,-24.1956704 0,0 2.6082,4.2387004 4.27143,6.0704804 1.729,1.90422 5.85394,5.027 5.85394,5.027 l 0.73213,-5.027 1.76406,-10.3674104 1.652,4.64962 h 1.87265 l 1.97215,0.046 1.65199,-4.72881 1.7309,10.4006004 0.76529,5.02698 c 0,0 4.07958,-3.12637 5.78761,-5.02698 1.6524,-1.83871 4.23972,-6.0849104 4.23972,-6.0849104 7.390961,4.3036304 13.434131,15.1825504 12.975681,24.3759204 -0.52371,10.50217 -5.79639,20.79214 -17.519731,26.23334 2.52526,-4.46965 4.44858,-9.38035 4.78385,-14.20545 -2.50427,1.63834 -4.81786,3.7786 -6.98347,5.84653 -0.22056,-3.04811 -0.68905,-6.0785 -1.84191,-9.06001 -3.92484,4.72861 -5.77995,9.86215 -7.56208,14.83784 z"
     style="fill:#000000;fill-opacity:1;stroke:#ff0008;stroke-width:0.10000001;stroke-miterlimit:4;stroke-dasharray:none;stroke-opacity:1" />
  <path
     id="path3260"
     d="m 58.795346,46.233757 h -2e-5 v 0 c -0.87539,-2.1134 -4.19674,-6.269039 -6.92345,-5.276669 -1.78749,0.65054 -1.98496,3.749099 -1.2536,5.567159 -2.04369,-1.68267 -7.08784,-4.66895 -9.65941,-2.55278 -1.20725,0.99346 -1.0555,2.80855 0.30318,4.68058 -9.12055,-5.9304 -12.61575,-11.920909 -12.66451,-19.737949 -0.0444,-7.12242 5.61032,-14.54609 11.31391,-18.12658 -0.11759,2.4283 1.68412,4.15569 3.40541,5.41338 2.08547,1.52379 4.53922,1.92822 7.50236,1.93769 v 0 c 0.54925,-2.96738 2.00814,-5.14534 3.36487,-6.79485 l -0.009,3.02427 h 4.61963 4.52465 v -3.17072 c 1.76477,2.22917 3.11689,4.52525 3.37661,6.99849 v 0 c 0,0 5.08736,-0.33583 7.0968,-1.70778 1.8777,-1.28201 3.64914,-2.66254 3.90091,-5.59525 5.70602,2.5356 11.40279,11.14697 11.32169,18.32727 -0.0877,7.76467 -4.03389,13.698139 -12.68762,19.537249 1.85556,-2.86625 1.28704,-4.03487 -0.0666,-5.01726 -2.60709,-1.89206 -8.28742,1.56973 -9.22674,2.87377 0.52475,-1.54406 0.60836,-4.84528 -1.21937,-5.537179 -2.71846,-1.02909 -6.03802,2.932449 -7.01998,5.157159 v 0 z"
     style="fill:#000000;fill-opacity:1;stroke:#ff0008;stroke-width:0.10000001;stroke-miterlimit:4;stroke-dasharray:none;stroke-opacity:1" />
  <path
     id="path3273"
     d="m 58.819318,49.979801 -1e-5,10e-6 v 0 c -2.10067,-2.65412 -7.78133,-6.15925 -12.47373,-7.04376 -5.28676,-0.99655 -12.14609,-0.13817 -15.97847,2.27492 -1.86234,-1.57662 -6.56949,-3.94559 -10.26413,-4.39851 -3.91613,-0.48007 -8.55654,0.2885 -11.6834596,1.89626 0,0 2.4701096,-11.49037 4.3322996,-17.05116 1.75133,-5.22973 6.40457,-15.2557 6.40457,-15.2557 0,0 8.88704,2.31615 13.40198,3.12844 4.4049,0.79249 13.31925,1.69648 13.31925,1.69648 v 0 l 3.05883,-5.6004104 2.50093,5.9724004 c 0,0 4.92039,0.20531 7.38194,0.20097 2.4508,-0.004 7.34895,-0.226 7.34895,-0.226 l 2.51014,-6.0223004 2.99206,5.6228004 v 0 c 0,0 9.09104,-0.84295 13.57977,-1.64394 4.4584,-0.79558 13.22028,-3.13314 13.22028,-3.13314 0,0 4.497612,9.65522 6.196602,14.69121 1.93715,5.74191 4.52605,17.6072 4.52605,17.6072 -2.92965,-1.56247 -7.43157,-2.39198 -11.193092,-1.95098 -3.76002,0.44082 -7.99152,2.13342 -10.43413,4.48525 -5.29398,-2.80527 -10.41344,-3.39199 -15.60135,-2.48763 -4.9277,0.859 -10.79742,4.51661 -13.14528,7.23759 l -1e-5,10e-6 z"
     style="fill:#000000;fill-opacity:1;stroke:#ff0008;stroke-width:0.10000001;stroke-miterlimit:4;stroke-dasharray:none;stroke-opacity:1" />
  <path
     id="path3282"
     d="m 58.712601,46.587248 v 0 0 c -4.42225,-3.54344 -9.53767,-5.445679 -14.82728,-5.709379 -6.04215,-0.30121 -11.38932,1.071739 -17.50138,4.804829 -4.68115,-1.48577 -8.38639,-1.86802 -12.55087,-1.28269 -4.8926896,0.68768 -7.7974696,1.66579 -13.75881962,5.51334 C 1.7994214,41.892708 4.2564014,34.521969 7.8323114,27.454969 11.094841,21.007309 15.063981,15.393229 20.149021,9.6155186 c 3.89969,2.3496904 10.00796,4.7055604 15.28824,6.2753704 4.99996,1.48648 11.0783,2.54217 15.37168,2.9316 v 0 l 2.11638,-9.3408604 1.71494,2.3886104 c 0,0 2.70558,-0.47718 4.07234,-0.47786 1.37841,-6.8e-4 4.10753,0.47786 4.10753,0.47786 l 1.82143,-2.3550404 2.12581,9.3540404 v 0 c 3.10259,-0.12086 10.18156,-1.41597 15.08808,-2.87944 5.36825,-1.60118 13.97462,-5.07137 15.53645,-6.4074504 3.588079,3.5186204 9.273989,11.6616404 12.598499,18.2701204 3.50503,6.96731 6.50921,16.321389 7.54882,22.146619 -2.61076,-2.28985 -8.35708,-4.95204 -13.04292,-5.67822 -4.36424,-0.67634 -9.463009,-0.0331 -13.178659,1.36362 -5.75176,-3.66183 -11.15827,-5.089179 -17.07094,-4.894139 -5.52382,0.18221 -10.35276,1.849199 -15.5341,5.796899 z"
     style="fill:#000000;fill-opacity:1;stroke:#ff0008;stroke-width:0.10000001;stroke-miterlimit:4;stroke-dasharray:none;stroke-opacity:1" />
  <path
     id="path3293"
     d="m 58.801131,48.854359 v 0 0 c -0.55458,-2.1992 -3.7141,-5.42733 -6.63723,-5.91595 -3.14235,-0.52526 -7.21166,1.2954 -8.81539,3.69341 -1.48113,-2.17434 -5.69407,-2.70332 -8.04455,-1.3378 -2.19631,1.27595 -3.68756,3.84336 -2.63732,7.14918 -8.70249,-4.60683 -13.7457,-12.88331 -13.146,-21.16744 0.72693,-10.04162 6.5838,-19.43502 19.46431,-23.0955504 0,0 -3.80923,1.2795 -2.14091,4.3670404 1.66831,3.08754 16.08241,3.73732 16.08241,3.73732 v 0 l -0.055,-9.3169604 2.74859,6.5803804 c 0,0 1.97733,-0.90563 3.08842,-0.91654 1.11109,-0.0109 3.32154,0.91512 3.32154,0.91512 l 2.70021,-6.5789604 0.076,9.2327304 v 0 c 0,0 14.268361,-0.35484 15.790381,-3.54014 1.52203,-3.1853104 -2.05182,-4.4849104 -2.05182,-4.4849104 13.46035,3.5471704 18.795099,13.0599704 19.550719,23.1258504 0.6155,8.19938 -5.093079,17.37676 -12.934659,21.00412 0.80957,-2.2397 -0.20002,-5.73843 -2.30031,-7.0298 -2.45043,-1.50665 -6.91773,-0.8637 -8.530171,1.3068 -0.71983,-1.70353 -5.23041,-4.00714 -8.1899,-3.61981 -3.11069,0.40711 -6.31168,3.07227 -7.33926,5.89191 z"
     style="fill:#000000;fill-opacity:1;stroke:#ff0008;stroke-width:0.10000001;stroke-miterlimit:4;stroke-dasharray:none;stroke-opacity:1" />
  <path
     id="path3300"
     d="m 58.771202,58.46525 v 0 h 2e-5 c -0.6069,-4.83269 -3.53694,-16.73284 -6.35725,-17.35945 -2.82031,-0.62661 -4.70501,4.70411 -5.11706,9.27626 0,0 -2.24432,-10.25114 -6.06547,-9.81494 -4.8544,0.55415 -4.69718,13.88477 -4.69718,13.88477 -6.79979,-9.64241 -8.65402,-17.97895 -8.72022,-27.63957 -0.061,-8.89707 4.17322,-20.6385804 7.68137,-25.5626704 2.00187,4.37866 3.95667,7.39286 7.06597,10.0635504 3.25272,2.79388 6.92075,4.50436 11.52261,5.71866 v 0 l 1.50107,-9.7173304 0.91787,2.8862704 h 2.26827 2.21924 l 1.00223,-2.9266204 1.41854,9.7021404 v 0 c 4.34949,-0.9377 7.99608,-2.63989 11.14293,-5.28507 3.31358,-2.7853204 6.53216,-7.2337104 7.49962,-10.6016904 3.67308,5.02137 7.78588,16.6051904 7.74607,25.4832804 -0.0437,9.74187 -2.66884,20.685 -8.75011,27.88527 0.3592,-2.35063 -0.40265,-13.41381 -4.20056,-13.81955 -4.04502,-0.43214 -6.47388,9.87195 -6.47388,9.87195 -0.0246,-1.05801 -1.18132,-9.01519 -4.02071,-9.50741 -4.24636,-0.73612 -7.14982,12.65453 -7.58337,17.46215 z"
     style="fill:#000000;fill-opacity:1;stroke:#ff0008;stroke-width:0.10000001;stroke-miterlimit:4;stroke-dasharray:none;stroke-opacity:1" />
  <path
     id="path3307"
     d="m 58.789304,48.494141 h -2e-5 v 0 c -3.08502,-3.38736 -12.02529,-8.798749 -15.64005,-8.089179 -1.27972,0.2512 -2.82029,1.04829 -1.03174,3.620579 -1.45497,-1.87916 -6.08011,-4.260029 -7.10369,-3.038399 -1.19615,1.427589 1.20538,4.996459 4.13821,8.041169 -6.65901,-2.69448 -14.63335,-10.422029 -14.3682,-18.127989 0.31684,-9.20817 7.35971,-16.56228 18.61749,-20.43052 -2.4557,1.90531 -3.8082,4.15897 -4.73862,6.50164 4.7368,1.08848 9.60518,1.68228 14.44489,2.05041 v 0 c 1.05569,-5.0196 2.1461,-6.87098 3.20659,-7.68718 l 0.0384,3.8366 c 0,0 1.5429,-1.12443 2.43669,-1.11919 0.96032,0.006 2.60377,1.23312 2.60377,1.23312 l 0.0342,-3.91759 c 1.58739,1.83765 3.0027,4.3625 3.20542,7.59147 v 0 c 4.77246,-0.44528 9.61218,-0.75379 14.33524,-1.93996 -0.65186,-2.42582 -2.64132,-4.64506 -4.88899,-6.70664 10.01836,3.74428 18.54162,10.08625 18.7535,19.75409 0.17496,7.98324 -5.7982,14.852029 -14.29534,19.116029 0,0 6.03731,-6.16662 3.92816,-8.444679 -1.19572,-1.29148 -6.75957,3.240309 -6.75957,3.240309 0,0 1.87876,-3.026789 -0.7306,-3.568619 -5.46496,-1.13479 -16.18575,8.084529 -16.18575,8.084529 z"
     style="fill:#000000;fill-opacity:1;stroke:#ff0008;stroke-width:0.10000001;stroke-miterlimit:4;stroke-dasharray:none;stroke-opacity:1" />
  <path
     id="path3312"
     d="m 58.763025,47.726111 6e-5,-1e-5 -6e-5,1e-5 c -0.8906,-4.31366 -4.25135,-9.202999 -7.22527,-10.247829 -2.97391,-1.04483 -6.1796,-0.48588 -9.18025,2.4109 -0.83525,-3.14322 -4.47197,-6.8494 -7.50119,-7.07719 -3.02922,-0.22779 -5.73942,0.95518 -6.13714,6.00075 -2.51984,-2.49368 -4.49035,-7.49066 -3.54311,-13.73532 0.79607,-5.24804 5.92379,-10.43689 9.36031,-12.76678 v 0 c 2.5337,5.48315 6.27091,6.84123 10.01481,6.49193 3.7439,-0.3493 6.95166,-2.72513 8.30194,-6.95938 v 0 0 c 0,0 2.54757,3.34857 5.94195,3.37247 3.39438,0.0239 5.76385,-3.39392 5.76385,-3.39392 v 0 0 0 c 1.63974,5.17358 5.67976,7.13124 9.71861,7.09144 3.510051,-0.0346 7.724831,-3.05058 8.414891,-6.69133 4.78598,2.89141 10.07128,9.46316 9.98606,15.58431 -0.0549,3.94592 -1.06559,7.94596 -3.96116,10.97158 0.1027,-1.88529 -1.47331,-5.89496 -4.27307,-6.05229 -2.79976,-0.15733 -6.71833,0.75989 -9.387081,7.05838 -2.23525,-1.9611 -5.98743,-3.79918 -9.39849,-2.30555 -3.41106,1.49363 -6.0645,6.173899 -6.8956,10.247819 v 0 z"
     style="fill:#000000;fill-opacity:1;stroke:#ff0008;stroke-width:0.10000001;stroke-miterlimit:4;stroke-dasharray:none;stroke-opacity:1" />
  <path
     id="path3315"
     d="m 58.897425,50.359402 v 0 0 c -1.41266,-3.85325 -6.35196,-9.39634 -9.19697,-9.88194 -2.84501,-0.48561 -5.08617,1.3714 -5.88024,3.46151 -2.0557,-3.00496 -8.4871,-5.18227 -10.9639,-2.72397 -2.4768,2.4583 -2.01917,5.70014 0.88241,8.75053 -6.25675,-2.30644 -19.36844,-9.03469 -18.35738,-19.58627 1.01106,-10.55158 14.91069,-16.93232 25.03906,-19.51075 -4.69313,3.92084 -3.23231,7.36692 -0.28751,9.777 2.9448,2.41008 8.40858,3.77099 11.63335,0.64784 v 0 l 1.87416,-12.0751904 2.82094,4.2287804 h 2.436 2.33493 l 2.7479,-4.1528904 2.02119,12.0470404 v 0 c 1.80864,2.65193 8.94496,2.25987 11.547659,-0.5827 2.23855,-2.44487 5.19245,-5.76796 -0.37412,-9.93763 14.32355,4.13335 25.173706,10.8651 25.112286,20.54852 -0.0614,9.68342 -9.488746,14.96068 -18.141876,18.47387 2.88288,-3.54601 3.03516,-6.97607 0.289521,-8.93997 -2.745641,-1.9639 -8.729951,0.0582 -10.79888,3.25447 -0.0833,-1.07619 -2.04134,-4.34436 -5.13664,-3.68019 -3.0953,0.66417 -6.55189,3.77164 -9.60191,9.88194 z"
     style="fill:#000000;fill-opacity:1;stroke:#ff0008;stroke-width:0.10000001;stroke-miterlimit:4;stroke-dasharray:none;stroke-opacity:1" />
  <path
     id="path3322"
     d="m 58.733545,49.342428 -3e-5,1e-6 3e-5,-1e-6 c -0.84343,-9.623403 -4.51057,-12.627512 -6.47727,-12.045361 -2.67175,0.790853 -1.49838,4.708547 -1.10517,6.649054 -1.86571,-2.816833 -9.52294,-10.963712 -13.23162,-7.505679 -3.93477,3.668832 2.20631,9.935901 6.9627,14.562328 -9.39674,-2.969953 -20.19442,-10.246148 -20.00273,-20.665964 0.19169,-10.419816 9.57408,-18.686145 24.43266,-21.8454094 -2.10568,0.705193 -9.40643,5.8701974 -7.86046,10.3133594 1.54596,4.443162 9.75951,4.402383 12.46474,3.520492 0.89111,-2.207044 0.86995,-4.512195 1.22174,-6.670209 l 0.45076,-7.0967174 1.34209,3.4004344 h 1.80253 1.90659 l 1.15826,-3.2823934 0.64501,7.0793034 c 0.1365,2.188819 0.42974,4.342807 1.06251,6.421342 2.90141,1.483657 11.1102,0.551825 12.529521,-3.380523 1.41932,-3.932348 -4.577061,-8.9452044 -7.896761,-10.2829084 13.228051,2.3342824 24.242021,10.4933174 24.591221,21.4646194 0.3077,9.667405 -10.03495,18.340509 -20.091671,20.935744 5.857491,-5.344357 10.299261,-10.63601 7.256001,-14.221694 -3.13639,-3.695421 -9.733011,2.190146 -13.560441,7.310151 1.01639,-3.428701 0.90047,-6.478213 -1.39262,-6.788307 -3.39991,-0.459768 -5.69643,6.674492 -6.20762,12.128339 z"
     style="fill:#000000;fill-opacity:1;stroke:#ff0008;stroke-width:0.10000001;stroke-miterlimit:4;stroke-dasharray:none;stroke-opacity:1" />
  <path
     id="path3329"
     d="m 58.786003,51.865238 v 1e-5 -1e-5 c -1.05157,-8.69873 -5.685984,-15.01512 -9.042001,-16.21003 -1.960944,-0.69819 -3.302732,-0.65133 -4.583875,5.34951 -0.990579,-4.60013 -4.610737,-10.85691 -8.74539,-9.76774 -4.290244,1.13016 -5.459116,4.27373 -2.895624,13.03411 -5.050886,-3.5958 -8.902567,-9.58161 -8.724234,-15.29249 0.313564,-10.04148 9.243782,-17.37946 21.801788,-20.8095204 -5.517697,5.0208104 -5.160893,8.6854604 -2.81418,11.4874104 2.640013,3.15215 8.64521,1.83058 10.282657,-2.18373 v 0 l 1.783979,-9.8414004 0.78136,3.9677804 h 2.15552 2.19764 l 0.92136,-3.9116204 1.76585,10.0357304 v 0 c 3.32663,5.28166 8.35638,3.98922 10.7449,1.35668 2.09536,-2.30942 1.34709,-6.53348 -3.06068,-10.9267704 13.89959,4.3728904 20.96536,11.3621604 21.45585,21.3126204 0.2806,5.69256 -3.80439,11.0691 -8.68047,14.87492 2.59041,-7.56744 1.60209,-12.01898 -2.33496,-13.08981 -4.01171,-1.09114 -8.67132,5.24774 -9.39557,9.74783 -0.45956,-3.65042 -2.20703,-5.78179 -3.85618,-5.40713 -3.82969,0.87005 -8.76639,7.52768 -9.75774,16.27365 v 1e-5 z"
     style="fill:#000000;fill-opacity:1;stroke:#ff0008;stroke-width:0.10000001;stroke-miterlimit:4;stroke-dasharray:none;stroke-opacity:1" />
  <path
     id="path3336"
     d="m 58.698598,54.859433 v 0 0 c 0,-5.230277 -4.10912,-12.38592 -8.6087,-14.484021 -4.77222,-2.225233 -10.7526,-0.979828 -14.88616,5.310804 -2.40878,-3.229351 -4.69508,-6.587981 -5.44054,-11.573051 -5.46848,2.728227 -7.2483,7.413697 -8.15016,12.565029 C 16.358308,44.357073 7.5962284,35.825873 8.1665084,28.254165 8.9868084,17.362869 17.714958,9.9123006 31.280618,4.8768376 c -3.2278,3.935254 -2.58649,5.6686244 -0.16753,8.3411554 2.41895,2.672531 12.15044,6.620311 18.12794,6.421403 v 0 l 2.45412,-9.574392 0.9249,3.987658 c 1.54611,-1.085032 3.98687,-1.565234 6.07855,-1.558154 2.01027,0.0068 4.18198,0.640276 5.83168,1.53704 l 0.91515,-4.1768694 2.49411,9.7913304 v 0 c 5.46633,0.09518 16.85744,-4.026872 18.7571,-6.951679 1.89966,-2.9248084 2.22096,-5.1978274 -1.09329,-8.0199674 13.98474,4.47134 24.019692,14.0696044 23.868522,23.3700204 -0.15117,9.300416 -8.71152,16.323387 -13.571522,18.564862 -0.71709,-5.782181 -3.22248,-9.807383 -8.07742,-12.392138 -0.81438,2.885626 -0.47224,4.61473 -5.36717,11.580902 -5.19297,-7.450202 -9.95356,-7.142573 -15.04236,-5.316487 -5.0888,1.826085 -8.17757,10.44372 -8.7148,14.37791 v 0 z"
     style="fill:#000000;fill-opacity:1;stroke:#ff0008;stroke-width:0.10000001;stroke-miterlimit:4;stroke-dasharray:none;stroke-opacity:1" />
  <path
     id="path3341"
     d="m 58.828347,53.700492 3e-5,1e-5 -5.86242,-20.257909 c 0,0 -3.41957,-0.12702 -5.02764,0.35991 -1.51858,0.45983 -4.13888,2.35106 -4.13888,2.35106 -3.33791,-2.8294 -6.24659,-4.28011 -9.88334,-4.62377 -3.3774,-0.31916 -7.27035,0.60274 -9.87115,2.39166 0.68737,-3.0832 2.17231,-6.99237 4.56199,-10.38977 2.38968,-3.3974 6.6704,-7.0847 9.3004,-8.66846 0,0 3.71573,2.78225 6.14468,3.30032 2.42895,0.51807 7.34002,0.11747 7.90572,-0.575 v 0 l 1.91186,-11.8577604 1.92085,10.1366304 h 3.03793 3.03787 l 1.92085,-10.1432104 1.877,11.8840504 v 0 c 1.10735,0.71692 5.62746,1.01163 8.04914,0.49213 2.421681,-0.5195 6.014411,-3.17005 6.014411,-3.17005 2.64039,1.32635 6.56049,4.90139 8.91614,8.13681 2.35565,3.23542 3.63998,6.19066 4.91597,10.85888 -3.07782,-2.19921 -6.91499,-2.61055 -10.32911,-2.42452 -3.5276,0.19221 -9.577381,4.53893 -9.577381,4.53893 0,0 -2.70611,-1.88484 -4.26259,-2.33335 -1.52205,-0.43859 -4.74331,-0.2862 -4.74331,-0.2862 z"
     style="fill:#000000;fill-opacity:1;stroke:#ff0008;stroke-width:0.10000001;stroke-miterlimit:4;stroke-dasharray:none;stroke-opacity:1" />
  <path
     id="path3352"
     d="m 58.807856,44.178039 10e-7,-10e-6 v 0 C 57.63344,41.62769 50.704362,33.70155 46.076733,34.14724 c -1.189681,0.11458 -2.367485,-0.11646 -1.554372,3.90912 -1.337512,-1.64209 -8.133615,-6.08334 -9.991105,-4.30632 -1.85749,1.77703 1.98301,6.61285 4.114354,8.576109 C 31.879167,40.02464 22.328461,36.42462 23.108809,28.77263 23.889157,21.12064 41.096811,16.6866 45.341119,16.21772 c -1.41325,0.85371 -3.003568,2.54498 -2.456676,4.24166 0.708835,2.19909 6.62063,2.05254 6.62063,2.05254 v 0 l 5.101451,-7.15617 -0.04239,7.76153 h 4.062057 4.587658 l -0.196365,-7.75544 5.072098,7.25309 v 0 c 0,0 6.096942,0.0481 6.723646,-2.17603 0.343542,-1.21919 -0.509214,-2.75007 -2.537539,-4.22783 4.512112,0.81401 22.302533,4.51008 22.27385,13.72409 -0.02067,6.64082 -10.263718,10.95929 -15.594402,12.333389 1.45919,-1.621739 6.216451,-6.080199 4.131523,-8.313039 -2.466268,-2.64123 -8.566315,3.05614 -10.030428,4.15789 1.0006,-2.43193 0.0079,-3.75798 -0.836026,-3.88696 -5.099565,-0.77935 -12.227524,7.46845 -13.412352,9.951599 z"
     style="fill:#000000;fill-opacity:1;stroke:#ff0008;stroke-width:0.10000001;stroke-miterlimit:4;stroke-dasharray:none;stroke-opacity:1" />
  <path
     id="path3363"
     d="m 58.696014,47.64694 c -0.3552,-2.46335 -1.76194,-7.20576 -4.80497,-7.87978 -3.04303,-0.67402 -6.94785,2.10546 -8.8435,5.35563 0.18787,-3.41567 -0.12294,-7.49842 -3.19223,-8.90622 -3.06929,-1.4078 -8.27589,1.16179 -11.38072,5.37372 0.65153,-2.70208 0.78337,-7.48396 -3.89432,-8.70858 C 21.902584,31.65709 13.822184,37.79755 9.5871044,44.825 11.372654,37.72986 15.112824,30.6049 19.690364,25.11392 c 4.57754,-5.49098 11.10713,-10.3721 15.91532,-13.16203 0.72989,2.33753 4.63807,7.5456 7.97992,10.03407 2.33155,1.73616 5.48638,3.86371 7.46058,4.4574 v 0 c -0.26034,-5.61973 1.03061,-8.13075 2.25982,-10.32702 -0.17791,2.72501 -0.0425,5.45002 0.60724,8.17503 0,0 2.50634,-1.78669 4.78277,-1.79711 2.27643,-0.0104 4.78284,1.73051 4.78284,1.73051 0.59146,-2.70281 0.61706,-5.40563 0.62944,-8.10844 1.80744,3.19007 2.43634,5.92708 2.17177,10.16733 v 0 c 2.23588,-0.54295 6.16649,-3.09718 8.68085,-5.34112 2.853781,-2.54685 6.382461,-7.42765 6.808341,-9.03077 5.82544,3.05031 11.97303,8.50941 16.487479,13.95696 4.514446,5.44755 7.415426,11.49383 9.770256,19.35588 -4.2131,-7.32826 -11.826746,-13.53586 -17.504135,-12.20186 -3.10654,0.72993 -4.79339,3.45497 -3.64974,8.59329 -3.19954,-3.73697 -7.15698,-6.67449 -10.6457,-5.72034 -3.488731,0.95415 -4.268761,5.37732 -3.838461,9.27149 -3.38774,-4.50342 -5.56021,-5.81169 -8.63418,-5.39648 -3.07397,0.4152 -4.68179,5.40981 -5.05876,7.87623 z"
     style="fill:#000000;fill-opacity:1;stroke:#ff0008;stroke-width:0.10000001;stroke-miterlimit:4;stroke-dasharray:none;stroke-opacity:1" />
  <path
     id="path3370"
     d="m 58.664762,48.643271 -1e-5,1e-5 v 0 c -0.87992,-4.9271 -3.64819,-9.38218 -6.32654,-9.93522 -2.80031,-0.57821 -5.91428,2.47499 -7.27986,5.57537 -0.58346,-3.6153 -3.65,-9.01074 -7.36652,-8.86918 -4.16964,0.15882 -6.3822,5.51583 -7.26748,10.19232 -1.89063,-3.41848 -1.96007,-12.81391 0.0406,-18.72783 1.78424,-5.27416 8.39316,-11.74243 10.35293,-13.06641 0.80013,4.30104 3.8464,5.18453 6.74108,6.01596 2.16051,0.62055 5.68234,-0.45394 6.64726,-1.13577 v 0 l 1.18573,-7.76693 0.93703,3.1393 h 2.33581 2.46477 l 0.88176,-3.30544 1.19177,7.93307 v 0 c 1.30534,1.20588 5.71433,1.6827 8.27821,0.73289 2.35919,-0.87398 5.11448,-2.98359 5.00632,-5.6315 5.00896,3.48817 9.0561,8.84534 10.93904,14.63755 1.76177,5.41948 1.54543,11.00998 -0.3808,17.14429 -0.67673,-5.33465 -3.5049,-9.51447 -6.05599,-9.9401 -4.11633,-0.68678 -6.87509,2.01182 -8.70627,8.99778 -0.51835,-2.15365 -2.98654,-6.39754 -6.26742,-6.08276 -4.12331,0.39561 -6.43445,6.26463 -7.35138,10.0926 z"
     style="fill:#000000;fill-opacity:1;stroke:#ff0008;stroke-width:0.10000001;stroke-miterlimit:4;stroke-dasharray:none;stroke-opacity:1" />
  <path
     id="path942"
     d="m 58.712807,42.736557 c -0.82826,-3.01137 -3.65379,-8.96554 -7.64182,-9.24314 -1.75162,-0.12192 -3.51405,1.92569 -3.8865,3.55559 -0.99286,-1.82868 -2.64408,-2.91681 -4.33283,-2.70285 -2.46796,0.31268 -4.74538,3.62541 -5.1469,5.40432 -1.30493,-1.32598 -4.26622,-2.38588 -5.78625,-1.13935 -2.7357,2.24346 -1.87609,7.72692 -0.5605,11.16415 -5.6854,-6.6752 -7.79018,-13.39485 -7.9456,-20.80828 -0.11185,-5.33501 1.21173,-9.63615 4.04181,-15.48989 2.13783,2.1486 5.84209,4.3103 9.8493,5.58345 4.00721,1.27315 8.38741,1.81135 13.83696,1.38192 0,0 0.5112,-2.92092 0.94284,-4.33547 0.66381,-2.17544 2.51947,-6.3412104 2.51947,-6.3412104 l 2.37701,1.9697904 h 1.73301 1.96329 l 2.11109,-1.9286704 c 0,0 1.88121,4.1410204 2.57978,6.3000904 0.46203,1.428 1.05798,4.37659 1.05798,4.37659 4.46686,0.20958 9.56861,-0.13668 13.6478,-1.31887 4.07919,-1.18219 6.95333,-3.05772 9.8493,-5.69311 2.18594,2.63539 4.54664,10.163 4.26215,15.52047 -0.39086,7.36047 -2.97443,15.06222 -8.08095,20.58306 1.13837,-3.2068 2.31888,-8.55808 -0.49746,-10.81409 -1.54798,-1.24 -3.50135,-0.81515 -5.86026,1.03054 -0.43619,-2.36386 -2.37287,-4.82788 -4.67772,-5.24025 -1.81135,-0.32408 -3.76438,0.56559 -4.87603,2.58813 -0.25903,-1.54142 -2.09465,-3.7222 -3.85106,-3.61168 -3.97803,0.25032 -6.50273,6.03982 -7.62791,9.20876 z"
     style="fill:#000000;stroke:#ff0000;stroke-width:0.10000001;stroke-miterlimit:4;stroke-dasharray:none;stroke-opacity:1" />
  <path
     id="path954"
     d="m 58.776325,55.81722 v 0 0 c 0,0 -1.83357,-18.482449 -8.76363,-18.893049 -2.01256,-0.11924 -3.17514,5.147819 -3.17514,5.147819 0,0 -1.22656,-7.279819 -4.00803,-7.319779 -2.78449,-0.04 -4.05461,7.455089 -4.33672,10.314869 -4.79289,-5.726729 -5.97645,-12.782239 -6.46593,-19.700759 -0.47222,-6.67454 2.64504,-15.11919 5.5701,-19.4309204 1.8929,2.718 5.98632,5.9705304 9.04851,7.5340504 3.06219,1.56352 7.02321,2.86028 8.54415,2.31462 1.52095,-0.54565 1.25479,-2.31462 1.25479,-2.31462 -2.09133,-4.2068004 -1.50383,-7.0605304 -0.52391,-9.6785004 l 1.7273,3.29642 h 1.12846 1.17548 l 1.77936,-3.22589 c 1.44507,3.33183 1.14606,6.5268604 -0.60556,9.6079704 0,0 -0.066,1.74497 1.19043,2.33813 1.25638,0.59316 5.70583,-0.72419 8.78171,-2.33813 3.07588,-1.61394 7.80004,-5.6730104 8.97553,-7.5575604 2.91243,4.02975 5.65143,12.2104804 5.55895,18.7578204 -0.10041,7.10875 -2.86216,15.66962 -6.46592,20.297149 -0.21408,-3.839369 -2.16372,-10.768029 -4.44314,-10.449749 -1.98493,0.27716 -3.33706,4.97258 -3.80262,7.637769 0,0 -1.41875,-5.467129 -3.53645,-5.301239 -5.97871,0.46835 -8.60772,18.963579 -8.60772,18.963579 z"
     style="fill:#000000;stroke:#ff0000;stroke-width:0.10000001;stroke-miterlimit:4;stroke-dasharray:none;stroke-opacity:1" />
  <path
     id="path966"
     d="m 58.844792,59.601621 v 0 l -2e-6,10e-6 C 57.481476,50.117221 54.078663,43.293101 47.127666,41.709792 41.914485,40.522332 36.637874,45.628261 33.395316,49.998851 34.225658,42.342591 31.845503,35.600042 26.290548,32.934052 20.627974,30.216412 13.992651,31.918522 8.1886104,38.165942 8.2985724,27.184492 12.594296,20.357112 18.534965,13.855762 25.158113,6.6075216 35.793044,2.2629116 44.490599,-0.07020844 40.01582,2.0243716 36.073658,4.9053816 37.010307,8.6310616 c 1.383827,5.5044104 11.480787,6.7042704 15.758842,6.4483104 0.114254,-1.49295 0.330201,-3.08946 0.796346,-4.5159 0.450057,-1.9117104 0.92021,-3.8234304 1.143775,-5.7351404 l 1.095963,3.05049 h 3.039557 3.03745 l 1.054435,-3.08064 c 0.260439,1.92176 0.708658,3.84353 1.201199,5.7652904 0.345184,1.49306 0.626288,2.98613 0.736082,4.47919 4.416654,0.10367 13.942182,-0.58959 15.564052,-5.9065404 1.13442,-3.71895 -1.708689,-6.60126 -7.150049,-9.12857004 5.642966,1.19093004 18.516122,6.24805004 25.098245,12.93159044 6.477306,6.57709 11.232946,14.63262 11.033966,25.32302 -2.96973,-3.62437 -10.47074,-8.25905 -15.785146,-6.29721 -6.360548,2.34803 -10.103413,7.64883 -9.463673,18.004649 -2.903393,-4.30609 -8.363199,-9.504449 -13.539501,-8.352699 -6.99661,1.556779 -11.006348,8.673239 -11.787058,17.984719 z"
     style="fill:#000000;stroke:#ff0000;stroke-width:0.10000001;stroke-miterlimit:4;stroke-dasharray:none;stroke-opacity:1" />
  <path
     id="path978"
     d="m 58.722795,52.102673 v 0 0 c -2.29456,-6.365588 -6.52896,-10.819238 -11.91185,-13.436572 -4.91571,-2.390176 -11.0128,-2.48511 -16.36882,-0.977869 -0.9188,-4.722668 -4.00857,-9.480205 -8.08301,-12.124429 -4.19699,-2.72375 -8.39455,-3.96782 -14.7973996,-2.517586 3.2390896,-4.758201 5.2196896,-6.769441 8.6353496,-9.240502 4.15741,-3.007675 9.25581,-5.5647374 13.97096,-6.4640154 1.86748,2.7140564 4.60324,5.8093084 7.73733,7.6211754 3.84831,2.224766 7.75851,3.691497 12.85041,3.563501 v 0 c 0.31203,-2.506046 0.85567,-4.896287 1.45453,-7.258918 l 2.09684,5.65397 h 4.41566 4.51061 l 2.16359,-5.529581 c 0.51679,2.374618 1.03848,4.748011 1.36743,7.16959 v 0 c 5.08317,-0.01778 9.32826,-1.500059 13.28457,-3.871026 2.95377,-1.770159 6.214991,-5.5273144 7.22523,-7.3837724 3.95087,0.870466 9.4274,3.0833044 13.409065,5.9134924 3.73603,2.655595 7.29151,6.43844 9.3759,10.059012 -5.31954,-1.552067 -10.646625,-0.477028 -14.859445,2.232099 -4.12171,2.650535 -7.44931,7.795824 -8.01873,12.321706 -5.00355,-1.632393 -11.5948,-1.596254 -16.58195,0.801862 -5.3942,2.593848 -9.31295,7.075866 -11.87627,13.467863 z"
     style="fill:#000000;stroke:#ff0000;stroke-width:0.10000001;stroke-miterlimit:4;stroke-dasharray:none;stroke-opacity:1" />
  <path
     id="path987"
     d="m 58.850028,58.095769 v 0 0 c -2.31019,-4.651799 -9.97654,-14.012671 -16.87431,-18.875284 -4.44588,-3.134137 -10.94734,-6.016999 -15.11318,-6.155435 0,0 -3.89811,-11.750133 -6.97774,-17.07013 C 16.794918,10.657215 11.037728,3.2469646 8.5194584,1.3944106 L 36.071358,10.941935 v 0 0 c 1.78739,5.202876 10.78719,21.685812 14.62749,20.457896 3.8403,-1.227916 2.93505,-10.249292 2.58254,-12.551043 v 0 0 c 0.99582,2.685009 2.88654,5.513532 5.5686,5.484587 2.60047,-0.02806 4.4028,-2.563479 5.51039,-5.416666 v 0 0 c -0.50327,6.514226 -0.28277,11.937727 3.20894,12.488964 3.4917,0.551237 13.191621,-17.250065 14.001031,-20.542686 v 0 l 0.0577,0.125982 27.462221,-9.5550814 c -4.5316,4.070143 -8.84493,10.7548024 -12.204232,16.8095524 -2.604639,4.69456 -4.521249,8.169199 -6.050169,14.926581 -6.18525,0.143059 -10.51515,2.903252 -14.90394,5.964695 -6.977151,4.866985 -13.690321,13.136041 -17.081941,18.961053 z"
     style="fill:#000000;stroke:#ff0000;stroke-width:0.10000001;stroke-miterlimit:4;stroke-dasharray:none;stroke-opacity:1" />
  <path
     id="path926"
     d="m 58.700057,50.557772 h 10e-6 -10e-6 c -1.52954,-9.49373 -6.8955,-14.75293 -13.73621,-17.84104 -5.76873,-2.60419 -11.87642,-1.97187 -18.94583,1.26325 1.31201,-2.23855 -1.66183,-4.50568 -4.03545,-4.6652 -5.64718,-0.37951 -10.50703,3.39498 -14.5463196,9.61601 1.02942,-3.66479 6.0162296,-11.80919 10.5615396,-16.49658 5.53816,-5.71127 11.10522,-9.9406 19.6945,-13.4809114 l 1.42649,5.5462084 14.13794,2.959553 v 0 l 1.53083,-5.835989 1.74396,2.876436 h 2.16856 2.16318 l 1.76546,-2.836084 1.64651,5.792937 v 0 l 13.96847,-2.956853 1.4776,-5.5462184 c 5.72619,2.0770354 14.14857,7.6125414 19.64069,13.3006914 4.712323,4.88052 10.144103,13.9386 10.814423,17.24174 -2.34089,-4.72551 -8.53686,-10.67868 -14.064773,-10.18094 -2.16896,0.1953 -5.8199,1.35935 -4.69455,4.67059 -4.77177,-2.75866 -12.09331,-3.74787 -17.32284,-1.80367 -7.48983,2.78452 -13.58475,7.53402 -15.39417,18.37607 v 0 z"
     style="fill:#000000;stroke:#fa0000;stroke-width:0.10000001;stroke-miterlimit:4;stroke-dasharray:none;stroke-opacity:1" />
  <path
     id="path934"
     d="m 58.801559,48.4899 v 0 1e-5 c -1.15068,-4.62964 -5.05863,-9.317519 -9.43351,-11.823989 -8.34157,-4.77909 -18.27367,-4.40756 -28.54578,-4.1149 0.64007,-5.42979 0.46964,-7.8618 -1.4238,-11.0608 -3.01342,-5.09121 -9.08527,-8.149399 -14.3417996,-10.455774 H 40.784949 v 0 c 0.20912,1.870423 0.94118,4.760004 2.65246,6.233144 2.59728,2.23584 6.74841,2.57714 9.95384,2.57388 1.31902,-10e-4 1.4772,-1.04389 1.4772,-1.04389 l 0.63956,-6.268671 1.09422,4.063941 c 0,0 1.47531,-0.23597 2.21903,-0.23247 0.74031,0.003 2.2066,0.25216 2.2066,0.25216 l 1.12118,-4.182111 0.56803,6.408621 c 0,0 -0.009,0.88559 1.85142,0.9651 1.01724,0.0435 6.58338,-0.0952 8.99702,-1.99544 1.97536,-1.55515 2.59828,-3.45207 3.31575,-6.774264 h 35.675571 v 0 c 0,0 -10.50584,4.612494 -13.448791,9.171134 -2.28699,3.54256 -3.44945,7.52802 -2.19269,12.45842 -7.10897,-0.62571 -19.69085,-0.77987 -27.92446,3.73687 -4.62054,2.5347 -7.32751,4.9433 -10.18933,12.089029 z"
     style="fill:#000000;stroke:#fa0000;stroke-width:0.10000001;stroke-miterlimit:4;stroke-dasharray:none;stroke-opacity:1" />
  <path
     id="path946"
     d="m 58.842225,54.189727 h 1e-5 v 0 c -1.42148,-10.92787 -3.42005,-21.567219 -12.03626,-24.292089 -3.56214,-1.12652 -7.38173,1.99509 -9.84578,5.35549 -0.13339,-7.20872 -3.24366,-10.23181 -7.25704,-13.29531 C 21.629805,15.795258 9.3699354,14.168968 0.05527538,14.928728 10.245365,9.6880966 16.225735,8.3986796 24.628915,6.9991606 c 7.81449,-1.301475 16.4144,-1.213173 23.76087,-0.350319 -1.1676,0.478864 -4.41744,3.6529054 -4.16452,6.1026064 0.30243,2.92931 3.55862,5.76109 6.36575,6.12604 2.48763,0.32341 3.8118,-1.74854 3.39808,-1.80764 l 1.3268,-11.8093714 0.54417,3.703949 c 0,0 1.96918,-0.587417 2.98217,-0.584884 1.03164,0.0026 3.03406,0.610838 3.03406,0.610838 l 0.55159,-3.681698 1.24893,11.8093664 c 0,0 0.74329,2.69771 4.13827,1.61995 3.39498,-1.07776 5.66834,-3.92592 5.67911,-6.90641 0.008,-2.2314334 -4.21437,-5.2012874 -4.21437,-5.2012874 6.4052,-0.763649 16.25956,-0.961448 24.22808,0.468975 8.301955,1.490276 12.402085,2.037912 24.050805,7.8739524 -6.15267,-0.52888 -20.174605,0.40663 -27.992295,5.8624 -4.6117,3.2184 -8.23634,5.50253 -8.94228,14.30625 -2.0267,-3.62732 -5.89572,-6.38049 -9.33452,-5.35787 -8.75338,2.60304 -11.23829,13.018699 -12.44738,24.405719 v 0 z"
     style="fill:#000000;stroke:#fa0000;stroke-width:0.10000001;stroke-miterlimit:4;stroke-dasharray:none;stroke-opacity:1" />
  <use
     style="fill:#000000"
     height="100%"
     width="100%"
     id="use949"
     xlink:href="#path946"
     y="0"
     x="0" />
  <path
     id="path955"
     d="m 58.806538,53.661395 c -0.958475,-4.08263 -4.868332,-16.91663 -11.416047,-16.14987 -3.486867,0.40832 -3.98803,7.38425 -3.92793,9.77221 -0.882714,-3.40134 -5.06126,-7.87866 -8.466758,-6.81746 -2.643085,0.82362 -3.969921,5.18283 -2.842433,8.24073 -1.268933,-1.48019 -5.359481,-2.67913 -7.770363,-1.60723 -2.579175,1.14673 -4.542105,4.49061 -4.250394,7.35777 -3.407789,-6.47059 -6.692,-15.47947 -6.570225,-23.66547 0.133362,-8.96485 3.249615,-19.138364 7.948495,-25.7057214 3.14622,2.792547 6.388893,5.5561804 10.345366,8.1058254 0,0 5.682215,3.035982 8.70241,4.123212 3.113505,1.12082 9.622073,2.442755 9.622073,2.442755 l 3.447067,-11.9266324 0.687975,1.738244 h 4.50099 4.188195 l 0.611882,-1.893579 3.417277,12.0541604 c 0,0 5.242144,-0.803011 7.745322,-1.638433 4.12763,-1.377574 8.110521,-3.259083 11.834301,-5.510416 3.381481,-2.044385 9.424201,-7.1909504 9.424201,-7.1909504 5.352468,7.8415674 7.823728,16.2300554 8.008438,24.9685954 0.1746,8.26014 -2.5173,17.35285 -6.565919,23.90047 -0.164431,-3.46639 -1.796781,-5.80902 -3.856837,-6.90894 -2.419751,-1.29197 -6.307145,-0.7153 -8.178814,1.43512 0.622734,-3.06081 0.0089,-7.51148 -2.708174,-8.3685 -3.466985,-1.09357 -7.327084,3.33064 -8.643384,6.73438 0.329163,-2.92717 -0.733066,-9.11703 -4.150018,-9.44476 -6.41833,-0.6156 -11.136696,11.94256 -11.136696,15.95449 z"
     style="fill:#000000;stroke:#fa0000;stroke-width:0.10000001;stroke-miterlimit:4;stroke-dasharray:none;stroke-opacity:1" />
  <path
     id="path962"
     d="m 58.76662,50.176607 v 0 0 c -2.68218,-7.33331 -7.24641,-12.16844 -13.42148,-14.04072 -4.87894,-1.47929 -10.51958,-1.67976 -15.08889,2.50132 0.65622,-5.39928 -2.99856,-8.89969 -6.79579,-10.7434 -4.70826,-2.28606 -11.28589,-1.40956 -15.6160496,1.63941 2.15109,-4.72179 7.3843196,-9.09053 12.3036596,-12.04854 7.68488,-4.620937 18.32317,-7.246733 25.63701,-8.1509774 -2.99499,0.8858874 -4.99314,3.2748454 -4.84804,5.7871474 0.13586,2.35228 2.85982,4.2395 5.13288,4.8599 2.60534,0.71109 5.92915,0.0401 7.89736,-1.80913 1.71716,-1.61334 2.14771,-5.461671 2.00442,-6.77833 v 0 c 0,0 0.58119,2.562043 2.79491,2.562043 2.21372,0 2.78486,-2.500707 2.78486,-2.500707 v 0 c -0.0761,1.17984 0.47112,5.322944 2.32879,6.871514 2.29171,1.9104 6.0657,2.35714 8.85571,1.30008 1.86608,-0.70701 3.891511,-2.58079 3.859881,-4.57606 -0.0415,-2.616687 -1.969391,-4.72687 -5.249671,-5.8378014 6.020891,0.7956464 16.517761,2.9832864 23.716341,6.9979814 5.747199,3.20525 11.708459,7.30028 14.703729,13.17329 -5.74919,-3.50297 -11.82521,-3.67313 -16.716129,-0.98351 -3.39407,1.86647 -6.23418,5.52565 -5.63685,10.16155 -3.65348,-3.46293 -9.34347,-4.06506 -13.857691,-2.72853 -6.58484,1.94958 -12.23481,6.44123 -14.78896,14.34347 z"
     style="fill:#000000;stroke:#fa0000;stroke-width:0.10000001;stroke-miterlimit:4;stroke-dasharray:none;stroke-opacity:1" />
  <path
     id="path970"
     d="m 58.772189,49.377116 v 0 0 c -2.85846,-3.89005 -7.0604,-7.02142 -11.62124,-8.54183 -4.61425,-1.53822 -9.71383,-1.9125 -14.59099,-0.14169 -2.88455,-4.48109 -6.82982,-6.58771 -11.22958,-7.70806 -4.73403,-1.20546 -11.31269,-0.29532 -14.5778196,1.50486 2.20721,-4.84332 7.6058496,-10.38199 12.8532796,-13.87763 6.31205,-4.20485 13.34979,-6.59899 21.36109,-7.836352 -1.8364,1.193882 -3.6343,3.304822 -2.93329,5.152692 1.17053,3.08551 6.15445,3.92311 9.37212,3.19026 2.63938,-0.60114 5.51873,-3.16735 5.79621,-5.68797 l 0.35619,-5.341087 2.78927,3.718987 c 0,0 1.57196,-0.636836 2.42476,-0.641181 0.8528,-0.0043 2.52877,0.641191 2.52877,0.641191 l 2.6394,-3.62214 0.53113,5.38583 c 1.33379,4.32829 4.01079,5.36669 7.01374,5.80444 2.8763,0.41928 7.087411,-0.6593 8.025521,-3.41046 0.63274,-1.8556 -0.7703,-3.72501 -2.88004,-5.128138 9.42552,1.411668 15.44704,3.841398 21.919549,8.194998 5.025591,3.38036 9.751231,8.46658 12.309881,13.36479 -3.92565,-1.66665 -10.08721,-2.64472 -14.916421,-1.37543 -4.300499,1.13032 -8.638239,3.75286 -10.964379,7.598 -3.5058,-1.19682 -9.25638,-1.41211 -13.576551,-0.0642 -4.90208,1.52947 -9.62341,4.36826 -12.6306,8.82017 z"
     style="fill:#000000;fill-opacity:1;stroke:#fa0000;stroke-width:0.10000001;stroke-miterlimit:4;stroke-dasharray:none;stroke-opacity:1" />
  <path
     id="path943"
     d="m 58.699229,45.701301 v 0 0 c -4.03649,-3.84275 -7.779261,-6.140019 -12.381002,-7.707309 -5.391392,-1.83624 -9.555341,-2.2769 -17.001654,-1.70107 -1.874971,-3.05652 -5.05071,-6.04443 -8.540452,-7.5447 -4.29816,-1.8478 -9.909315,-2.04509 -13.9806796,-1.24005 1.987419,-2.52893 5.6640916,-5.67708 8.8709096,-8.05996 2.945532,-2.18872 5.943644,-4.02689 9.439421,-5.66545 1.861656,2.26375 5.525438,4.8282 8.66951,6.67767 2.570905,1.51231 5.372553,2.64487 8.216782,3.5432 2.384697,0.75319 5.149366,1.32063 7.34576,1.5253 l 1.67634,-6.87959 1.247054,4.26942 h 6.438011 6.43416 l 1.27794,-4.45866 1.56837,7.06584 c 1.60569,-0.0593 4.61277,-0.70599 6.83579,-1.38714 3.16589,-0.97005 6.31163,-2.14725 9.17073,-3.81741 3.04173,-1.77684 5.52137,-3.5759 8.32965,-6.50386 2.91886,1.36371 5.95855,3.07793 8.659271,5.04364 3.55564,2.58795 6.3634,4.94933 9.82311,8.80721 -3.95997,-0.90975 -9.26848,-0.91056 -13.429771,0.75903 -3.75864,1.50804 -7.83818,4.90972 -9.24025,7.88869 -6.6418,-0.43828 -10.92692,-0.35679 -16.02839,1.28781 -4.96729,1.60134 -9.97203,4.508209 -13.40061,8.097399 z"
     style="fill:#000000;fill-opacity:1;stroke:#ff0000;stroke-width:0.10000001;stroke-miterlimit:4;stroke-dasharray:none;stroke-opacity:1" />
  <path
     id="path951"
     d="m 58.777068,50.156012 v 0 0 c -2.3528,-4.36809 -5.8834,-7.24871 -10.0508,-8.846259 -4.74472,-1.81886 -8.8585,-2.13495 -15.24337,-0.15839 -1.50879,-2.3884 -5.64644,-6.35545 -9.49355,-7.69367 -4.5761,-1.5918 -8.54675,-1.6823 -14.5341896,0.16769 1.2543696,-4.0749 5.6010796,-10.7151 10.0762896,-14.5657 5.05774,-4.35182 10.24021,-7.15304 17.97655,-8.80431 1.65407,3.73302 3.42712,5.89253 6.22829,7.58005 2.67131,1.60929 5.2948,2.1236 9.16665,1.87186 0,0 0.70767,-2.89489 0.93926,-4.36509 0.31616,-2.00707 0.61179,-6.0646704 0.61179,-6.0646704 l 1.85935,5.1513204 c 0,0 1.63776,-0.26816 2.46374,-0.26494 0.84232,0.003 2.5103,0.28976 2.5103,0.28976 l 1.82416,-5.2030004 c 0,0 0.34578,3.9657404 0.66144,5.9291804 0.25398,1.57981 0.98992,4.69711 0.98992,4.69711 4.56798,0.0695 7.25194,-0.78432 10.15962,-2.74711 2.38093,-1.60722 4.35204,-4.39106 5.19707,-6.87447 5.92481,0.95349 13.36688,4.74739 18.55916,9.32765 4.249712,3.74879 7.443702,8.38667 9.469882,14.11887 -4.08163,-1.7659 -9.433562,-1.86119 -13.822572,-0.45105 -4.09298,1.31503 -8.28409,4.92153 -10.23306,7.8499 -3.6962,-1.26136 -9.47576,-1.75003 -13.83777,-0.24813 -4.65671,1.603369 -8.95969,4.921709 -11.47816,9.303399 z"
     style="fill:#000000;fill-opacity:1;stroke:#ff0000;stroke-width:0.10000001;stroke-miterlimit:4;stroke-dasharray:none;stroke-opacity:1" />
  <path
     id="path960"
     d="m 58.77846,50.538158 v 0 0 c -0.88319,-3.2704 -5.0906,-9.31294 -9.65679,-11.10705 -4.54683,-1.78651 -9.32132,-3.37903 -14.57279,1.55593 -1.5604,-4.00598 -6.18536,-8.93594 -11.02011,-10.38868 -5.43395,-1.63278 -11.32046,-0.72093 -16.7703496,2.9154 2.02469,-5.06383 5.6802696,-11.12986 10.3787796,-14.9806 5.63442,-4.61778 10.9755,-7.43394 20.05914,-8.6756104 -1.72972,1.7122304 -1.95725,3.3738004 -1.41021,5.0254004 0.87641,2.64603 4.05932,4.00652 6.61871,5.11065 3.30584,1.42615 10.66812,1.68916 10.66812,1.68916 l 1.74935,-12.8801104 1.67697,6.4187104 c 0,0 1.50325,-0.47995 2.27918,-0.47357 0.82022,0.007 2.40074,0.54018 2.40074,0.54018 l 1.78357,-6.4831204 1.66054,12.8457004 c 0,0 6.20447,-0.0807 9.06272,-1.12848 3.06204,-1.12246 7.01057,-2.31178 8.19005,-5.35231 0.68614,-1.76877 0.81335,-3.3535 -1.41835,-5.5120304 7.64679,1.3771304 14.38386,4.0506604 19.99252,8.6656104 4.72121,3.88474 8.0004,8.96358 10.39879,15.1094 -4.46785,-3.45895 -11.00763,-4.46252 -16.31849,-2.9332 -4.99761,1.43911 -9.64184,5.88049 -11.53638,10.50412 -5.34542,-5.41015 -10.04059,-3.2431 -14.58499,-1.44933 -4.52928,1.78781 -8.66818,8.36523 -9.63072,10.98383 z"
     style="fill:#000000;fill-opacity:1;stroke:#ff0000;stroke-width:0.10000001;stroke-miterlimit:4;stroke-dasharray:none;stroke-opacity:1" />
  <path
     id="path974"
     d="m 58.787645,49.265165 v 0 0 c -2.26733,-5.20008 -7.19963,-9.749579 -12.63819,-11.207599 -3.71319,-0.99546 -7.78179,-1.08834 -11.29932,2.30952 -1.74876,-4.60878 -6.46759,-8.92856 -11.4061,-10.23299 -5.71734,-1.51015 -11.56701,-1.65962 -17.3327096,3.78076 2.10787,-6.15185 6.0411296,-11.44686 10.9011596,-15.46773 5.10312,-4.22199 11.32085,-6.73804 18.09796,-8.20169 -1.40158,1.4264 -1.49672,4.1522 -0.69635,5.99955 1.32214,3.05168 4.92746,4.70851 8.01725,5.93896 3.25265,1.29531 8.52221,1.40266 10.42721,1.26145 l 1.59083,-9.97372 1.48502,5.18953 c 0,0 1.87811,-0.72899 2.86261,-0.72708 0.98629,0.002 2.86497,0.7395 2.86497,0.7395 l 1.45779,-5.05295 1.70005,9.82967 c 3.13335,0.14123 7.50192,-0.0792 10.87989,-1.48928 2.89458,-1.20825 6.25471,-2.83647 7.46349,-5.73083 0.78458,-1.87863 0.68124,-4.35341 -0.7599,-6.06019 5.38189,0.75685 13.28872,4.18131 18.495775,8.54035 4.70884,3.94196 8.76035,9.53287 10.54513,15.10664 -5.79673,-5.33406 -11.724865,-5.19912 -17.461305,-3.63693 -4.88411,1.33007 -9.3694,5.68348 -11.24391,10.20722 -3.24036,-3.43486 -7.5222,-3.37857 -11.22227,-2.40597 -5.48385,1.44148 -10.75009,6.713629 -12.72908,11.283809 z"
     style="fill:#000000;fill-opacity:1;stroke:#ff0000;stroke-width:0.10000001;stroke-miterlimit:4;stroke-dasharray:none;stroke-opacity:1" />
  <path
     id="path979"
     d="m 58.710086,51.250202 v 0 h -2e-5 c -2.66889,-5.82698 -7.04193,-9.04329 -12.17906,-10.76765 -4.62825,-1.55354 -9.96783,-2.00928 -14.6035,1.11598 0.16332,-5.17953 -4.4116,-7.05942 -8.04426,-8.443 -5.32317,-2.02745 -12.75081,-0.95212 -17.0315196,1.39559 0.56953,-2.819 3.8430796,-10.82113 7.7075596,-14.83678 5.36056,-5.57025 10.53051,-9.25014 20.15545,-11.4728904 -2.7919,1.5469 -4.20461,4.9652204 -3.62327,7.7602004 0.64653,3.10843 4.24096,5.00606 7.13671,6.30798 4.43267,1.99291 10.13891,2.04909 14.47325,1.76279 l 1.9543,-10.06083 1.86427,5.57579 2.19007,-0.0438 2.39905,0.0438 1.81335,-5.61292 2.03806,10.08893 c 3.84974,0.20041 8.43423,0.40705 12.28001,-1.03686 3.43987,-1.29151 7.8725,-2.99715 8.88019,-6.5306 0.80649,-2.82795 1.20271,-4.55024 -3.28109,-8.1892704 9.55909,2.0351004 14.53994,5.7046604 19.842074,11.1255304 4.00627,4.09599 6.82591,9.96177 8.07236,15.1751 -3.08133,-2.03277 -10.934924,-3.50004 -16.030194,-1.78429 -4.00281,1.34789 -8.98783,3.75623 -9.18028,8.73364 -3.18943,-2.30122 -8.72936,-2.85144 -12.89813,-1.66268 -5.7625,1.64323 -10.99287,5.01831 -13.93538,11.35624 h -2e-5 z"
     style="fill:#000000;fill-opacity:1;stroke:#ff0000;stroke-width:0.10000001;stroke-miterlimit:4;stroke-dasharray:none;stroke-opacity:1" />
</svg>
