<?xml version="1.0" encoding="UTF-8" standalone="no"?>
<svg xmlns:dc="http://purl.org/dc/elements/1.1/" xmlns:cc="http://creativecommons.org/ns#" xmlns:rdf="http://www.w3.org/1999/02/22-rdf-syntax-ns#" xmlns:svg="http://www.w3.org/2000/svg" xmlns="http://www.w3.org/2000/svg" xmlns:sodipodi="http://sodipodi.sourceforge.net/DTD/sodipodi-0.dtd" xmlns:inkscape="http://www.inkscape.org/namespaces/inkscape" id="svg989" viewBox="0 0 1.88e+03 563" version="1.1" height="568mm" width="1.88e+03mm" sodipodi:docname="anim-fuller2-ordering.svg" inkscape:version="0.92.2 5c3e80d, 2017-08-06">
  <sodipodi:namedview pagecolor="#ffffff" bordercolor="#666666" borderopacity="1" objecttolerance="10" gridtolerance="10" guidetolerance="10" inkscape:pageopacity="0" inkscape:pageshadow="2" inkscape:window-width="984" inkscape:window-height="911" id="namedview860" showgrid="false" inkscape:zoom="0.118" inkscape:cx="3.55e+03" inkscape:cy="1.06e+03" inkscape:window-x="0" inkscape:window-y="0" inkscape:window-maximized="0" inkscape:current-layer="svg989" />
  <metadata id="metadata995">
    <rdf:RDF>
      <cc:Work rdf:about="">
        <dc:format>image/svg+xml</dc:format>
        <dc:type rdf:resource="http://purl.org/dc/dcmitype/StillImage" />
        <dc:title />
      </cc:Work>
    </rdf:RDF>
  </metadata>
  <defs id="defs993" />
  <path id="path2408" d="M 51.1,47.6 V 47.6 47.6 C 51.1,47.6 25.1,46.7 0.074,58.5 V 58.5 58.5 58.5 C 1.07,48.9 4.07,38.2 7.07,29.9 10.1,20.9 15.1,10.9 17.1,6.86 23.1,9.86 27.1,10.9 32.1,10.9 37.1,11.9 41.1,10.9 45.1,9.86 V 9.86 L 48.1,-0.14 49.1,2.86 C 49.1,2.86 51.1,2.86 51.1,2.86 52.1,2.86 53.1,2.86 53.1,2.86 L 55.1,-0.14 57.1,9.86 V 9.86 C 61.1,10.9 67.1,11.9 72.1,10.9 77.1,10.9 82.1,8.86 85.1,6.86 89.1,13.9 94.1,22.9 97.1,31.9 100,40.4 102,49.6 102,58.6 V 58.6 58.6 58.6 C 86.1,51.7 69.1,47.5 51.1,47.6 Z" style="fill:black;fill-opacity:1;stroke:#ff000b;stroke-width:0.1;stroke-miterlimit:4;stroke-dasharray:none;stroke-opacity:1" inkscape:connector-curvature="0" />
  <path id="path2434" d="M 171,53.7 V 53.7 53.7 C 167,48 157,42.7 148,41.3 139,39.7 128,38.9 120,41.1 V 41.1 41.1 C 123,35.2 126,29.9 130,25.9 135,19.9 142,11.9 147,9.86 152,14.9 158,15.9 164,16.9 V 16.9 C 167,16.9 167,14.9 167,12.9 L 165,5.86 168,12.9 C 168,12.9 170,11.9 171,11.9 172,11.9 174,11.9 174,11.9 L 175,5.86 V 12.9 C 176,13.9 176,15.9 176,16.9 V 16.9 C 184,16.9 190,13.9 195,9.86 200,11.9 207,19.9 212,25.9 216,29.9 221,37.8 222,41.3 V 41.3 41.3 C 217,39.7 203,39.1 194,41.3 185,43.3 177,46.9 171,53.7 Z" style="fill:black;fill-opacity:1;stroke:red;stroke-width:0.1;stroke-miterlimit:4;stroke-dasharray:none;stroke-opacity:1" inkscape:connector-curvature="0" />
  <path id="path3282" d="M 293,55.2 V 55.2 55.2 C 289,51.6 284,49.7 279,49.5 273,49.2 267,50.5 261,54.3 256,52.8 253,52.4 249,53 244,53.7 241,54.7 235,58.5 237,50.5 239,43.1 243,36 246,29.9 250,23.9 255,17.9 259,20.9 265,22.9 270,24.9 275,25.9 281,26.9 286,27.9 V 27.9 L 288,17.9 289,20.9 C 289,20.9 292,19.9 293,19.9 295,19.9 298,20.9 298,20.9 L 299,17.9 302,27.9 V 27.9 C 305,26.9 312,25.9 317,24.9 322,22.9 331,19.9 332,17.9 336,21.9 341,29.9 345,36.4 348,43.4 351,52.8 352,58.6 350,56.3 344,53.6 339,52.9 335,52.2 330,52.9 326,54.3 320,50.6 315,49.2 309,49.4 303,49.6 299,51.2 293,55.2 Z" style="fill:black;fill-opacity:1;stroke:#ff0008;stroke-width:0.1;stroke-miterlimit:4;stroke-dasharray:none;stroke-opacity:1" inkscape:connector-curvature="0" />
  <path id="path3273" d="M 431,63.5 V 63.5 63.5 C 429,60.8 423,57.3 418,56.4 413,55.4 406,56.3 402,58.7 401,57.1 396,54.8 392,54.3 388,53.8 384,54.6 380,56.2 380,56.2 383,44.7 385,39.2 387,33.9 391,23.9 391,23.9 391,23.9 398,25.9 401,25.9 405,26.9 409,27.9 412,27.9 414,28.9 418,28.9 418,28.9 L 421,22.9 423,28.9 C 423,28.9 428,28.9 431,28.9 433,28.9 438,28.9 438,28.9 L 441,22.9 444,28.9 C 444,28.9 449,27.9 451,27.9 455,27.9 458,26.9 462,25.9 465,25.9 471,23.9 471,23.9 471,23.9 475,33.6 477,38.6 479,44.3 481,56.2 481,56.2 478,54.6 474,53.8 470,54.2 466,54.7 462,56.4 460,58.7 454,55.9 449,55.3 444,56.2 439,57.1 433,60.8 431,63.5 Z" style="fill:black;fill-opacity:1;stroke:#ff0008;stroke-width:0.1;stroke-miterlimit:4;stroke-dasharray:none;stroke-opacity:1" inkscape:connector-curvature="0" />
  <path id="path944" d="M 543,60.6 V 60.6 60.6 C 542,53.1 538,49.5 533,47.4 528,45.4 522,46 518,49.5 516,47.1 513,43.3 509,42.5 504,41.5 499,42 495,46 497,41.9 502,36.5 506,32.9 511,28.9 518,24.9 522,22.9 522,22.9 527,24.9 530,25.9 532,26.9 535,28.9 537,29.9 539,30.9 543,34.4 543,34.4 V 34.4 34.4 34.4 34.4 34.4 34.4 C 543,34.4 547,30.9 549,29.9 552,28.9 554,27.9 556,25.9 559,24.9 564,22.9 564,22.9 568,24.9 575,28.9 580,31.9 585,36.3 590,43.2 591,46.1 588,43.2 584,41.4 579,42 575,42.6 571,45.4 569,49.5 565,46.6 559,45.4 555,47 549,49 545,51.6 543,60.6 Z" style="fill:black;fill-opacity:1;stroke:red;stroke-width:0.1;stroke-miterlimit:4;stroke-dasharray:none;stroke-opacity:1" inkscape:connector-curvature="0" />
  <path id="path943" d="M 643,64.3 V 64.3 64.3 C 639,60.5 636,58.2 631,56.6 626,54.8 621,54.3 614,54.9 612,51.9 609,48.9 605,47.4 601,45.5 596,45.3 591,46.1 593,43.6 597,40.5 600,38.1 603,35.9 606,34 610,32.9 612,34.7 615,37.2 618,39.1 621,40.6 624,41.7 627,42.6 629,43.4 632,44 634,44.2 L 636,37.3 637,41.5 H 643 650 L 651,37.1 653,44.2 C 654,44.1 657,43.4 659,42.8 663,41.8 666,40.6 669,38.9 672,37.2 674,35.4 677,32.9 680,33.8 683,35.5 686,37.5 689,40.1 692,42.4 695,46.3 692,45.4 686,45.4 682,47.1 678,48.6 674,52 673,54.9 666,54.5 662,54.6 657,56.2 652,57.8 647,60.7 643,64.3 Z" style="fill:black;fill-opacity:1;stroke:red;stroke-width:0.1;stroke-miterlimit:4;stroke-dasharray:none;stroke-opacity:1" inkscape:connector-curvature="0" />
  <path id="path3341" d="M 757,78.4 V 78.4 L 751,58.2 C 751,58.2 748,58.1 746,58.5 745,59 742,60.9 742,60.9 739,58.1 736,56.6 732,56.3 729,56 725,56.9 722,58.7 723,55.6 725,51.7 727,48.3 729,44.9 734,41.2 736,39.6 736,39.6 740,42.4 742,42.9 745,43.4 750,43 750,42.3 V 42.3 L 752,30.9 754,40.6 H 757 760 L 762,30.9 764,42.4 V 42.4 C 765,43.1 770,43.4 772,42.8 774,42.3 778,39.7 778,39.7 781,41 785,44.6 787,47.8 789,51 791,54 792,58.7 789,56.5 785,56.1 782,56.2 778,56.4 772,60.8 772,60.8 772,60.8 769,58.9 768,58.5 766,58 763,58.2 763,58.2 Z" style="fill:black;fill-opacity:1;stroke:#ff0008;stroke-width:0.1;stroke-miterlimit:4;stroke-dasharray:none;stroke-opacity:1" inkscape:connector-curvature="0" />
  <path id="path3363" d="M 873,68.3 C 872,65.8 871,61.1 868,60.4 865,59.7 861,62.5 859,65.8 859,62.4 859,58.3 856,56.9 853,55.5 848,58 845,62.2 845,59.5 845,54.8 841,53.5 836,52.3 828,58.5 824,65.5 825,58.4 829,51.3 834,45.8 838,40.3 845,35.4 850,32.9 850,34.9 853,37.6 854,39.7 856,41.5 858,43 860,44.4 862,45.4 865,47.1 865,47.1 865,41.5 866,39 867,36.8 867,39.5 867,42.2 868,44.9 868,44.9 870,43.2 873,43.1 875,43.1 878,44.9 878,44.9 878,42.2 878,39.5 878,36.8 880,40 881,42.7 880,46.9 880,46.9 884,45.4 885,44.4 887,43.1 889,41.8 891,40.2 893,37.9 895,34.2 896,32.9 902,35.6 908,41.1 912,46.5 917,52 920,58 922,65.9 918,58.6 910,52.3 905,53.7 901,54.4 900,57.1 901,62.3 898,58.5 894,55.6 890,56.6 887,57.5 886,61.9 886,65.8 883,61.3 881,60 878,60.4 875,60.8 873,65.8 873,68.3 Z" style="fill:black;fill-opacity:1;stroke:#ff0008;stroke-width:0.1;stroke-miterlimit:4;stroke-dasharray:none;stroke-opacity:1" inkscape:connector-curvature="0" />
  <path id="path3242" d="M 972,80.3 V 80.3 80.3 C 970,76.2 967,71.9 962,68.4 959,66.1 952,69.2 948,71.1 946,68.1 943,62.1 941,62.4 934,61.8 928,63.6 922,65.9 L 933,56 944,45.3 C 947,47.8 951,49.3 955,50.7 959,51.9 963,53.1 966,53.1 L 967,47.8 968,40.7 971,47.8 H 972 974 L 976,40.8 977,47.8 978,53 C 981,53.1 985,52 989,50.9 993,49.5 999,46.3 1000,45.4 L 1010,55 1020,65.8 C 1010,61.9 1000,61.8 1000,62.5 1000,63.5 996,71.1 996,71.1 991,68.6 984,66.5 983,68.4 979,70.9 975,75.5 972,80.3 Z" style="fill:black;fill-opacity:1;stroke:#ff0008;stroke-width:0.1;stroke-miterlimit:4;stroke-dasharray:none;stroke-opacity:1" inkscape:connector-curvature="0" />
  <path id="path2113" d="M 1060,80.2 1050,69.8 1040,74.3 1040,67.1 1030,72.4 1020,65.8 1010,69.8 V 69.8 L 1040,38.3 1040,45.9 1050,47.5 1050,49.5 1060,42.7 1060,45.6 H 1060 1060 L 1070,42.7 1070,49.5 1080,47.7 1090,45.9 1090,38.3 1110,69.8 V 69.8 L 1100,65.8 1100,72.4 1090,67.1 1080,74.3 1070,69.8 Z" style="fill:black;fill-opacity:1;stroke:#ff000b;stroke-width:0.1;stroke-miterlimit:4;stroke-dasharray:none;stroke-opacity:1" inkscape:connector-curvature="0" />
  <path id="path926" d="M 1160,81.4 V 81.4 81.4 C 1160,72 1160,66.7 1150,63.6 1140,61 1140,61.6 1130,64.9 1130,62.6 1130,60.4 1130,60.2 1120,59.8 1120,63.6 1110,69.8 1110,66.2 1120,58 1120,53.3 1130,47.6 1130,43.4 1140,39.8 L 1140,45.4 1150,46.8 1160,48.3 1160,42.5 1160,45.4 H 1160 1170 L 1170,42.6 1170,48.3 1180,47 1180,45.4 1180,39.8 C 1190,41.9 1200,47.5 1200,53.1 1210,58 1210,67.1 1220,70.4 1210,65.7 1210,59.7 1200,60.2 1200,60.4 1200,61.6 1200,64.9 1190,62.1 1180,61.1 1180,63.1 1170,65.9 1170,70.6 1160,81.4 Z" style="fill:black;stroke:#fa0000;stroke-width:0.1;stroke-miterlimit:4;stroke-dasharray:none;stroke-opacity:1" inkscape:connector-curvature="0" />
  <path id="path966" d="M 1270,91.6 V 91.6 91.6 C 1270,82.1 1260,75.3 1260,73.7 1250,72.5 1240,77.6 1240,82 1240,74.3 1240,67.6 1230,64.9 1230,62.2 1220,63.9 1220,70.1 1220,59.2 1220,52.3 1230,45.8 1230,38.6 1240,34.2 1250,31.9 1250,34 1240,36.9 1240,40.6 1250,46.1 1260,47.3 1260,47.1 1260,45.6 1260,44 1260,42.5 1260,40.6 1260,38.7 1260,36.8 L 1260,39.9 H 1270 1270 L 1270,36.8 C 1270,38.7 1270,40.6 1270,42.5 1270,44 1270,45.5 1270,47 1280,47.1 1290,46.4 1290,41.1 1290,37.4 1290,34.5 1280,31.9 1290,33.2 1300,38.2 1310,44.9 1310,51.5 1320,59.5 1320,70.2 1310,66.6 1310,62 1300,63.9 1300,66.3 1290,71.6 1290,81.9 1290,77.6 1280,72.4 1280,73.6 1270,75.1 1270,82.3 1270,91.6 Z" style="fill:black;stroke:red;stroke-width:0.1;stroke-miterlimit:4;stroke-dasharray:none;stroke-opacity:1" inkscape:connector-curvature="0" />
  <path id="path962" d="M 1390,90.9 V 90.9 90.9 C 1390,83.6 1380,78.8 1380,76.9 1370,75.4 1370,75.2 1360,79.4 1360,74 1360,70.5 1360,68.7 1350,66.4 1340,67.2 1340,70.3 1340,65.6 1350,61.2 1350,58.2 1360,53.6 1370,51 1380,50.1 1380,51 1370,53.4 1370,55.9 1370,58.2 1380,60.1 1380,60.7 1380,61.5 1380,60.8 1390,58.9 1390,57.3 1390,53.5 1390,52.2 V 52.2 C 1390,52.2 1390,54.7 1390,54.7 1390,54.7 1390,52.2 1390,52.2 V 52.2 C 1390,53.4 1390,57.5 1400,59.1 1400,61 1400,61.4 1410,60.4 1410,59.7 1410,57.8 1410,55.8 1410,53.2 1410,51.1 1400,50 1410,50.8 1420,53 1430,57 1430,60.2 1440,64.3 1440,70.1 1440,66.6 1430,66.5 1430,69.2 1420,71 1420,74.7 1420,79.3 1420,75.9 1410,75.3 1410,76.6 1400,78.5 1390,83 1390,90.9 Z" style="fill:black;stroke:#fa0000;stroke-width:0.1;stroke-miterlimit:4;stroke-dasharray:none;stroke-opacity:1" inkscape:connector-curvature="0" />
  <path id="path970" d="M 1490,85 V 85 85 C 1490,81.1 1490,78 1480,76.5 1480,75 1470,74.6 1470,76.3 1470,71.9 1460,69.8 1460,68.6 1450,67.4 1450,68.3 1440,70.1 1440,65.3 1450,59.8 1460,56.3 1460,52.1 1470,49.7 1480,48.4 1470,49.6 1470,51.7 1470,53.6 1470,56.7 1480,57.5 1480,56.8 1490,56.2 1490,53.6 1490,51.1 L 1490,45.7 1490,49.5 C 1490,49.5 1490,48.8 1490,48.8 1500,48.8 1500,49.5 1500,49.5 L 1500,45.8 1500,51.2 C 1500,55.6 1500,56.6 1510,57 1510,57.5 1510,56.4 1520,53.6 1520,51.8 1510,49.9 1510,48.5 1520,49.9 1530,52.3 1530,56.7 1540,60.1 1540,65.2 1550,70.1 1540,68.4 1540,67.4 1530,68.7 1530,69.8 1520,72.4 1520,76.3 1520,75.1 1510,74.9 1510,76.2 1500,77.7 1500,80.6 1490,85 Z" style="fill:black;fill-opacity:1;stroke:#fa0000;stroke-width:0.1;stroke-miterlimit:4;stroke-dasharray:none;stroke-opacity:1" inkscape:connector-curvature="0" />
  <path id="path974" d="M 1620,90.3 V 90.3 90.3 C 1620,85.1 1620,80.5 1610,79.1 1610,78.1 1600,78 1600,81.4 1600,76.8 1590,72.5 1590,71.2 1580,69.6 1580,69.5 1570,74.9 1570,68.8 1580,63.5 1580,59.5 1590,55.2 1590,52.7 1600,51.3 1600,52.7 1600,55.4 1600,57.3 1600,60.3 1600,62 1610,63.2 1610,64.5 1620,64.6 1620,64.5 L 1620,54.5 1620,59.7 C 1620,59.7 1620,59 1620,59 1620,59 1630,59.7 1630,59.7 L 1630,54.6 1630,64.5 C 1630,64.6 1640,64.4 1640,63 1640,61.8 1650,60.1 1650,57.3 1650,55.4 1650,52.9 1650,51.2 1650,51.9 1660,55.4 1670,59.7 1670,63.7 1670,69.3 1680,74.8 1670,69.5 1660,69.6 1660,71.2 1650,72.5 1650,76.9 1650,81.4 1640,78 1640,78 1640,79 1630,80.4 1630,85.7 1620,90.3 Z" style="fill:black;fill-opacity:1;stroke:red;stroke-width:0.1;stroke-miterlimit:4;stroke-dasharray:none;stroke-opacity:1" inkscape:connector-curvature="0" />
  <path id="path979" d="M 1730,91.5 V 91.5 91.5 C 1730,85.7 1720,82.5 1720,80.8 1710,79.2 1710,78.8 1700,81.9 1700,76.7 1700,74.8 1690,73.4 1690,71.4 1680,72.5 1680,74.8 1680,72 1680,64 1680,60 1690,54.4 1690,50.8 1700,48.5 1700,50.1 1700,53.5 1700,56.3 1700,59.4 1700,61.3 1710,62.6 1710,64.6 1720,64.6 1720,64.4 L 1720,54.3 1730,59.9 1730,59.8 1730,59.9 1730,54.3 1730,64.3 C 1740,64.6 1740,64.8 1750,63.3 1750,62 1750,60.3 1760,56.8 1760,54 1760,52.2 1750,48.6 1760,50.6 1770,54.3 1770,59.7 1780,63.8 1780,69.7 1780,74.9 1780,72.9 1770,71.4 1760,73.1 1760,74.5 1750,76.9 1750,81.8 1750,79.5 1750,79 1740,80.2 1740,81.8 1730,85.2 1730,91.5 Z" style="fill:black;fill-opacity:1;stroke:red;stroke-width:0.1;stroke-miterlimit:4;stroke-dasharray:none;stroke-opacity:1" inkscape:connector-curvature="0" />
  <path id="path960" d="M 1830,103 V 103 103 C 1830,99.9 1830,93.8 1820,92 1820,90.3 1810,88.7 1800,93.6 1800,89.6 1800,84.7 1790,83.2 1790,81.6 1780,82.5 1780,86.1 1780,81.1 1780,75 1790,71.1 1790,66.5 1800,63.7 1810,62.5 1800,64.2 1800,65.8 1800,67.5 1810,70.1 1810,71.5 1810,72.6 1820,74 1830,74.3 1830,74.3 V 61.4 67.8 C 1830,67.8 1830,67.3 1830,67.4 1830,67.4 1830,67.9 1830,67.9 L 1840,61.4 V 74.3 C 1840,74.3 1840,74.2 1850,73.1 1850,72 1850,70.8 1850,67.8 1850,66 1850,64.4 1850,62.3 1860,63.6 1870,66.3 1870,70.9 1880,74.8 1880,79.9 1880,86 1880,82.6 1870,81.6 1870,83.1 1860,84.5 1860,89 1860,93.6 1850,88.2 1850,90.4 1840,92.2 1840,93.9 1830,100 1830,103 Z" style="fill:black;fill-opacity:1;stroke:red;stroke-width:0.1;stroke-miterlimit:4;stroke-dasharray:none;stroke-opacity:1" inkscape:connector-curvature="0" />
  <path id="path951" d="M 1820,160 V 160 160 C 1820,156 1820,153 1810,151 1810,149 1800,149 1800,151 1800,149 1790,145 1790,143 1780,142 1780,142 1770,144 1770,140 1780,133 1780,129 1790,125 1790,122 1800,120 1800,124 1800,126 1810,128 1810,129 1820,130 1820,130 1820,130 1820,127 1820,125 1820,123 1820,119 1820,119 V 124 C 1820,124 1820,124 1820,124 1830,124 1830,124 1830,124 V 119 C 1830,119 1830,123 1830,125 1830,127 1830,130 1830,130 1840,130 1840,129 1840,127 1840,126 1850,123 1850,120 1850,121 1860,125 1860,130 1870,133 1870,138 1870,144 1870,142 1860,142 1860,143 1860,145 1850,148 1850,151 1850,150 1840,149 1840,151 1830,152 1830,156 1820,160 Z" style="fill:black;fill-opacity:1;stroke:red;stroke-width:0.1;stroke-miterlimit:4;stroke-dasharray:none;stroke-opacity:1" inkscape:connector-curvature="0" />
  <path id="path3312" d="M 1820,213 V 213 213 C 1820,209 1820,204 1820,203 1810,202 1810,203 1800,206 1800,202 1800,199 1800,198 1790,198 1790,199 1790,204 1790,202 1790,197 1790,191 1790,185 1790,180 1800,178 V 178 C 1800,183 1800,185 1810,184 1810,184 1820,182 1820,177 V 177 177 C 1820,177 1820,181 1820,181 1830,181 1830,177 1830,177 V 177 177 177 C 1830,183 1840,185 1840,185 1840,185 1850,181 1850,178 1850,181 1860,187 1860,193 1860,197 1860,201 1850,204 1850,203 1850,199 1850,198 1850,198 1840,199 1840,205 1840,203 1830,202 1830,203 1830,205 1830,209 1820,213 Z" style="fill:black;fill-opacity:1;stroke:#ff0008;stroke-width:0.1;stroke-miterlimit:4;stroke-dasharray:none;stroke-opacity:1" inkscape:connector-curvature="0" />
  <path id="path3370" d="M 1820,251 V 251 251 C 1820,246 1820,242 1810,241 1810,241 1810,244 1800,247 1800,243 1800,238 1800,238 1790,238 1790,244 1790,248 1790,245 1790,236 1790,229 1790,224 1800,218 1800,216 1800,221 1800,222 1810,222 1810,223 1820,222 1820,221 V 221 214 217 217 217 213 L 1830,221 V 221 C 1830,222 1830,223 1830,222 1840,221 1840,219 1840,216 1840,220 1850,225 1850,231 1850,237 1850,242 1850,248 1850,243 1850,239 1840,238 1840,238 1840,240 1830,247 1830,245 1830,241 1830,241 1820,242 1820,248 1820,251 Z" style="fill:black;fill-opacity:1;stroke:#ff0008;stroke-width:0.1;stroke-miterlimit:4;stroke-dasharray:none;stroke-opacity:1" inkscape:connector-curvature="0" />
  <path id="path954" d="M 1830,298 V 298 298 C 1830,298 1830,280 1820,279 1820,279 1820,284 1820,284 1820,284 1810,277 1810,277 1810,277 1800,285 1800,287 1800,282 1800,275 1800,268 1800,261 1800,253 1800,248 1810,251 1810,254 1820,256 1820,257 1820,259 1820,258 1830,258 1830,256 1830,256 1820,252 1820,249 1830,246 V 250 250 250 246 C 1830,250 1830,253 1830,256 1830,256 1830,258 1830,258 1830,259 1840,257 1840,256 1840,254 1850,250 1850,248 1850,252 1850,261 1850,267 1850,274 1850,283 1850,287 1850,284 1850,277 1840,277 1840,277 1840,282 1840,285 1840,285 1840,279 1840,279 1830,280 1830,298 1830,298 Z" style="fill:black;stroke:red;stroke-width:0.1;stroke-miterlimit:4;stroke-dasharray:none;stroke-opacity:1" inkscape:connector-curvature="0" />
  <path id="path3300" d="M 1820,349 V 349 349 C 1820,345 1820,333 1820,332 1820,331 1810,337 1810,341 1810,341 1810,331 1800,332 1800,332 1800,345 1800,345 1790,336 1790,327 1790,318 1790,309 1790,297 1800,292 1800,297 1800,298 1800,300 1810,302 1810,304 1810,306 1820,307 1820,308 1820,308 V 298 301 301 H 1830 V 298 308 C 1830,308 1830,307 1840,305 1840,304 1840,302 1840,299 1850,297 1850,295 1850,292 1850,297 1860,309 1860,318 1860,327 1850,338 1850,345 1850,343 1850,332 1840,332 1840,331 1840,341 1840,341 1840,340 1840,332 1830,332 1830,331 1830,345 1820,349 Z" style="fill:black;fill-opacity:1;stroke:#ff0008;stroke-width:0.1;stroke-miterlimit:4;stroke-dasharray:none;stroke-opacity:1" inkscape:connector-curvature="0" />
  <path id="path942" d="M 1820,398 C 1820,395 1810,389 1810,389 1810,389 1800,391 1800,393 1800,391 1800,390 1800,390 1800,390 1790,394 1790,395 1790,394 1790,393 1790,394 1790,396 1790,402 1790,405 1780,399 1780,392 1780,385 1780,379 1780,375 1780,369 1790,371 1790,373 1790,375 1800,376 1800,376 1810,376 1810,376 1810,373 1810,372 1810,370 1810,365 1810,365 L 1820,367 V 367 367 365 C 1820,365 1820,370 1820,372 1820,373 1830,376 1830,376 1830,376 1840,376 1840,375 1840,374 1850,372 1850,369 1850,372 1850,379 1850,385 1850,392 1850,400 1850,405 1850,402 1850,397 1840,394 1840,393 1840,394 1840,395 1840,393 1840,391 1830,390 1830,390 1830,391 1830,393 1830,391 1830,389 1830,389 1820,389 1820,395 1820,398 Z" style="fill:black;stroke:red;stroke-width:0.1;stroke-miterlimit:4;stroke-dasharray:none;stroke-opacity:1" inkscape:connector-curvature="0" />
  <path id="path955" d="M 1810,469 C 1810,465 1810,452 1800,453 1800,453 1800,460 1800,463 1800,459 1790,455 1790,456 1790,457 1780,461 1780,464 1780,463 1780,461 1780,462 1770,464 1770,467 1770,470 1770,463 1770,454 1770,446 1770,437 1770,427 1770,420 1780,423 1780,426 1780,429 1780,429 1790,432 1790,433 1800,434 1800,435 1800,435 L 1810,423 1810,425 V 425 H 1820 V 423 435 C 1820,435 1830,434 1830,433 1830,432 1840,430 1840,428 1850,426 1850,421 1850,421 1860,429 1860,437 1860,446 1860,454 1860,463 1850,470 1850,466 1850,464 1850,463 1850,461 1840,462 1840,464 1840,461 1840,457 1840,456 1830,455 1830,459 1830,463 1830,460 1830,453 1830,453 1820,452 1810,465 1810,469 Z" style="fill:black;stroke:#fa0000;stroke-width:0.1;stroke-miterlimit:4;stroke-dasharray:none;stroke-opacity:1" inkscape:connector-curvature="0" />
  <path id="path1886" d="M 1720,544 V 544 544 C 1720,540 1720,531 1710,530 1710,529 1710,533 1710,536 1710,533 1700,524 1700,527 1690,530 1700,538 1700,541 1690,538 1690,530 1690,523 1690,512 1700,504 1710,502 1710,504 1700,509 1700,512 1700,515 1710,517 1710,516 1710,516 1720,511 1720,511 1720,508 1720,505 1720,502 L 1720,506 H 1720 1720 L 1720,502 C 1720,505 1720,508 1720,511 1720,511 1720,515 1730,516 1730,517 1740,515 1740,512 1740,508 1730,504 1730,502 1740,506 1750,515 1750,524 1750,532 1750,539 1740,541 1740,539 1750,530 1740,527 1740,524 1730,533 1730,536 1730,534 1730,530 1730,530 1720,530 1720,540 1720,544 Z" style="fill:black;fill-opacity:1;stroke:#ff000b;stroke-width:0.1;stroke-miterlimit:4;stroke-dasharray:none;stroke-opacity:1" inkscape:connector-curvature="0" />
  <path id="path3322" d="M 1640,550 V 550 550 C 1630,541 1630,538 1630,538 1630,539 1630,543 1630,545 1630,542 1620,534 1610,537 1610,541 1620,547 1620,552 1610,549 1600,542 1600,531 1600,521 1610,513 1630,510 1620,510 1620,515 1620,520 1620,524 1630,524 1630,523 1630,521 1630,519 1630,517 V 510 L 1630,513 H 1640 1640 L 1640,510 1640,517 C 1640,519 1640,521 1640,523 1640,525 1650,524 1650,520 1650,516 1650,511 1650,510 1660,512 1670,520 1670,531 1670,541 1660,549 1650,552 1660,547 1660,541 1660,538 1650,534 1650,540 1640,545 1640,542 1640,539 1640,538 1640,538 1640,545 1640,550 Z" style="fill:black;fill-opacity:1;stroke:#ff0008;stroke-width:0.1;stroke-miterlimit:4;stroke-dasharray:none;stroke-opacity:1" inkscape:connector-curvature="0" />
  <path id="path3329" d="M 1550,557 V 557 557 C 1550,548 1550,542 1540,541 1540,540 1540,540 1540,546 1540,541 1530,535 1530,536 1530,537 1520,541 1530,549 1520,546 1520,540 1520,534 1520,524 1530,517 1540,513 1530,518 1530,522 1540,525 1540,528 1550,527 1550,523 V 523 L 1550,513 1550,517 H 1550 1550 L 1560,513 1560,523 V 523 C 1560,528 1570,527 1570,524 1570,522 1570,518 1560,513 1580,518 1590,525 1590,535 1590,540 1580,546 1580,549 1580,542 1580,537 1570,536 1570,535 1570,542 1570,546 1570,542 1560,540 1560,541 1560,542 1550,548 1550,557 Z" style="fill:black;fill-opacity:1;stroke:#ff0008;stroke-width:0.1;stroke-miterlimit:4;stroke-dasharray:none;stroke-opacity:1" inkscape:connector-curvature="0" />
  <path id="path3352" d="M 1460,552 V 552 552 C 1460,550 1460,542 1450,542 1450,542 1450,542 1450,546 1450,544 1440,540 1440,542 1440,543 1440,548 1440,550 1440,548 1430,544 1430,537 1430,529 1450,525 1450,524 1450,525 1450,527 1450,528 1450,531 1460,530 1460,530 V 530 L 1460,523 V 531 H 1460 1470 V 523 L 1470,530 V 530 C 1470,530 1480,531 1480,528 1480,527 1480,526 1480,524 1480,525 1500,529 1500,538 1500,544 1490,549 1480,550 1490,549 1490,544 1490,542 1490,539 1480,545 1480,546 1480,544 1480,542 1480,542 1470,541 1470,550 1460,552 Z" style="fill:black;fill-opacity:1;stroke:#ff0008;stroke-width:0.1;stroke-miterlimit:4;stroke-dasharray:none;stroke-opacity:1" inkscape:connector-curvature="0" />
  <path id="path3315" d="M 1360,558 V 558 558 C 1360,555 1350,549 1350,549 1350,548 1340,550 1340,552 1340,549 1340,547 1330,549 1330,552 1330,555 1330,558 1330,556 1310,549 1320,538 1320,528 1330,522 1340,519 1340,523 1340,526 1340,529 1340,531 1350,533 1350,529 V 529 L 1350,517 1360,522 H 1360 1360 L 1360,517 1370,529 V 529 C 1370,532 1370,532 1380,529 1380,526 1380,523 1380,519 1390,523 1400,530 1400,539 1400,549 1390,554 1380,558 1390,554 1390,551 1380,549 1380,547 1380,549 1370,552 1370,551 1370,548 1370,549 1370,549 1360,552 1360,558 Z" style="fill:black;fill-opacity:1;stroke:#ff0008;stroke-width:0.1;stroke-miterlimit:4;stroke-dasharray:none;stroke-opacity:1" inkscape:connector-curvature="0" />
  <path id="path3336" d="M 1250,567 V 567 567 C 1250,561 1250,554 1240,552 1240,550 1230,551 1230,557 1230,554 1220,551 1220,546 1220,549 1220,553 1220,558 1210,556 1200,548 1200,540 1200,529 1210,522 1230,517 1220,521 1220,522 1230,525 1230,528 1240,532 1240,531 V 531 L 1250,522 1250,526 C 1250,525 1250,524 1250,524 1260,524 1260,525 1260,526 L 1260,522 1260,531 V 531 C 1270,531 1280,527 1280,524 1280,521 1280,519 1280,516 1290,521 1300,530 1300,540 1300,549 1300,556 1290,558 1290,553 1290,549 1280,546 1280,549 1280,551 1280,558 1270,550 1270,550 1260,552 1260,554 1250,563 1250,567 Z" style="fill:black;fill-opacity:1;stroke:#ff0008;stroke-width:0.1;stroke-miterlimit:4;stroke-dasharray:none;stroke-opacity:1" inkscape:connector-curvature="0" />
  <path id="path3307" d="M 1130,558 V 558 558 C 1130,554 1120,549 1120,550 1120,550 1120,551 1120,553 1120,551 1110,549 1110,550 1110,552 1110,555 1110,558 1110,556 1100,548 1100,540 1100,531 1110,524 1120,520 1120,522 1120,524 1110,526 1120,527 1120,528 1130,528 V 528 C 1130,523 1130,521 1130,521 V 524 C 1130,524 1130,523 1130,523 1140,523 1140,525 1140,525 V 521 C 1140,523 1140,525 1140,528 V 528 C 1150,528 1150,528 1150,526 1150,524 1150,522 1150,520 1160,523 1170,530 1170,539 1170,547 1160,554 1150,558 1150,558 1160,552 1160,550 1160,549 1150,553 1150,553 1150,553 1150,550 1150,550 1150,549 1130,558 1130,558 Z" style="fill:black;fill-opacity:1;stroke:#ff0008;stroke-width:0.1;stroke-miterlimit:4;stroke-dasharray:none;stroke-opacity:1" inkscape:connector-curvature="0" />
  <path id="path3293" d="M 1040,553 V 553 553 C 1040,551 1040,548 1030,547 1030,547 1030,549 1030,551 1020,549 1020,548 1020,550 1010,551 1010,554 1010,557 1010,552 1000,544 1000,536 1000,526 1010,516 1020,513 1020,513 1020,514 1020,517 1020,520 1030,521 1030,521 V 521 511 L 1040,518 C 1040,518 1040,517 1040,517 1040,517 1040,518 1040,518 L 1050,511 V 521 521 C 1050,521 1060,520 1060,517 1060,514 1060,513 1060,513 1070,516 1080,526 1080,536 1080,544 1070,553 1070,557 1070,554 1070,551 1060,550 1060,548 1060,549 1060,551 1060,549 1050,547 1050,547 1040,548 1040,550 1040,553 Z" style="fill:black;fill-opacity:1;stroke:#ff0008;stroke-width:0.1;stroke-miterlimit:4;stroke-dasharray:none;stroke-opacity:1" inkscape:connector-curvature="0" />
  <path id="path3260" d="M 946,551 V 551 551 C 945,549 942,545 939,546 937,546 937,550 938,551 936,550 931,547 928,549 927,550 927,552 928,554 919,548 916,542 916,534 916,527 921,519 927,516 927,518 929,520 930,521 933,523 935,523 938,523 V 523 C 938,520 940,518 941,516 V 519 H 946 950 V 516 C 952,518 954,521 954,523 V 523 C 954,523 959,523 961,521 963,520 965,519 965,516 971,518 976,527 976,534 976,542 972,548 963,554 965,551 965,550 963,549 961,547 955,550 954,552 955,550 955,547 953,546 950,545 947,549 946,551 Z" style="fill:black;fill-opacity:1;stroke:#ff0008;stroke-width:0.1;stroke-miterlimit:4;stroke-dasharray:none;stroke-opacity:1" inkscape:connector-curvature="0" />
  <path id="path3251" d="M 870,561 V 561 561 C 868,555 865,550 862,546 861,548 861,552 860,555 858,552 856,551 853,549 854,554 855,559 858,563 846,558 841,547 841,537 841,527 845,518 854,513 854,513 856,517 858,519 860,521 864,524 864,524 L 864,519 866,508 868,513 H 870 872 L 873,508 875,519 876,524 C 876,524 880,521 882,519 883,517 886,513 886,513 893,517 899,528 899,537 898,547 893,558 881,563 884,559 886,554 886,549 884,551 881,553 879,555 879,552 878,549 877,546 873,551 871,556 870,561 Z" style="fill:black;fill-opacity:1;stroke:#ff0008;stroke-width:0.1;stroke-miterlimit:4;stroke-dasharray:none;stroke-opacity:1" inkscape:connector-curvature="0" />
  <path id="path958" d="M 803,555 C 803,555 802,549 801,546 800,543 798,541 796,540 794,539 791,539 789,539 787,540 786,541 786,545 785,548 787,552 789,555 792,558 798,562 798,562 785,559 777,548 777,537 777,526 785,514 798,511 788,514 783,526 785,531 786,535 795,535 798,535 801,534 800,533 800,533 L 801,526 802,532 H 803 805 L 805,526 806,533 C 806,533 807,534 810,535 814,535 820,535 822,532 824,528 820,515 809,511 822,514 830,526 830,537 829,548 822,559 809,562 809,562 815,558 817,555 819,552 821,549 821,545 821,543 820,541 819,540 817,539 815,539 812,539 810,540 807,543 806,545 804,548 803,555 803,555 Z" style="fill:black;fill-opacity:1;stroke:red;stroke-width:0.1;stroke-miterlimit:4;stroke-dasharray:none;stroke-opacity:1" inkscape:connector-curvature="0" />
  <path id="path2169" d="M 732,568 V 568 568 C 731,557 728,546 720,545 717,544 713,545 712,551 V 551 551 C 705,547 701,542 701,534 702,526 709,517 720,518 718,519 716,523 719,526 720,527 723,528 725,527 726,526 727,525 728,523 729,522 729,517 729,517 L 730,520 H 732 733 L 734,517 C 734,517 734,521 735,524 736,525 737,526 738,527 740,527 743,527 745,525 747,523 747,520 743,518 755,517 761,526 762,535 762,540 759,548 751,551 V 551 551 C 750,543 744,544 742,545 736,547 732,557 732,568 Z" style="fill:black;fill-opacity:1;stroke:#ff000b;stroke-width:0.1;stroke-miterlimit:4;stroke-dasharray:none;stroke-opacity:1" inkscape:connector-curvature="0" />
  <path id="path963" d="M 638,558 635,551 C 634,545 632,542 629,538 626,536 623,534 620,533 615,532 610,532 606,534 602,536 599,540 597,543 595,546 595,550 595,552 593,543 596,534 601,529 607,523 615,520 625,521 625,521 621,522 620,523 620,525 623,527 625,529 628,530 633,531 635,531 L 636,523 V 527 H 638 639 L 640,523 641,531 C 642,531 648,530 651,529 653,528 656,526 656,524 655,522 654,522 651,521 660,520 669,523 675,529 681,535 683,544 681,552 681,552 681,546 679,543 677,540 674,536 671,535 667,532 661,532 657,533 653,533 650,535 647,538 644,542 642,546 641,551 Z" style="fill:black;fill-opacity:1;stroke:red;stroke-width:0.1;stroke-miterlimit:4;stroke-dasharray:none;stroke-opacity:1" inkscape:connector-curvature="0" />
  <path id="path946" d="M 518,555 V 555 555 C 516,544 514,534 506,531 502,530 498,533 496,536 496,529 493,526 489,523 480,517 468,515 459,516 469,511 475,510 483,508 491,507 500,507 507,508 506,508 503,511 503,514 503,517 507,520 509,520 512,520 513,518 513,518 L 514,506 515,510 C 515,510 517,510 518,510 519,510 521,510 521,510 V 506 L 522,518 C 522,518 523,521 527,520 530,519 532,516 532,513 532,511 528,508 528,508 534,507 544,507 552,508 561,510 565,510 576,516 570,516 556,517 548,522 544,525 540,528 539,536 537,533 534,530 530,531 521,534 519,544 518,555 Z" style="fill:black;stroke:#fa0000;stroke-width:0.1;stroke-miterlimit:4;stroke-dasharray:none;stroke-opacity:1" inkscape:connector-curvature="0" />
  <path id="path934" d="M 388,544 V 544 544 C 387,539 383,535 379,532 371,527 361,528 350,528 351,523 351,520 349,517 346,512 340,509 335,506 H 354 370 C 371,508 371,511 373,513 376,515 380,515 383,515 384,515 384,514 384,514 L 385,508 386,512 C 386,512 388,512 388,512 389,512 391,512 391,512 L 392,508 V 514 C 392,514 392,515 394,515 395,515 401,515 403,513 405,512 406,510 406,506 H 422 442 C 442,506 432,511 429,516 426,519 425,523 426,528 419,527 407,527 399,532 394,534 391,537 388,544 Z" style="fill:black;stroke:#fa0000;stroke-width:0.1;stroke-miterlimit:4;stroke-dasharray:none;stroke-opacity:1" inkscape:connector-curvature="0" />
  <path id="path987" d="M 284,563 V 563 563 C 282,558 274,549 267,544 263,541 257,538 252,538 252,538 248,526 245,521 242,516 237,508 234,506 L 262,516 V 516 516 C 263,521 272,538 276,536 280,535 279,526 279,524 V 524 524 C 280,527 282,529 284,529 287,529 289,527 290,524 V 524 524 C 289,530 290,536 293,536 297,537 306,519 307,516 V 516 516 L 335,506 C 330,511 326,517 322,523 320,528 318,531 316,538 310,538 306,541 301,544 294,549 288,557 284,563 Z" style="fill:black;stroke:red;stroke-width:0.1;stroke-miterlimit:4;stroke-dasharray:none;stroke-opacity:1" inkscape:connector-curvature="0" />
  <path id="path978" d="M 174,550 V 550 550 C 171,544 167,540 162,537 157,534 151,534 145,536 144,531 141,526 137,524 133,521 129,520 122,521 126,517 128,514 131,512 135,509 140,506 145,506 147,508 150,511 153,513 157,515 161,517 166,517 V 517 C 166,514 166,512 167,509 L 169,515 H 174 178 L 180,510 C 181,512 181,514 182,517 V 517 C 187,517 191,515 195,513 198,511 201,507 202,506 206,506 212,509 216,511 219,514 223,518 225,522 220,520 214,521 210,524 206,526 203,532 202,536 197,534 190,534 185,537 180,539 176,544 174,550 Z" style="fill:black;stroke:red;stroke-width:0.1;stroke-miterlimit:4;stroke-dasharray:none;stroke-opacity:1" inkscape:connector-curvature="0" />
</svg>
