<?xml version="1.0" encoding="UTF-8" standalone="no"?>
<svg
   xmlns:dc="http://purl.org/dc/elements/1.1/"
   xmlns:cc="http://creativecommons.org/ns#"
   xmlns:rdf="http://www.w3.org/1999/02/22-rdf-syntax-ns#"
   xmlns:svg="http://www.w3.org/2000/svg"
   xmlns="http://www.w3.org/2000/svg"
   id="svg989"
   viewBox="0 0 102.58918 58.388047"
   version="1.1"
   height="58.977825mm"
   width="102.58916mm">
  <metadata
     id="metadata995">
    <rdf:RDF>
      <cc:Work
         rdf:about="">
        <dc:format>image/svg+xml</dc:format>
        <dc:type
           rdf:resource="http://purl.org/dc/dcmitype/StillImage" />
        <dc:title></dc:title>
      </cc:Work>
    </rdf:RDF>
  </metadata>
  <defs
     id="defs993" />
  <path
     id="path2408"
     d="m 51.383898,47.582026 v 0 0 c 0,0 -26.47437,-0.93709 -51.32681993,10.86856 v 0 0 0 c 0.80045,-9.5625 3.52931003,-20.24882 6.59084003,-28.7184 3.06154,-8.46958 8.1277799,-18.83019 10.7405899,-22.6722003 5.92338,2.83959 9.77711,3.5216803 14.89624,3.9506203 4.36063,0.36539 9.09531,0.0665 13.07215,-1.2066503 v 0 l 2.58303,-9.92566033 1.11879,3.25873003 c 0,0 1.57278,-0.41668 2.33662,-0.41183 0.76383,0.005 2.15029,0.39613 2.15029,0.39613 l 1.19731,-3.03891003 2.67723,9.84472033 v 0 c 3.98131,1.0160103 9.79638,1.4379303 14.515261,1.0030603 4.71888,-0.43486 10.26873,-2.0217903 13.22445,-3.8546803 3.828919,6.4693203 8.677759,16.1450703 11.591079,24.8083503 2.83561,8.43219 5.117322,17.68373 5.782372,26.72143 v 0 0 0 C 85.974209,51.659596 69.005779,47.442576 51.383898,47.582026 Z"
     style="fill:#808080;fill-opacity:1;stroke:#ff0008;stroke-width:0.10000001;stroke-miterlimit:4;stroke-dasharray:none;stroke-opacity:1" />
  <path
     id="path2434"
     d="m 51.177968,53.222595 v 2e-5 0 c -3.94807,-5.69651 -14.23076,-11.05146 -22.67853,-12.47104 -9.03523,-1.5183 -19.9264799,-2.36996 -27.94357993,-0.16764 v 0 0 c 2.40979003,-5.86548 5.53003003,-10.99445 9.44771993,-15.6686 5.01322,-5.98121 12.31931,-13.13 17.62918,-15.4070491 4.74948,4.6471491 10.80576,6.1906491 17.04171,7.3074491 v 0 c 2.33271,-0.8661 2.26332,-2.60569 2.31924,-3.9964 l -1.31546,-7.7982695 2.25193,6.8809495 c 0,0 2.17636,-0.86 3.24779,-0.88573 1.07143,-0.0257 3.04984,0.68777 3.04984,0.68777 l 1.30513,-6.6829895 -0.12838,7.4023595 c 0.79557,1.27226 1.09427,2.74327 0.9479,4.39231 v 0 c 7.7268,-0.61225 13.86083,-3.1159 18.57347,-7.3074491 5.06083,2.2989691 12.66879,9.4043291 17.67372,15.4070491 3.94766,4.73468 8.579502,12.38389 9.447682,15.89821 v 0 0 c -4.386162,-1.57843 -18.920912,-2.23237 -27.794912,-0.062 -8.48047,2.07415 -17.31331,5.62044 -23.07444,12.47104 v 0 z"
     style="fill:#808080;fill-opacity:1;stroke:#ff0008;stroke-width:0.10000001;stroke-miterlimit:4;stroke-dasharray:none;stroke-opacity:1" />
  <path
     id="path2375"
     d="m 51.270686,47.558441 1e-5,-0.27352 v 0.27352 c -1.8673,-14.70615 -9.33805,-17.7397 -15.22643,-14.76838 -5.88839,2.97132 -1.47956,15.45596 9.366,21.91554 v 0 0 c -12.0728,-2.63228 -19.66771,-14.0675 -20.23663,-25.34934 -0.56892,-11.28184 9.31429,-23.4762119 20.45211,-25.6736119 -10.61791,4.1840899 -14.28551,16.9225519 -12.57666,20.6608219 1.70885,3.73827 9.29266,3.24489 11.95953,3.04862 2.66687,-0.19627 3.3191,-1.9513 3.3191,-1.9513 l 0.93973,-6.81343 0.83792,5.91562 h 1.16533 1.18724 l 0.92037,-5.91562 0.6732,5.91562 c 0,0 -0.2141,2.07622 3.35725,2.93291 3.57135,0.85669 10.46513,0.27285 12.231,-3.13242 1.76588,-3.40528 -2.13915,-16.870052 -12.231,-20.4613119 9.01651,1.93138 20.03021,11.8690309 20.03021,25.4741019 0,13.60507 -9.79504,22.60474 -20.26298,25.31609 v 0 0 c 10.94297,-7.21367 15.52163,-18.46441 9.51396,-21.76458 -5.53434,-3.04015 -12.97912,-0.57767 -15.41925,14.65067 v -0.27352 z"
     style="fill:#808080;fill-opacity:1;stroke:#ff0008;stroke-width:0.10000001;stroke-miterlimit:4;stroke-dasharray:none;stroke-opacity:1" />
  <path
     id="path2275"
     d="m 51.185943,47.455702 v 0 l -3.30996,-6.99473 c -2.01132,-11.57541 -10.45797,-18.16172 -19.3014,-18.20236 -9.48569,-0.0436 -19.1907699,6.27316 -20.8817099,19.33326 v 0 0 c -0.83696,-9.63706 0.94904,-17.05916 6.4146799,-22.72143 5.76417,-5.9715 14.9974,-9.2849204 23.7084,-7.60727 -6.71564,0.94859 -3.68899,4.37892 -2.17492,5.76818 2.00431,1.83909 4.81532,2.59253 7.43932,3.25884 1.74559,0.44326 5.38366,0.45586 5.38366,0.45586 l 0.61373,-6.93254 0.63652,3.44216 h 1.47168 1.63534 l 0.48174,-3.44216 0.59348,7.07886 c 0,0 4.0706,-0.0889 6.00056,-0.65826 2.64615,-0.78062 5.50018,-1.76416 7.39984,-3.70748 3.37808,-3.4557 0.25098,-4.8665 -2.9562,-5.26346 10.43971,-1.7448004 17.946061,1.58055 23.741651,7.5246 5.54382,5.68585 8.03623,12.50524 6.62111,22.88506 v 0 0 c -1.54724,-12.65647 -9.77596,-19.04828 -18.785671,-19.47614 -9.34536,-0.44379 -19.6415,6.40869 -21.31216,18.26428 z"
     style="fill:#808080;fill-opacity:1;stroke:#ff0008;stroke-width:0.20217437;stroke-miterlimit:4;stroke-dasharray:none;stroke-opacity:1" />
  <path
     style="fill:#808080;fill-opacity:1;stroke:#ff0008;stroke-width:0.10000001;stroke-miterlimit:4;stroke-dasharray:none;stroke-opacity:1"
     d="m 51.183436,54.783359 v 0 h 1e-5 c -0.41907,-11.0398 -4.00973,-21.71004 -11.15449,-23.55369 -3.56474,-0.91985 -7.799896,0.0809 -8.367346,6.62361 v 0 0 C 24.27657,33.818399 20.905,28.446209 21.14888,20.511809 21.39276,12.577409 28.4027,3.8294385 39.787166,4.2130485 c -2.53615,1.2784401 -4.60491,5.7461301 -1.55791,8.0965505 1.77797,1.37151 4.74158,2.2575 6.65023,1.07458 1.01568,-0.62949 1.96026,-1.64883 2.86721,-3.30067 0.90695,-1.6518414 1.10828,-6.4788205 1.01276,-6.4788205 l 1.14226,2.6495901 h 1.28173 1.42961 l 1.194,-2.6495901 c -0.0289,-0.0144 -0.13791,4.4808691 1.01406,6.5646105 0.70945,1.28329 1.6042,2.77393 3.00267,3.21488 2.193379,0.69159 5.299559,0.40925 6.749859,-1.42907 1.81999,-2.3069004 1.62869,-5.6150914 -2.09301,-7.7863705 12.39979,-0.19063 18.488091,8.8051905 18.951031,17.2431705 0.30549,5.5682 -2.711511,13.01201 -10.550941,16.13119 v 0 0 c -1.61472,-8.35534 -6.97026,-6.92064 -9.37169,-5.95112 -5.796919,2.34034 -9.883219,12.06912 -10.325599,23.19138 h 1e-5 z"
     id="path2169" />
  <path
     id="path2334"
     d="m 51.171355,47.778784 v 0 0 c -0.40664,-4.55687 -3.82176,-9.76118 -8.13085,-11.86073 -5.2402,-2.55323 -10.73013,-3.15945 -17.45261,1.10236 -1.14695,-2.37473 -4.84718,-6.09523 -8.37322,-6.89269 -4.68117,-1.0587 -9.4053689,-0.73945 -13.9721199,3.4767 0,0 3.992831,-6.6449 9.2855799,-11.83661 5.29275,-5.19171 14.27243,-9.97163 17.6842,-11.112501 0,0 8.23884,3.235941 12.11346,5.350761 3.13634,1.71185 8.94689,5.90397 8.94689,5.90397 v 0 0 0 0 0 0 0 0 c 0,0 6.99201,-4.89193 10.75929,-6.87058 3.27329,-1.7192 10.220887,-4.308571 10.220887,-4.308571 5.41761,1.511681 12.83962,6.519391 18.1217,11.288871 3.62522,3.27341 8.97287,11.58466 8.97287,11.58466 -2.54882,-2.72429 -8.024,-4.69545 -12.27563,-3.97666 -4.0823,0.69017 -8.64271,3.98851 -10.07118,7.31791 -5.19391,-3.78592 -11.156207,-3.63962 -16.264217,-1.70978 -4.72465,1.78501 -8.90926,7.99128 -9.56505,12.54289 z"
     style="fill:#808080;fill-opacity:1;stroke:#ff0008;stroke-width:0.10000001;stroke-miterlimit:4;stroke-dasharray:none;stroke-opacity:1" />
  <path
     id="path1886"
     d="m 51.287151,50.372484 v 0 0 c -0.18146,-3.53272 -4.55008,-13.32057 -7.87163,-14.03151 -3.32155,-0.71094 -4.60292,2.52493 -4.54011,6.09809 -1.28857,-3.12119 -8.15624,-11.94651 -12.19841,-9.24925 -4.04219,2.69726 0.0829,11.63927 2.93114,14.50474 -6.92345,-3.33982 -12.71127,-11.12478 -12.21244,-18.49591 0.7159,-10.5787 12.82507,-18.81718 23.96014,-20.6389196 -3.96652,2.0317596 -7.38833,6.6312196 -6.67157,9.7895796 0.71676,3.15836 4.61532,4.61871 7.9375,4.23334 3.32218,-0.38537 4.49791,-5.16154 4.49791,-5.16154 0.55741,-2.6539 0.41472,-6.18294 0.52917,-9.3905496 l 1.5875,4.2333396 2.12058,0.0561 h 2.00442 l 1.43125,-4.2894196 c 0.24024,3.1458596 0.33435,6.3647996 0.79375,9.4010796 0,0 0.96493,4.30182 3.70417,4.88642 3.95821,0.84474 7.91929,-0.86679 8.73125,-4.23333 0.81196,-3.36654 -3.43958,-8.2020998 -6.90628,-9.4769996 15.37295,3.3130296 23.8994,12.7380396 24.1042,21.3832296 0.2048,8.64519 -7.81247,15.56448 -12.17084,17.64182 2.09424,-2.32489 7.18929,-11.43987 3.07025,-14.32477 -4.11904,-2.8849 -10.99978,5.71512 -12.48176,9.03918 0.0324,-2.48318 -0.37569,-5.86587 -3.88743,-6.14403 -3.51174,-0.27816 -8.32445,10.6204 -8.46276,14.16931 z"
     style="fill:#808080;fill-opacity:1;stroke:#ff0008;stroke-width:0.10000001;stroke-miterlimit:4;stroke-dasharray:none;stroke-opacity:1" />
  <path
     id="path6280"
     d="m 51.283391,50.996711 c 0,0 -0.57583,-4.47029 -2.74044,-5.98426 -1.6757,-1.17201 -4.49973,-1.37423 -6.30206,-0.0735 2.74734,-3.53389 0.52917,-7.14376 -2.50189,-8.71698 -4.05057,-2.10238 -9.40436,0.77947 -10.46269,3.42531 0,-4.49792 -4.41574,-6.54291 -6.87917,-5.34583 -5.55625,2.7 -1.85209,8.78541 1.85208,12.33005 -4.49792,-1.69258 -11.20962,-9.77167 -10.73144,-15.96064 0.94186,-12.19028 12.84811,-17.48195 22.63769,-20.65692 -5.82083,4.7625 -5.20759,7.65358 -3.56102,10.12989 1.64657,2.47631 6.34665,3.53545 9.43963,2.76578 2.05889,-0.51234 3.64639,-3.63525 3.64639,-3.63525 l 1.05834,-12.1708402 1.51123,5.8295002 c 0,0 1.95717,-0.91038 3.03335,-0.91629 1.07618,-0.006 3.15823,0.91629 3.15823,0.91629 l 1.36019,-5.7543002 1.12961,11.7372602 c 0,0 0.004,0.13725 0.0298,0.19931 2.4776,5.97987 9.39788,4.15942 12.3634,1.71718 2.02045,-1.66392 3.34337,-6.32064 -2.82527,-10.70662 5.21894,0.39839 22.53371,8.35484 22.59607,20.50333 0.0395,7.69515 -4.52118,11.92849 -10.6066,15.89724 5.29167,-5.55626 6.0041,-9.40293 2.65561,-11.82105 -2.49198,-1.79959 -7.41811,-0.40395 -7.94728,4.67729 -2.11666,-3.70416 -7.33896,-4.75942 -10.45358,-3.08217 -2.77559,1.49467 -4.89225,4.93426 -2.24642,8.90301 -1.85208,-1.5875 -4.64823,-1.36433 -6.35,-0.26455 -1.95556,1.26379 -2.91042,6.34997 -2.91042,6.34997 z"
     style="fill:#808080;fill-opacity:1;stroke:#ff0008;stroke-width:0.13229167;stroke-miterlimit:4;stroke-dasharray:none;stroke-opacity:1" />
  <path
     id="path2113"
     d="m 51.271483,50.174233 -10.71399,-10.38303 -9.86505,4.47165 -5.34808,-7.15488 -7.94986,5.23969 -5.13127,-6.54057 -11.93364993,3.98411 v 0 L 26.126563,8.2596731 l 1.48453,7.5833499 16.53971,3.65949 1.49682,-3.65949 1.37402,-3.19723 1.34879,2.94385 h 2.90106 2.90388 l 1.29757,-2.94385 1.3744,3.19723 1.49682,3.65949 16.61306,-3.65949 1.3393,-7.5833499 25.962707,31.5315299 v 0 l -12.051257,-3.98411 -5.09514,6.54057 -7.94985,-5.23969 -5.38423,7.15488 -9.82891,-4.47165 z"
     style="fill:#808080;fill-opacity:1;stroke:#ff0008;stroke-width:0.10000001;stroke-miterlimit:4;stroke-dasharray:none;stroke-opacity:1" />
</svg>
