<?xml version="1.0" encoding="UTF-8" standalone="no"?>
<svg
   xmlns:dc="http://purl.org/dc/elements/1.1/"
   xmlns:cc="http://creativecommons.org/ns#"
   xmlns:rdf="http://www.w3.org/1999/02/22-rdf-syntax-ns#"
   xmlns:svg="http://www.w3.org/2000/svg"
   xmlns="http://www.w3.org/2000/svg"
   xmlns:sodipodi="http://sodipodi.sourceforge.net/DTD/sodipodi-0.dtd"
   xmlns:inkscape="http://www.inkscape.org/namespaces/inkscape"
   width="68.13mm"
   height="42.744mm"
   version="1.1"
   viewBox="0 0 68.13 42.317"
   id="svg989"
   sodipodi:docname="batstar.svg"
   inkscape:version="0.92.2 5c3e80d, 2017-08-06">
  <metadata
     id="metadata995">
    <rdf:RDF>
      <cc:Work
         rdf:about="">
        <dc:format>image/svg+xml</dc:format>
        <dc:type
           rdf:resource="http://purl.org/dc/dcmitype/StillImage" />
        <dc:title></dc:title>
      </cc:Work>
    </rdf:RDF>
  </metadata>
  <defs
     id="defs993" />
  <sodipodi:namedview
     pagecolor="#ffffff"
     bordercolor="#666666"
     borderopacity="1"
     objecttolerance="10"
     gridtolerance="10"
     guidetolerance="10"
     inkscape:pageopacity="0"
     inkscape:pageshadow="2"
     inkscape:window-width="1680"
     inkscape:window-height="921"
     id="namedview991"
     showgrid="false"
     showguides="true"
     inkscape:guide-bbox="true"
     inkscape:zoom="0.56823"
     inkscape:cx="53.956"
     inkscape:cy="80.775"
     inkscape:window-x="1"
     inkscape:window-y="0"
     inkscape:window-maximized="0"
     inkscape:current-layer="svg989"
     inkscape:lockguides="false"
     inkscape:measure-start="0,0"
     inkscape:measure-end="0,0"
     inkscape:snap-grids="false"
     inkscape:snap-page="true"
     inkscape:snap-text-baseline="true"
     inkscape:snap-center="true"
     inkscape:snap-object-midpoints="true"
     inkscape:snap-midpoints="true"
     inkscape:snap-smooth-nodes="true">
    <inkscape:grid
       type="xygrid"
       id="grid2406"
       originx="71.037"
       originy="53.54" />
  </sodipodi:namedview>
  <path
     sodipodi:nodetypes="ccccccccccccccccccccccccccccccccccccccccccccccccccccc"
     inkscape:connector-curvature="0"
     id="path2993"
     d="M 34.155,41.034 33.065,30.674 29.865,39.204 30.965,30.164 25.815,37.664 29.065,29.154 26.655,35.514 23.085,31.644 18.955,28.404 15.315,27.464 12.265,28.864 12.725,33.904 20.005,42.364 5.055,33.904 0.01501,21.764 8.725,6.754 25.215,0.084 17.635,6.754 19.375,11.564 27.445,15.804 22.245,8.314 29.065,14.374 25.815,5.854 30.965,13.364 31.095,0.304 32.375,3.464 34.155,3.504 35.935,3.544 37.215,0.304 37.345,13.364 42.505,5.854 39.255,14.374 46.065,8.314 40.875,15.804 48.935,11.564 51.045,6.754 42.845,-0.106 59.885,6.754 68.115,21.764 63.265,33.904 47.885,42.614 55.375,33.904 56.185,29.444 53.445,27.464 49.375,28.404 45.385,31.644 41.735,35.594 39.255,29.154 42.505,37.664 37.345,30.164 38.455,39.204 35.245,30.674 Z"
     inkscape:transform-center-y="0.0008625"
     inkscape:transform-center-x="-0.0033193"
     style="fill:#ff0000;fill-opacity:1;stroke:#ff0008;stroke-width:0.02696;stroke-miterlimit:4;stroke-dasharray:none;stroke-opacity:1" />
  <path
     style="fill:#0000ff;fill-opacity:1;stroke:#ff0008;stroke-width:0.02696;stroke-miterlimit:4;stroke-dasharray:none;stroke-opacity:1"
     inkscape:transform-center-x="-0.0033193"
     inkscape:transform-center-y="0.0008625"
     d="M 34.06,39.218 32.97,30.168 29.77,38.698 30.87,29.648 25.72,37.158 28.97,28.648 22.15,34.698 27.35,27.208 19.28,31.458 26.12,25.428 17.26,27.628 25.35,23.408 16.24,23.418 25.09,21.258 16.24,19.088 25.35,19.108 17.26,14.888 26.12,17.078 19.28,11.06 27.35,15.298 22.15,7.81 28.97,13.858 25.72,5.35 30.87,12.858 29.77,3.82 32.97,12.338 34.06,3.29 35.15,12.338 38.36,3.82 37.25,12.858 42.41,5.35 39.16,13.858 45.97,7.81 40.78,15.298 48.84,11.06 42.01,17.078 50.86,14.888 42.78,19.108 51.89,19.088 43.04,21.258 51.89,23.418 42.78,23.398 50.86,27.628 42.01,25.428 48.84,31.458 40.78,27.208 45.97,34.698 39.16,28.648 42.41,37.158 37.25,29.648 38.36,38.698 35.15,30.168 Z"
     id="path3019"
     inkscape:connector-curvature="0"
     sodipodi:nodetypes="ccccccccccccccccccccccccccccccccccccccccccccccccccccc" />
  <path
     style="fill:#0000ff;fill-opacity:1;stroke:#ff0008;stroke-width:0.02696;stroke-miterlimit:4;stroke-dasharray:none;stroke-opacity:1"
     inkscape:transform-center-x="-0.0033193"
     inkscape:transform-center-y="0.0008625"
     d="M 34.155,41.033 33.065,30.673 29.865,39.203 30.965,30.153 25.815,37.663 29.065,29.153 26.655,35.503 27.445,27.713 19.375,31.963 26.215,25.933 17.355,28.133 25.445,23.913 20.005,42.363 25.185,21.763 H 0.01501 L 25.445,19.613 25.215,0.073 26.215,17.583 19.375,11.563 27.445,15.803 22.245,8.313 29.065,14.363 25.815,5.853 30.965,13.363 31.095,0.293 33.065,3.843 34.155,3.793 35.245,3.843 37.215,0.293 37.345,13.363 42.505,5.853 39.255,14.363 46.065,8.313 40.875,15.803 48.935,11.563 42.105,17.583 42.845,-0.107 42.875,19.613 68.115,21.763 H 43.135 L 47.885,42.613 42.875,23.903 50.955,28.133 42.105,25.933 48.935,31.963 40.875,27.713 41.735,35.583 39.255,29.153 42.505,37.663 37.345,30.153 38.455,39.203 35.245,30.673 Z"
     id="path3021"
     inkscape:connector-curvature="0"
     sodipodi:nodetypes="ccccccccccccccccccccccccccccccccccccccccccccccccccccc" />
  <path
     style="fill:#0000ff;fill-opacity:1;stroke:#ff0008;stroke-width:0.02696;stroke-miterlimit:4;stroke-dasharray:none;stroke-opacity:1"
     inkscape:transform-center-x="-0.0033193"
     inkscape:transform-center-y="0.0008625"
     d="M 34.155,41.03 33.065,30.67 29.865,39.2 30.965,30.16 25.815,37.66 29.065,29.15 26.655,35.51 27.445,27.71 19.375,31.97 26.215,25.93 17.355,28.13 12.725,33.9 20.005,42.36 5.055,33.9 0.01501,21.76 8.725,6.749 25.215,0.079 17.635,6.749 19.375,11.559 27.445,15.809 22.245,8.309 29.065,14.369 25.815,5.859 30.965,13.359 31.095,0.299 32.375,3.459 34.155,3.499 35.935,3.539 37.215,0.299 37.345,13.359 42.505,5.859 39.255,14.369 46.065,8.309 40.875,15.809 48.935,11.559 51.045,6.749 42.845,-0.101 59.885,6.749 68.115,21.76 63.265,33.9 47.885,42.61 55.375,33.9 50.955,28.13 42.105,25.93 48.935,31.97 40.875,27.71 41.735,35.59 39.255,29.15 42.505,37.66 37.345,30.16 38.455,39.2 35.245,30.67 Z"
     id="path3027"
     inkscape:connector-curvature="0"
     sodipodi:nodetypes="ccccccccccccccccccccccccccccccccccccccccccccccccccccc" />
  <path
     sodipodi:nodetypes="ccccccccccccccccccccccccccccccccccccccccccccccccccccc"
     inkscape:connector-curvature="0"
     id="path3065"
     d="M 34.155,41.034 32.945,33.904 30.835,30.444 28.005,28.404 26.175,30.064 26.105,32.174 26.655,35.504 23.085,31.644 18.955,28.404 15.315,27.454 12.265,28.864 12.725,33.904 20.005,42.364 5.055,33.904 0.01501,21.764 8.725,6.754 25.215,0.074 17.635,6.754 19.375,11.564 27.445,15.804 22.245,8.314 29.065,14.374 25.815,5.854 30.965,13.364 31.095,0.304 32.375,3.454 34.155,3.504 35.935,3.544 37.215,0.304 37.345,13.364 42.505,5.854 39.255,14.374 46.065,8.314 40.875,15.804 48.935,11.564 51.045,6.754 42.845,-0.106 59.885,6.754 68.115,21.764 63.265,33.904 47.885,42.614 55.375,33.904 56.185,29.444 53.445,27.454 49.375,28.404 45.385,31.644 41.735,35.594 42.335,32.174 42.025,30.064 40.555,28.404 37.365,30.444 35.485,33.904 Z"
     inkscape:transform-center-y="0.0008625"
     inkscape:transform-center-x="-0.0033193"
     style="fill:#ff0000;fill-opacity:1;stroke:#ff0008;stroke-width:0.02696;stroke-miterlimit:4;stroke-dasharray:none;stroke-opacity:1" />
  <path
     sodipodi:nodetypes="ccccccccccccccccccccccccccccccccccccccccccccccccccccc"
     inkscape:connector-curvature="0"
     id="path3077"
     d="M 34.155,41.029 32.945,33.899 30.835,30.449 28.005,28.399 26.175,30.059 26.105,32.169 26.655,35.509 23.085,31.639 18.955,28.399 15.315,27.459 12.265,28.859 12.725,33.899 20.005,42.359 5.055,33.899 0.01501,21.759 8.725,6.749 25.215,0.079 20.285,3.009 17.685,6.019 16.585,9.389 18.205,12.349 22.485,14.249 28.225,14.419 29.635,13.309 31.095,0.299 32.375,3.459 34.155,3.509 35.935,3.539 37.215,0.299 38.685,13.309 39.795,14.419 H 44.925 L 50.285,12.349 51.715,9.389 50.625,6.019 48.085,3.009 42.845,-0.101 59.885,6.749 68.115,21.759 63.265,33.899 47.885,42.609 55.375,33.899 56.185,29.439 53.445,27.459 49.375,28.399 45.385,31.639 41.735,35.589 42.335,32.169 42.025,30.059 40.555,28.399 37.365,30.449 35.485,33.899 Z"
     inkscape:transform-center-y="0.0008625"
     inkscape:transform-center-x="-0.0033193"
     style="fill:#ff0000;fill-opacity:1;stroke:#ff0008;stroke-width:0.02696;stroke-miterlimit:4;stroke-dasharray:none;stroke-opacity:1" />
</svg>
